<svg xmlns="http://www.w3.org/2000/svg" width="1200" height="700">
  <rect width="100%" height="100%" fill="#0d1117"/>
  <line x1="48" y1="24" x2="1152" y2="24" stroke="#21262d" stroke-width="1"/><line x1="48" y1="181" x2="1152" y2="181" stroke="#21262d" stroke-width="1"/><line x1="48" y1="338" x2="1152" y2="338" stroke="#21262d" stroke-width="1"/><line x1="48" y1="495" x2="1152" y2="495" stroke="#21262d" stroke-width="1"/><line x1="48" y1="652" x2="1152" y2="652" stroke="#21262d" stroke-width="1"/>
  <rect x="232" y="24" width="73.59999999999997" height="628" fill="rgba(0, 99, 64, 0.12)"/><rect x="305.59999999999997" y="24" width="331.2" height="628" fill="rgba(59, 130, 246, 0.12)"/><rect x="636.8" y="24" width="110.39999999999998" height="628" fill="rgba(234, 179, 8, 0.12)"/><rect x="747.1999999999999" y="24" width="404.80000000000007" height="628" fill="rgba(168, 85, 247, 0.12)"/>
  <line x1="66.4" y1="425.22222222222223" x2="66.4" y2="574.3722222222223" stroke="#A02128" stroke-width="1"/><rect x="55.36000000000001" y="487.935" width="22.08" height="64.63166666666672" fill="#A02128"/><line x1="103.19999999999999" y1="503.72222222222223" x2="103.19999999999999" y2="652" stroke="#A02128" stroke-width="1"/><rect x="92.16" y="534.25" width="22.08" height="30.876666666666665" fill="#A02128"/><line x1="140" y1="444.39366666666666" x2="140" y2="565.8244444444445" stroke="#006340" stroke-width="1"/><rect x="128.96" y="509.5661111111111" width="22.08" height="29.04499999999996" fill="#006340"/><line x1="176.79999999999998" y1="505.5538888888889" x2="176.79999999999998" y2="584.5074444444444" stroke="#006340" stroke-width="1"/><rect x="165.76" y="534.0755555555555" width="22.08" height="48.14666666666665" fill="#006340"/><line x1="213.6" y1="381.6111111111111" x2="213.6" y2="528.9643333333333" stroke="#006340" stroke-width="1"/><rect x="202.56" y="467.08888888888885" width="22.08" height="58.43888888888898" fill="#006340"/><line x1="250.4" y1="276.94444444444446" x2="250.4" y2="376.7441111111111" stroke="#006340" stroke-width="1"/><rect x="239.36" y="310.96111111111117" width="22.08" height="44.48333333333329" fill="#006340"/><line x1="287.19999999999993" y1="320.55555555555554" x2="287.19999999999993" y2="399.05555555555554" stroke="#A02128" stroke-width="1"/><rect x="276.1599999999999" y="365.8762222222222" width="22.08" height="24.45711111111109" fill="#A02128"/><line x1="323.99999999999994" y1="338" x2="323.99999999999994" y2="482.4051111111111" stroke="#006340" stroke-width="1"/><rect x="312.9599999999999" y="409.52222222222224" width="22.08" height="33.144444444444446" fill="#006340"/><line x1="360.79999999999995" y1="280.95666666666665" x2="360.79999999999995" y2="437.43333333333334" stroke="#A02128" stroke-width="1"/><rect x="349.75999999999993" y="355.44444444444446" width="22.08" height="81.98888888888888" fill="#A02128"/><line x1="397.59999999999997" y1="276.94444444444446" x2="397.59999999999997" y2="590.9444444444445" stroke="#A02128" stroke-width="1"/><rect x="386.55999999999995" y="437.43333333333334" width="22.08" height="131.0077777777778" fill="#A02128"/><line x1="434.4" y1="562.3704444444445" x2="434.4" y2="651.843" stroke="#A02128" stroke-width="1"/><rect x="423.35999999999996" y="566.7315555555556" width="22.08" height="50.990111111111105" fill="#A02128"/><line x1="471.19999999999993" y1="508.39733333333334" x2="471.19999999999993" y2="617.1111111111111" stroke="#006340" stroke-width="1"/><rect x="460.1599999999999" y="513.4911111111111" width="22.08" height="70.49300000000005" fill="#006340"/><line x1="507.99999999999994" y1="303.1111111111111" x2="507.99999999999994" y2="475.1307777777778" stroke="#006340" stroke-width="1"/><rect x="496.9599999999999" y="333.6388888888889" width="22.08" height="109.02777777777777" fill="#006340"/><line x1="544.8" y1="263.3377777777778" x2="544.8" y2="359.352" stroke="#006340" stroke-width="1"/><rect x="533.76" y="313.8045555555555" width="22.08" height="41.63988888888895" fill="#006340"/><line x1="581.5999999999999" y1="233.33333333333337" x2="581.5999999999999" y2="338" stroke="#006340" stroke-width="1"/><rect x="570.56" y="250.77777777777783" width="22.08" height="87.22222222222217" fill="#006340"/><line x1="618.4" y1="24" x2="618.4" y2="260.3722222222222" stroke="#006340" stroke-width="1"/><rect x="607.36" y="119.94444444444446" width="22.08" height="114.10411111111108" fill="#006340"/><line x1="655.1999999999999" y1="93.77777777777783" x2="655.1999999999999" y2="215.8888888888889" stroke="#006340" stroke-width="1"/><rect x="644.16" y="137.3888888888889" width="22.08" height="74.05166666666668" fill="#006340"/><line x1="691.9999999999999" y1="112.9666666666667" x2="691.9999999999999" y2="221.1222222222222" stroke="#A02128" stroke-width="1"/><rect x="680.9599999999999" y="112.9666666666667" width="22.08" height="30.004444444444403" fill="#A02128"/><line x1="728.8" y1="44.06111111111113" x2="728.8" y2="218.05200000000002" stroke="#A02128" stroke-width="1"/><rect x="717.76" y="95.52222222222224" width="22.08" height="106.04477777777771" fill="#A02128"/><line x1="765.5999999999999" y1="25.918888888888887" x2="765.5999999999999" y2="225.76244444444444" stroke="#006340" stroke-width="1"/><rect x="754.56" y="93.77777777777783" width="22.08" height="130.83333333333326" fill="#006340"/><line x1="802.4" y1="58.888888888888914" x2="802.4" y2="262.09922222222224" stroke="#A02128" stroke-width="1"/><rect x="791.36" y="118.54888888888888" width="22.08" height="139.2066666666667" fill="#A02128"/><line x1="839.1999999999999" y1="207.4632222222222" x2="839.1999999999999" y2="318.40988888888893" stroke="#A02128" stroke-width="1"/><rect x="828.16" y="250.77777777777783" width="22.08" height="2.791111111111036" fill="#A02128"/><line x1="875.9999999999999" y1="259.7093333333333" x2="875.9999999999999" y2="372.8888888888889" stroke="#006340" stroke-width="1"/><rect x="864.9599999999999" y="296.36011111111117" width="22.08" height="11.112111111111005" fill="#006340"/><line x1="912.8" y1="77.55444444444447" x2="912.8" y2="232.11222222222221" stroke="#006340" stroke-width="1"/><rect x="901.76" y="117.48477777777782" width="22.08" height="114.6274444444444" fill="#006340"/><line x1="949.5999999999999" y1="63.73844444444444" x2="949.5999999999999" y2="189.72222222222217" stroke="#A02128" stroke-width="1"/><rect x="938.56" y="128.87599999999998" width="22.08" height="60.846222222222195" fill="#A02128"/><line x1="986.3999999999999" y1="111.57111111111112" x2="986.3999999999999" y2="285.66666666666663" stroke="#A02128" stroke-width="1"/><rect x="975.3599999999999" y="234.46722222222223" width="22.08" height="51.199444444444396" fill="#A02128"/><line x1="1023.1999999999999" y1="230.43755555555555" x2="1023.1999999999999" y2="343.9311111111111" stroke="#A02128" stroke-width="1"/><rect x="1012.16" y="301.54111111111115" width="22.08" height="42.38999999999993" fill="#A02128"/><line x1="1060" y1="368.52777777777777" x2="1060" y2="465.34444444444443" stroke="#A02128" stroke-width="1"/><rect x="1048.96" y="372.8888888888889" width="22.08" height="54.07777777777778" fill="#A02128"/><line x1="1096.8" y1="426.9666666666667" x2="1096.8" y2="572.5405555555556" stroke="#A02128" stroke-width="1"/><rect x="1085.76" y="426.9666666666667" width="22.08" height="100.11366666666663" fill="#A02128"/><line x1="1133.6" y1="441.7072222222222" x2="1133.6" y2="572.1742222222222" stroke="#A02128" stroke-width="1"/><rect x="1122.56" y="484.5682222222222" width="22.08" height="6.768444444444469" fill="#A02128"/>
  <rect x="220.79999999999995" y="28" width="96" height="18" rx="4" fill="rgba(13,17,23,0.85)" stroke="#30363d"/><text x="268.79999999999995" y="40" text-anchor="middle" fill="#e6edf3" font-family="system-ui,sans-serif" font-size="11">setup</text><rect x="423.19999999999993" y="28" width="96" height="18" rx="4" fill="rgba(13,17,23,0.85)" stroke="#30363d"/><text x="471.19999999999993" y="40" text-anchor="middle" fill="#e6edf3" font-family="system-ui,sans-serif" font-size="11">pullback</text><rect x="644" y="28" width="96" height="18" rx="4" fill="rgba(13,17,23,0.85)" stroke="#30363d"/><text x="692" y="40" text-anchor="middle" fill="#e6edf3" font-family="system-ui,sans-serif" font-size="11">trigger</text><rect x="901.5999999999999" y="28" width="96" height="18" rx="4" fill="rgba(13,17,23,0.85)" stroke="#30363d"/><text x="949.5999999999999" y="40" text-anchor="middle" fill="#e6edf3" font-family="system-ui,sans-serif" font-size="11">outcome</text>
</svg>