<svg xmlns="http://www.w3.org/2000/svg" width="1200" height="700">
  <rect width="100%" height="100%" fill="#0d1117"/>
  <line x1="48" y1="24" x2="1152" y2="24" stroke="#21262d" stroke-width="1"/><line x1="48" y1="181" x2="1152" y2="181" stroke="#21262d" stroke-width="1"/><line x1="48" y1="338" x2="1152" y2="338" stroke="#21262d" stroke-width="1"/><line x1="48" y1="495" x2="1152" y2="495" stroke="#21262d" stroke-width="1"/><line x1="48" y1="652" x2="1152" y2="652" stroke="#21262d" stroke-width="1"/>
  <line x1="59.5" y1="24" x2="59.5" y2="77.23363764906787" stroke="#006340" stroke-width="1"/><rect x="52.6" y="53.45681123309623" width="13.799999999999999" height="4.1490251009640815" fill="#006340"/><line x1="82.5" y1="31.45609200666297" x2="82.5" y2="67.03683982161817" stroke="#A02128" stroke-width="1"/><rect x="75.6" y="53.45681123309623" width="13.799999999999999" height="4.499394598312051" fill="#A02128"/><line x1="105.5" y1="26.627194388440216" x2="105.5" y2="119.36622037572488" stroke="#A02128" stroke-width="1"/><rect x="98.6" y="57.95620583140828" width="13.799999999999999" height="49.04342966626177" fill="#A02128"/><line x1="128.5" y1="80.83155773308317" x2="128.5" y2="133.47581751134044" stroke="#A02128" stroke-width="1"/><rect x="121.6" y="106.99963549767006" width="13.799999999999999" height="16.251948801174535" fill="#A02128"/><line x1="151.5" y1="109.00077520347088" x2="151.5" y2="165.78306970871182" stroke="#A02128" stroke-width="1"/><rect x="144.6" y="123.25158429884459" width="13.799999999999999" height="25.67072517186108" fill="#A02128"/><line x1="174.5" y1="138.61678263504643" x2="174.5" y2="183.61362551383695" stroke="#A02128" stroke-width="1"/><rect x="167.6" y="148.92230947070567" width="13.799999999999999" height="29.784862105604645" fill="#A02128"/><line x1="197.5" y1="175.21878655184838" x2="197.5" y2="220.13585378466058" stroke="#A02128" stroke-width="1"/><rect x="190.6" y="178.70717157631032" width="13.799999999999999" height="37.83099401693414" fill="#A02128"/><line x1="220.5" y1="164.24059405735397" x2="220.5" y2="230.4991381890606" stroke="#006340" stroke-width="1"/><rect x="213.6" y="185.14306720251096" width="13.799999999999999" height="31.395098390733494" fill="#006340"/><line x1="243.5" y1="154.00950835600509" x2="243.5" y2="203.39024734450174" stroke="#006340" stroke-width="1"/><rect x="236.6" y="159.75678823803946" width="13.799999999999999" height="25.3862789644715" fill="#006340"/><line x1="266.5" y1="144.6317500828933" x2="266.5" y2="218.9382264618584" stroke="#A02128" stroke-width="1"/><rect x="259.6" y="159.75678823803946" width="13.799999999999999" height="38.44200114537216" fill="#A02128"/><line x1="289.5" y1="174.0450332282511" x2="289.5" y2="218.30800100791498" stroke="#006340" stroke-width="1"/><rect x="282.6" y="176.82680014546202" width="13.799999999999999" height="21.371989237949606" fill="#006340"/><line x1="312.5" y1="146.18593224101966" x2="312.5" y2="250.22425437702475" stroke="#A02128" stroke-width="1"/><rect x="305.6" y="176.82680014546202" width="13.799999999999999" height="44.85336367992255" fill="#A02128"/><line x1="335.5" y1="176.11643117869232" x2="335.5" y2="224.2171449606658" stroke="#006340" stroke-width="1"/><rect x="328.6" y="191.64691961085282" width="13.799999999999999" height="30.03324421453175" fill="#006340"/><line x1="358.5" y1="177.56776610877813" x2="358.5" y2="241.97641359036737" stroke="#A02128" stroke-width="1"/><rect x="351.6" y="191.64691961085282" width="13.799999999999999" height="27.386977608507266" fill="#A02128"/><line x1="381.5" y1="201.59741200108346" x2="381.5" y2="259.27688597011047" stroke="#A02128" stroke-width="1"/><rect x="374.6" y="219.03389721936009" width="13.799999999999999" height="14.861245623129491" fill="#A02128"/><line x1="404.5" y1="213.18358599202355" x2="404.5" y2="284.96653173075936" stroke="#A02128" stroke-width="1"/><rect x="397.6" y="233.89514284248958" width="13.799999999999999" height="24.31278416641578" fill="#A02128"/><line x1="427.5" y1="237.15643033373505" x2="427.5" y2="291.1123674238521" stroke="#A02128" stroke-width="1"/><rect x="420.6" y="258.20792700890536" width="13.799999999999999" height="12.690544397374197" fill="#A02128"/><line x1="450.5" y1="256.14905609882504" x2="450.5" y2="315.41499509204124" stroke="#A02128" stroke-width="1"/><rect x="443.6" y="270.89847140627955" width="13.799999999999999" height="12.851594824970562" fill="#A02128"/><line x1="473.5" y1="281.38221701042426" x2="473.5" y2="309.6258097855147" stroke="#A02128" stroke-width="1"/><rect x="466.6" y="283.7500662312501" width="13.799999999999999" height="1.911720073333754" fill="#A02128"/><line x1="496.5" y1="261.60607265591045" x2="496.5" y2="360.1463299020285" stroke="#A02128" stroke-width="1"/><rect x="489.6" y="285.66178630458387" width="13.799999999999999" height="47.52152811090707" fill="#A02128"/><line x1="519.5" y1="309.3077274362269" x2="519.5" y2="383.49646090704965" stroke="#A02128" stroke-width="1"/><rect x="512.6" y="333.18331441549094" width="13.799999999999999" height="48.037584890806784" fill="#A02128"/><line x1="542.5" y1="307.283590387775" x2="542.5" y2="395.9227000553613" stroke="#006340" stroke-width="1"/><rect x="535.6" y="338.39271842185303" width="13.799999999999999" height="42.82818088444469" fill="#006340"/><line x1="565.5" y1="336.31326600454366" x2="565.5" y2="365.92392941289114" stroke="#A02128" stroke-width="1"/><rect x="558.6" y="338.39271842185303" width="13.799999999999999" height="21.691725895741342" fill="#A02128"/><line x1="588.5" y1="342.29962819173477" x2="588.5" y2="399.6264235817258" stroke="#A02128" stroke-width="1"/><rect x="581.6" y="360.0844443175944" width="13.799999999999999" height="10.790516300040224" fill="#A02128"/><line x1="611.5" y1="368.95622580080794" x2="611.5" y2="418.5076790221541" stroke="#A02128" stroke-width="1"/><rect x="604.6" y="370.8749606176346" width="13.799999999999999" height="16.40776145481948" fill="#A02128"/><line x1="634.5" y1="355.4637137834635" x2="634.5" y2="443.8067022966235" stroke="#A02128" stroke-width="1"/><rect x="627.6" y="387.2827220724541" width="13.799999999999999" height="46.86404313059256" fill="#A02128"/><line x1="657.5" y1="387.7981028804754" x2="657.5" y2="454.24813471755164" stroke="#006340" stroke-width="1"/><rect x="650.6" y="415.60560585726233" width="13.799999999999999" height="18.54115934578431" fill="#006340"/><line x1="680.5" y1="362.4145864188547" x2="680.5" y2="436.39388149258696" stroke="#006340" stroke-width="1"/><rect x="673.6" y="383.426670837318" width="13.799999999999999" height="32.17893501994433" fill="#006340"/><line x1="703.5" y1="355.406453099381" x2="703.5" y2="444.46481915006734" stroke="#A02128" stroke-width="1"/><rect x="696.6" y="383.426670837318" width="13.799999999999999" height="46.97433078719837" fill="#A02128"/><line x1="726.5" y1="409.97988010052524" x2="726.5" y2="478.29436077585046" stroke="#A02128" stroke-width="1"/><rect x="719.6" y="430.40100162451637" width="13.799999999999999" height="39.37250430627586" fill="#A02128"/><line x1="749.5" y1="454.14801734572734" x2="749.5" y2="487.43481833572105" stroke="#006340" stroke-width="1"/><rect x="742.6" y="461.41967639397643" width="13.799999999999999" height="8.353829536815795" fill="#006340"/><line x1="772.5" y1="457.0617995582551" x2="772.5" y2="504.7397790167894" stroke="#A02128" stroke-width="1"/><rect x="765.6" y="461.41967639397643" width="13.799999999999999" height="11.006447510999294" fill="#A02128"/><line x1="795.5" y1="426.73350501386005" x2="795.5" y2="485.77712208993904" stroke="#006340" stroke-width="1"/><rect x="788.6" y="448.47098536619603" width="13.799999999999999" height="23.955138538779693" fill="#006340"/><line x1="818.5" y1="421.58764789937266" x2="818.5" y2="477.43138423303276" stroke="#006340" stroke-width="1"/><rect x="811.6" y="444.34489554127526" width="13.799999999999999" height="4.1260898249207685" fill="#006340"/><line x1="841.5" y1="417.41018652372986" x2="841.5" y2="468.23194874131855" stroke="#A02128" stroke-width="1"/><rect x="834.6" y="444.34489554127526" width="13.799999999999999" height="2.1137734012888814" fill="#A02128"/><line x1="864.5" y1="393.3839267515575" x2="864.5" y2="471.17127721529107" stroke="#006340" stroke-width="1"/><rect x="857.6" y="423.6451585832917" width="13.799999999999999" height="22.81351035927247" fill="#006340"/><line x1="887.5" y1="409.8560735419161" x2="887.5" y2="435.18615236757387" stroke="#A02128" stroke-width="1"/><rect x="880.6" y="423.6451585832917" width="13.799999999999999" height="4.338253145431565" fill="#A02128"/><line x1="910.5" y1="411.11546471991795" x2="910.5" y2="489.54822875365994" stroke="#A02128" stroke-width="1"/><rect x="903.6" y="427.98341172872324" width="13.799999999999999" height="31.468376852036215" fill="#A02128"/><line x1="933.5" y1="429.24947645775273" x2="933.5" y2="481.88135989962154" stroke="#006340" stroke-width="1"/><rect x="926.6" y="450.8165899857513" width="13.799999999999999" height="8.635198595008148" fill="#006340"/><line x1="956.5" y1="419.23988219043736" x2="956.5" y2="485.4451579777291" stroke="#A02128" stroke-width="1"/><rect x="949.6" y="450.8165899857513" width="13.799999999999999" height="19.327486695924904" fill="#A02128"/><line x1="979.5" y1="456.652917808716" x2="979.5" y2="475.4995648194209" stroke="#A02128" stroke-width="1"/><rect x="972.6" y="470.1440766816762" width="13.799999999999999" height="2.3781957304394723" fill="#A02128"/><line x1="1002.5" y1="448.36170369326294" x2="1002.5" y2="494.1730688125624" stroke="#006340" stroke-width="1"/><rect x="995.6" y="469.3789066816037" width="13.799999999999999" height="3.1433657305119596" fill="#006340"/><line x1="1025.5" y1="440.2121071846801" x2="1025.5" y2="488.1042959163739" stroke="#A02128" stroke-width="1"/><rect x="1018.6" y="469.3789066816037" width="13.799999999999999" height="13.823906611060124" fill="#A02128"/><line x1="1048.5" y1="468.38063608453444" x2="1048.5" y2="494.464475791151" stroke="#006340" stroke-width="1"/><rect x="1041.6" y="482.93945103010475" width="13.799999999999999" height="1" fill="#006340"/><line x1="1071.5" y1="461.6890060525641" x2="1071.5" y2="536.7756029792833" stroke="#A02128" stroke-width="1"/><rect x="1064.6" y="482.93945103010475" width="13.799999999999999" height="36.108651903967086" fill="#A02128"/><line x1="1094.5" y1="496.91822194816484" x2="1094.5" y2="524.706476105459" stroke="#006340" stroke-width="1"/><rect x="1087.6" y="514.9438321873363" width="13.799999999999999" height="4.104270746735551" fill="#006340"/><line x1="1117.5" y1="509.0371051391202" x2="1117.5" y2="647.5707524618432" stroke="#A02128" stroke-width="1"/><rect x="1110.6" y="514.9438321873363" width="13.799999999999999" height="121.71589345699977" fill="#A02128"/><line x1="1140.5" y1="553.7375824869733" x2="1140.5" y2="652" stroke="#006340" stroke-width="1"/><rect x="1133.6" y="572.7183096149257" width="13.799999999999999" height="63.941416029410334" fill="#006340"/>
</svg>