<svg xmlns="http://www.w3.org/2000/svg" width="1200" height="700">
  <rect width="100%" height="100%" fill="#0d1117"/>
  <line x1="48" y1="24" x2="1152" y2="24" stroke="#21262d" stroke-width="1"/><line x1="48" y1="181" x2="1152" y2="181" stroke="#21262d" stroke-width="1"/><line x1="48" y1="338" x2="1152" y2="338" stroke="#21262d" stroke-width="1"/><line x1="48" y1="495" x2="1152" y2="495" stroke="#21262d" stroke-width="1"/><line x1="48" y1="652" x2="1152" y2="652" stroke="#21262d" stroke-width="1"/>
  <line x1="59.5" y1="593.8856011382163" x2="59.5" y2="652" stroke="#006340" stroke-width="1"/><rect x="52.6" y="606.6353264507597" width="13.799999999999999" height="30.143083585746126" fill="#006340"/><line x1="82.5" y1="570.5964679677803" x2="82.5" y2="611.6754106481078" stroke="#006340" stroke-width="1"/><rect x="75.6" y="573.0394448599318" width="13.799999999999999" height="33.59588159082796" fill="#006340"/><line x1="105.5" y1="555.206556966245" x2="105.5" y2="574.4978632883789" stroke="#006340" stroke-width="1"/><rect x="98.6" y="558.5351734485366" width="13.799999999999999" height="14.504271411395166" fill="#006340"/><line x1="128.5" y1="516.7503519785688" x2="128.5" y2="576.4095918073654" stroke="#006340" stroke-width="1"/><rect x="121.6" y="527.1074363668788" width="13.799999999999999" height="31.427737081657824" fill="#006340"/><line x1="151.5" y1="484.3944775323506" x2="151.5" y2="530.0805927698756" stroke="#006340" stroke-width="1"/><rect x="144.6" y="495.2893288841065" width="13.799999999999999" height="31.81810748277229" fill="#006340"/><line x1="174.5" y1="486.49473151458176" x2="174.5" y2="505.6107672837908" stroke="#006340" stroke-width="1"/><rect x="167.6" y="491.8228304719637" width="13.799999999999999" height="3.466498412142812" fill="#006340"/><line x1="197.5" y1="473.79865245207355" x2="197.5" y2="502.5060989294598" stroke="#A02128" stroke-width="1"/><rect x="190.6" y="491.8228304719637" width="13.799999999999999" height="4.449064257111445" fill="#A02128"/><line x1="220.5" y1="483.5910699826483" x2="220.5" y2="525.7586196223589" stroke="#A02128" stroke-width="1"/><rect x="213.6" y="496.27189472907514" width="13.799999999999999" height="13.24726025538871" fill="#A02128"/><line x1="243.5" y1="489.6481023827219" x2="243.5" y2="510.6085533048208" stroke="#006340" stroke-width="1"/><rect x="236.6" y="503.0801671102655" width="13.799999999999999" height="6.438987874198347" fill="#006340"/><line x1="266.5" y1="494.52397212137475" x2="266.5" y2="504.5027658875509" stroke="#006340" stroke-width="1"/><rect x="259.6" y="501.6102212389177" width="13.799999999999999" height="1.469945871347818" fill="#006340"/><line x1="289.5" y1="466.9837152541309" x2="289.5" y2="518.4049055067545" stroke="#006340" stroke-width="1"/><rect x="282.6" y="473.77433278701585" width="13.799999999999999" height="27.835888451901837" fill="#006340"/><line x1="312.5" y1="440.7403917453223" x2="312.5" y2="486.8231966126841" stroke="#006340" stroke-width="1"/><rect x="305.6" y="457.1903736184314" width="13.799999999999999" height="16.583959168584443" fill="#006340"/><line x1="335.5" y1="416.73065673971064" x2="335.5" y2="473.88316321170186" stroke="#006340" stroke-width="1"/><rect x="328.6" y="427.4529018485167" width="13.799999999999999" height="29.73747176991469" fill="#006340"/><line x1="358.5" y1="392.9283273791056" x2="358.5" y2="431.758988755357" stroke="#006340" stroke-width="1"/><rect x="351.6" y="397.505095806883" width="13.799999999999999" height="29.947806041633726" fill="#006340"/><line x1="381.5" y1="384.87442155466965" x2="381.5" y2="398.4716326397586" stroke="#006340" stroke-width="1"/><rect x="374.6" y="391.6267319465391" width="13.799999999999999" height="5.878363860343882" fill="#006340"/><line x1="404.5" y1="383.2644101862257" x2="404.5" y2="395.2623031909421" stroke="#006340" stroke-width="1"/><rect x="397.6" y="390.83759297728426" width="13.799999999999999" height="1" fill="#006340"/><line x1="427.5" y1="376.0227608779907" x2="427.5" y2="403.0841687094989" stroke="#006340" stroke-width="1"/><rect x="420.6" y="388.5664228804914" width="13.799999999999999" height="2.2711700967928437" fill="#006340"/><line x1="450.5" y1="355.51102730067703" x2="450.5" y2="404.7236314393431" stroke="#006340" stroke-width="1"/><rect x="443.6" y="366.98840285422153" width="13.799999999999999" height="21.578020026269883" fill="#006340"/><line x1="473.5" y1="338.6245780516609" x2="473.5" y2="382.52225553191965" stroke="#006340" stroke-width="1"/><rect x="466.6" y="338.8282508123383" width="13.799999999999999" height="28.160152041883237" fill="#006340"/><line x1="496.5" y1="322.6134319866374" x2="496.5" y2="352.9998277788696" stroke="#006340" stroke-width="1"/><rect x="489.6" y="338.3105002235925" width="13.799999999999999" height="1" fill="#006340"/><line x1="519.5" y1="333.69359650333456" x2="519.5" y2="363.7094704076627" stroke="#A02128" stroke-width="1"/><rect x="512.6" y="338.3105002235925" width="13.799999999999999" height="12.48159842660425" fill="#A02128"/><line x1="542.5" y1="314.3464054209353" x2="542.5" y2="359.5788323501763" stroke="#006340" stroke-width="1"/><rect x="535.6" y="332.24311030044265" width="13.799999999999999" height="18.548988349754097" fill="#006340"/><line x1="565.5" y1="289.0303861879485" x2="565.5" y2="339.75552446973165" stroke="#006340" stroke-width="1"/><rect x="558.6" y="296.8748839887884" width="13.799999999999999" height="35.36822631165427" fill="#006340"/><line x1="588.5" y1="279.55105438572167" x2="588.5" y2="298.37850625390786" stroke="#006340" stroke-width="1"/><rect x="581.6" y="294.9927274311125" width="13.799999999999999" height="1.8821565576758985" fill="#006340"/><line x1="611.5" y1="263.3717630615" x2="611.5" y2="299.5207760133247" stroke="#006340" stroke-width="1"/><rect x="604.6" y="279.2863055983342" width="13.799999999999999" height="15.70642183277829" fill="#006340"/><line x1="634.5" y1="245.93971817016018" x2="634.5" y2="288.62184405479036" stroke="#006340" stroke-width="1"/><rect x="627.6" y="247.56367838628216" width="13.799999999999999" height="31.722627212052032" fill="#006340"/><line x1="657.5" y1="242.26917741820353" x2="657.5" y2="262.0870549310541" stroke="#A02128" stroke-width="1"/><rect x="650.6" y="247.56367838628216" width="13.799999999999999" height="10.718176710225293" fill="#A02128"/><line x1="680.5" y1="216.14961722812933" x2="680.5" y2="274.3679951517585" stroke="#006340" stroke-width="1"/><rect x="673.6" y="233.57145624958252" width="13.799999999999999" height="24.71039884692493" fill="#006340"/><line x1="703.5" y1="202.29355134696777" x2="703.5" y2="235.52560588541826" stroke="#006340" stroke-width="1"/><rect x="696.6" y="203.4797529682267" width="13.799999999999999" height="30.09170328135582" fill="#006340"/><line x1="726.5" y1="186.46916278656903" x2="726.5" y2="220.19056736365746" stroke="#A02128" stroke-width="1"/><rect x="719.6" y="203.4797529682267" width="13.799999999999999" height="2.7480541350404906" fill="#A02128"/><line x1="749.5" y1="181.59316217946366" x2="749.5" y2="210.95003632137997" stroke="#006340" stroke-width="1"/><rect x="742.6" y="191.92527310121488" width="13.799999999999999" height="14.302534002052312" fill="#006340"/><line x1="772.5" y1="176.98345030805694" x2="772.5" y2="203.18876698991613" stroke="#A02128" stroke-width="1"/><rect x="765.6" y="191.92527310121488" width="13.799999999999999" height="3.2512979794386183" fill="#A02128"/><line x1="795.5" y1="151.39605823854504" x2="795.5" y2="198.94798245092375" stroke="#006340" stroke-width="1"/><rect x="788.6" y="152.16672901105773" width="13.799999999999999" height="43.00984206959578" fill="#006340"/><line x1="818.5" y1="136.19142075118373" x2="818.5" y2="174.76932103072005" stroke="#A02128" stroke-width="1"/><rect x="811.6" y="152.16672901105773" width="13.799999999999999" height="5.435802134452729" fill="#A02128"/><line x1="841.5" y1="156.16130946657563" x2="841.5" y2="184.95576218464925" stroke="#A02128" stroke-width="1"/><rect x="834.6" y="157.60253114551045" width="13.799999999999999" height="14.660646925044148" fill="#A02128"/><line x1="864.5" y1="129.96815937924623" x2="864.5" y2="178.47112048887266" stroke="#006340" stroke-width="1"/><rect x="857.6" y="132.1105718418762" width="13.799999999999999" height="40.152606228678394" fill="#006340"/><line x1="887.5" y1="123.79595140396827" x2="887.5" y2="138.57354905603802" stroke="#A02128" stroke-width="1"/><rect x="880.6" y="132.1105718418762" width="13.799999999999999" height="4.734419515004902" fill="#A02128"/><line x1="910.5" y1="123.67437109101036" x2="910.5" y2="141.76107028345018" stroke="#A02128" stroke-width="1"/><rect x="903.6" y="136.8449913568811" width="13.799999999999999" height="1.333881457817597" fill="#A02128"/><line x1="933.5" y1="131.59395790468716" x2="933.5" y2="165.26550671742268" stroke="#A02128" stroke-width="1"/><rect x="926.6" y="138.1788728146987" width="13.799999999999999" height="8.22433089653316" fill="#A02128"/><line x1="956.5" y1="127.70487159205061" x2="956.5" y2="159.56445022438504" stroke="#006340" stroke-width="1"/><rect x="949.6" y="130.5950331245433" width="13.799999999999999" height="15.808170586688561" fill="#006340"/><line x1="979.5" y1="127.45427556822733" x2="979.5" y2="149.56404165784517" stroke="#A02128" stroke-width="1"/><rect x="972.6" y="130.5950331245433" width="13.799999999999999" height="6.471763210249605" fill="#A02128"/><line x1="1002.5" y1="88.98099621756023" x2="1002.5" y2="141.8163570860081" stroke="#006340" stroke-width="1"/><rect x="995.6" y="105.18874757079232" width="13.799999999999999" height="31.878048764000596" fill="#006340"/><line x1="1025.5" y1="64.14087961065195" x2="1025.5" y2="124.55972386107521" stroke="#006340" stroke-width="1"/><rect x="1018.6" y="68.28953273179832" width="13.799999999999999" height="36.899214838994" fill="#006340"/><line x1="1048.5" y1="48.464122554333926" x2="1048.5" y2="83.73479454118547" stroke="#A02128" stroke-width="1"/><rect x="1041.6" y="68.28953273179832" width="13.799999999999999" height="1" fill="#A02128"/><line x1="1071.5" y1="61.91622150924695" x2="1071.5" y2="70.30707646416454" stroke="#006340" stroke-width="1"/><rect x="1064.6" y="65.82205187928525" width="13.799999999999999" height="2.62178355427568" fill="#006340"/><line x1="1094.5" y1="46.550046705450995" x2="1094.5" y2="77.32486612464652" stroke="#A02128" stroke-width="1"/><rect x="1087.6" y="65.82205187928525" width="13.799999999999999" height="9.090525809149085" fill="#A02128"/><line x1="1117.5" y1="24" x2="1117.5" y2="93.28429460514201" stroke="#006340" stroke-width="1"/><rect x="1110.6" y="39.68516754191444" width="13.799999999999999" height="35.2274101465199" fill="#006340"/><line x1="1140.5" y1="26.6156181328073" x2="1140.5" y2="60.73686468821563" stroke="#A02128" stroke-width="1"/><rect x="1133.6" y="39.68516754191444" width="13.799999999999999" height="8.136992825270227" fill="#A02128"/>
</svg>