<svg xmlns="http://www.w3.org/2000/svg" width="1200" height="700">
  <rect width="100%" height="100%" fill="#0d1117"/>
  <line x1="48" y1="24" x2="1152" y2="24" stroke="#21262d" stroke-width="1"/><line x1="48" y1="181" x2="1152" y2="181" stroke="#21262d" stroke-width="1"/><line x1="48" y1="338" x2="1152" y2="338" stroke="#21262d" stroke-width="1"/><line x1="48" y1="495" x2="1152" y2="495" stroke="#21262d" stroke-width="1"/><line x1="48" y1="652" x2="1152" y2="652" stroke="#21262d" stroke-width="1"/>
  <line x1="59.5" y1="479.93091389422045" x2="59.5" y2="550.4082481268005" stroke="#006340" stroke-width="1"/><rect x="52.6" y="512.1393969196471" width="13.799999999999999" height="35.81274091611442" fill="#006340"/><line x1="82.5" y1="456.82765402379334" x2="82.5" y2="540.7639652987624" stroke="#006340" stroke-width="1"/><rect x="75.6" y="498.87062306671623" width="13.799999999999999" height="13.268773852930849" fill="#006340"/><line x1="105.5" y1="465.46826927439724" x2="105.5" y2="528.0373796182674" stroke="#006340" stroke-width="1"/><rect x="98.6" y="485.8049546574129" width="13.799999999999999" height="13.065668409303328" fill="#006340"/><line x1="128.5" y1="450.82553277510704" x2="128.5" y2="576.006094205945" stroke="#A02128" stroke-width="1"/><rect x="121.6" y="485.8049546574129" width="13.799999999999999" height="54.12810910967511" fill="#A02128"/><line x1="151.5" y1="430.72216372554806" x2="151.5" y2="561.1559366054207" stroke="#006340" stroke-width="1"/><rect x="144.6" y="477.4052277293072" width="13.799999999999999" height="62.52783603778079" fill="#006340"/><line x1="174.5" y1="444.4370242537052" x2="174.5" y2="549.770545981821" stroke="#A02128" stroke-width="1"/><rect x="167.6" y="477.4052277293072" width="13.799999999999999" height="24.018026055439464" fill="#A02128"/><line x1="197.5" y1="455.8009328677326" x2="197.5" y2="546.3315361909837" stroke="#006340" stroke-width="1"/><rect x="190.6" y="472.7993422424586" width="13.799999999999999" height="28.623911542288113" fill="#006340"/><line x1="220.5" y1="399.18681022493115" x2="220.5" y2="480.2625539419316" stroke="#006340" stroke-width="1"/><rect x="213.6" y="410.79459158476436" width="13.799999999999999" height="62.00475065769422" fill="#006340"/><line x1="243.5" y1="313.4402823441374" x2="243.5" y2="459.3530667082888" stroke="#006340" stroke-width="1"/><rect x="236.6" y="338.75029222516997" width="13.799999999999999" height="72.04429935959439" fill="#006340"/><line x1="266.5" y1="285.7061717450495" x2="266.5" y2="388.2290782806245" stroke="#006340" stroke-width="1"/><rect x="259.6" y="315.9616149846783" width="13.799999999999999" height="22.788677240491666" fill="#006340"/><line x1="289.5" y1="235.01244027946547" x2="289.5" y2="363.37467725403764" stroke="#006340" stroke-width="1"/><rect x="282.6" y="246.2989758843247" width="13.799999999999999" height="69.6626391003536" fill="#006340"/><line x1="312.5" y1="224.7570949330236" x2="312.5" y2="257.23300129875514" stroke="#006340" stroke-width="1"/><rect x="305.6" y="244.4128851154394" width="13.799999999999999" height="1.8860907688853104" fill="#006340"/><line x1="335.5" y1="145.42624134911392" x2="335.5" y2="260.3402545875315" stroke="#006340" stroke-width="1"/><rect x="328.6" y="177.20973064682312" width="13.799999999999999" height="67.20315446861628" fill="#006340"/><line x1="358.5" y1="154.60436052311934" x2="358.5" y2="206.72992452238987" stroke="#A02128" stroke-width="1"/><rect x="351.6" y="177.20973064682312" width="13.799999999999999" height="20.601284989190503" fill="#A02128"/><line x1="381.5" y1="103.59539820959913" x2="381.5" y2="225.16564981010765" stroke="#006340" stroke-width="1"/><rect x="374.6" y="137.1112146165649" width="13.799999999999999" height="60.69980101944873" fill="#006340"/><line x1="404.5" y1="80.31004185167637" x2="404.5" y2="159.67572708043798" stroke="#006340" stroke-width="1"/><rect x="397.6" y="123.79084699731573" width="13.799999999999999" height="13.320367619249168" fill="#006340"/><line x1="427.5" y1="93.85658551202357" x2="427.5" y2="164.27748973761123" stroke="#A02128" stroke-width="1"/><rect x="420.6" y="123.79084699731573" width="13.799999999999999" height="6.893863164632762" fill="#A02128"/><line x1="450.5" y1="121.8796115699987" x2="450.5" y2="144.88576373285588" stroke="#A02128" stroke-width="1"/><rect x="443.6" y="130.6847101619485" width="13.799999999999999" height="13.925970503244343" fill="#A02128"/><line x1="473.5" y1="128.01451082399058" x2="473.5" y2="163.54220553556058" stroke="#A02128" stroke-width="1"/><rect x="466.6" y="144.61068066519283" width="13.799999999999999" height="17.969674620775777" fill="#A02128"/><line x1="496.5" y1="125.5970213660205" x2="496.5" y2="164.76256393742392" stroke="#006340" stroke-width="1"/><rect x="489.6" y="139.8889586168408" width="13.799999999999999" height="22.691396669127812" fill="#006340"/><line x1="519.5" y1="102.46785134099309" x2="519.5" y2="175.90179263839758" stroke="#006340" stroke-width="1"/><rect x="512.6" y="109.42866467265844" width="13.799999999999999" height="30.460293944182354" fill="#006340"/><line x1="542.5" y1="77.79929756722754" x2="542.5" y2="160.53979489834882" stroke="#A02128" stroke-width="1"/><rect x="535.6" y="109.42866467265844" width="13.799999999999999" height="33.82024850202794" fill="#A02128"/><line x1="565.5" y1="101.76281685527044" x2="565.5" y2="184.71808192520524" stroke="#006340" stroke-width="1"/><rect x="558.6" y="125.57236713124507" width="13.799999999999999" height="17.676546043441306" fill="#006340"/><line x1="588.5" y1="107.97573217055833" x2="588.5" y2="216.33332886352753" stroke="#A02128" stroke-width="1"/><rect x="581.6" y="125.57236713124507" width="13.799999999999999" height="45.89676304676533" fill="#A02128"/><line x1="611.5" y1="78.82470105595394" x2="611.5" y2="180.30464996574932" stroke="#006340" stroke-width="1"/><rect x="604.6" y="102.57379904357856" width="13.799999999999999" height="68.89533113443184" fill="#006340"/><line x1="634.5" y1="47.03486924135575" x2="634.5" y2="150.51900048599134" stroke="#006340" stroke-width="1"/><rect x="627.6" y="85.43185841607954" width="13.799999999999999" height="17.141940627499025" fill="#006340"/><line x1="657.5" y1="77.1412751497653" x2="657.5" y2="150.38544457446022" stroke="#A02128" stroke-width="1"/><rect x="650.6" y="85.43185841607954" width="13.799999999999999" height="18.980550053445768" fill="#A02128"/><line x1="680.5" y1="102.6392602440825" x2="680.5" y2="197.83876556595737" stroke="#A02128" stroke-width="1"/><rect x="673.6" y="104.4124084695253" width="13.799999999999999" height="49.88438197598094" fill="#A02128"/><line x1="703.5" y1="122.48383321257984" x2="703.5" y2="184.6687386151337" stroke="#006340" stroke-width="1"/><rect x="696.6" y="149.0399524026128" width="13.799999999999999" height="5.256838042893435" fill="#006340"/><line x1="726.5" y1="110.79261940877484" x2="726.5" y2="175.6796980151708" stroke="#006340" stroke-width="1"/><rect x="719.6" y="145.09775073910942" width="13.799999999999999" height="3.942201663503397" fill="#006340"/><line x1="749.5" y1="82.02134231114655" x2="749.5" y2="156.54263497128824" stroke="#006340" stroke-width="1"/><rect x="742.6" y="86.51276944876929" width="13.799999999999999" height="58.584981290340124" fill="#006340"/><line x1="772.5" y1="50.60938231818557" x2="772.5" y2="131.00413301688957" stroke="#A02128" stroke-width="1"/><rect x="765.6" y="86.51276944876929" width="13.799999999999999" height="17.154641206812357" fill="#A02128"/><line x1="795.5" y1="84.71036549395092" x2="795.5" y2="147.60863974536534" stroke="#A02128" stroke-width="1"/><rect x="788.6" y="103.66741065558165" width="13.799999999999999" height="26.845032849916834" fill="#A02128"/><line x1="818.5" y1="28.76233701831393" x2="818.5" y2="142.63748044469133" stroke="#006340" stroke-width="1"/><rect x="811.6" y="73.79833332309545" width="13.799999999999999" height="56.71411018240303" fill="#006340"/><line x1="841.5" y1="47.39311172249029" x2="841.5" y2="112.1920859428094" stroke="#A02128" stroke-width="1"/><rect x="834.6" y="73.79833332309545" width="13.799999999999999" height="1.1511534100234257" fill="#A02128"/><line x1="864.5" y1="24" x2="864.5" y2="100.26583471132699" stroke="#A02128" stroke-width="1"/><rect x="857.6" y="74.94948673311887" width="13.799999999999999" height="14.0008483141346" fill="#A02128"/><line x1="887.5" y1="81.0612908236767" x2="887.5" y2="161.48953882715318" stroke="#A02128" stroke-width="1"/><rect x="880.6" y="88.95033504725347" width="13.799999999999999" height="70.08367149374271" fill="#A02128"/><line x1="910.5" y1="120.16463761306579" x2="910.5" y2="210.25696022108946" stroke="#A02128" stroke-width="1"/><rect x="903.6" y="159.0340065409962" width="13.799999999999999" height="24.523155250194975" fill="#A02128"/><line x1="933.5" y1="133.0433149945311" x2="933.5" y2="238.66284907960187" stroke="#A02128" stroke-width="1"/><rect x="926.6" y="183.55716179119116" width="13.799999999999999" height="18.379949818152284" fill="#A02128"/><line x1="956.5" y1="164.0261351855733" x2="956.5" y2="239.64700396969766" stroke="#A02128" stroke-width="1"/><rect x="949.6" y="201.93711160934345" width="13.799999999999999" height="22.98858950864053" fill="#A02128"/><line x1="979.5" y1="219.23032966129927" x2="979.5" y2="303.2063822428851" stroke="#A02128" stroke-width="1"/><rect x="972.6" y="224.92570111798398" width="13.799999999999999" height="35.75939866624856" fill="#A02128"/><line x1="1002.5" y1="212.93345091021223" x2="1002.5" y2="320.5890209055558" stroke="#A02128" stroke-width="1"/><rect x="995.6" y="260.68509978423253" width="13.799999999999999" height="57.7144066036721" fill="#A02128"/><line x1="1025.5" y1="303.822418067599" x2="1025.5" y2="349.4582020140462" stroke="#006340" stroke-width="1"/><rect x="1018.6" y="307.1057323481768" width="13.799999999999999" height="11.29377403972785" fill="#006340"/><line x1="1048.5" y1="264.8258454657844" x2="1048.5" y2="364.7755542270751" stroke="#A02128" stroke-width="1"/><rect x="1041.6" y="307.1057323481768" width="13.799999999999999" height="46.69577743172749" fill="#A02128"/><line x1="1071.5" y1="332.935330593979" x2="1071.5" y2="362.1916520506153" stroke="#A02128" stroke-width="1"/><rect x="1064.6" y="353.8015097799043" width="13.799999999999999" height="7.3439605581097" fill="#A02128"/><line x1="1094.5" y1="342.02221632514613" x2="1094.5" y2="452.1544203182104" stroke="#A02128" stroke-width="1"/><rect x="1087.6" y="361.145470338014" width="13.799999999999999" height="67.06477542143301" fill="#A02128"/><line x1="1117.5" y1="380.397404075901" x2="1117.5" y2="652" stroke="#A02128" stroke-width="1"/><rect x="1110.6" y="428.210245759447" width="13.799999999999999" height="186.31944366778583" fill="#A02128"/><line x1="1140.5" y1="507.27691579157045" x2="1140.5" y2="648.2569639303605" stroke="#006340" stroke-width="1"/><rect x="1133.6" y="516.6498750204236" width="13.799999999999999" height="97.87981440680926" fill="#006340"/>
</svg>