<svg xmlns="http://www.w3.org/2000/svg" width="1200" height="700">
  <rect width="100%" height="100%" fill="#0d1117"/>
  <line x1="48" y1="24" x2="1152" y2="24" stroke="#21262d" stroke-width="1"/><line x1="48" y1="181" x2="1152" y2="181" stroke="#21262d" stroke-width="1"/><line x1="48" y1="338" x2="1152" y2="338" stroke="#21262d" stroke-width="1"/><line x1="48" y1="495" x2="1152" y2="495" stroke="#21262d" stroke-width="1"/><line x1="48" y1="652" x2="1152" y2="652" stroke="#21262d" stroke-width="1"/>
  <line x1="59.5" y1="618.8149765108067" x2="59.5" y2="652" stroke="#006340" stroke-width="1"/><rect x="52.6" y="623.8058552419111" width="13.799999999999999" height="17.209341819776" fill="#006340"/><line x1="82.5" y1="599.8396215229545" x2="82.5" y2="628.1541915916653" stroke="#006340" stroke-width="1"/><rect x="75.6" y="609.893796047238" width="13.799999999999999" height="13.912059194673134" fill="#006340"/><line x1="105.5" y1="590.2176714034538" x2="105.5" y2="616.0878265175164" stroke="#006340" stroke-width="1"/><rect x="98.6" y="599.0006509308797" width="13.799999999999999" height="10.893145116358255" fill="#006340"/><line x1="128.5" y1="581.0016675138959" x2="128.5" y2="604.3451794694168" stroke="#006340" stroke-width="1"/><rect x="121.6" y="588.2427487985732" width="13.799999999999999" height="10.757902132306526" fill="#006340"/><line x1="151.5" y1="562.7914225050727" x2="151.5" y2="597.7658224148233" stroke="#006340" stroke-width="1"/><rect x="144.6" y="573.8480439201567" width="13.799999999999999" height="14.394704878416519" fill="#006340"/><line x1="174.5" y1="569.7072629753485" x2="174.5" y2="585.8880243126616" stroke="#A02128" stroke-width="1"/><rect x="167.6" y="573.8480439201567" width="13.799999999999999" height="8.400885889548135" fill="#A02128"/><line x1="197.5" y1="550.6798128800957" x2="197.5" y2="594.162851081195" stroke="#006340" stroke-width="1"/><rect x="190.6" y="562.6935736403004" width="13.799999999999999" height="19.555356169404376" fill="#006340"/><line x1="220.5" y1="548.8201971456369" x2="220.5" y2="568.865256482637" stroke="#006340" stroke-width="1"/><rect x="213.6" y="551.7016884933095" width="13.799999999999999" height="10.991885146990967" fill="#006340"/><line x1="243.5" y1="517.2462372147661" x2="243.5" y2="562.9239370810119" stroke="#006340" stroke-width="1"/><rect x="236.6" y="529.3821721820883" width="13.799999999999999" height="22.31951631122115" fill="#006340"/><line x1="266.5" y1="526.5855212291925" x2="266.5" y2="537.1291234969558" stroke="#A02128" stroke-width="1"/><rect x="259.6" y="529.3821721820883" width="13.799999999999999" height="1" fill="#A02128"/><line x1="289.5" y1="511.84296783086984" x2="289.5" y2="535.9433395635683" stroke="#006340" stroke-width="1"/><rect x="282.6" y="513.6528240506536" width="13.799999999999999" height="16.186686682889558" fill="#006340"/><line x1="312.5" y1="501.11871059991023" x2="312.5" y2="517.4873263241965" stroke="#006340" stroke-width="1"/><rect x="305.6" y="507.17021877123307" width="13.799999999999999" height="6.482605279420568" fill="#006340"/><line x1="335.5" y1="504.2591952541332" x2="335.5" y2="515.3666539201068" stroke="#006340" stroke-width="1"/><rect x="328.6" y="507.10617264024427" width="13.799999999999999" height="1" fill="#006340"/><line x1="358.5" y1="477.4290346246255" x2="358.5" y2="517.883625030371" stroke="#006340" stroke-width="1"/><rect x="351.6" y="480.9081743143272" width="13.799999999999999" height="26.19799832591707" fill="#006340"/><line x1="381.5" y1="463.51711424887486" x2="381.5" y2="490.46866709853975" stroke="#006340" stroke-width="1"/><rect x="374.6" y="468.2854014915521" width="13.799999999999999" height="12.622772822775119" fill="#006340"/><line x1="404.5" y1="442.75080129102787" x2="404.5" y2="479.39817204733504" stroke="#006340" stroke-width="1"/><rect x="397.6" y="451.4450847064019" width="13.799999999999999" height="16.840316785150208" fill="#006340"/><line x1="427.5" y1="415.6842439545943" x2="427.5" y2="462.10124371238373" stroke="#006340" stroke-width="1"/><rect x="420.6" y="427.25993747498245" width="13.799999999999999" height="24.18514723141942" fill="#006340"/><line x1="450.5" y1="408.2240954824054" x2="450.5" y2="433.301824336443" stroke="#006340" stroke-width="1"/><rect x="443.6" y="408.7798880141311" width="13.799999999999999" height="18.480049460851376" fill="#006340"/><line x1="473.5" y1="382.99077342955536" x2="473.5" y2="412.5761435536913" stroke="#006340" stroke-width="1"/><rect x="466.6" y="388.9134173522155" width="13.799999999999999" height="19.86647066191557" fill="#006340"/><line x1="496.5" y1="377.189297654717" x2="496.5" y2="401.2963959895568" stroke="#006340" stroke-width="1"/><rect x="489.6" y="382.52057780638216" width="13.799999999999999" height="6.39283954583334" fill="#006340"/><line x1="519.5" y1="375.12277102757946" x2="519.5" y2="386.63737398230006" stroke="#006340" stroke-width="1"/><rect x="512.6" y="379.4296951428311" width="13.799999999999999" height="3.0908826635510422" fill="#006340"/><line x1="542.5" y1="366.46053296443546" x2="542.5" y2="382.6581684525498" stroke="#006340" stroke-width="1"/><rect x="535.6" y="376.98328455408017" width="13.799999999999999" height="2.4464105887509504" fill="#006340"/><line x1="565.5" y1="368.45949108474895" x2="565.5" y2="381.78755347468126" stroke="#006340" stroke-width="1"/><rect x="558.6" y="376.18152573923464" width="13.799999999999999" height="1" fill="#006340"/><line x1="588.5" y1="347.17031263336884" x2="588.5" y2="383.3774980936826" stroke="#006340" stroke-width="1"/><rect x="581.6" y="349.3854937043337" width="13.799999999999999" height="26.796032034900918" fill="#006340"/><line x1="611.5" y1="330.2944408683891" x2="611.5" y2="351.990888558401" stroke="#006340" stroke-width="1"/><rect x="604.6" y="340.6419737341761" width="13.799999999999999" height="8.74351997015765" fill="#006340"/><line x1="634.5" y1="314.84850665263656" x2="634.5" y2="351.09380069988674" stroke="#006340" stroke-width="1"/><rect x="627.6" y="321.0094911913857" width="13.799999999999999" height="19.6324825427904" fill="#006340"/><line x1="657.5" y1="298.95838790499107" x2="657.5" y2="328.8613839224225" stroke="#006340" stroke-width="1"/><rect x="650.6" y="307.36496155729384" width="13.799999999999999" height="13.644529634091839" fill="#006340"/><line x1="680.5" y1="294.47902967066767" x2="680.5" y2="326.57402962377034" stroke="#A02128" stroke-width="1"/><rect x="673.6" y="307.36496155729384" width="13.799999999999999" height="9.5654314501121" fill="#A02128"/><line x1="703.5" y1="280.04726187406783" x2="703.5" y2="317.3315685902662" stroke="#006340" stroke-width="1"/><rect x="696.6" y="289.73540535043645" width="13.799999999999999" height="27.194987656969488" fill="#006340"/><line x1="726.5" y1="257.5687907375172" x2="726.5" y2="298.09484774163525" stroke="#006340" stroke-width="1"/><rect x="719.6" y="261.7026232125779" width="13.799999999999999" height="28.032782137858533" fill="#006340"/><line x1="749.5" y1="253.50508428852118" x2="749.5" y2="272.9296562738963" stroke="#006340" stroke-width="1"/><rect x="742.6" y="255.95201086597842" width="13.799999999999999" height="5.750612346599496" fill="#006340"/><line x1="772.5" y1="255.1869638725189" x2="772.5" y2="259.84416889103596" stroke="#A02128" stroke-width="1"/><rect x="765.6" y="255.95201086597842" width="13.799999999999999" height="2.2288092506762496" fill="#A02128"/><line x1="795.5" y1="253.7564456683359" x2="795.5" y2="266.07569743632126" stroke="#006340" stroke-width="1"/><rect x="788.6" y="257.4776382749649" width="13.799999999999999" height="1" fill="#006340"/><line x1="818.5" y1="245.00885424667268" x2="818.5" y2="271.0614037326311" stroke="#A02128" stroke-width="1"/><rect x="811.6" y="257.4776382749649" width="13.799999999999999" height="3.6653169315358696" fill="#A02128"/><line x1="841.5" y1="237.77518784637283" x2="841.5" y2="269.0365048784096" stroke="#006340" stroke-width="1"/><rect x="834.6" y="248.55951211541503" width="13.799999999999999" height="12.583443091085712" fill="#006340"/><line x1="864.5" y1="237.88335686177243" x2="864.5" y2="252.58024557020013" stroke="#006340" stroke-width="1"/><rect x="857.6" y="242.85679585589384" width="13.799999999999999" height="5.702716259521196" fill="#006340"/><line x1="887.5" y1="218.0595086538247" x2="887.5" y2="251.28922922461305" stroke="#006340" stroke-width="1"/><rect x="880.6" y="229.81519979033362" width="13.799999999999999" height="13.041596065560213" fill="#006340"/><line x1="910.5" y1="195.4035972512695" x2="910.5" y2="236.61830027153098" stroke="#006340" stroke-width="1"/><rect x="903.6" y="206.52800156853925" width="13.799999999999999" height="23.28719822179437" fill="#006340"/><line x1="933.5" y1="204.64800646561787" x2="933.5" y2="214.9685263762998" stroke="#A02128" stroke-width="1"/><rect x="926.6" y="206.52800156853925" width="13.799999999999999" height="5.092706576809746" fill="#A02128"/><line x1="956.5" y1="178.36662017641368" x2="956.5" y2="221.7563741294557" stroke="#006340" stroke-width="1"/><rect x="949.6" y="191.20497074707214" width="13.799999999999999" height="20.41573739827686" fill="#006340"/><line x1="979.5" y1="160.89606076246554" x2="979.5" y2="204.6951934113187" stroke="#006340" stroke-width="1"/><rect x="972.6" y="162.09526970831064" width="13.799999999999999" height="29.1097010387615" fill="#006340"/><line x1="1002.5" y1="120.94173462597246" x2="1002.5" y2="166.3885021565647" stroke="#006340" stroke-width="1"/><rect x="995.6" y="132.19430155805662" width="13.799999999999999" height="29.900968150254016" fill="#006340"/><line x1="1025.5" y1="115.02412805318022" x2="1025.5" y2="135.64005973376152" stroke="#006340" stroke-width="1"/><rect x="1018.6" y="117.87085415494653" width="13.799999999999999" height="14.323447403110094" fill="#006340"/><line x1="1048.5" y1="79.39342228287558" x2="1048.5" y2="120.39734694696631" stroke="#006340" stroke-width="1"/><rect x="1041.6" y="87.83406946200648" width="13.799999999999999" height="30.036784692940046" fill="#006340"/><line x1="1071.5" y1="55.866865247828855" x2="1071.5" y2="100.15964388235693" stroke="#006340" stroke-width="1"/><rect x="1064.6" y="59.73286195879655" width="13.799999999999999" height="28.101207503209935" fill="#006340"/><line x1="1094.5" y1="55.96575940239677" x2="1094.5" y2="72.17352963711642" stroke="#006340" stroke-width="1"/><rect x="1087.6" y="57.885915990966055" width="13.799999999999999" height="1.846945967830493" fill="#006340"/><line x1="1117.5" y1="24" x2="1117.5" y2="67.41935175939352" stroke="#006340" stroke-width="1"/><rect x="1110.6" y="35.327595869425295" width="13.799999999999999" height="22.55832012154076" fill="#006340"/><line x1="1140.5" y1="27.863313507303587" x2="1140.5" y2="48.678861694401235" stroke="#A02128" stroke-width="1"/><rect x="1133.6" y="35.327595869425295" width="13.799999999999999" height="2.7338998701476385" fill="#A02128"/>
</svg>