<svg xmlns="http://www.w3.org/2000/svg" width="1200" height="700">
  <rect width="100%" height="100%" fill="#0d1117"/>
  <line x1="48" y1="24" x2="1152" y2="24" stroke="#21262d" stroke-width="1"/><line x1="48" y1="181" x2="1152" y2="181" stroke="#21262d" stroke-width="1"/><line x1="48" y1="338" x2="1152" y2="338" stroke="#21262d" stroke-width="1"/><line x1="48" y1="495" x2="1152" y2="495" stroke="#21262d" stroke-width="1"/><line x1="48" y1="652" x2="1152" y2="652" stroke="#21262d" stroke-width="1"/>
  <line x1="59.5" y1="622.3440079318339" x2="59.5" y2="652" stroke="#006340" stroke-width="1"/><rect x="52.6" y="628.7016558160694" width="13.799999999999999" height="21.181346246977114" fill="#006340"/><line x1="82.5" y1="603.9213007028497" x2="82.5" y2="637.5427936508339" stroke="#006340" stroke-width="1"/><rect x="75.6" y="610.6663954509288" width="13.799999999999999" height="18.03526036514063" fill="#006340"/><line x1="105.5" y1="592.5251618589372" x2="105.5" y2="614.6356527742814" stroke="#006340" stroke-width="1"/><rect x="98.6" y="597.2860977976762" width="13.799999999999999" height="13.380297653252569" fill="#006340"/><line x1="128.5" y1="571.3092522659764" x2="128.5" y2="605.2093742913935" stroke="#006340" stroke-width="1"/><rect x="121.6" y="575.6655211743669" width="13.799999999999999" height="21.620576623309375" fill="#006340"/><line x1="151.5" y1="557.3764914432214" x2="151.5" y2="578.0522651462447" stroke="#006340" stroke-width="1"/><rect x="144.6" y="565.7340374509959" width="13.799999999999999" height="9.931483723371002" fill="#006340"/><line x1="174.5" y1="550.5591848966052" x2="174.5" y2="572.5874928119716" stroke="#006340" stroke-width="1"/><rect x="167.6" y="561.9549959760352" width="13.799999999999999" height="3.77904147496065" fill="#006340"/><line x1="197.5" y1="549.2786689881409" x2="197.5" y2="574.6953646591594" stroke="#A02128" stroke-width="1"/><rect x="190.6" y="561.9549959760352" width="13.799999999999999" height="4.4897351885895205" fill="#A02128"/><line x1="220.5" y1="542.8689443234413" x2="220.5" y2="569.8686685485172" stroke="#006340" stroke-width="1"/><rect x="213.6" y="549.2482194641924" width="13.799999999999999" height="17.196511700432325" fill="#006340"/><line x1="243.5" y1="512.6909213720072" x2="243.5" y2="552.5255955253646" stroke="#006340" stroke-width="1"/><rect x="236.6" y="520.27994313042" width="13.799999999999999" height="28.96827633377245" fill="#006340"/><line x1="266.5" y1="491.51767629921426" x2="266.5" y2="522.7517919247946" stroke="#006340" stroke-width="1"/><rect x="259.6" y="492.24070541680453" width="13.799999999999999" height="28.03923771361542" fill="#006340"/><line x1="289.5" y1="465.20796912877813" x2="289.5" y2="500.41737894999915" stroke="#006340" stroke-width="1"/><rect x="282.6" y="474.74655086957495" width="13.799999999999999" height="17.494154547229584" fill="#006340"/><line x1="312.5" y1="444.9805587294909" x2="312.5" y2="478.47037579088783" stroke="#006340" stroke-width="1"/><rect x="305.6" y="454.3304465126892" width="13.799999999999999" height="20.41610435688574" fill="#006340"/><line x1="335.5" y1="429.05918947539976" x2="335.5" y2="459.6236465099529" stroke="#006340" stroke-width="1"/><rect x="328.6" y="438.59060416764464" width="13.799999999999999" height="15.739842345044565" fill="#006340"/><line x1="358.5" y1="412.044943783337" x2="358.5" y2="446.92811192346176" stroke="#006340" stroke-width="1"/><rect x="351.6" y="425.4634756622645" width="13.799999999999999" height="13.127128505380142" fill="#006340"/><line x1="381.5" y1="394.87603076307295" x2="381.5" y2="431.39746789190224" stroke="#006340" stroke-width="1"/><rect x="374.6" y="403.6006677285444" width="13.799999999999999" height="21.86280793372009" fill="#006340"/><line x1="404.5" y1="386.6332926328016" x2="404.5" y2="409.0768659330016" stroke="#006340" stroke-width="1"/><rect x="397.6" y="393.06039621226216" width="13.799999999999999" height="10.540271516282246" fill="#006340"/><line x1="427.5" y1="355.57147840007855" x2="427.5" y2="398.80911484094" stroke="#006340" stroke-width="1"/><rect x="420.6" y="365.88593081559577" width="13.799999999999999" height="27.174465396666392" fill="#006340"/><line x1="450.5" y1="353.53289639330575" x2="450.5" y2="375.8063498623477" stroke="#006340" stroke-width="1"/><rect x="443.6" y="362.37548964542725" width="13.799999999999999" height="3.5104411701685194" fill="#006340"/><line x1="473.5" y1="340.6093686061811" x2="473.5" y2="373.87179547751555" stroke="#006340" stroke-width="1"/><rect x="466.6" y="346.7520242946308" width="13.799999999999999" height="15.623465350796437" fill="#006340"/><line x1="496.5" y1="310.8280888000186" x2="496.5" y2="352.1286281466071" stroke="#006340" stroke-width="1"/><rect x="489.6" y="319.3008755440945" width="13.799999999999999" height="27.451148750536333" fill="#006340"/><line x1="519.5" y1="293.622175226365" x2="519.5" y2="323.19724549802896" stroke="#006340" stroke-width="1"/><rect x="512.6" y="303.5568651647369" width="13.799999999999999" height="15.744010379357576" fill="#006340"/><line x1="542.5" y1="302.134710111472" x2="542.5" y2="316.03235849617823" stroke="#A02128" stroke-width="1"/><rect x="535.6" y="303.5568651647369" width="13.799999999999999" height="7.578807468677212" fill="#A02128"/><line x1="565.5" y1="302.59527720157183" x2="565.5" y2="314.9659410446339" stroke="#006340" stroke-width="1"/><rect x="558.6" y="307.770823851312" width="13.799999999999999" height="3.364848782102115" fill="#006340"/><line x1="588.5" y1="276.39584798945106" x2="588.5" y2="320.88734213589055" stroke="#006340" stroke-width="1"/><rect x="581.6" y="287.24870937365415" width="13.799999999999999" height="20.52211447765785" fill="#006340"/><line x1="611.5" y1="271.47396535363083" x2="611.5" y2="297.9526730588185" stroke="#006340" stroke-width="1"/><rect x="604.6" y="284.620485186831" width="13.799999999999999" height="2.628224186823161" fill="#006340"/><line x1="634.5" y1="249.77744220695342" x2="634.5" y2="287.9316468499737" stroke="#006340" stroke-width="1"/><rect x="627.6" y="253.15181138311056" width="13.799999999999999" height="31.468673803720435" fill="#006340"/><line x1="657.5" y1="249.01257536321486" x2="657.5" y2="267.1287643738987" stroke="#006340" stroke-width="1"/><rect x="650.6" y="252.06059360970477" width="13.799999999999999" height="1.0912177734057877" fill="#006340"/><line x1="680.5" y1="241.33403589155063" x2="680.5" y2="259.6231774275276" stroke="#006340" stroke-width="1"/><rect x="673.6" y="243.00535979684543" width="13.799999999999999" height="9.055233812859342" fill="#006340"/><line x1="703.5" y1="226.54020704808363" x2="703.5" y2="243.0074510685572" stroke="#006340" stroke-width="1"/><rect x="696.6" y="237.5853020086908" width="13.799999999999999" height="5.420057788154622" fill="#006340"/><line x1="726.5" y1="199.79078129026288" x2="726.5" y2="242.29881758216703" stroke="#006340" stroke-width="1"/><rect x="719.6" y="208.24702491309768" width="13.799999999999999" height="29.338277095593128" fill="#006340"/><line x1="749.5" y1="170.8291134030075" x2="749.5" y2="219.50974349455134" stroke="#006340" stroke-width="1"/><rect x="742.6" y="177.77695005617977" width="13.799999999999999" height="30.470074856917904" fill="#006340"/><line x1="772.5" y1="170.83870633212388" x2="772.5" y2="199.54123469204404" stroke="#A02128" stroke-width="1"/><rect x="765.6" y="177.77695005617977" width="13.799999999999999" height="7.919450587880874" fill="#A02128"/><line x1="795.5" y1="173.82107612233125" x2="795.5" y2="196.36842778217812" stroke="#006340" stroke-width="1"/><rect x="788.6" y="174.63631877973495" width="13.799999999999999" height="11.060081864325696" fill="#006340"/><line x1="818.5" y1="170.38650755389688" x2="818.5" y2="183.082453166243" stroke="#A02128" stroke-width="1"/><rect x="811.6" y="174.63631877973495" width="13.799999999999999" height="2.19294001486179" fill="#A02128"/><line x1="841.5" y1="144.9109741662217" x2="841.5" y2="186.89925118294127" stroke="#006340" stroke-width="1"/><rect x="834.6" y="153.3228420589229" width="13.799999999999999" height="23.506416735673838" fill="#006340"/><line x1="864.5" y1="138.18797795279806" x2="864.5" y2="155.21596014280698" stroke="#006340" stroke-width="1"/><rect x="857.6" y="146.87636186648086" width="13.799999999999999" height="6.4464801924420385" fill="#006340"/><line x1="887.5" y1="109.74485651003397" x2="887.5" y2="152.00052958086337" stroke="#006340" stroke-width="1"/><rect x="880.6" y="122.78357261132192" width="13.799999999999999" height="24.092789255158948" fill="#006340"/><line x1="910.5" y1="89.01132946091002" x2="910.5" y2="136.21683101837993" stroke="#006340" stroke-width="1"/><rect x="903.6" y="99.96415545791183" width="13.799999999999999" height="22.819417153410086" fill="#006340"/><line x1="933.5" y1="94.25644086814702" x2="933.5" y2="114.92986330771748" stroke="#A02128" stroke-width="1"/><rect x="926.6" y="99.96415545791183" width="13.799999999999999" height="4.556957796502502" fill="#A02128"/><line x1="956.5" y1="96.02370652751893" x2="956.5" y2="125.18919324100182" stroke="#A02128" stroke-width="1"/><rect x="949.6" y="104.52111325441433" width="13.799999999999999" height="8.409440831646407" fill="#A02128"/><line x1="979.5" y1="110.31649568029945" x2="979.5" y2="130.40408586509284" stroke="#A02128" stroke-width="1"/><rect x="972.6" y="112.93055408606074" width="13.799999999999999" height="6.9122085826898" fill="#A02128"/><line x1="1002.5" y1="100.18350666985225" x2="1002.5" y2="127.72606604912312" stroke="#006340" stroke-width="1"/><rect x="995.6" y="110.32343319957783" width="13.799999999999999" height="9.519329469172703" fill="#006340"/><line x1="1025.5" y1="96.5786061556114" x2="1025.5" y2="125.68183885107692" stroke="#A02128" stroke-width="1"/><rect x="1018.6" y="110.32343319957783" width="13.799999999999999" height="10.026373073542004" fill="#A02128"/><line x1="1048.5" y1="84.52017240519808" x2="1048.5" y2="133.21137255342444" stroke="#006340" stroke-width="1"/><rect x="1041.6" y="97.5572706982532" width="13.799999999999999" height="22.792535574866633" fill="#006340"/><line x1="1071.5" y1="95.3439474662623" x2="1071.5" y2="118.96701992933697" stroke="#A02128" stroke-width="1"/><rect x="1064.6" y="97.5572706982532" width="13.799999999999999" height="7.66721331637018" fill="#A02128"/><line x1="1094.5" y1="72.36227056352743" x2="1094.5" y2="110.53132308842976" stroke="#006340" stroke-width="1"/><rect x="1087.6" y="77.54095581967863" width="13.799999999999999" height="27.683528194944756" fill="#006340"/><line x1="1117.5" y1="57.83637526672135" x2="1117.5" y2="83.61593263025077" stroke="#006340" stroke-width="1"/><rect x="1110.6" y="67.13570356952073" width="13.799999999999999" height="10.4052522501579" fill="#006340"/><line x1="1140.5" y1="24" x2="1140.5" y2="80.83684367262401" stroke="#006340" stroke-width="1"/><rect x="1133.6" y="38.50798894832212" width="13.799999999999999" height="28.627714621198606" fill="#006340"/>
</svg>