<svg xmlns="http://www.w3.org/2000/svg" width="1200" height="700">
  <rect width="100%" height="100%" fill="#0d1117"/>
  <line x1="48" y1="24" x2="1152" y2="24" stroke="#21262d" stroke-width="1"/><line x1="48" y1="181" x2="1152" y2="181" stroke="#21262d" stroke-width="1"/><line x1="48" y1="338" x2="1152" y2="338" stroke="#21262d" stroke-width="1"/><line x1="48" y1="495" x2="1152" y2="495" stroke="#21262d" stroke-width="1"/><line x1="48" y1="652" x2="1152" y2="652" stroke="#21262d" stroke-width="1"/>
  <line x1="59.5" y1="604.6574141575228" x2="59.5" y2="627.9291888627382" stroke="#006340" stroke-width="1"/><rect x="52.6" y="614.4190482949327" width="13.799999999999999" height="10.472757786366287" fill="#006340"/><line x1="82.5" y1="609.8724604880204" x2="82.5" y2="626.396712271052" stroke="#A02128" stroke-width="1"/><rect x="75.6" y="614.4190482949327" width="13.799999999999999" height="10.256572753726118" fill="#A02128"/><line x1="105.5" y1="615.0852427633204" x2="105.5" y2="634.3940253296294" stroke="#A02128" stroke-width="1"/><rect x="98.6" y="624.6756210486589" width="13.799999999999999" height="6.978868265320443" fill="#A02128"/><line x1="128.5" y1="611.0393835765207" x2="128.5" y2="646.1558631134775" stroke="#006340" stroke-width="1"/><rect x="121.6" y="622.2156762455802" width="13.799999999999999" height="9.4388130683991" fill="#006340"/><line x1="151.5" y1="615.1123631995688" x2="151.5" y2="645.3407314524345" stroke="#A02128" stroke-width="1"/><rect x="144.6" y="622.2156762455802" width="13.799999999999999" height="5.790935385392572" fill="#A02128"/><line x1="174.5" y1="619.3918930996949" x2="174.5" y2="641.3451837527858" stroke="#A02128" stroke-width="1"/><rect x="167.6" y="628.0066116309728" width="13.799999999999999" height="6.428240502634367" fill="#A02128"/><line x1="197.5" y1="625.8293640282849" x2="197.5" y2="641.8476862473173" stroke="#A02128" stroke-width="1"/><rect x="190.6" y="634.4348521336071" width="13.799999999999999" height="6.339435517016341" fill="#A02128"/><line x1="220.5" y1="640.1835104297197" x2="220.5" y2="651.2157230616311" stroke="#A02128" stroke-width="1"/><rect x="213.6" y="640.7742876506235" width="13.799999999999999" height="1.4952876738352643" fill="#A02128"/><line x1="243.5" y1="607.9135299513232" x2="243.5" y2="652" stroke="#006340" stroke-width="1"/><rect x="236.6" y="619.9103536636742" width="13.799999999999999" height="22.359221660784556" fill="#006340"/><line x1="266.5" y1="607.5959818346677" x2="266.5" y2="641.4208335569432" stroke="#A02128" stroke-width="1"/><rect x="259.6" y="619.9103536636742" width="13.799999999999999" height="13.388263839465026" fill="#A02128"/><line x1="289.5" y1="622.7197883978628" x2="289.5" y2="646.1369494523026" stroke="#006340" stroke-width="1"/><rect x="282.6" y="622.7791472099856" width="13.799999999999999" height="10.519470293153631" fill="#006340"/><line x1="312.5" y1="597.9425150194793" x2="312.5" y2="625.7764850278525" stroke="#006340" stroke-width="1"/><rect x="305.6" y="614.826920350036" width="13.799999999999999" height="7.952226859949633" fill="#006340"/><line x1="335.5" y1="607.958740087458" x2="335.5" y2="629.1122298324963" stroke="#A02128" stroke-width="1"/><rect x="328.6" y="614.826920350036" width="13.799999999999999" height="10.568699102501569" fill="#A02128"/><line x1="358.5" y1="596.7473174099167" x2="358.5" y2="628.3255923320422" stroke="#006340" stroke-width="1"/><rect x="351.6" y="597.8111215729701" width="13.799999999999999" height="27.58449787956738" fill="#006340"/><line x1="381.5" y1="578.605575645595" x2="381.5" y2="608.6397694918325" stroke="#006340" stroke-width="1"/><rect x="374.6" y="579.1997360613957" width="13.799999999999999" height="18.61138551157444" fill="#006340"/><line x1="404.5" y1="567.9641907305094" x2="404.5" y2="584.6034794495896" stroke="#006340" stroke-width="1"/><rect x="397.6" y="573.855140525553" width="13.799999999999999" height="5.3445955358427" fill="#006340"/><line x1="427.5" y1="529.803567551098" x2="427.5" y2="576.5472548613761" stroke="#006340" stroke-width="1"/><rect x="420.6" y="541.4871567684952" width="13.799999999999999" height="32.3679837570578" fill="#006340"/><line x1="450.5" y1="527.7592739899355" x2="450.5" y2="544.3938888142047" stroke="#006340" stroke-width="1"/><rect x="443.6" y="533.4648029437618" width="13.799999999999999" height="8.022353824733386" fill="#006340"/><line x1="473.5" y1="498.91227360883846" x2="473.5" y2="542.0093282138754" stroke="#006340" stroke-width="1"/><rect x="466.6" y="505.5696124149159" width="13.799999999999999" height="27.895190528845887" fill="#006340"/><line x1="496.5" y1="492.6268884338904" x2="496.5" y2="519.9869221818657" stroke="#A02128" stroke-width="1"/><rect x="489.6" y="505.5696124149159" width="13.799999999999999" height="5.110577875581555" fill="#A02128"/><line x1="519.5" y1="484.52024774078336" x2="519.5" y2="524.2033874228205" stroke="#006340" stroke-width="1"/><rect x="512.6" y="487.2617930707653" width="13.799999999999999" height="23.418397219732185" fill="#006340"/><line x1="542.5" y1="466.6371575105461" x2="542.5" y2="491.7706148521921" stroke="#006340" stroke-width="1"/><rect x="535.6" y="475.31638337247966" width="13.799999999999999" height="11.94540969828563" fill="#006340"/><line x1="565.5" y1="428.0075356122704" x2="565.5" y2="489.20700622090453" stroke="#006340" stroke-width="1"/><rect x="558.6" y="437.77562686556405" width="13.799999999999999" height="37.54075650691561" fill="#006340"/><line x1="588.5" y1="427.07393964125913" x2="588.5" y2="448.38699010124685" stroke="#006340" stroke-width="1"/><rect x="581.6" y="430.16471122486155" width="13.799999999999999" height="7.610915640702501" fill="#006340"/><line x1="611.5" y1="405.4664038565836" x2="611.5" y2="445.51512099825777" stroke="#006340" stroke-width="1"/><rect x="604.6" y="406.76871983056037" width="13.799999999999999" height="23.395991394301177" fill="#006340"/><line x1="634.5" y1="388.32611206319" x2="634.5" y2="409.3801388238862" stroke="#006340" stroke-width="1"/><rect x="627.6" y="388.9436707051271" width="13.799999999999999" height="17.82504912543328" fill="#006340"/><line x1="657.5" y1="362.1276677519925" x2="657.5" y2="401.1571788571804" stroke="#006340" stroke-width="1"/><rect x="650.6" y="364.0776009637304" width="13.799999999999999" height="24.8660697413967" fill="#006340"/><line x1="680.5" y1="362.6888068081746" x2="680.5" y2="391.6410260706474" stroke="#A02128" stroke-width="1"/><rect x="673.6" y="364.0776009637304" width="13.799999999999999" height="8.870609950402695" fill="#A02128"/><line x1="703.5" y1="366.6119830071791" x2="703.5" y2="388.7778601847265" stroke="#A02128" stroke-width="1"/><rect x="696.6" y="372.9482109141331" width="13.799999999999999" height="9.408817329433361" fill="#A02128"/><line x1="726.5" y1="335.23479785080474" x2="726.5" y2="398.5316084445558" stroke="#006340" stroke-width="1"/><rect x="719.6" y="345.0996803428033" width="13.799999999999999" height="37.257347900763136" fill="#006340"/><line x1="749.5" y1="297.49891454691783" x2="749.5" y2="354.0791214482396" stroke="#006340" stroke-width="1"/><rect x="742.6" y="305.0636011573362" width="13.799999999999999" height="40.03607918546709" fill="#006340"/><line x1="772.5" y1="270.2335722547047" x2="772.5" y2="322.07854536625337" stroke="#006340" stroke-width="1"/><rect x="765.6" y="276.06354980030466" width="13.799999999999999" height="29.000051357031566" fill="#006340"/><line x1="795.5" y1="243.87930691063826" x2="795.5" y2="290.4910824567049" stroke="#006340" stroke-width="1"/><rect x="788.6" y="245.15852901515086" width="13.799999999999999" height="30.905020785153795" fill="#006340"/><line x1="818.5" y1="223.29441708896724" x2="818.5" y2="246.68863468839697" stroke="#006340" stroke-width="1"/><rect x="811.6" y="234.81533557110373" width="13.799999999999999" height="10.343193444047131" fill="#006340"/><line x1="841.5" y1="195.30350656851982" x2="841.5" y2="237.4047439318785" stroke="#006340" stroke-width="1"/><rect x="834.6" y="208.95530120138858" width="13.799999999999999" height="25.86003436971515" fill="#006340"/><line x1="864.5" y1="193.22009608660545" x2="864.5" y2="238.22519645173372" stroke="#A02128" stroke-width="1"/><rect x="857.6" y="208.95530120138858" width="13.799999999999999" height="10.732950028457935" fill="#A02128"/><line x1="887.5" y1="197.22372175800785" x2="887.5" y2="228.4125189892785" stroke="#006340" stroke-width="1"/><rect x="880.6" y="212.3631448942919" width="13.799999999999999" height="7.325106335554608" fill="#006340"/><line x1="910.5" y1="175.1669794993769" x2="910.5" y2="212.47177309517372" stroke="#006340" stroke-width="1"/><rect x="903.6" y="191.3457255082027" width="13.799999999999999" height="21.017419386089216" fill="#006340"/><line x1="933.5" y1="186.44157215131452" x2="933.5" y2="196.69084789037328" stroke="#A02128" stroke-width="1"/><rect x="926.6" y="191.3457255082027" width="13.799999999999999" height="1" fill="#A02128"/><line x1="956.5" y1="165.61564329686388" x2="956.5" y2="207.32049464897807" stroke="#006340" stroke-width="1"/><rect x="949.6" y="184.7563221631906" width="13.799999999999999" height="6.64723396991883" fill="#006340"/><line x1="979.5" y1="157.74970490023162" x2="979.5" y2="197.19757367683007" stroke="#006340" stroke-width="1"/><rect x="972.6" y="158.46241886388276" width="13.799999999999999" height="26.29390329930783" fill="#006340"/><line x1="1002.5" y1="116.96274589970687" x2="1002.5" y2="165.56149313232913" stroke="#006340" stroke-width="1"/><rect x="995.6" y="120.44880613915302" width="13.799999999999999" height="38.01361272472974" fill="#006340"/><line x1="1025.5" y1="89.87492731123336" x2="1025.5" y2="136.2316140041121" stroke="#006340" stroke-width="1"/><rect x="1018.6" y="96.79755943595285" width="13.799999999999999" height="23.651246703200172" fill="#006340"/><line x1="1048.5" y1="68.68727103822869" x2="1048.5" y2="116.12110251369586" stroke="#006340" stroke-width="1"/><rect x="1041.6" y="85.55912396883559" width="13.799999999999999" height="11.238435467117256" fill="#006340"/><line x1="1071.5" y1="78.88971071749813" x2="1071.5" y2="109.51925112212655" stroke="#A02128" stroke-width="1"/><rect x="1064.6" y="85.55912396883559" width="13.799999999999999" height="11.72736320176864" fill="#A02128"/><line x1="1094.5" y1="36.77384023560967" x2="1094.5" y2="110.79863885162752" stroke="#006340" stroke-width="1"/><rect x="1087.6" y="53.908660105335684" width="13.799999999999999" height="43.37782706526855" fill="#006340"/><line x1="1117.5" y1="34.39566521615609" x2="1117.5" y2="61.808184234598684" stroke="#A02128" stroke-width="1"/><rect x="1110.6" y="53.908660105335684" width="13.799999999999999" height="1.8669898938727556" fill="#A02128"/><line x1="1140.5" y1="24" x2="1140.5" y2="57.66135089792931" stroke="#006340" stroke-width="1"/><rect x="1133.6" y="40.239201690228356" width="13.799999999999999" height="15.536448308980084" fill="#006340"/>
</svg>