<svg xmlns="http://www.w3.org/2000/svg" width="1200" height="700">
  <rect width="100%" height="100%" fill="#0d1117"/>
  <line x1="48" y1="24" x2="1152" y2="24" stroke="#21262d" stroke-width="1"/><line x1="48" y1="181" x2="1152" y2="181" stroke="#21262d" stroke-width="1"/><line x1="48" y1="338" x2="1152" y2="338" stroke="#21262d" stroke-width="1"/><line x1="48" y1="495" x2="1152" y2="495" stroke="#21262d" stroke-width="1"/><line x1="48" y1="652" x2="1152" y2="652" stroke="#21262d" stroke-width="1"/>
  <line x1="59.5" y1="622.5731170731326" x2="59.5" y2="652" stroke="#006340" stroke-width="1"/><rect x="52.6" y="626.3041633718204" width="13.799999999999999" height="11.849640623853475" fill="#006340"/><line x1="82.5" y1="602.9003077226762" x2="82.5" y2="635.7918125618954" stroke="#006340" stroke-width="1"/><rect x="75.6" y="614.4445132046862" width="13.799999999999999" height="11.859650167134191" fill="#006340"/><line x1="105.5" y1="555.0480524939564" x2="105.5" y2="631.5616140608533" stroke="#006340" stroke-width="1"/><rect x="98.6" y="572.5727855631451" width="13.799999999999999" height="41.871727641541156" fill="#006340"/><line x1="128.5" y1="553.7297685227911" x2="128.5" y2="588.6247700730713" stroke="#006340" stroke-width="1"/><rect x="121.6" y="568.5460766435501" width="13.799999999999999" height="4.026708919594967" fill="#006340"/><line x1="151.5" y1="508.17242375115467" x2="151.5" y2="577.4574818053311" stroke="#006340" stroke-width="1"/><rect x="144.6" y="528.9520433274424" width="13.799999999999999" height="39.5940333161077" fill="#006340"/><line x1="174.5" y1="470.2934193579458" x2="174.5" y2="541.4740511174714" stroke="#006340" stroke-width="1"/><rect x="167.6" y="492.16700835420477" width="13.799999999999999" height="36.78503497323766" fill="#006340"/><line x1="197.5" y1="450.54941117459936" x2="197.5" y2="511.1003851974143" stroke="#006340" stroke-width="1"/><rect x="190.6" y="469.8051842109389" width="13.799999999999999" height="22.361824143265892" fill="#006340"/><line x1="220.5" y1="469.33826459149134" x2="220.5" y2="478.01968682679603" stroke="#A02128" stroke-width="1"/><rect x="213.6" y="469.8051842109389" width="13.799999999999999" height="2.850004452413657" fill="#A02128"/><line x1="243.5" y1="438.09856680182116" x2="243.5" y2="488.128990095073" stroke="#006340" stroke-width="1"/><rect x="236.6" y="438.7311779569772" width="13.799999999999999" height="33.92401070637533" fill="#006340"/><line x1="266.5" y1="404.588003810642" x2="266.5" y2="445.0114842666149" stroke="#006340" stroke-width="1"/><rect x="259.6" y="411.57109496797824" width="13.799999999999999" height="27.160082988998965" fill="#006340"/><line x1="289.5" y1="375.78173123558526" x2="289.5" y2="432.4838797903384" stroke="#006340" stroke-width="1"/><rect x="282.6" y="391.71011416824336" width="13.799999999999999" height="19.860980799734875" fill="#006340"/><line x1="312.5" y1="322.65347962186723" x2="312.5" y2="407.12740546029517" stroke="#006340" stroke-width="1"/><rect x="305.6" y="344.8527331538435" width="13.799999999999999" height="46.85738101439989" fill="#006340"/><line x1="335.5" y1="341.58316353130334" x2="335.5" y2="372.0938278010008" stroke="#A02128" stroke-width="1"/><rect x="328.6" y="344.8527331538435" width="13.799999999999999" height="6.983065996455309" fill="#A02128"/><line x1="358.5" y1="335.19957244185844" x2="358.5" y2="373.11627099505927" stroke="#006340" stroke-width="1"/><rect x="351.6" y="341.160281582823" width="13.799999999999999" height="10.675517567475765" fill="#006340"/><line x1="381.5" y1="282.47892647394707" x2="381.5" y2="360.7786190620794" stroke="#006340" stroke-width="1"/><rect x="374.6" y="299.48933028700986" width="13.799999999999999" height="41.670951295813154" fill="#006340"/><line x1="404.5" y1="253.5749722194371" x2="404.5" y2="306.8814059841225" stroke="#006340" stroke-width="1"/><rect x="397.6" y="261.1329521853297" width="13.799999999999999" height="38.35637810168015" fill="#006340"/><line x1="427.5" y1="248.52696168798428" x2="427.5" y2="274.62563445566195" stroke="#A02128" stroke-width="1"/><rect x="420.6" y="261.1329521853297" width="13.799999999999999" height="2.3245885449602497" fill="#A02128"/><line x1="450.5" y1="247.28999361495914" x2="450.5" y2="299.6806845623353" stroke="#A02128" stroke-width="1"/><rect x="443.6" y="263.45754073028996" width="13.799999999999999" height="15.717462691974049" fill="#A02128"/><line x1="473.5" y1="253.43841710380138" x2="473.5" y2="294.84615683811285" stroke="#006340" stroke-width="1"/><rect x="466.6" y="264.0664129338189" width="13.799999999999999" height="15.108590488445088" fill="#006340"/><line x1="496.5" y1="253.5412235778649" x2="496.5" y2="281.8932588462759" stroke="#006340" stroke-width="1"/><rect x="489.6" y="257.1056883443454" width="13.799999999999999" height="6.9607245894735" fill="#006340"/><line x1="519.5" y1="235.722544769583" x2="519.5" y2="269.0243853557178" stroke="#A02128" stroke-width="1"/><rect x="512.6" y="257.1056883443454" width="13.799999999999999" height="10.497343945560715" fill="#A02128"/><line x1="542.5" y1="244.6980436819769" x2="542.5" y2="273.5317514054477" stroke="#006340" stroke-width="1"/><rect x="535.6" y="267.1648027449538" width="13.799999999999999" height="1" fill="#006340"/><line x1="565.5" y1="239.05004027234747" x2="565.5" y2="277.0938924798506" stroke="#006340" stroke-width="1"/><rect x="558.6" y="239.26358235995502" width="13.799999999999999" height="27.901220384998794" fill="#006340"/><line x1="588.5" y1="168.75592924551535" x2="588.5" y2="241.8558091097214" stroke="#006340" stroke-width="1"/><rect x="581.6" y="191.58072225695975" width="13.799999999999999" height="47.68286010299528" fill="#006340"/><line x1="611.5" y1="186.27143713505455" x2="611.5" y2="215.02591604039912" stroke="#A02128" stroke-width="1"/><rect x="604.6" y="191.58072225695975" width="13.799999999999999" height="8.768402591247309" fill="#A02128"/><line x1="634.5" y1="187.0961263649795" x2="634.5" y2="220.98368326950157" stroke="#A02128" stroke-width="1"/><rect x="627.6" y="200.34912484820705" width="13.799999999999999" height="10.697690600268913" fill="#A02128"/><line x1="657.5" y1="175.0745089667583" x2="657.5" y2="217.57006619023343" stroke="#006340" stroke-width="1"/><rect x="650.6" y="185.41230878504382" width="13.799999999999999" height="25.63450666343215" fill="#006340"/><line x1="680.5" y1="173.666941521509" x2="680.5" y2="206.70274764625174" stroke="#A02128" stroke-width="1"/><rect x="673.6" y="185.41230878504382" width="13.799999999999999" height="1" fill="#A02128"/><line x1="703.5" y1="117.05025830350212" x2="703.5" y2="192.9677164544059" stroke="#006340" stroke-width="1"/><rect x="696.6" y="133.21318740556444" width="13.799999999999999" height="52.27702872488362" fill="#006340"/><line x1="726.5" y1="120.99782782064017" x2="726.5" y2="138.24901983822463" stroke="#006340" stroke-width="1"/><rect x="719.6" y="129.67536058890357" width="13.799999999999999" height="3.5378268166608677" fill="#006340"/><line x1="749.5" y1="111.93637498249791" x2="749.5" y2="135.55480279479968" stroke="#006340" stroke-width="1"/><rect x="742.6" y="121.30354161795947" width="13.799999999999999" height="8.371818970944105" fill="#006340"/><line x1="772.5" y1="106.3094279381429" x2="772.5" y2="155.36070010891177" stroke="#A02128" stroke-width="1"/><rect x="765.6" y="121.30354161795947" width="13.799999999999999" height="10.168340045525838" fill="#A02128"/><line x1="795.5" y1="111.7668268889114" x2="795.5" y2="167.96625101871825" stroke="#A02128" stroke-width="1"/><rect x="788.6" y="131.4718816634853" width="13.799999999999999" height="14.935409584273543" fill="#A02128"/><line x1="818.5" y1="116.57328098479036" x2="818.5" y2="160.94798678228233" stroke="#006340" stroke-width="1"/><rect x="811.6" y="130.2145946274594" width="13.799999999999999" height="16.192696620299444" fill="#006340"/><line x1="841.5" y1="114.09292848607004" x2="841.5" y2="137.12033283560424" stroke="#A02128" stroke-width="1"/><rect x="834.6" y="130.2145946274594" width="13.799999999999999" height="3.243160791902824" fill="#A02128"/><line x1="864.5" y1="123.6348071007227" x2="864.5" y2="147.50685100518552" stroke="#006340" stroke-width="1"/><rect x="857.6" y="131.12227933682902" width="13.799999999999999" height="2.335476082533205" fill="#006340"/><line x1="887.5" y1="85.58992638156678" x2="887.5" y2="149.5845361526293" stroke="#006340" stroke-width="1"/><rect x="880.6" y="102.13150083648304" width="13.799999999999999" height="28.990778500345982" fill="#006340"/><line x1="910.5" y1="63.28953475272863" x2="910.5" y2="111.80884477011057" stroke="#006340" stroke-width="1"/><rect x="903.6" y="83.99355090497534" width="13.799999999999999" height="18.137949931507706" fill="#006340"/><line x1="933.5" y1="34.355985570462735" x2="933.5" y2="105.00772321432396" stroke="#006340" stroke-width="1"/><rect x="926.6" y="45.98798419663922" width="13.799999999999999" height="38.00556670833612" fill="#006340"/><line x1="956.5" y1="24" x2="956.5" y2="66.80951648575444" stroke="#A02128" stroke-width="1"/><rect x="949.6" y="45.98798419663922" width="13.799999999999999" height="8.121335552962819" fill="#A02128"/><line x1="979.5" y1="35.73903460441386" x2="979.5" y2="72.63695760761959" stroke="#006340" stroke-width="1"/><rect x="972.6" y="53.593689500100595" width="13.799999999999999" height="1" fill="#006340"/><line x1="1002.5" y1="46.62798142889608" x2="1002.5" y2="75.53265614104328" stroke="#A02128" stroke-width="1"/><rect x="995.6" y="53.593689500100595" width="13.799999999999999" height="7.692763094327574" fill="#A02128"/><line x1="1025.5" y1="47.36238703970287" x2="1025.5" y2="74.97873054187994" stroke="#A02128" stroke-width="1"/><rect x="1018.6" y="61.28645259442817" width="13.799999999999999" height="11.267018850611976" fill="#A02128"/><line x1="1048.5" y1="59.237487127065265" x2="1048.5" y2="96.72460055976956" stroke="#A02128" stroke-width="1"/><rect x="1041.6" y="72.55347144504015" width="13.799999999999999" height="11.069859042361031" fill="#A02128"/><line x1="1071.5" y1="66.99290208137836" x2="1071.5" y2="114.31349163568723" stroke="#A02128" stroke-width="1"/><rect x="1064.6" y="83.62333048740118" width="13.799999999999999" height="7.967738875975897" fill="#A02128"/><line x1="1094.5" y1="70.41610253202089" x2="1094.5" y2="96.24315715696014" stroke="#006340" stroke-width="1"/><rect x="1087.6" y="78.65297536689843" width="13.799999999999999" height="12.938093996478642" fill="#006340"/><line x1="1117.5" y1="35.89837014491957" x2="1117.5" y2="98.0339854984195" stroke="#006340" stroke-width="1"/><rect x="1110.6" y="51.22441412293017" width="13.799999999999999" height="27.42856124396826" fill="#006340"/><line x1="1140.5" y1="30.56283673342864" x2="1140.5" y2="60.44439795907374" stroke="#A02128" stroke-width="1"/><rect x="1133.6" y="51.22441412293017" width="13.799999999999999" height="2.7714731516326765" fill="#A02128"/>
</svg>