<svg xmlns="http://www.w3.org/2000/svg" width="1200" height="700">
  <rect width="100%" height="100%" fill="#0d1117"/>
  <line x1="48" y1="24" x2="1152" y2="24" stroke="#21262d" stroke-width="1"/><line x1="48" y1="181" x2="1152" y2="181" stroke="#21262d" stroke-width="1"/><line x1="48" y1="338" x2="1152" y2="338" stroke="#21262d" stroke-width="1"/><line x1="48" y1="495" x2="1152" y2="495" stroke="#21262d" stroke-width="1"/><line x1="48" y1="652" x2="1152" y2="652" stroke="#21262d" stroke-width="1"/>
  <line x1="59.5" y1="626.2021325747742" x2="59.5" y2="650.9076464609317" stroke="#006340" stroke-width="1"/><rect x="52.6" y="637.8054737343579" width="13.799999999999999" height="9.375867020672217" fill="#006340"/><line x1="82.5" y1="622.2992103229197" x2="82.5" y2="652" stroke="#006340" stroke-width="1"/><rect x="75.6" y="631.4468259744995" width="13.799999999999999" height="6.3586477598584" fill="#006340"/><line x1="105.5" y1="592.3925364222367" x2="105.5" y2="648.6089576261904" stroke="#006340" stroke-width="1"/><rect x="98.6" y="605.5291352720102" width="13.799999999999999" height="25.917690702489267" fill="#006340"/><line x1="128.5" y1="574.8299539430406" x2="128.5" y2="621.9732707693536" stroke="#006340" stroke-width="1"/><rect x="121.6" y="582.5311061078321" width="13.799999999999999" height="22.998029164178092" fill="#006340"/><line x1="151.5" y1="580.9156747071031" x2="151.5" y2="597.4756553480964" stroke="#A02128" stroke-width="1"/><rect x="144.6" y="582.5311061078321" width="13.799999999999999" height="2.5461278117261372" fill="#A02128"/><line x1="174.5" y1="540.242594185439" x2="174.5" y2="589.3916264488881" stroke="#006340" stroke-width="1"/><rect x="167.6" y="556.2517259997738" width="13.799999999999999" height="28.8255079197844" fill="#006340"/><line x1="197.5" y1="524.6367134872966" x2="197.5" y2="573.5108609213659" stroke="#006340" stroke-width="1"/><rect x="190.6" y="540.2730630703288" width="13.799999999999999" height="15.978662929445022" fill="#006340"/><line x1="220.5" y1="489.20568932188894" x2="220.5" y2="556.7272893239044" stroke="#006340" stroke-width="1"/><rect x="213.6" y="503.27554442343956" width="13.799999999999999" height="36.99751864688926" fill="#006340"/><line x1="243.5" y1="471.0374293453704" x2="243.5" y2="519.2585990273138" stroke="#006340" stroke-width="1"/><rect x="236.6" y="478.9194191923528" width="13.799999999999999" height="24.356125231086764" fill="#006340"/><line x1="266.5" y1="468.7122266510516" x2="266.5" y2="501.0368229777918" stroke="#A02128" stroke-width="1"/><rect x="259.6" y="478.9194191923528" width="13.799999999999999" height="7.603542347018845" fill="#A02128"/><line x1="289.5" y1="451.82809091079724" x2="289.5" y2="489.96853630985726" stroke="#006340" stroke-width="1"/><rect x="282.6" y="464.0695491645023" width="13.799999999999999" height="22.453412374869345" fill="#006340"/><line x1="312.5" y1="431.23976360535397" x2="312.5" y2="478.97540789512675" stroke="#006340" stroke-width="1"/><rect x="305.6" y="448.67183775179603" width="13.799999999999999" height="15.397711412706258" fill="#006340"/><line x1="335.5" y1="423.61019282355596" x2="335.5" y2="466.0951928636739" stroke="#006340" stroke-width="1"/><rect x="328.6" y="441.39385486851324" width="13.799999999999999" height="7.277982883282789" fill="#006340"/><line x1="358.5" y1="426.9168050697474" x2="358.5" y2="458.0858338470274" stroke="#A02128" stroke-width="1"/><rect x="351.6" y="441.39385486851324" width="13.799999999999999" height="5.545836884680625" fill="#A02128"/><line x1="381.5" y1="391.86230395270167" x2="381.5" y2="453.54933259628234" stroke="#006340" stroke-width="1"/><rect x="374.6" y="409.6887289150593" width="13.799999999999999" height="37.25096283813457" fill="#006340"/><line x1="404.5" y1="377.60645879843634" x2="404.5" y2="420.64718357773233" stroke="#006340" stroke-width="1"/><rect x="397.6" y="385.3997886356735" width="13.799999999999999" height="24.288940279385827" fill="#006340"/><line x1="427.5" y1="348.19443342849064" x2="427.5" y2="397.5218770054401" stroke="#006340" stroke-width="1"/><rect x="420.6" y="357.0578475500092" width="13.799999999999999" height="28.341941085664246" fill="#006340"/><line x1="450.5" y1="323.80593511221156" x2="450.5" y2="357.8641476664265" stroke="#006340" stroke-width="1"/><rect x="443.6" y="336.60877574826367" width="13.799999999999999" height="20.44907180174556" fill="#006340"/><line x1="473.5" y1="330.4769691115552" x2="473.5" y2="353.1471720495082" stroke="#A02128" stroke-width="1"/><rect x="466.6" y="336.60877574826367" width="13.799999999999999" height="8.694123269999238" fill="#A02128"/><line x1="496.5" y1="335.8839622905242" x2="496.5" y2="372.8274566238837" stroke="#A02128" stroke-width="1"/><rect x="489.6" y="345.3028990182629" width="13.799999999999999" height="11.400384156303573" fill="#A02128"/><line x1="519.5" y1="321.0440423639044" x2="519.5" y2="374.61199743839006" stroke="#006340" stroke-width="1"/><rect x="512.6" y="339.371042604239" width="13.799999999999999" height="17.332240570327485" fill="#006340"/><line x1="542.5" y1="314.65166519158566" x2="542.5" y2="342.48772378801726" stroke="#006340" stroke-width="1"/><rect x="535.6" y="327.42374952018383" width="13.799999999999999" height="11.947293084055161" fill="#006340"/><line x1="565.5" y1="293.9854068799379" x2="565.5" y2="336.08090598808934" stroke="#006340" stroke-width="1"/><rect x="558.6" y="308.15190448128425" width="13.799999999999999" height="19.271845038899585" fill="#006340"/><line x1="588.5" y1="264.9697697732541" x2="588.5" y2="310.84445688011493" stroke="#006340" stroke-width="1"/><rect x="581.6" y="273.15154622882574" width="13.799999999999999" height="35.00035825245851" fill="#006340"/><line x1="611.5" y1="254.90350438917596" x2="611.5" y2="289.42880500170764" stroke="#006340" stroke-width="1"/><rect x="604.6" y="261.6207954826955" width="13.799999999999999" height="11.530750746130252" fill="#006340"/><line x1="634.5" y1="253.62048262275079" x2="634.5" y2="276.7470351349996" stroke="#A02128" stroke-width="1"/><rect x="627.6" y="261.6207954826955" width="13.799999999999999" height="4.181886379811544" fill="#A02128"/><line x1="657.5" y1="223.97752114044437" x2="657.5" y2="272.38369801939376" stroke="#006340" stroke-width="1"/><rect x="650.6" y="226.34842351884998" width="13.799999999999999" height="39.454258343657045" fill="#006340"/><line x1="680.5" y1="201.37240939280218" x2="680.5" y2="235.98363231309435" stroke="#006340" stroke-width="1"/><rect x="673.6" y="219.1158214627211" width="13.799999999999999" height="7.232602056128883" fill="#006340"/><line x1="703.5" y1="207.5559898108616" x2="703.5" y2="231.4302190694961" stroke="#A02128" stroke-width="1"/><rect x="696.6" y="219.1158214627211" width="13.799999999999999" height="1" fill="#A02128"/><line x1="726.5" y1="213.41064673320687" x2="726.5" y2="231.6652034724217" stroke="#A02128" stroke-width="1"/><rect x="719.6" y="219.70263974962046" width="13.799999999999999" height="1.7100162508816084" fill="#A02128"/><line x1="749.5" y1="200.7247280283645" x2="749.5" y2="232.718079088735" stroke="#006340" stroke-width="1"/><rect x="742.6" y="202.1799427984655" width="13.799999999999999" height="19.232713202036564" fill="#006340"/><line x1="772.5" y1="194.53824257510104" x2="772.5" y2="215.44780082955202" stroke="#006340" stroke-width="1"/><rect x="765.6" y="194.98470796963227" width="13.799999999999999" height="7.195234828833236" fill="#006340"/><line x1="795.5" y1="162.6996878175667" x2="795.5" y2="208.59961637071353" stroke="#006340" stroke-width="1"/><rect x="788.6" y="166.29181168693066" width="13.799999999999999" height="28.69289628270161" fill="#006340"/><line x1="818.5" y1="146.1204147480426" x2="818.5" y2="178.22073999633193" stroke="#006340" stroke-width="1"/><rect x="811.6" y="160.7695111340227" width="13.799999999999999" height="5.52230055290795" fill="#006340"/><line x1="841.5" y1="119.47119779041032" x2="841.5" y2="165.8498833605659" stroke="#006340" stroke-width="1"/><rect x="834.6" y="121.64139135985477" width="13.799999999999999" height="39.12811977416794" fill="#006340"/><line x1="864.5" y1="104.19752163571718" x2="864.5" y2="135.12549467619453" stroke="#A02128" stroke-width="1"/><rect x="857.6" y="121.64139135985477" width="13.799999999999999" height="10.157127502077742" fill="#A02128"/><line x1="887.5" y1="119.07385730556348" x2="887.5" y2="147.75228406914317" stroke="#006340" stroke-width="1"/><rect x="880.6" y="119.66459678988122" width="13.799999999999999" height="12.133922072051291" fill="#006340"/><line x1="910.5" y1="72.11068576869525" x2="910.5" y2="126.16352051296326" stroke="#006340" stroke-width="1"/><rect x="903.6" y="83.26445156053194" width="13.799999999999999" height="36.40014522934928" fill="#006340"/><line x1="933.5" y1="68.46020639196377" x2="933.5" y2="91.0823473823591" stroke="#A02128" stroke-width="1"/><rect x="926.6" y="83.26445156053194" width="13.799999999999999" height="5.649824511806514" fill="#A02128"/><line x1="956.5" y1="54.016056322840655" x2="956.5" y2="94.53069955597732" stroke="#006340" stroke-width="1"/><rect x="949.6" y="65.63843803135615" width="13.799999999999999" height="23.275838040982308" fill="#006340"/><line x1="979.5" y1="50.58999961393954" x2="979.5" y2="79.52662821174908" stroke="#A02128" stroke-width="1"/><rect x="972.6" y="65.63843803135615" width="13.799999999999999" height="11.56774977913517" fill="#A02128"/><line x1="1002.5" y1="58.09936388774952" x2="1002.5" y2="109.28474112437061" stroke="#A02128" stroke-width="1"/><rect x="995.6" y="77.20618781049131" width="13.799999999999999" height="13.467767089827248" fill="#A02128"/><line x1="1025.5" y1="86.27405924359209" x2="1025.5" y2="99.01892715994052" stroke="#A02128" stroke-width="1"/><rect x="1018.6" y="90.67395490031856" width="13.799999999999999" height="3.695818572352664" fill="#A02128"/><line x1="1048.5" y1="72.3981173804026" x2="1048.5" y2="96.96064269626584" stroke="#006340" stroke-width="1"/><rect x="1041.6" y="72.42784199931032" width="13.799999999999999" height="21.94193147336091" fill="#006340"/><line x1="1071.5" y1="28.10444670831191" x2="1071.5" y2="72.51992059932797" stroke="#006340" stroke-width="1"/><rect x="1064.6" y="39.55810254717312" width="13.799999999999999" height="32.869739452137196" fill="#006340"/><line x1="1094.5" y1="24" x2="1094.5" y2="53.02399604510117" stroke="#A02128" stroke-width="1"/><rect x="1087.6" y="39.55810254717312" width="13.799999999999999" height="4.2290261536124945" fill="#A02128"/><line x1="1117.5" y1="29.789340271888022" x2="1117.5" y2="63.26043653847819" stroke="#006340" stroke-width="1"/><rect x="1110.6" y="41.480473265974524" width="13.799999999999999" height="2.3066554348110913" fill="#006340"/><line x1="1140.5" y1="33.687376752724504" x2="1140.5" y2="54.703451402341216" stroke="#A02128" stroke-width="1"/><rect x="1133.6" y="41.480473265974524" width="13.799999999999999" height="4.077605220740793" fill="#A02128"/>
</svg>