<svg xmlns="http://www.w3.org/2000/svg" width="1200" height="700">
  <rect width="100%" height="100%" fill="#0d1117"/>
  <line x1="48" y1="24" x2="1152" y2="24" stroke="#21262d" stroke-width="1"/><line x1="48" y1="181" x2="1152" y2="181" stroke="#21262d" stroke-width="1"/><line x1="48" y1="338" x2="1152" y2="338" stroke="#21262d" stroke-width="1"/><line x1="48" y1="495" x2="1152" y2="495" stroke="#21262d" stroke-width="1"/><line x1="48" y1="652" x2="1152" y2="652" stroke="#21262d" stroke-width="1"/>
  <line x1="59.5" y1="258.65533381072896" x2="59.5" y2="355.4303003551557" stroke="#A02128" stroke-width="1"/><rect x="52.6" y="308.1028242490521" width="13.799999999999999" height="31.85696461521718" fill="#A02128"/><line x1="82.5" y1="337.509963812012" x2="82.5" y2="457.1384972303755" stroke="#A02128" stroke-width="1"/><rect x="75.6" y="339.9597888642693" width="13.799999999999999" height="114.93010267734422" fill="#A02128"/><line x1="105.5" y1="451.870673622001" x2="105.5" y2="579.2678153303439" stroke="#A02128" stroke-width="1"/><rect x="98.6" y="454.8898915416135" width="13.799999999999999" height="73.47172534316172" fill="#A02128"/><line x1="128.5" y1="474.672332894795" x2="128.5" y2="611.2032563497216" stroke="#A02128" stroke-width="1"/><rect x="121.6" y="528.3616168847752" width="13.799999999999999" height="23.83960428962496" fill="#A02128"/><line x1="151.5" y1="434.136027726617" x2="151.5" y2="580.2575104156973" stroke="#006340" stroke-width="1"/><rect x="144.6" y="448.10999025814" width="13.799999999999999" height="104.0912309162602" fill="#006340"/><line x1="174.5" y1="328.218387252445" x2="174.5" y2="450.32551984893723" stroke="#006340" stroke-width="1"/><rect x="167.6" y="353.6420336257086" width="13.799999999999999" height="94.46795663243137" fill="#006340"/><line x1="197.5" y1="321.37820017717723" x2="197.5" y2="428.6327198777111" stroke="#A02128" stroke-width="1"/><rect x="190.6" y="353.6420336257086" width="13.799999999999999" height="70.77322764657896" fill="#A02128"/><line x1="220.5" y1="320.6086028517151" x2="220.5" y2="462.5093208022411" stroke="#006340" stroke-width="1"/><rect x="213.6" y="326.5959485983314" width="13.799999999999999" height="97.81931267395618" fill="#006340"/><line x1="243.5" y1="238.7373333276347" x2="243.5" y2="395.5205506713543" stroke="#006340" stroke-width="1"/><rect x="236.6" y="247.76790910118922" width="13.799999999999999" height="78.82803949714219" fill="#006340"/><line x1="266.5" y1="241.63426155237607" x2="266.5" y2="365.6611745244094" stroke="#A02128" stroke-width="1"/><rect x="259.6" y="247.76790910118922" width="13.799999999999999" height="41.926744801628615" fill="#A02128"/><line x1="289.5" y1="214.06273441132998" x2="289.5" y2="299.3183417019898" stroke="#006340" stroke-width="1"/><rect x="282.6" y="282.100688278567" width="13.799999999999999" height="7.593965624250814" fill="#006340"/><line x1="312.5" y1="90.19324604463952" x2="312.5" y2="326.87428193943146" stroke="#006340" stroke-width="1"/><rect x="305.6" y="158.30388481494504" width="13.799999999999999" height="123.79680346362198" fill="#006340"/><line x1="335.5" y1="105.67607179167112" x2="335.5" y2="319.7420553341886" stroke="#A02128" stroke-width="1"/><rect x="328.6" y="158.30388481494504" width="13.799999999999999" height="124.35703070827634" fill="#A02128"/><line x1="358.5" y1="199.19693593153278" x2="358.5" y2="347.84661972553715" stroke="#A02128" stroke-width="1"/><rect x="351.6" y="282.6609155232214" width="13.799999999999999" height="17.116679225644532" fill="#A02128"/><line x1="381.5" y1="153.85162341024932" x2="381.5" y2="307.98443028192344" stroke="#006340" stroke-width="1"/><rect x="374.6" y="200.86499941711946" width="13.799999999999999" height="98.91259533174645" fill="#006340"/><line x1="404.5" y1="93.39235070363475" x2="404.5" y2="233.68961733947498" stroke="#006340" stroke-width="1"/><rect x="397.6" y="129.52864104242587" width="13.799999999999999" height="71.33635837469359" fill="#006340"/><line x1="427.5" y1="86.57344517643162" x2="427.5" y2="195.43542056057748" stroke="#A02128" stroke-width="1"/><rect x="420.6" y="129.52864104242587" width="13.799999999999999" height="59.864477116576325" fill="#A02128"/><line x1="450.5" y1="128.52400142939177" x2="450.5" y2="211.62271694112923" stroke="#A02128" stroke-width="1"/><rect x="443.6" y="189.3931181590022" width="13.799999999999999" height="21.321805832520056" fill="#A02128"/><line x1="473.5" y1="201.7018466175192" x2="473.5" y2="277.5934979177174" stroke="#A02128" stroke-width="1"/><rect x="466.6" y="210.71492399152226" width="13.799999999999999" height="27.270881398059316" fill="#A02128"/><line x1="496.5" y1="92.17888521081807" x2="496.5" y2="294.4503244589418" stroke="#006340" stroke-width="1"/><rect x="489.6" y="163.65485527132495" width="13.799999999999999" height="74.33095011825662" fill="#006340"/><line x1="519.5" y1="24" x2="519.5" y2="212.51604902173227" stroke="#006340" stroke-width="1"/><rect x="512.6" y="62.58254954483414" width="13.799999999999999" height="101.07230572649081" fill="#006340"/><line x1="542.5" y1="46.7430299869352" x2="542.5" y2="209.0888021706886" stroke="#A02128" stroke-width="1"/><rect x="535.6" y="62.58254954483414" width="13.799999999999999" height="81.20279472014147" fill="#A02128"/><line x1="565.5" y1="100.92854011460224" x2="565.5" y2="319.84381989282946" stroke="#A02128" stroke-width="1"/><rect x="558.6" y="143.7853442649756" width="13.799999999999999" height="95.87016655220611" fill="#A02128"/><line x1="588.5" y1="228.6350256829137" x2="588.5" y2="373.9231644120427" stroke="#A02128" stroke-width="1"/><rect x="581.6" y="239.65551081718172" width="13.799999999999999" height="103.63933597347983" fill="#A02128"/><line x1="611.5" y1="263.7855718898154" x2="611.5" y2="526.0112235594388" stroke="#A02128" stroke-width="1"/><rect x="604.6" y="343.29484679066155" width="13.799999999999999" height="109.32652288241655" fill="#A02128"/><line x1="634.5" y1="391.74004376690095" x2="634.5" y2="574.6154174602469" stroke="#A02128" stroke-width="1"/><rect x="627.6" y="452.6213696730781" width="13.799999999999999" height="69.65591620726991" fill="#A02128"/><line x1="657.5" y1="478.51559341431744" x2="657.5" y2="652" stroke="#A02128" stroke-width="1"/><rect x="650.6" y="522.277285880348" width="13.799999999999999" height="65.02081572310874" fill="#A02128"/><line x1="680.5" y1="530.5513716059932" x2="680.5" y2="592.1854407160741" stroke="#006340" stroke-width="1"/><rect x="673.6" y="535.0189414949782" width="13.799999999999999" height="52.27916010847855" fill="#006340"/><line x1="703.5" y1="389.1324070922635" x2="703.5" y2="606.7431383321389" stroke="#006340" stroke-width="1"/><rect x="696.6" y="458.675967290074" width="13.799999999999999" height="76.34297420490418" fill="#006340"/><line x1="726.5" y1="315.6029015146098" x2="726.5" y2="517.495682971675" stroke="#006340" stroke-width="1"/><rect x="719.6" y="367.07279855155963" width="13.799999999999999" height="91.6031687385144" fill="#006340"/><line x1="749.5" y1="288.77085319150115" x2="749.5" y2="417.61543580930686" stroke="#006340" stroke-width="1"/><rect x="742.6" y="356.59733252974087" width="13.799999999999999" height="10.475466021818761" fill="#006340"/><line x1="772.5" y1="241.6886629126372" x2="772.5" y2="369.90301372088027" stroke="#006340" stroke-width="1"/><rect x="765.6" y="260.74463388659274" width="13.799999999999999" height="95.85269864314813" fill="#006340"/><line x1="795.5" y1="189.99934590615464" x2="795.5" y2="374.6436344223873" stroke="#A02128" stroke-width="1"/><rect x="788.6" y="260.74463388659274" width="13.799999999999999" height="74.38961638411973" fill="#A02128"/><line x1="818.5" y1="243.1817437935245" x2="818.5" y2="383.0462859670747" stroke="#006340" stroke-width="1"/><rect x="811.6" y="310.21611383222825" width="13.799999999999999" height="24.918136438484225" fill="#006340"/><line x1="841.5" y1="257.5429832539802" x2="841.5" y2="344.41884741767154" stroke="#006340" stroke-width="1"/><rect x="834.6" y="260.6323725957322" width="13.799999999999999" height="49.58374123649605" fill="#006340"/><line x1="864.5" y1="186.78579716775448" x2="864.5" y2="319.51426871091877" stroke="#006340" stroke-width="1"/><rect x="857.6" y="201.97139460790788" width="13.799999999999999" height="58.66097798782431" fill="#006340"/><line x1="887.5" y1="98.51745212732624" x2="887.5" y2="272.8899503783109" stroke="#006340" stroke-width="1"/><rect x="880.6" y="129.54080335056483" width="13.799999999999999" height="72.43059125734305" fill="#006340"/><line x1="910.5" y1="127.4976285282678" x2="910.5" y2="189.54440717044577" stroke="#A02128" stroke-width="1"/><rect x="903.6" y="129.54080335056483" width="13.799999999999999" height="4.355151751192238" fill="#A02128"/><line x1="933.5" y1="110.31700124132885" x2="933.5" y2="206.9848511795396" stroke="#A02128" stroke-width="1"/><rect x="926.6" y="133.89595510175707" width="13.799999999999999" height="23.797598981446242" fill="#A02128"/><line x1="956.5" y1="100.7102649171751" x2="956.5" y2="184.9329123751083" stroke="#A02128" stroke-width="1"/><rect x="949.6" y="157.6935540832033" width="13.799999999999999" height="19.083425982502433" fill="#A02128"/><line x1="979.5" y1="102.17011699938894" x2="979.5" y2="263.64460949228913" stroke="#A02128" stroke-width="1"/><rect x="972.6" y="176.77698006570574" width="13.799999999999999" height="8.634631909490452" fill="#A02128"/><line x1="1002.5" y1="176.0516435177782" x2="1002.5" y2="303.7200111745964" stroke="#A02128" stroke-width="1"/><rect x="995.6" y="185.4116119751962" width="13.799999999999999" height="107.20924675267281" fill="#A02128"/><line x1="1025.5" y1="215.21906516699624" x2="1025.5" y2="407.6518819957569" stroke="#A02128" stroke-width="1"/><rect x="1018.6" y="292.620858727869" width="13.799999999999999" height="56.61970679086005" fill="#A02128"/><line x1="1048.5" y1="226.94872173515733" x2="1048.5" y2="373.7741919158429" stroke="#006340" stroke-width="1"/><rect x="1041.6" y="254.5671541298475" width="13.799999999999999" height="94.67341138888156" fill="#006340"/><line x1="1071.5" y1="154.4014104688149" x2="1071.5" y2="300.1268928636931" stroke="#006340" stroke-width="1"/><rect x="1064.6" y="162.72215791949026" width="13.799999999999999" height="91.84499621035724" fill="#006340"/><line x1="1094.5" y1="157.33822648542633" x2="1094.5" y2="221.91199461501935" stroke="#006340" stroke-width="1"/><rect x="1087.6" y="161.33625201405255" width="13.799999999999999" height="1.3859059054377099" fill="#006340"/><line x1="1117.5" y1="125.91318432319622" x2="1117.5" y2="186.05121973441766" stroke="#006340" stroke-width="1"/><rect x="1110.6" y="138.0746024989254" width="13.799999999999999" height="23.261649515127147" fill="#006340"/><line x1="1140.5" y1="90.99481381615169" x2="1140.5" y2="195.9558165436053" stroke="#006340" stroke-width="1"/><rect x="1133.6" y="113.61836729679908" width="13.799999999999999" height="24.456235202126322" fill="#006340"/>
</svg>