<svg xmlns="http://www.w3.org/2000/svg" width="1200" height="700">
  <rect width="100%" height="100%" fill="#0d1117"/>
  <line x1="48" y1="24" x2="1152" y2="24" stroke="#21262d" stroke-width="1"/><line x1="48" y1="181" x2="1152" y2="181" stroke="#21262d" stroke-width="1"/><line x1="48" y1="338" x2="1152" y2="338" stroke="#21262d" stroke-width="1"/><line x1="48" y1="495" x2="1152" y2="495" stroke="#21262d" stroke-width="1"/><line x1="48" y1="652" x2="1152" y2="652" stroke="#21262d" stroke-width="1"/>
  <line x1="59.5" y1="122.41309495194741" x2="59.5" y2="215.4647923015948" stroke="#006340" stroke-width="1"/><rect x="52.6" y="139.06318345338207" width="13.799999999999999" height="68.87460409025294" fill="#006340"/><line x1="82.5" y1="57.34807995107872" x2="82.5" y2="153.12491726633544" stroke="#006340" stroke-width="1"/><rect x="75.6" y="96.26914479100026" width="13.799999999999999" height="42.79403866238181" fill="#006340"/><line x1="105.5" y1="67.79198772066286" x2="105.5" y2="129.9232768679999" stroke="#A02128" stroke-width="1"/><rect x="98.6" y="96.26914479100026" width="13.799999999999999" height="30.9726410944221" fill="#A02128"/><line x1="128.5" y1="98.24471077963744" x2="128.5" y2="147.80670858896866" stroke="#A02128" stroke-width="1"/><rect x="121.6" y="127.24178588542236" width="13.799999999999999" height="3.2497040442799516" fill="#A02128"/><line x1="151.5" y1="43.865098491582444" x2="151.5" y2="171.15135227325476" stroke="#006340" stroke-width="1"/><rect x="144.6" y="76.00407602059761" width="13.799999999999999" height="54.4874139091047" fill="#006340"/><line x1="174.5" y1="24" x2="174.5" y2="78.20909573178335" stroke="#006340" stroke-width="1"/><rect x="167.6" y="70.865237612849" width="13.799999999999999" height="5.138838407748608" fill="#006340"/><line x1="197.5" y1="45.22747768225008" x2="197.5" y2="133.9205770341929" stroke="#A02128" stroke-width="1"/><rect x="190.6" y="70.865237612849" width="13.799999999999999" height="37.8661644068485" fill="#A02128"/><line x1="220.5" y1="85.53257041377731" x2="220.5" y2="182.4993711481506" stroke="#A02128" stroke-width="1"/><rect x="213.6" y="108.7314020196975" width="13.799999999999999" height="60.83414136883897" fill="#A02128"/><line x1="243.5" y1="137.3477900187703" x2="243.5" y2="209.1094179616103" stroke="#A02128" stroke-width="1"/><rect x="236.6" y="169.56554338853647" width="13.799999999999999" height="29.408454288873827" fill="#A02128"/><line x1="266.5" y1="179.08528190124855" x2="266.5" y2="246.02750157312443" stroke="#006340" stroke-width="1"/><rect x="259.6" y="180.0609829516833" width="13.799999999999999" height="18.91301472572701" fill="#006340"/><line x1="289.5" y1="132.32798634108053" x2="289.5" y2="187.12430470698786" stroke="#006340" stroke-width="1"/><rect x="282.6" y="157.76132977133437" width="13.799999999999999" height="22.299653180348912" fill="#006340"/><line x1="312.5" y1="113.22802407606014" x2="312.5" y2="208.17321644717288" stroke="#A02128" stroke-width="1"/><rect x="305.6" y="157.76132977133437" width="13.799999999999999" height="49.61113677049974" fill="#A02128"/><line x1="335.5" y1="164.55016077761576" x2="335.5" y2="252.59376924488038" stroke="#006340" stroke-width="1"/><rect x="328.6" y="166.961834986013" width="13.799999999999999" height="40.41063155582111" fill="#006340"/><line x1="358.5" y1="162.80463245753015" x2="358.5" y2="200.38591507559767" stroke="#A02128" stroke-width="1"/><rect x="351.6" y="166.961834986013" width="13.799999999999999" height="12.134623628810743" fill="#A02128"/><line x1="381.5" y1="166.62611546695547" x2="381.5" y2="199.35702613291505" stroke="#006340" stroke-width="1"/><rect x="374.6" y="169.33217432653464" width="13.799999999999999" height="9.764284288289105" fill="#006340"/><line x1="404.5" y1="134.37313589540975" x2="404.5" y2="229.74514854626705" stroke="#A02128" stroke-width="1"/><rect x="397.6" y="169.33217432653464" width="13.799999999999999" height="39.250214373341464" fill="#A02128"/><line x1="427.5" y1="184.2771119852908" x2="427.5" y2="290.08248986094276" stroke="#A02128" stroke-width="1"/><rect x="420.6" y="208.5823886998761" width="13.799999999999999" height="42.382835699877376" fill="#A02128"/><line x1="450.5" y1="206.00587927117982" x2="450.5" y2="271.4330624895155" stroke="#006340" stroke-width="1"/><rect x="443.6" y="206.28484369246826" width="13.799999999999999" height="44.680380707285224" fill="#006340"/><line x1="473.5" y1="186.19504810064342" x2="473.5" y2="309.888065735558" stroke="#A02128" stroke-width="1"/><rect x="466.6" y="206.28484369246826" width="13.799999999999999" height="66.01061002851748" fill="#A02128"/><line x1="496.5" y1="206.7353927500593" x2="496.5" y2="303.61685121132666" stroke="#006340" stroke-width="1"/><rect x="489.6" y="231.53347947358606" width="13.799999999999999" height="40.76197424739968" fill="#006340"/><line x1="519.5" y1="191.4319504866018" x2="519.5" y2="336.78892135192393" stroke="#A02128" stroke-width="1"/><rect x="512.6" y="231.53347947358606" width="13.799999999999999" height="66.38472892433151" fill="#A02128"/><line x1="542.5" y1="284.3797367607186" x2="542.5" y2="371.09849801189915" stroke="#A02128" stroke-width="1"/><rect x="535.6" y="297.91820839791757" width="13.799999999999999" height="51.945779404079246" fill="#A02128"/><line x1="565.5" y1="282.8826312765593" x2="565.5" y2="376.9354280610575" stroke="#006340" stroke-width="1"/><rect x="558.6" y="290.10435615008095" width="13.799999999999999" height="59.75963165191587" fill="#006340"/><line x1="588.5" y1="266.17921402306587" x2="588.5" y2="318.1848359472424" stroke="#006340" stroke-width="1"/><rect x="581.6" y="280.9997238332596" width="13.799999999999999" height="9.104632316821323" fill="#006340"/><line x1="611.5" y1="274.39480285465453" x2="611.5" y2="354.859013766703" stroke="#A02128" stroke-width="1"/><rect x="604.6" y="280.9997238332596" width="13.799999999999999" height="36.681354473953604" fill="#A02128"/><line x1="634.5" y1="275.69167627294576" x2="634.5" y2="394.1820190880531" stroke="#A02128" stroke-width="1"/><rect x="627.6" y="317.6810783072132" width="13.799999999999999" height="49.11615592067278" fill="#A02128"/><line x1="657.5" y1="359.1889365940275" x2="657.5" y2="391.46394160745047" stroke="#006340" stroke-width="1"/><rect x="650.6" y="363.87777221327997" width="13.799999999999999" height="2.91946201460604" fill="#006340"/><line x1="680.5" y1="340.2940943594948" x2="680.5" y2="434.52664923132244" stroke="#A02128" stroke-width="1"/><rect x="673.6" y="363.87777221327997" width="13.799999999999999" height="41.6480187855459" fill="#A02128"/><line x1="703.5" y1="362.92477413916885" x2="703.5" y2="427.9229218046099" stroke="#A02128" stroke-width="1"/><rect x="696.6" y="405.52579099882587" width="13.799999999999999" height="13.020249199834211" fill="#A02128"/><line x1="726.5" y1="405.6796540369648" x2="726.5" y2="515.0544689423632" stroke="#A02128" stroke-width="1"/><rect x="719.6" y="418.5460401986601" width="13.799999999999999" height="64.29937649869146" fill="#A02128"/><line x1="749.5" y1="450.9047673693236" x2="749.5" y2="561.1299427545986" stroke="#A02128" stroke-width="1"/><rect x="742.6" y="482.84541669735154" width="13.799999999999999" height="43.273514830611475" fill="#A02128"/><line x1="772.5" y1="446.3513555180916" x2="772.5" y2="545.4040989832971" stroke="#006340" stroke-width="1"/><rect x="765.6" y="474.01862047304803" width="13.799999999999999" height="52.10031105491498" fill="#006340"/><line x1="795.5" y1="469.29474654763004" x2="795.5" y2="522.048847758984" stroke="#A02128" stroke-width="1"/><rect x="788.6" y="474.01862047304803" width="13.799999999999999" height="12.581689553531533" fill="#A02128"/><line x1="818.5" y1="468.08512350745787" x2="818.5" y2="517.091912413182" stroke="#A02128" stroke-width="1"/><rect x="811.6" y="486.60031002657956" width="13.799999999999999" height="19.625652385744615" fill="#A02128"/><line x1="841.5" y1="493.60886685223073" x2="841.5" y2="573.1228523271877" stroke="#A02128" stroke-width="1"/><rect x="834.6" y="506.2259624123242" width="13.799999999999999" height="58.81990660043107" fill="#A02128"/><line x1="864.5" y1="496.0904782031994" x2="864.5" y2="604.3684854974449" stroke="#006340" stroke-width="1"/><rect x="857.6" y="525.8779245169785" width="13.799999999999999" height="39.16794449577674" fill="#006340"/><line x1="887.5" y1="522.5551231009846" x2="887.5" y2="573.1280007170312" stroke="#A02128" stroke-width="1"/><rect x="880.6" y="525.8779245169785" width="13.799999999999999" height="40.894497668105714" fill="#A02128"/><line x1="910.5" y1="565.1023842164175" x2="910.5" y2="602.3960987107332" stroke="#A02128" stroke-width="1"/><rect x="903.6" y="566.7724221850842" width="13.799999999999999" height="20.462153437648" fill="#A02128"/><line x1="933.5" y1="532.337707127094" x2="933.5" y2="607.042243627944" stroke="#006340" stroke-width="1"/><rect x="926.6" y="542.0579948949768" width="13.799999999999999" height="45.176580727755436" fill="#006340"/><line x1="956.5" y1="536.6975346240297" x2="956.5" y2="557.5378205384435" stroke="#006340" stroke-width="1"/><rect x="949.6" y="536.7557397395252" width="13.799999999999999" height="5.302255155451576" fill="#006340"/><line x1="979.5" y1="512.2419092663297" x2="979.5" y2="575.9304598023751" stroke="#A02128" stroke-width="1"/><rect x="972.6" y="536.7557397395252" width="13.799999999999999" height="23.880611146223487" fill="#A02128"/><line x1="1002.5" y1="532.3359036524884" x2="1002.5" y2="583.4972330611055" stroke="#A02128" stroke-width="1"/><rect x="995.6" y="560.6363508857487" width="13.799999999999999" height="1.4568126820997804" fill="#A02128"/><line x1="1025.5" y1="544.2424869888697" x2="1025.5" y2="620.8433382488378" stroke="#A02128" stroke-width="1"/><rect x="1018.6" y="562.0931635678485" width="13.799999999999999" height="47.57402282904502" fill="#A02128"/><line x1="1048.5" y1="538.5994693345599" x2="1048.5" y2="623.4698351989017" stroke="#006340" stroke-width="1"/><rect x="1041.6" y="554.2304709016041" width="13.799999999999999" height="55.43671549528938" fill="#006340"/><line x1="1071.5" y1="515.3669342659279" x2="1071.5" y2="634.7457557616391" stroke="#A02128" stroke-width="1"/><rect x="1064.6" y="554.2304709016041" width="13.799999999999999" height="41.443801359203576" fill="#A02128"/><line x1="1094.5" y1="514.8494988627236" x2="1094.5" y2="615.048383535621" stroke="#006340" stroke-width="1"/><rect x="1087.6" y="536.194947157655" width="13.799999999999999" height="59.479325103152746" fill="#006340"/><line x1="1117.5" y1="521.8523650967941" x2="1117.5" y2="645.266204260074" stroke="#A02128" stroke-width="1"/><rect x="1110.6" y="536.194947157655" width="13.799999999999999" height="68.70131791190727" fill="#A02128"/><line x1="1140.5" y1="567.5510099923578" x2="1140.5" y2="652" stroke="#A02128" stroke-width="1"/><rect x="1133.6" y="604.8962650695622" width="13.799999999999999" height="31.929700953009842" fill="#A02128"/>
</svg>