<svg xmlns="http://www.w3.org/2000/svg" width="1200" height="700">
  <rect width="100%" height="100%" fill="#0d1117"/>
  <line x1="48" y1="24" x2="1152" y2="24" stroke="#21262d" stroke-width="1"/><line x1="48" y1="181" x2="1152" y2="181" stroke="#21262d" stroke-width="1"/><line x1="48" y1="338" x2="1152" y2="338" stroke="#21262d" stroke-width="1"/><line x1="48" y1="495" x2="1152" y2="495" stroke="#21262d" stroke-width="1"/><line x1="48" y1="652" x2="1152" y2="652" stroke="#21262d" stroke-width="1"/>
  <line x1="59.5" y1="612.5696528305409" x2="59.5" y2="640.0797051763092" stroke="#A02128" stroke-width="1"/><rect x="52.6" y="626.8562546643913" width="13.799999999999999" height="5.428371660743437" fill="#A02128"/><line x1="82.5" y1="600.2622817008961" x2="82.5" y2="652" stroke="#006340" stroke-width="1"/><rect x="75.6" y="605.3418883194416" width="13.799999999999999" height="26.94273800569306" fill="#006340"/><line x1="105.5" y1="592.0540140243652" x2="105.5" y2="605.8920499255203" stroke="#006340" stroke-width="1"/><rect x="98.6" y="593.8834502243405" width="13.799999999999999" height="11.458438095101087" fill="#006340"/><line x1="128.5" y1="564.0121999164102" x2="128.5" y2="594.0823367150409" stroke="#006340" stroke-width="1"/><rect x="121.6" y="570.2127641834422" width="13.799999999999999" height="23.670686040898318" fill="#006340"/><line x1="151.5" y1="537.8994643190983" x2="151.5" y2="583.8584913441088" stroke="#006340" stroke-width="1"/><rect x="144.6" y="550.5769256928061" width="13.799999999999999" height="19.63583849063616" fill="#006340"/><line x1="174.5" y1="549.6034611170364" x2="174.5" y2="568.8978132341816" stroke="#A02128" stroke-width="1"/><rect x="167.6" y="550.5769256928061" width="13.799999999999999" height="13.532931827485413" fill="#A02128"/><line x1="197.5" y1="519.4169546782913" x2="197.5" y2="584.1313883809376" stroke="#006340" stroke-width="1"/><rect x="190.6" y="538.9939349128372" width="13.799999999999999" height="25.11592260745431" fill="#006340"/><line x1="220.5" y1="525.0950298632004" x2="220.5" y2="562.1088695185962" stroke="#A02128" stroke-width="1"/><rect x="213.6" y="538.9939349128372" width="13.799999999999999" height="12.467503868814674" fill="#A02128"/><line x1="243.5" y1="528.7650736426078" x2="243.5" y2="571.8046915056724" stroke="#006340" stroke-width="1"/><rect x="236.6" y="545.0150091030132" width="13.799999999999999" height="6.446429678638651" fill="#006340"/><line x1="266.5" y1="532.2640433461595" x2="266.5" y2="581.8825753463054" stroke="#A02128" stroke-width="1"/><rect x="259.6" y="545.0150091030132" width="13.799999999999999" height="16.33368791420105" fill="#A02128"/><line x1="289.5" y1="545.6510076163689" x2="289.5" y2="582.8352285636148" stroke="#A02128" stroke-width="1"/><rect x="282.6" y="561.3486970172142" width="13.799999999999999" height="18.67389538444945" fill="#A02128"/><line x1="312.5" y1="578.6132389850438" x2="312.5" y2="605.9969774192165" stroke="#A02128" stroke-width="1"/><rect x="305.6" y="580.0225924016637" width="13.799999999999999" height="12.824861744265263" fill="#A02128"/><line x1="335.5" y1="582.4402532474709" x2="335.5" y2="613.0037601653589" stroke="#A02128" stroke-width="1"/><rect x="328.6" y="592.847454145929" width="13.799999999999999" height="5.4610684251721295" fill="#A02128"/><line x1="358.5" y1="569.6445220412281" x2="358.5" y2="612.1290287819095" stroke="#006340" stroke-width="1"/><rect x="351.6" y="578.8105629179391" width="13.799999999999999" height="19.497959653161956" fill="#006340"/><line x1="381.5" y1="563.1685160333867" x2="381.5" y2="592.896049071698" stroke="#A02128" stroke-width="1"/><rect x="374.6" y="578.8105629179391" width="13.799999999999999" height="2.74334591522927" fill="#A02128"/><line x1="404.5" y1="550.7876730382762" x2="404.5" y2="583.6946875418001" stroke="#006340" stroke-width="1"/><rect x="397.6" y="563.9067641608628" width="13.799999999999999" height="17.647144672305558" fill="#006340"/><line x1="427.5" y1="548.9302969435497" x2="427.5" y2="590.4286710146072" stroke="#A02128" stroke-width="1"/><rect x="420.6" y="563.9067641608628" width="13.799999999999999" height="7.356003163155378" fill="#A02128"/><line x1="450.5" y1="548.1177341289645" x2="450.5" y2="591.3734098387723" stroke="#006340" stroke-width="1"/><rect x="443.6" y="564.3224024228522" width="13.799999999999999" height="6.940364901166049" fill="#006340"/><line x1="473.5" y1="550.4036286264337" x2="473.5" y2="580.0632363421894" stroke="#A02128" stroke-width="1"/><rect x="466.6" y="564.3224024228522" width="13.799999999999999" height="5.308570652542812" fill="#A02128"/><line x1="496.5" y1="528.7252153726282" x2="496.5" y2="575.7720640125134" stroke="#006340" stroke-width="1"/><rect x="489.6" y="543.6644555000296" width="13.799999999999999" height="25.9665175753654" fill="#006340"/><line x1="519.5" y1="515.8180547445533" x2="519.5" y2="556.135618240478" stroke="#006340" stroke-width="1"/><rect x="512.6" y="531.194237279117" width="13.799999999999999" height="12.470218220912557" fill="#006340"/><line x1="542.5" y1="523.4481254700693" x2="542.5" y2="561.5810092063732" stroke="#A02128" stroke-width="1"/><rect x="535.6" y="531.194237279117" width="13.799999999999999" height="25.175684367180793" fill="#A02128"/><line x1="565.5" y1="533.3678538162762" x2="565.5" y2="575.868204500263" stroke="#006340" stroke-width="1"/><rect x="558.6" y="540.1797479746297" width="13.799999999999999" height="16.190173671668163" fill="#006340"/><line x1="588.5" y1="524.5008007468738" x2="588.5" y2="569.7969978987177" stroke="#A02128" stroke-width="1"/><rect x="581.6" y="540.1797479746297" width="13.799999999999999" height="11.883150767400025" fill="#A02128"/><line x1="611.5" y1="546.9689804814624" x2="611.5" y2="581.5613827643255" stroke="#A02128" stroke-width="1"/><rect x="604.6" y="552.0628987420297" width="13.799999999999999" height="12.441658509099284" fill="#A02128"/><line x1="634.5" y1="542.9981022933467" x2="634.5" y2="584.6638138145572" stroke="#006340" stroke-width="1"/><rect x="627.6" y="547.9776575121134" width="13.799999999999999" height="16.526899739015562" fill="#006340"/><line x1="657.5" y1="533.5641325306834" x2="657.5" y2="565.5787416895191" stroke="#006340" stroke-width="1"/><rect x="650.6" y="546.421705485989" width="13.799999999999999" height="1.5559520261243733" fill="#006340"/><line x1="680.5" y1="529.2655311445454" x2="680.5" y2="563.5502207451984" stroke="#006340" stroke-width="1"/><rect x="673.6" y="541.4404289343026" width="13.799999999999999" height="4.981276551686392" fill="#006340"/><line x1="703.5" y1="528.5811447181194" x2="703.5" y2="572.0464491010508" stroke="#A02128" stroke-width="1"/><rect x="696.6" y="541.4404289343026" width="13.799999999999999" height="21.85387878859126" fill="#A02128"/><line x1="726.5" y1="557.5222777799767" x2="726.5" y2="584.3862996292986" stroke="#A02128" stroke-width="1"/><rect x="719.6" y="563.2943077228939" width="13.799999999999999" height="5.589321558207303" fill="#A02128"/><line x1="749.5" y1="561.8019407421957" x2="749.5" y2="592.1299902743046" stroke="#A02128" stroke-width="1"/><rect x="742.6" y="568.8836292811012" width="13.799999999999999" height="13.350316316327508" fill="#A02128"/><line x1="772.5" y1="566.90250269691" x2="772.5" y2="613.9579005549914" stroke="#A02128" stroke-width="1"/><rect x="765.6" y="582.2339455974287" width="13.799999999999999" height="25.574187891402744" fill="#A02128"/><line x1="795.5" y1="594.2902948698506" x2="795.5" y2="619.5903307481769" stroke="#006340" stroke-width="1"/><rect x="788.6" y="606.2961770822964" width="13.799999999999999" height="1.5119564065350914" fill="#006340"/><line x1="818.5" y1="588.581242918019" x2="818.5" y2="637.9366925084688" stroke="#A02128" stroke-width="1"/><rect x="811.6" y="606.2961770822964" width="13.799999999999999" height="24.9159223441485" fill="#A02128"/><line x1="841.5" y1="588.595212459248" x2="841.5" y2="636.3578751461343" stroke="#006340" stroke-width="1"/><rect x="834.6" y="604.3665344964688" width="13.799999999999999" height="26.845564929976035" fill="#006340"/><line x1="864.5" y1="570.5963003100404" x2="864.5" y2="622.6678708209669" stroke="#006340" stroke-width="1"/><rect x="857.6" y="579.4741479398497" width="13.799999999999999" height="24.892386556619158" fill="#006340"/><line x1="887.5" y1="503.58854813369896" x2="887.5" y2="589.1282502060624" stroke="#006340" stroke-width="1"/><rect x="880.6" y="513.1354882774217" width="13.799999999999999" height="66.33865966242797" fill="#006340"/><line x1="910.5" y1="445.55082642449133" x2="910.5" y2="515.9156655032745" stroke="#006340" stroke-width="1"/><rect x="903.6" y="465.0780626084596" width="13.799999999999999" height="48.05742566896208" fill="#006340"/><line x1="933.5" y1="438.8946698245378" x2="933.5" y2="480.7317222155044" stroke="#006340" stroke-width="1"/><rect x="926.6" y="449.74095085955247" width="13.799999999999999" height="15.337111748907148" fill="#006340"/><line x1="956.5" y1="360.15429578904406" x2="956.5" y2="450.37248053062046" stroke="#006340" stroke-width="1"/><rect x="949.6" y="378.7690106114011" width="13.799999999999999" height="70.97194024815138" fill="#006340"/><line x1="979.5" y1="356.16178584158683" x2="979.5" y2="386.63581087403463" stroke="#006340" stroke-width="1"/><rect x="972.6" y="362.6442945995575" width="13.799999999999999" height="16.12471601184359" fill="#006340"/><line x1="1002.5" y1="307.29078616971043" x2="1002.5" y2="380.7653528023398" stroke="#006340" stroke-width="1"/><rect x="995.6" y="318.2369542253332" width="13.799999999999999" height="44.407340374224304" fill="#006340"/><line x1="1025.5" y1="278.69011571405053" x2="1025.5" y2="338.5216815840582" stroke="#006340" stroke-width="1"/><rect x="1018.6" y="286.2486536526214" width="13.799999999999999" height="31.988300572711807" fill="#006340"/><line x1="1048.5" y1="206.19225397968296" x2="1048.5" y2="302.25909941147785" stroke="#006340" stroke-width="1"/><rect x="1041.6" y="223.66489692485828" width="13.799999999999999" height="62.5837567277631" fill="#006340"/><line x1="1071.5" y1="173.97686487883783" x2="1071.5" y2="241.240257476122" stroke="#006340" stroke-width="1"/><rect x="1064.6" y="179.58034022831896" width="13.799999999999999" height="44.08455669653932" fill="#006340"/><line x1="1094.5" y1="119.14476413234024" x2="1094.5" y2="196.55140568548273" stroke="#006340" stroke-width="1"/><rect x="1087.6" y="136.06664330886883" width="13.799999999999999" height="43.513696919450126" fill="#006340"/><line x1="1117.5" y1="57.278862506561154" x2="1117.5" y2="146.3642687491723" stroke="#006340" stroke-width="1"/><rect x="1110.6" y="71.52492799575691" width="13.799999999999999" height="64.54171531311192" fill="#006340"/><line x1="1140.5" y1="24" x2="1140.5" y2="85.00356635786227" stroke="#006340" stroke-width="1"/><rect x="1133.6" y="42.419211829545816" width="13.799999999999999" height="29.105716166211096" fill="#006340"/>
</svg>