<svg xmlns="http://www.w3.org/2000/svg" width="1200" height="700">
  <rect width="100%" height="100%" fill="#0d1117"/>
  <line x1="48" y1="24" x2="1152" y2="24" stroke="#21262d" stroke-width="1"/><line x1="48" y1="181" x2="1152" y2="181" stroke="#21262d" stroke-width="1"/><line x1="48" y1="338" x2="1152" y2="338" stroke="#21262d" stroke-width="1"/><line x1="48" y1="495" x2="1152" y2="495" stroke="#21262d" stroke-width="1"/><line x1="48" y1="652" x2="1152" y2="652" stroke="#21262d" stroke-width="1"/>
  <line x1="59.5" y1="576.8940194361163" x2="59.5" y2="652" stroke="#006340" stroke-width="1"/><rect x="52.6" y="594.2878138981459" width="13.799999999999999" height="48.07107883463743" fill="#006340"/><line x1="82.5" y1="580.1965090529635" x2="82.5" y2="622.0403630815925" stroke="#A02128" stroke-width="1"/><rect x="75.6" y="594.2878138981459" width="13.799999999999999" height="6.784956216234491" fill="#A02128"/><line x1="105.5" y1="586.5902332622411" x2="105.5" y2="612.9497763637415" stroke="#A02128" stroke-width="1"/><rect x="98.6" y="601.0727701143804" width="13.799999999999999" height="2.4420637603376463" fill="#A02128"/><line x1="128.5" y1="591.30219387593" x2="128.5" y2="604.0845669115569" stroke="#006340" stroke-width="1"/><rect x="121.6" y="592.3988150970393" width="13.799999999999999" height="11.116018777678732" fill="#006340"/><line x1="151.5" y1="592.2558160728671" x2="151.5" y2="610.546872533368" stroke="#A02128" stroke-width="1"/><rect x="144.6" y="592.3988150970393" width="13.799999999999999" height="4.940964992948807" fill="#A02128"/><line x1="174.5" y1="590.2707047021571" x2="174.5" y2="608.2561737504086" stroke="#A02128" stroke-width="1"/><rect x="167.6" y="597.3397800899882" width="13.799999999999999" height="8.228317481801696" fill="#A02128"/><line x1="197.5" y1="542.8255415933066" x2="197.5" y2="611.349606421602" stroke="#006340" stroke-width="1"/><rect x="190.6" y="558.3485710093681" width="13.799999999999999" height="47.21952656242172" fill="#006340"/><line x1="220.5" y1="545.8765727692441" x2="220.5" y2="580.4885971957617" stroke="#006340" stroke-width="1"/><rect x="213.6" y="551.8270116057369" width="13.799999999999999" height="6.521559403631272" fill="#006340"/><line x1="243.5" y1="527.6173074835177" x2="243.5" y2="564.2679395870733" stroke="#006340" stroke-width="1"/><rect x="236.6" y="548.9720795563028" width="13.799999999999999" height="2.854932049434069" fill="#006340"/><line x1="266.5" y1="513.9392092243997" x2="266.5" y2="549.9299345764625" stroke="#006340" stroke-width="1"/><rect x="259.6" y="533.0630322467639" width="13.799999999999999" height="15.909047309538892" fill="#006340"/><line x1="289.5" y1="507.8036731797045" x2="289.5" y2="545.1591442473458" stroke="#006340" stroke-width="1"/><rect x="282.6" y="507.9597899754982" width="13.799999999999999" height="25.103242271265685" fill="#006340"/><line x1="312.5" y1="487.58218915141265" x2="312.5" y2="519.3677108013574" stroke="#006340" stroke-width="1"/><rect x="305.6" y="503.0636851767549" width="13.799999999999999" height="4.896104798743295" fill="#006340"/><line x1="335.5" y1="480.8975409857682" x2="335.5" y2="511.4169794463514" stroke="#006340" stroke-width="1"/><rect x="328.6" y="494.1080686422023" width="13.799999999999999" height="8.955616534552632" fill="#006340"/><line x1="358.5" y1="460.42458998999524" x2="358.5" y2="494.6205219436388" stroke="#006340" stroke-width="1"/><rect x="351.6" y="473.2039676532595" width="13.799999999999999" height="20.904100988942787" fill="#006340"/><line x1="381.5" y1="461.63612034164044" x2="381.5" y2="491.9431981850049" stroke="#006340" stroke-width="1"/><rect x="374.6" y="465.88213462179715" width="13.799999999999999" height="7.321833031462347" fill="#006340"/><line x1="404.5" y1="426.3898491673135" x2="404.5" y2="468.00925375213507" stroke="#006340" stroke-width="1"/><rect x="397.6" y="427.330718760809" width="13.799999999999999" height="38.55141586098813" fill="#006340"/><line x1="427.5" y1="379.6155796685572" x2="427.5" y2="430.1226562254971" stroke="#006340" stroke-width="1"/><rect x="420.6" y="380.8937477513291" width="13.799999999999999" height="46.43697100947992" fill="#006340"/><line x1="450.5" y1="323.69566921580775" x2="450.5" y2="398.8994266200631" stroke="#006340" stroke-width="1"/><rect x="443.6" y="339.9554880485457" width="13.799999999999999" height="40.9382597027834" fill="#006340"/><line x1="473.5" y1="337.21164503154006" x2="473.5" y2="373.94413048851834" stroke="#A02128" stroke-width="1"/><rect x="466.6" y="339.9554880485457" width="13.799999999999999" height="13.853751981418384" fill="#A02128"/><line x1="496.5" y1="320.6454071709349" x2="496.5" y2="358.68923141718204" stroke="#006340" stroke-width="1"/><rect x="489.6" y="322.5793097033996" width="13.799999999999999" height="31.2299303265645" fill="#006340"/><line x1="519.5" y1="294.7396472887462" x2="519.5" y2="338.71267919400884" stroke="#006340" stroke-width="1"/><rect x="512.6" y="315.7947241344935" width="13.799999999999999" height="6.784585568906095" fill="#006340"/><line x1="542.5" y1="263.1935059627081" x2="542.5" y2="331.8817348403187" stroke="#006340" stroke-width="1"/><rect x="535.6" y="272.20896797685333" width="13.799999999999999" height="43.58575615764016" fill="#006340"/><line x1="565.5" y1="225.45231355167027" x2="565.5" y2="291.9893486120536" stroke="#006340" stroke-width="1"/><rect x="558.6" y="239.6887175320358" width="13.799999999999999" height="32.52025044481752" fill="#006340"/><line x1="588.5" y1="212.92166790379116" x2="588.5" y2="258.10378194733846" stroke="#006340" stroke-width="1"/><rect x="581.6" y="233.78138271202533" width="13.799999999999999" height="5.907334820010476" fill="#006340"/><line x1="611.5" y1="207.58013601820778" x2="611.5" y2="238.13840025601843" stroke="#006340" stroke-width="1"/><rect x="604.6" y="209.4693966745054" width="13.799999999999999" height="24.311986037519944" fill="#006340"/><line x1="634.5" y1="204.2166918807821" x2="634.5" y2="223.18469190537496" stroke="#A02128" stroke-width="1"/><rect x="627.6" y="209.4693966745054" width="13.799999999999999" height="1.2774988282798745" fill="#A02128"/><line x1="657.5" y1="205.78918836037394" x2="657.5" y2="241.3304539831388" stroke="#A02128" stroke-width="1"/><rect x="650.6" y="210.74689550278526" width="13.799999999999999" height="14.47340664143627" fill="#A02128"/><line x1="680.5" y1="208.804692857048" x2="680.5" y2="231.53107845964058" stroke="#A02128" stroke-width="1"/><rect x="673.6" y="225.22030214422153" width="13.799999999999999" height="3.8209119859121756" fill="#A02128"/><line x1="703.5" y1="214.5600372859697" x2="703.5" y2="249.82187499603486" stroke="#006340" stroke-width="1"/><rect x="696.6" y="223.1895643332391" width="13.799999999999999" height="5.8516497968946055" fill="#006340"/><line x1="726.5" y1="217.9398132009427" x2="726.5" y2="235.0604944764441" stroke="#A02128" stroke-width="1"/><rect x="719.6" y="223.1895643332391" width="13.799999999999999" height="6.830896560436429" fill="#A02128"/><line x1="749.5" y1="207.88393887112278" x2="749.5" y2="257.4300228921932" stroke="#A02128" stroke-width="1"/><rect x="742.6" y="230.02046089367553" width="13.799999999999999" height="16.197314057630194" fill="#A02128"/><line x1="772.5" y1="198.9003645603931" x2="772.5" y2="257.3004940436177" stroke="#006340" stroke-width="1"/><rect x="765.6" y="201.64056938671598" width="13.799999999999999" height="44.57720556458975" fill="#006340"/><line x1="795.5" y1="126.06027054642698" x2="795.5" y2="209.84806464801528" stroke="#006340" stroke-width="1"/><rect x="788.6" y="149.18435926338088" width="13.799999999999999" height="52.4562101233351" fill="#006340"/><line x1="818.5" y1="90.01614841312039" x2="818.5" y2="150.81419638884512" stroke="#006340" stroke-width="1"/><rect x="811.6" y="98.72626862852826" width="13.799999999999999" height="50.458090634852624" fill="#006340"/><line x1="841.5" y1="89.3286941587304" x2="841.5" y2="132.1557082921189" stroke="#A02128" stroke-width="1"/><rect x="834.6" y="98.72626862852826" width="13.799999999999999" height="11.445562509211868" fill="#A02128"/><line x1="864.5" y1="101.18686119610425" x2="864.5" y2="141.06442646714322" stroke="#A02128" stroke-width="1"/><rect x="857.6" y="110.17183113774013" width="13.799999999999999" height="14.356435223226867" fill="#A02128"/><line x1="887.5" y1="115.33416712833866" x2="887.5" y2="130.00068894585263" stroke="#A02128" stroke-width="1"/><rect x="880.6" y="124.528266360967" width="13.799999999999999" height="1" fill="#A02128"/><line x1="910.5" y1="89.6973665380383" x2="910.5" y2="145.2569908558142" stroke="#006340" stroke-width="1"/><rect x="903.6" y="97.95107666088529" width="13.799999999999999" height="27.22922466898433" fill="#006340"/><line x1="933.5" y1="79.4317061899975" x2="933.5" y2="108.03989901198906" stroke="#A02128" stroke-width="1"/><rect x="926.6" y="97.95107666088529" width="13.799999999999999" height="5.8342276363566725" fill="#A02128"/><line x1="956.5" y1="94.52896211663324" x2="956.5" y2="117.11705647867541" stroke="#A02128" stroke-width="1"/><rect x="949.6" y="103.78530429724196" width="13.799999999999999" height="3.6699396308375754" fill="#A02128"/><line x1="979.5" y1="61.40926657433249" x2="979.5" y2="124.28333101891883" stroke="#006340" stroke-width="1"/><rect x="972.6" y="80.007160549167" width="13.799999999999999" height="27.448083378912543" fill="#006340"/><line x1="1002.5" y1="51.25958705513142" x2="1002.5" y2="92.66735415903918" stroke="#006340" stroke-width="1"/><rect x="995.6" y="67.74820437650692" width="13.799999999999999" height="12.258956172660078" fill="#006340"/><line x1="1025.5" y1="66.67190598421735" x2="1025.5" y2="95.51518394065658" stroke="#A02128" stroke-width="1"/><rect x="1018.6" y="67.74820437650692" width="13.799999999999999" height="14.396427284129459" fill="#A02128"/><line x1="1048.5" y1="38.7751731235893" x2="1048.5" y2="102.08542775648664" stroke="#006340" stroke-width="1"/><rect x="1041.6" y="62.073255003200984" width="13.799999999999999" height="20.071376657435394" fill="#006340"/><line x1="1071.5" y1="31.878466410165856" x2="1071.5" y2="76.11886893684823" stroke="#006340" stroke-width="1"/><rect x="1064.6" y="53.634698508869405" width="13.799999999999999" height="8.438556494331579" fill="#006340"/><line x1="1094.5" y1="43.01593314805007" x2="1094.5" y2="73.87439140547758" stroke="#A02128" stroke-width="1"/><rect x="1087.6" y="53.634698508869405" width="13.799999999999999" height="1.344005017710856" fill="#A02128"/><line x1="1117.5" y1="26.714787598598036" x2="1117.5" y2="55.710108396747614" stroke="#006340" stroke-width="1"/><rect x="1110.6" y="47.264888918417455" width="13.799999999999999" height="7.7138146081628065" fill="#006340"/><line x1="1140.5" y1="24" x2="1140.5" y2="55.76698896835194" stroke="#006340" stroke-width="1"/><rect x="1133.6" y="29.997478345197692" width="13.799999999999999" height="17.267410573219763" fill="#006340"/>
</svg>