<svg xmlns="http://www.w3.org/2000/svg" width="1200" height="700">
  <rect width="100%" height="100%" fill="#0d1117"/>
  <line x1="48" y1="24" x2="1152" y2="24" stroke="#21262d" stroke-width="1"/><line x1="48" y1="181" x2="1152" y2="181" stroke="#21262d" stroke-width="1"/><line x1="48" y1="338" x2="1152" y2="338" stroke="#21262d" stroke-width="1"/><line x1="48" y1="495" x2="1152" y2="495" stroke="#21262d" stroke-width="1"/><line x1="48" y1="652" x2="1152" y2="652" stroke="#21262d" stroke-width="1"/>
  <line x1="59.5" y1="620.3308912325268" x2="59.5" y2="646.1938782841021" stroke="#006340" stroke-width="1"/><rect x="52.6" y="627.3154394231256" width="13.799999999999999" height="1" fill="#006340"/><line x1="82.5" y1="610.721709419616" x2="82.5" y2="631.8455388450216" stroke="#006340" stroke-width="1"/><rect x="75.6" y="613.5783966569785" width="13.799999999999999" height="13.737042766147056" fill="#006340"/><line x1="105.5" y1="601.9332249390201" x2="105.5" y2="625.2837506874321" stroke="#A02128" stroke-width="1"/><rect x="98.6" y="613.5783966569785" width="13.799999999999999" height="1.1526685640588994" fill="#A02128"/><line x1="128.5" y1="600.0705294767843" x2="128.5" y2="622.4671004098458" stroke="#A02128" stroke-width="1"/><rect x="121.6" y="614.7310652210374" width="13.799999999999999" height="6.236592561697307" fill="#A02128"/><line x1="151.5" y1="603.2229351172609" x2="151.5" y2="652" stroke="#A02128" stroke-width="1"/><rect x="144.6" y="620.9676577827347" width="13.799999999999999" height="12.169364583692186" fill="#A02128"/><line x1="174.5" y1="625.399215916976" x2="174.5" y2="651.7086218451662" stroke="#006340" stroke-width="1"/><rect x="167.6" y="633.027764711651" width="13.799999999999999" height="1" fill="#006340"/><line x1="197.5" y1="597.7078747752404" x2="197.5" y2="645.6618307277962" stroke="#006340" stroke-width="1"/><rect x="190.6" y="614.0232732581945" width="13.799999999999999" height="19.004491453456467" fill="#006340"/><line x1="220.5" y1="600.2047053186147" x2="220.5" y2="625.7505659874784" stroke="#006340" stroke-width="1"/><rect x="213.6" y="601.8267329386903" width="13.799999999999999" height="12.196540319504265" fill="#006340"/><line x1="243.5" y1="559.6094968087575" x2="243.5" y2="602.7721948323591" stroke="#006340" stroke-width="1"/><rect x="236.6" y="578.5808796934804" width="13.799999999999999" height="23.2458532452099" fill="#006340"/><line x1="266.5" y1="521.7523665337203" x2="266.5" y2="594.0380766308353" stroke="#006340" stroke-width="1"/><rect x="259.6" y="540.7979904575798" width="13.799999999999999" height="37.7828892359006" fill="#006340"/><line x1="289.5" y1="507.3348070390799" x2="289.5" y2="544.511674567228" stroke="#006340" stroke-width="1"/><rect x="282.6" y="521.4949355220655" width="13.799999999999999" height="19.303054935514297" fill="#006340"/><line x1="312.5" y1="508.46278226601635" x2="312.5" y2="538.5520532280345" stroke="#A02128" stroke-width="1"/><rect x="305.6" y="521.4949355220655" width="13.799999999999999" height="14.56859110704329" fill="#A02128"/><line x1="335.5" y1="516.9797694021343" x2="335.5" y2="559.0747938333319" stroke="#A02128" stroke-width="1"/><rect x="328.6" y="536.0635266291088" width="13.799999999999999" height="4.379949322918151" fill="#A02128"/><line x1="358.5" y1="530.1724345590936" x2="358.5" y2="545.5072704665876" stroke="#006340" stroke-width="1"/><rect x="351.6" y="538.36529799975" width="13.799999999999999" height="2.07817795227686" fill="#006340"/><line x1="381.5" y1="518.97838995866" x2="381.5" y2="555.6161931590876" stroke="#006340" stroke-width="1"/><rect x="374.6" y="531.5127489359149" width="13.799999999999999" height="6.852549063835113" fill="#006340"/><line x1="404.5" y1="494.50217806524904" x2="404.5" y2="544.7485124496992" stroke="#006340" stroke-width="1"/><rect x="397.6" y="501.4892513008531" width="13.799999999999999" height="30.023497635061858" fill="#006340"/><line x1="427.5" y1="467.112741326951" x2="427.5" y2="503.4656258683594" stroke="#006340" stroke-width="1"/><rect x="420.6" y="486.5260038883643" width="13.799999999999999" height="14.963247412488784" fill="#006340"/><line x1="450.5" y1="485.4207796048072" x2="450.5" y2="492.61527975910127" stroke="#A02128" stroke-width="1"/><rect x="443.6" y="486.5260038883643" width="13.799999999999999" height="5.534449618861686" fill="#A02128"/><line x1="473.5" y1="452.42811229381505" x2="473.5" y2="496.757329694715" stroke="#006340" stroke-width="1"/><rect x="466.6" y="462.88634216757043" width="13.799999999999999" height="29.174111339655553" fill="#006340"/><line x1="496.5" y1="451.1059254631251" x2="496.5" y2="482.8263760801101" stroke="#006340" stroke-width="1"/><rect x="489.6" y="455.57623017928233" width="13.799999999999999" height="7.310111988288099" fill="#006340"/><line x1="519.5" y1="455.4213010201093" x2="519.5" y2="469.19731699265435" stroke="#A02128" stroke-width="1"/><rect x="512.6" y="455.57623017928233" width="13.799999999999999" height="1" fill="#A02128"/><line x1="542.5" y1="431.33666723739265" x2="542.5" y2="458.6368737868639" stroke="#006340" stroke-width="1"/><rect x="535.6" y="439.4350141792686" width="13.799999999999999" height="16.761749323968615" fill="#006340"/><line x1="565.5" y1="421.4501059572308" x2="565.5" y2="440.87978115873864" stroke="#006340" stroke-width="1"/><rect x="558.6" y="422.14038817640466" width="13.799999999999999" height="17.294626002863936" fill="#006340"/><line x1="588.5" y1="420.500248282215" x2="588.5" y2="446.4260945160862" stroke="#A02128" stroke-width="1"/><rect x="581.6" y="422.14038817640466" width="13.799999999999999" height="6.0470776767893994" fill="#A02128"/><line x1="611.5" y1="374.161761710525" x2="611.5" y2="440.5884027379144" stroke="#006340" stroke-width="1"/><rect x="604.6" y="382.98810195175713" width="13.799999999999999" height="45.199363901436925" fill="#006340"/><line x1="634.5" y1="350.6131349962157" x2="634.5" y2="394.34716625263536" stroke="#006340" stroke-width="1"/><rect x="627.6" y="354.2078172223389" width="13.799999999999999" height="28.780284729418213" fill="#006340"/><line x1="657.5" y1="343.0155974482654" x2="657.5" y2="370.35413365923023" stroke="#A02128" stroke-width="1"/><rect x="650.6" y="354.2078172223389" width="13.799999999999999" height="2.508905363278643" fill="#A02128"/><line x1="680.5" y1="323.5753101885241" x2="680.5" y2="374.8408187682315" stroke="#006340" stroke-width="1"/><rect x="673.6" y="330.13537322902164" width="13.799999999999999" height="26.581349356595922" fill="#006340"/><line x1="703.5" y1="300.69185480941337" x2="703.5" y2="345.32240624581925" stroke="#006340" stroke-width="1"/><rect x="696.6" y="304.7577974826524" width="13.799999999999999" height="25.377575746369246" fill="#006340"/><line x1="726.5" y1="286.8159046293754" x2="726.5" y2="306.2900524289" stroke="#006340" stroke-width="1"/><rect x="719.6" y="292.2543978424985" width="13.799999999999999" height="12.503399640153873" fill="#006340"/><line x1="749.5" y1="278.8665930836156" x2="749.5" y2="300.92232271916504" stroke="#006340" stroke-width="1"/><rect x="742.6" y="290.0868659215932" width="13.799999999999999" height="2.1675319209053328" fill="#006340"/><line x1="772.5" y1="278.9218347534979" x2="772.5" y2="311.9689756408105" stroke="#A02128" stroke-width="1"/><rect x="765.6" y="290.0868659215932" width="13.799999999999999" height="14.458668971256486" fill="#A02128"/><line x1="795.5" y1="286.25623203350017" x2="795.5" y2="321.6169333212416" stroke="#A02128" stroke-width="1"/><rect x="788.6" y="304.5455348928497" width="13.799999999999999" height="8.433937154328987" fill="#A02128"/><line x1="818.5" y1="311.9567646297461" x2="818.5" y2="330.87474659577504" stroke="#A02128" stroke-width="1"/><rect x="811.6" y="312.97947204717866" width="13.799999999999999" height="5.710603423452255" fill="#A02128"/><line x1="841.5" y1="266.71769638856307" x2="841.5" y2="338.76185025838925" stroke="#006340" stroke-width="1"/><rect x="834.6" y="275.8068076972549" width="13.799999999999999" height="42.88326777337602" fill="#006340"/><line x1="864.5" y1="216.43127612913958" x2="864.5" y2="284.81646527680215" stroke="#006340" stroke-width="1"/><rect x="857.6" y="234.02437587910475" width="13.799999999999999" height="41.782431818150144" fill="#006340"/><line x1="887.5" y1="215.14375197243027" x2="887.5" y2="249.24248367448098" stroke="#006340" stroke-width="1"/><rect x="880.6" y="224.93239950485656" width="13.799999999999999" height="9.09197637424819" fill="#006340"/><line x1="910.5" y1="186.96835168907273" x2="910.5" y2="233.67928698977113" stroke="#006340" stroke-width="1"/><rect x="903.6" y="193.47379241025834" width="13.799999999999999" height="31.45860709459822" fill="#006340"/><line x1="933.5" y1="158.5884960597242" x2="933.5" y2="195.08613652911362" stroke="#006340" stroke-width="1"/><rect x="926.6" y="170.60280910690966" width="13.799999999999999" height="22.87098330334868" fill="#006340"/><line x1="956.5" y1="134.36059484151485" x2="956.5" y2="176.3271383474684" stroke="#006340" stroke-width="1"/><rect x="949.6" y="140.57828321046742" width="13.799999999999999" height="30.024525896442242" fill="#006340"/><line x1="979.5" y1="116.04825752884472" x2="979.5" y2="149.77554865354762" stroke="#006340" stroke-width="1"/><rect x="972.6" y="117.10311242615592" width="13.799999999999999" height="23.4751707843115" fill="#006340"/><line x1="1002.5" y1="108.71344545008992" x2="1002.5" y2="152.7943310246929" stroke="#A02128" stroke-width="1"/><rect x="995.6" y="117.10311242615592" width="13.799999999999999" height="16.051998348654934" fill="#A02128"/><line x1="1025.5" y1="119.91437310853416" x2="1025.5" y2="150.23056813820483" stroke="#A02128" stroke-width="1"/><rect x="1018.6" y="133.15511077481085" width="13.799999999999999" height="1.9540217006187959" fill="#A02128"/><line x1="1048.5" y1="92.06780093493603" x2="1048.5" y2="135.27091756548975" stroke="#006340" stroke-width="1"/><rect x="1041.6" y="110.8805252858358" width="13.799999999999999" height="24.228607189593845" fill="#006340"/><line x1="1071.5" y1="73.61305858822254" x2="1071.5" y2="119.84317438070991" stroke="#006340" stroke-width="1"/><rect x="1064.6" y="93.11205226283528" width="13.799999999999999" height="17.768473023000524" fill="#006340"/><line x1="1094.5" y1="67.94292872604046" x2="1094.5" y2="111.72136650695757" stroke="#006340" stroke-width="1"/><rect x="1087.6" y="76.07416225512588" width="13.799999999999999" height="17.037890007709393" fill="#006340"/><line x1="1117.5" y1="71.38413135878295" x2="1117.5" y2="88.43649810530633" stroke="#006340" stroke-width="1"/><rect x="1110.6" y="71.94096003828201" width="13.799999999999999" height="4.13320221684387" fill="#006340"/><line x1="1140.5" y1="24" x2="1140.5" y2="79.24878001840375" stroke="#006340" stroke-width="1"/><rect x="1133.6" y="31.782587608673452" width="13.799999999999999" height="40.15837242960856" fill="#006340"/>
</svg>