<svg xmlns="http://www.w3.org/2000/svg" width="1200" height="700">
  <rect width="100%" height="100%" fill="#0d1117"/>
  <line x1="48" y1="24" x2="1152" y2="24" stroke="#21262d" stroke-width="1"/><line x1="48" y1="181" x2="1152" y2="181" stroke="#21262d" stroke-width="1"/><line x1="48" y1="338" x2="1152" y2="338" stroke="#21262d" stroke-width="1"/><line x1="48" y1="495" x2="1152" y2="495" stroke="#21262d" stroke-width="1"/><line x1="48" y1="652" x2="1152" y2="652" stroke="#21262d" stroke-width="1"/>
  <line x1="59.5" y1="568.6607735610507" x2="59.5" y2="616.396656450927" stroke="#A02128" stroke-width="1"/><rect x="52.6" y="581.755864388934" width="13.799999999999999" height="19.313302039688438" fill="#A02128"/><line x1="82.5" y1="593.1837028320449" x2="82.5" y2="607.9191372491769" stroke="#A02128" stroke-width="1"/><rect x="75.6" y="601.0691664286225" width="13.799999999999999" height="5.4107568137700355" fill="#A02128"/><line x1="105.5" y1="594.1723362457345" x2="105.5" y2="638.4192783357311" stroke="#A02128" stroke-width="1"/><rect x="98.6" y="606.4799232423925" width="13.799999999999999" height="19.877153161197725" fill="#A02128"/><line x1="128.5" y1="616.154921421418" x2="128.5" y2="630.299526540595" stroke="#A02128" stroke-width="1"/><rect x="121.6" y="626.3570764035902" width="13.799999999999999" height="2.097006878117554" fill="#A02128"/><line x1="151.5" y1="611.1871106747336" x2="151.5" y2="637.9510378267483" stroke="#006340" stroke-width="1"/><rect x="144.6" y="621.0343629717504" width="13.799999999999999" height="7.41972030995737" fill="#006340"/><line x1="174.5" y1="603.0158945960052" x2="174.5" y2="622.3261003548926" stroke="#006340" stroke-width="1"/><rect x="167.6" y="615.6821831836313" width="13.799999999999999" height="5.352179788119088" fill="#006340"/><line x1="197.5" y1="610.5922196487303" x2="197.5" y2="622.8635128322968" stroke="#006340" stroke-width="1"/><rect x="190.6" y="612.1702685759199" width="13.799999999999999" height="3.5119146077114465" fill="#006340"/><line x1="220.5" y1="606.56162971104" x2="220.5" y2="623.0713345144801" stroke="#006340" stroke-width="1"/><rect x="213.6" y="609.2708374155263" width="13.799999999999999" height="2.899431160393533" fill="#006340"/><line x1="243.5" y1="605.9879903721202" x2="243.5" y2="637.9741893553561" stroke="#A02128" stroke-width="1"/><rect x="236.6" y="609.2708374155263" width="13.799999999999999" height="14.333578707694755" fill="#A02128"/><line x1="266.5" y1="616.953507388931" x2="266.5" y2="635.907196470809" stroke="#006340" stroke-width="1"/><rect x="259.6" y="621.1339061480493" width="13.799999999999999" height="2.470509975171808" fill="#006340"/><line x1="289.5" y1="621.08882142215" x2="289.5" y2="636.0655426176859" stroke="#A02128" stroke-width="1"/><rect x="282.6" y="621.1339061480493" width="13.799999999999999" height="11.890721290162901" fill="#A02128"/><line x1="312.5" y1="622.4428691637861" x2="312.5" y2="638.6338986225278" stroke="#006340" stroke-width="1"/><rect x="305.6" y="626.0999885930082" width="13.799999999999999" height="6.924638845203958" fill="#006340"/><line x1="335.5" y1="617.7561438193106" x2="335.5" y2="652" stroke="#A02128" stroke-width="1"/><rect x="328.6" y="626.0999885930082" width="13.799999999999999" height="18.282874197558613" fill="#A02128"/><line x1="358.5" y1="613.4258504214962" x2="358.5" y2="645.6023059256142" stroke="#006340" stroke-width="1"/><rect x="351.6" y="624.9242666732822" width="13.799999999999999" height="19.45859611728463" fill="#006340"/><line x1="381.5" y1="613.7716364509618" x2="381.5" y2="635.974919122588" stroke="#006340" stroke-width="1"/><rect x="374.6" y="616.6829183860438" width="13.799999999999999" height="8.241348287238452" fill="#006340"/><line x1="404.5" y1="605.9811156973238" x2="404.5" y2="630.7986746638821" stroke="#006340" stroke-width="1"/><rect x="397.6" y="609.619606097781" width="13.799999999999999" height="7.06331228826275" fill="#006340"/><line x1="427.5" y1="599.2570707523377" x2="427.5" y2="624.0031002957759" stroke="#A02128" stroke-width="1"/><rect x="420.6" y="609.619606097781" width="13.799999999999999" height="3.444913023203412" fill="#A02128"/><line x1="450.5" y1="599.1117281777348" x2="450.5" y2="646.6260203745626" stroke="#A02128" stroke-width="1"/><rect x="443.6" y="613.0645191209844" width="13.799999999999999" height="18.60005656783926" fill="#A02128"/><line x1="473.5" y1="622.9934837043528" x2="473.5" y2="640.579827578462" stroke="#006340" stroke-width="1"/><rect x="466.6" y="629.2077750567427" width="13.799999999999999" height="2.4568006320810127" fill="#006340"/><line x1="496.5" y1="601.3509260231001" x2="496.5" y2="642.6918439150309" stroke="#006340" stroke-width="1"/><rect x="489.6" y="616.3567899801479" width="13.799999999999999" height="12.850985076594725" fill="#006340"/><line x1="519.5" y1="582.0748127890632" x2="519.5" y2="626.4902457699461" stroke="#006340" stroke-width="1"/><rect x="512.6" y="597.9145433520102" width="13.799999999999999" height="18.442246628137696" fill="#006340"/><line x1="542.5" y1="584.0848789242068" x2="542.5" y2="618.0512364058637" stroke="#A02128" stroke-width="1"/><rect x="535.6" y="597.9145433520102" width="13.799999999999999" height="7.45842299161734" fill="#A02128"/><line x1="565.5" y1="594.9592949023811" x2="565.5" y2="633.2686204900687" stroke="#A02128" stroke-width="1"/><rect x="558.6" y="605.3729663436276" width="13.799999999999999" height="18.37698869595272" fill="#A02128"/><line x1="588.5" y1="600.5586197853975" x2="588.5" y2="632.0967694707717" stroke="#006340" stroke-width="1"/><rect x="581.6" y="615.7387806990162" width="13.799999999999999" height="8.01117434056414" fill="#006340"/><line x1="611.5" y1="589.6551079042797" x2="611.5" y2="628.9114532485918" stroke="#006340" stroke-width="1"/><rect x="604.6" y="604.6117597188183" width="13.799999999999999" height="11.127020980197813" fill="#006340"/><line x1="634.5" y1="581.8930316692513" x2="634.5" y2="617.846064966452" stroke="#006340" stroke-width="1"/><rect x="627.6" y="582.8318225149727" width="13.799999999999999" height="21.779937203845634" fill="#006340"/><line x1="657.5" y1="575.0416006128546" x2="657.5" y2="611.0150298952481" stroke="#A02128" stroke-width="1"/><rect x="650.6" y="582.8318225149727" width="13.799999999999999" height="16.73593648013764" fill="#A02128"/><line x1="680.5" y1="592.7701557509944" x2="680.5" y2="620.6090531136666" stroke="#A02128" stroke-width="1"/><rect x="673.6" y="599.5677589951104" width="13.799999999999999" height="5.244449836597028" fill="#A02128"/><line x1="703.5" y1="582.534455020194" x2="703.5" y2="605.5944262189471" stroke="#006340" stroke-width="1"/><rect x="696.6" y="593.1076515405302" width="13.799999999999999" height="11.704557291177139" fill="#006340"/><line x1="726.5" y1="584.1219777659212" x2="726.5" y2="603.3716543045495" stroke="#006340" stroke-width="1"/><rect x="719.6" y="587.1403291197979" width="13.799999999999999" height="5.96732242073233" fill="#006340"/><line x1="749.5" y1="569.5280367532553" x2="749.5" y2="592.5982763787645" stroke="#006340" stroke-width="1"/><rect x="742.6" y="573.6019493926501" width="13.799999999999999" height="13.538379727147799" fill="#006340"/><line x1="772.5" y1="570.6355106340437" x2="772.5" y2="598.7250061121638" stroke="#A02128" stroke-width="1"/><rect x="765.6" y="573.6019493926501" width="13.799999999999999" height="13.05645304674431" fill="#A02128"/><line x1="795.5" y1="556.6479849970043" x2="795.5" y2="594.9086292487797" stroke="#006340" stroke-width="1"/><rect x="788.6" y="564.2012818528725" width="13.799999999999999" height="22.45712058652191" fill="#006340"/><line x1="818.5" y1="557.3047680114695" x2="818.5" y2="593.417265882379" stroke="#A02128" stroke-width="1"/><rect x="811.6" y="564.2012818528725" width="13.799999999999999" height="15.736668393984132" fill="#A02128"/><line x1="841.5" y1="545.2266293291856" x2="841.5" y2="584.6496460912106" stroke="#006340" stroke-width="1"/><rect x="834.6" y="559.6665474653336" width="13.799999999999999" height="20.27140278152308" fill="#006340"/><line x1="864.5" y1="522.0821473303677" x2="864.5" y2="575.7016367408409" stroke="#006340" stroke-width="1"/><rect x="857.6" y="527.4061229802576" width="13.799999999999999" height="32.26042448507599" fill="#006340"/><line x1="887.5" y1="466.5453986929206" x2="887.5" y2="540.3749242385949" stroke="#006340" stroke-width="1"/><rect x="880.6" y="477.12331431363395" width="13.799999999999999" height="50.28280866662362" fill="#006340"/><line x1="910.5" y1="441.1817642776259" x2="910.5" y2="477.2288503402194" stroke="#006340" stroke-width="1"/><rect x="903.6" y="443.6870540065454" width="13.799999999999999" height="33.43626030708856" fill="#006340"/><line x1="933.5" y1="382.47087835001366" x2="933.5" y2="460.0458192826769" stroke="#006340" stroke-width="1"/><rect x="926.6" y="384.81219405490003" width="13.799999999999999" height="58.87485995164536" fill="#006340"/><line x1="956.5" y1="358.58518966814444" x2="956.5" y2="395.5910032558708" stroke="#006340" stroke-width="1"/><rect x="949.6" y="375.54318705900465" width="13.799999999999999" height="9.269006995895381" fill="#006340"/><line x1="979.5" y1="309.66808817825904" x2="979.5" y2="391.0894605041322" stroke="#006340" stroke-width="1"/><rect x="972.6" y="320.99287727809997" width="13.799999999999999" height="54.55030978090468" fill="#006340"/><line x1="1002.5" y1="300.6798450733816" x2="1002.5" y2="337.4775550499382" stroke="#006340" stroke-width="1"/><rect x="995.6" y="309.41429001879897" width="13.799999999999999" height="11.578587259301003" fill="#006340"/><line x1="1025.5" y1="262.9057286391826" x2="1025.5" y2="312.6501674985134" stroke="#006340" stroke-width="1"/><rect x="1018.6" y="272.71830432515264" width="13.799999999999999" height="36.69598569364632" fill="#006340"/><line x1="1048.5" y1="234.30978726508982" x2="1048.5" y2="289.5166021090575" stroke="#006340" stroke-width="1"/><rect x="1041.6" y="234.87413425899206" width="13.799999999999999" height="37.844170066160586" fill="#006340"/><line x1="1071.5" y1="165.78681476885419" x2="1071.5" y2="238.94053409524508" stroke="#006340" stroke-width="1"/><rect x="1064.6" y="173.14174078753865" width="13.799999999999999" height="61.732393471453406" fill="#006340"/><line x1="1094.5" y1="95.76086931318048" x2="1094.5" y2="174.11849549780936" stroke="#006340" stroke-width="1"/><rect x="1087.6" y="112.8427059937809" width="13.799999999999999" height="60.299034793757755" fill="#006340"/><line x1="1117.5" y1="52.22288051392354" x2="1117.5" y2="121.88106592585893" stroke="#006340" stroke-width="1"/><rect x="1110.6" y="65.48689794331665" width="13.799999999999999" height="47.35580805046425" fill="#006340"/><line x1="1140.5" y1="24" x2="1140.5" y2="74.2648935057423" stroke="#006340" stroke-width="1"/><rect x="1133.6" y="34.80973673744302" width="13.799999999999999" height="30.67716120587363" fill="#006340"/>
</svg>