<svg xmlns="http://www.w3.org/2000/svg" width="1200" height="700">
  <rect width="100%" height="100%" fill="#0d1117"/>
  <line x1="48" y1="24" x2="1152" y2="24" stroke="#21262d" stroke-width="1"/><line x1="48" y1="181" x2="1152" y2="181" stroke="#21262d" stroke-width="1"/><line x1="48" y1="338" x2="1152" y2="338" stroke="#21262d" stroke-width="1"/><line x1="48" y1="495" x2="1152" y2="495" stroke="#21262d" stroke-width="1"/><line x1="48" y1="652" x2="1152" y2="652" stroke="#21262d" stroke-width="1"/>
  <line x1="59.5" y1="612.9974962152808" x2="59.5" y2="639.8964981047438" stroke="#006340" stroke-width="1"/><rect x="52.6" y="633.1901558082935" width="13.799999999999999" height="2.8688990230901936" fill="#006340"/><line x1="82.5" y1="611.0247564297158" x2="82.5" y2="644.3758175725552" stroke="#006340" stroke-width="1"/><rect x="75.6" y="629.9270532157466" width="13.799999999999999" height="3.263102592546943" fill="#006340"/><line x1="105.5" y1="625.4375609544633" x2="105.5" y2="652" stroke="#A02128" stroke-width="1"/><rect x="98.6" y="629.9270532157466" width="13.799999999999999" height="3.6790516719146353" fill="#A02128"/><line x1="128.5" y1="624.2655566223413" x2="128.5" y2="648.3230499124666" stroke="#006340" stroke-width="1"/><rect x="121.6" y="627.2586492526277" width="13.799999999999999" height="6.347455635033498" fill="#006340"/><line x1="151.5" y1="604.8534922063525" x2="151.5" y2="629.7538517452567" stroke="#006340" stroke-width="1"/><rect x="144.6" y="606.445249766367" width="13.799999999999999" height="20.813399486260664" fill="#006340"/><line x1="174.5" y1="602.4014966788186" x2="174.5" y2="613.3789289452108" stroke="#A02128" stroke-width="1"/><rect x="167.6" y="606.445249766367" width="13.799999999999999" height="5.030860462666965" fill="#A02128"/><line x1="197.5" y1="596.1391883700651" x2="197.5" y2="632.7596414057945" stroke="#A02128" stroke-width="1"/><rect x="190.6" y="611.476110229034" width="13.799999999999999" height="3.321900467778846" fill="#A02128"/><line x1="220.5" y1="580.9625829878489" x2="220.5" y2="619.7495500879527" stroke="#006340" stroke-width="1"/><rect x="213.6" y="586.3861238313594" width="13.799999999999999" height="28.411886865453425" fill="#006340"/><line x1="243.5" y1="566.5010276816898" x2="243.5" y2="600.7114622695038" stroke="#A02128" stroke-width="1"/><rect x="236.6" y="586.3861238313594" width="13.799999999999999" height="3.5078002027807997" fill="#A02128"/><line x1="266.5" y1="572.7342733898637" x2="266.5" y2="608.9666586277274" stroke="#A02128" stroke-width="1"/><rect x="259.6" y="589.8939240341402" width="13.799999999999999" height="11.955138144711213" fill="#A02128"/><line x1="289.5" y1="566.2378114974802" x2="289.5" y2="607.5342531747481" stroke="#006340" stroke-width="1"/><rect x="282.6" y="567.7844193709645" width="13.799999999999999" height="34.06464280788691" fill="#006340"/><line x1="312.5" y1="535.9703941036641" x2="312.5" y2="580.2729907662535" stroke="#006340" stroke-width="1"/><rect x="305.6" y="539.156503796585" width="13.799999999999999" height="28.627915574379585" fill="#006340"/><line x1="335.5" y1="536.7261102812253" x2="335.5" y2="548.366133315446" stroke="#A02128" stroke-width="1"/><rect x="328.6" y="539.156503796585" width="13.799999999999999" height="7.608668301779289" fill="#A02128"/><line x1="358.5" y1="507.1142503501728" x2="358.5" y2="552.8148904044598" stroke="#006340" stroke-width="1"/><rect x="351.6" y="515.7771341739243" width="13.799999999999999" height="30.988037924439936" fill="#006340"/><line x1="381.5" y1="511.56174719100215" x2="381.5" y2="529.8343385346238" stroke="#A02128" stroke-width="1"/><rect x="374.6" y="515.7771341739243" width="13.799999999999999" height="3.34745748057901" fill="#A02128"/><line x1="404.5" y1="485.12513635452706" x2="404.5" y2="536.4617242406852" stroke="#006340" stroke-width="1"/><rect x="397.6" y="491.9215605569581" width="13.799999999999999" height="27.203031097545193" fill="#006340"/><line x1="427.5" y1="471.3000899472033" x2="427.5" y2="493.97207803426954" stroke="#006340" stroke-width="1"/><rect x="420.6" y="472.8331136118824" width="13.799999999999999" height="19.088446945075702" fill="#006340"/><line x1="450.5" y1="464.5870601979834" x2="450.5" y2="490.3310341413479" stroke="#A02128" stroke-width="1"/><rect x="443.6" y="472.8331136118824" width="13.799999999999999" height="7.856952707855214" fill="#A02128"/><line x1="473.5" y1="457.5971035071933" x2="473.5" y2="500.2686139255356" stroke="#006340" stroke-width="1"/><rect x="466.6" y="475.78747139575864" width="13.799999999999999" height="4.902594923978995" fill="#006340"/><line x1="496.5" y1="435.1979933286724" x2="496.5" y2="491.9607571688725" stroke="#006340" stroke-width="1"/><rect x="489.6" y="436.131730932662" width="13.799999999999999" height="39.65574046309666" fill="#006340"/><line x1="519.5" y1="392.16041670204976" x2="519.5" y2="448.5839620238693" stroke="#006340" stroke-width="1"/><rect x="512.6" y="403.34585010090075" width="13.799999999999999" height="32.78588083176123" fill="#006340"/><line x1="542.5" y1="382.3611065921484" x2="542.5" y2="418.64388403415785" stroke="#006340" stroke-width="1"/><rect x="535.6" y="391.9581131970979" width="13.799999999999999" height="11.387736903802875" fill="#006340"/><line x1="565.5" y1="380.64665603437925" x2="565.5" y2="400.9609537908987" stroke="#006340" stroke-width="1"/><rect x="558.6" y="391.92240431145706" width="13.799999999999999" height="1" fill="#006340"/><line x1="588.5" y1="386.8252239098713" x2="588.5" y2="414.10127722614675" stroke="#A02128" stroke-width="1"/><rect x="581.6" y="391.92240431145706" width="13.799999999999999" height="13.975244281608354" fill="#A02128"/><line x1="611.5" y1="385.4640857233199" x2="611.5" y2="418.5807384547501" stroke="#A02128" stroke-width="1"/><rect x="604.6" y="405.8976485930654" width="13.799999999999999" height="11.309930419029797" fill="#A02128"/><line x1="634.5" y1="400.2920558762794" x2="634.5" y2="428.0689432991196" stroke="#006340" stroke-width="1"/><rect x="627.6" y="408.69519714541264" width="13.799999999999999" height="8.512381866682574" fill="#006340"/><line x1="657.5" y1="361.3499571870272" x2="657.5" y2="411.3478931127052" stroke="#006340" stroke-width="1"/><rect x="650.6" y="378.4417407190133" width="13.799999999999999" height="30.25345642639934" fill="#006340"/><line x1="680.5" y1="362.1643127933531" x2="680.5" y2="392.11126977736114" stroke="#A02128" stroke-width="1"/><rect x="673.6" y="378.4417407190133" width="13.799999999999999" height="10.275986039521342" fill="#A02128"/><line x1="703.5" y1="353.3151050581537" x2="703.5" y2="395.6883379119046" stroke="#006340" stroke-width="1"/><rect x="696.6" y="371.25495476630573" width="13.799999999999999" height="17.46277199222891" fill="#006340"/><line x1="726.5" y1="327.8840713413304" x2="726.5" y2="374.1207486026248" stroke="#006340" stroke-width="1"/><rect x="719.6" y="336.25927629919767" width="13.799999999999999" height="34.995678467108064" fill="#006340"/><line x1="749.5" y1="285.6765749642561" x2="749.5" y2="344.6072976459658" stroke="#006340" stroke-width="1"/><rect x="742.6" y="293.2075474853582" width="13.799999999999999" height="43.051728813839475" fill="#006340"/><line x1="772.5" y1="256.60575756783066" x2="772.5" y2="298.413516296284" stroke="#006340" stroke-width="1"/><rect x="765.6" y="277.7866147890374" width="13.799999999999999" height="15.42093269632079" fill="#006340"/><line x1="795.5" y1="247.3953130733895" x2="795.5" y2="295.83585817875746" stroke="#006340" stroke-width="1"/><rect x="788.6" y="259.2354327598304" width="13.799999999999999" height="18.551182029206984" fill="#006340"/><line x1="818.5" y1="240.11175786002332" x2="818.5" y2="282.4145119466169" stroke="#A02128" stroke-width="1"/><rect x="811.6" y="259.2354327598304" width="13.799999999999999" height="12.023609467411859" fill="#A02128"/><line x1="841.5" y1="251.29889453725667" x2="841.5" y2="300.50199694850727" stroke="#A02128" stroke-width="1"/><rect x="834.6" y="271.2590422272423" width="13.799999999999999" height="12.72176489718845" fill="#A02128"/><line x1="864.5" y1="255.3206275918779" x2="864.5" y2="293.67641070307997" stroke="#006340" stroke-width="1"/><rect x="857.6" y="255.77565451675105" width="13.799999999999999" height="28.20515260767968" fill="#006340"/><line x1="887.5" y1="198.853590537203" x2="887.5" y2="262.77076781047754" stroke="#006340" stroke-width="1"/><rect x="880.6" y="215.61743984756873" width="13.799999999999999" height="40.158214669182314" fill="#006340"/><line x1="910.5" y1="203.8776844943589" x2="910.5" y2="239.2253493904184" stroke="#A02128" stroke-width="1"/><rect x="903.6" y="215.61743984756873" width="13.799999999999999" height="11.118199847112805" fill="#A02128"/><line x1="933.5" y1="212.44818983669927" x2="933.5" y2="245.00088287054007" stroke="#006340" stroke-width="1"/><rect x="926.6" y="223.6252326960253" width="13.799999999999999" height="3.110406998656231" fill="#006340"/><line x1="956.5" y1="181.74862666835418" x2="956.5" y2="237.65208405323233" stroke="#006340" stroke-width="1"/><rect x="949.6" y="194.93988374804633" width="13.799999999999999" height="28.68534894797898" fill="#006340"/><line x1="979.5" y1="141.17612486137602" x2="979.5" y2="198.21349088857153" stroke="#006340" stroke-width="1"/><rect x="972.6" y="146.8974752234315" width="13.799999999999999" height="48.042408524614814" fill="#006340"/><line x1="1002.5" y1="130.84168071265776" x2="1002.5" y2="170.15994362921526" stroke="#A02128" stroke-width="1"/><rect x="995.6" y="146.8974752234315" width="13.799999999999999" height="9.48049235475031" fill="#A02128"/><line x1="1025.5" y1="138.05892562518295" x2="1025.5" y2="167.26134919750768" stroke="#006340" stroke-width="1"/><rect x="1018.6" y="154.4761057295721" width="13.799999999999999" height="1.9018618486097125" fill="#006340"/><line x1="1048.5" y1="105.3308729826714" x2="1048.5" y2="161.8169996478565" stroke="#006340" stroke-width="1"/><rect x="1041.6" y="123.24728021930036" width="13.799999999999999" height="31.228825510271747" fill="#006340"/><line x1="1071.5" y1="101.28884921114798" x2="1071.5" y2="138.92430028496312" stroke="#006340" stroke-width="1"/><rect x="1064.6" y="117.02975229500885" width="13.799999999999999" height="6.217527924291517" fill="#006340"/><line x1="1094.5" y1="79.27092795864394" x2="1094.5" y2="119.1158362392124" stroke="#006340" stroke-width="1"/><rect x="1087.6" y="89.77119045636846" width="13.799999999999999" height="27.25856183864039" fill="#006340"/><line x1="1117.5" y1="67.27365062177648" x2="1117.5" y2="105.46955381246869" stroke="#A02128" stroke-width="1"/><rect x="1110.6" y="89.77119045636846" width="13.799999999999999" height="1.339281918031702" fill="#A02128"/><line x1="1140.5" y1="24" x2="1140.5" y2="111.89039913120973" stroke="#006340" stroke-width="1"/><rect x="1133.6" y="42.609228557944675" width="13.799999999999999" height="48.501243816455485" fill="#006340"/>
</svg>