<svg xmlns="http://www.w3.org/2000/svg" width="1200" height="700">
  <rect width="100%" height="100%" fill="#0d1117"/>
  <line x1="48" y1="24" x2="1152" y2="24" stroke="#21262d" stroke-width="1"/><line x1="48" y1="181" x2="1152" y2="181" stroke="#21262d" stroke-width="1"/><line x1="48" y1="338" x2="1152" y2="338" stroke="#21262d" stroke-width="1"/><line x1="48" y1="495" x2="1152" y2="495" stroke="#21262d" stroke-width="1"/><line x1="48" y1="652" x2="1152" y2="652" stroke="#21262d" stroke-width="1"/>
  <line x1="59.5" y1="35.40816009418336" x2="59.5" y2="116.8031185241042" stroke="#A02128" stroke-width="1"/><rect x="52.6" y="48.01615126881893" width="13.799999999999999" height="40.00189093728295" fill="#A02128"/><line x1="82.5" y1="67.89006158105133" x2="82.5" y2="131.6253527772095" stroke="#A02128" stroke-width="1"/><rect x="75.6" y="88.01804220610188" width="13.799999999999999" height="30.147876755617744" fill="#A02128"/><line x1="105.5" y1="92.15925123748025" x2="105.5" y2="176.5236821647905" stroke="#A02128" stroke-width="1"/><rect x="98.6" y="118.16591896171963" width="13.799999999999999" height="53.573540791759285" fill="#A02128"/><line x1="128.5" y1="103.35924467777022" x2="128.5" y2="186.0514465754519" stroke="#006340" stroke-width="1"/><rect x="121.6" y="122.50717662669763" width="13.799999999999999" height="49.23228312678128" fill="#006340"/><line x1="151.5" y1="86.50980752457565" x2="151.5" y2="173.35902569603434" stroke="#A02128" stroke-width="1"/><rect x="144.6" y="122.50717662669763" width="13.799999999999999" height="47.9805413127707" fill="#A02128"/><line x1="174.5" y1="88.62888394724428" x2="174.5" y2="180.59495382534408" stroke="#006340" stroke-width="1"/><rect x="167.6" y="115.7389822061607" width="13.799999999999999" height="54.748735733307626" fill="#006340"/><line x1="197.5" y1="65.39615821750033" x2="197.5" y2="121.74636904113629" stroke="#006340" stroke-width="1"/><rect x="190.6" y="90.2459760944513" width="13.799999999999999" height="25.493006111709406" fill="#006340"/><line x1="220.5" y1="46.48366793374339" x2="220.5" y2="118.7458096736002" stroke="#006340" stroke-width="1"/><rect x="213.6" y="60.94765013202448" width="13.799999999999999" height="29.298325962426816" fill="#006340"/><line x1="243.5" y1="24" x2="243.5" y2="118.87382992336404" stroke="#A02128" stroke-width="1"/><rect x="236.6" y="60.94765013202448" width="13.799999999999999" height="43.49477273312584" fill="#A02128"/><line x1="266.5" y1="62.99965162259787" x2="266.5" y2="137.4909090876107" stroke="#006340" stroke-width="1"/><rect x="259.6" y="99.72134780340605" width="13.799999999999999" height="4.721075061744273" fill="#006340"/><line x1="289.5" y1="76.64576776124966" x2="289.5" y2="159.4418814927597" stroke="#A02128" stroke-width="1"/><rect x="282.6" y="99.72134780340605" width="13.799999999999999" height="49.47905818641067" fill="#A02128"/><line x1="312.5" y1="83.02093983959753" x2="312.5" y2="164.592483534696" stroke="#006340" stroke-width="1"/><rect x="305.6" y="97.07446439113028" width="13.799999999999999" height="52.12594159868644" fill="#006340"/><line x1="335.5" y1="91.75626855930193" x2="335.5" y2="105.56998810973334" stroke="#006340" stroke-width="1"/><rect x="328.6" y="93.4569943997335" width="13.799999999999999" height="3.6174699913967743" fill="#006340"/><line x1="358.5" y1="81.06699201737717" x2="358.5" y2="157.8335481362476" stroke="#A02128" stroke-width="1"/><rect x="351.6" y="93.4569943997335" width="13.799999999999999" height="55.23180217956053" fill="#A02128"/><line x1="381.5" y1="77.66664254892225" x2="381.5" y2="188.80936238320135" stroke="#006340" stroke-width="1"/><rect x="374.6" y="107.64868964817595" width="13.799999999999999" height="41.04010693111809" fill="#006340"/><line x1="404.5" y1="74.76363029398453" x2="404.5" y2="167.82991220540998" stroke="#A02128" stroke-width="1"/><rect x="397.6" y="107.64868964817595" width="13.799999999999999" height="47.89907139413924" fill="#A02128"/><line x1="427.5" y1="145.44732131063313" x2="427.5" y2="201.3344867334988" stroke="#A02128" stroke-width="1"/><rect x="420.6" y="155.5477610423152" width="13.799999999999999" height="11.94920757355925" fill="#A02128"/><line x1="450.5" y1="131.49536853256836" x2="450.5" y2="188.5547245310031" stroke="#006340" stroke-width="1"/><rect x="443.6" y="149.43646805140264" width="13.799999999999999" height="18.060500564471795" fill="#006340"/><line x1="473.5" y1="146.5422624709185" x2="473.5" y2="221.55685773620257" stroke="#A02128" stroke-width="1"/><rect x="466.6" y="149.43646805140264" width="13.799999999999999" height="59.38821087714649" fill="#A02128"/><line x1="496.5" y1="202.975360225239" x2="496.5" y2="276.2081238275217" stroke="#A02128" stroke-width="1"/><rect x="489.6" y="208.82467892854913" width="13.799999999999999" height="39.286598155808065" fill="#A02128"/><line x1="519.5" y1="245.57814154373654" x2="519.5" y2="266.6641534770196" stroke="#A02128" stroke-width="1"/><rect x="512.6" y="248.1112770843572" width="13.799999999999999" height="16.897934726014284" fill="#A02128"/><line x1="542.5" y1="261.5650173194129" x2="542.5" y2="314.92874447492403" stroke="#A02128" stroke-width="1"/><rect x="535.6" y="265.0092118103715" width="13.799999999999999" height="35.112825440766414" fill="#A02128"/><line x1="565.5" y1="271.817403498065" x2="565.5" y2="324.28753206981924" stroke="#A02128" stroke-width="1"/><rect x="558.6" y="300.1220372511379" width="13.799999999999999" height="2.437153583895224" fill="#A02128"/><line x1="588.5" y1="291.8120024006726" x2="588.5" y2="323.9417180739514" stroke="#A02128" stroke-width="1"/><rect x="581.6" y="302.5591908350331" width="13.799999999999999" height="3.915881772151806" fill="#A02128"/><line x1="611.5" y1="280.8833050088409" x2="611.5" y2="399.15779102431543" stroke="#A02128" stroke-width="1"/><rect x="604.6" y="306.4750726071849" width="13.799999999999999" height="55.553773403912714" fill="#A02128"/><line x1="634.5" y1="359.6168109929462" x2="634.5" y2="421.7408845497935" stroke="#A02128" stroke-width="1"/><rect x="627.6" y="362.02884601109764" width="13.799999999999999" height="25.959409217434427" fill="#A02128"/><line x1="657.5" y1="320.66793967262066" x2="657.5" y2="393.1288201326" stroke="#006340" stroke-width="1"/><rect x="650.6" y="356.81121683751303" width="13.799999999999999" height="31.17703839101904" fill="#006340"/><line x1="680.5" y1="347.15667282045916" x2="680.5" y2="388.5226407047801" stroke="#A02128" stroke-width="1"/><rect x="673.6" y="356.81121683751303" width="13.799999999999999" height="11.163009058447926" fill="#A02128"/><line x1="703.5" y1="364.0673996768843" x2="703.5" y2="396.1148754389951" stroke="#006340" stroke-width="1"/><rect x="696.6" y="364.9229881431297" width="13.799999999999999" height="3.0512377528312413" fill="#006340"/><line x1="726.5" y1="305.0397597268408" x2="726.5" y2="397.0188818032914" stroke="#006340" stroke-width="1"/><rect x="719.6" y="320.84844035698023" width="13.799999999999999" height="44.07454778614948" fill="#006340"/><line x1="749.5" y1="237.25871953250265" x2="749.5" y2="324.64206614348655" stroke="#006340" stroke-width="1"/><rect x="742.6" y="266.4789612794899" width="13.799999999999999" height="54.369479077490325" fill="#006340"/><line x1="772.5" y1="248.11539672507615" x2="772.5" y2="333.2780931988412" stroke="#A02128" stroke-width="1"/><rect x="765.6" y="266.4789612794899" width="13.799999999999999" height="52.29375515164577" fill="#A02128"/><line x1="795.5" y1="294.67548308698395" x2="795.5" y2="338.8211433942043" stroke="#006340" stroke-width="1"/><rect x="788.6" y="310.90500528062404" width="13.799999999999999" height="7.867711150511639" fill="#006340"/><line x1="818.5" y1="290.405205891216" x2="818.5" y2="377.9754555052893" stroke="#A02128" stroke-width="1"/><rect x="811.6" y="310.90500528062404" width="13.799999999999999" height="49.974995936359846" fill="#A02128"/><line x1="841.5" y1="360.03152894479194" x2="841.5" y2="389.3473687941267" stroke="#A02128" stroke-width="1"/><rect x="834.6" y="360.8800012169839" width="13.799999999999999" height="11.034086268291048" fill="#A02128"/><line x1="864.5" y1="322.6647566860673" x2="864.5" y2="409.4462576910689" stroke="#006340" stroke-width="1"/><rect x="857.6" y="348.6440027012133" width="13.799999999999999" height="23.270084784061623" fill="#006340"/><line x1="887.5" y1="337.10047362530486" x2="887.5" y2="410.168373319407" stroke="#A02128" stroke-width="1"/><rect x="880.6" y="348.6440027012133" width="13.799999999999999" height="25.91653521514388" fill="#A02128"/><line x1="910.5" y1="338.9645784190808" x2="910.5" y2="432.58342953991917" stroke="#A02128" stroke-width="1"/><rect x="903.6" y="374.5605379163572" width="13.799999999999999" height="36.37783235260059" fill="#A02128"/><line x1="933.5" y1="401.72832741512985" x2="933.5" y2="504.27322851204866" stroke="#A02128" stroke-width="1"/><rect x="926.6" y="410.9383702689578" width="13.799999999999999" height="57.97044547183924" fill="#A02128"/><line x1="956.5" y1="434.3330997540359" x2="956.5" y2="529.254111792535" stroke="#A02128" stroke-width="1"/><rect x="949.6" y="468.908815740797" width="13.799999999999999" height="57.56291931417394" fill="#A02128"/><line x1="979.5" y1="508.2105156859666" x2="979.5" y2="532.8765052762095" stroke="#006340" stroke-width="1"/><rect x="972.6" y="512.4740600954393" width="13.799999999999999" height="13.99767495953165" fill="#006340"/><line x1="1002.5" y1="457.541155192897" x2="1002.5" y2="548.154797068581" stroke="#006340" stroke-width="1"/><rect x="995.6" y="481.16171255792665" width="13.799999999999999" height="31.312347537512665" fill="#006340"/><line x1="1025.5" y1="463.4401962392473" x2="1025.5" y2="498.6290073812462" stroke="#006340" stroke-width="1"/><rect x="1018.6" y="467.3678446310113" width="13.799999999999999" height="13.793867926915368" fill="#006340"/><line x1="1048.5" y1="443.6566166314159" x2="1048.5" y2="515.2697310643383" stroke="#A02128" stroke-width="1"/><rect x="1041.6" y="467.3678446310113" width="13.799999999999999" height="31.201216328987414" fill="#A02128"/><line x1="1071.5" y1="481.04427040937054" x2="1071.5" y2="509.3378240819585" stroke="#006340" stroke-width="1"/><rect x="1064.6" y="484.3331334464923" width="13.799999999999999" height="14.235927513506397" fill="#006340"/><line x1="1094.5" y1="449.9039716368981" x2="1094.5" y2="516.0330185446896" stroke="#A02128" stroke-width="1"/><rect x="1087.6" y="484.3331334464923" width="13.799999999999999" height="4.445554803741516" fill="#A02128"/><line x1="1117.5" y1="473.44754522085316" x2="1117.5" y2="650.0057627895281" stroke="#A02128" stroke-width="1"/><rect x="1110.6" y="488.7786882502338" width="13.799999999999999" height="145.39848268988692" fill="#A02128"/><line x1="1140.5" y1="533.4043016726292" x2="1140.5" y2="652" stroke="#006340" stroke-width="1"/><rect x="1133.6" y="557.7945013670335" width="13.799999999999999" height="76.38266957308724" fill="#006340"/>
</svg>