<svg xmlns="http://www.w3.org/2000/svg" width="1200" height="700">
  <rect width="100%" height="100%" fill="#0d1117"/>
  <line x1="48" y1="24" x2="1152" y2="24" stroke="#21262d" stroke-width="1"/><line x1="48" y1="181" x2="1152" y2="181" stroke="#21262d" stroke-width="1"/><line x1="48" y1="338" x2="1152" y2="338" stroke="#21262d" stroke-width="1"/><line x1="48" y1="495" x2="1152" y2="495" stroke="#21262d" stroke-width="1"/><line x1="48" y1="652" x2="1152" y2="652" stroke="#21262d" stroke-width="1"/>
  <line x1="59.5" y1="94.16105116153244" x2="59.5" y2="195.33443334461714" stroke="#006340" stroke-width="1"/><rect x="52.6" y="121.11190718550802" width="13.799999999999999" height="29.10275268738934" fill="#006340"/><line x1="82.5" y1="36.75339895906836" x2="82.5" y2="167.9897192083825" stroke="#006340" stroke-width="1"/><rect x="75.6" y="63.145336978574846" width="13.799999999999999" height="57.96657020693317" fill="#006340"/><line x1="105.5" y1="24" x2="105.5" y2="92.37809759157096" stroke="#A02128" stroke-width="1"/><rect x="98.6" y="63.145336978574846" width="13.799999999999999" height="21.752166418717138" fill="#A02128"/><line x1="128.5" y1="65.686323644303" x2="128.5" y2="213.2703028416537" stroke="#A02128" stroke-width="1"/><rect x="121.6" y="84.89750339729198" width="13.799999999999999" height="90.25124279669666" fill="#A02128"/><line x1="151.5" y1="120.67269490123476" x2="151.5" y2="238.35060136437812" stroke="#A02128" stroke-width="1"/><rect x="144.6" y="175.14874619398864" width="13.799999999999999" height="43.34868496602809" fill="#A02128"/><line x1="174.5" y1="171.32436836143995" x2="174.5" y2="304.51571795277636" stroke="#A02128" stroke-width="1"/><rect x="167.6" y="218.49743116001673" width="13.799999999999999" height="85.39860788460419" fill="#A02128"/><line x1="197.5" y1="289.0247861549891" x2="197.5" y2="434.91845009630083" stroke="#A02128" stroke-width="1"/><rect x="190.6" y="303.8960390446209" width="13.799999999999999" height="87.21477851500305" fill="#A02128"/><line x1="220.5" y1="264.8457497799001" x2="220.5" y2="437.9014721915555" stroke="#006340" stroke-width="1"/><rect x="213.6" y="319.10953288211533" width="13.799999999999999" height="72.00128467750864" fill="#006340"/><line x1="243.5" y1="203.16400377024803" x2="243.5" y2="345.1390500692405" stroke="#006340" stroke-width="1"/><rect x="236.6" y="261.6998591083289" width="13.799999999999999" height="57.40967377378644" fill="#006340"/><line x1="266.5" y1="242.25582320189125" x2="266.5" y2="317.9283035109961" stroke="#A02128" stroke-width="1"/><rect x="259.6" y="261.6998591083289" width="13.799999999999999" height="23.36117522561301" fill="#A02128"/><line x1="289.5" y1="270.38408005188865" x2="289.5" y2="327.5087441929042" stroke="#A02128" stroke-width="1"/><rect x="282.6" y="285.0610343339419" width="13.799999999999999" height="27.832063720149108" fill="#A02128"/><line x1="312.5" y1="254.67405386431756" x2="312.5" y2="407.9673709775359" stroke="#A02128" stroke-width="1"/><rect x="305.6" y="312.893098054091" width="13.799999999999999" height="69.72259389001783" fill="#A02128"/><line x1="335.5" y1="346.9113571509879" x2="335.5" y2="448.2656811066783" stroke="#A02128" stroke-width="1"/><rect x="328.6" y="382.61569194410885" width="13.799999999999999" height="25.869212763626876" fill="#A02128"/><line x1="358.5" y1="331.2591948044795" x2="358.5" y2="438.64660544318986" stroke="#006340" stroke-width="1"/><rect x="351.6" y="387.98981622223243" width="13.799999999999999" height="20.495088485503288" fill="#006340"/><line x1="381.5" y1="249.26965004561805" x2="381.5" y2="422.4288924100043" stroke="#006340" stroke-width="1"/><rect x="374.6" y="309.26864223731627" width="13.799999999999999" height="78.72117398491616" fill="#006340"/><line x1="404.5" y1="227.24287655128938" x2="404.5" y2="364.78989339193913" stroke="#006340" stroke-width="1"/><rect x="397.6" y="253.4549060616696" width="13.799999999999999" height="55.81373617564668" fill="#006340"/><line x1="427.5" y1="193.18814222391615" x2="427.5" y2="351.63576052852494" stroke="#A02128" stroke-width="1"/><rect x="420.6" y="253.4549060616696" width="13.799999999999999" height="90.29305076218304" fill="#A02128"/><line x1="450.5" y1="291.99851601154967" x2="450.5" y2="438.0513867531467" stroke="#A02128" stroke-width="1"/><rect x="443.6" y="343.74795682385263" width="13.799999999999999" height="70.40954622369213" fill="#A02128"/><line x1="473.5" y1="315.78639497175243" x2="473.5" y2="450.90034169815056" stroke="#006340" stroke-width="1"/><rect x="466.6" y="374.6942602318478" width="13.799999999999999" height="39.46324281569696" fill="#006340"/><line x1="496.5" y1="323.91405411240163" x2="496.5" y2="493.7806680177057" stroke="#A02128" stroke-width="1"/><rect x="489.6" y="374.6942602318478" width="13.799999999999999" height="81.56658065032155" fill="#A02128"/><line x1="519.5" y1="347.99567934942195" x2="519.5" y2="498.35513536462224" stroke="#006340" stroke-width="1"/><rect x="512.6" y="397.74183047731697" width="13.799999999999999" height="58.519010404852395" fill="#006340"/><line x1="542.5" y1="335.02410608551963" x2="542.5" y2="404.2356492607567" stroke="#006340" stroke-width="1"/><rect x="535.6" y="337.43107364862783" width="13.799999999999999" height="60.31075682868914" fill="#006340"/><line x1="565.5" y1="309.764544583313" x2="565.5" y2="393.36974960888807" stroke="#006340" stroke-width="1"/><rect x="558.6" y="328.7663171702121" width="13.799999999999999" height="8.664756478415711" fill="#006340"/><line x1="588.5" y1="272.29292617910704" x2="588.5" y2="429.82409947996484" stroke="#A02128" stroke-width="1"/><rect x="581.6" y="328.7663171702121" width="13.799999999999999" height="70.81268247262187" fill="#A02128"/><line x1="611.5" y1="346.04645345872586" x2="611.5" y2="511.573741072929" stroke="#A02128" stroke-width="1"/><rect x="604.6" y="399.578999642834" width="13.799999999999999" height="55.297607615869936" fill="#A02128"/><line x1="634.5" y1="354.2740802706097" x2="634.5" y2="466.2081284511686" stroke="#006340" stroke-width="1"/><rect x="627.6" y="380.64812146617373" width="13.799999999999999" height="74.2284857925302" fill="#006340"/><line x1="657.5" y1="313.3397495162748" x2="657.5" y2="394.0056454868447" stroke="#006340" stroke-width="1"/><rect x="650.6" y="327.9213528253363" width="13.799999999999999" height="52.726768640837406" fill="#006340"/><line x1="680.5" y1="233.9557356117158" x2="680.5" y2="357.9003472386972" stroke="#006340" stroke-width="1"/><rect x="673.6" y="240.17359941831904" width="13.799999999999999" height="87.74775340701729" fill="#006340"/><line x1="703.5" y1="143.6761092701413" x2="703.5" y2="274.2483849105415" stroke="#006340" stroke-width="1"/><rect x="696.6" y="202.40292722458264" width="13.799999999999999" height="37.7706721937364" fill="#006340"/><line x1="726.5" y1="110.62856830469684" x2="726.5" y2="243.81363423791225" stroke="#006340" stroke-width="1"/><rect x="719.6" y="170.47333567704516" width="13.799999999999999" height="31.929591547537484" fill="#006340"/><line x1="749.5" y1="136.78101362230564" x2="749.5" y2="290.5531219452778" stroke="#A02128" stroke-width="1"/><rect x="742.6" y="170.47333567704516" width="13.799999999999999" height="65.41939303318486" fill="#A02128"/><line x1="772.5" y1="185.3510758264136" x2="772.5" y2="273.9352384728072" stroke="#006340" stroke-width="1"/><rect x="765.6" y="204.5046592708528" width="13.799999999999999" height="31.388069439377205" fill="#006340"/><line x1="795.5" y1="130.26206280107795" x2="795.5" y2="225.338934585174" stroke="#006340" stroke-width="1"/><rect x="788.6" y="191.13628750700366" width="13.799999999999999" height="13.368371763849154" fill="#006340"/><line x1="818.5" y1="178.02930348409012" x2="818.5" y2="292.6784898156761" stroke="#A02128" stroke-width="1"/><rect x="811.6" y="191.13628750700366" width="13.799999999999999" height="48.44943377969008" fill="#A02128"/><line x1="841.5" y1="186.16184176970393" x2="841.5" y2="365.9226268840674" stroke="#A02128" stroke-width="1"/><rect x="834.6" y="239.58572128669374" width="13.799999999999999" height="80.1480107068067" fill="#A02128"/><line x1="864.5" y1="205.6085637815276" x2="864.5" y2="367.99907232481627" stroke="#006340" stroke-width="1"/><rect x="857.6" y="254.21876807917852" width="13.799999999999999" height="65.51496391432192" fill="#006340"/><line x1="887.5" y1="201.1056668487539" x2="887.5" y2="301.8715047872935" stroke="#006340" stroke-width="1"/><rect x="880.6" y="231.94178596777112" width="13.799999999999999" height="22.276982111407392" fill="#006340"/><line x1="910.5" y1="174.89979753654995" x2="910.5" y2="267.68328930661545" stroke="#A02128" stroke-width="1"/><rect x="903.6" y="231.94178596777112" width="13.799999999999999" height="19.51485890249222" fill="#A02128"/><line x1="933.5" y1="229.20086786766757" x2="933.5" y2="276.20102228912646" stroke="#A02128" stroke-width="1"/><rect x="926.6" y="251.45664487026335" width="13.799999999999999" height="13.611672559792623" fill="#A02128"/><line x1="956.5" y1="211.45038364689208" x2="956.5" y2="312.0900619765475" stroke="#006340" stroke-width="1"/><rect x="949.6" y="232.43181825244915" width="13.799999999999999" height="32.63649917760682" fill="#006340"/><line x1="979.5" y1="197.1332961041487" x2="979.5" y2="378.72602240333975" stroke="#A02128" stroke-width="1"/><rect x="972.6" y="232.43181825244915" width="13.799999999999999" height="88.56203120476687" fill="#A02128"/><line x1="1002.5" y1="293.2631557444859" x2="1002.5" y2="334.88201612757024" stroke="#006340" stroke-width="1"/><rect x="995.6" y="295.31281478356345" width="13.799999999999999" height="25.68103467365256" fill="#006340"/><line x1="1025.5" y1="275.45394011885907" x2="1025.5" y2="341.03565408627577" stroke="#A02128" stroke-width="1"/><rect x="1018.6" y="295.31281478356345" width="13.799999999999999" height="22.049690284278313" fill="#A02128"/><line x1="1048.5" y1="266.7209506780905" x2="1048.5" y2="412.14890597130614" stroke="#A02128" stroke-width="1"/><rect x="1041.6" y="317.36250506784177" width="13.799999999999999" height="67.18049487110522" fill="#A02128"/><line x1="1071.5" y1="316.79204595728766" x2="1071.5" y2="388.62658387408294" stroke="#006340" stroke-width="1"/><rect x="1064.6" y="335.0299629727693" width="13.799999999999999" height="49.51303696617771" fill="#006340"/><line x1="1094.5" y1="300.5817337305181" x2="1094.5" y2="392.99286579963047" stroke="#A02128" stroke-width="1"/><rect x="1087.6" y="335.0299629727693" width="13.799999999999999" height="41.259395658980054" fill="#A02128"/><line x1="1117.5" y1="342.69583814738616" x2="1117.5" y2="614.5421550979233" stroke="#A02128" stroke-width="1"/><rect x="1110.6" y="376.28935863174934" width="13.799999999999999" height="229.43642326293752" fill="#A02128"/><line x1="1140.5" y1="438.08478920733404" x2="1140.5" y2="652" stroke="#006340" stroke-width="1"/><rect x="1133.6" y="485.195180873891" width="13.799999999999999" height="120.53060102079587" fill="#006340"/>
</svg>