<svg xmlns="http://www.w3.org/2000/svg" width="1200" height="700">
  <rect width="100%" height="100%" fill="#0d1117"/>
  <line x1="48" y1="24" x2="1152" y2="24" stroke="#21262d" stroke-width="1"/><line x1="48" y1="181" x2="1152" y2="181" stroke="#21262d" stroke-width="1"/><line x1="48" y1="338" x2="1152" y2="338" stroke="#21262d" stroke-width="1"/><line x1="48" y1="495" x2="1152" y2="495" stroke="#21262d" stroke-width="1"/><line x1="48" y1="652" x2="1152" y2="652" stroke="#21262d" stroke-width="1"/>
  <line x1="59.5" y1="105.07583663341825" x2="59.5" y2="186.81633584280547" stroke="#006340" stroke-width="1"/><rect x="52.6" y="143.00034577042175" width="13.799999999999999" height="39.28386145801977" fill="#006340"/><line x1="82.5" y1="59.402067382514815" x2="82.5" y2="146.36096368846808" stroke="#006340" stroke-width="1"/><rect x="75.6" y="62.08109690961703" width="13.799999999999999" height="80.91924886080471" fill="#006340"/><line x1="105.5" y1="33.01265713861608" x2="105.5" y2="166.83300801855398" stroke="#A02128" stroke-width="1"/><rect x="98.6" y="62.08109690961703" width="13.799999999999999" height="64.29513787155929" fill="#A02128"/><line x1="128.5" y1="26.814737385182752" x2="128.5" y2="191.65832509348064" stroke="#006340" stroke-width="1"/><rect x="121.6" y="79.22356508010353" width="13.799999999999999" height="47.152669701072796" fill="#006340"/><line x1="151.5" y1="24" x2="151.5" y2="227.97320999560088" stroke="#A02128" stroke-width="1"/><rect x="144.6" y="79.22356508010353" width="13.799999999999999" height="84.05830809122631" fill="#A02128"/><line x1="174.5" y1="110.35176768865608" x2="174.5" y2="200.22148728166485" stroke="#A02128" stroke-width="1"/><rect x="167.6" y="163.28187317132983" width="13.799999999999999" height="34.81027038328665" fill="#A02128"/><line x1="197.5" y1="172.63319773131298" x2="197.5" y2="247.67208679882464" stroke="#A02128" stroke-width="1"/><rect x="190.6" y="198.09214355461648" width="13.799999999999999" height="46.44187861108162" fill="#A02128"/><line x1="220.5" y1="199.9596336365264" x2="220.5" y2="303.791097494365" stroke="#A02128" stroke-width="1"/><rect x="213.6" y="244.5340221656981" width="13.799999999999999" height="25.03339553995528" fill="#A02128"/><line x1="243.5" y1="228.07328794040552" x2="243.5" y2="356.04591853889934" stroke="#A02128" stroke-width="1"/><rect x="236.6" y="269.5674177056534" width="13.799999999999999" height="49.27207952432923" fill="#A02128"/><line x1="266.5" y1="302.76895724464407" x2="266.5" y2="442.95428145459823" stroke="#A02128" stroke-width="1"/><rect x="259.6" y="318.8394972299826" width="13.799999999999999" height="97.73103568814645" fill="#A02128"/><line x1="289.5" y1="358.0616792029911" x2="289.5" y2="483.40997137729664" stroke="#A02128" stroke-width="1"/><rect x="282.6" y="416.57053291812906" width="13.799999999999999" height="17.716613509265358" fill="#A02128"/><line x1="312.5" y1="356.52796199354384" x2="312.5" y2="461.1499967983409" stroke="#006340" stroke-width="1"/><rect x="305.6" y="375.6957097207209" width="13.799999999999999" height="58.591436706673505" fill="#006340"/><line x1="335.5" y1="319.61254898118824" x2="335.5" y2="435.64530631710136" stroke="#A02128" stroke-width="1"/><rect x="328.6" y="375.6957097207209" width="13.799999999999999" height="36.189943838285615" fill="#A02128"/><line x1="358.5" y1="393.8670094350525" x2="358.5" y2="469.827144932068" stroke="#A02128" stroke-width="1"/><rect x="351.6" y="411.8856535590065" width="13.799999999999999" height="6.743327135021332" fill="#A02128"/><line x1="381.5" y1="374.5048089783056" x2="381.5" y2="443.90969625485485" stroke="#A02128" stroke-width="1"/><rect x="374.6" y="418.62898069402786" width="13.799999999999999" height="8.920308256873454" fill="#A02128"/><line x1="404.5" y1="405.6448051212784" x2="404.5" y2="491.8009722200752" stroke="#A02128" stroke-width="1"/><rect x="397.6" y="427.5492889509013" width="13.799999999999999" height="4.98315844420506" fill="#A02128"/><line x1="427.5" y1="349.2201467342062" x2="427.5" y2="440.10732311159984" stroke="#006340" stroke-width="1"/><rect x="420.6" y="402.380684516736" width="13.799999999999999" height="30.15176287837039" fill="#006340"/><line x1="450.5" y1="324.0660097252848" x2="450.5" y2="406.77250005446155" stroke="#006340" stroke-width="1"/><rect x="443.6" y="369.8947375743921" width="13.799999999999999" height="32.4859469423439" fill="#006340"/><line x1="473.5" y1="321.43857720979224" x2="473.5" y2="397.4153789460765" stroke="#006340" stroke-width="1"/><rect x="466.6" y="352.5577723877948" width="13.799999999999999" height="17.336965186597297" fill="#006340"/><line x1="496.5" y1="319.7305307622722" x2="496.5" y2="456.6440469647027" stroke="#A02128" stroke-width="1"/><rect x="489.6" y="352.5577723877948" width="13.799999999999999" height="79.76672426709251" fill="#A02128"/><line x1="519.5" y1="383.86203269412226" x2="519.5" y2="525.410656788203" stroke="#A02128" stroke-width="1"/><rect x="512.6" y="432.3244966548873" width="13.799999999999999" height="32.451357797441915" fill="#A02128"/><line x1="542.5" y1="372.5495680875934" x2="542.5" y2="470.8942132280091" stroke="#006340" stroke-width="1"/><rect x="535.6" y="391.7634487900343" width="13.799999999999999" height="73.0124056622949" fill="#006340"/><line x1="565.5" y1="362.2739367847155" x2="565.5" y2="425.97397956711717" stroke="#006340" stroke-width="1"/><rect x="558.6" y="382.08839013512903" width="13.799999999999999" height="9.675058654905285" fill="#006340"/><line x1="588.5" y1="333.1025134142287" x2="588.5" y2="413.49180777439835" stroke="#A02128" stroke-width="1"/><rect x="581.6" y="382.08839013512903" width="13.799999999999999" height="6.344579583920677" fill="#A02128"/><line x1="611.5" y1="303.51477826323304" x2="611.5" y2="407.9170325899071" stroke="#006340" stroke-width="1"/><rect x="604.6" y="338.27516582082166" width="13.799999999999999" height="50.15780389822805" fill="#006340"/><line x1="634.5" y1="273.39410739888893" x2="634.5" y2="383.0442202087866" stroke="#A02128" stroke-width="1"/><rect x="627.6" y="338.27516582082166" width="13.799999999999999" height="36.795481271026006" fill="#A02128"/><line x1="657.5" y1="332.19906393815336" x2="657.5" y2="469.2314270821139" stroke="#A02128" stroke-width="1"/><rect x="650.6" y="375.07064709184766" width="13.799999999999999" height="80.85469376777826" fill="#A02128"/><line x1="680.5" y1="446.7031104202883" x2="680.5" y2="560.7539591876149" stroke="#A02128" stroke-width="1"/><rect x="673.6" y="455.9253408596259" width="13.799999999999999" height="71.1801829545555" fill="#A02128"/><line x1="703.5" y1="495.0024717728031" x2="703.5" y2="571.2217273622043" stroke="#A02128" stroke-width="1"/><rect x="696.6" y="527.1055238141814" width="13.799999999999999" height="23.511425956482526" fill="#A02128"/><line x1="726.5" y1="496.3044124785983" x2="726.5" y2="570.8368641662921" stroke="#006340" stroke-width="1"/><rect x="719.6" y="505.692385499888" width="13.799999999999999" height="44.92456427077593" fill="#006340"/><line x1="749.5" y1="406.7163238412692" x2="749.5" y2="546.8742117671306" stroke="#006340" stroke-width="1"/><rect x="742.6" y="422.0817626630205" width="13.799999999999999" height="83.61062283686749" fill="#006340"/><line x1="772.5" y1="402.1533310387008" x2="772.5" y2="511.35339818918476" stroke="#A02128" stroke-width="1"/><rect x="765.6" y="422.0817626630205" width="13.799999999999999" height="31.505056792448613" fill="#A02128"/><line x1="795.5" y1="407.7610616882111" x2="795.5" y2="544.7285120767528" stroke="#A02128" stroke-width="1"/><rect x="788.6" y="453.58681945546914" width="13.799999999999999" height="80.8922155160617" fill="#A02128"/><line x1="818.5" y1="417.4455838477079" x2="818.5" y2="592.6322816727551" stroke="#006340" stroke-width="1"/><rect x="811.6" y="476.43139717164047" width="13.799999999999999" height="58.04763779989037" fill="#006340"/><line x1="841.5" y1="426.3226274234281" x2="841.5" y2="587.4638772438251" stroke="#A02128" stroke-width="1"/><rect x="834.6" y="476.43139717164047" width="13.799999999999999" height="52.27299537362262" fill="#A02128"/><line x1="864.5" y1="513.0993939770589" x2="864.5" y2="588.455887329395" stroke="#A02128" stroke-width="1"/><rect x="857.6" y="528.7043925452631" width="13.799999999999999" height="44.096196412823815" fill="#A02128"/><line x1="887.5" y1="529.330690512522" x2="887.5" y2="636.7895488832811" stroke="#006340" stroke-width="1"/><rect x="880.6" y="541.309280317108" width="13.799999999999999" height="31.4913086409789" fill="#006340"/><line x1="910.5" y1="467.8269775109384" x2="910.5" y2="549.1202882924781" stroke="#006340" stroke-width="1"/><rect x="903.6" y="494.9812479510558" width="13.799999999999999" height="46.328032366052184" fill="#006340"/><line x1="933.5" y1="363.5248129186547" x2="933.5" y2="509.1601407792343" stroke="#006340" stroke-width="1"/><rect x="926.6" y="416.58168307207836" width="13.799999999999999" height="78.39956487897746" fill="#006340"/><line x1="956.5" y1="296.4106862128953" x2="956.5" y2="419.56652643151506" stroke="#006340" stroke-width="1"/><rect x="949.6" y="341.53177802952285" width="13.799999999999999" height="75.04990504255551" fill="#006340"/><line x1="979.5" y1="306.2711090268668" x2="979.5" y2="371.2193155262533" stroke="#006340" stroke-width="1"/><rect x="972.6" y="337.749960439548" width="13.799999999999999" height="3.781817589974878" fill="#006340"/><line x1="1002.5" y1="291.45986391539884" x2="1002.5" y2="346.95962287415585" stroke="#006340" stroke-width="1"/><rect x="995.6" y="328.4433285664657" width="13.799999999999999" height="9.306631873082267" fill="#006340"/><line x1="1025.5" y1="278.25507696471806" x2="1025.5" y2="385.15378414785187" stroke="#006340" stroke-width="1"/><rect x="1018.6" y="290.54187009156203" width="13.799999999999999" height="37.90145847490368" fill="#006340"/><line x1="1048.5" y1="266.74101862340575" x2="1048.5" y2="367.12748303263567" stroke="#A02128" stroke-width="1"/><rect x="1041.6" y="290.54187009156203" width="13.799999999999999" height="42.25969989157926" fill="#A02128"/><line x1="1071.5" y1="275.0304853966952" x2="1071.5" y2="376.96434921229957" stroke="#006340" stroke-width="1"/><rect x="1064.6" y="312.89643278312803" width="13.799999999999999" height="19.905137200013257" fill="#006340"/><line x1="1094.5" y1="282.41000122393854" x2="1094.5" y2="387.0450116241924" stroke="#A02128" stroke-width="1"/><rect x="1087.6" y="312.89643278312803" width="13.799999999999999" height="34.94652497697285" fill="#A02128"/><line x1="1117.5" y1="322.89088978909695" x2="1117.5" y2="652" stroke="#A02128" stroke-width="1"/><rect x="1110.6" y="347.8429577601009" width="13.799999999999999" height="245.41169517379245" fill="#A02128"/><line x1="1140.5" y1="449.7336249564047" x2="1140.5" y2="598.01658637253" stroke="#006340" stroke-width="1"/><rect x="1133.6" y="464.33170906926006" width="13.799999999999999" height="128.92294386463328" fill="#006340"/>
</svg>