<svg xmlns="http://www.w3.org/2000/svg" width="1200" height="700">
  <rect width="100%" height="100%" fill="#0d1117"/>
  <line x1="48" y1="24" x2="1152" y2="24" stroke="#21262d" stroke-width="1"/><line x1="48" y1="181" x2="1152" y2="181" stroke="#21262d" stroke-width="1"/><line x1="48" y1="338" x2="1152" y2="338" stroke="#21262d" stroke-width="1"/><line x1="48" y1="495" x2="1152" y2="495" stroke="#21262d" stroke-width="1"/><line x1="48" y1="652" x2="1152" y2="652" stroke="#21262d" stroke-width="1"/>
  <line x1="59.5" y1="394.92447421373953" x2="59.5" y2="497.84154229131127" stroke="#006340" stroke-width="1"/><rect x="52.6" y="418.4079573064372" width="13.799999999999999" height="48.35521027398556" fill="#006340"/><line x1="82.5" y1="410.7952850249428" x2="82.5" y2="505.0613845081249" stroke="#A02128" stroke-width="1"/><rect x="75.6" y="418.4079573064372" width="13.799999999999999" height="37.61848210745234" fill="#A02128"/><line x1="105.5" y1="406.809969110323" x2="105.5" y2="532.1344878698384" stroke="#A02128" stroke-width="1"/><rect x="98.6" y="456.02643941388953" width="13.799999999999999" height="63.921817211177085" fill="#A02128"/><line x1="128.5" y1="483.12731947362624" x2="128.5" y2="569.8430694502628" stroke="#A02128" stroke-width="1"/><rect x="121.6" y="519.9482566250666" width="13.799999999999999" height="41.868775702711105" fill="#A02128"/><line x1="151.5" y1="520.6536415834723" x2="151.5" y2="652" stroke="#A02128" stroke-width="1"/><rect x="144.6" y="561.8170323277777" width="13.799999999999999" height="41.97072457451998" fill="#A02128"/><line x1="174.5" y1="513.7701108606486" x2="174.5" y2="624.0919676498813" stroke="#006340" stroke-width="1"/><rect x="167.6" y="546.7045536413929" width="13.799999999999999" height="57.08320326090484" fill="#006340"/><line x1="197.5" y1="487.49512354562387" x2="197.5" y2="568.2477797729118" stroke="#006340" stroke-width="1"/><rect x="190.6" y="497.2203832074632" width="13.799999999999999" height="49.48417043392965" fill="#006340"/><line x1="220.5" y1="418.0955070740954" x2="220.5" y2="513.366446392277" stroke="#006340" stroke-width="1"/><rect x="213.6" y="441.2891411601519" width="13.799999999999999" height="55.93124204731129" fill="#006340"/><line x1="243.5" y1="394.8556150817118" x2="243.5" y2="476.76314553248017" stroke="#006340" stroke-width="1"/><rect x="236.6" y="436.89357126096536" width="13.799999999999999" height="4.395569899186569" fill="#006340"/><line x1="266.5" y1="397.3757339326693" x2="266.5" y2="450.79633845085596" stroke="#006340" stroke-width="1"/><rect x="259.6" y="419.9639792796187" width="13.799999999999999" height="16.929591981346675" fill="#006340"/><line x1="289.5" y1="376.8314303447003" x2="289.5" y2="443.2306289347339" stroke="#A02128" stroke-width="1"/><rect x="282.6" y="419.9639792796187" width="13.799999999999999" height="17.043136319425344" fill="#A02128"/><line x1="312.5" y1="394.3898759265509" x2="312.5" y2="518.3329363991667" stroke="#A02128" stroke-width="1"/><rect x="305.6" y="437.007115599044" width="13.799999999999999" height="39.25858385663798" fill="#A02128"/><line x1="335.5" y1="412.5469808274057" x2="335.5" y2="506.8670950040471" stroke="#006340" stroke-width="1"/><rect x="328.6" y="430.9882074328476" width="13.799999999999999" height="45.277492022834394" fill="#006340"/><line x1="358.5" y1="402.14147823763193" x2="358.5" y2="466.26718007823047" stroke="#A02128" stroke-width="1"/><rect x="351.6" y="430.9882074328476" width="13.799999999999999" height="21.931717313093714" fill="#A02128"/><line x1="381.5" y1="402.8945954825218" x2="381.5" y2="495.4420695227242" stroke="#006340" stroke-width="1"/><rect x="374.6" y="405.41249284728013" width="13.799999999999999" height="47.507431898661196" fill="#006340"/><line x1="404.5" y1="364.49027953128785" x2="404.5" y2="461.4876107089492" stroke="#A02128" stroke-width="1"/><rect x="397.6" y="405.41249284728013" width="13.799999999999999" height="8.877942679969863" fill="#A02128"/><line x1="427.5" y1="373.9876522812797" x2="427.5" y2="419.7647575604968" stroke="#006340" stroke-width="1"/><rect x="420.6" y="393.0355625745049" width="13.799999999999999" height="21.254872952745075" fill="#006340"/><line x1="450.5" y1="370.7767334639478" x2="450.5" y2="460.8490086962542" stroke="#A02128" stroke-width="1"/><rect x="443.6" y="393.0355625745049" width="13.799999999999999" height="53.479650140895274" fill="#A02128"/><line x1="473.5" y1="373.4186442619689" x2="473.5" y2="496.1316127503758" stroke="#006340" stroke-width="1"/><rect x="466.6" y="374.9067575105941" width="13.799999999999999" height="71.60845520480609" fill="#006340"/><line x1="496.5" y1="352.4222138439019" x2="496.5" y2="439.0283700906625" stroke="#A02128" stroke-width="1"/><rect x="489.6" y="374.9067575105941" width="13.799999999999999" height="40.05071234480391" fill="#A02128"/><line x1="519.5" y1="308.87474008394236" x2="519.5" y2="441.0155656412871" stroke="#006340" stroke-width="1"/><rect x="512.6" y="358.60099929861684" width="13.799999999999999" height="56.356470556781176" fill="#006340"/><line x1="542.5" y1="309.29133041366947" x2="542.5" y2="413.3728693574709" stroke="#A02128" stroke-width="1"/><rect x="535.6" y="358.60099929861684" width="13.799999999999999" height="31.256224184757002" fill="#A02128"/><line x1="565.5" y1="351.13082528951213" x2="565.5" y2="423.07663792026057" stroke="#006340" stroke-width="1"/><rect x="558.6" y="359.9228710928098" width="13.799999999999999" height="29.934352390564015" fill="#006340"/><line x1="588.5" y1="336.31796531636564" x2="588.5" y2="398.44428589039" stroke="#A02128" stroke-width="1"/><rect x="581.6" y="359.9228710928098" width="13.799999999999999" height="36.2513955390437" fill="#A02128"/><line x1="611.5" y1="286.5143792028475" x2="611.5" y2="422.01063434314494" stroke="#006340" stroke-width="1"/><rect x="604.6" y="327.06791020941034" width="13.799999999999999" height="69.10635642244318" fill="#006340"/><line x1="634.5" y1="240.06918293492527" x2="634.5" y2="366.1558726752278" stroke="#006340" stroke-width="1"/><rect x="627.6" y="254.14977409093092" width="13.799999999999999" height="72.91813611847942" fill="#006340"/><line x1="657.5" y1="172.8265886153838" x2="657.5" y2="266.9661833088964" stroke="#006340" stroke-width="1"/><rect x="650.6" y="189.82705042125872" width="13.799999999999999" height="64.3227236696722" fill="#006340"/><line x1="680.5" y1="169.5037485756185" x2="680.5" y2="244.00361156651456" stroke="#A02128" stroke-width="1"/><rect x="673.6" y="189.82705042125872" width="13.799999999999999" height="32.01547105002527" fill="#A02128"/><line x1="703.5" y1="186.69258527889951" x2="703.5" y2="246.90360864450344" stroke="#006340" stroke-width="1"/><rect x="696.6" y="213.128783910165" width="13.799999999999999" height="8.71373756111899" fill="#006340"/><line x1="726.5" y1="146.60094110932584" x2="726.5" y2="243.75081570319833" stroke="#006340" stroke-width="1"/><rect x="719.6" y="175.06641631528123" width="13.799999999999999" height="38.06236759488377" fill="#006340"/><line x1="749.5" y1="94.57844212585576" x2="749.5" y2="221.48679641939697" stroke="#006340" stroke-width="1"/><rect x="742.6" y="139.9400838260052" width="13.799999999999999" height="35.126332489276024" fill="#006340"/><line x1="772.5" y1="50.59653678012069" x2="772.5" y2="159.53486660560378" stroke="#006340" stroke-width="1"/><rect x="765.6" y="68.29883111052936" width="13.799999999999999" height="71.64125271547584" fill="#006340"/><line x1="795.5" y1="24" x2="795.5" y2="168.03690843082842" stroke="#A02128" stroke-width="1"/><rect x="788.6" y="68.29883111052936" width="13.799999999999999" height="70.25571473066816" fill="#A02128"/><line x1="818.5" y1="119.28809080334167" x2="818.5" y2="195.57431478517373" stroke="#A02128" stroke-width="1"/><rect x="811.6" y="138.55454584119752" width="13.799999999999999" height="25.243028611099703" fill="#A02128"/><line x1="841.5" y1="82.65308511978208" x2="841.5" y2="172.9728845977893" stroke="#006340" stroke-width="1"/><rect x="834.6" y="117.65002859325432" width="13.799999999999999" height="46.14754585904291" fill="#006340"/><line x1="864.5" y1="94.46708897717065" x2="864.5" y2="198.0370155860752" stroke="#A02128" stroke-width="1"/><rect x="857.6" y="117.65002859325432" width="13.799999999999999" height="45.09945227386845" fill="#A02128"/><line x1="887.5" y1="126.35771474307671" x2="887.5" y2="208.635174065341" stroke="#A02128" stroke-width="1"/><rect x="880.6" y="162.74948086712277" width="13.799999999999999" height="33.492932461422015" fill="#A02128"/><line x1="910.5" y1="177.00655238605924" x2="910.5" y2="217.34505179166075" stroke="#006340" stroke-width="1"/><rect x="903.6" y="194.97286800775248" width="13.799999999999999" height="1.2695453207923038" fill="#006340"/><line x1="933.5" y1="154.23212632042964" x2="933.5" y2="258.77322524150094" stroke="#A02128" stroke-width="1"/><rect x="926.6" y="194.97286800775248" width="13.799999999999999" height="38.37741666916412" fill="#A02128"/><line x1="956.5" y1="197.55718563823132" x2="956.5" y2="271.6888245776398" stroke="#006340" stroke-width="1"/><rect x="949.6" y="203.57061865802137" width="13.799999999999999" height="29.779666018895227" fill="#006340"/><line x1="979.5" y1="175.14441549711722" x2="979.5" y2="258.84914631972384" stroke="#A02128" stroke-width="1"/><rect x="972.6" y="203.57061865802137" width="13.799999999999999" height="40.48181352873365" fill="#A02128"/><line x1="1002.5" y1="190.95235441280784" x2="1002.5" y2="247.218038933061" stroke="#006340" stroke-width="1"/><rect x="995.6" y="209.2479674569251" width="13.799999999999999" height="34.80446472982993" fill="#006340"/><line x1="1025.5" y1="148.05327996002802" x2="1025.5" y2="213.55210001017355" stroke="#006340" stroke-width="1"/><rect x="1018.6" y="192.3499577287634" width="13.799999999999999" height="16.898009728161696" fill="#006340"/><line x1="1048.5" y1="89.53646762492394" x2="1048.5" y2="236.89142953535787" stroke="#006340" stroke-width="1"/><rect x="1041.6" y="136.5903801208583" width="13.799999999999999" height="55.7595776079051" fill="#006340"/><line x1="1071.5" y1="87.4424952227281" x2="1071.5" y2="176.6320848846015" stroke="#006340" stroke-width="1"/><rect x="1064.6" y="110.68870043341735" width="13.799999999999999" height="25.901679687440947" fill="#006340"/><line x1="1094.5" y1="67.77484805276481" x2="1094.5" y2="141.23734186418642" stroke="#A02128" stroke-width="1"/><rect x="1087.6" y="110.68870043341735" width="13.799999999999999" height="21.187197922481232" fill="#A02128"/><line x1="1117.5" y1="87.20053205403633" x2="1117.5" y2="348.1998623043012" stroke="#A02128" stroke-width="1"/><rect x="1110.6" y="131.87589835589858" width="13.799999999999999" height="193.5000535075231" fill="#A02128"/><line x1="1140.5" y1="223.31323831736916" x2="1140.5" y2="365.52471180415097" stroke="#006340" stroke-width="1"/><rect x="1133.6" y="223.7239237541374" width="13.799999999999999" height="101.65202810928429" fill="#006340"/>
</svg>