<svg xmlns="http://www.w3.org/2000/svg" width="1200" height="700">
  <rect width="100%" height="100%" fill="#0d1117"/>
  <line x1="48" y1="24" x2="1152" y2="24" stroke="#21262d" stroke-width="1"/><line x1="48" y1="181" x2="1152" y2="181" stroke="#21262d" stroke-width="1"/><line x1="48" y1="338" x2="1152" y2="338" stroke="#21262d" stroke-width="1"/><line x1="48" y1="495" x2="1152" y2="495" stroke="#21262d" stroke-width="1"/><line x1="48" y1="652" x2="1152" y2="652" stroke="#21262d" stroke-width="1"/>
  <line x1="59.5" y1="621.9758108150834" x2="59.5" y2="652" stroke="#006340" stroke-width="1"/><rect x="52.6" y="631.0161515348483" width="13.799999999999999" height="9.239321188814415" fill="#006340"/><line x1="82.5" y1="613.3825255695249" x2="82.5" y2="641.1516527970787" stroke="#006340" stroke-width="1"/><rect x="75.6" y="623.353703397514" width="13.799999999999999" height="7.662448137334309" fill="#006340"/><line x1="105.5" y1="618.0295529760695" x2="105.5" y2="636.1538933371315" stroke="#A02128" stroke-width="1"/><rect x="98.6" y="623.353703397514" width="13.799999999999999" height="2.3439866195521972" fill="#A02128"/><line x1="128.5" y1="614.5373485681137" x2="128.5" y2="635.5504313618371" stroke="#A02128" stroke-width="1"/><rect x="121.6" y="625.6976900170662" width="13.799999999999999" height="2.4075928571490977" fill="#A02128"/><line x1="151.5" y1="611.0204711891492" x2="151.5" y2="632.4556345727387" stroke="#006340" stroke-width="1"/><rect x="144.6" y="612.8328485622962" width="13.799999999999999" height="15.272434311919028" fill="#006340"/><line x1="174.5" y1="605.0898415353894" x2="174.5" y2="633.3599546467956" stroke="#A02128" stroke-width="1"/><rect x="167.6" y="612.8328485622962" width="13.799999999999999" height="11.877623780583463" fill="#A02128"/><line x1="197.5" y1="602.5947307374447" x2="197.5" y2="633.1350516632563" stroke="#006340" stroke-width="1"/><rect x="190.6" y="608.1775999161569" width="13.799999999999999" height="16.53287242672286" fill="#006340"/><line x1="220.5" y1="606.5115482249525" x2="220.5" y2="613.9046698933821" stroke="#A02128" stroke-width="1"/><rect x="213.6" y="608.1775999161569" width="13.799999999999999" height="5.157181652506324" fill="#A02128"/><line x1="243.5" y1="605.6620948625193" x2="243.5" y2="621.8978602886808" stroke="#006340" stroke-width="1"/><rect x="236.6" y="612.4627485741813" width="13.799999999999999" height="1" fill="#006340"/><line x1="266.5" y1="596.9048644526135" x2="266.5" y2="620.430311821601" stroke="#006340" stroke-width="1"/><rect x="259.6" y="599.2578702112207" width="13.799999999999999" height="13.204878362960585" fill="#006340"/><line x1="289.5" y1="592.6547998336257" x2="289.5" y2="604.7710535848453" stroke="#006340" stroke-width="1"/><rect x="282.6" y="598.2895106636655" width="13.799999999999999" height="1" fill="#006340"/><line x1="312.5" y1="594.5941858820768" x2="312.5" y2="603.1157316693535" stroke="#A02128" stroke-width="1"/><rect x="305.6" y="598.2895106636655" width="13.799999999999999" height="3.0542720827038465" fill="#A02128"/><line x1="335.5" y1="594.9763638565586" x2="335.5" y2="613.282464349327" stroke="#A02128" stroke-width="1"/><rect x="328.6" y="601.3437827463694" width="13.799999999999999" height="5.3742202247611885" fill="#A02128"/><line x1="358.5" y1="604.364837246907" x2="358.5" y2="606.7631021090483" stroke="#006340" stroke-width="1"/><rect x="351.6" y="605.9804265573732" width="13.799999999999999" height="1" fill="#006340"/><line x1="381.5" y1="586.2152662708528" x2="381.5" y2="616.4133412247564" stroke="#006340" stroke-width="1"/><rect x="374.6" y="587.050901834777" width="13.799999999999999" height="18.92952472259617" fill="#006340"/><line x1="404.5" y1="582.7545493557016" x2="404.5" y2="596.9590595418182" stroke="#006340" stroke-width="1"/><rect x="397.6" y="583.9470551787261" width="13.799999999999999" height="3.103846656050905" fill="#006340"/><line x1="427.5" y1="581.174237709879" x2="427.5" y2="594.093197996479" stroke="#A02128" stroke-width="1"/><rect x="420.6" y="583.9470551787261" width="13.799999999999999" height="1.6677846775610305" fill="#A02128"/><line x1="450.5" y1="573.9559955925434" x2="450.5" y2="606.2852921158756" stroke="#A02128" stroke-width="1"/><rect x="443.6" y="585.6148398562872" width="13.799999999999999" height="11.655894413630108" fill="#A02128"/><line x1="473.5" y1="576.9553550099523" x2="473.5" y2="606.9430946683627" stroke="#006340" stroke-width="1"/><rect x="466.6" y="583.5808033472199" width="13.799999999999999" height="13.689930922697386" fill="#006340"/><line x1="496.5" y1="582.6381139470285" x2="496.5" y2="593.4210742460642" stroke="#A02128" stroke-width="1"/><rect x="489.6" y="583.5808033472199" width="13.799999999999999" height="8.686144800985971" fill="#A02128"/><line x1="519.5" y1="584.1759333079732" x2="519.5" y2="605.8551503584387" stroke="#A02128" stroke-width="1"/><rect x="512.6" y="592.2669481482059" width="13.799999999999999" height="5.557494332952501" fill="#A02128"/><line x1="542.5" y1="577.3714930322269" x2="542.5" y2="602.591739583524" stroke="#006340" stroke-width="1"/><rect x="535.6" y="577.6392165152413" width="13.799999999999999" height="20.185225965917084" fill="#006340"/><line x1="565.5" y1="567.5618590121442" x2="565.5" y2="588.930130150288" stroke="#A02128" stroke-width="1"/><rect x="558.6" y="577.6392165152413" width="13.799999999999999" height="4.809533158452837" fill="#A02128"/><line x1="588.5" y1="551.7609798969798" x2="588.5" y2="585.664280819768" stroke="#006340" stroke-width="1"/><rect x="581.6" y="563.3322276356652" width="13.799999999999999" height="19.11652203802896" fill="#006340"/><line x1="611.5" y1="535.7394578776606" x2="611.5" y2="571.6570866211446" stroke="#006340" stroke-width="1"/><rect x="604.6" y="547.1675995884686" width="13.799999999999999" height="16.164628047196516" fill="#006340"/><line x1="634.5" y1="528.9235530805952" x2="634.5" y2="553.2036803821801" stroke="#006340" stroke-width="1"/><rect x="627.6" y="532.7532879843952" width="13.799999999999999" height="14.414311604073418" fill="#006340"/><line x1="657.5" y1="519.4026942473315" x2="657.5" y2="539.5575676985544" stroke="#006340" stroke-width="1"/><rect x="650.6" y="527.8529991204861" width="13.799999999999999" height="4.900288863909168" fill="#006340"/><line x1="680.5" y1="495.37203064097906" x2="680.5" y2="537.2781357038543" stroke="#006340" stroke-width="1"/><rect x="673.6" y="507.55443958688636" width="13.799999999999999" height="20.2985595335997" fill="#006340"/><line x1="703.5" y1="491.2879090438048" x2="703.5" y2="518.2562416367815" stroke="#006340" stroke-width="1"/><rect x="696.6" y="499.57576013892765" width="13.799999999999999" height="7.9786794479587115" fill="#006340"/><line x1="726.5" y1="478.4503506732617" x2="726.5" y2="510.4936204047333" stroke="#006340" stroke-width="1"/><rect x="719.6" y="482.40508445431743" width="13.799999999999999" height="17.170675684610217" fill="#006340"/><line x1="749.5" y1="475.7565125070456" x2="749.5" y2="495.71872499830243" stroke="#A02128" stroke-width="1"/><rect x="742.6" y="482.40508445431743" width="13.799999999999999" height="2.882947104286245" fill="#A02128"/><line x1="772.5" y1="459.75265615392266" x2="772.5" y2="487.16859272166755" stroke="#006340" stroke-width="1"/><rect x="765.6" y="468.4195185480784" width="13.799999999999999" height="16.868513010525305" fill="#006340"/><line x1="795.5" y1="441.7973032203287" x2="795.5" y2="471.86396240877303" stroke="#006340" stroke-width="1"/><rect x="788.6" y="447.9363316634136" width="13.799999999999999" height="20.483186884664747" fill="#006340"/><line x1="818.5" y1="425.1653499164214" x2="818.5" y2="456.9539131087455" stroke="#006340" stroke-width="1"/><rect x="811.6" y="434.5186291786372" width="13.799999999999999" height="13.417702484776441" fill="#006340"/><line x1="841.5" y1="384.43010421974355" x2="841.5" y2="441.41967868647316" stroke="#006340" stroke-width="1"/><rect x="834.6" y="396.003378713183" width="13.799999999999999" height="38.51525046545419" fill="#006340"/><line x1="864.5" y1="380.3740675391841" x2="864.5" y2="407.4568469842489" stroke="#006340" stroke-width="1"/><rect x="857.6" y="386.802638067488" width="13.799999999999999" height="9.20074064569502" fill="#006340"/><line x1="887.5" y1="358.3923344861502" x2="887.5" y2="394.722350807571" stroke="#006340" stroke-width="1"/><rect x="880.6" y="364.12647878158117" width="13.799999999999999" height="22.676159285906806" fill="#006340"/><line x1="910.5" y1="336.96629616487616" x2="910.5" y2="366.2968378271833" stroke="#006340" stroke-width="1"/><rect x="903.6" y="337.53188270525" width="13.799999999999999" height="26.594596076331186" fill="#006340"/><line x1="933.5" y1="321.3402585268898" x2="933.5" y2="348.3450782220743" stroke="#006340" stroke-width="1"/><rect x="926.6" y="326.2580682404106" width="13.799999999999999" height="11.273814464839404" fill="#006340"/><line x1="956.5" y1="291.72634191313256" x2="956.5" y2="326.68794410596087" stroke="#006340" stroke-width="1"/><rect x="949.6" y="292.84803227719993" width="13.799999999999999" height="33.410035963210646" fill="#006340"/><line x1="979.5" y1="254.82883714910207" x2="979.5" y2="304.1783841527504" stroke="#006340" stroke-width="1"/><rect x="972.6" y="258.4351707435816" width="13.799999999999999" height="34.412861533618354" fill="#006340"/><line x1="1002.5" y1="203.25219399692838" x2="1002.5" y2="263.04992266625084" stroke="#006340" stroke-width="1"/><rect x="995.6" y="215.28261223139282" width="13.799999999999999" height="43.15255851218876" fill="#006340"/><line x1="1025.5" y1="179.74240508186807" x2="1025.5" y2="221.7869654057519" stroke="#006340" stroke-width="1"/><rect x="1018.6" y="183.02160831853752" width="13.799999999999999" height="32.2610039128553" fill="#006340"/><line x1="1048.5" y1="155.61027540077998" x2="1048.5" y2="190.11943191873235" stroke="#006340" stroke-width="1"/><rect x="1041.6" y="165.51270305689877" width="13.799999999999999" height="17.508905261638745" fill="#006340"/><line x1="1071.5" y1="132.71993620296348" x2="1071.5" y2="176.26021668454632" stroke="#006340" stroke-width="1"/><rect x="1064.6" y="134.23283381879514" width="13.799999999999999" height="31.27986923810363" fill="#006340"/><line x1="1094.5" y1="87.43670534593673" x2="1094.5" y2="135.04828381818947" stroke="#006340" stroke-width="1"/><rect x="1087.6" y="89.07485404077102" width="13.799999999999999" height="45.15797977802413" fill="#006340"/><line x1="1117.5" y1="64.30146396785085" x2="1117.5" y2="92.30545668531602" stroke="#006340" stroke-width="1"/><rect x="1110.6" y="67.69626989915355" width="13.799999999999999" height="21.378584141617466" fill="#006340"/><line x1="1140.5" y1="24" x2="1140.5" y2="72.52534184047101" stroke="#006340" stroke-width="1"/><rect x="1133.6" y="35.98084287187885" width="13.799999999999999" height="31.7154270272747" fill="#006340"/>
</svg>