<svg xmlns="http://www.w3.org/2000/svg" width="1200" height="700">
  <rect width="100%" height="100%" fill="#0d1117"/>
  <line x1="48" y1="24" x2="1152" y2="24" stroke="#21262d" stroke-width="1"/><line x1="48" y1="181" x2="1152" y2="181" stroke="#21262d" stroke-width="1"/><line x1="48" y1="338" x2="1152" y2="338" stroke="#21262d" stroke-width="1"/><line x1="48" y1="495" x2="1152" y2="495" stroke="#21262d" stroke-width="1"/><line x1="48" y1="652" x2="1152" y2="652" stroke="#21262d" stroke-width="1"/>
  <line x1="59.5" y1="618.7295784120217" x2="59.5" y2="652" stroke="#006340" stroke-width="1"/><rect x="52.6" y="628.5219194398229" width="13.799999999999999" height="15.68214022047664" fill="#006340"/><line x1="82.5" y1="583.9385147368616" x2="82.5" y2="643.8065833156742" stroke="#006340" stroke-width="1"/><rect x="75.6" y="599.8709606861554" width="13.799999999999999" height="28.65095875366751" fill="#006340"/><line x1="105.5" y1="593.1893260320518" x2="105.5" y2="605.5667408525084" stroke="#006340" stroke-width="1"/><rect x="98.6" y="597.5199298973712" width="13.799999999999999" height="2.3510307887842146" fill="#006340"/><line x1="128.5" y1="578.8976593987321" x2="128.5" y2="603.3544738582156" stroke="#006340" stroke-width="1"/><rect x="121.6" y="591.2902254646215" width="13.799999999999999" height="6.229704432749713" fill="#006340"/><line x1="151.5" y1="577.5718349845357" x2="151.5" y2="612.9445301665195" stroke="#A02128" stroke-width="1"/><rect x="144.6" y="591.2902254646215" width="13.799999999999999" height="11.90963659848751" fill="#A02128"/><line x1="174.5" y1="599.9872556262294" x2="174.5" y2="633.8948874956592" stroke="#A02128" stroke-width="1"/><rect x="167.6" y="603.199862063109" width="13.799999999999999" height="18.088431853880365" fill="#A02128"/><line x1="197.5" y1="600.1931093919678" x2="197.5" y2="622.7262495010718" stroke="#006340" stroke-width="1"/><rect x="190.6" y="612.1610421841168" width="13.799999999999999" height="9.127251732872537" fill="#006340"/><line x1="220.5" y1="596.0489409208556" x2="220.5" y2="635.6078005909021" stroke="#A02128" stroke-width="1"/><rect x="213.6" y="612.1610421841168" width="13.799999999999999" height="7.7256040025180255" fill="#A02128"/><line x1="243.5" y1="611.4949794229765" x2="243.5" y2="643.2639340873384" stroke="#A02128" stroke-width="1"/><rect x="236.6" y="619.8866461866348" width="13.799999999999999" height="12.754665984156077" fill="#A02128"/><line x1="266.5" y1="615.9499468060197" x2="266.5" y2="648.1149669020841" stroke="#006340" stroke-width="1"/><rect x="259.6" y="629.7333239680045" width="13.799999999999999" height="2.9079882027864414" fill="#006340"/><line x1="289.5" y1="618.904299510077" x2="289.5" y2="638.141035380837" stroke="#006340" stroke-width="1"/><rect x="282.6" y="624.923072176509" width="13.799999999999999" height="4.810251791495489" fill="#006340"/><line x1="312.5" y1="594.2798029394276" x2="312.5" y2="626.7147664330141" stroke="#006340" stroke-width="1"/><rect x="305.6" y="599.1607066017805" width="13.799999999999999" height="25.762365574728506" fill="#006340"/><line x1="335.5" y1="570.7660974438969" x2="335.5" y2="599.8611553388649" stroke="#006340" stroke-width="1"/><rect x="328.6" y="574.1979145793272" width="13.799999999999999" height="24.9627920224533" fill="#006340"/><line x1="358.5" y1="562.104984349785" x2="358.5" y2="606.5243113285617" stroke="#A02128" stroke-width="1"/><rect x="351.6" y="574.1979145793272" width="13.799999999999999" height="16.566437850896932" fill="#A02128"/><line x1="381.5" y1="583.18043326408" x2="381.5" y2="604.0976409831495" stroke="#A02128" stroke-width="1"/><rect x="374.6" y="590.7643524302241" width="13.799999999999999" height="10.76431991126708" fill="#A02128"/><line x1="404.5" y1="590.4356023785289" x2="404.5" y2="614.3209229945691" stroke="#006340" stroke-width="1"/><rect x="397.6" y="592.2386632702033" width="13.799999999999999" height="9.290009071287841" fill="#006340"/><line x1="427.5" y1="565.8352057747804" x2="427.5" y2="601.2522327689131" stroke="#006340" stroke-width="1"/><rect x="420.6" y="578.7332287240755" width="13.799999999999999" height="13.505434546127844" fill="#006340"/><line x1="450.5" y1="558.3829811566376" x2="450.5" y2="585.4893251778582" stroke="#006340" stroke-width="1"/><rect x="443.6" y="561.1084731312441" width="13.799999999999999" height="17.624755592831434" fill="#006340"/><line x1="473.5" y1="556.869968168058" x2="473.5" y2="579.4255154082891" stroke="#A02128" stroke-width="1"/><rect x="466.6" y="561.1084731312441" width="13.799999999999999" height="11.898617117023718" fill="#A02128"/><line x1="496.5" y1="559.3349430305259" x2="496.5" y2="584.1451997162594" stroke="#A02128" stroke-width="1"/><rect x="489.6" y="573.0070902482678" width="13.799999999999999" height="8.895253076328686" fill="#A02128"/><line x1="519.5" y1="566.8448074410428" x2="519.5" y2="597.2638981059696" stroke="#A02128" stroke-width="1"/><rect x="512.6" y="581.9023433245965" width="13.799999999999999" height="8.016850057168995" fill="#A02128"/><line x1="542.5" y1="583.2331099758003" x2="542.5" y2="621.175821010524" stroke="#A02128" stroke-width="1"/><rect x="535.6" y="589.9191933817655" width="13.799999999999999" height="17.960659150724496" fill="#A02128"/><line x1="565.5" y1="596.9580152499121" x2="565.5" y2="615.8744969220342" stroke="#A02128" stroke-width="1"/><rect x="558.6" y="607.87985253249" width="13.799999999999999" height="7.181849684498502" fill="#A02128"/><line x1="588.5" y1="601.5806656047" x2="588.5" y2="628.3445662277549" stroke="#006340" stroke-width="1"/><rect x="581.6" y="604.3930964747568" width="13.799999999999999" height="10.668605742231648" fill="#006340"/><line x1="611.5" y1="584.3261981567207" x2="611.5" y2="619.0096348421217" stroke="#006340" stroke-width="1"/><rect x="604.6" y="597.9932949837057" width="13.799999999999999" height="6.399801491051107" fill="#006340"/><line x1="634.5" y1="565.5555498525496" x2="634.5" y2="606.7614777185407" stroke="#006340" stroke-width="1"/><rect x="627.6" y="575.6449214684831" width="13.799999999999999" height="22.348373515222647" fill="#006340"/><line x1="657.5" y1="554.6202244014609" x2="657.5" y2="580.3812179899107" stroke="#006340" stroke-width="1"/><rect x="650.6" y="555.9621562824735" width="13.799999999999999" height="19.682765186009533" fill="#006340"/><line x1="680.5" y1="530.1699459203713" x2="680.5" y2="566.8638598137959" stroke="#006340" stroke-width="1"/><rect x="673.6" y="542.1688502718005" width="13.799999999999999" height="13.793306010673064" fill="#006340"/><line x1="703.5" y1="537.3362448342466" x2="703.5" y2="554.3720888394622" stroke="#A02128" stroke-width="1"/><rect x="696.6" y="542.1688502718005" width="13.799999999999999" height="9.002759184280649" fill="#A02128"/><line x1="726.5" y1="541.5639331166308" x2="726.5" y2="555.5046007705199" stroke="#006340" stroke-width="1"/><rect x="719.6" y="545.3120413364354" width="13.799999999999999" height="5.859568119645701" fill="#006340"/><line x1="749.5" y1="514.1722195186098" x2="749.5" y2="552.2643169460764" stroke="#006340" stroke-width="1"/><rect x="742.6" y="525.9430486419474" width="13.799999999999999" height="19.368992694488043" fill="#006340"/><line x1="772.5" y1="525.2930571041379" x2="772.5" y2="529.1939684422185" stroke="#A02128" stroke-width="1"/><rect x="765.6" y="525.9430486419474" width="13.799999999999999" height="2.2871488451553432" fill="#A02128"/><line x1="795.5" y1="505.5748063921135" x2="795.5" y2="543.8956086757155" stroke="#006340" stroke-width="1"/><rect x="788.6" y="522.2409518605167" width="13.799999999999999" height="5.989245626586012" fill="#006340"/><line x1="818.5" y1="515.2442241003728" x2="818.5" y2="536.4800560414362" stroke="#A02128" stroke-width="1"/><rect x="811.6" y="522.2409518605167" width="13.799999999999999" height="13.370059435189432" fill="#A02128"/><line x1="841.5" y1="491.42192366045356" x2="841.5" y2="541.0930210787246" stroke="#006340" stroke-width="1"/><rect x="834.6" y="500.24858800547827" width="13.799999999999999" height="35.362423290227866" fill="#006340"/><line x1="864.5" y1="462.11912545126324" x2="864.5" y2="514.663705156682" stroke="#006340" stroke-width="1"/><rect x="857.6" y="477.2459686766991" width="13.799999999999999" height="23.00261932877919" fill="#006340"/><line x1="887.5" y1="446.9265701560863" x2="887.5" y2="491.26227605656857" stroke="#006340" stroke-width="1"/><rect x="880.6" y="452.0245962005515" width="13.799999999999999" height="25.221372476147565" fill="#006340"/><line x1="910.5" y1="421.5312842392417" x2="910.5" y2="466.20126309102454" stroke="#006340" stroke-width="1"/><rect x="903.6" y="432.53585011677455" width="13.799999999999999" height="19.48874608377696" fill="#006340"/><line x1="933.5" y1="389.03307641361283" x2="933.5" y2="448.7701935687527" stroke="#006340" stroke-width="1"/><rect x="926.6" y="394.19646728756936" width="13.799999999999999" height="38.33938282920519" fill="#006340"/><line x1="956.5" y1="338.94892431716744" x2="956.5" y2="409.0104148966782" stroke="#006340" stroke-width="1"/><rect x="949.6" y="339.8108739507121" width="13.799999999999999" height="54.385593336857255" fill="#006340"/><line x1="979.5" y1="283.47598589622174" x2="979.5" y2="351.85088227837764" stroke="#006340" stroke-width="1"/><rect x="972.6" y="290.1944859479681" width="13.799999999999999" height="49.61638800274403" fill="#006340"/><line x1="1002.5" y1="253.39227039062752" x2="1002.5" y2="307.38807639250376" stroke="#006340" stroke-width="1"/><rect x="995.6" y="264.65203510414216" width="13.799999999999999" height="25.542450843825918" fill="#006340"/><line x1="1025.5" y1="237.14907609811308" x2="1025.5" y2="273.3430620110429" stroke="#006340" stroke-width="1"/><rect x="1018.6" y="249.70712128431694" width="13.799999999999999" height="14.944913819825217" fill="#006340"/><line x1="1048.5" y1="207.03408895625267" x2="1048.5" y2="252.95719066428535" stroke="#006340" stroke-width="1"/><rect x="1041.6" y="222.6912053136988" width="13.799999999999999" height="27.015915970618153" fill="#006340"/><line x1="1071.5" y1="196.73130344169766" x2="1071.5" y2="228.23088101335537" stroke="#006340" stroke-width="1"/><rect x="1064.6" y="202.67815888469778" width="13.799999999999999" height="20.013046429001008" fill="#006340"/><line x1="1094.5" y1="131.45864773180836" x2="1094.5" y2="217.62156378915506" stroke="#006340" stroke-width="1"/><rect x="1087.6" y="142.7297869397707" width="13.799999999999999" height="59.94837194492709" fill="#006340"/><line x1="1117.5" y1="87.42033618721575" x2="1117.5" y2="144.25969593181054" stroke="#006340" stroke-width="1"/><rect x="1110.6" y="97.41371161416566" width="13.799999999999999" height="45.31607532560503" fill="#006340"/><line x1="1140.5" y1="24" x2="1140.5" y2="113.1106406366979" stroke="#006340" stroke-width="1"/><rect x="1133.6" y="41.01850561014987" width="13.799999999999999" height="56.39520600401579" fill="#006340"/>
</svg>