<svg xmlns="http://www.w3.org/2000/svg" width="1200" height="700">
  <rect width="100%" height="100%" fill="#0d1117"/>
  <line x1="48" y1="24" x2="1152" y2="24" stroke="#21262d" stroke-width="1"/><line x1="48" y1="181" x2="1152" y2="181" stroke="#21262d" stroke-width="1"/><line x1="48" y1="338" x2="1152" y2="338" stroke="#21262d" stroke-width="1"/><line x1="48" y1="495" x2="1152" y2="495" stroke="#21262d" stroke-width="1"/><line x1="48" y1="652" x2="1152" y2="652" stroke="#21262d" stroke-width="1"/>
  <line x1="59.5" y1="636.1496986922108" x2="59.5" y2="652" stroke="#A02128" stroke-width="1"/><rect x="52.6" y="637.670060509007" width="13.799999999999999" height="4.514024763055545" fill="#A02128"/><line x1="82.5" y1="620.8140168999813" x2="82.5" y2="644.8555826204448" stroke="#006340" stroke-width="1"/><rect x="75.6" y="625.1460066020717" width="13.799999999999999" height="17.03807866999091" fill="#006340"/><line x1="105.5" y1="602.7794194208252" x2="105.5" y2="637.3696334220884" stroke="#006340" stroke-width="1"/><rect x="98.6" y="602.7823673788839" width="13.799999999999999" height="22.36363922318776" fill="#006340"/><line x1="128.5" y1="586.2849573555305" x2="128.5" y2="607.2683009629276" stroke="#006340" stroke-width="1"/><rect x="121.6" y="586.4981349752794" width="13.799999999999999" height="16.284232403604506" fill="#006340"/><line x1="151.5" y1="566.6766832692867" x2="151.5" y2="590.4609592924128" stroke="#006340" stroke-width="1"/><rect x="144.6" y="576.9916053566363" width="13.799999999999999" height="9.506529618643071" fill="#006340"/><line x1="174.5" y1="551.2988683147805" x2="174.5" y2="579.8742846727089" stroke="#006340" stroke-width="1"/><rect x="167.6" y="560.5070604130447" width="13.799999999999999" height="16.484544943591686" fill="#006340"/><line x1="197.5" y1="529.4326831853125" x2="197.5" y2="563.6001629098263" stroke="#006340" stroke-width="1"/><rect x="190.6" y="539.6784903368699" width="13.799999999999999" height="20.828570076174742" fill="#006340"/><line x1="220.5" y1="510.6262186905296" x2="220.5" y2="549.07253644403" stroke="#006340" stroke-width="1"/><rect x="213.6" y="523.3526652153074" width="13.799999999999999" height="16.325825121562502" fill="#006340"/><line x1="243.5" y1="494.63772895564625" x2="243.5" y2="532.0519358790409" stroke="#006340" stroke-width="1"/><rect x="236.6" y="495.09314912394643" width="13.799999999999999" height="28.25951609136098" fill="#006340"/><line x1="266.5" y1="469.23104072387514" x2="266.5" y2="505.71683969456643" stroke="#006340" stroke-width="1"/><rect x="259.6" y="472.32292617621243" width="13.799999999999999" height="22.770222947734" fill="#006340"/><line x1="289.5" y1="460.32351267704945" x2="289.5" y2="479.3386943198034" stroke="#A02128" stroke-width="1"/><rect x="282.6" y="472.32292617621243" width="13.799999999999999" height="1" fill="#A02128"/><line x1="312.5" y1="464.85029293163603" x2="312.5" y2="484.80821393631123" stroke="#A02128" stroke-width="1"/><rect x="305.6" y="472.76140232243" width="13.799999999999999" height="4.172087615116482" fill="#A02128"/><line x1="335.5" y1="470.159742975482" x2="335.5" y2="488.81979658762236" stroke="#A02128" stroke-width="1"/><rect x="328.6" y="476.9334899375465" width="13.799999999999999" height="2.2463486722220978" fill="#A02128"/><line x1="358.5" y1="465.79310725492945" x2="358.5" y2="497.3097976941974" stroke="#A02128" stroke-width="1"/><rect x="351.6" y="479.1798386097686" width="13.799999999999999" height="9.108772159581804" fill="#A02128"/><line x1="381.5" y1="472.99919108070947" x2="381.5" y2="501.70532422469023" stroke="#006340" stroke-width="1"/><rect x="374.6" y="484.5156230836334" width="13.799999999999999" height="3.7729876857169984" fill="#006340"/><line x1="404.5" y1="448.77778806078345" x2="404.5" y2="490.4713894210257" stroke="#006340" stroke-width="1"/><rect x="397.6" y="459.99473723765504" width="13.799999999999999" height="24.52088584597834" fill="#006340"/><line x1="427.5" y1="458.5548076884075" x2="427.5" y2="467.00483815274333" stroke="#A02128" stroke-width="1"/><rect x="420.6" y="459.99473723765504" width="13.799999999999999" height="2.48094829080037" fill="#A02128"/><line x1="450.5" y1="451.65652707652634" x2="450.5" y2="462.6085149852721" stroke="#006340" stroke-width="1"/><rect x="443.6" y="457.6008049880264" width="13.799999999999999" height="4.87488054042899" fill="#006340"/><line x1="473.5" y1="437.6239045577881" x2="473.5" y2="463.048177790707" stroke="#006340" stroke-width="1"/><rect x="466.6" y="448.7826092535631" width="13.799999999999999" height="8.818195734463302" fill="#006340"/><line x1="496.5" y1="416.80730774182825" x2="496.5" y2="450.0011235254251" stroke="#006340" stroke-width="1"/><rect x="489.6" y="420.75202622899315" width="13.799999999999999" height="28.030583024569978" fill="#006340"/><line x1="519.5" y1="388.4793899075476" x2="519.5" y2="432.6303114969958" stroke="#006340" stroke-width="1"/><rect x="512.6" y="389.8385197526445" width="13.799999999999999" height="30.91350647634863" fill="#006340"/><line x1="542.5" y1="382.34631361626873" x2="542.5" y2="402.94025717219256" stroke="#006340" stroke-width="1"/><rect x="535.6" y="388.23067700497865" width="13.799999999999999" height="1.6078427476658703" fill="#006340"/><line x1="565.5" y1="377.2490752492441" x2="565.5" y2="405.5742509751826" stroke="#A02128" stroke-width="1"/><rect x="558.6" y="388.23067700497865" width="13.799999999999999" height="7.328463640378857" fill="#A02128"/><line x1="588.5" y1="353.25331249820545" x2="588.5" y2="397.57231987830284" stroke="#006340" stroke-width="1"/><rect x="581.6" y="366.89301451113454" width="13.799999999999999" height="28.666126134222964" fill="#006340"/><line x1="611.5" y1="344.5347353492" x2="611.5" y2="370.25120198557056" stroke="#006340" stroke-width="1"/><rect x="604.6" y="348.95450404312993" width="13.799999999999999" height="17.93851046800461" fill="#006340"/><line x1="634.5" y1="334.2098855540319" x2="634.5" y2="351.85061624632795" stroke="#006340" stroke-width="1"/><rect x="627.6" y="347.2192058877373" width="13.799999999999999" height="1.735298155392627" fill="#006340"/><line x1="657.5" y1="312.1250364061157" x2="657.5" y2="359.4712958441893" stroke="#006340" stroke-width="1"/><rect x="650.6" y="318.4075812907973" width="13.799999999999999" height="28.81162459694002" fill="#006340"/><line x1="680.5" y1="301.637119663444" x2="680.5" y2="325.1839180050183" stroke="#006340" stroke-width="1"/><rect x="673.6" y="306.275959366001" width="13.799999999999999" height="12.131621924796264" fill="#006340"/><line x1="703.5" y1="270.21718169557903" x2="703.5" y2="311.7163963513816" stroke="#006340" stroke-width="1"/><rect x="696.6" y="277.9614996627737" width="13.799999999999999" height="28.314459703227328" fill="#006340"/><line x1="726.5" y1="245.45461450732336" x2="726.5" y2="289.05300618591974" stroke="#006340" stroke-width="1"/><rect x="719.6" y="255.75242078412117" width="13.799999999999999" height="22.20907887865252" fill="#006340"/><line x1="749.5" y1="212.29767798024676" x2="749.5" y2="260.3673676290169" stroke="#006340" stroke-width="1"/><rect x="742.6" y="225.41844292910122" width="13.799999999999999" height="30.333977855019953" fill="#006340"/><line x1="772.5" y1="190.3210030057557" x2="772.5" y2="230.62373419398335" stroke="#006340" stroke-width="1"/><rect x="765.6" y="196.61110914703943" width="13.799999999999999" height="28.80733378206179" fill="#006340"/><line x1="795.5" y1="189.91166981801246" x2="795.5" y2="219.09695439813026" stroke="#A02128" stroke-width="1"/><rect x="788.6" y="196.61110914703943" width="13.799999999999999" height="8.29754246195381" fill="#A02128"/><line x1="818.5" y1="180.37806268868593" x2="818.5" y2="215.48976811138732" stroke="#006340" stroke-width="1"/><rect x="811.6" y="195.03978840894865" width="13.799999999999999" height="9.868863200044586" fill="#006340"/><line x1="841.5" y1="156.57609879281557" x2="841.5" y2="199.21519181880063" stroke="#006340" stroke-width="1"/><rect x="834.6" y="167.22253765222956" width="13.799999999999999" height="27.81725075671909" fill="#006340"/><line x1="864.5" y1="155.67610010278742" x2="864.5" y2="190.31520539786248" stroke="#A02128" stroke-width="1"/><rect x="857.6" y="167.22253765222956" width="13.799999999999999" height="9.832195398315264" fill="#A02128"/><line x1="887.5" y1="169.04645421315627" x2="887.5" y2="185.88405965929144" stroke="#006340" stroke-width="1"/><rect x="880.6" y="169.17229500635483" width="13.799999999999999" height="7.882438044189996" fill="#006340"/><line x1="910.5" y1="145.70943950898078" x2="910.5" y2="171.70896116147674" stroke="#006340" stroke-width="1"/><rect x="903.6" y="147.78456088678524" width="13.799999999999999" height="21.387734119569586" fill="#006340"/><line x1="933.5" y1="120.97712029195588" x2="933.5" y2="151.47927697775805" stroke="#006340" stroke-width="1"/><rect x="926.6" y="128.2107335760901" width="13.799999999999999" height="19.57382731069515" fill="#006340"/><line x1="956.5" y1="99.47603668596332" x2="956.5" y2="137.9876464472004" stroke="#006340" stroke-width="1"/><rect x="949.6" y="101.32417457603208" width="13.799999999999999" height="26.886559000058014" fill="#006340"/><line x1="979.5" y1="94.84036242634556" x2="979.5" y2="117.02234161626325" stroke="#A02128" stroke-width="1"/><rect x="972.6" y="101.32417457603208" width="13.799999999999999" height="3.820222573670776" fill="#A02128"/><line x1="1002.5" y1="90.1845674161608" x2="1002.5" y2="112.6775621671701" stroke="#006340" stroke-width="1"/><rect x="995.6" y="104.2287469282544" width="13.799999999999999" height="1" fill="#006340"/><line x1="1025.5" y1="93.68999733474857" x2="1025.5" y2="110.20919405575296" stroke="#A02128" stroke-width="1"/><rect x="1018.6" y="104.2287469282544" width="13.799999999999999" height="5.0078233177196125" fill="#A02128"/><line x1="1048.5" y1="70.73405804810102" x2="1048.5" y2="123.78277852359088" stroke="#006340" stroke-width="1"/><rect x="1041.6" y="75.49176091740082" width="13.799999999999999" height="33.74480932857318" fill="#006340"/><line x1="1071.5" y1="53.79531830248436" x2="1071.5" y2="77.7587364572845" stroke="#006340" stroke-width="1"/><rect x="1064.6" y="67.30829179860507" width="13.799999999999999" height="8.183469118795756" fill="#006340"/><line x1="1094.5" y1="44.72039175151326" x2="1094.5" y2="81.82380141088765" stroke="#006340" stroke-width="1"/><rect x="1087.6" y="49.28771419272903" width="13.799999999999999" height="18.020577605876042" fill="#006340"/><line x1="1117.5" y1="29.080177501395042" x2="1117.5" y2="57.07081019074417" stroke="#006340" stroke-width="1"/><rect x="1110.6" y="37.4783544829088" width="13.799999999999999" height="11.809359709820228" fill="#006340"/><line x1="1140.5" y1="24" x2="1140.5" y2="46.182909825272304" stroke="#A02128" stroke-width="1"/><rect x="1133.6" y="37.4783544829088" width="13.799999999999999" height="2.827479812212914" fill="#A02128"/>
</svg>