<svg xmlns="http://www.w3.org/2000/svg" width="1200" height="700">
  <rect width="100%" height="100%" fill="#0d1117"/>
  <line x1="48" y1="24" x2="1152" y2="24" stroke="#21262d" stroke-width="1"/><line x1="48" y1="181" x2="1152" y2="181" stroke="#21262d" stroke-width="1"/><line x1="48" y1="338" x2="1152" y2="338" stroke="#21262d" stroke-width="1"/><line x1="48" y1="495" x2="1152" y2="495" stroke="#21262d" stroke-width="1"/><line x1="48" y1="652" x2="1152" y2="652" stroke="#21262d" stroke-width="1"/>
  <line x1="59.5" y1="590.6907094867611" x2="59.5" y2="652" stroke="#006340" stroke-width="1"/><rect x="52.6" y="604.3597657353741" width="13.799999999999999" height="45.71403399532619" fill="#006340"/><line x1="82.5" y1="574.250276485898" x2="82.5" y2="626.4985541684974" stroke="#006340" stroke-width="1"/><rect x="75.6" y="590.8400767731828" width="13.799999999999999" height="13.519688962191367" fill="#006340"/><line x1="105.5" y1="559.2668625520016" x2="105.5" y2="603.1412293614108" stroke="#006340" stroke-width="1"/><rect x="98.6" y="563.344520085856" width="13.799999999999999" height="27.495556687326825" fill="#006340"/><line x1="128.5" y1="520.299891997266" x2="128.5" y2="583.8385935262098" stroke="#006340" stroke-width="1"/><rect x="121.6" y="546.8781312918521" width="13.799999999999999" height="16.46638879400382" fill="#006340"/><line x1="151.5" y1="496.00500318073705" x2="151.5" y2="577.6089959752195" stroke="#006340" stroke-width="1"/><rect x="144.6" y="506.53123420048877" width="13.799999999999999" height="40.34689709136336" fill="#006340"/><line x1="174.5" y1="449.44580868542914" x2="174.5" y2="536.3718141661068" stroke="#006340" stroke-width="1"/><rect x="167.6" y="464.8986686217686" width="13.799999999999999" height="41.632565578720175" fill="#006340"/><line x1="197.5" y1="451.4278908419525" x2="197.5" y2="468.0320287412775" stroke="#A02128" stroke-width="1"/><rect x="190.6" y="464.8986686217686" width="13.799999999999999" height="1" fill="#A02128"/><line x1="220.5" y1="442.4019244319817" x2="220.5" y2="482.2079558729554" stroke="#006340" stroke-width="1"/><rect x="213.6" y="448.8929696238985" width="13.799999999999999" height="16.852682982198132" fill="#006340"/><line x1="243.5" y1="441.9139608284697" x2="243.5" y2="451.8176871752878" stroke="#A02128" stroke-width="1"/><rect x="236.6" y="448.8929696238985" width="13.799999999999999" height="1.4622032217729384" fill="#A02128"/><line x1="266.5" y1="447.9569041582944" x2="266.5" y2="512.101724011611" stroke="#A02128" stroke-width="1"/><rect x="259.6" y="450.35517284567146" width="13.799999999999999" height="32.86210914210682" fill="#A02128"/><line x1="289.5" y1="438.80227844436496" x2="289.5" y2="485.9235548456726" stroke="#006340" stroke-width="1"/><rect x="282.6" y="466.2063567964261" width="13.799999999999999" height="17.010925191352158" fill="#006340"/><line x1="312.5" y1="398.15813743987184" x2="312.5" y2="490.1357092796939" stroke="#006340" stroke-width="1"/><rect x="305.6" y="429.95131962519" width="13.799999999999999" height="36.2550371712361" fill="#006340"/><line x1="335.5" y1="410.9424006634192" x2="335.5" y2="459.26423840626364" stroke="#A02128" stroke-width="1"/><rect x="328.6" y="429.95131962519" width="13.799999999999999" height="14.277869209189248" fill="#A02128"/><line x1="358.5" y1="433.897434936125" x2="358.5" y2="496.5690038485246" stroke="#A02128" stroke-width="1"/><rect x="351.6" y="444.2291888343793" width="13.799999999999999" height="32.875025312113905" fill="#A02128"/><line x1="381.5" y1="416.15998741362773" x2="381.5" y2="489.65678219636584" stroke="#006340" stroke-width="1"/><rect x="374.6" y="430.6850033271853" width="13.799999999999999" height="46.419210819307864" fill="#006340"/><line x1="404.5" y1="403.5458933454206" x2="404.5" y2="459.2025390765051" stroke="#006340" stroke-width="1"/><rect x="397.6" y="428.7882672888678" width="13.799999999999999" height="1.8967360383174992" fill="#006340"/><line x1="427.5" y1="399.3128689762227" x2="427.5" y2="458.41580102270746" stroke="#006340" stroke-width="1"/><rect x="420.6" y="416.6893565270976" width="13.799999999999999" height="12.098910761770242" fill="#006340"/><line x1="450.5" y1="408.7916651900868" x2="450.5" y2="454.5449271734316" stroke="#A02128" stroke-width="1"/><rect x="443.6" y="416.6893565270976" width="13.799999999999999" height="15.916855385882968" fill="#A02128"/><line x1="473.5" y1="409.26020357149145" x2="473.5" y2="455.77984567291435" stroke="#A02128" stroke-width="1"/><rect x="466.6" y="432.60621191298054" width="13.799999999999999" height="9.596116215171207" fill="#A02128"/><line x1="496.5" y1="423.8192355291892" x2="496.5" y2="465.5659527537284" stroke="#006340" stroke-width="1"/><rect x="489.6" y="430.38482154427084" width="13.799999999999999" height="11.817506583880913" fill="#006340"/><line x1="519.5" y1="386.0377803153885" x2="519.5" y2="462.2303338131759" stroke="#006340" stroke-width="1"/><rect x="512.6" y="406.80560070844274" width="13.799999999999999" height="23.579220835828096" fill="#006340"/><line x1="542.5" y1="352.4826460844344" x2="542.5" y2="409.465285911505" stroke="#006340" stroke-width="1"/><rect x="535.6" y="362.85699646030787" width="13.799999999999999" height="43.94860424813487" fill="#006340"/><line x1="565.5" y1="311.7894469472701" x2="565.5" y2="383.5791210389348" stroke="#006340" stroke-width="1"/><rect x="558.6" y="324.9533237450119" width="13.799999999999999" height="37.903672715295954" fill="#006340"/><line x1="588.5" y1="302.64452553425" x2="588.5" y2="336.32824563476595" stroke="#006340" stroke-width="1"/><rect x="581.6" y="309.30115189620807" width="13.799999999999999" height="15.652171848803846" fill="#006340"/><line x1="611.5" y1="261.79353569108474" x2="611.5" y2="316.5221248725896" stroke="#006340" stroke-width="1"/><rect x="604.6" y="262.1692439837334" width="13.799999999999999" height="47.131907912474674" fill="#006340"/><line x1="634.5" y1="183.36326549730603" x2="634.5" y2="271.9816706109971" stroke="#006340" stroke-width="1"/><rect x="627.6" y="214.30598731883543" width="13.799999999999999" height="47.86325666489796" fill="#006340"/><line x1="657.5" y1="175.20614672978024" x2="657.5" y2="240.34649523357308" stroke="#006340" stroke-width="1"/><rect x="650.6" y="186.13542534202145" width="13.799999999999999" height="28.170561976813985" fill="#006340"/><line x1="680.5" y1="164.94341212583566" x2="680.5" y2="233.35577243526052" stroke="#A02128" stroke-width="1"/><rect x="673.6" y="186.13542534202145" width="13.799999999999999" height="14.773952539362597" fill="#A02128"/><line x1="703.5" y1="144.75535328348332" x2="703.5" y2="231.06786338189636" stroke="#006340" stroke-width="1"/><rect x="696.6" y="173.7704162791669" width="13.799999999999999" height="27.138961602217137" fill="#006340"/><line x1="726.5" y1="127.59058301213508" x2="726.5" y2="183.87709703842881" stroke="#006340" stroke-width="1"/><rect x="719.6" y="143.67949030133366" width="13.799999999999999" height="30.09092597783325" fill="#006340"/><line x1="749.5" y1="104.04447253353794" x2="749.5" y2="176.0529749717582" stroke="#006340" stroke-width="1"/><rect x="742.6" y="108.54273591033416" width="13.799999999999999" height="35.1367543909995" fill="#006340"/><line x1="772.5" y1="84.17360687885764" x2="772.5" y2="138.43201956215933" stroke="#A02128" stroke-width="1"/><rect x="765.6" y="108.54273591033416" width="13.799999999999999" height="17.023453760920688" fill="#A02128"/><line x1="795.5" y1="55.24221815401734" x2="795.5" y2="139.55626951616046" stroke="#006340" stroke-width="1"/><rect x="788.6" y="82.53915670198728" width="13.799999999999999" height="43.027032969267566" fill="#006340"/><line x1="818.5" y1="71.93888901510297" x2="818.5" y2="134.5131609680617" stroke="#A02128" stroke-width="1"/><rect x="811.6" y="82.53915670198728" width="13.799999999999999" height="40.35472420010626" fill="#A02128"/><line x1="841.5" y1="72.63471724026044" x2="841.5" y2="128.25228339639318" stroke="#006340" stroke-width="1"/><rect x="834.6" y="102.68505097199352" width="13.799999999999999" height="20.208829930100023" fill="#006340"/><line x1="864.5" y1="74.31386004979845" x2="864.5" y2="105.51584971572083" stroke="#006340" stroke-width="1"/><rect x="857.6" y="90.13751854404723" width="13.799999999999999" height="12.547532427946294" fill="#006340"/><line x1="887.5" y1="62.588346521328276" x2="887.5" y2="119.18288951746354" stroke="#A02128" stroke-width="1"/><rect x="880.6" y="90.13751854404723" width="13.799999999999999" height="20.284795077702597" fill="#A02128"/><line x1="910.5" y1="71.64590830053464" x2="910.5" y2="133.89992727680703" stroke="#006340" stroke-width="1"/><rect x="903.6" y="96.27170360068408" width="13.799999999999999" height="14.150610021065745" fill="#006340"/><line x1="933.5" y1="35.74979131738803" x2="933.5" y2="101.71397032204345" stroke="#006340" stroke-width="1"/><rect x="926.6" y="57.47592106091349" width="13.799999999999999" height="38.795782539770585" fill="#006340"/><line x1="956.5" y1="39.883696850865704" x2="956.5" y2="110.41659773741742" stroke="#A02128" stroke-width="1"/><rect x="949.6" y="57.47592106091349" width="13.799999999999999" height="47.5803206794202" fill="#A02128"/><line x1="979.5" y1="76.78535542881502" x2="979.5" y2="122.92570222846837" stroke="#A02128" stroke-width="1"/><rect x="972.6" y="105.05624174033369" width="13.799999999999999" height="11.950390427342086" fill="#A02128"/><line x1="1002.5" y1="108.77027482588812" x2="1002.5" y2="146.4234232494826" stroke="#A02128" stroke-width="1"/><rect x="995.6" y="117.00663216767578" width="13.799999999999999" height="3.2154101937238693" fill="#A02128"/><line x1="1025.5" y1="118.66717470704862" x2="1025.5" y2="164.14306772815326" stroke="#A02128" stroke-width="1"/><rect x="1018.6" y="120.22204236139964" width="13.799999999999999" height="17.095800015751024" fill="#A02128"/><line x1="1048.5" y1="104.408464519998" x2="1048.5" y2="164.5342294393738" stroke="#006340" stroke-width="1"/><rect x="1041.6" y="129.88009696325037" width="13.799999999999999" height="7.437745413900302" fill="#006340"/><line x1="1071.5" y1="68.39493076184385" x2="1071.5" y2="144.59474743335898" stroke="#006340" stroke-width="1"/><rect x="1064.6" y="87.46449654087189" width="13.799999999999999" height="42.415600422378475" fill="#006340"/><line x1="1094.5" y1="38.838343688344025" x2="1094.5" y2="106.47448813872666" stroke="#006340" stroke-width="1"/><rect x="1087.6" y="57.250184117647564" width="13.799999999999999" height="30.214312423224328" fill="#006340"/><line x1="1117.5" y1="24" x2="1117.5" y2="213.061905225418" stroke="#A02128" stroke-width="1"/><rect x="1110.6" y="57.250184117647564" width="13.799999999999999" height="125.16121616236882" fill="#A02128"/><line x1="1140.5" y1="115.23581707073367" x2="1140.5" y2="214.39324683392294" stroke="#006340" stroke-width="1"/><rect x="1133.6" y="116.6600413893857" width="13.799999999999999" height="65.75135889063068" fill="#006340"/>
</svg>