<svg xmlns="http://www.w3.org/2000/svg" width="1200" height="700">
  <rect width="100%" height="100%" fill="#0d1117"/>
  <line x1="48" y1="24" x2="1152" y2="24" stroke="#21262d" stroke-width="1"/><line x1="48" y1="181" x2="1152" y2="181" stroke="#21262d" stroke-width="1"/><line x1="48" y1="338" x2="1152" y2="338" stroke="#21262d" stroke-width="1"/><line x1="48" y1="495" x2="1152" y2="495" stroke="#21262d" stroke-width="1"/><line x1="48" y1="652" x2="1152" y2="652" stroke="#21262d" stroke-width="1"/>
  <line x1="59.5" y1="627.5803558063852" x2="59.5" y2="652" stroke="#006340" stroke-width="1"/><rect x="52.6" y="637.4629984761776" width="13.799999999999999" height="1.1872976375714188" fill="#006340"/><line x1="82.5" y1="616.4749890252681" x2="82.5" y2="645.0537142529319" stroke="#006340" stroke-width="1"/><rect x="75.6" y="629.7803452780066" width="13.799999999999999" height="7.6826531981710104" fill="#006340"/><line x1="105.5" y1="602.1272125302721" x2="105.5" y2="633.378249862302" stroke="#006340" stroke-width="1"/><rect x="98.6" y="612.4678635419887" width="13.799999999999999" height="17.312481736017958" fill="#006340"/><line x1="128.5" y1="586.0928606879772" x2="128.5" y2="625.9240300051121" stroke="#006340" stroke-width="1"/><rect x="121.6" y="591.865781408457" width="13.799999999999999" height="20.602082133531667" fill="#006340"/><line x1="151.5" y1="566.7939891571853" x2="151.5" y2="599.2763876854455" stroke="#006340" stroke-width="1"/><rect x="144.6" y="579.9037421092272" width="13.799999999999999" height="11.962039299229787" fill="#006340"/><line x1="174.5" y1="577.6008801919717" x2="174.5" y2="589.3601961715623" stroke="#A02128" stroke-width="1"/><rect x="167.6" y="579.9037421092272" width="13.799999999999999" height="4.219873907566239" fill="#A02128"/><line x1="197.5" y1="549.1566052510586" x2="197.5" y2="590.2762657705505" stroke="#006340" stroke-width="1"/><rect x="190.6" y="560.8161214910054" width="13.799999999999999" height="23.307494525788" fill="#006340"/><line x1="220.5" y1="534.3688925958504" x2="220.5" y2="574.1453409742106" stroke="#006340" stroke-width="1"/><rect x="213.6" y="539.8387793797598" width="13.799999999999999" height="20.97734211124566" fill="#006340"/><line x1="243.5" y1="525.8470928162968" x2="243.5" y2="550.1005378405384" stroke="#A02128" stroke-width="1"/><rect x="236.6" y="539.8387793797598" width="13.799999999999999" height="2.675770132374737" fill="#A02128"/><line x1="266.5" y1="540.7836147773102" x2="266.5" y2="550.5451314936814" stroke="#006340" stroke-width="1"/><rect x="259.6" y="541.4479532330732" width="13.799999999999999" height="1.0665962790612866" fill="#006340"/><line x1="289.5" y1="536.8047490712328" x2="289.5" y2="558.0062330605367" stroke="#A02128" stroke-width="1"/><rect x="282.6" y="541.4479532330732" width="13.799999999999999" height="3.0718509152399065" fill="#A02128"/><line x1="312.5" y1="540.0166492433507" x2="312.5" y2="552.6608856582692" stroke="#A02128" stroke-width="1"/><rect x="305.6" y="544.5198041483131" width="13.799999999999999" height="4.748580841524699" fill="#A02128"/><line x1="335.5" y1="521.5497045246973" x2="335.5" y2="558.2961602070151" stroke="#006340" stroke-width="1"/><rect x="328.6" y="534.0841752713322" width="13.799999999999999" height="15.184209718505599" fill="#006340"/><line x1="358.5" y1="500.30375313498575" x2="358.5" y2="548.0442145674034" stroke="#006340" stroke-width="1"/><rect x="351.6" y="512.885863625278" width="13.799999999999999" height="21.198311646054208" fill="#006340"/><line x1="381.5" y1="480.87227237426123" x2="381.5" y2="526.8277883946898" stroke="#006340" stroke-width="1"/><rect x="374.6" y="491.8275404823237" width="13.799999999999999" height="21.05832314295435" fill="#006340"/><line x1="404.5" y1="458.2968024933626" x2="404.5" y2="495.807171639598" stroke="#006340" stroke-width="1"/><rect x="397.6" y="472.12231042244616" width="13.799999999999999" height="19.705230059877522" fill="#006340"/><line x1="427.5" y1="431.0714177866504" x2="427.5" y2="474.69704063599016" stroke="#006340" stroke-width="1"/><rect x="420.6" y="441.1416054533204" width="13.799999999999999" height="30.98070496912578" fill="#006340"/><line x1="450.5" y1="440.8235481680246" x2="450.5" y2="454.70526908089596" stroke="#A02128" stroke-width="1"/><rect x="443.6" y="441.1416054533204" width="13.799999999999999" height="1.0187838912285088" fill="#A02128"/><line x1="473.5" y1="432.614796349675" x2="473.5" y2="451.5907506312001" stroke="#A02128" stroke-width="1"/><rect x="466.6" y="442.1603893445489" width="13.799999999999999" height="2.059609620310084" fill="#A02128"/><line x1="496.5" y1="418.4262236364135" x2="496.5" y2="445.0604183532698" stroke="#006340" stroke-width="1"/><rect x="489.6" y="430.91346266831215" width="13.799999999999999" height="13.306536296546824" fill="#006340"/><line x1="519.5" y1="392.2523264350047" x2="519.5" y2="439.95152363720956" stroke="#006340" stroke-width="1"/><rect x="512.6" y="403.6921523908494" width="13.799999999999999" height="27.22131027746275" fill="#006340"/><line x1="542.5" y1="358.25763639636506" x2="542.5" y2="411.47072676426933" stroke="#006340" stroke-width="1"/><rect x="535.6" y="371.1369599097925" width="13.799999999999999" height="32.555192481056906" fill="#006340"/><line x1="565.5" y1="332.04299656739636" x2="565.5" y2="371.7345239446772" stroke="#006340" stroke-width="1"/><rect x="558.6" y="346.0338373722029" width="13.799999999999999" height="25.10312253758957" fill="#006340"/><line x1="588.5" y1="340.6827526567573" x2="588.5" y2="356.7792339517457" stroke="#006340" stroke-width="1"/><rect x="581.6" y="344.94320452468" width="13.799999999999999" height="1.0906328475228975" fill="#006340"/><line x1="611.5" y1="318.1506034631748" x2="611.5" y2="349.4885960408019" stroke="#006340" stroke-width="1"/><rect x="604.6" y="327.3363851662099" width="13.799999999999999" height="17.606819358470148" fill="#006340"/><line x1="634.5" y1="301.68339384892766" x2="634.5" y2="339.3199599256133" stroke="#006340" stroke-width="1"/><rect x="627.6" y="313.76627862989506" width="13.799999999999999" height="13.570106536314825" fill="#006340"/><line x1="657.5" y1="300.1011840128948" x2="657.5" y2="328.53840051290825" stroke="#006340" stroke-width="1"/><rect x="650.6" y="300.41703827126787" width="13.799999999999999" height="13.349240358627185" fill="#006340"/><line x1="680.5" y1="297.0479173713271" x2="680.5" y2="306.98257511321054" stroke="#A02128" stroke-width="1"/><rect x="673.6" y="300.41703827126787" width="13.799999999999999" height="5.149513317570552" fill="#A02128"/><line x1="703.5" y1="286.317268489635" x2="703.5" y2="306.7548706989061" stroke="#006340" stroke-width="1"/><rect x="696.6" y="295.6110996180866" width="13.799999999999999" height="9.955451970751824" fill="#006340"/><line x1="726.5" y1="268.06822722706886" x2="726.5" y2="303.177781337818" stroke="#006340" stroke-width="1"/><rect x="719.6" y="271.28827860056714" width="13.799999999999999" height="24.32282101751946" fill="#006340"/><line x1="749.5" y1="267.56881186444065" x2="749.5" y2="285.6626103301306" stroke="#A02128" stroke-width="1"/><rect x="742.6" y="271.28827860056714" width="13.799999999999999" height="6.262125069313356" fill="#A02128"/><line x1="772.5" y1="245.08315953731983" x2="772.5" y2="278.6431875012697" stroke="#006340" stroke-width="1"/><rect x="765.6" y="259.4727887496991" width="13.799999999999999" height="18.077614920181418" fill="#006340"/><line x1="795.5" y1="226.16248431643032" x2="795.5" y2="262.599781284847" stroke="#006340" stroke-width="1"/><rect x="788.6" y="235.6490956219688" width="13.799999999999999" height="23.82369312773028" fill="#006340"/><line x1="818.5" y1="221.99319309772204" x2="818.5" y2="244.2236543144905" stroke="#006340" stroke-width="1"/><rect x="811.6" y="232.2396484342275" width="13.799999999999999" height="3.409447187741307" fill="#006340"/><line x1="841.5" y1="188.69897232554752" x2="841.5" y2="233.48516283222187" stroke="#006340" stroke-width="1"/><rect x="834.6" y="203.9895741798569" width="13.799999999999999" height="28.25007425437059" fill="#006340"/><line x1="864.5" y1="176.1613426811046" x2="864.5" y2="216.2306251933469" stroke="#006340" stroke-width="1"/><rect x="857.6" y="177.40325212178965" width="13.799999999999999" height="26.586322058067253" fill="#006340"/><line x1="887.5" y1="148.54109791829694" x2="887.5" y2="184.21754067414082" stroke="#006340" stroke-width="1"/><rect x="880.6" y="150.15624023615516" width="13.799999999999999" height="27.247011885634493" fill="#006340"/><line x1="910.5" y1="146.79515382219518" x2="910.5" y2="163.16065084288556" stroke="#A02128" stroke-width="1"/><rect x="903.6" y="150.15624023615516" width="13.799999999999999" height="3.3990906274930808" fill="#A02128"/><line x1="933.5" y1="111.68084753574203" x2="933.5" y2="159.94189998893006" stroke="#006340" stroke-width="1"/><rect x="926.6" y="122.92316513340916" width="13.799999999999999" height="30.63216573023908" fill="#006340"/><line x1="956.5" y1="88.56068710870102" x2="956.5" y2="129.89952887807112" stroke="#006340" stroke-width="1"/><rect x="949.6" y="92.87078148967942" width="13.799999999999999" height="30.05238364372974" fill="#006340"/><line x1="979.5" y1="90.58181392541621" x2="979.5" y2="93.68795351309905" stroke="#A02128" stroke-width="1"/><rect x="972.6" y="92.87078148967942" width="13.799999999999999" height="1" fill="#A02128"/><line x1="1002.5" y1="81.79988727356954" x2="1002.5" y2="114.1608753181273" stroke="#A02128" stroke-width="1"/><rect x="995.6" y="93.66813655722444" width="13.799999999999999" height="8.54036980994249" fill="#A02128"/><line x1="1025.5" y1="59.50764848582412" x2="1025.5" y2="113.23029835359557" stroke="#006340" stroke-width="1"/><rect x="1018.6" y="67.59690500504132" width="13.799999999999999" height="34.61160136212561" fill="#006340"/><line x1="1048.5" y1="40.455788866477405" x2="1048.5" y2="79.67104756918968" stroke="#006340" stroke-width="1"/><rect x="1041.6" y="41.712794730719224" width="13.799999999999999" height="25.884110274322097" fill="#006340"/><line x1="1071.5" y1="32.249762952243145" x2="1071.5" y2="61.44748607218662" stroke="#A02128" stroke-width="1"/><rect x="1064.6" y="41.712794730719224" width="13.799999999999999" height="5.687940774482399" fill="#A02128"/><line x1="1094.5" y1="26.07031226377876" x2="1094.5" y2="48.65782555356793" stroke="#006340" stroke-width="1"/><rect x="1087.6" y="27.27316631268127" width="13.799999999999999" height="20.127569192520355" fill="#006340"/><line x1="1117.5" y1="24" x2="1117.5" y2="37.307582030387834" stroke="#A02128" stroke-width="1"/><rect x="1110.6" y="27.27316631268127" width="13.799999999999999" height="6.293014491286499" fill="#A02128"/><line x1="1140.5" y1="31.51622276564501" x2="1140.5" y2="57.908790266720416" stroke="#A02128" stroke-width="1"/><rect x="1133.6" y="33.56618080396777" width="13.799999999999999" height="11.610546124256757" fill="#A02128"/>
</svg>