<svg xmlns="http://www.w3.org/2000/svg" width="1200" height="700">
  <rect width="100%" height="100%" fill="#0d1117"/>
  <line x1="48" y1="24" x2="1152" y2="24" stroke="#21262d" stroke-width="1"/><line x1="48" y1="181" x2="1152" y2="181" stroke="#21262d" stroke-width="1"/><line x1="48" y1="338" x2="1152" y2="338" stroke="#21262d" stroke-width="1"/><line x1="48" y1="495" x2="1152" y2="495" stroke="#21262d" stroke-width="1"/><line x1="48" y1="652" x2="1152" y2="652" stroke="#21262d" stroke-width="1"/>
  <line x1="59.5" y1="607.908451354915" x2="59.5" y2="634.0482984650686" stroke="#A02128" stroke-width="1"/><rect x="52.6" y="608.9393405591431" width="13.799999999999999" height="12.21744433704714" fill="#A02128"/><line x1="82.5" y1="608.6961848592069" x2="82.5" y2="644.9349906489375" stroke="#A02128" stroke-width="1"/><rect x="75.6" y="621.1567848961903" width="13.799999999999999" height="12.813790315054803" fill="#A02128"/><line x1="105.5" y1="612.2514135777559" x2="105.5" y2="649.7793424917436" stroke="#006340" stroke-width="1"/><rect x="98.6" y="623.5557408854445" width="13.799999999999999" height="10.414834325800598" fill="#006340"/><line x1="128.5" y1="612.6955011993504" x2="128.5" y2="652" stroke="#A02128" stroke-width="1"/><rect x="121.6" y="623.5557408854445" width="13.799999999999999" height="11.158681355148701" fill="#A02128"/><line x1="151.5" y1="597.048788602919" x2="151.5" y2="640.6575990303381" stroke="#006340" stroke-width="1"/><rect x="144.6" y="609.5619942478406" width="13.799999999999999" height="25.152427992752564" fill="#006340"/><line x1="174.5" y1="568.1422813747586" x2="174.5" y2="614.6919019407819" stroke="#006340" stroke-width="1"/><rect x="167.6" y="574.7985207979319" width="13.799999999999999" height="34.7634734499087" fill="#006340"/><line x1="197.5" y1="538.6648476069087" x2="197.5" y2="591.4152318544374" stroke="#006340" stroke-width="1"/><rect x="190.6" y="541.491774772128" width="13.799999999999999" height="33.30674602580393" fill="#006340"/><line x1="220.5" y1="525.7316375444183" x2="220.5" y2="546.1960826737748" stroke="#006340" stroke-width="1"/><rect x="213.6" y="533.0433670677955" width="13.799999999999999" height="8.448407704332453" fill="#006340"/><line x1="243.5" y1="517.8359205364634" x2="243.5" y2="563.6959646899479" stroke="#A02128" stroke-width="1"/><rect x="236.6" y="533.0433670677955" width="13.799999999999999" height="11.938108080054917" fill="#A02128"/><line x1="266.5" y1="530.0112245085285" x2="266.5" y2="552.326823526266" stroke="#A02128" stroke-width="1"/><rect x="259.6" y="544.9814751478505" width="13.799999999999999" height="5.105809387457498" fill="#A02128"/><line x1="289.5" y1="513.118915892059" x2="289.5" y2="556.4107500799118" stroke="#006340" stroke-width="1"/><rect x="282.6" y="528.2016005476456" width="13.799999999999999" height="21.885683987662333" fill="#006340"/><line x1="312.5" y1="519.0216906968793" x2="312.5" y2="538.4615513320973" stroke="#006340" stroke-width="1"/><rect x="305.6" y="521.5051431964439" width="13.799999999999999" height="6.69645735120173" fill="#006340"/><line x1="335.5" y1="488.78827692654465" x2="335.5" y2="529.4098056516751" stroke="#006340" stroke-width="1"/><rect x="328.6" y="497.7653963231362" width="13.799999999999999" height="23.739746873307695" fill="#006340"/><line x1="358.5" y1="480.4012838415498" x2="358.5" y2="512.4711977614717" stroke="#A02128" stroke-width="1"/><rect x="351.6" y="497.7653963231362" width="13.799999999999999" height="2.876075425727663" fill="#A02128"/><line x1="381.5" y1="472.5389617963192" x2="381.5" y2="501.9059760248699" stroke="#006340" stroke-width="1"/><rect x="374.6" y="476.93017236306514" width="13.799999999999999" height="23.711299385798725" fill="#006340"/><line x1="404.5" y1="462.5355908648524" x2="404.5" y2="490.0716917568444" stroke="#A02128" stroke-width="1"/><rect x="397.6" y="476.93017236306514" width="13.799999999999999" height="7.837777712930574" fill="#A02128"/><line x1="427.5" y1="435.46895895384057" x2="427.5" y2="496.46511031587033" stroke="#006340" stroke-width="1"/><rect x="420.6" y="454.8371672671726" width="13.799999999999999" height="29.930782808823096" fill="#006340"/><line x1="450.5" y1="434.71169763502627" x2="450.5" y2="455.6561736145174" stroke="#006340" stroke-width="1"/><rect x="443.6" y="442.4149079175778" width="13.799999999999999" height="12.42225934959481" fill="#006340"/><line x1="473.5" y1="393.1212777923514" x2="473.5" y2="451.69460757405005" stroke="#006340" stroke-width="1"/><rect x="466.6" y="412.3607069360004" width="13.799999999999999" height="30.054200981577424" fill="#006340"/><line x1="496.5" y1="357.692670935662" x2="496.5" y2="431.296672087065" stroke="#006340" stroke-width="1"/><rect x="489.6" y="368.4229483616544" width="13.799999999999999" height="43.93775857434599" fill="#006340"/><line x1="519.5" y1="322.15659839277646" x2="519.5" y2="380.5252466669516" stroke="#006340" stroke-width="1"/><rect x="512.6" y="335.84765258637384" width="13.799999999999999" height="32.57529577528055" fill="#006340"/><line x1="542.5" y1="319.445492392705" x2="542.5" y2="344.4557534733437" stroke="#006340" stroke-width="1"/><rect x="535.6" y="330.0106534149231" width="13.799999999999999" height="5.836999171450714" fill="#006340"/><line x1="565.5" y1="318.4277679991787" x2="565.5" y2="350.8656277558225" stroke="#A02128" stroke-width="1"/><rect x="558.6" y="330.0106534149231" width="13.799999999999999" height="9.513979802541996" fill="#A02128"/><line x1="588.5" y1="299.34179111627225" x2="588.5" y2="340.06982123738493" stroke="#006340" stroke-width="1"/><rect x="581.6" y="313.42179736021654" width="13.799999999999999" height="26.10283585724858" fill="#006340"/><line x1="611.5" y1="302.2616306726136" x2="611.5" y2="322.83991694156356" stroke="#A02128" stroke-width="1"/><rect x="604.6" y="313.42179736021654" width="13.799999999999999" height="8.30778002006872" fill="#A02128"/><line x1="634.5" y1="296.50089252801945" x2="634.5" y2="322.8204258804918" stroke="#006340" stroke-width="1"/><rect x="627.6" y="309.06573813318204" width="13.799999999999999" height="12.663839247103226" fill="#006340"/><line x1="657.5" y1="307.8684225149333" x2="657.5" y2="335.5827297220851" stroke="#A02128" stroke-width="1"/><rect x="650.6" y="309.06573813318204" width="13.799999999999999" height="11.596150345701062" fill="#A02128"/><line x1="680.5" y1="311.1273561300585" x2="680.5" y2="341.1949143031342" stroke="#A02128" stroke-width="1"/><rect x="673.6" y="320.6618884788831" width="13.799999999999999" height="3.662622237497942" fill="#A02128"/><line x1="703.5" y1="309.5345229181012" x2="703.5" y2="325.5981589324575" stroke="#006340" stroke-width="1"/><rect x="696.6" y="312.0836635063106" width="13.799999999999999" height="12.240847210070456" fill="#006340"/><line x1="726.5" y1="299.4301014693141" x2="726.5" y2="316.3835223639651" stroke="#006340" stroke-width="1"/><rect x="719.6" y="306.2148323885891" width="13.799999999999999" height="5.86883111772147" fill="#006340"/><line x1="749.5" y1="287.8647210151322" x2="749.5" y2="312.0870702880118" stroke="#006340" stroke-width="1"/><rect x="742.6" y="292.31483522856627" width="13.799999999999999" height="13.89999716002285" fill="#006340"/><line x1="772.5" y1="271.6866993296133" x2="772.5" y2="295.65929575949946" stroke="#006340" stroke-width="1"/><rect x="765.6" y="290.66975128050876" width="13.799999999999999" height="1.6450839480575041" fill="#006340"/><line x1="795.5" y1="262.5725063844317" x2="795.5" y2="300.1478562059851" stroke="#006340" stroke-width="1"/><rect x="788.6" y="279.0853027208437" width="13.799999999999999" height="11.584448559665077" fill="#006340"/><line x1="818.5" y1="274.27237705832" x2="818.5" y2="288.11096966796777" stroke="#A02128" stroke-width="1"/><rect x="811.6" y="279.0853027208437" width="13.799999999999999" height="3.566814397488031" fill="#A02128"/><line x1="841.5" y1="219.19022215361866" x2="841.5" y2="292.32435152004655" stroke="#006340" stroke-width="1"/><rect x="834.6" y="238.7364431494999" width="13.799999999999999" height="43.91567396883181" fill="#006340"/><line x1="864.5" y1="234.7090780138941" x2="864.5" y2="251.79280333196425" stroke="#A02128" stroke-width="1"/><rect x="857.6" y="238.7364431494999" width="13.799999999999999" height="6.966752909160334" fill="#A02128"/><line x1="887.5" y1="208.3877920016743" x2="887.5" y2="255.3164190592102" stroke="#006340" stroke-width="1"/><rect x="880.6" y="224.78654410335986" width="13.799999999999999" height="20.91665195530038" fill="#006340"/><line x1="910.5" y1="218.9188382349035" x2="910.5" y2="239.48966833703878" stroke="#A02128" stroke-width="1"/><rect x="903.6" y="224.78654410335986" width="13.799999999999999" height="11.840548030863204" fill="#A02128"/><line x1="933.5" y1="224.86269713765648" x2="933.5" y2="243.3803779074342" stroke="#006340" stroke-width="1"/><rect x="926.6" y="235.03497634663626" width="13.799999999999999" height="1.5921157875868062" fill="#006340"/><line x1="956.5" y1="182.60990026976924" x2="956.5" y2="238.69155057056275" stroke="#006340" stroke-width="1"/><rect x="949.6" y="201.34382738512545" width="13.799999999999999" height="33.691148961510805" fill="#006340"/><line x1="979.5" y1="160.85597686813924" x2="979.5" y2="219.59981845802503" stroke="#006340" stroke-width="1"/><rect x="972.6" y="179.45703839855554" width="13.799999999999999" height="21.88678898656991" fill="#006340"/><line x1="1002.5" y1="129.92413284040094" x2="1002.5" y2="181.31671365254465" stroke="#006340" stroke-width="1"/><rect x="995.6" y="147.44017178476287" width="13.799999999999999" height="32.01686661379267" fill="#006340"/><line x1="1025.5" y1="99.9719181526433" x2="1025.5" y2="159.24255814543505" stroke="#006340" stroke-width="1"/><rect x="1018.6" y="106.34122631399771" width="13.799999999999999" height="41.09894547076516" fill="#006340"/><line x1="1048.5" y1="71.30342065980028" x2="1048.5" y2="111.36464724480186" stroke="#006340" stroke-width="1"/><rect x="1041.6" y="81.60250246977694" width="13.799999999999999" height="24.73872384422077" fill="#006340"/><line x1="1071.5" y1="24" x2="1071.5" y2="93.01037253013806" stroke="#006340" stroke-width="1"/><rect x="1064.6" y="44.79130141299095" width="13.799999999999999" height="36.81120105678599" fill="#006340"/><line x1="1094.5" y1="44.0802491912757" x2="1094.5" y2="73.35283655696674" stroke="#A02128" stroke-width="1"/><rect x="1087.6" y="44.79130141299095" width="13.799999999999999" height="12.283818917586018" fill="#A02128"/><line x1="1117.5" y1="53.54972269397717" x2="1117.5" y2="76.0070445757201" stroke="#A02128" stroke-width="1"/><rect x="1110.6" y="57.075120330576965" width="13.799999999999999" height="6.891885920985601" fill="#A02128"/><line x1="1140.5" y1="29.996489741914388" x2="1140.5" y2="71.62167046365278" stroke="#006340" stroke-width="1"/><rect x="1133.6" y="39.02357309461638" width="13.799999999999999" height="24.943433156946185" fill="#006340"/>
</svg>