<svg xmlns="http://www.w3.org/2000/svg" width="1200" height="700">
  <rect width="100%" height="100%" fill="#0d1117"/>
  <line x1="48" y1="24" x2="1152" y2="24" stroke="#21262d" stroke-width="1"/><line x1="48" y1="181" x2="1152" y2="181" stroke="#21262d" stroke-width="1"/><line x1="48" y1="338" x2="1152" y2="338" stroke="#21262d" stroke-width="1"/><line x1="48" y1="495" x2="1152" y2="495" stroke="#21262d" stroke-width="1"/><line x1="48" y1="652" x2="1152" y2="652" stroke="#21262d" stroke-width="1"/>
  <line x1="59.5" y1="629.3273877005961" x2="59.5" y2="652" stroke="#A02128" stroke-width="1"/><rect x="52.6" y="638.4233783566369" width="13.799999999999999" height="3.050101104824762" fill="#A02128"/><line x1="82.5" y1="624.1865480779733" x2="82.5" y2="648.9767020282543" stroke="#006340" stroke-width="1"/><rect x="75.6" y="630.1180766467902" width="13.799999999999999" height="11.355402814671493" fill="#006340"/><line x1="105.5" y1="610.0185622469548" x2="105.5" y2="630.7488173182616" stroke="#006340" stroke-width="1"/><rect x="98.6" y="618.8006467230341" width="13.799999999999999" height="11.317429923756094" fill="#006340"/><line x1="128.5" y1="608.1774590695611" x2="128.5" y2="619.6474771545668" stroke="#006340" stroke-width="1"/><rect x="121.6" y="614.6983861318429" width="13.799999999999999" height="4.102260591191225" fill="#006340"/><line x1="151.5" y1="587.7202754572829" x2="151.5" y2="625.4898819323819" stroke="#006340" stroke-width="1"/><rect x="144.6" y="595.3735073073944" width="13.799999999999999" height="19.324878824448433" fill="#006340"/><line x1="174.5" y1="589.4331620753921" x2="174.5" y2="609.0170907223485" stroke="#006340" stroke-width="1"/><rect x="167.6" y="589.8415175175556" width="13.799999999999999" height="5.5319897898388035" fill="#006340"/><line x1="197.5" y1="543.7845718026088" x2="197.5" y2="595.5938988881167" stroke="#006340" stroke-width="1"/><rect x="190.6" y="558.1415793391476" width="13.799999999999999" height="31.699938178408047" fill="#006340"/><line x1="220.5" y1="519.4013095195787" x2="220.5" y2="561.5546283204302" stroke="#006340" stroke-width="1"/><rect x="213.6" y="529.0338663660737" width="13.799999999999999" height="29.107712973073944" fill="#006340"/><line x1="243.5" y1="509.493326506103" x2="243.5" y2="540.6102247909384" stroke="#006340" stroke-width="1"/><rect x="236.6" y="512.9200754815097" width="13.799999999999999" height="16.11379088456397" fill="#006340"/><line x1="266.5" y1="490.40197983336077" x2="266.5" y2="518.1241954100203" stroke="#006340" stroke-width="1"/><rect x="259.6" y="491.37620395451177" width="13.799999999999999" height="21.54387152699792" fill="#006340"/><line x1="289.5" y1="485.14685594989555" x2="289.5" y2="506.4033252045099" stroke="#A02128" stroke-width="1"/><rect x="282.6" y="491.37620395451177" width="13.799999999999999" height="11.021205936700085" fill="#A02128"/><line x1="312.5" y1="495.402094827326" x2="312.5" y2="505.58366609244104" stroke="#A02128" stroke-width="1"/><rect x="305.6" y="502.39740989121185" width="13.799999999999999" height="3.043522794550654" fill="#A02128"/><line x1="335.5" y1="462.231245449929" x2="335.5" y2="509.26183085909673" stroke="#006340" stroke-width="1"/><rect x="328.6" y="476.0507596779046" width="13.799999999999999" height="29.390173007857925" fill="#006340"/><line x1="358.5" y1="445.0387851582376" x2="358.5" y2="490.02861031216645" stroke="#006340" stroke-width="1"/><rect x="351.6" y="460.32388351068005" width="13.799999999999999" height="15.726876167224532" fill="#006340"/><line x1="381.5" y1="448.78178952949304" x2="381.5" y2="465.02239024254106" stroke="#006340" stroke-width="1"/><rect x="374.6" y="457.5954545405141" width="13.799999999999999" height="2.7284289701659645" fill="#006340"/><line x1="404.5" y1="426.7833153575914" x2="404.5" y2="465.74416220419585" stroke="#006340" stroke-width="1"/><rect x="397.6" y="431.9357593871409" width="13.799999999999999" height="25.659695153373207" fill="#006340"/><line x1="427.5" y1="393.72408398247984" x2="427.5" y2="444.5078637932412" stroke="#006340" stroke-width="1"/><rect x="420.6" y="398.74295656735717" width="13.799999999999999" height="33.19280281978371" fill="#006340"/><line x1="450.5" y1="385.1086776353848" x2="450.5" y2="406.7588640494441" stroke="#006340" stroke-width="1"/><rect x="443.6" y="394.59553513069034" width="13.799999999999999" height="4.147421436666832" fill="#006340"/><line x1="473.5" y1="370.2604631251372" x2="473.5" y2="409.09151819622275" stroke="#006340" stroke-width="1"/><rect x="466.6" y="376.28935350707735" width="13.799999999999999" height="18.306181623612986" fill="#006340"/><line x1="496.5" y1="367.12879689108166" x2="496.5" y2="397.51332602053594" stroke="#A02128" stroke-width="1"/><rect x="489.6" y="376.28935350707735" width="13.799999999999999" height="7.553180819436591" fill="#A02128"/><line x1="519.5" y1="342.5304479366468" x2="519.5" y2="387.61234116193305" stroke="#006340" stroke-width="1"/><rect x="512.6" y="350.291613723156" width="13.799999999999999" height="33.55092060335795" fill="#006340"/><line x1="542.5" y1="318.4456696310908" x2="542.5" y2="351.50261623389923" stroke="#006340" stroke-width="1"/><rect x="535.6" y="329.2942932517758" width="13.799999999999999" height="20.997320471380192" fill="#006340"/><line x1="565.5" y1="314.2359359996168" x2="565.5" y2="336.58061312889623" stroke="#A02128" stroke-width="1"/><rect x="558.6" y="329.2942932517758" width="13.799999999999999" height="2.1138675717818387" fill="#A02128"/><line x1="588.5" y1="305.99044161227124" x2="588.5" y2="337.61125456301835" stroke="#006340" stroke-width="1"/><rect x="581.6" y="310.87248503966083" width="13.799999999999999" height="20.535675783896806" fill="#006340"/><line x1="611.5" y1="296.24956168717057" x2="611.5" y2="315.70077429114883" stroke="#006340" stroke-width="1"/><rect x="604.6" y="306.0457964143125" width="13.799999999999999" height="4.826688625348311" fill="#006340"/><line x1="634.5" y1="277.4514114336169" x2="634.5" y2="319.39855126632085" stroke="#006340" stroke-width="1"/><rect x="627.6" y="292.08747531418635" width="13.799999999999999" height="13.95832110012617" fill="#006340"/><line x1="657.5" y1="279.2832289569165" x2="657.5" y2="310.2560291997612" stroke="#A02128" stroke-width="1"/><rect x="650.6" y="292.08747531418635" width="13.799999999999999" height="10.295143602948144" fill="#A02128"/><line x1="680.5" y1="278.8379476908369" x2="680.5" y2="317.11049594036547" stroke="#006340" stroke-width="1"/><rect x="673.6" y="289.59011282366123" width="13.799999999999999" height="12.792506093473264" fill="#006340"/><line x1="703.5" y1="251.70184535562032" x2="703.5" y2="298.66240084182334" stroke="#006340" stroke-width="1"/><rect x="696.6" y="261.6238564243305" width="13.799999999999999" height="27.966256399330746" fill="#006340"/><line x1="726.5" y1="252.49915128841843" x2="726.5" y2="286.6891542442525" stroke="#A02128" stroke-width="1"/><rect x="719.6" y="261.6238564243305" width="13.799999999999999" height="10.636422701710728" fill="#A02128"/><line x1="749.5" y1="258.32470922544513" x2="749.5" y2="283.58242107976884" stroke="#006340" stroke-width="1"/><rect x="742.6" y="261.1413518751362" width="13.799999999999999" height="11.118927250905017" fill="#006340"/><line x1="772.5" y1="252.88238830435358" x2="772.5" y2="269.6563954872834" stroke="#A02128" stroke-width="1"/><rect x="765.6" y="261.1413518751362" width="13.799999999999999" height="3.8545144344472533" fill="#A02128"/><line x1="795.5" y1="221.33167382717937" x2="795.5" y2="266.7283982691431" stroke="#006340" stroke-width="1"/><rect x="788.6" y="232.3407327592576" width="13.799999999999999" height="32.65513355032584" fill="#006340"/><line x1="818.5" y1="213.5685636604029" x2="818.5" y2="244.72406155745074" stroke="#006340" stroke-width="1"/><rect x="811.6" y="226.6822865428698" width="13.799999999999999" height="5.6584462163878015" fill="#006340"/><line x1="841.5" y1="177.54857231835194" x2="841.5" y2="236.0712705965209" stroke="#006340" stroke-width="1"/><rect x="834.6" y="193.6824252573868" width="13.799999999999999" height="32.99986128548301" fill="#006340"/><line x1="864.5" y1="176.68652005799873" x2="864.5" y2="205.21591012684775" stroke="#006340" stroke-width="1"/><rect x="857.6" y="188.12357735924752" width="13.799999999999999" height="5.558847898139277" fill="#006340"/><line x1="887.5" y1="174.00813525839385" x2="887.5" y2="202.82526190225155" stroke="#A02128" stroke-width="1"/><rect x="880.6" y="188.12357735924752" width="13.799999999999999" height="9.680979288829974" fill="#A02128"/><line x1="910.5" y1="192.08669025750714" x2="910.5" y2="216.08857495353436" stroke="#A02128" stroke-width="1"/><rect x="903.6" y="197.8045566480775" width="13.799999999999999" height="6.618992281995929" fill="#A02128"/><line x1="933.5" y1="154.90386096216872" x2="933.5" y2="214.89548692141767" stroke="#006340" stroke-width="1"/><rect x="926.6" y="171.62279209934258" width="13.799999999999999" height="32.80075683073085" fill="#006340"/><line x1="956.5" y1="169.24639543484238" x2="956.5" y2="174.55883725473063" stroke="#A02128" stroke-width="1"/><rect x="949.6" y="171.62279209934258" width="13.799999999999999" height="2.2213827185165655" fill="#A02128"/><line x1="979.5" y1="127.3927362290982" x2="979.5" y2="176.24759663530995" stroke="#006340" stroke-width="1"/><rect x="972.6" y="140.16738643546563" width="13.799999999999999" height="33.67678838239351" fill="#006340"/><line x1="1002.5" y1="106.51337470562805" x2="1002.5" y2="145.3588016840219" stroke="#006340" stroke-width="1"/><rect x="995.6" y="106.55337386054623" width="13.799999999999999" height="33.6140125749194" fill="#006340"/><line x1="1025.5" y1="85.57549670704759" x2="1025.5" y2="114.14109689283646" stroke="#006340" stroke-width="1"/><rect x="1018.6" y="92.02625403357456" width="13.799999999999999" height="14.52711982697167" fill="#006340"/><line x1="1048.5" y1="66.37745010636286" x2="1048.5" y2="94.38299808540557" stroke="#006340" stroke-width="1"/><rect x="1041.6" y="79.34396732346045" width="13.799999999999999" height="12.682286710114113" fill="#006340"/><line x1="1071.5" y1="76.72125630601045" x2="1071.5" y2="80.88979844921641" stroke="#006340" stroke-width="1"/><rect x="1064.6" y="77.30996709335147" width="13.799999999999999" height="2.0340002301089726" fill="#006340"/><line x1="1094.5" y1="73.80960298322043" x2="1094.5" y2="91.06028817655658" stroke="#A02128" stroke-width="1"/><rect x="1087.6" y="77.30996709335147" width="13.799999999999999" height="10.980699014608035" fill="#A02128"/><line x1="1117.5" y1="37.840735431848316" x2="1117.5" y2="103.24462658264065" stroke="#006340" stroke-width="1"/><rect x="1110.6" y="53.24218994121247" width="13.799999999999999" height="35.04847616674704" fill="#006340"/><line x1="1140.5" y1="24" x2="1140.5" y2="69.84613134025642" stroke="#006340" stroke-width="1"/><rect x="1133.6" y="29.42045912629851" width="13.799999999999999" height="23.821730814913963" fill="#006340"/>
</svg>