<svg xmlns="http://www.w3.org/2000/svg" width="1200" height="700">
  <rect width="100%" height="100%" fill="#0d1117"/>
  <line x1="48" y1="24" x2="1152" y2="24" stroke="#21262d" stroke-width="1"/><line x1="48" y1="181" x2="1152" y2="181" stroke="#21262d" stroke-width="1"/><line x1="48" y1="338" x2="1152" y2="338" stroke="#21262d" stroke-width="1"/><line x1="48" y1="495" x2="1152" y2="495" stroke="#21262d" stroke-width="1"/><line x1="48" y1="652" x2="1152" y2="652" stroke="#21262d" stroke-width="1"/>
  <line x1="59.5" y1="640.5079514113854" x2="59.5" y2="643.8644136043905" stroke="#A02128" stroke-width="1"/><rect x="52.6" y="643.4862847394593" width="13.799999999999999" height="1" fill="#A02128"/><line x1="82.5" y1="618.642376849101" x2="82.5" y2="652" stroke="#006340" stroke-width="1"/><rect x="75.6" y="619.8918946949651" width="13.799999999999999" height="23.642268294225005" fill="#006340"/><line x1="105.5" y1="598.8000159197325" x2="105.5" y2="622.5715323905765" stroke="#006340" stroke-width="1"/><rect x="98.6" y="607.3529272971916" width="13.799999999999999" height="12.53896739777349" fill="#006340"/><line x1="128.5" y1="596.4702722257164" x2="128.5" y2="612.4477908205208" stroke="#006340" stroke-width="1"/><rect x="121.6" y="602.4482811559814" width="13.799999999999999" height="4.904646141210264" fill="#006340"/><line x1="151.5" y1="588.4011656333029" x2="151.5" y2="603.3467972694801" stroke="#006340" stroke-width="1"/><rect x="144.6" y="594.8663157821607" width="13.799999999999999" height="7.581965373820708" fill="#006340"/><line x1="174.5" y1="575.7513130654597" x2="174.5" y2="603.505491265836" stroke="#006340" stroke-width="1"/><rect x="167.6" y="590.4840540127359" width="13.799999999999999" height="4.382261769424758" fill="#006340"/><line x1="197.5" y1="581.7382642168164" x2="197.5" y2="606.1685744637734" stroke="#A02128" stroke-width="1"/><rect x="190.6" y="590.4840540127359" width="13.799999999999999" height="6.249094149634971" fill="#A02128"/><line x1="220.5" y1="565.0730094925616" x2="220.5" y2="612.1269248789704" stroke="#006340" stroke-width="1"/><rect x="213.6" y="578.9003009835069" width="13.799999999999999" height="17.83284717886397" fill="#006340"/><line x1="243.5" y1="539.8757954046622" x2="243.5" y2="593.1809835253766" stroke="#006340" stroke-width="1"/><rect x="236.6" y="549.7382676136774" width="13.799999999999999" height="29.162033369829487" fill="#006340"/><line x1="266.5" y1="523.7190943110554" x2="266.5" y2="558.48918842647" stroke="#006340" stroke-width="1"/><rect x="259.6" y="538.8266813153327" width="13.799999999999999" height="10.911586298344673" fill="#006340"/><line x1="289.5" y1="506.16359414113106" x2="289.5" y2="549.4230630728971" stroke="#006340" stroke-width="1"/><rect x="282.6" y="519.0330785077185" width="13.799999999999999" height="19.793602807614207" fill="#006340"/><line x1="312.5" y1="498.5392383818696" x2="312.5" y2="526.0474936641457" stroke="#006340" stroke-width="1"/><rect x="305.6" y="507.1874379914981" width="13.799999999999999" height="11.845640516220442" fill="#006340"/><line x1="335.5" y1="504.6218789122934" x2="335.5" y2="524.2951774972398" stroke="#A02128" stroke-width="1"/><rect x="328.6" y="507.1874379914981" width="13.799999999999999" height="6.661599995395591" fill="#A02128"/><line x1="358.5" y1="500.2363535296972" x2="358.5" y2="520.1714532611107" stroke="#006340" stroke-width="1"/><rect x="351.6" y="502.4413514718028" width="13.799999999999999" height="11.407686515090859" fill="#006340"/><line x1="381.5" y1="489.2198050318555" x2="381.5" y2="510.305230633509" stroke="#A02128" stroke-width="1"/><rect x="374.6" y="502.4413514718028" width="13.799999999999999" height="7.505198258956" fill="#A02128"/><line x1="404.5" y1="474.2602850173927" x2="404.5" y2="521.2370707088387" stroke="#006340" stroke-width="1"/><rect x="397.6" y="484.28871412784974" width="13.799999999999999" height="25.657835602909074" fill="#006340"/><line x1="427.5" y1="446.11735351352024" x2="427.5" y2="497.6312896529772" stroke="#006340" stroke-width="1"/><rect x="420.6" y="449.0900870394358" width="13.799999999999999" height="35.19862708841396" fill="#006340"/><line x1="450.5" y1="413.98154518215307" x2="450.5" y2="450.4798594804762" stroke="#006340" stroke-width="1"/><rect x="443.6" y="420.77853901462765" width="13.799999999999999" height="28.311548024808133" fill="#006340"/><line x1="473.5" y1="403.155939841423" x2="473.5" y2="426.2325332268976" stroke="#006340" stroke-width="1"/><rect x="466.6" y="418.2614580823149" width="13.799999999999999" height="2.5170809323127514" fill="#006340"/><line x1="496.5" y1="414.0745119840516" x2="496.5" y2="433.02005099977055" stroke="#006340" stroke-width="1"/><rect x="489.6" y="417.64402753546904" width="13.799999999999999" height="1" fill="#006340"/><line x1="519.5" y1="412.8592659329554" x2="519.5" y2="435.1256909362134" stroke="#A02128" stroke-width="1"/><rect x="512.6" y="417.64402753546904" width="13.799999999999999" height="6.957197031436635" fill="#A02128"/><line x1="542.5" y1="416.32310770359936" x2="542.5" y2="436.0480604739514" stroke="#006340" stroke-width="1"/><rect x="535.6" y="417.5489956399932" width="13.799999999999999" height="7.0522289269124485" fill="#006340"/><line x1="565.5" y1="397.03988107487845" x2="565.5" y2="433.26744221271247" stroke="#006340" stroke-width="1"/><rect x="558.6" y="402.4109172631951" width="13.799999999999999" height="15.138078376798148" fill="#006340"/><line x1="588.5" y1="381.56360588609334" x2="588.5" y2="417.5324539917991" stroke="#006340" stroke-width="1"/><rect x="581.6" y="390.82134083338" width="13.799999999999999" height="11.589576429815054" fill="#006340"/><line x1="611.5" y1="363.14405948739005" x2="611.5" y2="402.23001414464613" stroke="#006340" stroke-width="1"/><rect x="604.6" y="363.39143913179515" width="13.799999999999999" height="27.429901701584868" fill="#006340"/><line x1="634.5" y1="348.49840641364113" x2="634.5" y2="369.2201568130786" stroke="#A02128" stroke-width="1"/><rect x="627.6" y="363.39143913179515" width="13.799999999999999" height="1" fill="#A02128"/><line x1="657.5" y1="337.45755101575133" x2="657.5" y2="365.90758850064503" stroke="#006340" stroke-width="1"/><rect x="650.6" y="347.4577583325318" width="13.799999999999999" height="16.92637337619385" fill="#006340"/><line x1="680.5" y1="312.4223325061796" x2="680.5" y2="347.8792491199183" stroke="#006340" stroke-width="1"/><rect x="673.6" y="315.10821964513207" width="13.799999999999999" height="32.34953868739973" fill="#006340"/><line x1="703.5" y1="289.50122021939853" x2="703.5" y2="316.8820299072276" stroke="#006340" stroke-width="1"/><rect x="696.6" y="304.4000320051284" width="13.799999999999999" height="10.708187640003644" fill="#006340"/><line x1="726.5" y1="264.76575969513146" x2="726.5" y2="313.10370074758015" stroke="#006340" stroke-width="1"/><rect x="719.6" y="275.6398658702716" width="13.799999999999999" height="28.76016613485683" fill="#006340"/><line x1="749.5" y1="252.22901540487862" x2="749.5" y2="283.71062883815597" stroke="#006340" stroke-width="1"/><rect x="742.6" y="260.5756629590791" width="13.799999999999999" height="15.064202911192467" fill="#006340"/><line x1="772.5" y1="232.98019465402172" x2="772.5" y2="265.7445746498692" stroke="#006340" stroke-width="1"/><rect x="765.6" y="240.433621953093" width="13.799999999999999" height="20.14204100598613" fill="#006340"/><line x1="795.5" y1="235.54279526090266" x2="795.5" y2="267.47981998919096" stroke="#A02128" stroke-width="1"/><rect x="788.6" y="240.433621953093" width="13.799999999999999" height="10.384532499858892" fill="#A02128"/><line x1="818.5" y1="244.42454761114487" x2="818.5" y2="268.64423442906576" stroke="#A02128" stroke-width="1"/><rect x="811.6" y="250.8181544529519" width="13.799999999999999" height="2.768949216894839" fill="#A02128"/><line x1="841.5" y1="246.90362774029978" x2="841.5" y2="273.11836379675384" stroke="#A02128" stroke-width="1"/><rect x="834.6" y="253.58710366984673" width="13.799999999999999" height="10.109212824691838" fill="#A02128"/><line x1="864.5" y1="220.39611199482061" x2="864.5" y2="269.9435112106455" stroke="#006340" stroke-width="1"/><rect x="857.6" y="233.09850871967473" width="13.799999999999999" height="30.59780777486384" fill="#006340"/><line x1="887.5" y1="232.44749507827646" x2="887.5" y2="251.26106936225926" stroke="#A02128" stroke-width="1"/><rect x="880.6" y="233.09850871967473" width="13.799999999999999" height="5.638764446691425" fill="#A02128"/><line x1="910.5" y1="236.6682866975811" x2="910.5" y2="258.9023496147024" stroke="#A02128" stroke-width="1"/><rect x="903.6" y="238.73727316636615" width="13.799999999999999" height="7.845657068730645" fill="#A02128"/><line x1="933.5" y1="225.18018029799515" x2="933.5" y2="250.19854652604658" stroke="#006340" stroke-width="1"/><rect x="926.6" y="234.26284291589474" width="13.799999999999999" height="12.32008731920206" fill="#006340"/><line x1="956.5" y1="226.73477452104157" x2="956.5" y2="246.60818609671753" stroke="#A02128" stroke-width="1"/><rect x="949.6" y="234.26284291589474" width="13.799999999999999" height="12.18343580118949" fill="#A02128"/><line x1="979.5" y1="207.78469441173866" x2="979.5" y2="248.89699082620444" stroke="#006340" stroke-width="1"/><rect x="972.6" y="224.66692916790538" width="13.799999999999999" height="21.779349549178846" fill="#006340"/><line x1="1002.5" y1="181.61040709918854" x2="1002.5" y2="231.8377625303416" stroke="#006340" stroke-width="1"/><rect x="995.6" y="195.03502610376995" width="13.799999999999999" height="29.63190306413543" fill="#006340"/><line x1="1025.5" y1="147.41035227041203" x2="1025.5" y2="201.4762671691651" stroke="#006340" stroke-width="1"/><rect x="1018.6" y="162.0199595664896" width="13.799999999999999" height="33.01506653728035" fill="#006340"/><line x1="1048.5" y1="120.86194517883985" x2="1048.5" y2="168.25689259982067" stroke="#006340" stroke-width="1"/><rect x="1041.6" y="124.77432103476553" width="13.799999999999999" height="37.24563853172407" fill="#006340"/><line x1="1071.5" y1="104.54946960479356" x2="1071.5" y2="133.75214149578005" stroke="#006340" stroke-width="1"/><rect x="1064.6" y="109.01467808269058" width="13.799999999999999" height="15.759642952074955" fill="#006340"/><line x1="1094.5" y1="75.26267275385283" x2="1094.5" y2="110.76589072364163" stroke="#006340" stroke-width="1"/><rect x="1087.6" y="82.67486833018756" width="13.799999999999999" height="26.339809752503015" fill="#006340"/><line x1="1117.5" y1="30.51420698303957" x2="1117.5" y2="96.85619670909023" stroke="#006340" stroke-width="1"/><rect x="1110.6" y="47.82845836811896" width="13.799999999999999" height="34.846409962068606" fill="#006340"/><line x1="1140.5" y1="24" x2="1140.5" y2="63.523375183343774" stroke="#006340" stroke-width="1"/><rect x="1133.6" y="25.738756285498766" width="13.799999999999999" height="22.089702082620192" fill="#006340"/>
</svg>