<svg xmlns="http://www.w3.org/2000/svg" width="1200" height="700">
  <rect width="100%" height="100%" fill="#0d1117"/>
  <line x1="48" y1="24" x2="1152" y2="24" stroke="#21262d" stroke-width="1"/><line x1="48" y1="181" x2="1152" y2="181" stroke="#21262d" stroke-width="1"/><line x1="48" y1="338" x2="1152" y2="338" stroke="#21262d" stroke-width="1"/><line x1="48" y1="495" x2="1152" y2="495" stroke="#21262d" stroke-width="1"/><line x1="48" y1="652" x2="1152" y2="652" stroke="#21262d" stroke-width="1"/>
  <line x1="59.5" y1="31.114640124874086" x2="59.5" y2="166.56565014133565" stroke="#006340" stroke-width="1"/><rect x="52.6" y="60.455210246477805" width="13.799999999999999" height="63.350397292992625" fill="#006340"/><line x1="82.5" y1="47.02693916176656" x2="82.5" y2="171.96788303207774" stroke="#A02128" stroke-width="1"/><rect x="75.6" y="60.455210246477805" width="13.799999999999999" height="62.63234638527888" fill="#A02128"/><line x1="105.5" y1="52.61294186647444" x2="105.5" y2="158.57081141630152" stroke="#006340" stroke-width="1"/><rect x="98.6" y="99.53000941182347" width="13.799999999999999" height="23.557547219933213" fill="#006340"/><line x1="128.5" y1="81.29605377851817" x2="128.5" y2="142.43107661424472" stroke="#006340" stroke-width="1"/><rect x="121.6" y="96.9507278080564" width="13.799999999999999" height="2.579281603767072" fill="#006340"/><line x1="151.5" y1="60.79172049879412" x2="151.5" y2="122.20107834194334" stroke="#006340" stroke-width="1"/><rect x="144.6" y="96.68524616753689" width="13.799999999999999" height="1" fill="#006340"/><line x1="174.5" y1="24.83172738314329" x2="174.5" y2="134.59974962369904" stroke="#006340" stroke-width="1"/><rect x="167.6" y="35.42700882970382" width="13.799999999999999" height="61.258237337833066" fill="#006340"/><line x1="197.5" y1="24" x2="197.5" y2="104.31396619764666" stroke="#A02128" stroke-width="1"/><rect x="190.6" y="35.42700882970382" width="13.799999999999999" height="59.23154297514611" fill="#A02128"/><line x1="220.5" y1="52.040903768569024" x2="220.5" y2="155.44094718265308" stroke="#A02128" stroke-width="1"/><rect x="213.6" y="94.65855180484994" width="13.799999999999999" height="19.118474590880965" fill="#A02128"/><line x1="243.5" y1="86.45706934465079" x2="243.5" y2="198.57695078203034" stroke="#A02128" stroke-width="1"/><rect x="236.6" y="113.7770263957309" width="13.799999999999999" height="52.21322922179303" fill="#A02128"/><line x1="266.5" y1="131.4626406253069" x2="266.5" y2="215.52612451836592" stroke="#A02128" stroke-width="1"/><rect x="259.6" y="165.99025561752393" width="13.799999999999999" height="31.8288437153264" fill="#A02128"/><line x1="289.5" y1="187.26683549062415" x2="289.5" y2="273.2038620052869" stroke="#A02128" stroke-width="1"/><rect x="282.6" y="197.81909933285033" width="13.799999999999999" height="58.214153119168714" fill="#A02128"/><line x1="312.5" y1="183.834174595928" x2="312.5" y2="268.8977017160956" stroke="#006340" stroke-width="1"/><rect x="305.6" y="210.59329888640121" width="13.799999999999999" height="45.43995356561783" fill="#006340"/><line x1="335.5" y1="133.35241710015384" x2="335.5" y2="229.81130277749008" stroke="#006340" stroke-width="1"/><rect x="328.6" y="170.77650148377177" width="13.799999999999999" height="39.81679740262945" fill="#006340"/><line x1="358.5" y1="96.02871621428483" x2="358.5" y2="201.91464103066943" stroke="#006340" stroke-width="1"/><rect x="351.6" y="134.3634381674858" width="13.799999999999999" height="36.41306331628596" fill="#006340"/><line x1="381.5" y1="130.3989709991389" x2="381.5" y2="218.37539148050348" stroke="#A02128" stroke-width="1"/><rect x="374.6" y="134.3634381674858" width="13.799999999999999" height="61.89186440923601" fill="#A02128"/><line x1="404.5" y1="193.3154690762873" x2="404.5" y2="269.07266200646166" stroke="#A02128" stroke-width="1"/><rect x="397.6" y="196.25530257672182" width="13.799999999999999" height="25.951459721649485" fill="#A02128"/><line x1="427.5" y1="176.17596882714093" x2="427.5" y2="232.94079085774786" stroke="#A02128" stroke-width="1"/><rect x="420.6" y="222.2067622983713" width="13.799999999999999" height="1" fill="#A02128"/><line x1="450.5" y1="221.88548369340674" x2="450.5" y2="313.7190633513527" stroke="#A02128" stroke-width="1"/><rect x="443.6" y="222.46237024756044" width="13.799999999999999" height="67.31387151799481" fill="#A02128"/><line x1="473.5" y1="245.12822278746535" x2="473.5" y2="348.78170540460604" stroke="#A02128" stroke-width="1"/><rect x="466.6" y="289.77624176555526" width="13.799999999999999" height="26.874005204713512" fill="#A02128"/><line x1="496.5" y1="218.9797425892816" x2="496.5" y2="343.18549970652754" stroke="#006340" stroke-width="1"/><rect x="489.6" y="249.94826730471942" width="13.799999999999999" height="66.70197966554935" fill="#006340"/><line x1="519.5" y1="227.72658008366068" x2="519.5" y2="297.64254499757243" stroke="#A02128" stroke-width="1"/><rect x="512.6" y="249.94826730471942" width="13.799999999999999" height="12.810482299743398" fill="#A02128"/><line x1="542.5" y1="238.3358026566359" x2="542.5" y2="304.7462809140014" stroke="#006340" stroke-width="1"/><rect x="535.6" y="240.77167002594592" width="13.799999999999999" height="21.987079578516898" fill="#006340"/><line x1="565.5" y1="229.11819324626816" x2="565.5" y2="280.7951907233357" stroke="#A02128" stroke-width="1"/><rect x="558.6" y="240.77167002594592" width="13.799999999999999" height="13.874740690234205" fill="#A02128"/><line x1="588.5" y1="210.43192938616153" x2="588.5" y2="333.27835101519287" stroke="#A02128" stroke-width="1"/><rect x="581.6" y="254.64641071618013" width="13.799999999999999" height="72.84205366009667" fill="#A02128"/><line x1="611.5" y1="275.9727359732674" x2="611.5" y2="330.29250181226126" stroke="#006340" stroke-width="1"/><rect x="604.6" y="324.50426480846295" width="13.799999999999999" height="2.984199567813846" fill="#006340"/><line x1="634.5" y1="287.4152571724361" x2="634.5" y2="406.27929804235305" stroke="#A02128" stroke-width="1"/><rect x="627.6" y="324.50426480846295" width="13.799999999999999" height="61.13383973347834" fill="#A02128"/><line x1="657.5" y1="383.7938282148656" x2="657.5" y2="457.72982360614174" stroke="#A02128" stroke-width="1"/><rect x="650.6" y="385.6381045419413" width="13.799999999999999" height="34.663418632956905" fill="#A02128"/><line x1="680.5" y1="328.25473393212945" x2="680.5" y2="423.077829789466" stroke="#006340" stroke-width="1"/><rect x="673.6" y="353.1090596912876" width="13.799999999999999" height="67.1924634836106" fill="#006340"/><line x1="703.5" y1="339.7901992608314" x2="703.5" y2="431.70660595794624" stroke="#A02128" stroke-width="1"/><rect x="696.6" y="353.1090596912876" width="13.799999999999999" height="55.890248966088734" fill="#A02128"/><line x1="726.5" y1="362.2693129667335" x2="726.5" y2="419.61701557920105" stroke="#A02128" stroke-width="1"/><rect x="719.6" y="408.99930865737633" width="13.799999999999999" height="7.810410654383247" fill="#A02128"/><line x1="749.5" y1="342.6566464635964" x2="749.5" y2="417.440802723616" stroke="#006340" stroke-width="1"/><rect x="742.6" y="352.1155697736431" width="13.799999999999999" height="64.6941495381165" fill="#006340"/><line x1="772.5" y1="304.0576372585859" x2="772.5" y2="394.0225410504669" stroke="#006340" stroke-width="1"/><rect x="765.6" y="337.95669358684813" width="13.799999999999999" height="14.158876186794942" fill="#006340"/><line x1="795.5" y1="295.68644997088535" x2="795.5" y2="436.9752565212902" stroke="#A02128" stroke-width="1"/><rect x="788.6" y="337.95669358684813" width="13.799999999999999" height="55.22198034277761" fill="#A02128"/><line x1="818.5" y1="377.0890293725012" x2="818.5" y2="424.9627668499395" stroke="#006340" stroke-width="1"/><rect x="811.6" y="388.45578740257855" width="13.799999999999999" height="4.722886527047194" fill="#006340"/><line x1="841.5" y1="306.0030236783205" x2="841.5" y2="427.0695777163135" stroke="#006340" stroke-width="1"/><rect x="834.6" y="326.15178178145453" width="13.799999999999999" height="62.30400562112402" fill="#006340"/><line x1="864.5" y1="320.48584946687714" x2="864.5" y2="408.45684435433395" stroke="#A02128" stroke-width="1"/><rect x="857.6" y="326.15178178145453" width="13.799999999999999" height="34.06869812052736" fill="#A02128"/><line x1="887.5" y1="320.93125548137044" x2="887.5" y2="420.8704771388858" stroke="#A02128" stroke-width="1"/><rect x="880.6" y="360.2204799019819" width="13.799999999999999" height="59.74980376288249" fill="#A02128"/><line x1="910.5" y1="412.66039268004965" x2="910.5" y2="462.262199611303" stroke="#A02128" stroke-width="1"/><rect x="903.6" y="419.9702836648644" width="13.799999999999999" height="26.96407035114271" fill="#A02128"/><line x1="933.5" y1="405.05532245907943" x2="933.5" y2="528.1588320290939" stroke="#A02128" stroke-width="1"/><rect x="926.6" y="446.9343540160071" width="13.799999999999999" height="46.17431547800538" fill="#A02128"/><line x1="956.5" y1="468.68878325984815" x2="956.5" y2="571.5209792876472" stroke="#A02128" stroke-width="1"/><rect x="949.6" y="493.1086694940125" width="13.799999999999999" height="40.20964228781713" fill="#A02128"/><line x1="979.5" y1="499.38131098808515" x2="979.5" y2="548.5665061151407" stroke="#006340" stroke-width="1"/><rect x="972.6" y="513.2607269788839" width="13.799999999999999" height="20.057584802945712" fill="#006340"/><line x1="1002.5" y1="504.8834158929013" x2="1002.5" y2="572.557027659925" stroke="#A02128" stroke-width="1"/><rect x="995.6" y="513.2607269788839" width="13.799999999999999" height="23.03936457603254" fill="#A02128"/><line x1="1025.5" y1="488.11477183138913" x2="1025.5" y2="583.3233116968995" stroke="#A02128" stroke-width="1"/><rect x="1018.6" y="536.3000915549164" width="13.799999999999999" height="19.434048993880424" fill="#A02128"/><line x1="1048.5" y1="474.2840187804276" x2="1048.5" y2="560.351308969302" stroke="#006340" stroke-width="1"/><rect x="1041.6" y="512.829680871664" width="13.799999999999999" height="42.90445967713288" fill="#006340"/><line x1="1071.5" y1="478.99181499651803" x2="1071.5" y2="603.3128274534972" stroke="#A02128" stroke-width="1"/><rect x="1064.6" y="512.829680871664" width="13.799999999999999" height="48.52252399267695" fill="#A02128"/><line x1="1094.5" y1="521.2300968970044" x2="1094.5" y2="644.2313132652529" stroke="#A02128" stroke-width="1"/><rect x="1087.6" y="561.3522048643409" width="13.799999999999999" height="68.31463094634853" fill="#A02128"/><line x1="1117.5" y1="594.4169095268035" x2="1117.5" y2="642.000811668286" stroke="#006340" stroke-width="1"/><rect x="1110.6" y="627.5901699012915" width="13.799999999999999" height="2.0766659093980024" fill="#006340"/><line x1="1140.5" y1="564.700531895971" x2="1140.5" y2="652" stroke="#006340" stroke-width="1"/><rect x="1133.6" y="603.3596480563109" width="13.799999999999999" height="24.230521844980558" fill="#006340"/>
</svg>