<svg xmlns="http://www.w3.org/2000/svg" width="1200" height="700">
  <rect width="100%" height="100%" fill="#0d1117"/>
  <line x1="48" y1="24" x2="1152" y2="24" stroke="#21262d" stroke-width="1"/><line x1="48" y1="181" x2="1152" y2="181" stroke="#21262d" stroke-width="1"/><line x1="48" y1="338" x2="1152" y2="338" stroke="#21262d" stroke-width="1"/><line x1="48" y1="495" x2="1152" y2="495" stroke="#21262d" stroke-width="1"/><line x1="48" y1="652" x2="1152" y2="652" stroke="#21262d" stroke-width="1"/>
  <line x1="59.5" y1="286.7047491350164" x2="59.5" y2="439.09412153094485" stroke="#006340" stroke-width="1"/><rect x="52.6" y="291.2638433091552" width="13.799999999999999" height="78.57902307835616" fill="#006340"/><line x1="82.5" y1="254.64684532673272" x2="82.5" y2="321.581800242919" stroke="#006340" stroke-width="1"/><rect x="75.6" y="265.1575398310104" width="13.799999999999999" height="26.10630347814481" fill="#006340"/><line x1="105.5" y1="191.3618098142304" x2="105.5" y2="408.87235114609564" stroke="#A02128" stroke-width="1"/><rect x="98.6" y="265.1575398310104" width="13.799999999999999" height="87.71201616853403" fill="#A02128"/><line x1="128.5" y1="312.32064626856953" x2="128.5" y2="451.4006298827421" stroke="#A02128" stroke-width="1"/><rect x="121.6" y="352.86955599954445" width="13.799999999999999" height="84.87869369862119" fill="#A02128"/><line x1="151.5" y1="370.08631916911435" x2="151.5" y2="527.6306749114457" stroke="#A02128" stroke-width="1"/><rect x="144.6" y="437.74824969816564" width="13.799999999999999" height="42.827198858394866" fill="#A02128"/><line x1="174.5" y1="440.97547421521415" x2="174.5" y2="652" stroke="#A02128" stroke-width="1"/><rect x="167.6" y="480.5754485565605" width="13.799999999999999" height="98.61452216628385" fill="#A02128"/><line x1="197.5" y1="418.9930832484447" x2="197.5" y2="635.7881155546852" stroke="#006340" stroke-width="1"/><rect x="190.6" y="466.98393959721585" width="13.799999999999999" height="112.2060311256285" fill="#006340"/><line x1="220.5" y1="289.64642305203716" x2="220.5" y2="518.0427366125709" stroke="#006340" stroke-width="1"/><rect x="213.6" y="364.3922257256261" width="13.799999999999999" height="102.59171387158977" fill="#006340"/><line x1="243.5" y1="244.4286923741294" x2="243.5" y2="393.75132441735246" stroke="#006340" stroke-width="1"/><rect x="236.6" y="314.7277828378791" width="13.799999999999999" height="49.664442887746986" fill="#006340"/><line x1="266.5" y1="201.23740151979155" x2="266.5" y2="324.4807488993239" stroke="#006340" stroke-width="1"/><rect x="259.6" y="255.41139908458774" width="13.799999999999999" height="59.31638375329135" fill="#006340"/><line x1="289.5" y1="190.01266073027836" x2="289.5" y2="306.7212012523871" stroke="#006340" stroke-width="1"/><rect x="282.6" y="218.4669047627138" width="13.799999999999999" height="36.94449432187395" fill="#006340"/><line x1="312.5" y1="198.70675711282706" x2="312.5" y2="249.71072741474154" stroke="#006340" stroke-width="1"/><rect x="305.6" y="215.89737955159023" width="13.799999999999999" height="2.569525211123562" fill="#006340"/><line x1="335.5" y1="108.5917527600999" x2="335.5" y2="239.2531769495186" stroke="#006340" stroke-width="1"/><rect x="328.6" y="116.95120860391842" width="13.799999999999999" height="98.94617094767182" fill="#006340"/><line x1="358.5" y1="40.10995052658154" x2="358.5" y2="182.21965593951097" stroke="#A02128" stroke-width="1"/><rect x="351.6" y="116.95120860391842" width="13.799999999999999" height="20.719753804188827" fill="#A02128"/><line x1="381.5" y1="63.88309721211829" x2="381.5" y2="185.17090271495613" stroke="#A02128" stroke-width="1"/><rect x="374.6" y="137.67096240810724" width="13.799999999999999" height="15.00980162641713" fill="#A02128"/><line x1="404.5" y1="97.10905523877932" x2="404.5" y2="264.0510917415702" stroke="#A02128" stroke-width="1"/><rect x="397.6" y="152.68076403452437" width="13.799999999999999" height="63.54353694008563" fill="#A02128"/><line x1="427.5" y1="171.70257992722065" x2="427.5" y2="329.77030115949174" stroke="#A02128" stroke-width="1"/><rect x="420.6" y="216.22430097461" width="13.799999999999999" height="75.40150903987961" fill="#A02128"/><line x1="450.5" y1="254.4070765061931" x2="450.5" y2="345.86173108463936" stroke="#A02128" stroke-width="1"/><rect x="443.6" y="291.6258100144896" width="13.799999999999999" height="42.144261144137545" fill="#A02128"/><line x1="473.5" y1="183.29215070146466" x2="473.5" y2="356.99419709579536" stroke="#006340" stroke-width="1"/><rect x="466.6" y="256.17710673073844" width="13.799999999999999" height="77.59296442788872" fill="#006340"/><line x1="496.5" y1="214.64384790548297" x2="496.5" y2="327.664270820151" stroke="#006340" stroke-width="1"/><rect x="489.6" y="225.90555130572744" width="13.799999999999999" height="30.271555425011" fill="#006340"/><line x1="519.5" y1="128.29390496273822" x2="519.5" y2="230.43264837995054" stroke="#006340" stroke-width="1"/><rect x="512.6" y="197.5209896528013" width="13.799999999999999" height="28.384561652926152" fill="#006340"/><line x1="542.5" y1="152.13428736979756" x2="542.5" y2="255.29854005472225" stroke="#006340" stroke-width="1"/><rect x="535.6" y="168.89280914771507" width="13.799999999999999" height="28.62818050508622" fill="#006340"/><line x1="565.5" y1="28.25340804765483" x2="565.5" y2="171.69302307729708" stroke="#006340" stroke-width="1"/><rect x="558.6" y="98.21912586797168" width="13.799999999999999" height="70.67368327974339" fill="#006340"/><line x1="588.5" y1="73.32604593467238" x2="588.5" y2="222.52212312913872" stroke="#A02128" stroke-width="1"/><rect x="581.6" y="98.21912586797168" width="13.799999999999999" height="69.94133721568471" fill="#A02128"/><line x1="611.5" y1="37.88006214716518" x2="611.5" y2="209.08416306174712" stroke="#006340" stroke-width="1"/><rect x="604.6" y="79.87701175229438" width="13.799999999999999" height="88.28345133136202" fill="#006340"/><line x1="634.5" y1="24" x2="634.5" y2="162.99089225173623" stroke="#A02128" stroke-width="1"/><rect x="627.6" y="79.87701175229438" width="13.799999999999999" height="57.94521941665812" fill="#A02128"/><line x1="657.5" y1="88.80176328953235" x2="657.5" y2="198.1562780471587" stroke="#A02128" stroke-width="1"/><rect x="650.6" y="137.8222311689525" width="13.799999999999999" height="33.5947821840673" fill="#A02128"/><line x1="680.5" y1="124.24726602726935" x2="680.5" y2="204.48956451266508" stroke="#006340" stroke-width="1"/><rect x="673.6" y="169.45528973365498" width="13.799999999999999" height="1.9617236193648182" fill="#006340"/><line x1="703.5" y1="26.113047943910715" x2="703.5" y2="183.13667200033592" stroke="#006340" stroke-width="1"/><rect x="696.6" y="89.49484908920192" width="13.799999999999999" height="79.96044064445306" fill="#006340"/><line x1="726.5" y1="83.17056224754913" x2="726.5" y2="243.108420195301" stroke="#A02128" stroke-width="1"/><rect x="719.6" y="89.49484908920192" width="13.799999999999999" height="105.57355746662779" fill="#A02128"/><line x1="749.5" y1="152.7638518192992" x2="749.5" y2="203.89574919760082" stroke="#006340" stroke-width="1"/><rect x="742.6" y="164.48869821451763" width="13.799999999999999" height="30.579708341312084" fill="#006340"/><line x1="772.5" y1="115.5794789109176" x2="772.5" y2="290.28675526187124" stroke="#A02128" stroke-width="1"/><rect x="765.6" y="164.48869821451763" width="13.799999999999999" height="71.82891284082444" fill="#A02128"/><line x1="795.5" y1="170.8208704885066" x2="795.5" y2="265.8505084351551" stroke="#006340" stroke-width="1"/><rect x="788.6" y="184.14543587766383" width="13.799999999999999" height="52.17217517767824" fill="#006340"/><line x1="818.5" y1="132.28412290639199" x2="818.5" y2="232.8565402875874" stroke="#006340" stroke-width="1"/><rect x="811.6" y="177.76236764474652" width="13.799999999999999" height="6.38306823291731" fill="#006340"/><line x1="841.5" y1="128.5456663582338" x2="841.5" y2="224.31115161169134" stroke="#A02128" stroke-width="1"/><rect x="834.6" y="177.76236764474652" width="13.799999999999999" height="11.521839249144989" fill="#A02128"/><line x1="864.5" y1="135.82992168376484" x2="864.5" y2="270.30263354134576" stroke="#A02128" stroke-width="1"/><rect x="857.6" y="189.2842068938915" width="13.799999999999999" height="25.184605011520148" fill="#A02128"/><line x1="887.5" y1="164.18594231504926" x2="887.5" y2="340.35528304528697" stroke="#A02128" stroke-width="1"/><rect x="880.6" y="214.46881190541166" width="13.799999999999999" height="51.100816125372035" fill="#A02128"/><line x1="910.5" y1="207.1507791798519" x2="910.5" y2="418.38360277951534" stroke="#A02128" stroke-width="1"/><rect x="903.6" y="265.5696280307837" width="13.799999999999999" height="98.28812885776733" fill="#A02128"/><line x1="933.5" y1="250.0258904842458" x2="933.5" y2="406.13920109571296" stroke="#006340" stroke-width="1"/><rect x="926.6" y="313.97724916252463" width="13.799999999999999" height="49.880507726026394" fill="#006340"/><line x1="956.5" y1="260.05156915897277" x2="956.5" y2="327.84258319444785" stroke="#006340" stroke-width="1"/><rect x="949.6" y="304.12763284336154" width="13.799999999999999" height="9.84961631916309" fill="#006340"/><line x1="979.5" y1="198.6609198723853" x2="979.5" y2="373.45416025050434" stroke="#006340" stroke-width="1"/><rect x="972.6" y="201.85643785552378" width="13.799999999999999" height="102.27119498783776" fill="#006340"/><line x1="1002.5" y1="151.46772653699918" x2="1002.5" y2="224.12287860776746" stroke="#006340" stroke-width="1"/><rect x="995.6" y="193.85772833826678" width="13.799999999999999" height="7.998709517256998" fill="#006340"/><line x1="1025.5" y1="86.29072485422" x2="1025.5" y2="229.6046774223551" stroke="#006340" stroke-width="1"/><rect x="1018.6" y="130.75417851207328" width="13.799999999999999" height="63.1035498261935" fill="#006340"/><line x1="1048.5" y1="97.50896061202627" x2="1048.5" y2="197.348091537889" stroke="#006340" stroke-width="1"/><rect x="1041.6" y="121.77619403245762" width="13.799999999999999" height="8.977984479615657" fill="#006340"/><line x1="1071.5" y1="99.28980198537101" x2="1071.5" y2="217.5622806516467" stroke="#A02128" stroke-width="1"/><rect x="1064.6" y="121.77619403245762" width="13.799999999999999" height="76.76006145513054" fill="#A02128"/><line x1="1094.5" y1="149.45584179559927" x2="1094.5" y2="223.28108695055477" stroke="#A02128" stroke-width="1"/><rect x="1087.6" y="198.53625548758816" width="13.799999999999999" height="21.597059878565403" fill="#A02128"/><line x1="1117.5" y1="217.17735059020788" x2="1117.5" y2="556.3257495046662" stroke="#A02128" stroke-width="1"/><rect x="1110.6" y="220.13331536615357" width="13.799999999999999" height="286.92187603237596" fill="#A02128"/><line x1="1140.5" y1="341.09829972210184" x2="1140.5" y2="573.662347537671" stroke="#006340" stroke-width="1"/><rect x="1133.6" y="356.3255658561878" width="13.799999999999999" height="150.72962554234175" fill="#006340"/>
</svg>