<svg xmlns="http://www.w3.org/2000/svg" width="1200" height="700">
  <rect width="100%" height="100%" fill="#0d1117"/>
  <line x1="48" y1="24" x2="1152" y2="24" stroke="#21262d" stroke-width="1"/><line x1="48" y1="181" x2="1152" y2="181" stroke="#21262d" stroke-width="1"/><line x1="48" y1="338" x2="1152" y2="338" stroke="#21262d" stroke-width="1"/><line x1="48" y1="495" x2="1152" y2="495" stroke="#21262d" stroke-width="1"/><line x1="48" y1="652" x2="1152" y2="652" stroke="#21262d" stroke-width="1"/>
  <line x1="59.5" y1="633.4033904244437" x2="59.5" y2="640.8675218665871" stroke="#A02128" stroke-width="1"/><rect x="52.6" y="635.2393216129202" width="13.799999999999999" height="4.876977375964884" fill="#A02128"/><line x1="82.5" y1="620.0214911746926" x2="82.5" y2="641.8911132955861" stroke="#006340" stroke-width="1"/><rect x="75.6" y="631.8805088377645" width="13.799999999999999" height="8.235790151120568" fill="#006340"/><line x1="105.5" y1="585.6072333605357" x2="105.5" y2="652" stroke="#006340" stroke-width="1"/><rect x="98.6" y="604.0958620360169" width="13.799999999999999" height="27.784646801747613" fill="#006340"/><line x1="128.5" y1="598.2598907030572" x2="128.5" y2="613.655847917642" stroke="#006340" stroke-width="1"/><rect x="121.6" y="602.456966555792" width="13.799999999999999" height="1.63889548022496" fill="#006340"/><line x1="151.5" y1="556.1143660810033" x2="151.5" y2="610.3562292808894" stroke="#006340" stroke-width="1"/><rect x="144.6" y="567.6786568365093" width="13.799999999999999" height="34.778309719282674" fill="#006340"/><line x1="174.5" y1="548.4336451702898" x2="174.5" y2="571.3457488981555" stroke="#006340" stroke-width="1"/><rect x="167.6" y="562.6360011599736" width="13.799999999999999" height="5.042655676535674" fill="#006340"/><line x1="197.5" y1="558.7679804625354" x2="197.5" y2="586.9826662264779" stroke="#A02128" stroke-width="1"/><rect x="190.6" y="562.6360011599736" width="13.799999999999999" height="9.471515565891423" fill="#A02128"/><line x1="220.5" y1="554.9091327699385" x2="220.5" y2="595.0368278047864" stroke="#A02128" stroke-width="1"/><rect x="213.6" y="572.107516725865" width="13.799999999999999" height="20.905040745677525" fill="#A02128"/><line x1="243.5" y1="561.2665149782407" x2="243.5" y2="609.032188332566" stroke="#006340" stroke-width="1"/><rect x="236.6" y="581.9251942196574" width="13.799999999999999" height="11.087363251885108" fill="#006340"/><line x1="266.5" y1="550.6991081046045" x2="266.5" y2="593.0737904400592" stroke="#006340" stroke-width="1"/><rect x="259.6" y="568.0259935306599" width="13.799999999999999" height="13.899200688997553" fill="#006340"/><line x1="289.5" y1="517.8886835189359" x2="289.5" y2="569.2798398357327" stroke="#006340" stroke-width="1"/><rect x="282.6" y="536.8274144361358" width="13.799999999999999" height="31.19857909452412" fill="#006340"/><line x1="312.5" y1="499.9306630409168" x2="312.5" y2="550.1151113529531" stroke="#006340" stroke-width="1"/><rect x="305.6" y="513.476906843879" width="13.799999999999999" height="23.350507592256804" fill="#006340"/><line x1="335.5" y1="476.5565246004982" x2="335.5" y2="513.7332376662533" stroke="#006340" stroke-width="1"/><rect x="328.6" y="485.74151567976946" width="13.799999999999999" height="27.7353911641095" fill="#006340"/><line x1="358.5" y1="471.58651808269246" x2="358.5" y2="520.846807428022" stroke="#A02128" stroke-width="1"/><rect x="351.6" y="485.74151567976946" width="13.799999999999999" height="20.148012499211404" fill="#A02128"/><line x1="381.5" y1="500.40025442996824" x2="381.5" y2="525.5221596722038" stroke="#A02128" stroke-width="1"/><rect x="374.6" y="505.88952817898087" width="13.799999999999999" height="5.130169774161743" fill="#A02128"/><line x1="404.5" y1="477.7427838360607" x2="404.5" y2="519.4249171978627" stroke="#006340" stroke-width="1"/><rect x="397.6" y="478.79646325390434" width="13.799999999999999" height="32.223234699238276" fill="#006340"/><line x1="427.5" y1="457.50042176448926" x2="427.5" y2="503.8220550318597" stroke="#A02128" stroke-width="1"/><rect x="420.6" y="478.79646325390434" width="13.799999999999999" height="15.35630743945137" fill="#A02128"/><line x1="450.5" y1="487.22953526990597" x2="450.5" y2="510.78346385685313" stroke="#A02128" stroke-width="1"/><rect x="443.6" y="494.1527706933557" width="13.799999999999999" height="13.043662757569564" fill="#A02128"/><line x1="473.5" y1="487.9650982020724" x2="473.5" y2="522.4060608551945" stroke="#006340" stroke-width="1"/><rect x="466.6" y="495.70679382612116" width="13.799999999999999" height="11.489639624804113" fill="#006340"/><line x1="496.5" y1="474.99263932580084" x2="496.5" y2="512.2476853117508" stroke="#A02128" stroke-width="1"/><rect x="489.6" y="495.70679382612116" width="13.799999999999999" height="14.449285162502235" fill="#A02128"/><line x1="519.5" y1="498.72699112530915" x2="519.5" y2="553.2267422723805" stroke="#A02128" stroke-width="1"/><rect x="512.6" y="510.1560789886234" width="13.799999999999999" height="23.754834345755683" fill="#A02128"/><line x1="542.5" y1="520.5499948543262" x2="542.5" y2="544.2686652076202" stroke="#006340" stroke-width="1"/><rect x="535.6" y="532.5216746743057" width="13.799999999999999" height="1.3892386600733744" fill="#006340"/><line x1="565.5" y1="522.5673309214121" x2="565.5" y2="555.8741492114294" stroke="#A02128" stroke-width="1"/><rect x="558.6" y="532.5216746743057" width="13.799999999999999" height="13.801961750148848" fill="#A02128"/><line x1="588.5" y1="530.3280585502445" x2="588.5" y2="564.2506611662969" stroke="#006340" stroke-width="1"/><rect x="581.6" y="535.2701842298179" width="13.799999999999999" height="11.053452194636634" fill="#006340"/><line x1="611.5" y1="519.7316612627877" x2="611.5" y2="567.7975369717415" stroke="#A02128" stroke-width="1"/><rect x="604.6" y="535.2701842298179" width="13.799999999999999" height="21.82754313375517" fill="#A02128"/><line x1="634.5" y1="555.3248590817926" x2="634.5" y2="578.5257835584312" stroke="#A02128" stroke-width="1"/><rect x="627.6" y="557.0977273635731" width="13.799999999999999" height="1" fill="#A02128"/><line x1="657.5" y1="547.5453518856473" x2="657.5" y2="592.3476570063478" stroke="#A02128" stroke-width="1"/><rect x="650.6" y="557.6626100911278" width="13.799999999999999" height="18.416409748661067" fill="#A02128"/><line x1="680.5" y1="556.1617104385447" x2="680.5" y2="591.8439631671117" stroke="#006340" stroke-width="1"/><rect x="673.6" y="567.1790424031781" width="13.799999999999999" height="8.899977436610811" fill="#006340"/><line x1="703.5" y1="528.8375778599776" x2="703.5" y2="572.3501412113186" stroke="#006340" stroke-width="1"/><rect x="696.6" y="536.8834241578309" width="13.799999999999999" height="30.295618245347214" fill="#006340"/><line x1="726.5" y1="532.1469019443919" x2="726.5" y2="553.2279910134449" stroke="#A02128" stroke-width="1"/><rect x="719.6" y="536.8834241578309" width="13.799999999999999" height="14.299041094366771" fill="#A02128"/><line x1="749.5" y1="539.0561068394761" x2="749.5" y2="571.4470942951128" stroke="#A02128" stroke-width="1"/><rect x="742.6" y="551.1824652521976" width="13.799999999999999" height="19.04814604792091" fill="#A02128"/><line x1="772.5" y1="549.442923593328" x2="772.5" y2="599.5664043429223" stroke="#A02128" stroke-width="1"/><rect x="765.6" y="570.2306113001185" width="13.799999999999999" height="18.449751838178827" fill="#A02128"/><line x1="795.5" y1="571.7011502026178" x2="795.5" y2="592.2665067562356" stroke="#006340" stroke-width="1"/><rect x="788.6" y="577.0208791099298" width="13.799999999999999" height="11.659484028367615" fill="#006340"/><line x1="818.5" y1="573.6185302114943" x2="818.5" y2="609.2439069092275" stroke="#A02128" stroke-width="1"/><rect x="811.6" y="577.0208791099298" width="13.799999999999999" height="16.93364048806461" fill="#A02128"/><line x1="841.5" y1="531.5057428306583" x2="841.5" y2="599.8401802292415" stroke="#006340" stroke-width="1"/><rect x="834.6" y="544.9880145903663" width="13.799999999999999" height="48.96650500762803" fill="#006340"/><line x1="864.5" y1="483.79714686426104" x2="864.5" y2="565.9284747595997" stroke="#006340" stroke-width="1"/><rect x="857.6" y="502.9727685941784" width="13.799999999999999" height="42.01524599618796" fill="#006340"/><line x1="887.5" y1="461.74821344832446" x2="887.5" y2="508.62304868641326" stroke="#006340" stroke-width="1"/><rect x="880.6" y="479.0615936098228" width="13.799999999999999" height="23.91117498435557" fill="#006340"/><line x1="910.5" y1="428.54701178075004" x2="910.5" y2="479.30700029569033" stroke="#006340" stroke-width="1"/><rect x="903.6" y="441.79889125588784" width="13.799999999999999" height="37.26270235393497" fill="#006340"/><line x1="933.5" y1="406.83427893928854" x2="933.5" y2="454.4430644866467" stroke="#006340" stroke-width="1"/><rect x="926.6" y="419.10562381366316" width="13.799999999999999" height="22.69326744222468" fill="#006340"/><line x1="956.5" y1="345.1633499574875" x2="956.5" y2="426.72427668320313" stroke="#006340" stroke-width="1"/><rect x="949.6" y="346.75233931220873" width="13.799999999999999" height="72.35328450145443" fill="#006340"/><line x1="979.5" y1="284.3001498185034" x2="979.5" y2="360.09128771800795" stroke="#006340" stroke-width="1"/><rect x="972.6" y="296.0187486124867" width="13.799999999999999" height="50.733590699722015" fill="#006340"/><line x1="1002.5" y1="218.5556430738646" x2="1002.5" y2="310.6224264157317" stroke="#006340" stroke-width="1"/><rect x="995.6" y="232.86222233234298" width="13.799999999999999" height="63.15652628014374" fill="#006340"/><line x1="1025.5" y1="198.61032535924005" x2="1025.5" y2="234.93657194275556" stroke="#006340" stroke-width="1"/><rect x="1018.6" y="199.0222841667271" width="13.799999999999999" height="33.83993816561588" fill="#006340"/><line x1="1048.5" y1="169.32377152508792" x2="1048.5" y2="204.05259384172854" stroke="#006340" stroke-width="1"/><rect x="1041.6" y="186.21741552886323" width="13.799999999999999" height="12.804868637863876" fill="#006340"/><line x1="1071.5" y1="136.56801457795552" x2="1071.5" y2="204.59370800547134" stroke="#006340" stroke-width="1"/><rect x="1064.6" y="147.38122923991318" width="13.799999999999999" height="38.836186288950046" fill="#006340"/><line x1="1094.5" y1="99.00873306041763" x2="1094.5" y2="164.96170736791214" stroke="#006340" stroke-width="1"/><rect x="1087.6" y="108.75317343121549" width="13.799999999999999" height="38.628055808697695" fill="#006340"/><line x1="1117.5" y1="69.27175998297912" x2="1117.5" y2="120.94828006095167" stroke="#006340" stroke-width="1"/><rect x="1110.6" y="72.65350593350274" width="13.799999999999999" height="36.099667497712744" fill="#006340"/><line x1="1140.5" y1="24" x2="1140.5" y2="75.53757761408701" stroke="#006340" stroke-width="1"/><rect x="1133.6" y="27.3357086755085" width="13.799999999999999" height="45.31779725799424" fill="#006340"/>
</svg>