<svg xmlns="http://www.w3.org/2000/svg" width="1200" height="700">
  <rect width="100%" height="100%" fill="#0d1117"/>
  <line x1="48" y1="24" x2="1152" y2="24" stroke="#21262d" stroke-width="1"/><line x1="48" y1="181" x2="1152" y2="181" stroke="#21262d" stroke-width="1"/><line x1="48" y1="338" x2="1152" y2="338" stroke="#21262d" stroke-width="1"/><line x1="48" y1="495" x2="1152" y2="495" stroke="#21262d" stroke-width="1"/><line x1="48" y1="652" x2="1152" y2="652" stroke="#21262d" stroke-width="1"/>
  <line x1="59.5" y1="612.7195501195055" x2="59.5" y2="652" stroke="#006340" stroke-width="1"/><rect x="52.6" y="617.3250173194754" width="13.799999999999999" height="30.07935626698827" fill="#006340"/><line x1="82.5" y1="593.4653025264503" x2="82.5" y2="622.2267290000407" stroke="#006340" stroke-width="1"/><rect x="75.6" y="597.4603384697797" width="13.799999999999999" height="19.86467884969568" fill="#006340"/><line x1="105.5" y1="582.9768836844249" x2="105.5" y2="614.6397171211113" stroke="#A02128" stroke-width="1"/><rect x="98.6" y="597.4603384697797" width="13.799999999999999" height="1.199720980780853" fill="#A02128"/><line x1="128.5" y1="579.8273121954251" x2="128.5" y2="601.4921889420888" stroke="#006340" stroke-width="1"/><rect x="121.6" y="592.0372597921331" width="13.799999999999999" height="6.622799658427425" fill="#006340"/><line x1="151.5" y1="572.1668958628743" x2="151.5" y2="597.7638851904098" stroke="#006340" stroke-width="1"/><rect x="144.6" y="581.7939292357587" width="13.799999999999999" height="10.243330556374417" fill="#006340"/><line x1="174.5" y1="562.823229920916" x2="174.5" y2="592.5097513740509" stroke="#006340" stroke-width="1"/><rect x="167.6" y="570.7981399546791" width="13.799999999999999" height="10.995789281079624" fill="#006340"/><line x1="197.5" y1="536.3463289727953" x2="197.5" y2="580.8606576672307" stroke="#006340" stroke-width="1"/><rect x="190.6" y="549.6099300333037" width="13.799999999999999" height="21.188209921375346" fill="#006340"/><line x1="220.5" y1="542.8009639322047" x2="220.5" y2="563.9068032241915" stroke="#006340" stroke-width="1"/><rect x="213.6" y="545.6546924762756" width="13.799999999999999" height="3.955237557028113" fill="#006340"/><line x1="243.5" y1="519.4141221796363" x2="243.5" y2="550.2165211629971" stroke="#006340" stroke-width="1"/><rect x="236.6" y="531.8399704733754" width="13.799999999999999" height="13.814722002900226" fill="#006340"/><line x1="266.5" y1="518.4104129312259" x2="266.5" y2="544.8567585784758" stroke="#006340" stroke-width="1"/><rect x="259.6" y="519.5643762812374" width="13.799999999999999" height="12.275594192137987" fill="#006340"/><line x1="289.5" y1="509.34755260426175" x2="289.5" y2="529.5099228664652" stroke="#A02128" stroke-width="1"/><rect x="282.6" y="519.5643762812374" width="13.799999999999999" height="1" fill="#A02128"/><line x1="312.5" y1="474.88785061152777" x2="312.5" y2="523.0872665111358" stroke="#006340" stroke-width="1"/><rect x="305.6" y="491.138554235072" width="13.799999999999999" height="29.136036869442364" fill="#006340"/><line x1="335.5" y1="449.2907697040772" x2="335.5" y2="499.8263645892715" stroke="#006340" stroke-width="1"/><rect x="328.6" y="462.4631468035271" width="13.799999999999999" height="28.675407431544897" fill="#006340"/><line x1="358.5" y1="457.38380065360326" x2="358.5" y2="475.9444670909361" stroke="#006340" stroke-width="1"/><rect x="351.6" y="461.3518544652625" width="13.799999999999999" height="1.1112923382646045" fill="#006340"/><line x1="381.5" y1="456.56981411479387" x2="381.5" y2="477.7135178654901" stroke="#A02128" stroke-width="1"/><rect x="374.6" y="461.3518544652625" width="13.799999999999999" height="5.958377787411052" fill="#A02128"/><line x1="404.5" y1="426.9132552045338" x2="404.5" y2="475.5514373313109" stroke="#006340" stroke-width="1"/><rect x="397.6" y="443.1020558902908" width="13.799999999999999" height="24.208176362382744" fill="#006340"/><line x1="427.5" y1="397.85151112371557" x2="427.5" y2="457.44913832631164" stroke="#006340" stroke-width="1"/><rect x="420.6" y="409.75930036931317" width="13.799999999999999" height="33.34275552097762" fill="#006340"/><line x1="450.5" y1="408.74916827896936" x2="450.5" y2="421.10903851862184" stroke="#A02128" stroke-width="1"/><rect x="443.6" y="409.75930036931317" width="13.799999999999999" height="2.7825255537861153" fill="#A02128"/><line x1="473.5" y1="394.7422293548854" x2="473.5" y2="428.92721821122143" stroke="#006340" stroke-width="1"/><rect x="466.6" y="411.13439703306915" width="13.799999999999999" height="1.4074288900301326" fill="#006340"/><line x1="496.5" y1="370.0525719861089" x2="496.5" y2="424.59376753785386" stroke="#006340" stroke-width="1"/><rect x="489.6" y="374.1940123819683" width="13.799999999999999" height="36.94038465110083" fill="#006340"/><line x1="519.5" y1="362.81789339665875" x2="519.5" y2="385.03095011175446" stroke="#006340" stroke-width="1"/><rect x="512.6" y="371.63201728610693" width="13.799999999999999" height="2.5619950958613913" fill="#006340"/><line x1="542.5" y1="332.6102939958361" x2="542.5" y2="385.49824215889805" stroke="#006340" stroke-width="1"/><rect x="535.6" y="345.4678052949019" width="13.799999999999999" height="26.164211991205036" fill="#006340"/><line x1="565.5" y1="302.0751572989074" x2="565.5" y2="355.7919008063312" stroke="#006340" stroke-width="1"/><rect x="558.6" y="316.9352780328858" width="13.799999999999999" height="28.532527262016117" fill="#006340"/><line x1="588.5" y1="300.8240424151643" x2="588.5" y2="317.6590504742869" stroke="#006340" stroke-width="1"/><rect x="581.6" y="310.4673892774614" width="13.799999999999999" height="6.467888755424383" fill="#006340"/><line x1="611.5" y1="297.6622949111274" x2="611.5" y2="316.69229101964294" stroke="#A02128" stroke-width="1"/><rect x="604.6" y="310.4673892774614" width="13.799999999999999" height="2.5918152073421084" fill="#A02128"/><line x1="634.5" y1="299.5732854160806" x2="634.5" y2="319.700043681248" stroke="#A02128" stroke-width="1"/><rect x="627.6" y="313.0592044848035" width="13.799999999999999" height="1.4917647701095689" fill="#A02128"/><line x1="657.5" y1="311.26837929118415" x2="657.5" y2="336.23624420151776" stroke="#A02128" stroke-width="1"/><rect x="650.6" y="314.55096925491307" width="13.799999999999999" height="5.380031396855031" fill="#A02128"/><line x1="680.5" y1="309.37755372732477" x2="680.5" y2="335.45546504282424" stroke="#006340" stroke-width="1"/><rect x="673.6" y="315.0917659436169" width="13.799999999999999" height="4.839234708151196" fill="#006340"/><line x1="703.5" y1="309.3471763876336" x2="703.5" y2="319.3031393565013" stroke="#A02128" stroke-width="1"/><rect x="696.6" y="315.0917659436169" width="13.799999999999999" height="1.2683852446187416" fill="#A02128"/><line x1="726.5" y1="270.468812205867" x2="726.5" y2="330.23713212340635" stroke="#006340" stroke-width="1"/><rect x="719.6" y="282.7064771291495" width="13.799999999999999" height="33.65367405908614" fill="#006340"/><line x1="749.5" y1="246.80747890346134" x2="749.5" y2="286.9807302442407" stroke="#006340" stroke-width="1"/><rect x="742.6" y="259.41159524206233" width="13.799999999999999" height="23.294881887087172" fill="#006340"/><line x1="772.5" y1="246.91135911141026" x2="772.5" y2="276.2327966862793" stroke="#006340" stroke-width="1"/><rect x="765.6" y="250.89698726186685" width="13.799999999999999" height="8.514607980195478" fill="#006340"/><line x1="795.5" y1="219.94874252450666" x2="795.5" y2="256.8157029422448" stroke="#006340" stroke-width="1"/><rect x="788.6" y="234.4388456657283" width="13.799999999999999" height="16.458141596138546" fill="#006340"/><line x1="818.5" y1="184.87506648752395" x2="818.5" y2="237.680678113025" stroke="#006340" stroke-width="1"/><rect x="811.6" y="197.5862063932786" width="13.799999999999999" height="36.85263927244972" fill="#006340"/><line x1="841.5" y1="168.00954144097466" x2="841.5" y2="204.699982257442" stroke="#006340" stroke-width="1"/><rect x="834.6" y="183.8270897227731" width="13.799999999999999" height="13.759116670505477" fill="#006340"/><line x1="864.5" y1="183.11262512983552" x2="864.5" y2="204.75111343846078" stroke="#A02128" stroke-width="1"/><rect x="857.6" y="183.8270897227731" width="13.799999999999999" height="9.96345013712255" fill="#A02128"/><line x1="887.5" y1="182.5896329164185" x2="887.5" y2="215.70132276635024" stroke="#A02128" stroke-width="1"/><rect x="880.6" y="193.79053985989566" width="13.799999999999999" height="6.389950534331376" fill="#A02128"/><line x1="910.5" y1="199.57016092694198" x2="910.5" y2="212.86938930525196" stroke="#A02128" stroke-width="1"/><rect x="903.6" y="200.18049039422704" width="13.799999999999999" height="9.248591084980205" fill="#A02128"/><line x1="933.5" y1="156.73829103360168" x2="933.5" y2="216.45713151307126" stroke="#006340" stroke-width="1"/><rect x="926.6" y="172.81520269729992" width="13.799999999999999" height="36.61387878190732" fill="#006340"/><line x1="956.5" y1="159.32284651254128" x2="956.5" y2="176.90458054770863" stroke="#006340" stroke-width="1"/><rect x="949.6" y="168.3683248850736" width="13.799999999999999" height="4.446877812226319" fill="#006340"/><line x1="979.5" y1="136.3403285548619" x2="979.5" y2="176.9703568063294" stroke="#006340" stroke-width="1"/><rect x="972.6" y="144.84038610299473" width="13.799999999999999" height="23.527938782078877" fill="#006340"/><line x1="1002.5" y1="128.308812980349" x2="1002.5" y2="160.93389887710265" stroke="#006340" stroke-width="1"/><rect x="995.6" y="129.44604506141047" width="13.799999999999999" height="15.394341041584255" fill="#006340"/><line x1="1025.5" y1="105.57916461629839" x2="1025.5" y2="132.07486702950143" stroke="#006340" stroke-width="1"/><rect x="1018.6" y="107.69740928338638" width="13.799999999999999" height="21.748635778024095" fill="#006340"/><line x1="1048.5" y1="62.2147226803736" x2="1048.5" y2="111.9212991704095" stroke="#006340" stroke-width="1"/><rect x="1041.6" y="68.18276247604297" width="13.799999999999999" height="39.51464680734341" fill="#006340"/><line x1="1071.5" y1="48.113484860080575" x2="1071.5" y2="74.39769739833332" stroke="#006340" stroke-width="1"/><rect x="1064.6" y="55.51410660062004" width="13.799999999999999" height="12.668655875422928" fill="#006340"/><line x1="1094.5" y1="43.33746351760931" x2="1094.5" y2="64.59834831554281" stroke="#006340" stroke-width="1"/><rect x="1087.6" y="44.62936197598913" width="13.799999999999999" height="10.884744624630912" fill="#006340"/><line x1="1117.5" y1="44.18905558246399" x2="1117.5" y2="56.246423939056854" stroke="#A02128" stroke-width="1"/><rect x="1110.6" y="44.62936197598913" width="13.799999999999999" height="6.438220766379914" fill="#A02128"/><line x1="1140.5" y1="24" x2="1140.5" y2="67.1856997770999" stroke="#006340" stroke-width="1"/><rect x="1133.6" y="40.93762852003499" width="13.799999999999999" height="10.12995422233405" fill="#006340"/>
</svg>