<svg xmlns="http://www.w3.org/2000/svg" width="1200" height="700">
  <rect width="100%" height="100%" fill="#0d1117"/>
  <line x1="48" y1="24" x2="1152" y2="24" stroke="#21262d" stroke-width="1"/><line x1="48" y1="181" x2="1152" y2="181" stroke="#21262d" stroke-width="1"/><line x1="48" y1="338" x2="1152" y2="338" stroke="#21262d" stroke-width="1"/><line x1="48" y1="495" x2="1152" y2="495" stroke="#21262d" stroke-width="1"/><line x1="48" y1="652" x2="1152" y2="652" stroke="#21262d" stroke-width="1"/>
  <line x1="59.5" y1="632.1702740493549" x2="59.5" y2="652" stroke="#006340" stroke-width="1"/><rect x="52.6" y="643.3907846132128" width="13.799999999999999" height="1.2106651525175494" fill="#006340"/><line x1="82.5" y1="619.7316903399292" x2="82.5" y2="643.8149881118856" stroke="#006340" stroke-width="1"/><rect x="75.6" y="619.7621805434087" width="13.799999999999999" height="23.628604069804055" fill="#006340"/><line x1="105.5" y1="588.6745627883054" x2="105.5" y2="629.9192546430633" stroke="#006340" stroke-width="1"/><rect x="98.6" y="599.7412429551459" width="13.799999999999999" height="20.02093758826277" fill="#006340"/><line x1="128.5" y1="563.9517334693177" x2="128.5" y2="606.0045501335924" stroke="#006340" stroke-width="1"/><rect x="121.6" y="574.0830135851505" width="13.799999999999999" height="25.65822936999541" fill="#006340"/><line x1="151.5" y1="549.7111943631252" x2="151.5" y2="577.4500540956938" stroke="#006340" stroke-width="1"/><rect x="144.6" y="552.3240935562658" width="13.799999999999999" height="21.758920028884745" fill="#006340"/><line x1="174.5" y1="537.1208212213286" x2="174.5" y2="556.7012796734386" stroke="#006340" stroke-width="1"/><rect x="167.6" y="547.3105226276493" width="13.799999999999999" height="5.013570928616446" fill="#006340"/><line x1="197.5" y1="531.0206634199856" x2="197.5" y2="559.2319148782665" stroke="#006340" stroke-width="1"/><rect x="190.6" y="536.0171359350813" width="13.799999999999999" height="11.293386692567992" fill="#006340"/><line x1="220.5" y1="507.94174069035046" x2="220.5" y2="536.783625766553" stroke="#006340" stroke-width="1"/><rect x="213.6" y="516.2552218904864" width="13.799999999999999" height="19.76191404459496" fill="#006340"/><line x1="243.5" y1="515.1213360806192" x2="243.5" y2="527.0840512651607" stroke="#A02128" stroke-width="1"/><rect x="236.6" y="516.2552218904864" width="13.799999999999999" height="1.4224771368426445" fill="#A02128"/><line x1="266.5" y1="509.86288573155275" x2="266.5" y2="527.1004548896752" stroke="#006340" stroke-width="1"/><rect x="259.6" y="512.339150241176" width="13.799999999999999" height="5.338548786153069" fill="#006340"/><line x1="289.5" y1="488.9314704779383" x2="289.5" y2="521.0293573642773" stroke="#006340" stroke-width="1"/><rect x="282.6" y="497.7872302741132" width="13.799999999999999" height="14.551919967062759" fill="#006340"/><line x1="312.5" y1="476.50822920618134" x2="312.5" y2="506.3530243179681" stroke="#006340" stroke-width="1"/><rect x="305.6" y="479.37530719881477" width="13.799999999999999" height="18.411923075298432" fill="#006340"/><line x1="335.5" y1="446.15305637942566" x2="335.5" y2="481.4497342639122" stroke="#006340" stroke-width="1"/><rect x="328.6" y="450.8419140019399" width="13.799999999999999" height="28.53339319687484" fill="#006340"/><line x1="358.5" y1="437.64588609465613" x2="358.5" y2="458.85985068924" stroke="#006340" stroke-width="1"/><rect x="351.6" y="439.2077032242298" width="13.799999999999999" height="11.63421077771011" fill="#006340"/><line x1="381.5" y1="428.814043923089" x2="381.5" y2="447.664935593819" stroke="#006340" stroke-width="1"/><rect x="374.6" y="434.2998398720963" width="13.799999999999999" height="4.907863352133518" fill="#006340"/><line x1="404.5" y1="411.3025740904935" x2="404.5" y2="437.1872716386635" stroke="#006340" stroke-width="1"/><rect x="397.6" y="418.20358761449717" width="13.799999999999999" height="16.096252257599133" fill="#006340"/><line x1="427.5" y1="402.02414013657517" x2="427.5" y2="424.9783070824881" stroke="#006340" stroke-width="1"/><rect x="420.6" y="412.7703007495383" width="13.799999999999999" height="5.433286864958859" fill="#006340"/><line x1="450.5" y1="395.67023863987373" x2="450.5" y2="421.70681666683026" stroke="#006340" stroke-width="1"/><rect x="443.6" y="400.31751259999226" width="13.799999999999999" height="12.452788149546052" fill="#006340"/><line x1="473.5" y1="391.87230876060835" x2="473.5" y2="410.31749083713305" stroke="#A02128" stroke-width="1"/><rect x="466.6" y="400.31751259999226" width="13.799999999999999" height="3.9700061823723445" fill="#A02128"/><line x1="496.5" y1="370.81559275274327" x2="496.5" y2="405.70648113603346" stroke="#006340" stroke-width="1"/><rect x="489.6" y="381.43948876466015" width="13.799999999999999" height="22.848030017704446" fill="#006340"/><line x1="519.5" y1="364.6469064683684" x2="519.5" y2="382.00717659540476" stroke="#006340" stroke-width="1"/><rect x="512.6" y="372.3920816762453" width="13.799999999999999" height="9.047407088414843" fill="#006340"/><line x1="542.5" y1="342.79832686568807" x2="542.5" y2="382.4713020146346" stroke="#006340" stroke-width="1"/><rect x="535.6" y="346.4697108568384" width="13.799999999999999" height="25.922370819406922" fill="#006340"/><line x1="565.5" y1="317.03212354951654" x2="565.5" y2="356.0943725578004" stroke="#006340" stroke-width="1"/><rect x="558.6" y="326.80963868105795" width="13.799999999999999" height="19.660072175780442" fill="#006340"/><line x1="588.5" y1="324.71382883710163" x2="588.5" y2="335.35159521943274" stroke="#006340" stroke-width="1"/><rect x="581.6" y="326.19131719194166" width="13.799999999999999" height="1" fill="#006340"/><line x1="611.5" y1="291.25236020114374" x2="611.5" y2="326.4317273717393" stroke="#006340" stroke-width="1"/><rect x="604.6" y="298.941336599973" width="13.799999999999999" height="27.249980591968665" fill="#006340"/><line x1="634.5" y1="292.82435818177316" x2="634.5" y2="318.60606805256066" stroke="#A02128" stroke-width="1"/><rect x="627.6" y="298.941336599973" width="13.799999999999999" height="8.373671997909241" fill="#A02128"/><line x1="657.5" y1="278.850846115398" x2="657.5" y2="309.28835621251324" stroke="#006340" stroke-width="1"/><rect x="650.6" y="280.48276734015906" width="13.799999999999999" height="26.832241257723183" fill="#006340"/><line x1="680.5" y1="266.2681503990375" x2="680.5" y2="281.4498385709709" stroke="#006340" stroke-width="1"/><rect x="673.6" y="272.0237780248044" width="13.799999999999999" height="8.458989315354643" fill="#006340"/><line x1="703.5" y1="235.98114149801557" x2="703.5" y2="276.49132736326726" stroke="#006340" stroke-width="1"/><rect x="696.6" y="244.72759439201133" width="13.799999999999999" height="27.29618363279309" fill="#006340"/><line x1="726.5" y1="228.5634339111383" x2="726.5" y2="258.02768837218923" stroke="#006340" stroke-width="1"/><rect x="719.6" y="230.57538977784884" width="13.799999999999999" height="14.152204614162486" fill="#006340"/><line x1="749.5" y1="214.74795084045735" x2="749.5" y2="231.62289443251575" stroke="#006340" stroke-width="1"/><rect x="742.6" y="225.35613878191236" width="13.799999999999999" height="5.219250995936477" fill="#006340"/><line x1="772.5" y1="215.45548330769589" x2="772.5" y2="232.78578717380395" stroke="#006340" stroke-width="1"/><rect x="765.6" y="224.03480147909818" width="13.799999999999999" height="1.321337302814186" fill="#006340"/><line x1="795.5" y1="199.4335462165933" x2="795.5" y2="228.50683133806348" stroke="#006340" stroke-width="1"/><rect x="788.6" y="204.4245653688253" width="13.799999999999999" height="19.610236110272865" fill="#006340"/><line x1="818.5" y1="185.84224561597057" x2="818.5" y2="216.61905483409504" stroke="#006340" stroke-width="1"/><rect x="811.6" y="196.7249655824025" width="13.799999999999999" height="7.699599786422823" fill="#006340"/><line x1="841.5" y1="190.43506873717615" x2="841.5" y2="209.4282182806054" stroke="#A02128" stroke-width="1"/><rect x="834.6" y="196.7249655824025" width="13.799999999999999" height="5.009115466036633" fill="#A02128"/><line x1="864.5" y1="180.7977523501998" x2="864.5" y2="203.07446863309218" stroke="#006340" stroke-width="1"/><rect x="857.6" y="188.81858923335056" width="13.799999999999999" height="12.915491815088558" fill="#006340"/><line x1="887.5" y1="183.883397208006" x2="887.5" y2="197.0970345759942" stroke="#A02128" stroke-width="1"/><rect x="880.6" y="188.81858923335056" width="13.799999999999999" height="2.205155574105902" fill="#A02128"/><line x1="910.5" y1="190.0453088058689" x2="910.5" y2="200.9838697146069" stroke="#A02128" stroke-width="1"/><rect x="903.6" y="191.02374480745647" width="13.799999999999999" height="7.544619359719036" fill="#A02128"/><line x1="933.5" y1="177.88101220908902" x2="933.5" y2="202.17714213453888" stroke="#006340" stroke-width="1"/><rect x="926.6" y="185.91567423749524" width="13.799999999999999" height="12.652689929680264" fill="#006340"/><line x1="956.5" y1="172.76516062741297" x2="956.5" y2="190.3474835628578" stroke="#A02128" stroke-width="1"/><rect x="949.6" y="185.91567423749524" width="13.799999999999999" height="1" fill="#A02128"/><line x1="979.5" y1="145.79148314625064" x2="979.5" y2="187.31221395661913" stroke="#006340" stroke-width="1"/><rect x="972.6" y="157.4670905492228" width="13.799999999999999" height="28.637258075261457" fill="#006340"/><line x1="1002.5" y1="125.96504194090687" x2="1002.5" y2="166.01784690868658" stroke="#006340" stroke-width="1"/><rect x="995.6" y="126.69442547485949" width="13.799999999999999" height="30.772665074363317" fill="#006340"/><line x1="1025.5" y1="107.3064973030165" x2="1025.5" y2="139.04172689600114" stroke="#006340" stroke-width="1"/><rect x="1018.6" y="121.14899521292932" width="13.799999999999999" height="5.545430261930164" fill="#006340"/><line x1="1048.5" y1="82.5164063632925" x2="1048.5" y2="127.82482337542376" stroke="#006340" stroke-width="1"/><rect x="1041.6" y="95.93363609038613" width="13.799999999999999" height="25.21535912254319" fill="#006340"/><line x1="1071.5" y1="83.2883629858253" x2="1071.5" y2="105.2599785352902" stroke="#006340" stroke-width="1"/><rect x="1064.6" y="85.81740291351684" width="13.799999999999999" height="10.116233176869287" fill="#006340"/><line x1="1094.5" y1="49.10916160552972" x2="1094.5" y2="96.2843692372993" stroke="#006340" stroke-width="1"/><rect x="1087.6" y="59.83639171418497" width="13.799999999999999" height="25.981011199331874" fill="#006340"/><line x1="1117.5" y1="52.28504213643646" x2="1117.5" y2="70.59706683103934" stroke="#006340" stroke-width="1"/><rect x="1110.6" y="59.31236758853254" width="13.799999999999999" height="1" fill="#006340"/><line x1="1140.5" y1="24" x2="1140.5" y2="62.86615760293262" stroke="#006340" stroke-width="1"/><rect x="1133.6" y="33.493486798625554" width="13.799999999999999" height="25.818880789906984" fill="#006340"/>
</svg>