<svg xmlns="http://www.w3.org/2000/svg" width="1200" height="700">
  <rect width="100%" height="100%" fill="#0d1117"/>
  <line x1="48" y1="24" x2="1152" y2="24" stroke="#21262d" stroke-width="1"/><line x1="48" y1="181" x2="1152" y2="181" stroke="#21262d" stroke-width="1"/><line x1="48" y1="338" x2="1152" y2="338" stroke="#21262d" stroke-width="1"/><line x1="48" y1="495" x2="1152" y2="495" stroke="#21262d" stroke-width="1"/><line x1="48" y1="652" x2="1152" y2="652" stroke="#21262d" stroke-width="1"/>
  <line x1="59.5" y1="639.0763367251918" x2="59.5" y2="647.8756744149285" stroke="#006340" stroke-width="1"/><rect x="52.6" y="642.393826957551" width="13.799999999999999" height="1.4693535721469289" fill="#006340"/><line x1="82.5" y1="613.4779446902935" x2="82.5" y2="652" stroke="#006340" stroke-width="1"/><rect x="75.6" y="616.7187785474817" width="13.799999999999999" height="25.67504841006928" fill="#006340"/><line x1="105.5" y1="608.5913192887843" x2="105.5" y2="632.3658595644114" stroke="#006340" stroke-width="1"/><rect x="98.6" y="612.8751673368631" width="13.799999999999999" height="3.843611210618633" fill="#006340"/><line x1="128.5" y1="573.5921036807682" x2="128.5" y2="621.3446504087822" stroke="#006340" stroke-width="1"/><rect x="121.6" y="586.5485637952623" width="13.799999999999999" height="26.326603541600775" fill="#006340"/><line x1="151.5" y1="561.6295868931645" x2="151.5" y2="595.1655959068489" stroke="#006340" stroke-width="1"/><rect x="144.6" y="564.1485672244147" width="13.799999999999999" height="22.399996570847634" fill="#006340"/><line x1="174.5" y1="541.8869174514239" x2="174.5" y2="565.1962374981252" stroke="#006340" stroke-width="1"/><rect x="167.6" y="554.6879747736378" width="13.799999999999999" height="9.460592450776858" fill="#006340"/><line x1="197.5" y1="526.1622169691883" x2="197.5" y2="570.4061370718713" stroke="#006340" stroke-width="1"/><rect x="190.6" y="538.6946262093676" width="13.799999999999999" height="15.993348564270264" fill="#006340"/><line x1="220.5" y1="504.89380251907727" x2="220.5" y2="554.4162812950482" stroke="#006340" stroke-width="1"/><rect x="213.6" y="506.8821950937838" width="13.799999999999999" height="31.812431115583763" fill="#006340"/><line x1="243.5" y1="489.2550365794825" x2="243.5" y2="511.30503389134685" stroke="#006340" stroke-width="1"/><rect x="236.6" y="502.9880433998412" width="13.799999999999999" height="3.8941516939426037" fill="#006340"/><line x1="266.5" y1="475.1898191038358" x2="266.5" y2="513.2244745171182" stroke="#006340" stroke-width="1"/><rect x="259.6" y="484.4384542892115" width="13.799999999999999" height="18.54958911062971" fill="#006340"/><line x1="289.5" y1="462.61621052090607" x2="289.5" y2="485.2733598956938" stroke="#006340" stroke-width="1"/><rect x="282.6" y="468.3001796241557" width="13.799999999999999" height="16.138274665055803" fill="#006340"/><line x1="312.5" y1="455.7887855638378" x2="312.5" y2="483.69301083292066" stroke="#006340" stroke-width="1"/><rect x="305.6" y="463.6661966979092" width="13.799999999999999" height="4.633982926246517" fill="#006340"/><line x1="335.5" y1="451.6415715226533" x2="335.5" y2="472.11787166607894" stroke="#006340" stroke-width="1"/><rect x="328.6" y="455.0652787716792" width="13.799999999999999" height="8.60091792623001" fill="#006340"/><line x1="358.5" y1="449.7996381252144" x2="358.5" y2="462.0811750982766" stroke="#A02128" stroke-width="1"/><rect x="351.6" y="455.0652787716792" width="13.799999999999999" height="6.086032339534597" fill="#A02128"/><line x1="381.5" y1="438.8867707494277" x2="381.5" y2="466.30638270170954" stroke="#006340" stroke-width="1"/><rect x="374.6" y="453.84894574843236" width="13.799999999999999" height="7.302365362781416" fill="#006340"/><line x1="404.5" y1="451.60076165151486" x2="404.5" y2="471.90088598638454" stroke="#A02128" stroke-width="1"/><rect x="397.6" y="453.84894574843236" width="13.799999999999999" height="8.411710185823495" fill="#A02128"/><line x1="427.5" y1="434.5673417273185" x2="427.5" y2="467.63684796809156" stroke="#006340" stroke-width="1"/><rect x="420.6" y="442.2506236360127" width="13.799999999999999" height="20.010032298243175" fill="#006340"/><line x1="450.5" y1="408.3497690445072" x2="450.5" y2="453.01339684609604" stroke="#006340" stroke-width="1"/><rect x="443.6" y="412.3925059644331" width="13.799999999999999" height="29.858117671579578" fill="#006340"/><line x1="473.5" y1="410.89630736926284" x2="473.5" y2="427.5757225850125" stroke="#A02128" stroke-width="1"/><rect x="466.6" y="412.3925059644331" width="13.799999999999999" height="9.577575587921615" fill="#A02128"/><line x1="496.5" y1="385.5814115855608" x2="496.5" y2="429.77057384022135" stroke="#006340" stroke-width="1"/><rect x="489.6" y="398.94071354856817" width="13.799999999999999" height="23.029368003786544" fill="#006340"/><line x1="519.5" y1="366.42746913690837" x2="519.5" y2="409.6884058733791" stroke="#006340" stroke-width="1"/><rect x="512.6" y="380.34989345230355" width="13.799999999999999" height="18.590820096264622" fill="#006340"/><line x1="542.5" y1="378.0581379515435" x2="542.5" y2="404.0600372039853" stroke="#A02128" stroke-width="1"/><rect x="535.6" y="380.34989345230355" width="13.799999999999999" height="11.030202735829107" fill="#A02128"/><line x1="565.5" y1="376.30576636145554" x2="565.5" y2="402.301676408929" stroke="#A02128" stroke-width="1"/><rect x="558.6" y="391.38009618813265" width="13.799999999999999" height="9.129593843004443" fill="#A02128"/><line x1="588.5" y1="377.38669668837423" x2="588.5" y2="401.3167423807156" stroke="#006340" stroke-width="1"/><rect x="581.6" y="383.0651120949478" width="13.799999999999999" height="17.44457793618932" fill="#006340"/><line x1="611.5" y1="336.6492431316079" x2="611.5" y2="392.8787388344102" stroke="#006340" stroke-width="1"/><rect x="604.6" y="351.8181265655686" width="13.799999999999999" height="31.246985529379174" fill="#006340"/><line x1="634.5" y1="307.4879469981017" x2="634.5" y2="363.8092478138546" stroke="#006340" stroke-width="1"/><rect x="627.6" y="318.6558091892257" width="13.799999999999999" height="33.16231737634291" fill="#006340"/><line x1="657.5" y1="290.69828614831675" x2="657.5" y2="329.85887876865326" stroke="#006340" stroke-width="1"/><rect x="650.6" y="303.93483598493015" width="13.799999999999999" height="14.720973204295547" fill="#006340"/><line x1="680.5" y1="264.6167207201258" x2="680.5" y2="312.2573693405275" stroke="#006340" stroke-width="1"/><rect x="673.6" y="273.6589579343176" width="13.799999999999999" height="30.27587805061256" fill="#006340"/><line x1="703.5" y1="258.5456744481494" x2="703.5" y2="287.8952043752818" stroke="#006340" stroke-width="1"/><rect x="696.6" y="268.0322903270433" width="13.799999999999999" height="5.626667607274271" fill="#006340"/><line x1="726.5" y1="255.89662821378676" x2="726.5" y2="274.4762542431387" stroke="#A02128" stroke-width="1"/><rect x="719.6" y="268.0322903270433" width="13.799999999999999" height="3.2455730173920756" fill="#A02128"/><line x1="749.5" y1="223.91638324866307" x2="749.5" y2="276.5603493117568" stroke="#006340" stroke-width="1"/><rect x="742.6" y="235.64398507767532" width="13.799999999999999" height="35.633878266760064" fill="#006340"/><line x1="772.5" y1="203.64642291876277" x2="772.5" y2="238.59011804963512" stroke="#006340" stroke-width="1"/><rect x="765.6" y="212.39763414914967" width="13.799999999999999" height="23.246350928525658" fill="#006340"/><line x1="795.5" y1="178.724327340449" x2="795.5" y2="221.06308796663063" stroke="#006340" stroke-width="1"/><rect x="788.6" y="190.92341642102167" width="13.799999999999999" height="21.474217728127996" fill="#006340"/><line x1="818.5" y1="147.3212422202065" x2="818.5" y2="205.87328554651134" stroke="#006340" stroke-width="1"/><rect x="811.6" y="153.64814163570605" width="13.799999999999999" height="37.27527478531562" fill="#006340"/><line x1="841.5" y1="121.9131986013698" x2="841.5" y2="157.22923828901725" stroke="#006340" stroke-width="1"/><rect x="834.6" y="124.19133061109892" width="13.799999999999999" height="29.456811024607134" fill="#006340"/><line x1="864.5" y1="115.61612313634748" x2="864.5" y2="137.54963615659733" stroke="#A02128" stroke-width="1"/><rect x="857.6" y="124.19133061109892" width="13.799999999999999" height="5.367552151044606" fill="#A02128"/><line x1="887.5" y1="95.63662414797284" x2="887.5" y2="135.87552092231374" stroke="#006340" stroke-width="1"/><rect x="880.6" y="111.41315811064806" width="13.799999999999999" height="18.14572465149547" fill="#006340"/><line x1="910.5" y1="73.66461252102465" x2="910.5" y2="120.28222918274162" stroke="#006340" stroke-width="1"/><rect x="903.6" y="74.21877256212485" width="13.799999999999999" height="37.1943855485232" fill="#006340"/><line x1="933.5" y1="69.34522473703862" x2="933.5" y2="88.23802333745687" stroke="#A02128" stroke-width="1"/><rect x="926.6" y="74.21877256212485" width="13.799999999999999" height="9.295779850776626" fill="#A02128"/><line x1="956.5" y1="82.91488413171737" x2="956.5" y2="88.94204331042613" stroke="#A02128" stroke-width="1"/><rect x="949.6" y="83.51455241290148" width="13.799999999999999" height="5.342090107418244" fill="#A02128"/><line x1="979.5" y1="35.70230793813812" x2="979.5" y2="94.30114887721254" stroke="#006340" stroke-width="1"/><rect x="972.6" y="51.770910347298354" width="13.799999999999999" height="37.08573217302137" fill="#006340"/><line x1="1002.5" y1="24" x2="1002.5" y2="57.132138684207916" stroke="#006340" stroke-width="1"/><rect x="995.6" y="41.97621685981528" width="13.799999999999999" height="9.794693487483073" fill="#006340"/><line x1="1025.5" y1="28.86505270197165" x2="1025.5" y2="65.0346052468384" stroke="#A02128" stroke-width="1"/><rect x="1018.6" y="41.97621685981528" width="13.799999999999999" height="11.45973833056371" fill="#A02128"/><line x1="1048.5" y1="42.46051287937178" x2="1048.5" y2="69.0039642242715" stroke="#A02128" stroke-width="1"/><rect x="1041.6" y="53.43595519037899" width="13.799999999999999" height="12.472697631695269" fill="#A02128"/><line x1="1071.5" y1="62.22879766570259" x2="1071.5" y2="77.760815938924" stroke="#A02128" stroke-width="1"/><rect x="1064.6" y="65.90865282207426" width="13.799999999999999" height="10.703053801263877" fill="#A02128"/><line x1="1094.5" y1="52.88955307668084" x2="1094.5" y2="80.28863055898421" stroke="#006340" stroke-width="1"/><rect x="1087.6" y="60.40461766614044" width="13.799999999999999" height="16.207088957197698" fill="#006340"/><line x1="1117.5" y1="47.745401555879994" x2="1117.5" y2="72.91685911361174" stroke="#006340" stroke-width="1"/><rect x="1110.6" y="50.529857637633086" width="13.799999999999999" height="9.874760028507353" fill="#006340"/><line x1="1140.5" y1="46.46878935077609" x2="1140.5" y2="65.34322175035936" stroke="#A02128" stroke-width="1"/><rect x="1133.6" y="50.529857637633086" width="13.799999999999999" height="9.344708090936706" fill="#A02128"/>
</svg>