<svg xmlns="http://www.w3.org/2000/svg" width="1200" height="700">
  <rect width="100%" height="100%" fill="#0d1117"/>
  <line x1="48" y1="24" x2="1152" y2="24" stroke="#21262d" stroke-width="1"/><line x1="48" y1="181" x2="1152" y2="181" stroke="#21262d" stroke-width="1"/><line x1="48" y1="338" x2="1152" y2="338" stroke="#21262d" stroke-width="1"/><line x1="48" y1="495" x2="1152" y2="495" stroke="#21262d" stroke-width="1"/><line x1="48" y1="652" x2="1152" y2="652" stroke="#21262d" stroke-width="1"/>
  <line x1="59.5" y1="57.55494102414343" x2="59.5" y2="101.06362986020952" stroke="#006340" stroke-width="1"/><rect x="52.6" y="61.22715622383089" width="13.799999999999999" height="29.868406087312792" fill="#006340"/><line x1="82.5" y1="37.54859855741006" x2="82.5" y2="83.55472303902354" stroke="#A02128" stroke-width="1"/><rect x="75.6" y="61.22715622383089" width="13.799999999999999" height="10.479898566086717" fill="#A02128"/><line x1="105.5" y1="24" x2="105.5" y2="72.65887278343462" stroke="#006340" stroke-width="1"/><rect x="98.6" y="51.95867034241792" width="13.799999999999999" height="19.74838444749969" fill="#006340"/><line x1="128.5" y1="41.22720716233778" x2="128.5" y2="86.88125569667648" stroke="#A02128" stroke-width="1"/><rect x="121.6" y="51.95867034241792" width="13.799999999999999" height="30.320892695022962" fill="#A02128"/><line x1="151.5" y1="77.69541533369772" x2="151.5" y2="115.17182697878945" stroke="#A02128" stroke-width="1"/><rect x="144.6" y="82.27956303744088" width="13.799999999999999" height="23.361319166125213" fill="#A02128"/><line x1="174.5" y1="70.71085033272391" x2="174.5" y2="152.6858435795404" stroke="#A02128" stroke-width="1"/><rect x="167.6" y="105.6408822035661" width="13.799999999999999" height="33.923303423701896" fill="#A02128"/><line x1="197.5" y1="138.80769282785468" x2="197.5" y2="196.05333801633776" stroke="#A02128" stroke-width="1"/><rect x="190.6" y="139.564185627268" width="13.799999999999999" height="43.4028569458921" fill="#A02128"/><line x1="220.5" y1="178.46999906623677" x2="220.5" y2="229.89855570646074" stroke="#A02128" stroke-width="1"/><rect x="213.6" y="182.9670425731601" width="13.799999999999999" height="12.272534843245808" fill="#A02128"/><line x1="243.5" y1="154.5694963790515" x2="243.5" y2="199.39278273706594" stroke="#006340" stroke-width="1"/><rect x="236.6" y="186.698636625755" width="13.799999999999999" height="8.540940790650893" fill="#006340"/><line x1="266.5" y1="160.38317792994957" x2="266.5" y2="205.44441473312423" stroke="#A02128" stroke-width="1"/><rect x="259.6" y="186.698636625755" width="13.799999999999999" height="2.6645530379428806" fill="#A02128"/><line x1="289.5" y1="177.8366096971884" x2="289.5" y2="242.3527271184753" stroke="#A02128" stroke-width="1"/><rect x="282.6" y="189.36318966369788" width="13.799999999999999" height="17.513053289025834" fill="#A02128"/><line x1="312.5" y1="184.2128089474441" x2="312.5" y2="278.10446850654483" stroke="#A02128" stroke-width="1"/><rect x="305.6" y="206.87624295272371" width="13.799999999999999" height="48.439351799526605" fill="#A02128"/><line x1="335.5" y1="252.6071324625549" x2="335.5" y2="286.52188666635357" stroke="#006340" stroke-width="1"/><rect x="328.6" y="253.58016655538518" width="13.799999999999999" height="1.7354281968651435" fill="#006340"/><line x1="358.5" y1="217.18463511942605" x2="358.5" y2="319.69142618493305" stroke="#A02128" stroke-width="1"/><rect x="351.6" y="253.58016655538518" width="13.799999999999999" height="50.880268786172564" fill="#A02128"/><line x1="381.5" y1="259.7114831395545" x2="381.5" y2="327.02364855148284" stroke="#006340" stroke-width="1"/><rect x="374.6" y="267.2213538198128" width="13.799999999999999" height="37.239081521744936" fill="#006340"/><line x1="404.5" y1="233.18342569895594" x2="404.5" y2="283.30283429213256" stroke="#006340" stroke-width="1"/><rect x="397.6" y="253.59699226708335" width="13.799999999999999" height="13.624361552729454" fill="#006340"/><line x1="427.5" y1="221.6061482166167" x2="427.5" y2="287.42097781155394" stroke="#A02128" stroke-width="1"/><rect x="420.6" y="253.59699226708335" width="13.799999999999999" height="5.778730073091765" fill="#A02128"/><line x1="450.5" y1="240.46628037822933" x2="450.5" y2="330.474017200031" stroke="#A02128" stroke-width="1"/><rect x="443.6" y="259.3757223401751" width="13.799999999999999" height="46.1208779406179" fill="#A02128"/><line x1="473.5" y1="275.9185917219123" x2="473.5" y2="349.6416731567865" stroke="#A02128" stroke-width="1"/><rect x="466.6" y="305.496600280793" width="13.799999999999999" height="21.8524761006164" fill="#A02128"/><line x1="496.5" y1="307.9708918668737" x2="496.5" y2="381.27758904213164" stroke="#A02128" stroke-width="1"/><rect x="489.6" y="327.3490763814094" width="13.799999999999999" height="53.74223187213693" fill="#A02128"/><line x1="519.5" y1="311.1583954497676" x2="519.5" y2="411.2038198367668" stroke="#006340" stroke-width="1"/><rect x="512.6" y="328.67715173508805" width="13.799999999999999" height="52.4141565184583" fill="#006340"/><line x1="542.5" y1="305.43786284577527" x2="542.5" y2="391.81660060302795" stroke="#A02128" stroke-width="1"/><rect x="535.6" y="328.67715173508805" width="13.799999999999999" height="42.76038867425967" fill="#A02128"/><line x1="565.5" y1="333.5129574831002" x2="565.5" y2="396.2366078893008" stroke="#006340" stroke-width="1"/><rect x="558.6" y="337.5783416425644" width="13.799999999999999" height="33.85919876678332" fill="#006340"/><line x1="588.5" y1="304.42536383236364" x2="588.5" y2="341.2824058702539" stroke="#006340" stroke-width="1"/><rect x="581.6" y="316.7975944075631" width="13.799999999999999" height="20.780747235001286" fill="#006340"/><line x1="611.5" y1="301.27209034890456" x2="611.5" y2="331.30358509772486" stroke="#A02128" stroke-width="1"/><rect x="604.6" y="316.7975944075631" width="13.799999999999999" height="7.872176509494068" fill="#A02128"/><line x1="634.5" y1="293.3479425598965" x2="634.5" y2="385.640113365332" stroke="#A02128" stroke-width="1"/><rect x="627.6" y="324.6697709170572" width="13.799999999999999" height="36.52245975692466" fill="#A02128"/><line x1="657.5" y1="360.11147745933556" x2="657.5" y2="412.914121176659" stroke="#A02128" stroke-width="1"/><rect x="650.6" y="361.19223067398184" width="13.799999999999999" height="47.185940486508" fill="#A02128"/><line x1="680.5" y1="348.8518822648954" x2="680.5" y2="432.18002054622224" stroke="#006340" stroke-width="1"/><rect x="673.6" y="380.3897063413618" width="13.799999999999999" height="27.98846481912807" fill="#006340"/><line x1="703.5" y1="364.73295586485153" x2="703.5" y2="412.7265081636647" stroke="#A02128" stroke-width="1"/><rect x="696.6" y="380.3897063413618" width="13.799999999999999" height="14.881905360262806" fill="#A02128"/><line x1="726.5" y1="335.8578681285445" x2="726.5" y2="416.6898842386011" stroke="#006340" stroke-width="1"/><rect x="719.6" y="371.5338866911839" width="13.799999999999999" height="23.73772501044067" fill="#006340"/><line x1="749.5" y1="354.07375783051424" x2="749.5" y2="439.25036959403155" stroke="#A02128" stroke-width="1"/><rect x="742.6" y="371.5338866911839" width="13.799999999999999" height="37.81252141802139" fill="#A02128"/><line x1="772.5" y1="384.9462678479322" x2="772.5" y2="442.54680596376465" stroke="#A02128" stroke-width="1"/><rect x="765.6" y="409.3464081092053" width="13.799999999999999" height="7.110214430124643" fill="#A02128"/><line x1="795.5" y1="364.3559229900517" x2="795.5" y2="429.46598521791816" stroke="#006340" stroke-width="1"/><rect x="788.6" y="370.2815849857024" width="13.799999999999999" height="46.17503755362753" fill="#006340"/><line x1="818.5" y1="351.42145978039906" x2="818.5" y2="396.0620308421741" stroke="#006340" stroke-width="1"/><rect x="811.6" y="352.4847195620765" width="13.799999999999999" height="17.79686542362589" fill="#006340"/><line x1="841.5" y1="342.9081442773098" x2="841.5" y2="362.092878154953" stroke="#006340" stroke-width="1"/><rect x="834.6" y="351.3569241391829" width="13.799999999999999" height="1.1277954228935982" fill="#006340"/><line x1="864.5" y1="335.2465843066222" x2="864.5" y2="385.0710111083107" stroke="#006340" stroke-width="1"/><rect x="857.6" y="340.2780065465819" width="13.799999999999999" height="11.078917592601044" fill="#006340"/><line x1="887.5" y1="282.6140249067664" x2="887.5" y2="370.08858587809016" stroke="#006340" stroke-width="1"/><rect x="880.6" y="312.6213111664751" width="13.799999999999999" height="27.656695380106783" fill="#006340"/><line x1="910.5" y1="297.7953734242247" x2="910.5" y2="363.96547613645856" stroke="#A02128" stroke-width="1"/><rect x="903.6" y="312.6213111664751" width="13.799999999999999" height="45.13019148014973" fill="#A02128"/><line x1="933.5" y1="313.5666520585365" x2="933.5" y2="358.89010742419157" stroke="#006340" stroke-width="1"/><rect x="926.6" y="314.0229748060559" width="13.799999999999999" height="43.728527840568916" fill="#006340"/><line x1="956.5" y1="299.9753523493299" x2="956.5" y2="366.4501878367732" stroke="#A02128" stroke-width="1"/><rect x="949.6" y="314.0229748060559" width="13.799999999999999" height="36.71361020495846" fill="#A02128"/><line x1="979.5" y1="319.436711203512" x2="979.5" y2="424.3928386489389" stroke="#A02128" stroke-width="1"/><rect x="972.6" y="350.73658501101437" width="13.799999999999999" height="41.29240681706625" fill="#A02128"/><line x1="1002.5" y1="358.1128988776447" x2="1002.5" y2="434.1599993234894" stroke="#A02128" stroke-width="1"/><rect x="995.6" y="392.0289918280806" width="13.799999999999999" height="19.77082370663402" fill="#A02128"/><line x1="1025.5" y1="376.82000396678944" x2="1025.5" y2="437.1060854258784" stroke="#006340" stroke-width="1"/><rect x="1018.6" y="410.0883844666424" width="13.799999999999999" height="1.7114310680722156" fill="#006340"/><line x1="1048.5" y1="388.8319450946845" x2="1048.5" y2="423.47348963972274" stroke="#006340" stroke-width="1"/><rect x="1041.6" y="397.35252525279645" width="13.799999999999999" height="12.73585921384597" fill="#006340"/><line x1="1071.5" y1="396.8240449965531" x2="1071.5" y2="458.6287677562566" stroke="#A02128" stroke-width="1"/><rect x="1064.6" y="397.35252525279645" width="13.799999999999999" height="45.51227171841322" fill="#A02128"/><line x1="1094.5" y1="416.58097780576213" x2="1094.5" y2="491.3649883729041" stroke="#A02128" stroke-width="1"/><rect x="1087.6" y="442.86479697120967" width="13.799999999999999" height="42.006065857531155" fill="#A02128"/><line x1="1117.5" y1="455.0081324319759" x2="1117.5" y2="651.6120835040002" stroke="#A02128" stroke-width="1"/><rect x="1110.6" y="484.8708628287408" width="13.799999999999999" height="134.4930425585265" fill="#A02128"/><line x1="1140.5" y1="540.6843906955811" x2="1140.5" y2="652" stroke="#006340" stroke-width="1"/><rect x="1133.6" y="548.7102270298544" width="13.799999999999999" height="70.6536783574129" fill="#006340"/>
</svg>