<svg xmlns="http://www.w3.org/2000/svg" width="1200" height="700">
  <rect width="100%" height="100%" fill="#0d1117"/>
  <line x1="48" y1="24" x2="1152" y2="24" stroke="#21262d" stroke-width="1"/><line x1="48" y1="181" x2="1152" y2="181" stroke="#21262d" stroke-width="1"/><line x1="48" y1="338" x2="1152" y2="338" stroke="#21262d" stroke-width="1"/><line x1="48" y1="495" x2="1152" y2="495" stroke="#21262d" stroke-width="1"/><line x1="48" y1="652" x2="1152" y2="652" stroke="#21262d" stroke-width="1"/>
  <line x1="59.5" y1="620.9757221961337" x2="59.5" y2="641.0616959182191" stroke="#A02128" stroke-width="1"/><rect x="52.6" y="623.708501918172" width="13.799999999999999" height="10.3699916435869" fill="#A02128"/><line x1="82.5" y1="616.940206355033" x2="82.5" y2="648.8957410300371" stroke="#006340" stroke-width="1"/><rect x="75.6" y="628.281400063131" width="13.799999999999999" height="5.797093498627987" fill="#006340"/><line x1="105.5" y1="621.3029364128828" x2="105.5" y2="651.6360797630161" stroke="#A02128" stroke-width="1"/><rect x="98.6" y="628.281400063131" width="13.799999999999999" height="12.153165650454753" fill="#A02128"/><line x1="128.5" y1="627.472647640597" x2="128.5" y2="648.62074126063" stroke="#A02128" stroke-width="1"/><rect x="121.6" y="640.4345657135857" width="13.799999999999999" height="1.2117363064842266" fill="#A02128"/><line x1="151.5" y1="615.2533999940199" x2="151.5" y2="652" stroke="#006340" stroke-width="1"/><rect x="144.6" y="624.3809281449495" width="13.799999999999999" height="17.265373875120417" fill="#006340"/><line x1="174.5" y1="621.2070991679262" x2="174.5" y2="642.0483839146161" stroke="#A02128" stroke-width="1"/><rect x="167.6" y="624.3809281449495" width="13.799999999999999" height="10.218701783286406" fill="#A02128"/><line x1="197.5" y1="596.2202571382251" x2="197.5" y2="642.9153263625135" stroke="#006340" stroke-width="1"/><rect x="190.6" y="608.8110109264362" width="13.799999999999999" height="25.788619001799702" fill="#006340"/><line x1="220.5" y1="593.2624207960405" x2="220.5" y2="623.9078679028953" stroke="#006340" stroke-width="1"/><rect x="213.6" y="602.2573526602247" width="13.799999999999999" height="6.553658266211528" fill="#006340"/><line x1="243.5" y1="569.8765693031552" x2="243.5" y2="611.871316231096" stroke="#006340" stroke-width="1"/><rect x="236.6" y="578.2362965466373" width="13.799999999999999" height="24.021056113587406" fill="#006340"/><line x1="266.5" y1="572.0206417586236" x2="266.5" y2="598.0212369450373" stroke="#A02128" stroke-width="1"/><rect x="259.6" y="578.2362965466373" width="13.799999999999999" height="11.865746208764222" fill="#A02128"/><line x1="289.5" y1="577.1655528061688" x2="289.5" y2="599.5153388523555" stroke="#006340" stroke-width="1"/><rect x="282.6" y="579.0262936524276" width="13.799999999999999" height="11.075749102973873" fill="#006340"/><line x1="312.5" y1="574.8525592467158" x2="312.5" y2="599.4298736098955" stroke="#A02128" stroke-width="1"/><rect x="305.6" y="579.0262936524276" width="13.799999999999999" height="6.682233487212557" fill="#A02128"/><line x1="335.5" y1="580.8573242947414" x2="335.5" y2="612.0236013081499" stroke="#A02128" stroke-width="1"/><rect x="328.6" y="585.7085271396402" width="13.799999999999999" height="19.938602163549717" fill="#A02128"/><line x1="358.5" y1="586.8640005976636" x2="358.5" y2="606.1979171923758" stroke="#006340" stroke-width="1"/><rect x="351.6" y="594.0903098870313" width="13.799999999999999" height="11.556819416158646" fill="#006340"/><line x1="381.5" y1="561.1717097499505" x2="381.5" y2="596.0012917357224" stroke="#006340" stroke-width="1"/><rect x="374.6" y="577.0112641074763" width="13.799999999999999" height="17.079045779554917" fill="#006340"/><line x1="404.5" y1="542.5270190885143" x2="404.5" y2="590.5955583190496" stroke="#006340" stroke-width="1"/><rect x="397.6" y="551.4857146310754" width="13.799999999999999" height="25.525549476400897" fill="#006340"/><line x1="427.5" y1="541.3325259540682" x2="427.5" y2="559.2069999656812" stroke="#006340" stroke-width="1"/><rect x="420.6" y="548.1116490260864" width="13.799999999999999" height="3.3740656049890276" fill="#006340"/><line x1="450.5" y1="542.4302896497903" x2="450.5" y2="572.9532059187503" stroke="#A02128" stroke-width="1"/><rect x="443.6" y="548.1116490260864" width="13.799999999999999" height="17.428185458274356" fill="#A02128"/><line x1="473.5" y1="537.2230703508396" x2="473.5" y2="580.4290848873723" stroke="#006340" stroke-width="1"/><rect x="466.6" y="543.4576709549625" width="13.799999999999999" height="22.082163529398258" fill="#006340"/><line x1="496.5" y1="533.1136964762508" x2="496.5" y2="551.087748275667" stroke="#006340" stroke-width="1"/><rect x="489.6" y="540.2375267498539" width="13.799999999999999" height="3.220144205108568" fill="#006340"/><line x1="519.5" y1="535.175985109838" x2="519.5" y2="570.2489991580911" stroke="#A02128" stroke-width="1"/><rect x="512.6" y="540.2375267498539" width="13.799999999999999" height="15.46180320905728" fill="#A02128"/><line x1="542.5" y1="549.0099061321644" x2="542.5" y2="570.6830380302019" stroke="#A02128" stroke-width="1"/><rect x="535.6" y="555.6993299589112" width="13.799999999999999" height="8.146242643238566" fill="#A02128"/><line x1="565.5" y1="536.768952845298" x2="565.5" y2="575.3143646904355" stroke="#006340" stroke-width="1"/><rect x="558.6" y="552.2666048630351" width="13.799999999999999" height="11.57896773911466" fill="#006340"/><line x1="588.5" y1="537.0576572206553" x2="588.5" y2="578.1420650608834" stroke="#A02128" stroke-width="1"/><rect x="581.6" y="552.2666048630351" width="13.799999999999999" height="13.986941661091464" fill="#A02128"/><line x1="611.5" y1="552.7987115504438" x2="611.5" y2="581.8812441455243" stroke="#006340" stroke-width="1"/><rect x="604.6" y="561.1029872103134" width="13.799999999999999" height="5.150559313813233" fill="#006340"/><line x1="634.5" y1="547.1126003229798" x2="634.5" y2="575.7409170479016" stroke="#006340" stroke-width="1"/><rect x="627.6" y="550.0764550651779" width="13.799999999999999" height="11.026532145135434" fill="#006340"/><line x1="657.5" y1="509.86173815334973" x2="657.5" y2="553.7711723820106" stroke="#006340" stroke-width="1"/><rect x="650.6" y="525.408069272042" width="13.799999999999999" height="24.66838579313594" fill="#006340"/><line x1="680.5" y1="504.60912841752673" x2="680.5" y2="535.565835477085" stroke="#006340" stroke-width="1"/><rect x="673.6" y="507.93117041693887" width="13.799999999999999" height="17.476898855103116" fill="#006340"/><line x1="703.5" y1="491.67298423197485" x2="703.5" y2="514.9030353701644" stroke="#A02128" stroke-width="1"/><rect x="696.6" y="507.93117041693887" width="13.799999999999999" height="5.2105788564469435" fill="#A02128"/><line x1="726.5" y1="507.82406430042363" x2="726.5" y2="519.2369354523842" stroke="#A02128" stroke-width="1"/><rect x="719.6" y="513.1417492733858" width="13.799999999999999" height="3.0553137048576673" fill="#A02128"/><line x1="749.5" y1="514.1769489332667" x2="749.5" y2="531.5981816482963" stroke="#A02128" stroke-width="1"/><rect x="742.6" y="516.1970629782435" width="13.799999999999999" height="10.69011601426189" fill="#A02128"/><line x1="772.5" y1="505.999174910217" x2="772.5" y2="535.9476268954841" stroke="#006340" stroke-width="1"/><rect x="765.6" y="519.5465094042495" width="13.799999999999999" height="7.340669588255878" fill="#006340"/><line x1="795.5" y1="519.0174802807986" x2="795.5" y2="540.5552869717507" stroke="#A02128" stroke-width="1"/><rect x="788.6" y="519.5465094042495" width="13.799999999999999" height="13.21542767089943" fill="#A02128"/><line x1="818.5" y1="512.5166910659594" x2="818.5" y2="543.3671163080223" stroke="#006340" stroke-width="1"/><rect x="811.6" y="518.228904953942" width="13.799999999999999" height="14.53303212120693" fill="#006340"/><line x1="841.5" y1="502.57791155109555" x2="841.5" y2="533.916390637205" stroke="#006340" stroke-width="1"/><rect x="834.6" y="504.75821290184865" width="13.799999999999999" height="13.47069205209334" fill="#006340"/><line x1="864.5" y1="459.2604491275541" x2="864.5" y2="521.1115200938902" stroke="#006340" stroke-width="1"/><rect x="857.6" y="468.7847548788822" width="13.799999999999999" height="35.97345802296644" fill="#006340"/><line x1="887.5" y1="419.8969147961791" x2="887.5" y2="483.6171655770976" stroke="#006340" stroke-width="1"/><rect x="880.6" y="434.91972403168717" width="13.799999999999999" height="33.865030847195044" fill="#006340"/><line x1="910.5" y1="386.37790295713745" x2="910.5" y2="439.8192357961873" stroke="#006340" stroke-width="1"/><rect x="903.6" y="389.80185151221673" width="13.799999999999999" height="45.11787251947044" fill="#006340"/><line x1="933.5" y1="333.10383262197035" x2="933.5" y2="393.22614014897755" stroke="#006340" stroke-width="1"/><rect x="926.6" y="338.2230191258104" width="13.799999999999999" height="51.578832386406305" fill="#006340"/><line x1="956.5" y1="277.926721855543" x2="956.5" y2="344.6932566118421" stroke="#006340" stroke-width="1"/><rect x="949.6" y="283.50964996687543" width="13.799999999999999" height="54.713369158934995" fill="#006340"/><line x1="979.5" y1="245.39459504881268" x2="979.5" y2="295.8385593333408" stroke="#006340" stroke-width="1"/><rect x="972.6" y="254.6515035822203" width="13.799999999999999" height="28.85814638465513" fill="#006340"/><line x1="1002.5" y1="213.72356061694967" x2="1002.5" y2="259.47684607179013" stroke="#006340" stroke-width="1"/><rect x="995.6" y="227.63213466107618" width="13.799999999999999" height="27.01936892114412" fill="#006340"/><line x1="1025.5" y1="212.78402173932267" x2="1025.5" y2="243.74456720189022" stroke="#006340" stroke-width="1"/><rect x="1018.6" y="217.3050779664107" width="13.799999999999999" height="10.327056694665487" fill="#006340"/><line x1="1048.5" y1="169.1612715014121" x2="1048.5" y2="230.12824452137204" stroke="#006340" stroke-width="1"/><rect x="1041.6" y="173.2787535881887" width="13.799999999999999" height="44.026324378222" fill="#006340"/><line x1="1071.5" y1="114.74588533302347" x2="1071.5" y2="182.82145814710645" stroke="#006340" stroke-width="1"/><rect x="1064.6" y="119.45580316550502" width="13.799999999999999" height="53.822950422683675" fill="#006340"/><line x1="1094.5" y1="79.93696102335298" x2="1094.5" y2="129.44664983875532" stroke="#006340" stroke-width="1"/><rect x="1087.6" y="85.69061524566564" width="13.799999999999999" height="33.76518791983938" fill="#006340"/><line x1="1117.5" y1="44.42255771215537" x2="1117.5" y2="99.6629676502289" stroke="#006340" stroke-width="1"/><rect x="1110.6" y="62.527200499081005" width="13.799999999999999" height="23.163414746584635" fill="#006340"/><line x1="1140.5" y1="24" x2="1140.5" y2="74.632771550381" stroke="#006340" stroke-width="1"/><rect x="1133.6" y="30.57577416720278" width="13.799999999999999" height="31.951426331878224" fill="#006340"/>
</svg>