<svg xmlns="http://www.w3.org/2000/svg" width="1200" height="700">
  <rect width="100%" height="100%" fill="#0d1117"/>
  <line x1="48" y1="24" x2="1152" y2="24" stroke="#21262d" stroke-width="1"/><line x1="48" y1="181" x2="1152" y2="181" stroke="#21262d" stroke-width="1"/><line x1="48" y1="338" x2="1152" y2="338" stroke="#21262d" stroke-width="1"/><line x1="48" y1="495" x2="1152" y2="495" stroke="#21262d" stroke-width="1"/><line x1="48" y1="652" x2="1152" y2="652" stroke="#21262d" stroke-width="1"/>
  <line x1="59.5" y1="597.3962905717963" x2="59.5" y2="652" stroke="#006340" stroke-width="1"/><rect x="52.6" y="613.5612114913318" width="13.799999999999999" height="18.846060026424993" fill="#006340"/><line x1="82.5" y1="594.8591896196323" x2="82.5" y2="640.739614734189" stroke="#A02128" stroke-width="1"/><rect x="75.6" y="613.5612114913318" width="13.799999999999999" height="12.190223951358007" fill="#A02128"/><line x1="105.5" y1="587.7435574051609" x2="105.5" y2="626.0196033194868" stroke="#006340" stroke-width="1"/><rect x="98.6" y="605.995527699627" width="13.799999999999999" height="19.755907743062835" fill="#006340"/><line x1="128.5" y1="569.1774597605545" x2="128.5" y2="616.0392503216425" stroke="#006340" stroke-width="1"/><rect x="121.6" y="581.8833448625031" width="13.799999999999999" height="24.112182837123896" fill="#006340"/><line x1="151.5" y1="574.756475900057" x2="151.5" y2="597.0235856694846" stroke="#A02128" stroke-width="1"/><rect x="144.6" y="581.8833448625031" width="13.799999999999999" height="1" fill="#A02128"/><line x1="174.5" y1="571.0387285369277" x2="174.5" y2="604.6095551961791" stroke="#A02128" stroke-width="1"/><rect x="167.6" y="582.4576013670196" width="13.799999999999999" height="6.563712611843471" fill="#A02128"/><line x1="197.5" y1="552.3800556497357" x2="197.5" y2="592.404188454028" stroke="#006340" stroke-width="1"/><rect x="190.6" y="558.8211704433344" width="13.799999999999999" height="30.200143535528696" fill="#006340"/><line x1="220.5" y1="556.5797172222775" x2="220.5" y2="568.0634470664858" stroke="#A02128" stroke-width="1"/><rect x="213.6" y="558.8211704433344" width="13.799999999999999" height="3.734543100191786" fill="#A02128"/><line x1="243.5" y1="535.9420374710611" x2="243.5" y2="582.8478264035577" stroke="#006340" stroke-width="1"/><rect x="236.6" y="543.5799937459853" width="13.799999999999999" height="18.97571979754082" fill="#006340"/><line x1="266.5" y1="487.88784459260717" x2="266.5" y2="553.7677707764889" stroke="#006340" stroke-width="1"/><rect x="259.6" y="502.5043612829711" width="13.799999999999999" height="41.075632463014244" fill="#006340"/><line x1="289.5" y1="454.9511573646777" x2="289.5" y2="512.2704204479941" stroke="#006340" stroke-width="1"/><rect x="282.6" y="458.1764712664668" width="13.799999999999999" height="44.327890016504284" fill="#006340"/><line x1="312.5" y1="399.2862279618845" x2="312.5" y2="466.64496241865174" stroke="#006340" stroke-width="1"/><rect x="305.6" y="415.02181137521643" width="13.799999999999999" height="43.15465989125039" fill="#006340"/><line x1="335.5" y1="394.0616305559599" x2="335.5" y2="432.15859907387767" stroke="#006340" stroke-width="1"/><rect x="328.6" y="397.31630086647317" width="13.799999999999999" height="17.70551050874326" fill="#006340"/><line x1="358.5" y1="392.80017299260186" x2="358.5" y2="415.3604577902936" stroke="#A02128" stroke-width="1"/><rect x="351.6" y="397.31630086647317" width="13.799999999999999" height="9.6787964908562" fill="#A02128"/><line x1="381.5" y1="397.4802793590077" x2="381.5" y2="431.4076685126088" stroke="#A02128" stroke-width="1"/><rect x="374.6" y="406.99509735732937" width="13.799999999999999" height="10.448100321420782" fill="#A02128"/><line x1="404.5" y1="378.92908218491823" x2="404.5" y2="428.32662546010386" stroke="#006340" stroke-width="1"/><rect x="397.6" y="394.41273017111865" width="13.799999999999999" height="23.0304675076315" fill="#006340"/><line x1="427.5" y1="361.3667405437765" x2="427.5" y2="414.17687075946236" stroke="#006340" stroke-width="1"/><rect x="420.6" y="369.42826476792635" width="13.799999999999999" height="24.984465403192303" fill="#006340"/><line x1="450.5" y1="362.55615692497867" x2="450.5" y2="382.51663026451706" stroke="#A02128" stroke-width="1"/><rect x="443.6" y="369.42826476792635" width="13.799999999999999" height="9.343932173477015" fill="#A02128"/><line x1="473.5" y1="357.5930414503512" x2="473.5" y2="386.1566586325325" stroke="#006340" stroke-width="1"/><rect x="466.6" y="376.0483588559917" width="13.799999999999999" height="2.7238380854116713" fill="#006340"/><line x1="496.5" y1="350.8862043415194" x2="496.5" y2="382.4527811000735" stroke="#006340" stroke-width="1"/><rect x="489.6" y="371.48554882542135" width="13.799999999999999" height="4.562810030570347" fill="#006340"/><line x1="519.5" y1="359.4250773907406" x2="519.5" y2="394.17655093619885" stroke="#A02128" stroke-width="1"/><rect x="512.6" y="371.48554882542135" width="13.799999999999999" height="5.716252497662424" fill="#A02128"/><line x1="542.5" y1="373.1563227380357" x2="542.5" y2="380.1169927199697" stroke="#006340" stroke-width="1"/><rect x="535.6" y="374.2266357753417" width="13.799999999999999" height="2.9751655477420513" fill="#006340"/><line x1="565.5" y1="358.8279275188478" x2="565.5" y2="377.73787483328255" stroke="#A02128" stroke-width="1"/><rect x="558.6" y="374.2266357753417" width="13.799999999999999" height="3.208929665730466" fill="#A02128"/><line x1="588.5" y1="354.2397571259283" x2="588.5" y2="384.6249263669733" stroke="#006340" stroke-width="1"/><rect x="581.6" y="362.01434097717174" width="13.799999999999999" height="15.421224463900444" fill="#006340"/><line x1="611.5" y1="354.21139658520286" x2="611.5" y2="376.90511852577725" stroke="#006340" stroke-width="1"/><rect x="604.6" y="360.3725349359053" width="13.799999999999999" height="1.6418060412664204" fill="#006340"/><line x1="634.5" y1="303.21776350317384" x2="634.5" y2="361.1066150070976" stroke="#006340" stroke-width="1"/><rect x="627.6" y="322.8437703890881" width="13.799999999999999" height="37.52876454681723" fill="#006340"/><line x1="657.5" y1="307.1436647299437" x2="657.5" y2="352.2261013595456" stroke="#A02128" stroke-width="1"/><rect x="650.6" y="322.8437703890881" width="13.799999999999999" height="10.270164045224817" fill="#A02128"/><line x1="680.5" y1="320.51267469082404" x2="680.5" y2="355.04787981326757" stroke="#A02128" stroke-width="1"/><rect x="673.6" y="333.1139344343129" width="13.799999999999999" height="2.726762948703481" fill="#A02128"/><line x1="703.5" y1="282.7279381890842" x2="703.5" y2="344.457154474937" stroke="#006340" stroke-width="1"/><rect x="696.6" y="287.91887337977937" width="13.799999999999999" height="47.92182400323702" fill="#006340"/><line x1="726.5" y1="274.9930659172307" x2="726.5" y2="318.28304371102126" stroke="#A02128" stroke-width="1"/><rect x="719.6" y="287.91887337977937" width="13.799999999999999" height="15.10472796934556" fill="#A02128"/><line x1="749.5" y1="300.3539373843453" x2="749.5" y2="335.600662054402" stroke="#A02128" stroke-width="1"/><rect x="742.6" y="303.02360134912493" width="13.799999999999999" height="15.466531286158386" fill="#A02128"/><line x1="772.5" y1="290.7696057263196" x2="772.5" y2="320.86001349145357" stroke="#006340" stroke-width="1"/><rect x="765.6" y="297.7324842880057" width="13.799999999999999" height="20.75764834727761" fill="#006340"/><line x1="795.5" y1="269.509267927333" x2="795.5" y2="313.77221195665953" stroke="#006340" stroke-width="1"/><rect x="788.6" y="276.6506999661748" width="13.799999999999999" height="21.081784321830924" fill="#006340"/><line x1="818.5" y1="212.0724695344507" x2="818.5" y2="280.38634344860964" stroke="#006340" stroke-width="1"/><rect x="811.6" y="229.90712889510513" width="13.799999999999999" height="46.74357107106965" fill="#006340"/><line x1="841.5" y1="211.40537391482758" x2="841.5" y2="248.23471587951894" stroke="#006340" stroke-width="1"/><rect x="834.6" y="214.87424480509026" width="13.799999999999999" height="15.032884090014875" fill="#006340"/><line x1="864.5" y1="176.7252295372885" x2="864.5" y2="231.8630388342267" stroke="#006340" stroke-width="1"/><rect x="857.6" y="184.38013214410267" width="13.799999999999999" height="30.494112660987582" fill="#006340"/><line x1="887.5" y1="143.37672038183473" x2="887.5" y2="204.09802152380053" stroke="#006340" stroke-width="1"/><rect x="880.6" y="164.0378102004221" width="13.799999999999999" height="20.342321943680588" fill="#006340"/><line x1="910.5" y1="145.6730796244961" x2="910.5" y2="189.44445065347213" stroke="#A02128" stroke-width="1"/><rect x="903.6" y="164.0378102004221" width="13.799999999999999" height="7.196892408298538" fill="#A02128"/><line x1="933.5" y1="159.83353711309763" x2="933.5" y2="192.9761121727671" stroke="#A02128" stroke-width="1"/><rect x="926.6" y="171.23470260872062" width="13.799999999999999" height="7.188159923601802" fill="#A02128"/><line x1="956.5" y1="111.16967281699226" x2="956.5" y2="200.5552811901007" stroke="#006340" stroke-width="1"/><rect x="949.6" y="131.49894045083136" width="13.799999999999999" height="46.92392208149107" fill="#006340"/><line x1="979.5" y1="93.95790740917096" x2="979.5" y2="133.53525315471438" stroke="#006340" stroke-width="1"/><rect x="972.6" y="106.37956355192546" width="13.799999999999999" height="25.119376898905898" fill="#006340"/><line x1="1002.5" y1="85.42882274436897" x2="1002.5" y2="130.0550158021074" stroke="#A02128" stroke-width="1"/><rect x="995.6" y="106.37956355192546" width="13.799999999999999" height="13.293390752657842" fill="#A02128"/><line x1="1025.5" y1="97.70091549415292" x2="1025.5" y2="124.05559959096877" stroke="#006340" stroke-width="1"/><rect x="1018.6" y="117.37878377580432" width="13.799999999999999" height="2.2941705287789773" fill="#006340"/><line x1="1048.5" y1="83.33837385954871" x2="1048.5" y2="128.98718601610085" stroke="#006340" stroke-width="1"/><rect x="1041.6" y="105.72021449748468" width="13.799999999999999" height="11.658569278319646" fill="#006340"/><line x1="1071.5" y1="50.641952885892465" x2="1071.5" y2="113.09396988914864" stroke="#006340" stroke-width="1"/><rect x="1064.6" y="71.2661237487498" width="13.799999999999999" height="34.45409074873487" fill="#006340"/><line x1="1094.5" y1="55.77999725179586" x2="1094.5" y2="95.25714388415281" stroke="#A02128" stroke-width="1"/><rect x="1087.6" y="71.2661237487498" width="13.799999999999999" height="7.9268846565919375" fill="#A02128"/><line x1="1117.5" y1="56.38024760549786" x2="1117.5" y2="85.51488533508484" stroke="#006340" stroke-width="1"/><rect x="1110.6" y="71.58299139648852" width="13.799999999999999" height="7.6100170088532195" fill="#006340"/><line x1="1140.5" y1="24" x2="1140.5" y2="80.93131479193437" stroke="#006340" stroke-width="1"/><rect x="1133.6" y="30.427641984555407" width="13.799999999999999" height="41.155349411933116" fill="#006340"/>
</svg>