<svg xmlns="http://www.w3.org/2000/svg" width="1200" height="700">
  <rect width="100%" height="100%" fill="#0d1117"/>
  <line x1="48" y1="24" x2="1152" y2="24" stroke="#21262d" stroke-width="1"/><line x1="48" y1="181" x2="1152" y2="181" stroke="#21262d" stroke-width="1"/><line x1="48" y1="338" x2="1152" y2="338" stroke="#21262d" stroke-width="1"/><line x1="48" y1="495" x2="1152" y2="495" stroke="#21262d" stroke-width="1"/><line x1="48" y1="652" x2="1152" y2="652" stroke="#21262d" stroke-width="1"/>
  <line x1="59.5" y1="301.8451616146456" x2="59.5" y2="393.3570737026407" stroke="#006340" stroke-width="1"/><rect x="52.6" y="345.34352448596667" width="13.799999999999999" height="28.85809303208589" fill="#006340"/><line x1="82.5" y1="308.47993217577323" x2="82.5" y2="356.06976579492033" stroke="#A02128" stroke-width="1"/><rect x="75.6" y="345.34352448596667" width="13.799999999999999" height="5.363362556027198" fill="#A02128"/><line x1="105.5" y1="315.1693349648637" x2="105.5" y2="404.67823667324956" stroke="#A02128" stroke-width="1"/><rect x="98.6" y="350.70688704199387" width="13.799999999999999" height="37.72106474767145" fill="#A02128"/><line x1="128.5" y1="379.82903400957645" x2="128.5" y2="497.29085758453004" stroke="#A02128" stroke-width="1"/><rect x="121.6" y="388.4279517896653" width="13.799999999999999" height="75.39762607599397" fill="#A02128"/><line x1="151.5" y1="425.86865537763583" x2="151.5" y2="580.9976778275625" stroke="#A02128" stroke-width="1"/><rect x="144.6" y="463.8255778656593" width="13.799999999999999" height="75.81960060493077" fill="#A02128"/><line x1="174.5" y1="529.7475561269935" x2="174.5" y2="652" stroke="#A02128" stroke-width="1"/><rect x="167.6" y="539.64517847059" width="13.799999999999999" height="63.67104255954155" fill="#A02128"/><line x1="197.5" y1="488.6377997701858" x2="197.5" y2="613.4324182185695" stroke="#006340" stroke-width="1"/><rect x="190.6" y="530.3412266703006" width="13.799999999999999" height="72.97499435983104" fill="#006340"/><line x1="220.5" y1="463.9618588627441" x2="220.5" y2="568.6719686941545" stroke="#006340" stroke-width="1"/><rect x="213.6" y="491.5474614170728" width="13.799999999999999" height="38.793765253227775" fill="#006340"/><line x1="243.5" y1="462.4389118684645" x2="243.5" y2="535.5384234160975" stroke="#A02128" stroke-width="1"/><rect x="236.6" y="491.5474614170728" width="13.799999999999999" height="38.6144150813393" fill="#A02128"/><line x1="266.5" y1="458.5166833490055" x2="266.5" y2="578.0511534267144" stroke="#006340" stroke-width="1"/><rect x="259.6" y="494.935601857643" width="13.799999999999999" height="35.22627464076908" fill="#006340"/><line x1="289.5" y1="383.194536394713" x2="289.5" y2="543.8360879937367" stroke="#006340" stroke-width="1"/><rect x="282.6" y="418.8730005823917" width="13.799999999999999" height="76.06260127525132" fill="#006340"/><line x1="312.5" y1="331.2805361234832" x2="312.5" y2="424.20211118746795" stroke="#006340" stroke-width="1"/><rect x="305.6" y="347.4736494818922" width="13.799999999999999" height="71.39935110049947" fill="#006340"/><line x1="335.5" y1="301.7983149558138" x2="335.5" y2="398.3627449779533" stroke="#006340" stroke-width="1"/><rect x="328.6" y="306.38771641810945" width="13.799999999999999" height="41.08593306378276" fill="#006340"/><line x1="358.5" y1="270.5494206623152" x2="358.5" y2="365.2460529382517" stroke="#A02128" stroke-width="1"/><rect x="351.6" y="306.38771641810945" width="13.799999999999999" height="44.39530153439671" fill="#A02128"/><line x1="381.5" y1="313.89203965788823" x2="381.5" y2="351.5460015121645" stroke="#006340" stroke-width="1"/><rect x="374.6" y="328.15366384274614" width="13.799999999999999" height="22.629354109760015" fill="#006340"/><line x1="404.5" y1="306.9417788023633" x2="404.5" y2="408.4094654433952" stroke="#A02128" stroke-width="1"/><rect x="397.6" y="328.15366384274614" width="13.799999999999999" height="52.61662506260785" fill="#A02128"/><line x1="427.5" y1="322.00455111126746" x2="427.5" y2="417.8171121501526" stroke="#006340" stroke-width="1"/><rect x="420.6" y="329.5210568339506" width="13.799999999999999" height="51.24923207140341" fill="#006340"/><line x1="450.5" y1="288.3058101176124" x2="450.5" y2="358.2800464540303" stroke="#A02128" stroke-width="1"/><rect x="443.6" y="329.5210568339506" width="13.799999999999999" height="1" fill="#A02128"/><line x1="473.5" y1="288.28835825768834" x2="473.5" y2="378.76405971803075" stroke="#006340" stroke-width="1"/><rect x="466.6" y="305.90293062939395" width="13.799999999999999" height="24.361499594741474" fill="#006340"/><line x1="496.5" y1="265.7857724768791" x2="496.5" y2="318.82704541907015" stroke="#006340" stroke-width="1"/><rect x="489.6" y="278.6887877052535" width="13.799999999999999" height="27.214142924140447" fill="#006340"/><line x1="519.5" y1="244.04065067513233" x2="519.5" y2="378.81573765397684" stroke="#A02128" stroke-width="1"/><rect x="512.6" y="278.6887877052535" width="13.799999999999999" height="57.0760520196568" fill="#A02128"/><line x1="542.5" y1="230.23837312411638" x2="542.5" y2="347.41021153064173" stroke="#006340" stroke-width="1"/><rect x="535.6" y="262.05422799885434" width="13.799999999999999" height="73.71061172605596" fill="#006340"/><line x1="565.5" y1="204.0581877583607" x2="565.5" y2="283.75423546055185" stroke="#006340" stroke-width="1"/><rect x="558.6" y="241.55024252366155" width="13.799999999999999" height="20.503985475192792" fill="#006340"/><line x1="588.5" y1="146.49753241234214" x2="588.5" y2="259.3704535738412" stroke="#006340" stroke-width="1"/><rect x="581.6" y="186.00053847964944" width="13.799999999999999" height="55.54970404401212" fill="#006340"/><line x1="611.5" y1="136.7615868592303" x2="611.5" y2="233.0923327041521" stroke="#006340" stroke-width="1"/><rect x="604.6" y="172.89228596010213" width="13.799999999999999" height="13.108252519547307" fill="#006340"/><line x1="634.5" y1="57.82998225257609" x2="634.5" y2="194.45244867514884" stroke="#006340" stroke-width="1"/><rect x="627.6" y="94.17524576667154" width="13.799999999999999" height="78.71704019343059" fill="#006340"/><line x1="657.5" y1="80.99960493719516" x2="657.5" y2="140.03924121239322" stroke="#A02128" stroke-width="1"/><rect x="650.6" y="94.17524576667154" width="13.799999999999999" height="21.598985403180336" fill="#A02128"/><line x1="680.5" y1="45.25135809966457" x2="680.5" y2="152.14898792920138" stroke="#006340" stroke-width="1"/><rect x="673.6" y="49.97170805584585" width="13.799999999999999" height="65.80252311400602" fill="#006340"/><line x1="703.5" y1="26.537829997555946" x2="703.5" y2="135.22634598381546" stroke="#A02128" stroke-width="1"/><rect x="696.6" y="49.97170805584585" width="13.799999999999999" height="78.83973506038308" fill="#A02128"/><line x1="726.5" y1="87.1010775608056" x2="726.5" y2="141.3582546162894" stroke="#006340" stroke-width="1"/><rect x="719.6" y="118.6601266359869" width="13.799999999999999" height="10.15131648024203" fill="#006340"/><line x1="749.5" y1="76.12888391126171" x2="749.5" y2="161.24457151481266" stroke="#A02128" stroke-width="1"/><rect x="742.6" y="118.6601266359869" width="13.799999999999999" height="16.899282115311735" fill="#A02128"/><line x1="772.5" y1="103.36800914379671" x2="772.5" y2="138.80198267486696" stroke="#006340" stroke-width="1"/><rect x="765.6" y="106.8739461592603" width="13.799999999999999" height="28.685462592038334" fill="#006340"/><line x1="795.5" y1="91.98298608651953" x2="795.5" y2="126.46107016931091" stroke="#006340" stroke-width="1"/><rect x="788.6" y="106.74116944888112" width="13.799999999999999" height="1" fill="#006340"/><line x1="818.5" y1="89.08902792999834" x2="818.5" y2="136.53856150394847" stroke="#A02128" stroke-width="1"/><rect x="811.6" y="106.74116944888112" width="13.799999999999999" height="1" fill="#A02128"/><line x1="841.5" y1="96.17809827466544" x2="841.5" y2="108.11296505353755" stroke="#006340" stroke-width="1"/><rect x="834.6" y="105.92696608578797" width="13.799999999999999" height="1.312345613096113" fill="#006340"/><line x1="864.5" y1="91.89651287645574" x2="864.5" y2="137.06608999431126" stroke="#006340" stroke-width="1"/><rect x="857.6" y="92.47935014580469" width="13.799999999999999" height="13.44761593998328" fill="#006340"/><line x1="887.5" y1="24" x2="887.5" y2="122.18296299484234" stroke="#006340" stroke-width="1"/><rect x="880.6" y="67.73867142405436" width="13.799999999999999" height="24.740678721750328" fill="#006340"/><line x1="910.5" y1="61.8578911196131" x2="910.5" y2="148.33160661627778" stroke="#A02128" stroke-width="1"/><rect x="903.6" y="67.73867142405436" width="13.799999999999999" height="42.548909587027765" fill="#A02128"/><line x1="933.5" y1="60.24840444186759" x2="933.5" y2="138.57552136732238" stroke="#A02128" stroke-width="1"/><rect x="926.6" y="110.28758101108212" width="13.799999999999999" height="3.890410031497936" fill="#A02128"/><line x1="956.5" y1="106.08054485732055" x2="956.5" y2="169.0890575375563" stroke="#A02128" stroke-width="1"/><rect x="949.6" y="114.17799104258006" width="13.799999999999999" height="18.01620822363418" fill="#A02128"/><line x1="979.5" y1="86.1071997641692" x2="979.5" y2="181.7950765309639" stroke="#A02128" stroke-width="1"/><rect x="972.6" y="132.19419926621424" width="13.799999999999999" height="24.29659279202997" fill="#A02128"/><line x1="1002.5" y1="111.79948509398002" x2="1002.5" y2="258.1320725016415" stroke="#A02128" stroke-width="1"/><rect x="995.6" y="156.4907920582442" width="13.799999999999999" height="66.93420384562256" fill="#A02128"/><line x1="1025.5" y1="129.03208874914344" x2="1025.5" y2="236.28639409177327" stroke="#006340" stroke-width="1"/><rect x="1018.6" y="161.260741617389" width="13.799999999999999" height="62.164254286477785" fill="#006340"/><line x1="1048.5" y1="76.65145290310727" x2="1048.5" y2="209.0739924875562" stroke="#006340" stroke-width="1"/><rect x="1041.6" y="124.0780891247465" width="13.799999999999999" height="37.18265249264249" fill="#006340"/><line x1="1071.5" y1="96.82218576150171" x2="1071.5" y2="150.124987011965" stroke="#006340" stroke-width="1"/><rect x="1064.6" y="119.91041961963913" width="13.799999999999999" height="4.167669505107369" fill="#006340"/><line x1="1094.5" y1="73.24639771084844" x2="1094.5" y2="173.74585968520444" stroke="#A02128" stroke-width="1"/><rect x="1087.6" y="119.91041961963913" width="13.799999999999999" height="23.345614382171107" fill="#A02128"/><line x1="1117.5" y1="60.91539040915211" x2="1117.5" y2="157.11709435109896" stroke="#006340" stroke-width="1"/><rect x="1110.6" y="104.36438930477914" width="13.799999999999999" height="38.8916446970311" fill="#006340"/><line x1="1140.5" y1="80.85151141353731" x2="1140.5" y2="195.4506438380925" stroke="#A02128" stroke-width="1"/><rect x="1133.6" y="104.36438930477914" width="13.799999999999999" height="59.0615615454866" fill="#A02128"/>
</svg>