<svg xmlns="http://www.w3.org/2000/svg" width="1200" height="700">
  <rect width="100%" height="100%" fill="#0d1117"/>
  <line x1="48" y1="24" x2="1152" y2="24" stroke="#21262d" stroke-width="1"/><line x1="48" y1="181" x2="1152" y2="181" stroke="#21262d" stroke-width="1"/><line x1="48" y1="338" x2="1152" y2="338" stroke="#21262d" stroke-width="1"/><line x1="48" y1="495" x2="1152" y2="495" stroke="#21262d" stroke-width="1"/><line x1="48" y1="652" x2="1152" y2="652" stroke="#21262d" stroke-width="1"/>
  <line x1="59.5" y1="301.4659738110484" x2="59.5" y2="475.55222665753877" stroke="#006340" stroke-width="1"/><rect x="52.6" y="359.59870141955696" width="13.799999999999999" height="105.7686405221317" fill="#006340"/><line x1="82.5" y1="146.2368302296676" x2="82.5" y2="481.2972503127329" stroke="#006340" stroke-width="1"/><rect x="75.6" y="194.52645669288938" width="13.799999999999999" height="165.07224472666758" fill="#006340"/><line x1="105.5" y1="192.76609726974925" x2="105.5" y2="363.4329667578905" stroke="#A02128" stroke-width="1"/><rect x="98.6" y="194.52645669288938" width="13.799999999999999" height="67.02754981652936" fill="#A02128"/><line x1="128.5" y1="176.67838293504366" x2="128.5" y2="301.25874185119" stroke="#A02128" stroke-width="1"/><rect x="121.6" y="261.55400650941874" width="13.799999999999999" height="32.54170695049015" fill="#A02128"/><line x1="151.5" y1="170.97726704048654" x2="151.5" y2="341.8167900161233" stroke="#006340" stroke-width="1"/><rect x="144.6" y="265.09252285810265" width="13.799999999999999" height="29.00319060180624" fill="#006340"/><line x1="174.5" y1="257.8678980163292" x2="174.5" y2="364.96929728592" stroke="#A02128" stroke-width="1"/><rect x="167.6" y="265.09252285810265" width="13.799999999999999" height="29.161211438947305" fill="#A02128"/><line x1="197.5" y1="162.00560648094466" x2="197.5" y2="365.7711132182337" stroke="#006340" stroke-width="1"/><rect x="190.6" y="191.33582194898793" width="13.799999999999999" height="102.91791234806203" fill="#006340"/><line x1="220.5" y1="131.2499054824019" x2="220.5" y2="243.41282426451482" stroke="#A02128" stroke-width="1"/><rect x="213.6" y="191.33582194898793" width="13.799999999999999" height="16.236701984034255" fill="#A02128"/><line x1="243.5" y1="183.88046044325688" x2="243.5" y2="301.87967989525015" stroke="#006340" stroke-width="1"/><rect x="236.6" y="190.32155358578564" width="13.799999999999999" height="17.250970347236546" fill="#006340"/><line x1="266.5" y1="134.59208026833994" x2="266.5" y2="271.5040578939439" stroke="#006340" stroke-width="1"/><rect x="259.6" y="163.43452283694148" width="13.799999999999999" height="26.887030748844154" fill="#006340"/><line x1="289.5" y1="114.06448669741985" x2="289.5" y2="303.79899033937966" stroke="#A02128" stroke-width="1"/><rect x="282.6" y="163.43452283694148" width="13.799999999999999" height="60.83633916154179" fill="#A02128"/><line x1="312.5" y1="207.10401660731299" x2="312.5" y2="400.90139915431087" stroke="#A02128" stroke-width="1"/><rect x="305.6" y="224.27086199848327" width="13.799999999999999" height="152.6162231825861" fill="#A02128"/><line x1="335.5" y1="323.5716947202248" x2="335.5" y2="403.2297522285098" stroke="#006340" stroke-width="1"/><rect x="328.6" y="374.2099691197153" width="13.799999999999999" height="2.67711606135407" fill="#006340"/><line x1="358.5" y1="254.97443847687896" x2="358.5" y2="405.26493183439857" stroke="#006340" stroke-width="1"/><rect x="351.6" y="295.2378770824975" width="13.799999999999999" height="78.9720920372178" fill="#006340"/><line x1="381.5" y1="269.2910184810791" x2="381.5" y2="443.22737882947877" stroke="#A02128" stroke-width="1"/><rect x="374.6" y="295.2378770824975" width="13.799999999999999" height="141.6298343537091" fill="#A02128"/><line x1="404.5" y1="308.88116705006945" x2="404.5" y2="555.5199737944004" stroke="#006340" stroke-width="1"/><rect x="397.6" y="328.2205759511962" width="13.799999999999999" height="108.64713548501038" fill="#006340"/><line x1="427.5" y1="268.0571517880711" x2="427.5" y2="419.1513035623858" stroke="#006340" stroke-width="1"/><rect x="420.6" y="312.4894337114604" width="13.799999999999999" height="15.731142239735846" fill="#006340"/><line x1="450.5" y1="272.01893916262657" x2="450.5" y2="392.58609742695637" stroke="#A02128" stroke-width="1"/><rect x="443.6" y="312.4894337114604" width="13.799999999999999" height="66.56481899051295" fill="#A02128"/><line x1="473.5" y1="346.94558153274073" x2="473.5" y2="479.78291070307733" stroke="#006340" stroke-width="1"/><rect x="466.6" y="366.76913356295296" width="13.799999999999999" height="12.285119139020367" fill="#006340"/><line x1="496.5" y1="160.97418379955627" x2="496.5" y2="463.176018414528" stroke="#006340" stroke-width="1"/><rect x="489.6" y="182.12976547553768" width="13.799999999999999" height="184.63936808741528" fill="#006340"/><line x1="519.5" y1="57.415204155712104" x2="519.5" y2="295.52059620006276" stroke="#A02128" stroke-width="1"/><rect x="512.6" y="182.12976547553768" width="13.799999999999999" height="54.22438676637171" fill="#A02128"/><line x1="542.5" y1="67.96173016706723" x2="542.5" y2="311.94323146161076" stroke="#006340" stroke-width="1"/><rect x="535.6" y="160.9692768140377" width="13.799999999999999" height="75.38487542787169" fill="#006340"/><line x1="565.5" y1="75.54786904321679" x2="565.5" y2="367.91042146437553" stroke="#A02128" stroke-width="1"/><rect x="558.6" y="160.9692768140377" width="13.799999999999999" height="155.90360037384391" fill="#A02128"/><line x1="588.5" y1="127.89202974156854" x2="588.5" y2="416.3964807571085" stroke="#006340" stroke-width="1"/><rect x="581.6" y="138.50010923031243" width="13.799999999999999" height="178.37276795756918" fill="#006340"/><line x1="611.5" y1="68.85124488528106" x2="611.5" y2="174.08216626169735" stroke="#006340" stroke-width="1"/><rect x="604.6" y="136.43782161992635" width="13.799999999999999" height="2.062287610386079" fill="#006340"/><line x1="634.5" y1="99.29711770169604" x2="634.5" y2="283.6495272862707" stroke="#A02128" stroke-width="1"/><rect x="627.6" y="136.43782161992635" width="13.799999999999999" height="141.58527247258638" fill="#A02128"/><line x1="657.5" y1="116.07817481824566" x2="657.5" y2="363.8372805901231" stroke="#006340" stroke-width="1"/><rect x="650.6" y="158.44539277539832" width="13.799999999999999" height="119.57770131711442" fill="#006340"/><line x1="680.5" y1="47.93722788306911" x2="680.5" y2="221.98568955181247" stroke="#A02128" stroke-width="1"/><rect x="673.6" y="158.44539277539832" width="13.799999999999999" height="36.31906286082227" fill="#A02128"/><line x1="703.5" y1="169.14186418046194" x2="703.5" y2="415.60719844549897" stroke="#A02128" stroke-width="1"/><rect x="696.6" y="194.7644556362206" width="13.799999999999999" height="184.15547993912332" fill="#A02128"/><line x1="726.5" y1="294.37931447709366" x2="726.5" y2="604.9147160010847" stroke="#A02128" stroke-width="1"/><rect x="719.6" y="378.9199355753439" width="13.799999999999999" height="104.18933795287734" fill="#A02128"/><line x1="749.5" y1="396.42246273751607" x2="749.5" y2="488.28685273020506" stroke="#006340" stroke-width="1"/><rect x="742.6" y="464.5437805078647" width="13.799999999999999" height="18.56549302035654" fill="#006340"/><line x1="772.5" y1="373.5294337014113" x2="772.5" y2="579.3001081280082" stroke="#006340" stroke-width="1"/><rect x="765.6" y="386.6741865120493" width="13.799999999999999" height="77.86959399581542" fill="#006340"/><line x1="795.5" y1="313.14179147719" x2="795.5" y2="600.1443532267081" stroke="#A02128" stroke-width="1"/><rect x="788.6" y="386.6741865120493" width="13.799999999999999" height="109.36901761183191" fill="#A02128"/><line x1="818.5" y1="368.8474741910512" x2="818.5" y2="509.70628213610155" stroke="#006340" stroke-width="1"/><rect x="811.6" y="462.70647822105093" width="13.799999999999999" height="33.33672590283027" fill="#006340"/><line x1="841.5" y1="368.87592332423355" x2="841.5" y2="487.3455841771414" stroke="#006340" stroke-width="1"/><rect x="834.6" y="446.19870402209295" width="13.799999999999999" height="16.507774198957975" fill="#006340"/><line x1="864.5" y1="389.99295140328735" x2="864.5" y2="605.8278428285267" stroke="#A02128" stroke-width="1"/><rect x="857.6" y="446.19870402209295" width="13.799999999999999" height="42.552207925498976" fill="#A02128"/><line x1="887.5" y1="240.28352481302835" x2="887.5" y2="529.5997793184546" stroke="#006340" stroke-width="1"/><rect x="880.6" y="318.7829205856232" width="13.799999999999999" height="169.96799136196876" fill="#006340"/><line x1="910.5" y1="225.01787279108152" x2="910.5" y2="429.5513102277899" stroke="#A02128" stroke-width="1"/><rect x="903.6" y="318.7829205856232" width="13.799999999999999" height="85.14871715534554" fill="#A02128"/><line x1="933.5" y1="349.0697241075705" x2="933.5" y2="652" stroke="#A02128" stroke-width="1"/><rect x="926.6" y="403.9316377409687" width="13.799999999999999" height="179.44468656579357" fill="#A02128"/><line x1="956.5" y1="428.6197661351086" x2="956.5" y2="634.344682884229" stroke="#006340" stroke-width="1"/><rect x="949.6" y="488.9825543943125" width="13.799999999999999" height="94.39376991244978" fill="#006340"/><line x1="979.5" y1="253.29304395586496" x2="979.5" y2="612.0716925782433" stroke="#006340" stroke-width="1"/><rect x="972.6" y="335.3067683269745" width="13.799999999999999" height="153.67578606733798" fill="#006340"/><line x1="1002.5" y1="299.41893514986936" x2="1002.5" y2="434.21690627371464" stroke="#A02128" stroke-width="1"/><rect x="995.6" y="335.3067683269745" width="13.799999999999999" height="43.70188245081579" fill="#A02128"/><line x1="1025.5" y1="253.09888444854045" x2="1025.5" y2="384.974205823371" stroke="#006340" stroke-width="1"/><rect x="1018.6" y="312.39394156657556" width="13.799999999999999" height="66.61470921121474" fill="#006340"/><line x1="1048.5" y1="24" x2="1048.5" y2="399.4052148348551" stroke="#006340" stroke-width="1"/><rect x="1041.6" y="134.14141492026988" width="13.799999999999999" height="178.25252664630568" fill="#006340"/><line x1="1071.5" y1="70.14250418236304" x2="1071.5" y2="278.20680108180676" stroke="#A02128" stroke-width="1"/><rect x="1064.6" y="134.14141492026988" width="13.799999999999999" height="130.55275823901218" fill="#A02128"/><line x1="1094.5" y1="259.46728952158577" x2="1094.5" y2="413.3503259409331" stroke="#A02128" stroke-width="1"/><rect x="1087.6" y="264.69417315928206" width="13.799999999999999" height="138.35927688649633" fill="#A02128"/><line x1="1117.5" y1="382.7817168218311" x2="1117.5" y2="462.72583593012814" stroke="#006340" stroke-width="1"/><rect x="1110.6" y="396.4892307311486" width="13.799999999999999" height="6.564219314629781" fill="#006340"/><line x1="1140.5" y1="245.50248870626024" x2="1140.5" y2="465.0592032413832" stroke="#006340" stroke-width="1"/><rect x="1133.6" y="334.4380885313386" width="13.799999999999999" height="62.05114219980999" fill="#006340"/>
</svg>