<svg xmlns="http://www.w3.org/2000/svg" width="1200" height="700">
  <rect width="100%" height="100%" fill="#0d1117"/>
  <line x1="48" y1="24" x2="1152" y2="24" stroke="#21262d" stroke-width="1"/><line x1="48" y1="181" x2="1152" y2="181" stroke="#21262d" stroke-width="1"/><line x1="48" y1="338" x2="1152" y2="338" stroke="#21262d" stroke-width="1"/><line x1="48" y1="495" x2="1152" y2="495" stroke="#21262d" stroke-width="1"/><line x1="48" y1="652" x2="1152" y2="652" stroke="#21262d" stroke-width="1"/>
  <line x1="59.5" y1="626.4655424966946" x2="59.5" y2="651.6905854825087" stroke="#006340" stroke-width="1"/><rect x="52.6" y="636.667174828108" width="13.799999999999999" height="3.651008871275394" fill="#006340"/><line x1="82.5" y1="602.3972736117232" x2="82.5" y2="652" stroke="#006340" stroke-width="1"/><rect x="75.6" y="616.7317589011277" width="13.799999999999999" height="19.93541592698034" fill="#006340"/><line x1="105.5" y1="607.1561195761018" x2="105.5" y2="631.2499467246233" stroke="#A02128" stroke-width="1"/><rect x="98.6" y="616.7317589011277" width="13.799999999999999" height="1.2861133979163242" fill="#A02128"/><line x1="128.5" y1="609.1348953221554" x2="128.5" y2="629.7002209031409" stroke="#A02128" stroke-width="1"/><rect x="121.6" y="618.017872299044" width="13.799999999999999" height="7.652586102896521" fill="#A02128"/><line x1="151.5" y1="587.5273570673788" x2="151.5" y2="639.5004170747434" stroke="#006340" stroke-width="1"/><rect x="144.6" y="593.2343506350936" width="13.799999999999999" height="32.43610776684693" fill="#006340"/><line x1="174.5" y1="555.0194294889646" x2="174.5" y2="595.0466272672878" stroke="#006340" stroke-width="1"/><rect x="167.6" y="567.1793240012337" width="13.799999999999999" height="26.05502663385994" fill="#006340"/><line x1="197.5" y1="548.3078338287929" x2="197.5" y2="568.2550205490684" stroke="#006340" stroke-width="1"/><rect x="190.6" y="559.3245681100117" width="13.799999999999999" height="7.854755891221998" fill="#006340"/><line x1="220.5" y1="539.5756011574146" x2="220.5" y2="562.7357707428099" stroke="#006340" stroke-width="1"/><rect x="213.6" y="543.1302041169318" width="13.799999999999999" height="16.194363993079833" fill="#006340"/><line x1="243.5" y1="518.7840753900736" x2="243.5" y2="560.1456082893683" stroke="#006340" stroke-width="1"/><rect x="236.6" y="524.89453552993" width="13.799999999999999" height="18.235668587001896" fill="#006340"/><line x1="266.5" y1="502.80934475759557" x2="266.5" y2="536.0726584441331" stroke="#006340" stroke-width="1"/><rect x="259.6" y="505.76131489454633" width="13.799999999999999" height="19.133220635383623" fill="#006340"/><line x1="289.5" y1="493.252952845191" x2="289.5" y2="511.9712830296367" stroke="#006340" stroke-width="1"/><rect x="282.6" y="503.9498298034424" width="13.799999999999999" height="1.8114850911039184" fill="#006340"/><line x1="312.5" y1="492.34120955353285" x2="312.5" y2="525.9946472324858" stroke="#A02128" stroke-width="1"/><rect x="305.6" y="503.9498298034424" width="13.799999999999999" height="10.19750358796307" fill="#A02128"/><line x1="335.5" y1="486.2370179576148" x2="335.5" y2="517.964822076081" stroke="#006340" stroke-width="1"/><rect x="328.6" y="490.2640773330296" width="13.799999999999999" height="23.883256058375878" fill="#006340"/><line x1="358.5" y1="475.0239720382509" x2="358.5" y2="494.7419123063947" stroke="#A02128" stroke-width="1"/><rect x="351.6" y="490.2640773330296" width="13.799999999999999" height="4.350403384611127" fill="#A02128"/><line x1="381.5" y1="455.13548154597186" x2="381.5" y2="507.5891033190529" stroke="#006340" stroke-width="1"/><rect x="374.6" y="470.58872469518894" width="13.799999999999999" height="24.025756022451787" fill="#006340"/><line x1="404.5" y1="470.35278310246247" x2="404.5" y2="473.5227525480019" stroke="#A02128" stroke-width="1"/><rect x="397.6" y="470.58872469518894" width="13.799999999999999" height="1.6928324760961573" fill="#A02128"/><line x1="427.5" y1="439.0373604135251" x2="427.5" y2="476.7631745796353" stroke="#006340" stroke-width="1"/><rect x="420.6" y="439.89913676904916" width="13.799999999999999" height="32.38242040223594" fill="#006340"/><line x1="450.5" y1="420.88633059477536" x2="450.5" y2="447.6469190477468" stroke="#006340" stroke-width="1"/><rect x="443.6" y="437.61090167926" width="13.799999999999999" height="2.2882350897891683" fill="#006340"/><line x1="473.5" y1="409.5455456928712" x2="473.5" y2="447.0027817472831" stroke="#006340" stroke-width="1"/><rect x="466.6" y="423.8413674271307" width="13.799999999999999" height="13.76953425212929" fill="#006340"/><line x1="496.5" y1="423.16265546964974" x2="496.5" y2="433.3334679475121" stroke="#A02128" stroke-width="1"/><rect x="489.6" y="423.8413674271307" width="13.799999999999999" height="7.969094020710543" fill="#A02128"/><line x1="519.5" y1="430.289455628366" x2="519.5" y2="446.1683388189767" stroke="#A02128" stroke-width="1"/><rect x="512.6" y="431.81046144784125" width="13.799999999999999" height="8.204920887609092" fill="#A02128"/><line x1="542.5" y1="424.9712173129533" x2="542.5" y2="443.17344257614843" stroke="#006340" stroke-width="1"/><rect x="535.6" y="425.004204619022" width="13.799999999999999" height="15.011177716428335" fill="#006340"/><line x1="565.5" y1="373.3287316073774" x2="565.5" y2="440.94684185056207" stroke="#006340" stroke-width="1"/><rect x="558.6" y="388.6035878140562" width="13.799999999999999" height="36.40061680496581" fill="#006340"/><line x1="588.5" y1="360.7331544255801" x2="588.5" y2="398.22912253817924" stroke="#006340" stroke-width="1"/><rect x="581.6" y="372.00837473844314" width="13.799999999999999" height="16.59521307561306" fill="#006340"/><line x1="611.5" y1="337.1610956129755" x2="611.5" y2="389.79532700874455" stroke="#006340" stroke-width="1"/><rect x="604.6" y="345.0439412068991" width="13.799999999999999" height="26.964433531544046" fill="#006340"/><line x1="634.5" y1="333.3488938667153" x2="634.5" y2="349.5504217027864" stroke="#006340" stroke-width="1"/><rect x="627.6" y="341.8054534232806" width="13.799999999999999" height="3.2384877836184955" fill="#006340"/><line x1="657.5" y1="294.33295932433714" x2="657.5" y2="358.38357017863115" stroke="#006340" stroke-width="1"/><rect x="650.6" y="311.89676063056083" width="13.799999999999999" height="29.908692792719762" fill="#006340"/><line x1="680.5" y1="258.46720833721787" x2="680.5" y2="324.9181120395522" stroke="#006340" stroke-width="1"/><rect x="673.6" y="276.2968594428611" width="13.799999999999999" height="35.59990118769974" fill="#006340"/><line x1="703.5" y1="234.6937697990561" x2="703.5" y2="293.7963630874926" stroke="#006340" stroke-width="1"/><rect x="696.6" y="251.68244517181523" width="13.799999999999999" height="24.61441427104586" fill="#006340"/><line x1="726.5" y1="229.7407387387246" x2="726.5" y2="261.99738845049876" stroke="#006340" stroke-width="1"/><rect x="719.6" y="245.72440816894857" width="13.799999999999999" height="5.958037002866661" fill="#006340"/><line x1="749.5" y1="212.46466291447877" x2="749.5" y2="264.34877418766365" stroke="#006340" stroke-width="1"/><rect x="742.6" y="222.7041401729344" width="13.799999999999999" height="23.020267996014184" fill="#006340"/><line x1="772.5" y1="204.66909926473903" x2="772.5" y2="238.53998539936669" stroke="#A02128" stroke-width="1"/><rect x="765.6" y="222.7041401729344" width="13.799999999999999" height="9.400863951894792" fill="#A02128"/><line x1="795.5" y1="217.67896209986873" x2="795.5" y2="248.6161445054359" stroke="#A02128" stroke-width="1"/><rect x="788.6" y="232.10500412482918" width="13.799999999999999" height="11.47715206424698" fill="#A02128"/><line x1="818.5" y1="222.5431201500358" x2="818.5" y2="256.22594378457393" stroke="#006340" stroke-width="1"/><rect x="811.6" y="225.15884381480595" width="13.799999999999999" height="18.42331237427021" fill="#006340"/><line x1="841.5" y1="217.76888904954882" x2="841.5" y2="235.81709560793905" stroke="#006340" stroke-width="1"/><rect x="834.6" y="224.024006912956" width="13.799999999999999" height="1.1348369018499511" fill="#006340"/><line x1="864.5" y1="212.14949365464565" x2="864.5" y2="234.85291719021365" stroke="#006340" stroke-width="1"/><rect x="857.6" y="223.57580561125081" width="13.799999999999999" height="1" fill="#006340"/><line x1="887.5" y1="211.71155717765777" x2="887.5" y2="230.36080865444586" stroke="#A02128" stroke-width="1"/><rect x="880.6" y="223.57580561125081" width="13.799999999999999" height="4.166123457453523" fill="#A02128"/><line x1="910.5" y1="221.61280234798608" x2="910.5" y2="240.7219319963766" stroke="#A02128" stroke-width="1"/><rect x="903.6" y="227.74192906870434" width="13.799999999999999" height="8.193695479681708" fill="#A02128"/><line x1="933.5" y1="210.75674882689594" x2="933.5" y2="252.531826758254" stroke="#006340" stroke-width="1"/><rect x="926.6" y="224.43297586408488" width="13.799999999999999" height="11.502648684301164" fill="#006340"/><line x1="956.5" y1="204.31197761371754" x2="956.5" y2="240.6986285144157" stroke="#006340" stroke-width="1"/><rect x="949.6" y="215.22973466029066" width="13.799999999999999" height="9.20324120379422" fill="#006340"/><line x1="979.5" y1="181.75185919369108" x2="979.5" y2="225.04974275188994" stroke="#006340" stroke-width="1"/><rect x="972.6" y="192.8946963467182" width="13.799999999999999" height="22.335038313572454" fill="#006340"/><line x1="1002.5" y1="157.31544942076437" x2="1002.5" y2="201.06181031221087" stroke="#006340" stroke-width="1"/><rect x="995.6" y="160.47146460186178" width="13.799999999999999" height="32.42323174485642" fill="#006340"/><line x1="1025.5" y1="121.03671441670213" x2="1025.5" y2="173.7044306456147" stroke="#006340" stroke-width="1"/><rect x="1018.6" y="137.1509269426033" width="13.799999999999999" height="23.32053765925849" fill="#006340"/><line x1="1048.5" y1="136.66817516815695" x2="1048.5" y2="160.29693950401054" stroke="#A02128" stroke-width="1"/><rect x="1041.6" y="137.1509269426033" width="13.799999999999999" height="13.434396424976114" fill="#A02128"/><line x1="1071.5" y1="120.36686190553837" x2="1071.5" y2="157.42361830188003" stroke="#006340" stroke-width="1"/><rect x="1064.6" y="127.72007638998991" width="13.799999999999999" height="22.865246977589493" fill="#006340"/><line x1="1094.5" y1="81.36121666024951" x2="1094.5" y2="138.3842315866017" stroke="#006340" stroke-width="1"/><rect x="1087.6" y="97.9771955133159" width="13.799999999999999" height="29.742880876674008" fill="#006340"/><line x1="1117.5" y1="52.75932371151521" x2="1117.5" y2="109.35309516557254" stroke="#006340" stroke-width="1"/><rect x="1110.6" y="65.36582120116464" width="13.799999999999999" height="32.61137431215127" fill="#006340"/><line x1="1140.5" y1="24" x2="1140.5" y2="67.88851135993627" stroke="#006340" stroke-width="1"/><rect x="1133.6" y="41.262595304571505" width="13.799999999999999" height="24.10322589659313" fill="#006340"/>
</svg>