<svg xmlns="http://www.w3.org/2000/svg" width="1200" height="700">
  <rect width="100%" height="100%" fill="#0d1117"/>
  <line x1="48" y1="24" x2="1152" y2="24" stroke="#21262d" stroke-width="1"/><line x1="48" y1="181" x2="1152" y2="181" stroke="#21262d" stroke-width="1"/><line x1="48" y1="338" x2="1152" y2="338" stroke="#21262d" stroke-width="1"/><line x1="48" y1="495" x2="1152" y2="495" stroke="#21262d" stroke-width="1"/><line x1="48" y1="652" x2="1152" y2="652" stroke="#21262d" stroke-width="1"/>
  <line x1="59.5" y1="613.2671266467498" x2="59.5" y2="652" stroke="#006340" stroke-width="1"/><rect x="52.6" y="628.8855578063467" width="13.799999999999999" height="10.873054573512945" fill="#006340"/><line x1="82.5" y1="608.6602520665037" x2="82.5" y2="640.3318016841826" stroke="#006340" stroke-width="1"/><rect x="75.6" y="613.6828073416791" width="13.799999999999999" height="15.202750464667588" fill="#006340"/><line x1="105.5" y1="596.8162938945682" x2="105.5" y2="629.897065540348" stroke="#006340" stroke-width="1"/><rect x="98.6" y="601.4227199308646" width="13.799999999999999" height="12.260087410814549" fill="#006340"/><line x1="128.5" y1="594.6327425410617" x2="128.5" y2="610.6518287892696" stroke="#006340" stroke-width="1"/><rect x="121.6" y="598.270879353824" width="13.799999999999999" height="3.151840577040616" fill="#006340"/><line x1="151.5" y1="578.245889082234" x2="151.5" y2="606.9539501895746" stroke="#006340" stroke-width="1"/><rect x="144.6" y="578.3170749615108" width="13.799999999999999" height="19.953804392313145" fill="#006340"/><line x1="174.5" y1="567.3450137719245" x2="174.5" y2="589.9469317719338" stroke="#A02128" stroke-width="1"/><rect x="167.6" y="578.3170749615108" width="13.799999999999999" height="11.047049227852654" fill="#A02128"/><line x1="197.5" y1="585.9326728088062" x2="197.5" y2="614.2456222557867" stroke="#A02128" stroke-width="1"/><rect x="190.6" y="589.3641241893635" width="13.799999999999999" height="10.43459185835809" fill="#A02128"/><line x1="220.5" y1="596.6088761779183" x2="220.5" y2="627.6225618290006" stroke="#A02128" stroke-width="1"/><rect x="213.6" y="599.7987160477215" width="13.799999999999999" height="12.328066245043374" fill="#A02128"/><line x1="243.5" y1="575.3741491137534" x2="243.5" y2="620.3996946732243" stroke="#006340" stroke-width="1"/><rect x="236.6" y="581.2879820824478" width="13.799999999999999" height="30.838800210317117" fill="#006340"/><line x1="266.5" y1="570.9842816561079" x2="266.5" y2="603.3380047309935" stroke="#A02128" stroke-width="1"/><rect x="259.6" y="581.2879820824478" width="13.799999999999999" height="11.029773145029367" fill="#A02128"/><line x1="289.5" y1="566.5074442709124" x2="289.5" y2="597.9251104134014" stroke="#006340" stroke-width="1"/><rect x="282.6" y="570.395003097196" width="13.799999999999999" height="21.922752130281197" fill="#006340"/><line x1="312.5" y1="527.0153637169526" x2="312.5" y2="574.1838397453985" stroke="#006340" stroke-width="1"/><rect x="305.6" y="536.5103104225919" width="13.799999999999999" height="33.884692674604025" fill="#006340"/><line x1="335.5" y1="532.7028075657353" x2="335.5" y2="548.8437343165801" stroke="#006340" stroke-width="1"/><rect x="328.6" y="534.0996433908126" width="13.799999999999999" height="2.410667031779326" fill="#006340"/><line x1="358.5" y1="491.798139161181" x2="358.5" y2="535.7446999363989" stroke="#006340" stroke-width="1"/><rect x="351.6" y="509.24157701098125" width="13.799999999999999" height="24.85806637983137" fill="#006340"/><line x1="381.5" y1="481.27170159068066" x2="381.5" y2="511.82279413819833" stroke="#006340" stroke-width="1"/><rect x="374.6" y="499.02539422606503" width="13.799999999999999" height="10.216182784916214" fill="#006340"/><line x1="404.5" y1="492.234267275458" x2="404.5" y2="521.3111875897525" stroke="#A02128" stroke-width="1"/><rect x="397.6" y="499.02539422606503" width="13.799999999999999" height="13.235202574241725" fill="#A02128"/><line x1="427.5" y1="474.1799812191781" x2="427.5" y2="525.7803865731667" stroke="#006340" stroke-width="1"/><rect x="420.6" y="475.6489592201533" width="13.799999999999999" height="36.611637580153456" fill="#006340"/><line x1="450.5" y1="460.66086174650394" x2="450.5" y2="479.0500115667445" stroke="#006340" stroke-width="1"/><rect x="443.6" y="474.0441833664927" width="13.799999999999999" height="1.6047758536606125" fill="#006340"/><line x1="473.5" y1="439.2480507458828" x2="473.5" y2="492.90241645461657" stroke="#006340" stroke-width="1"/><rect x="466.6" y="441.5478507714845" width="13.799999999999999" height="32.4963325950082" fill="#006340"/><line x1="496.5" y1="395.0947516825464" x2="496.5" y2="452.57942794054844" stroke="#006340" stroke-width="1"/><rect x="489.6" y="403.43746481961796" width="13.799999999999999" height="38.11038595186653" fill="#006340"/><line x1="519.5" y1="377.2358247906384" x2="519.5" y2="417.45918536370914" stroke="#006340" stroke-width="1"/><rect x="512.6" y="383.46992369328586" width="13.799999999999999" height="19.967541126332094" fill="#006340"/><line x1="542.5" y1="355.58779396421266" x2="542.5" y2="396.8868633062499" stroke="#006340" stroke-width="1"/><rect x="535.6" y="371.9017806580184" width="13.799999999999999" height="11.56814303526744" fill="#006340"/><line x1="565.5" y1="326.318365311451" x2="565.5" y2="382.4513334366169" stroke="#006340" stroke-width="1"/><rect x="558.6" y="334.7394111489409" width="13.799999999999999" height="37.16236950907751" fill="#006340"/><line x1="588.5" y1="321.1546932295003" x2="588.5" y2="349.5601329591978" stroke="#A02128" stroke-width="1"/><rect x="581.6" y="334.7394111489409" width="13.799999999999999" height="8.72280193369079" fill="#A02128"/><line x1="611.5" y1="303.3933174278524" x2="611.5" y2="352.7148439487907" stroke="#006340" stroke-width="1"/><rect x="604.6" y="305.2301951706083" width="13.799999999999999" height="38.23201791202342" fill="#006340"/><line x1="634.5" y1="286.1487071460961" x2="634.5" y2="315.7875798697114" stroke="#A02128" stroke-width="1"/><rect x="627.6" y="305.2301951706083" width="13.799999999999999" height="7.063014129892451" fill="#A02128"/><line x1="657.5" y1="281.4725154104527" x2="657.5" y2="320.38028460616704" stroke="#006340" stroke-width="1"/><rect x="650.6" y="285.8677631107283" width="13.799999999999999" height="26.425446189772458" fill="#006340"/><line x1="680.5" y1="255.31201222544547" x2="680.5" y2="289.943423794457" stroke="#006340" stroke-width="1"/><rect x="673.6" y="261.95981381376714" width="13.799999999999999" height="23.907949296961135" fill="#006340"/><line x1="703.5" y1="217.6417720460609" x2="703.5" y2="277.6412992484501" stroke="#006340" stroke-width="1"/><rect x="696.6" y="224.1498851377163" width="13.799999999999999" height="37.809928676050845" fill="#006340"/><line x1="726.5" y1="206.92730227897698" x2="726.5" y2="238.6068035551557" stroke="#A02128" stroke-width="1"/><rect x="719.6" y="224.1498851377163" width="13.799999999999999" height="7.095231369012595" fill="#A02128"/><line x1="749.5" y1="189.40501242486937" x2="749.5" y2="248.68653501888292" stroke="#006340" stroke-width="1"/><rect x="742.6" y="202.12839645988913" width="13.799999999999999" height="29.11672004683976" fill="#006340"/><line x1="772.5" y1="190.03253088700563" x2="772.5" y2="214.3865485868036" stroke="#A02128" stroke-width="1"/><rect x="765.6" y="202.12839645988913" width="13.799999999999999" height="2.464180105395485" fill="#A02128"/><line x1="795.5" y1="190.46838405046998" x2="795.5" y2="230.90160772336833" stroke="#A02128" stroke-width="1"/><rect x="788.6" y="204.59257656528462" width="13.799999999999999" height="12.162885904473342" fill="#A02128"/><line x1="818.5" y1="208.50472155060885" x2="818.5" y2="217.33672508533488" stroke="#006340" stroke-width="1"/><rect x="811.6" y="215.22867535598624" width="13.799999999999999" height="1.526787113771718" fill="#006340"/><line x1="841.5" y1="159.13539797133632" x2="841.5" y2="234.97633704993848" stroke="#006340" stroke-width="1"/><rect x="834.6" y="170.6707649885911" width="13.799999999999999" height="44.55791036739515" fill="#006340"/><line x1="864.5" y1="159.3649057621584" x2="864.5" y2="181.34699243931533" stroke="#A02128" stroke-width="1"/><rect x="857.6" y="170.6707649885911" width="13.799999999999999" height="4.7866102373180865" fill="#A02128"/><line x1="887.5" y1="155.8756245544331" x2="887.5" y2="189.2728686584258" stroke="#006340" stroke-width="1"/><rect x="880.6" y="164.31793332150573" width="13.799999999999999" height="11.13944190440344" fill="#006340"/><line x1="910.5" y1="141.01175137759452" x2="910.5" y2="170.92310218374826" stroke="#006340" stroke-width="1"/><rect x="903.6" y="159.10424571830976" width="13.799999999999999" height="5.213687603195979" fill="#006340"/><line x1="933.5" y1="126.15024702957999" x2="933.5" y2="171.00841821312042" stroke="#006340" stroke-width="1"/><rect x="926.6" y="137.2348835329925" width="13.799999999999999" height="21.869362185317243" fill="#006340"/><line x1="956.5" y1="126.58065464849528" x2="956.5" y2="143.73854452067934" stroke="#006340" stroke-width="1"/><rect x="949.6" y="132.64781345106098" width="13.799999999999999" height="4.587070081931529" fill="#006340"/><line x1="979.5" y1="129.20984216491956" x2="979.5" y2="148.5288522278874" stroke="#A02128" stroke-width="1"/><rect x="972.6" y="132.64781345106098" width="13.799999999999999" height="1.773282299235916" fill="#A02128"/><line x1="1002.5" y1="128.05127030795018" x2="1002.5" y2="142.89840079440046" stroke="#A02128" stroke-width="1"/><rect x="995.6" y="134.4210957502969" width="13.799999999999999" height="7.6175989792179735" fill="#A02128"/><line x1="1025.5" y1="132.27854607930783" x2="1025.5" y2="152.3083997953077" stroke="#A02128" stroke-width="1"/><rect x="1018.6" y="142.03869472951487" width="13.799999999999999" height="2.572864426510364" fill="#A02128"/><line x1="1048.5" y1="87.76524486383926" x2="1048.5" y2="153.5124122388674" stroke="#006340" stroke-width="1"/><rect x="1041.6" y="104.3398720307772" width="13.799999999999999" height="40.271687125248036" fill="#006340"/><line x1="1071.5" y1="55.69080498131211" x2="1071.5" y2="121.50004982728717" stroke="#006340" stroke-width="1"/><rect x="1064.6" y="66.50446986844327" width="13.799999999999999" height="37.835402162333935" fill="#006340"/><line x1="1094.5" y1="51.13265986730869" x2="1094.5" y2="79.2326562496637" stroke="#006340" stroke-width="1"/><rect x="1087.6" y="54.15552616807997" width="13.799999999999999" height="12.348943700363293" fill="#006340"/><line x1="1117.5" y1="46.12092074835846" x2="1117.5" y2="67.97450754703982" stroke="#A02128" stroke-width="1"/><rect x="1110.6" y="54.15552616807997" width="13.799999999999999" height="2.5728280107125556" fill="#A02128"/><line x1="1140.5" y1="24" x2="1140.5" y2="74.10664611233813" stroke="#006340" stroke-width="1"/><rect x="1133.6" y="41.765458698595694" width="13.799999999999999" height="14.962895480196835" fill="#006340"/>
</svg>