<svg xmlns="http://www.w3.org/2000/svg" width="1200" height="700">
  <rect width="100%" height="100%" fill="#0d1117"/>
  <line x1="48" y1="24" x2="1152" y2="24" stroke="#21262d" stroke-width="1"/><line x1="48" y1="181" x2="1152" y2="181" stroke="#21262d" stroke-width="1"/><line x1="48" y1="338" x2="1152" y2="338" stroke="#21262d" stroke-width="1"/><line x1="48" y1="495" x2="1152" y2="495" stroke="#21262d" stroke-width="1"/><line x1="48" y1="652" x2="1152" y2="652" stroke="#21262d" stroke-width="1"/>
  <line x1="59.5" y1="24" x2="59.5" y2="128.67342223077867" stroke="#A02128" stroke-width="1"/><rect x="52.6" y="65.67602551499238" width="13.799999999999999" height="49.02946360545161" fill="#A02128"/><line x1="82.5" y1="102.43980128685962" x2="82.5" y2="143.125039309172" stroke="#006340" stroke-width="1"/><rect x="75.6" y="104.55619587956312" width="13.799999999999999" height="10.149293240880866" fill="#006340"/><line x1="105.5" y1="93.76862458717744" x2="105.5" y2="182.43582726960597" stroke="#A02128" stroke-width="1"/><rect x="98.6" y="104.55619587956312" width="13.799999999999999" height="47.25569368741782" fill="#A02128"/><line x1="128.5" y1="75.91985033369883" x2="128.5" y2="167.06407472053417" stroke="#006340" stroke-width="1"/><rect x="121.6" y="91.12384097716676" width="13.799999999999999" height="60.68804858981417" fill="#006340"/><line x1="151.5" y1="56.01431097964826" x2="151.5" y2="147.61347566884803" stroke="#A02128" stroke-width="1"/><rect x="144.6" y="91.12384097716676" width="13.799999999999999" height="46.73305688214214" fill="#A02128"/><line x1="174.5" y1="125.445395748176" x2="174.5" y2="197.8602194933968" stroke="#A02128" stroke-width="1"/><rect x="167.6" y="137.8568978593089" width="13.799999999999999" height="47.526921463822646" fill="#A02128"/><line x1="197.5" y1="148.4712689806958" x2="197.5" y2="194.91891664691832" stroke="#006340" stroke-width="1"/><rect x="190.6" y="157.96528709849179" width="13.799999999999999" height="27.418532224639762" fill="#006340"/><line x1="220.5" y1="119.35010978504533" x2="220.5" y2="202.80953850191207" stroke="#A02128" stroke-width="1"/><rect x="213.6" y="157.96528709849179" width="13.799999999999999" height="29.283660259329167" fill="#A02128"/><line x1="243.5" y1="178.61684904406167" x2="243.5" y2="259.45848187538354" stroke="#A02128" stroke-width="1"/><rect x="236.6" y="187.24894735782095" width="13.799999999999999" height="40.441984873105525" fill="#A02128"/><line x1="266.5" y1="158.3723039123961" x2="266.5" y2="246.24186717750035" stroke="#006340" stroke-width="1"/><rect x="259.6" y="165.95349643137564" width="13.799999999999999" height="61.73743579955084" fill="#006340"/><line x1="289.5" y1="116.00036885472196" x2="289.5" y2="184.11724467586976" stroke="#006340" stroke-width="1"/><rect x="282.6" y="142.84824943506248" width="13.799999999999999" height="23.105246996313156" fill="#006340"/><line x1="312.5" y1="115.45420609209896" x2="312.5" y2="228.4291313757666" stroke="#A02128" stroke-width="1"/><rect x="305.6" y="142.84824943506248" width="13.799999999999999" height="59.79920768267789" fill="#A02128"/><line x1="335.5" y1="102.511150073041" x2="335.5" y2="240.83150826438657" stroke="#006340" stroke-width="1"/><rect x="328.6" y="140.93176175190433" width="13.799999999999999" height="61.71569536583604" fill="#006340"/><line x1="358.5" y1="65.39002918435835" x2="358.5" y2="152.7852371431061" stroke="#006340" stroke-width="1"/><rect x="351.6" y="79.86191487781548" width="13.799999999999999" height="61.06984687408885" fill="#006340"/><line x1="381.5" y1="37.96564891618232" x2="381.5" y2="153.73559150427627" stroke="#A02128" stroke-width="1"/><rect x="374.6" y="79.86191487781548" width="13.799999999999999" height="53.5892506689263" fill="#A02128"/><line x1="404.5" y1="90.25949407877863" x2="404.5" y2="142.09125878723574" stroke="#006340" stroke-width="1"/><rect x="397.6" y="109.39223118019424" width="13.799999999999999" height="24.058934366547533" fill="#006340"/><line x1="427.5" y1="87.90641401040625" x2="427.5" y2="144.4967468845041" stroke="#006340" stroke-width="1"/><rect x="420.6" y="95.7482452745304" width="13.799999999999999" height="13.64398590566384" fill="#006340"/><line x1="450.5" y1="71.86630403669449" x2="450.5" y2="116.69143214718304" stroke="#A02128" stroke-width="1"/><rect x="443.6" y="95.7482452745304" width="13.799999999999999" height="2.4761171172158356" fill="#A02128"/><line x1="473.5" y1="78.7678294020534" x2="473.5" y2="145.76607156183218" stroke="#A02128" stroke-width="1"/><rect x="466.6" y="98.22436239174624" width="13.799999999999999" height="43.91913297038485" fill="#A02128"/><line x1="496.5" y1="133.4010435219766" x2="496.5" y2="171.15153586601355" stroke="#006340" stroke-width="1"/><rect x="489.6" y="134.3591595503251" width="13.799999999999999" height="7.784335811805988" fill="#006340"/><line x1="519.5" y1="94.81263879305732" x2="519.5" y2="187.97527926357952" stroke="#A02128" stroke-width="1"/><rect x="512.6" y="134.3591595503251" width="13.799999999999999" height="47.82247671556314" fill="#A02128"/><line x1="542.5" y1="170.86038765900355" x2="542.5" y2="261.9050118481244" stroke="#A02128" stroke-width="1"/><rect x="535.6" y="182.18163626588824" width="13.799999999999999" height="47.116971735807056" fill="#A02128"/><line x1="565.5" y1="171.27731656645847" x2="565.5" y2="269.44496228646796" stroke="#006340" stroke-width="1"/><rect x="558.6" y="210.65059780101313" width="13.799999999999999" height="18.648010200682165" fill="#006340"/><line x1="588.5" y1="184.44357321983682" x2="588.5" y2="256.65445924440417" stroke="#A02128" stroke-width="1"/><rect x="581.6" y="210.65059780101313" width="13.799999999999999" height="36.041191772247316" fill="#A02128"/><line x1="611.5" y1="236.35180149734475" x2="611.5" y2="325.06815651543894" stroke="#A02128" stroke-width="1"/><rect x="604.6" y="246.69178957326045" width="13.799999999999999" height="61.54958941519328" fill="#A02128"/><line x1="634.5" y1="248.59166127993655" x2="634.5" y2="334.4690932386532" stroke="#006340" stroke-width="1"/><rect x="627.6" y="250.5940059499536" width="13.799999999999999" height="57.64737303850012" fill="#006340"/><line x1="657.5" y1="223.32670622950974" x2="657.5" y2="305.48301210563807" stroke="#A02128" stroke-width="1"/><rect x="650.6" y="250.5940059499536" width="13.799999999999999" height="50.59363504228219" fill="#A02128"/><line x1="680.5" y1="271.7240967742673" x2="680.5" y2="382.44976130019035" stroke="#A02128" stroke-width="1"/><rect x="673.6" y="301.1876409922358" width="13.799999999999999" height="62.070430724440996" fill="#A02128"/><line x1="703.5" y1="264.85276054914067" x2="703.5" y2="394.76715793391264" stroke="#006340" stroke-width="1"/><rect x="696.6" y="305.6136395754388" width="13.799999999999999" height="57.644432141237985" fill="#006340"/><line x1="726.5" y1="268.85251153056817" x2="726.5" y2="377.96563520455646" stroke="#A02128" stroke-width="1"/><rect x="719.6" y="305.6136395754388" width="13.799999999999999" height="38.95130118235954" fill="#A02128"/><line x1="749.5" y1="298.85004635177563" x2="749.5" y2="357.81470465190455" stroke="#006340" stroke-width="1"/><rect x="742.6" y="321.8665522120326" width="13.799999999999999" height="22.698388545765738" fill="#006340"/><line x1="772.5" y1="280.54817394985156" x2="772.5" y2="364.8607990409509" stroke="#A02128" stroke-width="1"/><rect x="765.6" y="321.8665522120326" width="13.799999999999999" height="1.9912669884521392" fill="#A02128"/><line x1="795.5" y1="288.4990527488697" x2="795.5" y2="324.08214894417574" stroke="#006340" stroke-width="1"/><rect x="788.6" y="319.1206515840109" width="13.799999999999999" height="4.737167616473869" fill="#006340"/><line x1="818.5" y1="313.09644293860543" x2="818.5" y2="414.82493677215655" stroke="#A02128" stroke-width="1"/><rect x="811.6" y="319.1206515840109" width="13.799999999999999" height="59.319231595733925" fill="#A02128"/><line x1="841.5" y1="313.206962880559" x2="841.5" y2="387.9126030715898" stroke="#006340" stroke-width="1"/><rect x="834.6" y="329.2653788997348" width="13.799999999999999" height="49.17450428001001" fill="#006340"/><line x1="864.5" y1="310.9623979040184" x2="864.5" y2="402.2370772058739" stroke="#A02128" stroke-width="1"/><rect x="857.6" y="329.2653788997348" width="13.799999999999999" height="60.898961312038296" fill="#A02128"/><line x1="887.5" y1="389.2690528401217" x2="887.5" y2="419.2008248349405" stroke="#A02128" stroke-width="1"/><rect x="880.6" y="390.1643402117731" width="13.799999999999999" height="2.8615254032063717" fill="#A02128"/><line x1="910.5" y1="387.4435332628095" x2="910.5" y2="456.1449355574237" stroke="#A02128" stroke-width="1"/><rect x="903.6" y="393.02586561497947" width="13.799999999999999" height="29.50986548849994" fill="#A02128"/><line x1="933.5" y1="357.44992136627167" x2="933.5" y2="437.11556916673027" stroke="#006340" stroke-width="1"/><rect x="926.6" y="398.53342039572567" width="13.799999999999999" height="24.002310707753736" fill="#006340"/><line x1="956.5" y1="367.619901009037" x2="956.5" y2="462.3523353097604" stroke="#A02128" stroke-width="1"/><rect x="949.6" y="398.53342039572567" width="13.799999999999999" height="61.11302696288806" fill="#A02128"/><line x1="979.5" y1="453.32286445072447" x2="979.5" y2="515.873165524516" stroke="#A02128" stroke-width="1"/><rect x="972.6" y="459.6464473586137" width="13.799999999999999" height="24.8575391168132" fill="#A02128"/><line x1="1002.5" y1="448.1374423523448" x2="1002.5" y2="544.1908871103209" stroke="#A02128" stroke-width="1"/><rect x="995.6" y="484.5039864754269" width="13.799999999999999" height="21.516295483387296" fill="#A02128"/><line x1="1025.5" y1="450.35311007682606" x2="1025.5" y2="531.9578677735333" stroke="#006340" stroke-width="1"/><rect x="1018.6" y="471.6692010371342" width="13.799999999999999" height="34.35108092168002" fill="#006340"/><line x1="1048.5" y1="452.34147608642775" x2="1048.5" y2="525.3050676350462" stroke="#A02128" stroke-width="1"/><rect x="1041.6" y="471.6692010371342" width="13.799999999999999" height="40.724521378906104" fill="#A02128"/><line x1="1071.5" y1="450.53817157079766" x2="1071.5" y2="512.4831592442937" stroke="#006340" stroke-width="1"/><rect x="1064.6" y="490.27187291299447" width="13.799999999999999" height="22.121849503045837" fill="#006340"/><line x1="1094.5" y1="451.8703820178488" x2="1094.5" y2="528.4942353483126" stroke="#006340" stroke-width="1"/><rect x="1087.6" y="457.6114910655427" width="13.799999999999999" height="32.66038184745179" fill="#006340"/><line x1="1117.5" y1="447.37463202950494" x2="1117.5" y2="652" stroke="#A02128" stroke-width="1"/><rect x="1110.6" y="457.6114910655427" width="13.799999999999999" height="154.56224492712914" fill="#A02128"/><line x1="1140.5" y1="529.5126145647412" x2="1140.5" y2="625.6410008979498" stroke="#006340" stroke-width="1"/><rect x="1133.6" y="530.9770366576196" width="13.799999999999999" height="81.19669933505224" fill="#006340"/>
</svg>