<svg xmlns="http://www.w3.org/2000/svg" width="1200" height="700">
  <rect width="100%" height="100%" fill="#0d1117"/>
  <line x1="48" y1="24" x2="1152" y2="24" stroke="#21262d" stroke-width="1"/><line x1="48" y1="181" x2="1152" y2="181" stroke="#21262d" stroke-width="1"/><line x1="48" y1="338" x2="1152" y2="338" stroke="#21262d" stroke-width="1"/><line x1="48" y1="495" x2="1152" y2="495" stroke="#21262d" stroke-width="1"/><line x1="48" y1="652" x2="1152" y2="652" stroke="#21262d" stroke-width="1"/>
  <line x1="59.5" y1="583.2173626133196" x2="59.5" y2="604.75630197402" stroke="#006340" stroke-width="1"/><rect x="52.6" y="585.1300827049006" width="13.799999999999999" height="15.437549986085742" fill="#006340"/><line x1="82.5" y1="569.3194050911385" x2="82.5" y2="587.138127796068" stroke="#006340" stroke-width="1"/><rect x="75.6" y="580.8393281764875" width="13.799999999999999" height="4.290754528413117" fill="#006340"/><line x1="105.5" y1="571.870125094193" x2="105.5" y2="596.7145324116307" stroke="#A02128" stroke-width="1"/><rect x="98.6" y="580.8393281764875" width="13.799999999999999" height="13.456711738776448" fill="#A02128"/><line x1="128.5" y1="578.398604925539" x2="128.5" y2="603.5507334848741" stroke="#006340" stroke-width="1"/><rect x="121.6" y="578.9981870723227" width="13.799999999999999" height="15.29785284294121" fill="#006340"/><line x1="151.5" y1="568.9870911249869" x2="151.5" y2="594.0958976513016" stroke="#A02128" stroke-width="1"/><rect x="144.6" y="578.9981870723227" width="13.799999999999999" height="11.562787622708584" fill="#A02128"/><line x1="174.5" y1="587.4380299026716" x2="174.5" y2="594.5389636062475" stroke="#A02128" stroke-width="1"/><rect x="167.6" y="590.5609746950313" width="13.799999999999999" height="1.9475432723136237" fill="#A02128"/><line x1="197.5" y1="583.9015722726409" x2="197.5" y2="598.7204271051952" stroke="#A02128" stroke-width="1"/><rect x="190.6" y="592.5085179673449" width="13.799999999999999" height="1" fill="#A02128"/><line x1="220.5" y1="587.5837433362166" x2="220.5" y2="615.8454416822192" stroke="#A02128" stroke-width="1"/><rect x="213.6" y="593.4869982446755" width="13.799999999999999" height="15.793850827290498" fill="#A02128"/><line x1="243.5" y1="598.0163774219047" x2="243.5" y2="621.0096060017112" stroke="#006340" stroke-width="1"/><rect x="236.6" y="606.037404924575" width="13.799999999999999" height="3.243444147391074" fill="#006340"/><line x1="266.5" y1="600.7257137924623" x2="266.5" y2="618.0624540702564" stroke="#A02128" stroke-width="1"/><rect x="259.6" y="606.037404924575" width="13.799999999999999" height="8.074267338787536" fill="#A02128"/><line x1="289.5" y1="603.6037278646553" x2="289.5" y2="627.0339839062382" stroke="#A02128" stroke-width="1"/><rect x="282.6" y="614.1116722633625" width="13.799999999999999" height="12.104663744237996" fill="#A02128"/><line x1="312.5" y1="613.7863703805315" x2="312.5" y2="640.9317625024189" stroke="#A02128" stroke-width="1"/><rect x="305.6" y="626.2163360076005" width="13.799999999999999" height="9.449791240539412" fill="#A02128"/><line x1="335.5" y1="629.3073356690858" x2="335.5" y2="649.5856890431836" stroke="#A02128" stroke-width="1"/><rect x="328.6" y="635.6661272481399" width="13.799999999999999" height="7.241376988907746" fill="#A02128"/><line x1="358.5" y1="633.6541163691074" x2="358.5" y2="652" stroke="#A02128" stroke-width="1"/><rect x="351.6" y="642.9075042370476" width="13.799999999999999" height="3.371426602073484" fill="#A02128"/><line x1="381.5" y1="630.120346260279" x2="381.5" y2="648.8979161163899" stroke="#006340" stroke-width="1"/><rect x="374.6" y="636.6541889107945" width="13.799999999999999" height="9.62474192832667" fill="#006340"/><line x1="404.5" y1="617.7794180867204" x2="404.5" y2="644.7571873171692" stroke="#006340" stroke-width="1"/><rect x="397.6" y="617.9036954049361" width="13.799999999999999" height="18.750493505858344" fill="#006340"/><line x1="427.5" y1="608.6116676166404" x2="427.5" y2="637.6254126851154" stroke="#A02128" stroke-width="1"/><rect x="420.6" y="617.9036954049361" width="13.799999999999999" height="12.416964935346869" fill="#A02128"/><line x1="450.5" y1="620.1128852783775" x2="450.5" y2="639.5585625120758" stroke="#006340" stroke-width="1"/><rect x="443.6" y="621.1282258893312" width="13.799999999999999" height="9.192434450951737" fill="#006340"/><line x1="473.5" y1="616.8225175807356" x2="473.5" y2="632.1595847317783" stroke="#A02128" stroke-width="1"/><rect x="466.6" y="621.1282258893312" width="13.799999999999999" height="2.319878710556395" fill="#A02128"/><line x1="496.5" y1="601.8807550894026" x2="496.5" y2="632.2961928431074" stroke="#006340" stroke-width="1"/><rect x="489.6" y="609.5599960619234" width="13.799999999999999" height="13.888108537964285" fill="#006340"/><line x1="519.5" y1="600.8666582507193" x2="519.5" y2="616.7215392645802" stroke="#006340" stroke-width="1"/><rect x="512.6" y="602.3150061128381" width="13.799999999999999" height="7.244989949085266" fill="#006340"/><line x1="542.5" y1="572.4431096719799" x2="542.5" y2="608.6003470459905" stroke="#006340" stroke-width="1"/><rect x="535.6" y="584.6796688912295" width="13.799999999999999" height="17.63533722160855" fill="#006340"/><line x1="565.5" y1="577.1807743018536" x2="565.5" y2="585.8019866890133" stroke="#006340" stroke-width="1"/><rect x="558.6" y="579.2802634496609" width="13.799999999999999" height="5.3994054415686605" fill="#006340"/><line x1="588.5" y1="562.7787853280385" x2="588.5" y2="592.6046095027771" stroke="#006340" stroke-width="1"/><rect x="581.6" y="566.8441698749372" width="13.799999999999999" height="12.436093574723714" fill="#006340"/><line x1="611.5" y1="554.5166947347736" x2="611.5" y2="573.4577870234233" stroke="#006340" stroke-width="1"/><rect x="604.6" y="556.1980706070474" width="13.799999999999999" height="10.646099267889781" fill="#006340"/><line x1="634.5" y1="542.8465367215356" x2="634.5" y2="571.2571569438257" stroke="#A02128" stroke-width="1"/><rect x="627.6" y="556.1980706070474" width="13.799999999999999" height="14.579331527612567" fill="#A02128"/><line x1="657.5" y1="545.0899411565157" x2="657.5" y2="580.8377497441409" stroke="#006340" stroke-width="1"/><rect x="650.6" y="558.252038864537" width="13.799999999999999" height="12.525363270122966" fill="#006340"/><line x1="680.5" y1="555.1500214015925" x2="680.5" y2="579.5588481241557" stroke="#A02128" stroke-width="1"/><rect x="673.6" y="558.252038864537" width="13.799999999999999" height="11.718198810266017" fill="#A02128"/><line x1="703.5" y1="546.6783132163298" x2="703.5" y2="579.3193504477128" stroke="#006340" stroke-width="1"/><rect x="696.6" y="551.7166333536061" width="13.799999999999999" height="18.253604321196917" fill="#006340"/><line x1="726.5" y1="526.9434325594482" x2="726.5" y2="552.3264952801779" stroke="#006340" stroke-width="1"/><rect x="719.6" y="531.8734459595717" width="13.799999999999999" height="19.84318739403443" fill="#006340"/><line x1="749.5" y1="523.1285585574037" x2="749.5" y2="546.4985316945971" stroke="#A02128" stroke-width="1"/><rect x="742.6" y="531.8734459595717" width="13.799999999999999" height="2.1590070946417654" fill="#A02128"/><line x1="772.5" y1="512.1370152261909" x2="772.5" y2="547.3817452873814" stroke="#006340" stroke-width="1"/><rect x="765.6" y="514.2015890566208" width="13.799999999999999" height="19.830863997592587" fill="#006340"/><line x1="795.5" y1="484.70316396702447" x2="795.5" y2="521.2167706489747" stroke="#006340" stroke-width="1"/><rect x="788.6" y="494.8971805652609" width="13.799999999999999" height="19.304408491359936" fill="#006340"/><line x1="818.5" y1="483.30317708528605" x2="818.5" y2="510.36169690673967" stroke="#A02128" stroke-width="1"/><rect x="811.6" y="494.8971805652609" width="13.799999999999999" height="2.4417161613660596" fill="#A02128"/><line x1="841.5" y1="446.6868377153709" x2="841.5" y2="502.3817939122247" stroke="#006340" stroke-width="1"/><rect x="834.6" y="458.74855999504337" width="13.799999999999999" height="38.59033673158359" fill="#006340"/><line x1="864.5" y1="417.4107439061157" x2="864.5" y2="462.7096748250673" stroke="#006340" stroke-width="1"/><rect x="857.6" y="425.51410867671945" width="13.799999999999999" height="33.23445131832392" fill="#006340"/><line x1="887.5" y1="409.7249795901275" x2="887.5" y2="426.49555038567587" stroke="#006340" stroke-width="1"/><rect x="880.6" y="410.64791545391586" width="13.799999999999999" height="14.866193222803588" fill="#006340"/><line x1="910.5" y1="364.5409588971208" x2="910.5" y2="417.08348136463354" stroke="#006340" stroke-width="1"/><rect x="903.6" y="374.6980954009716" width="13.799999999999999" height="35.94982005294423" fill="#006340"/><line x1="933.5" y1="319.5099879614806" x2="933.5" y2="382.4759308855981" stroke="#006340" stroke-width="1"/><rect x="926.6" y="325.61717310507174" width="13.799999999999999" height="49.08092229589988" fill="#006340"/><line x1="956.5" y1="290.15355558070763" x2="956.5" y2="331.84881121632446" stroke="#006340" stroke-width="1"/><rect x="949.6" y="295.60850515199115" width="13.799999999999999" height="30.00866795308059" fill="#006340"/><line x1="979.5" y1="253.63110319191378" x2="979.5" y2="307.08989210417934" stroke="#006340" stroke-width="1"/><rect x="972.6" y="261.17079907232534" width="13.799999999999999" height="34.437706079665816" fill="#006340"/><line x1="1002.5" y1="217.1580960306457" x2="1002.5" y2="267.8117766519651" stroke="#006340" stroke-width="1"/><rect x="995.6" y="217.60244622880168" width="13.799999999999999" height="43.568352843523655" fill="#006340"/><line x1="1025.5" y1="191.6939780163184" x2="1025.5" y2="219.82057449051848" stroke="#006340" stroke-width="1"/><rect x="1018.6" y="196.71036279507314" width="13.799999999999999" height="20.892083433728544" fill="#006340"/><line x1="1048.5" y1="146.4799041522911" x2="1048.5" y2="196.78284463464132" stroke="#006340" stroke-width="1"/><rect x="1041.6" y="147.99883856370218" width="13.799999999999999" height="48.71152423137096" fill="#006340"/><line x1="1071.5" y1="84.63673368608863" x2="1071.5" y2="153.5303885960452" stroke="#006340" stroke-width="1"/><rect x="1064.6" y="96.62272332835232" width="13.799999999999999" height="51.37611523534986" fill="#006340"/><line x1="1094.5" y1="81.24934845000121" x2="1094.5" y2="108.92590392955788" stroke="#006340" stroke-width="1"/><rect x="1087.6" y="88.59637309832726" width="13.799999999999999" height="8.02635023002506" fill="#006340"/><line x1="1117.5" y1="60.76825453262495" x2="1117.5" y2="94.39916668403487" stroke="#006340" stroke-width="1"/><rect x="1110.6" y="65.15251794531719" width="13.799999999999999" height="23.443855153010077" fill="#006340"/><line x1="1140.5" y1="24" x2="1140.5" y2="76.78433967613387" stroke="#006340" stroke-width="1"/><rect x="1133.6" y="24.970919905682763" width="13.799999999999999" height="40.18159803963442" fill="#006340"/>
</svg>