<svg xmlns="http://www.w3.org/2000/svg" width="1200" height="700">
  <rect width="100%" height="100%" fill="#0d1117"/>
  <line x1="48" y1="24" x2="1152" y2="24" stroke="#21262d" stroke-width="1"/><line x1="48" y1="181" x2="1152" y2="181" stroke="#21262d" stroke-width="1"/><line x1="48" y1="338" x2="1152" y2="338" stroke="#21262d" stroke-width="1"/><line x1="48" y1="495" x2="1152" y2="495" stroke="#21262d" stroke-width="1"/><line x1="48" y1="652" x2="1152" y2="652" stroke="#21262d" stroke-width="1"/>
  <line x1="59.5" y1="608.5699148344175" x2="59.5" y2="652" stroke="#006340" stroke-width="1"/><rect x="52.6" y="615.9300982321894" width="13.799999999999999" height="26.443644481978254" fill="#006340"/><line x1="82.5" y1="601.5476528394543" x2="82.5" y2="639.6894544391693" stroke="#A02128" stroke-width="1"/><rect x="75.6" y="615.9300982321894" width="13.799999999999999" height="12.417938715044329" fill="#A02128"/><line x1="105.5" y1="611.9940240588367" x2="105.5" y2="647.0341640555574" stroke="#006340" stroke-width="1"/><rect x="98.6" y="617.6256099495575" width="13.799999999999999" height="10.722426997676166" fill="#006340"/><line x1="128.5" y1="596.9646141281579" x2="128.5" y2="625.0184419992394" stroke="#006340" stroke-width="1"/><rect x="121.6" y="599.0671907699673" width="13.799999999999999" height="18.55841917959026" fill="#006340"/><line x1="151.5" y1="565.3525578884805" x2="151.5" y2="599.5576437477249" stroke="#006340" stroke-width="1"/><rect x="144.6" y="577.8206598352346" width="13.799999999999999" height="21.246530934732732" fill="#006340"/><line x1="174.5" y1="577.7291814279511" x2="174.5" y2="597.1741543475736" stroke="#A02128" stroke-width="1"/><rect x="167.6" y="577.8206598352346" width="13.799999999999999" height="6.231636555320279" fill="#A02128"/><line x1="197.5" y1="566.1972491833176" x2="197.5" y2="608.4180246755701" stroke="#A02128" stroke-width="1"/><rect x="190.6" y="584.0522963905548" width="13.799999999999999" height="8.565514196785443" fill="#A02128"/><line x1="220.5" y1="591.7406345163569" x2="220.5" y2="614.0680687220172" stroke="#A02128" stroke-width="1"/><rect x="213.6" y="592.6178105873403" width="13.799999999999999" height="10.838492672142706" fill="#A02128"/><line x1="243.5" y1="596.9581658341333" x2="243.5" y2="638.5476839296349" stroke="#A02128" stroke-width="1"/><rect x="236.6" y="603.456303259483" width="13.799999999999999" height="20.40077956961818" fill="#A02128"/><line x1="266.5" y1="590.3856343732361" x2="266.5" y2="641.6470410479775" stroke="#006340" stroke-width="1"/><rect x="259.6" y="604.6912495620255" width="13.799999999999999" height="19.16583326707564" fill="#006340"/><line x1="289.5" y1="601.2520835748253" x2="289.5" y2="627.7209696595852" stroke="#A02128" stroke-width="1"/><rect x="282.6" y="604.6912495620255" width="13.799999999999999" height="3.641678524132999" fill="#A02128"/><line x1="312.5" y1="598.5140820932204" x2="312.5" y2="620.4204493692905" stroke="#A02128" stroke-width="1"/><rect x="305.6" y="608.3329280861585" width="13.799999999999999" height="8.656657271380823" fill="#A02128"/><line x1="335.5" y1="590.182387211356" x2="335.5" y2="627.5042961953161" stroke="#006340" stroke-width="1"/><rect x="328.6" y="599.2224760803996" width="13.799999999999999" height="17.767109277139753" fill="#006340"/><line x1="358.5" y1="573.7268232256138" x2="358.5" y2="610.3965366555701" stroke="#006340" stroke-width="1"/><rect x="351.6" y="584.8744153474044" width="13.799999999999999" height="14.348060732995236" fill="#006340"/><line x1="381.5" y1="580.614312970568" x2="381.5" y2="604.7712324029084" stroke="#A02128" stroke-width="1"/><rect x="374.6" y="584.8744153474044" width="13.799999999999999" height="17.743480843434668" fill="#A02128"/><line x1="404.5" y1="578.7204287297392" x2="404.5" y2="617.0109180492466" stroke="#006340" stroke-width="1"/><rect x="397.6" y="581.173002277424" width="13.799999999999999" height="21.444893913415058" fill="#006340"/><line x1="427.5" y1="577.4714585545101" x2="427.5" y2="599.5916618708632" stroke="#006340" stroke-width="1"/><rect x="420.6" y="578.6378628065739" width="13.799999999999999" height="2.5351394708500266" fill="#006340"/><line x1="450.5" y1="567.6704544621019" x2="450.5" y2="603.6222737357738" stroke="#A02128" stroke-width="1"/><rect x="443.6" y="578.6378628065739" width="13.799999999999999" height="14.246062310804746" fill="#A02128"/><line x1="473.5" y1="591.9653691517761" x2="473.5" y2="613.5135150076964" stroke="#A02128" stroke-width="1"/><rect x="466.6" y="592.8839251173787" width="13.799999999999999" height="14.659401497150043" fill="#A02128"/><line x1="496.5" y1="600.2196122607452" x2="496.5" y2="616.1771477432477" stroke="#A02128" stroke-width="1"/><rect x="489.6" y="607.5433266145287" width="13.799999999999999" height="1.639013724862366" fill="#A02128"/><line x1="519.5" y1="606.8978759480118" x2="519.5" y2="646.124819767871" stroke="#A02128" stroke-width="1"/><rect x="512.6" y="609.1823403393911" width="13.799999999999999" height="24.46953191099226" fill="#A02128"/><line x1="542.5" y1="602.7543338284454" x2="542.5" y2="644.380276519827" stroke="#006340" stroke-width="1"/><rect x="535.6" y="616.793830971037" width="13.799999999999999" height="16.858041279346367" fill="#006340"/><line x1="565.5" y1="599.2376392275727" x2="565.5" y2="646.6281952840043" stroke="#A02128" stroke-width="1"/><rect x="558.6" y="616.793830971037" width="13.799999999999999" height="16.663941736088532" fill="#A02128"/><line x1="588.5" y1="601.6224717237134" x2="588.5" y2="637.0283344712506" stroke="#006340" stroke-width="1"/><rect x="581.6" y="607.4257715347305" width="13.799999999999999" height="26.032001172394985" fill="#006340"/><line x1="611.5" y1="597.8136941238682" x2="611.5" y2="639.0139092202819" stroke="#A02128" stroke-width="1"/><rect x="604.6" y="607.4257715347305" width="13.799999999999999" height="14.748210099880907" fill="#A02128"/><line x1="634.5" y1="610.415461569065" x2="634.5" y2="634.5111619902054" stroke="#006340" stroke-width="1"/><rect x="627.6" y="618.2263784068136" width="13.799999999999999" height="3.9476032277977993" fill="#006340"/><line x1="657.5" y1="612.5745386061847" x2="657.5" y2="634.4387785052118" stroke="#A02128" stroke-width="1"/><rect x="650.6" y="618.2263784068136" width="13.799999999999999" height="1.7366899363884158" fill="#A02128"/><line x1="680.5" y1="618.9289281453855" x2="680.5" y2="631.8928579450344" stroke="#A02128" stroke-width="1"/><rect x="673.6" y="619.963068343202" width="13.799999999999999" height="7.948998949350198" fill="#A02128"/><line x1="703.5" y1="614.0495039474528" x2="703.5" y2="642.4439412476227" stroke="#006340" stroke-width="1"/><rect x="696.6" y="615.081343638815" width="13.799999999999999" height="12.83072365373721" fill="#006340"/><line x1="726.5" y1="603.429968681053" x2="726.5" y2="648.413080395311" stroke="#A02128" stroke-width="1"/><rect x="719.6" y="615.081343638815" width="13.799999999999999" height="14.883933566207475" fill="#A02128"/><line x1="749.5" y1="594.3223705891324" x2="749.5" y2="630.4824672916097" stroke="#006340" stroke-width="1"/><rect x="742.6" y="605.6713063904512" width="13.799999999999999" height="24.293970814571367" fill="#006340"/><line x1="772.5" y1="567.9007573199239" x2="772.5" y2="623.6514386432981" stroke="#006340" stroke-width="1"/><rect x="765.6" y="577.3992127452742" width="13.799999999999999" height="28.272093645176938" fill="#006340"/><line x1="795.5" y1="566.6823175259162" x2="795.5" y2="607.4552558653036" stroke="#A02128" stroke-width="1"/><rect x="788.6" y="577.3992127452742" width="13.799999999999999" height="24.122107632194798" fill="#A02128"/><line x1="818.5" y1="582.380367246652" x2="818.5" y2="615.8401519165523" stroke="#A02128" stroke-width="1"/><rect x="811.6" y="601.521320377469" width="13.799999999999999" height="10.662816017632622" fill="#A02128"/><line x1="841.5" y1="565.0189768203131" x2="841.5" y2="625.4163068383201" stroke="#006340" stroke-width="1"/><rect x="834.6" y="583.1472786449187" width="13.799999999999999" height="29.03685775018289" fill="#006340"/><line x1="864.5" y1="511.65743196829135" x2="864.5" y2="583.9755381110801" stroke="#006340" stroke-width="1"/><rect x="857.6" y="518.5552213997412" width="13.799999999999999" height="64.59205724517756" fill="#006340"/><line x1="887.5" y1="452.68056665463854" x2="887.5" y2="529.3337071505578" stroke="#006340" stroke-width="1"/><rect x="880.6" y="454.77627591597854" width="13.799999999999999" height="63.77894548376264" fill="#006340"/><line x1="910.5" y1="381.84356731744725" x2="910.5" y2="471.9407657645469" stroke="#006340" stroke-width="1"/><rect x="903.6" y="396.466846133431" width="13.799999999999999" height="58.30942978254757" fill="#006340"/><line x1="933.5" y1="363.3150514089735" x2="933.5" y2="410.1893544400724" stroke="#006340" stroke-width="1"/><rect x="926.6" y="377.52659418571506" width="13.799999999999999" height="18.94025194771592" fill="#006340"/><line x1="956.5" y1="290.6332130380796" x2="956.5" y2="384.19388158613975" stroke="#006340" stroke-width="1"/><rect x="949.6" y="309.10646560550214" width="13.799999999999999" height="68.42012858021292" fill="#006340"/><line x1="979.5" y1="288.4997447335502" x2="979.5" y2="317.2699011687028" stroke="#006340" stroke-width="1"/><rect x="972.6" y="294.191050876141" width="13.799999999999999" height="14.915414729361146" fill="#006340"/><line x1="1002.5" y1="229.36280207883902" x2="1002.5" y2="306.15182236937676" stroke="#006340" stroke-width="1"/><rect x="995.6" y="250.4056982390607" width="13.799999999999999" height="43.78535263708028" fill="#006340"/><line x1="1025.5" y1="188.35345509451275" x2="1025.5" y2="269.47350288396905" stroke="#006340" stroke-width="1"/><rect x="1018.6" y="195.85378096981879" width="13.799999999999999" height="54.551917269241926" fill="#006340"/><line x1="1048.5" y1="164.86649560772724" x2="1048.5" y2="213.64884310596454" stroke="#006340" stroke-width="1"/><rect x="1041.6" y="178.48379465317862" width="13.799999999999999" height="17.369986316640166" fill="#006340"/><line x1="1071.5" y1="130.83755683068432" x2="1071.5" y2="178.76903572411493" stroke="#006340" stroke-width="1"/><rect x="1064.6" y="143.26973117507674" width="13.799999999999999" height="35.21406347810188" fill="#006340"/><line x1="1094.5" y1="66.3772836687018" x2="1094.5" y2="147.2180751856838" stroke="#006340" stroke-width="1"/><rect x="1087.6" y="79.58394202254942" width="13.799999999999999" height="63.68578915252732" fill="#006340"/><line x1="1117.5" y1="24" x2="1117.5" y2="81.13432749795902" stroke="#006340" stroke-width="1"/><rect x="1110.6" y="45.76678741385854" width="13.799999999999999" height="33.817154608690885" fill="#006340"/><line x1="1140.5" y1="25.134419060395658" x2="1140.5" y2="52.14199806847091" stroke="#006340" stroke-width="1"/><rect x="1133.6" y="34.045726956501994" width="13.799999999999999" height="11.721060457356543" fill="#006340"/>
</svg>