<svg xmlns="http://www.w3.org/2000/svg" width="1200" height="700">
  <rect width="100%" height="100%" fill="#0d1117"/>
  <line x1="48" y1="24" x2="1152" y2="24" stroke="#21262d" stroke-width="1"/><line x1="48" y1="181" x2="1152" y2="181" stroke="#21262d" stroke-width="1"/><line x1="48" y1="338" x2="1152" y2="338" stroke="#21262d" stroke-width="1"/><line x1="48" y1="495" x2="1152" y2="495" stroke="#21262d" stroke-width="1"/><line x1="48" y1="652" x2="1152" y2="652" stroke="#21262d" stroke-width="1"/>
  <line x1="59.5" y1="627.9247935932073" x2="59.5" y2="636.101570094567" stroke="#A02128" stroke-width="1"/><rect x="52.6" y="630.4188391223929" width="13.799999999999999" height="2.692852482801527" fill="#A02128"/><line x1="82.5" y1="632.8118477984884" x2="82.5" y2="645.5199909632977" stroke="#A02128" stroke-width="1"/><rect x="75.6" y="633.1116916051944" width="13.799999999999999" height="2.233702858559127" fill="#A02128"/><line x1="105.5" y1="591.2949346831058" x2="105.5" y2="640.1263510287497" stroke="#006340" stroke-width="1"/><rect x="98.6" y="606.1370243036145" width="13.799999999999999" height="29.20837016013911" fill="#006340"/><line x1="128.5" y1="590.1912162907518" x2="128.5" y2="617.8759583850708" stroke="#006340" stroke-width="1"/><rect x="121.6" y="601.7360983553649" width="13.799999999999999" height="4.400925948249551" fill="#006340"/><line x1="151.5" y1="588.6676551020288" x2="151.5" y2="603.4332395237626" stroke="#006340" stroke-width="1"/><rect x="144.6" y="590.8561740228796" width="13.799999999999999" height="10.879924332485302" fill="#006340"/><line x1="174.5" y1="580.0392141964613" x2="174.5" y2="617.2397346187518" stroke="#A02128" stroke-width="1"/><rect x="167.6" y="590.8561740228796" width="13.799999999999999" height="19.724206979763835" fill="#A02128"/><line x1="197.5" y1="595.7445488801524" x2="197.5" y2="632.6226954388262" stroke="#A02128" stroke-width="1"/><rect x="190.6" y="610.5803810026434" width="13.799999999999999" height="21.421794004349067" fill="#A02128"/><line x1="220.5" y1="603.4635108920994" x2="220.5" y2="643.9193262159696" stroke="#006340" stroke-width="1"/><rect x="213.6" y="612.5353297529366" width="13.799999999999999" height="19.466845254055897" fill="#006340"/><line x1="243.5" y1="605.596751754295" x2="243.5" y2="633.9473052053936" stroke="#A02128" stroke-width="1"/><rect x="236.6" y="612.5353297529366" width="13.799999999999999" height="8.670552721536978" fill="#A02128"/><line x1="266.5" y1="612.0377791414138" x2="266.5" y2="652" stroke="#A02128" stroke-width="1"/><rect x="259.6" y="621.2058824744736" width="13.799999999999999" height="18.52939029976949" fill="#A02128"/><line x1="289.5" y1="623.2512058484932" x2="289.5" y2="644.1942384616043" stroke="#006340" stroke-width="1"/><rect x="282.6" y="624.7441663029831" width="13.799999999999999" height="14.991106471259968" fill="#006340"/><line x1="312.5" y1="592.6045655609475" x2="312.5" y2="629.0277949157195" stroke="#006340" stroke-width="1"/><rect x="305.6" y="595.1725546857687" width="13.799999999999999" height="29.571611617214444" fill="#006340"/><line x1="335.5" y1="581.1932424550852" x2="335.5" y2="618.0404507392963" stroke="#A02128" stroke-width="1"/><rect x="328.6" y="595.1725546857687" width="13.799999999999999" height="16.208383794458655" fill="#A02128"/><line x1="358.5" y1="573.3998614151403" x2="358.5" y2="625.0956684083308" stroke="#006340" stroke-width="1"/><rect x="351.6" y="589.6907398324103" width="13.799999999999999" height="21.690198647817056" fill="#006340"/><line x1="381.5" y1="582.2561321370531" x2="381.5" y2="601.8185369386949" stroke="#A02128" stroke-width="1"/><rect x="374.6" y="589.6907398324103" width="13.799999999999999" height="9.27436210679548" fill="#A02128"/><line x1="404.5" y1="569.299772462464" x2="404.5" y2="606.5370557029236" stroke="#006340" stroke-width="1"/><rect x="397.6" y="573.5672777393712" width="13.799999999999999" height="25.39782419983453" fill="#006340"/><line x1="427.5" y1="541.397282230693" x2="427.5" y2="577.6505449480096" stroke="#006340" stroke-width="1"/><rect x="420.6" y="553.2806467490498" width="13.799999999999999" height="20.28663099032144" fill="#006340"/><line x1="450.5" y1="538.87866791371" x2="450.5" y2="554.2320330814903" stroke="#006340" stroke-width="1"/><rect x="443.6" y="548.9521646615602" width="13.799999999999999" height="4.328482087489533" fill="#006340"/><line x1="473.5" y1="524.6607772974864" x2="473.5" y2="552.7463031834953" stroke="#006340" stroke-width="1"/><rect x="466.6" y="538.4336725713955" width="13.799999999999999" height="10.518492090164727" fill="#006340"/><line x1="496.5" y1="528.2775814933843" x2="496.5" y2="574.8753836943532" stroke="#A02128" stroke-width="1"/><rect x="489.6" y="538.4336725713955" width="13.799999999999999" height="20.69261736527858" fill="#A02128"/><line x1="519.5" y1="521.299460568152" x2="519.5" y2="559.62361594965" stroke="#006340" stroke-width="1"/><rect x="512.6" y="529.2304881743148" width="13.799999999999999" height="29.89580176235927" fill="#006340"/><line x1="542.5" y1="519.5523136268515" x2="542.5" y2="547.9378173258144" stroke="#A02128" stroke-width="1"/><rect x="535.6" y="529.2304881743148" width="13.799999999999999" height="4.599800814339801" fill="#A02128"/><line x1="565.5" y1="518.3876334522013" x2="565.5" y2="544.7974126247937" stroke="#A02128" stroke-width="1"/><rect x="558.6" y="533.8302889886546" width="13.799999999999999" height="5.763810634478091" fill="#A02128"/><line x1="588.5" y1="526.8583187968857" x2="588.5" y2="542.3723406745327" stroke="#006340" stroke-width="1"/><rect x="581.6" y="527.0577800457627" width="13.799999999999999" height="12.536319577370023" fill="#006340"/><line x1="611.5" y1="499.3645607134657" x2="611.5" y2="538.1884519006207" stroke="#006340" stroke-width="1"/><rect x="604.6" y="502.2123950138015" width="13.799999999999999" height="24.8453850319612" fill="#006340"/><line x1="634.5" y1="493.04941104285865" x2="634.5" y2="515.6431399618505" stroke="#A02128" stroke-width="1"/><rect x="627.6" y="502.2123950138015" width="13.799999999999999" height="12.332140888325625" fill="#A02128"/><line x1="657.5" y1="509.56436427771075" x2="657.5" y2="529.7018859317992" stroke="#A02128" stroke-width="1"/><rect x="650.6" y="514.5445359021271" width="13.799999999999999" height="2.915378110312872" fill="#A02128"/><line x1="680.5" y1="509.03151113346803" x2="680.5" y2="548.072812148868" stroke="#A02128" stroke-width="1"/><rect x="673.6" y="517.45991401244" width="13.799999999999999" height="17.1423163533899" fill="#A02128"/><line x1="703.5" y1="516.7008230300268" x2="703.5" y2="551.0122708993943" stroke="#006340" stroke-width="1"/><rect x="696.6" y="519.0439150395689" width="13.799999999999999" height="15.558315326260981" fill="#006340"/><line x1="726.5" y1="515.9917615128454" x2="726.5" y2="539.6379970056414" stroke="#A02128" stroke-width="1"/><rect x="719.6" y="519.0439150395689" width="13.799999999999999" height="16.365384753323042" fill="#A02128"/><line x1="749.5" y1="523.946121997138" x2="749.5" y2="548.3892355995747" stroke="#A02128" stroke-width="1"/><rect x="742.6" y="535.4092997928919" width="13.799999999999999" height="1" fill="#A02128"/><line x1="772.5" y1="527.1730519096833" x2="772.5" y2="550.9601930907282" stroke="#006340" stroke-width="1"/><rect x="765.6" y="527.7799999791689" width="13.799999999999999" height="7.8995650415355385" fill="#006340"/><line x1="795.5" y1="527.2985962121345" x2="795.5" y2="548.6585850199692" stroke="#A02128" stroke-width="1"/><rect x="788.6" y="527.7799999791689" width="13.799999999999999" height="3.9042287170207146" fill="#A02128"/><line x1="818.5" y1="520.2093476035066" x2="818.5" y2="531.895554337467" stroke="#006340" stroke-width="1"/><rect x="811.6" y="528.3611264385182" width="13.799999999999999" height="3.323102257671394" fill="#006340"/><line x1="841.5" y1="480.3212814725705" x2="841.5" y2="543.459343975416" stroke="#006340" stroke-width="1"/><rect x="834.6" y="498.36826262485033" width="13.799999999999999" height="29.992863813667896" fill="#006340"/><line x1="864.5" y1="473.4506894040179" x2="864.5" y2="501.48088226806044" stroke="#006340" stroke-width="1"/><rect x="857.6" y="484.81346827261183" width="13.799999999999999" height="13.554794352238503" fill="#006340"/><line x1="887.5" y1="420.51397286433905" x2="887.5" y2="492.5672112240933" stroke="#006340" stroke-width="1"/><rect x="880.6" y="434.8084870915186" width="13.799999999999999" height="50.00498118109323" fill="#006340"/><line x1="910.5" y1="397.31293589230705" x2="910.5" y2="439.8021092885033" stroke="#006340" stroke-width="1"/><rect x="903.6" y="397.706845908051" width="13.799999999999999" height="37.10164118346762" fill="#006340"/><line x1="933.5" y1="366.44154790268243" x2="933.5" y2="411.16449405527317" stroke="#006340" stroke-width="1"/><rect x="926.6" y="373.09745322641004" width="13.799999999999999" height="24.60939268164094" fill="#006340"/><line x1="956.5" y1="353.6834596985723" x2="956.5" y2="375.25950452479185" stroke="#006340" stroke-width="1"/><rect x="949.6" y="354.81736848601486" width="13.799999999999999" height="18.280084740395182" fill="#006340"/><line x1="979.5" y1="312.1091878396774" x2="979.5" y2="355.0036437852908" stroke="#006340" stroke-width="1"/><rect x="972.6" y="324.7882675572057" width="13.799999999999999" height="30.029100928809157" fill="#006340"/><line x1="1002.5" y1="294.36176236376224" x2="1002.5" y2="334.38822667536493" stroke="#006340" stroke-width="1"/><rect x="995.6" y="300.01294107571886" width="13.799999999999999" height="24.775326481486843" fill="#006340"/><line x1="1025.5" y1="255.87899167247912" x2="1025.5" y2="317.24165923647985" stroke="#006340" stroke-width="1"/><rect x="1018.6" y="271.41965462569607" width="13.799999999999999" height="28.593286450022788" fill="#006340"/><line x1="1048.5" y1="211.12855966224123" x2="1048.5" y2="287.83355219385277" stroke="#006340" stroke-width="1"/><rect x="1041.6" y="225.5826710954691" width="13.799999999999999" height="45.83698353022697" fill="#006340"/><line x1="1071.5" y1="167.14927698309504" x2="1071.5" y2="243.24001864863777" stroke="#006340" stroke-width="1"/><rect x="1064.6" y="175.22705142726397" width="13.799999999999999" height="50.35561966820512" fill="#006340"/><line x1="1094.5" y1="97.23255669457228" x2="1094.5" y2="180.1285790534813" stroke="#006340" stroke-width="1"/><rect x="1087.6" y="110.90375830879998" width="13.799999999999999" height="64.323293118464" fill="#006340"/><line x1="1117.5" y1="76.71574356161636" x2="1117.5" y2="125.96758714401028" stroke="#006340" stroke-width="1"/><rect x="1110.6" y="91.98780317049545" width="13.799999999999999" height="18.915955138304525" fill="#006340"/><line x1="1140.5" y1="24" x2="1140.5" y2="97.26333490956472" stroke="#006340" stroke-width="1"/><rect x="1133.6" y="40.64244977475971" width="13.799999999999999" height="51.34535339573574" fill="#006340"/>
</svg>