<svg xmlns="http://www.w3.org/2000/svg" width="1200" height="700">
  <rect width="100%" height="100%" fill="#0d1117"/>
  <line x1="48" y1="24" x2="1152" y2="24" stroke="#21262d" stroke-width="1"/><line x1="48" y1="181" x2="1152" y2="181" stroke="#21262d" stroke-width="1"/><line x1="48" y1="338" x2="1152" y2="338" stroke="#21262d" stroke-width="1"/><line x1="48" y1="495" x2="1152" y2="495" stroke="#21262d" stroke-width="1"/><line x1="48" y1="652" x2="1152" y2="652" stroke="#21262d" stroke-width="1"/>
  <line x1="59.5" y1="634.6079906220948" x2="59.5" y2="652" stroke="#006340" stroke-width="1"/><rect x="52.6" y="635.9457667213228" width="13.799999999999999" height="3.833690960625745" fill="#006340"/><line x1="82.5" y1="603.1397921295819" x2="82.5" y2="650.0511757532154" stroke="#006340" stroke-width="1"/><rect x="75.6" y="615.7164598080698" width="13.799999999999999" height="20.229306913253026" fill="#006340"/><line x1="105.5" y1="586.8169121122195" x2="105.5" y2="636.3807193289782" stroke="#006340" stroke-width="1"/><rect x="98.6" y="609.4738210171781" width="13.799999999999999" height="6.242638790891647" fill="#006340"/><line x1="128.5" y1="593.8469896296067" x2="128.5" y2="629.1020473330021" stroke="#006340" stroke-width="1"/><rect x="121.6" y="602.164315819155" width="13.799999999999999" height="7.309505198023089" fill="#006340"/><line x1="151.5" y1="563.5301193013506" x2="151.5" y2="610.4910329474422" stroke="#006340" stroke-width="1"/><rect x="144.6" y="579.9259028273791" width="13.799999999999999" height="22.23841299177593" fill="#006340"/><line x1="174.5" y1="513.504815753686" x2="174.5" y2="601.8653829130308" stroke="#006340" stroke-width="1"/><rect x="167.6" y="537.9007595718168" width="13.799999999999999" height="42.025143255562284" fill="#006340"/><line x1="197.5" y1="517.756065394697" x2="197.5" y2="574.4397457930511" stroke="#A02128" stroke-width="1"/><rect x="190.6" y="537.9007595718168" width="13.799999999999999" height="21.744297658977985" fill="#A02128"/><line x1="220.5" y1="523.3427973081749" x2="220.5" y2="581.4654984464712" stroke="#006340" stroke-width="1"/><rect x="213.6" y="542.662274319001" width="13.799999999999999" height="16.982782911793834" fill="#006340"/><line x1="243.5" y1="505.3131895353805" x2="243.5" y2="570.5790103374297" stroke="#006340" stroke-width="1"/><rect x="236.6" y="530.275356750174" width="13.799999999999999" height="12.386917568827016" fill="#006340"/><line x1="266.5" y1="519.9044419248634" x2="266.5" y2="557.9407149572105" stroke="#A02128" stroke-width="1"/><rect x="259.6" y="530.275356750174" width="13.799999999999999" height="3.6157060878091443" fill="#A02128"/><line x1="289.5" y1="498.6672462813732" x2="289.5" y2="542.8597513310032" stroke="#006340" stroke-width="1"/><rect x="282.6" y="509.74164747099223" width="13.799999999999999" height="24.149415366990866" fill="#006340"/><line x1="312.5" y1="465.8257631790428" x2="312.5" y2="532.6994214777981" stroke="#006340" stroke-width="1"/><rect x="305.6" y="477.35614963458545" width="13.799999999999999" height="32.385497836406785" fill="#006340"/><line x1="335.5" y1="442.82227967849684" x2="335.5" y2="479.87250780164743" stroke="#006340" stroke-width="1"/><rect x="328.6" y="463.17994677873327" width="13.799999999999999" height="14.176202855852182" fill="#006340"/><line x1="358.5" y1="445.19467155681" x2="358.5" y2="491.22912498035805" stroke="#006340" stroke-width="1"/><rect x="351.6" y="447.9343691237547" width="13.799999999999999" height="15.245577654978547" fill="#006340"/><line x1="381.5" y1="430.1007420192708" x2="381.5" y2="461.5024782752" stroke="#A02128" stroke-width="1"/><rect x="374.6" y="447.9343691237547" width="13.799999999999999" height="12.982646586973999" fill="#A02128"/><line x1="404.5" y1="434.86928584611076" x2="404.5" y2="506.54145029278374" stroke="#A02128" stroke-width="1"/><rect x="397.6" y="460.9170157107287" width="13.799999999999999" height="15.888513679026232" fill="#A02128"/><line x1="427.5" y1="444.529555335522" x2="427.5" y2="481.4017848838137" stroke="#006340" stroke-width="1"/><rect x="420.6" y="461.3191211308908" width="13.799999999999999" height="15.486408258864174" fill="#006340"/><line x1="450.5" y1="435.93571946959725" x2="450.5" y2="500.02668769860907" stroke="#A02128" stroke-width="1"/><rect x="443.6" y="461.3191211308908" width="13.799999999999999" height="18.926680705014576" fill="#A02128"/><line x1="473.5" y1="478.7458282020626" x2="473.5" y2="501.35581124138696" stroke="#A02128" stroke-width="1"/><rect x="466.6" y="480.24580183590535" width="13.799999999999999" height="18.31264595078892" fill="#A02128"/><line x1="496.5" y1="426.8338277485546" x2="496.5" y2="501.03728086121555" stroke="#006340" stroke-width="1"/><rect x="489.6" y="454.02229564323363" width="13.799999999999999" height="44.53615214346064" fill="#006340"/><line x1="519.5" y1="424.97036935147605" x2="519.5" y2="493.49972923548285" stroke="#A02128" stroke-width="1"/><rect x="512.6" y="454.02229564323363" width="13.799999999999999" height="19.66539076437789" fill="#A02128"/><line x1="542.5" y1="398.0134079498967" x2="542.5" y2="497.5991840658986" stroke="#006340" stroke-width="1"/><rect x="535.6" y="417.6571947115041" width="13.799999999999999" height="56.03049169610745" fill="#006340"/><line x1="565.5" y1="404.713515490169" x2="565.5" y2="438.14081558724274" stroke="#A02128" stroke-width="1"/><rect x="558.6" y="417.6571947115041" width="13.799999999999999" height="15.17481857807934" fill="#A02128"/><line x1="588.5" y1="431.6237390072116" x2="588.5" y2="452.7572165053198" stroke="#A02128" stroke-width="1"/><rect x="581.6" y="432.8320132895834" width="13.799999999999999" height="6.136900615143418" fill="#A02128"/><line x1="611.5" y1="392.89228701565446" x2="611.5" y2="453.4493367334684" stroke="#006340" stroke-width="1"/><rect x="604.6" y="409.4091582834246" width="13.799999999999999" height="29.55975562130226" fill="#006340"/><line x1="634.5" y1="341.0077228240073" x2="634.5" y2="424.6509654577483" stroke="#006340" stroke-width="1"/><rect x="627.6" y="342.3740272248711" width="13.799999999999999" height="67.03513105855347" fill="#006340"/><line x1="657.5" y1="299.84593345702643" x2="657.5" y2="345.86936379027765" stroke="#006340" stroke-width="1"/><rect x="650.6" y="307.94615149508894" width="13.799999999999999" height="34.42787572978216" fill="#006340"/><line x1="680.5" y1="279.84835090630395" x2="680.5" y2="334.4589362751916" stroke="#A02128" stroke-width="1"/><rect x="673.6" y="307.94615149508894" width="13.799999999999999" height="21.386240765802256" fill="#A02128"/><line x1="703.5" y1="321.33964537777626" x2="703.5" y2="334.92745261568626" stroke="#A02128" stroke-width="1"/><rect x="696.6" y="329.3323922608912" width="13.799999999999999" height="4.1604550425304865" fill="#A02128"/><line x1="726.5" y1="247.95025531921283" x2="726.5" y2="358.73273789440276" stroke="#006340" stroke-width="1"/><rect x="719.6" y="270.6242646101796" width="13.799999999999999" height="62.868582693242104" fill="#006340"/><line x1="749.5" y1="203.2005438890818" x2="749.5" y2="279.823954894592" stroke="#006340" stroke-width="1"/><rect x="742.6" y="204.9705627827002" width="13.799999999999999" height="65.65370182747938" fill="#006340"/><line x1="772.5" y1="194.24096486049007" x2="772.5" y2="206.33123453166996" stroke="#006340" stroke-width="1"/><rect x="765.6" y="197.88821610748226" width="13.799999999999999" height="7.082346675217934" fill="#006340"/><line x1="795.5" y1="150.97597728648958" x2="795.5" y2="215.1443734609581" stroke="#006340" stroke-width="1"/><rect x="788.6" y="177.98937153601025" width="13.799999999999999" height="19.89884457147201" fill="#006340"/><line x1="818.5" y1="133.4251777475597" x2="818.5" y2="184.7217334910323" stroke="#006340" stroke-width="1"/><rect x="811.6" y="138.1682383939035" width="13.799999999999999" height="39.82113314210676" fill="#006340"/><line x1="841.5" y1="125.00841864187475" x2="841.5" y2="165.94572454251886" stroke="#A02128" stroke-width="1"/><rect x="834.6" y="138.1682383939035" width="13.799999999999999" height="4.273452816619283" fill="#A02128"/><line x1="864.5" y1="95.48834297237033" x2="864.5" y2="160.22549984830835" stroke="#006340" stroke-width="1"/><rect x="857.6" y="107.71138906684644" width="13.799999999999999" height="34.73030214367634" fill="#006340"/><line x1="887.5" y1="73.84715124974127" x2="887.5" y2="115.38669440302772" stroke="#006340" stroke-width="1"/><rect x="880.6" y="92.75505463279308" width="13.799999999999999" height="14.95633443405336" fill="#006340"/><line x1="910.5" y1="76.8075766642852" x2="910.5" y2="121.5158951867694" stroke="#A02128" stroke-width="1"/><rect x="903.6" y="92.75505463279308" width="13.799999999999999" height="4.035858669660456" fill="#A02128"/><line x1="933.5" y1="89.91207207004959" x2="933.5" y2="120.86181253160748" stroke="#A02128" stroke-width="1"/><rect x="926.6" y="96.79091330245353" width="13.799999999999999" height="17.218783748441297" fill="#A02128"/><line x1="956.5" y1="57.07156411452161" x2="956.5" y2="144.37938565578742" stroke="#006340" stroke-width="1"/><rect x="949.6" y="64.37922375571509" width="13.799999999999999" height="49.63047329517974" fill="#006340"/><line x1="979.5" y1="52.32472795306671" x2="979.5" y2="75.5122538668005" stroke="#006340" stroke-width="1"/><rect x="972.6" y="54.0312148901329" width="13.799999999999999" height="10.348008865582187" fill="#006340"/><line x1="1002.5" y1="24" x2="1002.5" y2="78.30756809912646" stroke="#006340" stroke-width="1"/><rect x="995.6" y="52.9276619522916" width="13.799999999999999" height="1.1035529378413003" fill="#006340"/><line x1="1025.5" y1="26.722565475199644" x2="1025.5" y2="68.07751486249788" stroke="#A02128" stroke-width="1"/><rect x="1018.6" y="52.9276619522916" width="13.799999999999999" height="7.4907995663737665" fill="#A02128"/><line x1="1048.5" y1="58.618495074110456" x2="1048.5" y2="95.08783247684642" stroke="#A02128" stroke-width="1"/><rect x="1041.6" y="60.41846151866537" width="13.799999999999999" height="18.512780947707938" fill="#A02128"/><line x1="1071.5" y1="54.608927748057795" x2="1071.5" y2="114.30459148771422" stroke="#A02128" stroke-width="1"/><rect x="1064.6" y="78.9312424663733" width="13.799999999999999" height="15.621888847215132" fill="#A02128"/><line x1="1094.5" y1="76.99583873651909" x2="1094.5" y2="115.55175593177887" stroke="#A02128" stroke-width="1"/><rect x="1087.6" y="94.55313131358844" width="13.799999999999999" height="7.505660031219918" fill="#A02128"/><line x1="1117.5" y1="80.78475839487123" x2="1117.5" y2="126.06311308123452" stroke="#006340" stroke-width="1"/><rect x="1110.6" y="83.54758063423606" width="13.799999999999999" height="18.5112107105723" fill="#006340"/><line x1="1140.5" y1="41.686650138903246" x2="1140.5" y2="83.67611425859695" stroke="#006340" stroke-width="1"/><rect x="1133.6" y="57.24409055197384" width="13.799999999999999" height="26.303490082262215" fill="#006340"/>
</svg>