<svg xmlns="http://www.w3.org/2000/svg" width="1200" height="700">
  <rect width="100%" height="100%" fill="#0d1117"/>
  <line x1="48" y1="24" x2="1152" y2="24" stroke="#21262d" stroke-width="1"/><line x1="48" y1="181" x2="1152" y2="181" stroke="#21262d" stroke-width="1"/><line x1="48" y1="338" x2="1152" y2="338" stroke="#21262d" stroke-width="1"/><line x1="48" y1="495" x2="1152" y2="495" stroke="#21262d" stroke-width="1"/><line x1="48" y1="652" x2="1152" y2="652" stroke="#21262d" stroke-width="1"/>
  <line x1="59.5" y1="639.7618809511865" x2="59.5" y2="651.6676124610332" stroke="#A02128" stroke-width="1"/><rect x="52.6" y="646.3793073245973" width="13.799999999999999" height="4.606466858315912" fill="#A02128"/><line x1="82.5" y1="611.3754130827372" x2="82.5" y2="652" stroke="#006340" stroke-width="1"/><rect x="75.6" y="624.4311396376168" width="13.799999999999999" height="26.554634545296494" fill="#006340"/><line x1="105.5" y1="612.8623650708789" x2="105.5" y2="631.099907582147" stroke="#006340" stroke-width="1"/><rect x="98.6" y="614.1797046083138" width="13.799999999999999" height="10.251435029302911" fill="#006340"/><line x1="128.5" y1="585.3426112377402" x2="128.5" y2="621.8485446285872" stroke="#006340" stroke-width="1"/><rect x="121.6" y="592.7220879652295" width="13.799999999999999" height="21.457616643084293" fill="#006340"/><line x1="151.5" y1="584.9189574382381" x2="151.5" y2="596.372023060643" stroke="#A02128" stroke-width="1"/><rect x="144.6" y="592.7220879652295" width="13.799999999999999" height="2.0492190995969395" fill="#A02128"/><line x1="174.5" y1="594.0304035496462" x2="174.5" y2="605.3395197669291" stroke="#A02128" stroke-width="1"/><rect x="167.6" y="594.7713070648265" width="13.799999999999999" height="1.4149641501203405" fill="#A02128"/><line x1="197.5" y1="574.2577036740213" x2="197.5" y2="603.5011144568725" stroke="#006340" stroke-width="1"/><rect x="190.6" y="589.5234150325086" width="13.799999999999999" height="6.6628561824381904" fill="#006340"/><line x1="220.5" y1="583.8024888984235" x2="220.5" y2="593.2843039012296" stroke="#006340" stroke-width="1"/><rect x="213.6" y="586.1581044337942" width="13.799999999999999" height="3.3653105987144727" fill="#006340"/><line x1="243.5" y1="571.5069358809707" x2="243.5" y2="600.0160022477987" stroke="#A02128" stroke-width="1"/><rect x="236.6" y="586.1581044337942" width="13.799999999999999" height="9.670369664503596" fill="#A02128"/><line x1="266.5" y1="589.3370023548206" x2="266.5" y2="615.7181409415585" stroke="#A02128" stroke-width="1"/><rect x="259.6" y="595.8284740982978" width="13.799999999999999" height="15.728327918576838" fill="#A02128"/><line x1="289.5" y1="607.2671640185098" x2="289.5" y2="618.1790248482794" stroke="#A02128" stroke-width="1"/><rect x="282.6" y="611.5568020168746" width="13.799999999999999" height="5.070709280766664" fill="#A02128"/><line x1="312.5" y1="593.2152811041766" x2="312.5" y2="618.9983549837093" stroke="#006340" stroke-width="1"/><rect x="305.6" y="605.5460850047801" width="13.799999999999999" height="11.081426292861124" fill="#006340"/><line x1="335.5" y1="573.2287771677022" x2="335.5" y2="607.4741015647621" stroke="#006340" stroke-width="1"/><rect x="328.6" y="588.4723427001779" width="13.799999999999999" height="17.073742304602206" fill="#006340"/><line x1="358.5" y1="566.2264972985294" x2="358.5" y2="591.9450863117574" stroke="#006340" stroke-width="1"/><rect x="351.6" y="575.657519910911" width="13.799999999999999" height="12.814822789266941" fill="#006340"/><line x1="381.5" y1="565.2447540282309" x2="381.5" y2="595.0839707449084" stroke="#A02128" stroke-width="1"/><rect x="374.6" y="575.657519910911" width="13.799999999999999" height="12.67853857906573" fill="#A02128"/><line x1="404.5" y1="570.7242270103743" x2="404.5" y2="594.0459907733639" stroke="#006340" stroke-width="1"/><rect x="397.6" y="577.7642847762767" width="13.799999999999999" height="10.571773713700054" fill="#006340"/><line x1="427.5" y1="576.7745997586946" x2="427.5" y2="589.4450917010141" stroke="#A02128" stroke-width="1"/><rect x="420.6" y="577.7642847762767" width="13.799999999999999" height="3.4025054882209815" fill="#A02128"/><line x1="450.5" y1="574.5566109860642" x2="450.5" y2="589.0939370053858" stroke="#006340" stroke-width="1"/><rect x="443.6" y="580.6672784622024" width="13.799999999999999" height="1" fill="#006340"/><line x1="473.5" y1="553.825998517675" x2="473.5" y2="594.9316327809876" stroke="#006340" stroke-width="1"/><rect x="466.6" y="566.8278837950287" width="13.799999999999999" height="13.839394667173678" fill="#006340"/><line x1="496.5" y1="560.1873008445945" x2="496.5" y2="576.948472495658" stroke="#A02128" stroke-width="1"/><rect x="489.6" y="566.8278837950287" width="13.799999999999999" height="3.215002800281809" fill="#A02128"/><line x1="519.5" y1="569.1130204350693" x2="519.5" y2="577.9029563664341" stroke="#A02128" stroke-width="1"/><rect x="512.6" y="570.0428865953105" width="13.799999999999999" height="7.371038278783544" fill="#A02128"/><line x1="542.5" y1="577.0066513302645" x2="542.5" y2="600.3222891185491" stroke="#A02128" stroke-width="1"/><rect x="535.6" y="577.413924874094" width="13.799999999999999" height="11.17021752461062" fill="#A02128"/><line x1="565.5" y1="557.3844232806308" x2="565.5" y2="592.1593854483838" stroke="#006340" stroke-width="1"/><rect x="558.6" y="568.6113759532683" width="13.799999999999999" height="19.972766445436378" fill="#006340"/><line x1="588.5" y1="562.5667955359185" x2="588.5" y2="590.3054455655273" stroke="#A02128" stroke-width="1"/><rect x="581.6" y="568.6113759532683" width="13.799999999999999" height="10.443454690220165" fill="#A02128"/><line x1="611.5" y1="542.63413682497" x2="611.5" y2="584.3459418424576" stroke="#006340" stroke-width="1"/><rect x="604.6" y="553.501742053972" width="13.799999999999999" height="25.553088589516506" fill="#006340"/><line x1="634.5" y1="543.4033843512018" x2="634.5" y2="566.219142462504" stroke="#A02128" stroke-width="1"/><rect x="627.6" y="553.501742053972" width="13.799999999999999" height="5.121204979737286" fill="#A02128"/><line x1="657.5" y1="542.0281227874132" x2="657.5" y2="561.5433092631823" stroke="#006340" stroke-width="1"/><rect x="650.6" y="547.2006510531115" width="13.799999999999999" height="11.42229598059771" fill="#006340"/><line x1="680.5" y1="525.0323953749644" x2="680.5" y2="558.064026313932" stroke="#006340" stroke-width="1"/><rect x="673.6" y="534.9934443112364" width="13.799999999999999" height="12.207206741875098" fill="#006340"/><line x1="703.5" y1="533.6219176336131" x2="703.5" y2="560.856503935548" stroke="#A02128" stroke-width="1"/><rect x="696.6" y="534.9934443112364" width="13.799999999999999" height="19.01210388267816" fill="#A02128"/><line x1="726.5" y1="524.5836680888588" x2="726.5" y2="562.8021197705048" stroke="#006340" stroke-width="1"/><rect x="719.6" y="537.6898324350651" width="13.799999999999999" height="16.31571575884948" fill="#006340"/><line x1="749.5" y1="517.3948839812489" x2="749.5" y2="545.7050942682138" stroke="#006340" stroke-width="1"/><rect x="742.6" y="531.8595204351528" width="13.799999999999999" height="5.830311999912283" fill="#006340"/><line x1="772.5" y1="516.727458508504" x2="772.5" y2="550.6661591823198" stroke="#A02128" stroke-width="1"/><rect x="765.6" y="531.8595204351528" width="13.799999999999999" height="9.150433357079237" fill="#A02128"/><line x1="795.5" y1="510.31722825245186" x2="795.5" y2="544.4177232489657" stroke="#006340" stroke-width="1"/><rect x="788.6" y="519.65300316112" width="13.799999999999999" height="21.356950631112113" fill="#006340"/><line x1="818.5" y1="483.5194804579754" x2="818.5" y2="521.8809246636054" stroke="#006340" stroke-width="1"/><rect x="811.6" y="492.3157433958037" width="13.799999999999999" height="27.337259765316276" fill="#006340"/><line x1="841.5" y1="450.34871810256817" x2="841.5" y2="502.4835016292339" stroke="#006340" stroke-width="1"/><rect x="834.6" y="458.5825446023065" width="13.799999999999999" height="33.733198793497195" fill="#006340"/><line x1="864.5" y1="436.9236486002062" x2="864.5" y2="458.7798956951733" stroke="#006340" stroke-width="1"/><rect x="857.6" y="441.2008489177951" width="13.799999999999999" height="17.381695684511385" fill="#006340"/><line x1="887.5" y1="406.79143572763854" x2="887.5" y2="455.1190023098232" stroke="#006340" stroke-width="1"/><rect x="880.6" y="410.92479854821045" width="13.799999999999999" height="30.276050369584652" fill="#006340"/><line x1="910.5" y1="364.89506548873584" x2="910.5" y2="417.97024577805666" stroke="#006340" stroke-width="1"/><rect x="903.6" y="374.1200904464097" width="13.799999999999999" height="36.80470810180077" fill="#006340"/><line x1="933.5" y1="348.2411601212732" x2="933.5" y2="376.6702429161406" stroke="#006340" stroke-width="1"/><rect x="926.6" y="354.8037249101204" width="13.799999999999999" height="19.316365536289254" fill="#006340"/><line x1="956.5" y1="298.38087039955894" x2="956.5" y2="363.82110607081484" stroke="#006340" stroke-width="1"/><rect x="949.6" y="306.94113904618655" width="13.799999999999999" height="47.86258586393387" fill="#006340"/><line x1="979.5" y1="282.20293399024786" x2="979.5" y2="308.68975904337464" stroke="#006340" stroke-width="1"/><rect x="972.6" y="285.90693655577303" width="13.799999999999999" height="21.03420249041352" fill="#006340"/><line x1="1002.5" y1="224.5405826303749" x2="1002.5" y2="286.3211638300448" stroke="#006340" stroke-width="1"/><rect x="995.6" y="236.4652113949469" width="13.799999999999999" height="49.44172516082614" fill="#006340"/><line x1="1025.5" y1="186.94624563678798" x2="1025.5" y2="243.59203264522722" stroke="#006340" stroke-width="1"/><rect x="1018.6" y="189.88747518337522" width="13.799999999999999" height="46.577736211571676" fill="#006340"/><line x1="1048.5" y1="168.00232422066068" x2="1048.5" y2="204.25487149621165" stroke="#006340" stroke-width="1"/><rect x="1041.6" y="178.07959634145493" width="13.799999999999999" height="11.807878841920285" fill="#006340"/><line x1="1071.5" y1="132.64820564525462" x2="1071.5" y2="180.19838606252097" stroke="#006340" stroke-width="1"/><rect x="1064.6" y="146.11176907319418" width="13.799999999999999" height="31.96782726826075" fill="#006340"/><line x1="1094.5" y1="120.93882727618734" x2="1094.5" y2="159.4082507733503" stroke="#006340" stroke-width="1"/><rect x="1087.6" y="133.91058434173317" width="13.799999999999999" height="12.201184731461012" fill="#006340"/><line x1="1117.5" y1="75.59425703874581" x2="1117.5" y2="140.5221248567405" stroke="#006340" stroke-width="1"/><rect x="1110.6" y="90.7865625377068" width="13.799999999999999" height="43.12402180402637" fill="#006340"/><line x1="1140.5" y1="24" x2="1140.5" y2="99.41246406483094" stroke="#006340" stroke-width="1"/><rect x="1133.6" y="35.47602407866668" width="13.799999999999999" height="55.31053845904012" fill="#006340"/>
</svg>