<svg xmlns="http://www.w3.org/2000/svg" width="1200" height="700">
  <rect width="100%" height="100%" fill="#0d1117"/>
  <line x1="48" y1="24" x2="1152" y2="24" stroke="#21262d" stroke-width="1"/><line x1="48" y1="181" x2="1152" y2="181" stroke="#21262d" stroke-width="1"/><line x1="48" y1="338" x2="1152" y2="338" stroke="#21262d" stroke-width="1"/><line x1="48" y1="495" x2="1152" y2="495" stroke="#21262d" stroke-width="1"/><line x1="48" y1="652" x2="1152" y2="652" stroke="#21262d" stroke-width="1"/>
  <line x1="59.5" y1="614.0966300689294" x2="59.5" y2="643.8199241419795" stroke="#006340" stroke-width="1"/><rect x="52.6" y="628.9758606109278" width="13.799999999999999" height="13.39895786729926" fill="#006340"/><line x1="82.5" y1="618.7994331833839" x2="82.5" y2="652" stroke="#A02128" stroke-width="1"/><rect x="75.6" y="628.9758606109278" width="13.799999999999999" height="10.752857379931015" fill="#A02128"/><line x1="105.5" y1="628.1294312132668" x2="105.5" y2="647.8520614525373" stroke="#006340" stroke-width="1"/><rect x="98.6" y="635.5993540480267" width="13.799999999999999" height="4.1293639428321285" fill="#006340"/><line x1="128.5" y1="614.6289252987517" x2="128.5" y2="640.5181251402386" stroke="#006340" stroke-width="1"/><rect x="121.6" y="620.7469969999629" width="13.799999999999999" height="14.852357048063823" fill="#006340"/><line x1="151.5" y1="609.210192848739" x2="151.5" y2="648.5742390232398" stroke="#A02128" stroke-width="1"/><rect x="144.6" y="620.7469969999629" width="13.799999999999999" height="12.934901378162749" fill="#A02128"/><line x1="174.5" y1="603.1871316713946" x2="174.5" y2="649.4671368954777" stroke="#006340" stroke-width="1"/><rect x="167.6" y="611.9400974658333" width="13.799999999999999" height="21.74180091229232" fill="#006340"/><line x1="197.5" y1="581.0489765767626" x2="197.5" y2="628.280401461037" stroke="#006340" stroke-width="1"/><rect x="190.6" y="589.4082301256999" width="13.799999999999999" height="22.53186734013343" fill="#006340"/><line x1="220.5" y1="558.2756003610803" x2="220.5" y2="590.0321426285216" stroke="#006340" stroke-width="1"/><rect x="213.6" y="564.3969890524033" width="13.799999999999999" height="25.01124107329656" fill="#006340"/><line x1="243.5" y1="531.8057114926294" x2="243.5" y2="573.1776008987987" stroke="#006340" stroke-width="1"/><rect x="236.6" y="542.642373380267" width="13.799999999999999" height="21.75461567213631" fill="#006340"/><line x1="266.5" y1="536.0797312137792" x2="266.5" y2="560.8463038510904" stroke="#A02128" stroke-width="1"/><rect x="259.6" y="542.642373380267" width="13.799999999999999" height="3.8561983342769963" fill="#A02128"/><line x1="289.5" y1="538.9033905939723" x2="289.5" y2="569.0023892368796" stroke="#A02128" stroke-width="1"/><rect x="282.6" y="546.498571714544" width="13.799999999999999" height="10.291372045703383" fill="#A02128"/><line x1="312.5" y1="537.022706955469" x2="312.5" y2="571.0901433118074" stroke="#006340" stroke-width="1"/><rect x="305.6" y="547.2609675114725" width="13.799999999999999" height="9.528976248774939" fill="#006340"/><line x1="335.5" y1="518.3553458816838" x2="335.5" y2="551.7774791524141" stroke="#006340" stroke-width="1"/><rect x="328.6" y="527.7138029085594" width="13.799999999999999" height="19.547164602913085" fill="#006340"/><line x1="358.5" y1="491.62444138397416" x2="358.5" y2="533.7928871256527" stroke="#006340" stroke-width="1"/><rect x="351.6" y="496.56263867846735" width="13.799999999999999" height="31.151164230092036" fill="#006340"/><line x1="381.5" y1="467.9586844344486" x2="381.5" y2="498.4005532654356" stroke="#006340" stroke-width="1"/><rect x="374.6" y="472.42907323361965" width="13.799999999999999" height="24.133565444847704" fill="#006340"/><line x1="404.5" y1="462.6038289613532" x2="404.5" y2="483.38406593844576" stroke="#A02128" stroke-width="1"/><rect x="397.6" y="472.42907323361965" width="13.799999999999999" height="1" fill="#A02128"/><line x1="427.5" y1="434.35383079154246" x2="427.5" y2="478.74090257525063" stroke="#006340" stroke-width="1"/><rect x="420.6" y="435.6598946269312" width="13.799999999999999" height="37.298420595691766" fill="#006340"/><line x1="450.5" y1="406.8040405457542" x2="450.5" y2="449.5379603396716" stroke="#006340" stroke-width="1"/><rect x="443.6" y="412.86056801365226" width="13.799999999999999" height="22.799326613278936" fill="#006340"/><line x1="473.5" y1="396.29202382474205" x2="473.5" y2="424.4153214575348" stroke="#006340" stroke-width="1"/><rect x="466.6" y="411.9435547153333" width="13.799999999999999" height="1" fill="#006340"/><line x1="496.5" y1="394.6139372402664" x2="496.5" y2="418.0139257108972" stroke="#006340" stroke-width="1"/><rect x="489.6" y="403.22690065955874" width="13.799999999999999" height="8.71665405577454" fill="#006340"/><line x1="519.5" y1="355.61448120174845" x2="519.5" y2="414.83174402646796" stroke="#006340" stroke-width="1"/><rect x="512.6" y="373.4511766206341" width="13.799999999999999" height="29.775724038924636" fill="#006340"/><line x1="542.5" y1="361.4919098475108" x2="542.5" y2="383.4190757957989" stroke="#A02128" stroke-width="1"/><rect x="535.6" y="373.4511766206341" width="13.799999999999999" height="7.81601556779259" fill="#A02128"/><line x1="565.5" y1="372.3319756037809" x2="565.5" y2="402.4264130160799" stroke="#A02128" stroke-width="1"/><rect x="558.6" y="381.2671921884267" width="13.799999999999999" height="11.529734898955724" fill="#A02128"/><line x1="588.5" y1="386.6855364064908" x2="588.5" y2="397.8027872553889" stroke="#A02128" stroke-width="1"/><rect x="581.6" y="392.7969270873824" width="13.799999999999999" height="1.7257379307985161" fill="#A02128"/><line x1="611.5" y1="369.34615307109067" x2="611.5" y2="396.3912967366834" stroke="#006340" stroke-width="1"/><rect x="604.6" y="379.89343050562263" width="13.799999999999999" height="14.629234512558298" fill="#006340"/><line x1="634.5" y1="376.84913465169757" x2="634.5" y2="389.99768598986935" stroke="#006340" stroke-width="1"/><rect x="627.6" y="377.90406947561985" width="13.799999999999999" height="1.989361030002783" fill="#006340"/><line x1="657.5" y1="321.5606655084221" x2="657.5" y2="390.4902121834882" stroke="#006340" stroke-width="1"/><rect x="650.6" y="336.9275998823109" width="13.799999999999999" height="40.976469593308934" fill="#006340"/><line x1="680.5" y1="313.38792131112376" x2="680.5" y2="353.7783653822072" stroke="#006340" stroke-width="1"/><rect x="673.6" y="319.7225303816166" width="13.799999999999999" height="17.20506950069432" fill="#006340"/><line x1="703.5" y1="314.9722331721787" x2="703.5" y2="321.2382349107106" stroke="#A02128" stroke-width="1"/><rect x="696.6" y="319.7225303816166" width="13.799999999999999" height="1" fill="#A02128"/><line x1="726.5" y1="265.74578376753425" x2="726.5" y2="336.3882063499937" stroke="#006340" stroke-width="1"/><rect x="719.6" y="278.2332017024647" width="13.799999999999999" height="41.52546474519772" fill="#006340"/><line x1="749.5" y1="226.06455357606853" x2="749.5" y2="294.6422161210042" stroke="#006340" stroke-width="1"/><rect x="742.6" y="244.08444666814034" width="13.799999999999999" height="34.14875503432438" fill="#006340"/><line x1="772.5" y1="207.56067892302667" x2="772.5" y2="261.24773556169595" stroke="#006340" stroke-width="1"/><rect x="765.6" y="225.11028732009862" width="13.799999999999999" height="18.974159348041724" fill="#006340"/><line x1="795.5" y1="213.26826668666467" x2="795.5" y2="235.07264564207145" stroke="#006340" stroke-width="1"/><rect x="788.6" y="223.32267457190903" width="13.799999999999999" height="1.7876127481895878" fill="#006340"/><line x1="818.5" y1="188.89520729502271" x2="818.5" y2="228.40202887737547" stroke="#006340" stroke-width="1"/><rect x="811.6" y="194.30267142052566" width="13.799999999999999" height="29.020003151383378" fill="#006340"/><line x1="841.5" y1="145.85781619758922" x2="841.5" y2="209.1903772304109" stroke="#006340" stroke-width="1"/><rect x="834.6" y="164.85750205484686" width="13.799999999999999" height="29.445169365678794" fill="#006340"/><line x1="864.5" y1="155.99160891778666" x2="864.5" y2="173.24070825877862" stroke="#A02128" stroke-width="1"/><rect x="857.6" y="164.85750205484686" width="13.799999999999999" height="2.182713486848172" fill="#A02128"/><line x1="887.5" y1="162.76646178627686" x2="887.5" y2="172.45715793140891" stroke="#006340" stroke-width="1"/><rect x="880.6" y="165.26547185207426" width="13.799999999999999" height="1.7747436896207773" fill="#006340"/><line x1="910.5" y1="122.19841253679601" x2="910.5" y2="175.8841638074207" stroke="#006340" stroke-width="1"/><rect x="903.6" y="136.6327451535111" width="13.799999999999999" height="28.632726698563147" fill="#006340"/><line x1="933.5" y1="110.65806559858709" x2="933.5" y2="150.7087386481976" stroke="#006340" stroke-width="1"/><rect x="926.6" y="119.42288236104127" width="13.799999999999999" height="17.209862792469835" fill="#006340"/><line x1="956.5" y1="70.48597430704478" x2="956.5" y2="126.40062985416614" stroke="#006340" stroke-width="1"/><rect x="949.6" y="84.69082432202015" width="13.799999999999999" height="34.732058039021126" fill="#006340"/><line x1="979.5" y1="24.204950655104426" x2="979.5" y2="94.49307868136486" stroke="#006340" stroke-width="1"/><rect x="972.6" y="43.500134649270194" width="13.799999999999999" height="41.190689672749954" fill="#006340"/><line x1="1002.5" y1="37.045138459550344" x2="1002.5" y2="72.96734314996365" stroke="#A02128" stroke-width="1"/><rect x="995.6" y="43.500134649270194" width="13.799999999999999" height="10.177976723580741" fill="#A02128"/><line x1="1025.5" y1="41.18530196255347" x2="1025.5" y2="65.15653335951185" stroke="#A02128" stroke-width="1"/><rect x="1018.6" y="53.678111372850935" width="13.799999999999999" height="6.959492197862119" fill="#A02128"/><line x1="1048.5" y1="56.56650429345939" x2="1048.5" y2="85.4619794267229" stroke="#A02128" stroke-width="1"/><rect x="1041.6" y="60.637603570713054" width="13.799999999999999" height="9.532036093950751" fill="#A02128"/><line x1="1071.5" y1="59.83435146187867" x2="1071.5" y2="79.6453700052208" stroke="#006340" stroke-width="1"/><rect x="1064.6" y="69.25578473975975" width="13.799999999999999" height="1" fill="#006340"/><line x1="1094.5" y1="50.00673744521623" x2="1094.5" y2="101.38879196799382" stroke="#A02128" stroke-width="1"/><rect x="1087.6" y="69.25578473975975" width="13.799999999999999" height="14.528050067863205" fill="#A02128"/><line x1="1117.5" y1="44.48126443082708" x2="1117.5" y2="101.6086651754024" stroke="#006340" stroke-width="1"/><rect x="1110.6" y="58.68259116379295" width="13.799999999999999" height="25.101243643830003" fill="#006340"/><line x1="1140.5" y1="24" x2="1140.5" y2="60.0619199790367" stroke="#006340" stroke-width="1"/><rect x="1133.6" y="24.487590565025016" width="13.799999999999999" height="34.19500059876793" fill="#006340"/>
</svg>