<svg xmlns="http://www.w3.org/2000/svg" width="1200" height="700">
  <rect width="100%" height="100%" fill="#0d1117"/>
  <line x1="48" y1="24" x2="1152" y2="24" stroke="#21262d" stroke-width="1"/><line x1="48" y1="181" x2="1152" y2="181" stroke="#21262d" stroke-width="1"/><line x1="48" y1="338" x2="1152" y2="338" stroke="#21262d" stroke-width="1"/><line x1="48" y1="495" x2="1152" y2="495" stroke="#21262d" stroke-width="1"/><line x1="48" y1="652" x2="1152" y2="652" stroke="#21262d" stroke-width="1"/>
  <line x1="59.5" y1="611.1933374317824" x2="59.5" y2="652" stroke="#006340" stroke-width="1"/><rect x="52.6" y="619.5466920475928" width="13.799999999999999" height="31.11548438401053" fill="#006340"/><line x1="82.5" y1="606.948425867501" x2="82.5" y2="626.6025454247108" stroke="#006340" stroke-width="1"/><rect x="75.6" y="618.9354640555551" width="13.799999999999999" height="1" fill="#006340"/><line x1="105.5" y1="569.6993261033898" x2="105.5" y2="620.1450704459996" stroke="#006340" stroke-width="1"/><rect x="98.6" y="583.4731054648711" width="13.799999999999999" height="35.46235859068406" fill="#006340"/><line x1="128.5" y1="561.7784525184841" x2="128.5" y2="591.3178220274544" stroke="#006340" stroke-width="1"/><rect x="121.6" y="577.2322684444596" width="13.799999999999999" height="6.2408370204115045" fill="#006340"/><line x1="151.5" y1="557.0424264672831" x2="151.5" y2="580.7025446876097" stroke="#006340" stroke-width="1"/><rect x="144.6" y="566.3382372281408" width="13.799999999999999" height="10.894031216318808" fill="#006340"/><line x1="174.5" y1="548.7949201415244" x2="174.5" y2="580.090324771445" stroke="#A02128" stroke-width="1"/><rect x="167.6" y="566.3382372281408" width="13.799999999999999" height="8.530697634138278" fill="#A02128"/><line x1="197.5" y1="533.5711035907374" x2="197.5" y2="583.4130951856954" stroke="#006340" stroke-width="1"/><rect x="190.6" y="535.6768535423969" width="13.799999999999999" height="39.19208131988216" fill="#006340"/><line x1="220.5" y1="511.2452163436848" x2="220.5" y2="550.7716519426484" stroke="#006340" stroke-width="1"/><rect x="213.6" y="513.9388220496693" width="13.799999999999999" height="21.7380314927276" fill="#006340"/><line x1="243.5" y1="498.3182734583954" x2="243.5" y2="517.9153874734504" stroke="#A02128" stroke-width="1"/><rect x="236.6" y="513.9388220496693" width="13.799999999999999" height="1" fill="#A02128"/><line x1="266.5" y1="497.38251426522385" x2="266.5" y2="518.3159067445453" stroke="#A02128" stroke-width="1"/><rect x="259.6" y="513.965771989924" width="13.799999999999999" height="2.1442744218326197" fill="#A02128"/><line x1="289.5" y1="481.1720151806132" x2="289.5" y2="516.7930256366722" stroke="#006340" stroke-width="1"/><rect x="282.6" y="483.00645960895736" width="13.799999999999999" height="33.103586802799214" fill="#006340"/><line x1="312.5" y1="455.9075335704691" x2="312.5" y2="494.29186728177694" stroke="#006340" stroke-width="1"/><rect x="305.6" y="463.66174525728627" width="13.799999999999999" height="19.344714351671087" fill="#006340"/><line x1="335.5" y1="430.991725787041" x2="335.5" y2="474.10548915824074" stroke="#006340" stroke-width="1"/><rect x="328.6" y="437.6072535991973" width="13.799999999999999" height="26.054491658088978" fill="#006340"/><line x1="358.5" y1="429.81087584174486" x2="358.5" y2="461.7409209608239" stroke="#A02128" stroke-width="1"/><rect x="351.6" y="437.6072535991973" width="13.799999999999999" height="9.721404977884049" fill="#A02128"/><line x1="381.5" y1="446.21191802283147" x2="381.5" y2="454.6349614807279" stroke="#A02128" stroke-width="1"/><rect x="374.6" y="447.32865857708134" width="13.799999999999999" height="1.1327329334437763" fill="#A02128"/><line x1="404.5" y1="422.76651681320436" x2="404.5" y2="453.5063216483662" stroke="#006340" stroke-width="1"/><rect x="397.6" y="429.39833231319744" width="13.799999999999999" height="19.063059197327675" fill="#006340"/><line x1="427.5" y1="387.4197458744266" x2="427.5" y2="437.28258918851844" stroke="#006340" stroke-width="1"/><rect x="420.6" y="400.2641939259166" width="13.799999999999999" height="29.13413838728087" fill="#006340"/><line x1="450.5" y1="392.3934358529597" x2="450.5" y2="406.2828524390889" stroke="#006340" stroke-width="1"/><rect x="443.6" y="393.36795141820954" width="13.799999999999999" height="6.896242507707029" fill="#006340"/><line x1="473.5" y1="375.45022236568445" x2="473.5" y2="404.10639050915324" stroke="#006340" stroke-width="1"/><rect x="466.6" y="388.310944638173" width="13.799999999999999" height="5.057006780036545" fill="#006340"/><line x1="496.5" y1="373.75538542988846" x2="496.5" y2="395.87488319514074" stroke="#A02128" stroke-width="1"/><rect x="489.6" y="388.310944638173" width="13.799999999999999" height="6.082799402802152" fill="#A02128"/><line x1="519.5" y1="364.91684374392867" x2="519.5" y2="405.1688172084355" stroke="#006340" stroke-width="1"/><rect x="512.6" y="381.52244844372905" width="13.799999999999999" height="12.871295597246103" fill="#006340"/><line x1="542.5" y1="339.0242045976233" x2="542.5" y2="397.2077668313502" stroke="#006340" stroke-width="1"/><rect x="535.6" y="346.0426365956271" width="13.799999999999999" height="35.479811848101974" fill="#006340"/><line x1="565.5" y1="299.05798148032216" x2="565.5" y2="351.88855438402413" stroke="#006340" stroke-width="1"/><rect x="558.6" y="302.5226004090099" width="13.799999999999999" height="43.520036186617176" fill="#006340"/><line x1="588.5" y1="294.67892165015917" x2="588.5" y2="328.91943942431686" stroke="#A02128" stroke-width="1"/><rect x="581.6" y="302.5226004090099" width="13.799999999999999" height="10.177899288744811" fill="#A02128"/><line x1="611.5" y1="302.8229702442126" x2="611.5" y2="314.5674246953997" stroke="#006340" stroke-width="1"/><rect x="604.6" y="308.4883047235383" width="13.799999999999999" height="4.212194974216402" fill="#006340"/><line x1="634.5" y1="296.51465095454364" x2="634.5" y2="323.5962536094945" stroke="#A02128" stroke-width="1"/><rect x="627.6" y="308.4883047235383" width="13.799999999999999" height="3.61912020182848" fill="#A02128"/><line x1="657.5" y1="293.6036596600577" x2="657.5" y2="326.89692456263913" stroke="#006340" stroke-width="1"/><rect x="650.6" y="310.68721822517307" width="13.799999999999999" height="1.4202067001937166" fill="#006340"/><line x1="680.5" y1="274.711375943473" x2="680.5" y2="319.05039106428075" stroke="#006340" stroke-width="1"/><rect x="673.6" y="285.3590938558283" width="13.799999999999999" height="25.328124369344778" fill="#006340"/><line x1="703.5" y1="279.1684980964774" x2="703.5" y2="297.7952284789762" stroke="#A02128" stroke-width="1"/><rect x="696.6" y="285.3590938558283" width="13.799999999999999" height="6.841681349450084" fill="#A02128"/><line x1="726.5" y1="246.7135606735032" x2="726.5" y2="307.5518473641728" stroke="#006340" stroke-width="1"/><rect x="719.6" y="258.984075552079" width="13.799999999999999" height="33.216699653199385" fill="#006340"/><line x1="749.5" y1="233.17722412596686" x2="749.5" y2="278.34692986389274" stroke="#006340" stroke-width="1"/><rect x="742.6" y="250.76401109265987" width="13.799999999999999" height="8.22006445941912" fill="#006340"/><line x1="772.5" y1="243.7592382264296" x2="772.5" y2="271.4723294714455" stroke="#A02128" stroke-width="1"/><rect x="765.6" y="250.76401109265987" width="13.799999999999999" height="9.12662274654923" fill="#A02128"/><line x1="795.5" y1="236.08784420883103" x2="795.5" y2="276.3217311493448" stroke="#006340" stroke-width="1"/><rect x="788.6" y="236.40189011681036" width="13.799999999999999" height="23.488743722398738" fill="#006340"/><line x1="818.5" y1="208.38214703271376" x2="818.5" y2="253.6560489934726" stroke="#006340" stroke-width="1"/><rect x="811.6" y="208.899591788299" width="13.799999999999999" height="27.50229832851136" fill="#006340"/><line x1="841.5" y1="160.75699933600032" x2="841.5" y2="226.4772571022507" stroke="#006340" stroke-width="1"/><rect x="834.6" y="179.6958419912247" width="13.799999999999999" height="29.203749797074295" fill="#006340"/><line x1="864.5" y1="170.02449773898792" x2="864.5" y2="195.3210501725361" stroke="#006340" stroke-width="1"/><rect x="857.6" y="177.0903863252758" width="13.799999999999999" height="2.6054556659489094" fill="#006340"/><line x1="887.5" y1="135.99646613192795" x2="887.5" y2="193.45349126705253" stroke="#006340" stroke-width="1"/><rect x="880.6" y="153.93016275166957" width="13.799999999999999" height="23.16022357360623" fill="#006340"/><line x1="910.5" y1="142.9675867222573" x2="910.5" y2="172.1343132034259" stroke="#A02128" stroke-width="1"/><rect x="903.6" y="153.93016275166957" width="13.799999999999999" height="11.015818670153067" fill="#A02128"/><line x1="933.5" y1="160.57851618804517" x2="933.5" y2="187.06521810396686" stroke="#A02128" stroke-width="1"/><rect x="926.6" y="164.94598142182264" width="13.799999999999999" height="11.185652177006489" fill="#A02128"/><line x1="956.5" y1="160.96362640119895" x2="956.5" y2="186.46594952760927" stroke="#A02128" stroke-width="1"/><rect x="949.6" y="176.13163359882913" width="13.799999999999999" height="9.403599358434121" fill="#A02128"/><line x1="979.5" y1="165.6216099700099" x2="979.5" y2="192.33492395249687" stroke="#006340" stroke-width="1"/><rect x="972.6" y="176.2837979901637" width="13.799999999999999" height="9.251434967099556" fill="#006340"/><line x1="1002.5" y1="145.34754598969727" x2="1002.5" y2="195.83342056466944" stroke="#006340" stroke-width="1"/><rect x="995.6" y="160.45953896969576" width="13.799999999999999" height="15.824259020467935" fill="#006340"/><line x1="1025.5" y1="155.60508086758193" x2="1025.5" y2="183.94319510005238" stroke="#A02128" stroke-width="1"/><rect x="1018.6" y="160.45953896969576" width="13.799999999999999" height="11.137078022324431" fill="#A02128"/><line x1="1048.5" y1="143.98214126263514" x2="1048.5" y2="176.71840627039626" stroke="#006340" stroke-width="1"/><rect x="1041.6" y="146.60521433018226" width="13.799999999999999" height="24.991402661837924" fill="#006340"/><line x1="1071.5" y1="91.47704426515418" x2="1071.5" y2="156.0595598009204" stroke="#006340" stroke-width="1"/><rect x="1064.6" y="105.35889036292997" width="13.799999999999999" height="41.246323967252295" fill="#006340"/><line x1="1094.5" y1="68.77754660618689" x2="1094.5" y2="120.13174745673189" stroke="#006340" stroke-width="1"/><rect x="1087.6" y="69.90955428974962" width="13.799999999999999" height="35.44933607318035" fill="#006340"/><line x1="1117.5" y1="34.668618200878996" x2="1117.5" y2="84.11272590408521" stroke="#006340" stroke-width="1"/><rect x="1110.6" y="52.48932789287687" width="13.799999999999999" height="17.42022639687275" fill="#006340"/><line x1="1140.5" y1="24" x2="1140.5" y2="64.78178322247982" stroke="#006340" stroke-width="1"/><rect x="1133.6" y="25.94615751438664" width="13.799999999999999" height="26.54317037849023" fill="#006340"/>
</svg>