<svg xmlns="http://www.w3.org/2000/svg" width="1200" height="700">
  <rect width="100%" height="100%" fill="#0d1117"/>
  <line x1="48" y1="24" x2="1152" y2="24" stroke="#21262d" stroke-width="1"/><line x1="48" y1="181" x2="1152" y2="181" stroke="#21262d" stroke-width="1"/><line x1="48" y1="338" x2="1152" y2="338" stroke="#21262d" stroke-width="1"/><line x1="48" y1="495" x2="1152" y2="495" stroke="#21262d" stroke-width="1"/><line x1="48" y1="652" x2="1152" y2="652" stroke="#21262d" stroke-width="1"/>
  <line x1="59.5" y1="612.6021855327332" x2="59.5" y2="652" stroke="#006340" stroke-width="1"/><rect x="52.6" y="619.0111836427973" width="13.799999999999999" height="19.844193034081513" fill="#006340"/><line x1="82.5" y1="603.3012412103609" x2="82.5" y2="629.3491692903289" stroke="#006340" stroke-width="1"/><rect x="75.6" y="608.776757889101" width="13.799999999999999" height="10.234425753696314" fill="#006340"/><line x1="105.5" y1="587.4219652481954" x2="105.5" y2="620.9262223212799" stroke="#006340" stroke-width="1"/><rect x="98.6" y="600.5071849931878" width="13.799999999999999" height="8.269572895913143" fill="#006340"/><line x1="128.5" y1="568.4549461163338" x2="128.5" y2="606.7528584685425" stroke="#006340" stroke-width="1"/><rect x="121.6" y="570.6369785490901" width="13.799999999999999" height="29.870206444097676" fill="#006340"/><line x1="151.5" y1="558.3010661672675" x2="151.5" y2="584.1179664673108" stroke="#A02128" stroke-width="1"/><rect x="144.6" y="570.6369785490901" width="13.799999999999999" height="9.365223928900832" fill="#A02128"/><line x1="174.5" y1="576.3862002197454" x2="174.5" y2="590.7729791515476" stroke="#A02128" stroke-width="1"/><rect x="167.6" y="580.002202477991" width="13.799999999999999" height="1.8319674256350709" fill="#A02128"/><line x1="197.5" y1="561.8159516048652" x2="197.5" y2="594.9895802982296" stroke="#006340" stroke-width="1"/><rect x="190.6" y="574.2182536905192" width="13.799999999999999" height="7.615916213106857" fill="#006340"/><line x1="220.5" y1="558.5919288929327" x2="220.5" y2="585.6369147853334" stroke="#006340" stroke-width="1"/><rect x="213.6" y="571.8619569969238" width="13.799999999999999" height="2.356296693595368" fill="#006340"/><line x1="243.5" y1="560.0712794741568" x2="243.5" y2="590.3861286137802" stroke="#A02128" stroke-width="1"/><rect x="236.6" y="571.8619569969238" width="13.799999999999999" height="6.05421051076155" fill="#A02128"/><line x1="266.5" y1="561.2906300835893" x2="266.5" y2="583.9230869098684" stroke="#006340" stroke-width="1"/><rect x="259.6" y="562.0562680593607" width="13.799999999999999" height="15.859899448324654" fill="#006340"/><line x1="289.5" y1="553.525868692531" x2="289.5" y2="572.1321417088562" stroke="#006340" stroke-width="1"/><rect x="282.6" y="556.8544827525618" width="13.799999999999999" height="5.201785306798911" fill="#006340"/><line x1="312.5" y1="524.0455541110052" x2="312.5" y2="559.4183313313664" stroke="#006340" stroke-width="1"/><rect x="305.6" y="525.016491123909" width="13.799999999999999" height="31.837991628652844" fill="#006340"/><line x1="335.5" y1="491.0789743492038" x2="335.5" y2="531.2199840800702" stroke="#006340" stroke-width="1"/><rect x="328.6" y="494.4053008650923" width="13.799999999999999" height="30.61119025881669" fill="#006340"/><line x1="358.5" y1="478.2647293643944" x2="358.5" y2="505.9228759916196" stroke="#006340" stroke-width="1"/><rect x="351.6" y="490.0946011817246" width="13.799999999999999" height="4.310699683367659" fill="#006340"/><line x1="381.5" y1="476.00461119552193" x2="381.5" y2="505.2564435484211" stroke="#A02128" stroke-width="1"/><rect x="374.6" y="490.0946011817246" width="13.799999999999999" height="1" fill="#A02128"/><line x1="404.5" y1="483.8204092678618" x2="404.5" y2="502.5704944173252" stroke="#A02128" stroke-width="1"/><rect x="397.6" y="490.86431251888456" width="13.799999999999999" height="6.605379793780855" fill="#A02128"/><line x1="427.5" y1="481.87782479258476" x2="427.5" y2="510.59465151511165" stroke="#006340" stroke-width="1"/><rect x="420.6" y="487.8012274914031" width="13.799999999999999" height="9.668464821262319" fill="#006340"/><line x1="450.5" y1="447.5309500576876" x2="450.5" y2="497.88975437937745" stroke="#006340" stroke-width="1"/><rect x="443.6" y="455.52830555604726" width="13.799999999999999" height="32.27292193535584" fill="#006340"/><line x1="473.5" y1="441.74610689216763" x2="473.5" y2="473.1930390096014" stroke="#A02128" stroke-width="1"/><rect x="466.6" y="455.52830555604726" width="13.799999999999999" height="9.26247668676649" fill="#A02128"/><line x1="496.5" y1="446.75194304847474" x2="496.5" y2="478.5568572001964" stroke="#006340" stroke-width="1"/><rect x="489.6" y="451.6916243178408" width="13.799999999999999" height="13.099157924972928" fill="#006340"/><line x1="519.5" y1="439.3128981613585" x2="519.5" y2="459.53910466553987" stroke="#006340" stroke-width="1"/><rect x="512.6" y="444.7507528658308" width="13.799999999999999" height="6.940871452010015" fill="#006340"/><line x1="542.5" y1="415.52958980381027" x2="542.5" y2="454.49126095522985" stroke="#006340" stroke-width="1"/><rect x="535.6" y="422.718492028165" width="13.799999999999999" height="22.03226083766583" fill="#006340"/><line x1="565.5" y1="412.53518623143157" x2="565.5" y2="424.03964211991115" stroke="#006340" stroke-width="1"/><rect x="558.6" y="415.22011409760904" width="13.799999999999999" height="7.498377930555932" fill="#006340"/><line x1="588.5" y1="378.0527439437737" x2="588.5" y2="425.8800346880977" stroke="#006340" stroke-width="1"/><rect x="581.6" y="382.76647947983344" width="13.799999999999999" height="32.453634617775606" fill="#006340"/><line x1="611.5" y1="373.10053592108864" x2="611.5" y2="402.39185709346555" stroke="#A02128" stroke-width="1"/><rect x="604.6" y="382.76647947983344" width="13.799999999999999" height="10.979365741762251" fill="#A02128"/><line x1="634.5" y1="360.15581670630144" x2="634.5" y2="394.330762580502" stroke="#006340" stroke-width="1"/><rect x="627.6" y="374.9640333228675" width="13.799999999999999" height="18.781811898728165" fill="#006340"/><line x1="657.5" y1="366.29559520783585" x2="657.5" y2="386.33699840996593" stroke="#006340" stroke-width="1"/><rect x="650.6" y="371.8933592361709" width="13.799999999999999" height="3.070674086696613" fill="#006340"/><line x1="680.5" y1="329.0488348816346" x2="680.5" y2="381.0961181273825" stroke="#006340" stroke-width="1"/><rect x="673.6" y="343.01536466191834" width="13.799999999999999" height="28.87799457425257" fill="#006340"/><line x1="703.5" y1="312.776415241618" x2="703.5" y2="355.5340547151312" stroke="#006340" stroke-width="1"/><rect x="696.6" y="313.52609711932996" width="13.799999999999999" height="29.48926754258838" fill="#006340"/><line x1="726.5" y1="283.8233640275463" x2="726.5" y2="315.8749451899646" stroke="#006340" stroke-width="1"/><rect x="719.6" y="295.14257173385647" width="13.799999999999999" height="18.38352538547349" fill="#006340"/><line x1="749.5" y1="273.8649941515236" x2="749.5" y2="299.88828813294936" stroke="#006340" stroke-width="1"/><rect x="742.6" y="276.68192519678934" width="13.799999999999999" height="18.460646537067134" fill="#006340"/><line x1="772.5" y1="264.9911872300061" x2="772.5" y2="284.8906715909165" stroke="#A02128" stroke-width="1"/><rect x="765.6" y="276.68192519678934" width="13.799999999999999" height="1.6057985880824504" fill="#A02128"/><line x1="795.5" y1="269.3755303181263" x2="795.5" y2="285.30685949032653" stroke="#006340" stroke-width="1"/><rect x="788.6" y="270.2465966436376" width="13.799999999999999" height="8.041127141234199" fill="#006340"/><line x1="818.5" y1="240.44130722114556" x2="818.5" y2="277.67276238799207" stroke="#006340" stroke-width="1"/><rect x="811.6" y="243.7816342152854" width="13.799999999999999" height="26.46496242835218" fill="#006340"/><line x1="841.5" y1="214.3486134660373" x2="841.5" y2="250.1135666432512" stroke="#006340" stroke-width="1"/><rect x="834.6" y="216.87520098307687" width="13.799999999999999" height="26.906433232208542" fill="#006340"/><line x1="864.5" y1="181.51356020106732" x2="864.5" y2="220.25341724319156" stroke="#006340" stroke-width="1"/><rect x="857.6" y="188.2264609059324" width="13.799999999999999" height="28.648740077144453" fill="#006340"/><line x1="887.5" y1="169.31763769929137" x2="887.5" y2="193.55078622058392" stroke="#006340" stroke-width="1"/><rect x="880.6" y="180.6273143169297" width="13.799999999999999" height="7.599146589002714" fill="#006340"/><line x1="910.5" y1="177.86789230584378" x2="910.5" y2="201.06813529652703" stroke="#A02128" stroke-width="1"/><rect x="903.6" y="180.6273143169297" width="13.799999999999999" height="8.388741903701032" fill="#A02128"/><line x1="933.5" y1="177.39245078238372" x2="933.5" y2="195.07232450541085" stroke="#006340" stroke-width="1"/><rect x="926.6" y="187.9049536022382" width="13.799999999999999" height="1.111102618392522" fill="#006340"/><line x1="956.5" y1="151.30613564434873" x2="956.5" y2="189.7022432343806" stroke="#006340" stroke-width="1"/><rect x="949.6" y="158.5676088985731" width="13.799999999999999" height="29.33734470366511" fill="#006340"/><line x1="979.5" y1="120.31106160155525" x2="979.5" y2="166.4479053666762" stroke="#006340" stroke-width="1"/><rect x="972.6" y="132.02169131559094" width="13.799999999999999" height="26.545917582982156" fill="#006340"/><line x1="1002.5" y1="102.81491350972817" x2="1002.5" y2="145.96062734293923" stroke="#006340" stroke-width="1"/><rect x="995.6" y="110.65986950823992" width="13.799999999999999" height="21.36182180735102" fill="#006340"/><line x1="1025.5" y1="66.32589634645797" x2="1025.5" y2="111.72312999988901" stroke="#006340" stroke-width="1"/><rect x="1018.6" y="82.31013901305414" width="13.799999999999999" height="28.34973049518578" fill="#006340"/><line x1="1048.5" y1="38.65864532457692" x2="1048.5" y2="91.38512913405555" stroke="#006340" stroke-width="1"/><rect x="1041.6" y="46.96975493455" width="13.799999999999999" height="35.340384078504144" fill="#006340"/><line x1="1071.5" y1="38.991017489727255" x2="1071.5" y2="54.20958490688781" stroke="#006340" stroke-width="1"/><rect x="1064.6" y="43.994441179760656" width="13.799999999999999" height="2.9753137547893402" fill="#006340"/><line x1="1094.5" y1="42.43110114134856" x2="1094.5" y2="55.77820189470344" stroke="#006340" stroke-width="1"/><rect x="1087.6" y="42.639093645571734" width="13.799999999999999" height="1.3553475341889225" fill="#006340"/><line x1="1117.5" y1="32.248872182775926" x2="1117.5" y2="52.97379240077805" stroke="#006340" stroke-width="1"/><rect x="1110.6" y="37.447166071178685" width="13.799999999999999" height="5.191927574393048" fill="#006340"/><line x1="1140.5" y1="24" x2="1140.5" y2="39.25280435637001" stroke="#006340" stroke-width="1"/><rect x="1133.6" y="24.499715839507417" width="13.799999999999999" height="12.947450231671269" fill="#006340"/>
</svg>