<svg xmlns="http://www.w3.org/2000/svg" width="1200" height="700">
  <rect width="100%" height="100%" fill="#0d1117"/>
  <line x1="48" y1="24" x2="1152" y2="24" stroke="#21262d" stroke-width="1"/><line x1="48" y1="181" x2="1152" y2="181" stroke="#21262d" stroke-width="1"/><line x1="48" y1="338" x2="1152" y2="338" stroke="#21262d" stroke-width="1"/><line x1="48" y1="495" x2="1152" y2="495" stroke="#21262d" stroke-width="1"/><line x1="48" y1="652" x2="1152" y2="652" stroke="#21262d" stroke-width="1"/>
  <line x1="59.5" y1="612.197568470331" x2="59.5" y2="652" stroke="#006340" stroke-width="1"/><rect x="52.6" y="623.9837005298951" width="13.799999999999999" height="25.2527124413798" fill="#006340"/><line x1="82.5" y1="580.5660527549239" x2="82.5" y2="624.7944609990803" stroke="#006340" stroke-width="1"/><rect x="75.6" y="596.0368790971022" width="13.799999999999999" height="27.946821432792945" fill="#006340"/><line x1="105.5" y1="582.4022895477436" x2="105.5" y2="616.482093937546" stroke="#A02128" stroke-width="1"/><rect x="98.6" y="596.0368790971022" width="13.799999999999999" height="4.660000829045089" fill="#A02128"/><line x1="128.5" y1="592.5180339236827" x2="128.5" y2="614.8707380004128" stroke="#A02128" stroke-width="1"/><rect x="121.6" y="600.6968799261473" width="13.799999999999999" height="8.110908678682563" fill="#A02128"/><line x1="151.5" y1="570.5304655293462" x2="151.5" y2="613.0284530491169" stroke="#006340" stroke-width="1"/><rect x="144.6" y="577.4704626848705" width="13.799999999999999" height="31.337325919959312" fill="#006340"/><line x1="174.5" y1="572.7245395295088" x2="174.5" y2="585.3485827102356" stroke="#A02128" stroke-width="1"/><rect x="167.6" y="577.4704626848705" width="13.799999999999999" height="2.9366604166715433" fill="#A02128"/><line x1="197.5" y1="577.0635773510538" x2="197.5" y2="584.4988908821498" stroke="#A02128" stroke-width="1"/><rect x="190.6" y="580.4071231015421" width="13.799999999999999" height="3.615455093176138" fill="#A02128"/><line x1="220.5" y1="563.3161312088146" x2="220.5" y2="598.787266838911" stroke="#006340" stroke-width="1"/><rect x="213.6" y="578.0615070330643" width="13.799999999999999" height="5.9610711616538765" fill="#006340"/><line x1="243.5" y1="534.0638596555557" x2="243.5" y2="584.1206199493415" stroke="#006340" stroke-width="1"/><rect x="236.6" y="541.1177856839373" width="13.799999999999999" height="36.94372134912703" fill="#006340"/><line x1="266.5" y1="489.37739498499855" x2="266.5" y2="544.7089090412868" stroke="#006340" stroke-width="1"/><rect x="259.6" y="506.0750442518523" width="13.799999999999999" height="35.042741432084995" fill="#006340"/><line x1="289.5" y1="484.78940835940875" x2="289.5" y2="513.424047127674" stroke="#006340" stroke-width="1"/><rect x="282.6" y="500.22105316952707" width="13.799999999999999" height="5.853991082325251" fill="#006340"/><line x1="312.5" y1="466.08782027709447" x2="312.5" y2="516.7362010213883" stroke="#006340" stroke-width="1"/><rect x="305.6" y="472.41446477681484" width="13.799999999999999" height="27.80658839271223" fill="#006340"/><line x1="335.5" y1="460.8585209176129" x2="335.5" y2="488.50309175538405" stroke="#006340" stroke-width="1"/><rect x="328.6" y="469.8339681372962" width="13.799999999999999" height="2.5804966395186284" fill="#006340"/><line x1="358.5" y1="460.84137838196625" x2="358.5" y2="475.97052462027136" stroke="#006340" stroke-width="1"/><rect x="351.6" y="464.38349967143824" width="13.799999999999999" height="5.450468465857966" fill="#006340"/><line x1="381.5" y1="446.61744292315785" x2="381.5" y2="477.2004443283029" stroke="#006340" stroke-width="1"/><rect x="374.6" y="447.20443631098453" width="13.799999999999999" height="17.17906336045371" fill="#006340"/><line x1="404.5" y1="437.0917577134564" x2="404.5" y2="460.7782187803622" stroke="#A02128" stroke-width="1"/><rect x="397.6" y="447.20443631098453" width="13.799999999999999" height="4.935600399827251" fill="#A02128"/><line x1="427.5" y1="439.6175721527226" x2="427.5" y2="456.04792514776517" stroke="#006340" stroke-width="1"/><rect x="420.6" y="443.6361120705217" width="13.799999999999999" height="8.503924640290109" fill="#006340"/><line x1="450.5" y1="425.3960408200976" x2="450.5" y2="460.1664823182275" stroke="#006340" stroke-width="1"/><rect x="443.6" y="429.920720642395" width="13.799999999999999" height="13.71539142812668" fill="#006340"/><line x1="473.5" y1="412.7109871341056" x2="473.5" y2="445.96428064265774" stroke="#006340" stroke-width="1"/><rect x="466.6" y="428.0383285202129" width="13.799999999999999" height="1.8823921221821251" fill="#006340"/><line x1="496.5" y1="422.864566302269" x2="496.5" y2="448.2287604070535" stroke="#A02128" stroke-width="1"/><rect x="489.6" y="428.0383285202129" width="13.799999999999999" height="11.595117257602624" fill="#A02128"/><line x1="519.5" y1="408.94908561945203" x2="519.5" y2="447.63034690354425" stroke="#006340" stroke-width="1"/><rect x="512.6" y="417.73638073969954" width="13.799999999999999" height="21.897065038115954" fill="#006340"/><line x1="542.5" y1="401.6748850626675" x2="542.5" y2="420.68014362168435" stroke="#006340" stroke-width="1"/><rect x="535.6" y="403.24486916654087" width="13.799999999999999" height="14.491511573158675" fill="#006340"/><line x1="565.5" y1="385.9862843666716" x2="565.5" y2="416.05345606439664" stroke="#006340" stroke-width="1"/><rect x="558.6" y="392.5079920678145" width="13.799999999999999" height="10.736877098726382" fill="#006340"/><line x1="588.5" y1="373.05077873728567" x2="588.5" y2="408.3773611237899" stroke="#006340" stroke-width="1"/><rect x="581.6" y="377.6378234835533" width="13.799999999999999" height="14.870168584261194" fill="#006340"/><line x1="611.5" y1="324.1220193863435" x2="611.5" y2="378.2310601802425" stroke="#006340" stroke-width="1"/><rect x="604.6" y="339.61316689364065" width="13.799999999999999" height="38.02465658991264" fill="#006340"/><line x1="634.5" y1="308.81469039023267" x2="634.5" y2="345.55044141746754" stroke="#006340" stroke-width="1"/><rect x="627.6" y="319.25772724997734" width="13.799999999999999" height="20.355439643663317" fill="#006340"/><line x1="657.5" y1="317.6679192294929" x2="657.5" y2="337.8789984699158" stroke="#A02128" stroke-width="1"/><rect x="650.6" y="319.25772724997734" width="13.799999999999999" height="5.5159320365912095" fill="#A02128"/><line x1="680.5" y1="316.3070867482024" x2="680.5" y2="337.90812232139194" stroke="#A02128" stroke-width="1"/><rect x="673.6" y="324.77365928656855" width="13.799999999999999" height="9.01701196355242" fill="#A02128"/><line x1="703.5" y1="332.6054948545389" x2="703.5" y2="334.05048337147" stroke="#006340" stroke-width="1"/><rect x="696.6" y="333.0039323859248" width="13.799999999999999" height="1" fill="#006340"/><line x1="726.5" y1="330.4455537356607" x2="726.5" y2="360.03513506968125" stroke="#A02128" stroke-width="1"/><rect x="719.6" y="333.0039323859248" width="13.799999999999999" height="12.781433412337435" fill="#A02128"/><line x1="749.5" y1="314.5854753002506" x2="749.5" y2="356.848552075757" stroke="#006340" stroke-width="1"/><rect x="742.6" y="330.5557490058452" width="13.799999999999999" height="15.229616792417062" fill="#006340"/><line x1="772.5" y1="291.2298130909617" x2="772.5" y2="337.941969932774" stroke="#006340" stroke-width="1"/><rect x="765.6" y="293.62516786112946" width="13.799999999999999" height="36.930581144715745" fill="#006340"/><line x1="795.5" y1="285.9155840851004" x2="795.5" y2="307.9572661693831" stroke="#A02128" stroke-width="1"/><rect x="788.6" y="293.62516786112946" width="13.799999999999999" height="5.355990931485223" fill="#A02128"/><line x1="818.5" y1="261.8986175780398" x2="818.5" y2="305.3293810809301" stroke="#006340" stroke-width="1"/><rect x="811.6" y="268.7690039874102" width="13.799999999999999" height="30.212154805204477" fill="#006340"/><line x1="841.5" y1="241.53175726307666" x2="841.5" y2="269.3451550439786" stroke="#006340" stroke-width="1"/><rect x="834.6" y="255.2990672871905" width="13.799999999999999" height="13.469936700219705" fill="#006340"/><line x1="864.5" y1="230.4750057316778" x2="864.5" y2="258.6286666665439" stroke="#006340" stroke-width="1"/><rect x="857.6" y="233.90010950201628" width="13.799999999999999" height="21.39895778517422" fill="#006340"/><line x1="887.5" y1="232.2986552185024" x2="887.5" y2="246.73038650390652" stroke="#006340" stroke-width="1"/><rect x="880.6" y="232.34212523952834" width="13.799999999999999" height="1.5579842624879348" fill="#006340"/><line x1="910.5" y1="217.62517105212163" x2="910.5" y2="247.76574585835397" stroke="#006340" stroke-width="1"/><rect x="903.6" y="225.35851465512565" width="13.799999999999999" height="6.983610584402697" fill="#006340"/><line x1="933.5" y1="175.97443134930802" x2="933.5" y2="233.8775942310591" stroke="#006340" stroke-width="1"/><rect x="926.6" y="187.50858531417174" width="13.799999999999999" height="37.849929340953906" fill="#006340"/><line x1="956.5" y1="170.4993594385216" x2="956.5" y2="199.40995187162054" stroke="#A02128" stroke-width="1"/><rect x="949.6" y="187.50858531417174" width="13.799999999999999" height="11.763028052529705" fill="#A02128"/><line x1="979.5" y1="163.7795078247687" x2="979.5" y2="216.42400503482838" stroke="#006340" stroke-width="1"/><rect x="972.6" y="176.95456317576566" width="13.799999999999999" height="22.317050190935788" fill="#006340"/><line x1="1002.5" y1="137.86599786450154" x2="1002.5" y2="193.1701357377279" stroke="#006340" stroke-width="1"/><rect x="995.6" y="152.8529388562348" width="13.799999999999999" height="24.101624319530856" fill="#006340"/><line x1="1025.5" y1="126.49929880499633" x2="1025.5" y2="154.55433379444145" stroke="#006340" stroke-width="1"/><rect x="1018.6" y="128.86864257239085" width="13.799999999999999" height="23.984296283843946" fill="#006340"/><line x1="1048.5" y1="113.49694017223749" x2="1048.5" y2="140.9610624359384" stroke="#006340" stroke-width="1"/><rect x="1041.6" y="119.71283964917325" width="13.799999999999999" height="9.155802923217607" fill="#006340"/><line x1="1071.5" y1="90.27930125005764" x2="1071.5" y2="133.95736825060555" stroke="#006340" stroke-width="1"/><rect x="1064.6" y="103.56962113341797" width="13.799999999999999" height="16.14321851575528" fill="#006340"/><line x1="1094.5" y1="76.87811418329204" x2="1094.5" y2="108.94649862200902" stroke="#006340" stroke-width="1"/><rect x="1087.6" y="79.0532401713715" width="13.799999999999999" height="24.51638096204647" fill="#006340"/><line x1="1117.5" y1="45.73381276393161" x2="1117.5" y2="81.32181598007958" stroke="#006340" stroke-width="1"/><rect x="1110.6" y="53.26836748548203" width="13.799999999999999" height="25.784872685889468" fill="#006340"/><line x1="1140.5" y1="24" x2="1140.5" y2="69.05465441402669" stroke="#006340" stroke-width="1"/><rect x="1133.6" y="24.30420955732768" width="13.799999999999999" height="28.96415792815435" fill="#006340"/>
</svg>