<svg xmlns="http://www.w3.org/2000/svg" width="1200" height="700">
  <rect width="100%" height="100%" fill="#0d1117"/>
  <line x1="48" y1="24" x2="1152" y2="24" stroke="#21262d" stroke-width="1"/><line x1="48" y1="181" x2="1152" y2="181" stroke="#21262d" stroke-width="1"/><line x1="48" y1="338" x2="1152" y2="338" stroke="#21262d" stroke-width="1"/><line x1="48" y1="495" x2="1152" y2="495" stroke="#21262d" stroke-width="1"/><line x1="48" y1="652" x2="1152" y2="652" stroke="#21262d" stroke-width="1"/>
  <line x1="59.5" y1="586.4665661051258" x2="59.5" y2="615.8659123447758" stroke="#A02128" stroke-width="1"/><rect x="52.6" y="595.6296926446871" width="13.799999999999999" height="12.127129883734824" fill="#A02128"/><line x1="82.5" y1="602.9411028959154" x2="82.5" y2="630.6918220102428" stroke="#A02128" stroke-width="1"/><rect x="75.6" y="607.7568225284219" width="13.799999999999999" height="9.84743045795085" fill="#A02128"/><line x1="105.5" y1="603.1839518967207" x2="105.5" y2="645.5553863199328" stroke="#A02128" stroke-width="1"/><rect x="98.6" y="617.6042529863728" width="13.799999999999999" height="15.48078684290931" fill="#A02128"/><line x1="128.5" y1="622.7525746679955" x2="128.5" y2="645.9176044268464" stroke="#A02128" stroke-width="1"/><rect x="121.6" y="633.0850398292821" width="13.799999999999999" height="8.836749730423662" fill="#A02128"/><line x1="151.5" y1="628.3989746047126" x2="151.5" y2="651.7145325161733" stroke="#006340" stroke-width="1"/><rect x="144.6" y="629.2191023502862" width="13.799999999999999" height="12.702687209419537" fill="#006340"/><line x1="174.5" y1="617.2367519517353" x2="174.5" y2="652" stroke="#A02128" stroke-width="1"/><rect x="167.6" y="629.2191023502862" width="13.799999999999999" height="15.99739274910155" fill="#A02128"/><line x1="197.5" y1="611.7093497213345" x2="197.5" y2="651.5005561519891" stroke="#006340" stroke-width="1"/><rect x="190.6" y="625.2620768504714" width="13.799999999999999" height="19.95441824891634" fill="#006340"/><line x1="220.5" y1="620.4664029434964" x2="220.5" y2="644.7281819082813" stroke="#A02128" stroke-width="1"/><rect x="213.6" y="625.2620768504714" width="13.799999999999999" height="5.304900897362927" fill="#A02128"/><line x1="243.5" y1="615.8798320675054" x2="243.5" y2="638.3273483709359" stroke="#006340" stroke-width="1"/><rect x="236.6" y="625.5692320757869" width="13.799999999999999" height="4.997745672047472" fill="#006340"/><line x1="266.5" y1="600.3155211358659" x2="266.5" y2="630.0049209574622" stroke="#006340" stroke-width="1"/><rect x="259.6" y="614.528794642643" width="13.799999999999999" height="11.040437433143893" fill="#006340"/><line x1="289.5" y1="583.0423634550602" x2="289.5" y2="623.7008941014908" stroke="#006340" stroke-width="1"/><rect x="282.6" y="593.894838297245" width="13.799999999999999" height="20.63395634539802" fill="#006340"/><line x1="312.5" y1="562.7760979593407" x2="312.5" y2="595.594447159089" stroke="#006340" stroke-width="1"/><rect x="305.6" y="573.5039818426753" width="13.799999999999999" height="20.390856454569644" fill="#006340"/><line x1="335.5" y1="571.8762171984563" x2="335.5" y2="585.9162915764629" stroke="#A02128" stroke-width="1"/><rect x="328.6" y="573.5039818426753" width="13.799999999999999" height="7.5159980539384605" fill="#A02128"/><line x1="358.5" y1="562.8721669054964" x2="358.5" y2="585.1435027586149" stroke="#006340" stroke-width="1"/><rect x="351.6" y="571.0035979189478" width="13.799999999999999" height="10.016381977666015" fill="#006340"/><line x1="381.5" y1="565.9920554696814" x2="381.5" y2="594.540385426135" stroke="#A02128" stroke-width="1"/><rect x="374.6" y="571.0035979189478" width="13.799999999999999" height="10.355161039811946" fill="#A02128"/><line x1="404.5" y1="566.6985727071825" x2="404.5" y2="595.0753215934111" stroke="#006340" stroke-width="1"/><rect x="397.6" y="574.3839294811014" width="13.799999999999999" height="6.974829477658318" fill="#006340"/><line x1="427.5" y1="563.8791562761443" x2="427.5" y2="576.6285394693056" stroke="#006340" stroke-width="1"/><rect x="420.6" y="568.7456633366803" width="13.799999999999999" height="5.638266144421095" fill="#006340"/><line x1="450.5" y1="556.0646065440452" x2="450.5" y2="583.3211702869083" stroke="#A02128" stroke-width="1"/><rect x="443.6" y="568.7456633366803" width="13.799999999999999" height="11.997884891373246" fill="#A02128"/><line x1="473.5" y1="579.5285799373127" x2="473.5" y2="606.3357078036397" stroke="#A02128" stroke-width="1"/><rect x="466.6" y="580.7435482280536" width="13.799999999999999" height="14.36146180257117" fill="#A02128"/><line x1="496.5" y1="582.704141601864" x2="496.5" y2="600.4067512673988" stroke="#006340" stroke-width="1"/><rect x="489.6" y="587.5532035317922" width="13.799999999999999" height="7.551806498832548" fill="#006340"/><line x1="519.5" y1="576.5766620522379" x2="519.5" y2="597.1747954416552" stroke="#006340" stroke-width="1"/><rect x="512.6" y="579.2888305901604" width="13.799999999999999" height="8.264372941631791" fill="#006340"/><line x1="542.5" y1="570.4702831930499" x2="542.5" y2="608.6578656075376" stroke="#A02128" stroke-width="1"/><rect x="535.6" y="579.2888305901604" width="13.799999999999999" height="17.125223979242037" fill="#A02128"/><line x1="565.5" y1="576.5694712858677" x2="565.5" y2="602.0154943459796" stroke="#006340" stroke-width="1"/><rect x="558.6" y="579.2842793871553" width="13.799999999999999" height="17.12977518224716" fill="#006340"/><line x1="588.5" y1="578.8625571473348" x2="588.5" y2="610.955146881754" stroke="#A02128" stroke-width="1"/><rect x="581.6" y="579.2842793871553" width="13.799999999999999" height="17.083623130649812" fill="#A02128"/><line x1="611.5" y1="579.6153824452607" x2="611.5" y2="608.0431332650736" stroke="#006340" stroke-width="1"/><rect x="604.6" y="590.8766651588435" width="13.799999999999999" height="5.491237358961598" fill="#006340"/><line x1="634.5" y1="574.7190656467459" x2="634.5" y2="600.277363318295" stroke="#006340" stroke-width="1"/><rect x="627.6" y="579.9555631308604" width="13.799999999999999" height="10.921102027983125" fill="#006340"/><line x1="657.5" y1="561.2782953930173" x2="657.5" y2="586.5228438334857" stroke="#006340" stroke-width="1"/><rect x="650.6" y="565.9549851357698" width="13.799999999999999" height="14.000577995090566" fill="#006340"/><line x1="680.5" y1="543.0636848849769" x2="680.5" y2="579.6675491833672" stroke="#006340" stroke-width="1"/><rect x="673.6" y="549.2300177378492" width="13.799999999999999" height="16.724967397920636" fill="#006340"/><line x1="703.5" y1="540.987434846701" x2="703.5" y2="576.2310544415266" stroke="#A02128" stroke-width="1"/><rect x="696.6" y="549.2300177378492" width="13.799999999999999" height="16.974688789241213" fill="#A02128"/><line x1="726.5" y1="557.6280722516383" x2="726.5" y2="577.9570385845926" stroke="#006340" stroke-width="1"/><rect x="719.6" y="558.1444834705816" width="13.799999999999999" height="8.06022305650879" fill="#006340"/><line x1="749.5" y1="532.2836298147721" x2="749.5" y2="561.3455538426871" stroke="#006340" stroke-width="1"/><rect x="742.6" y="543.3352361668622" width="13.799999999999999" height="14.809247303719417" fill="#006340"/><line x1="772.5" y1="539.5154074134938" x2="772.5" y2="557.9048728096968" stroke="#A02128" stroke-width="1"/><rect x="765.6" y="543.3352361668622" width="13.799999999999999" height="8.181276767257373" fill="#A02128"/><line x1="795.5" y1="520.9441373953612" x2="795.5" y2="560.1281886113511" stroke="#006340" stroke-width="1"/><rect x="788.6" y="533.7099635535718" width="13.799999999999999" height="17.80654938054772" fill="#006340"/><line x1="818.5" y1="511.42335610717737" x2="818.5" y2="540.0483363507938" stroke="#006340" stroke-width="1"/><rect x="811.6" y="523.6681275772798" width="13.799999999999999" height="10.041835976291964" fill="#006340"/><line x1="841.5" y1="498.36533365151865" x2="841.5" y2="526.1052925572479" stroke="#006340" stroke-width="1"/><rect x="834.6" y="505.5485763655705" width="13.799999999999999" height="18.119551211709336" fill="#006340"/><line x1="864.5" y1="440.4517699036362" x2="864.5" y2="514.0533818334579" stroke="#006340" stroke-width="1"/><rect x="857.6" y="454.0564528308731" width="13.799999999999999" height="51.492123534697384" fill="#006340"/><line x1="887.5" y1="432.6163497944122" x2="887.5" y2="465.6399738881325" stroke="#006340" stroke-width="1"/><rect x="880.6" y="444.8452322146993" width="13.799999999999999" height="9.211220616173819" fill="#006340"/><line x1="910.5" y1="380.0985555960984" x2="910.5" y2="447.2240213205982" stroke="#006340" stroke-width="1"/><rect x="903.6" y="391.946731025971" width="13.799999999999999" height="52.89850118872829" fill="#006340"/><line x1="933.5" y1="344.4646023995321" x2="933.5" y2="397.02866133211074" stroke="#006340" stroke-width="1"/><rect x="926.6" y="351.5967946040007" width="13.799999999999999" height="40.34993642197031" fill="#006340"/><line x1="956.5" y1="322.5976661598885" x2="956.5" y2="362.0355947123333" stroke="#006340" stroke-width="1"/><rect x="949.6" y="329.53213982984835" width="13.799999999999999" height="22.06465477415236" fill="#006340"/><line x1="979.5" y1="299.90020598703273" x2="979.5" y2="334.81716111960617" stroke="#006340" stroke-width="1"/><rect x="972.6" y="303.2918481699769" width="13.799999999999999" height="26.240291659871446" fill="#006340"/><line x1="1002.5" y1="240.67305459485766" x2="1002.5" y2="318.13113043825075" stroke="#006340" stroke-width="1"/><rect x="995.6" y="251.57766110056497" width="13.799999999999999" height="51.714187069411935" fill="#006340"/><line x1="1025.5" y1="218.31140643793714" x2="1025.5" y2="259.407968725214" stroke="#006340" stroke-width="1"/><rect x="1018.6" y="223.19834243649956" width="13.799999999999999" height="28.37931866406541" fill="#006340"/><line x1="1048.5" y1="181.82156550036058" x2="1048.5" y2="236.0736438088656" stroke="#006340" stroke-width="1"/><rect x="1041.6" y="192.44237592856473" width="13.799999999999999" height="30.75596650793483" fill="#006340"/><line x1="1071.5" y1="152.35245754297512" x2="1071.5" y2="204.68877373204674" stroke="#006340" stroke-width="1"/><rect x="1064.6" y="158.53290989625032" width="13.799999999999999" height="33.90946603231441" fill="#006340"/><line x1="1094.5" y1="122.6932296100556" x2="1094.5" y2="166.30222134002156" stroke="#006340" stroke-width="1"/><rect x="1087.6" y="124.77376782445253" width="13.799999999999999" height="33.75914207179778" fill="#006340"/><line x1="1117.5" y1="76.43879539657871" x2="1117.5" y2="125.38837919563014" stroke="#006340" stroke-width="1"/><rect x="1110.6" y="85.88444543675325" width="13.799999999999999" height="38.88932238769928" fill="#006340"/><line x1="1140.5" y1="24" x2="1140.5" y2="96.50829949222054" stroke="#006340" stroke-width="1"/><rect x="1133.6" y="34.21827514752056" width="13.799999999999999" height="51.666170289232696" fill="#006340"/>
</svg>