<svg xmlns="http://www.w3.org/2000/svg" width="1200" height="700">
  <rect width="100%" height="100%" fill="#0d1117"/>
  <line x1="48" y1="24" x2="1152" y2="24" stroke="#21262d" stroke-width="1"/><line x1="48" y1="181" x2="1152" y2="181" stroke="#21262d" stroke-width="1"/><line x1="48" y1="338" x2="1152" y2="338" stroke="#21262d" stroke-width="1"/><line x1="48" y1="495" x2="1152" y2="495" stroke="#21262d" stroke-width="1"/><line x1="48" y1="652" x2="1152" y2="652" stroke="#21262d" stroke-width="1"/>
  <line x1="59.5" y1="610.9815925664982" x2="59.5" y2="652" stroke="#006340" stroke-width="1"/><rect x="52.6" y="619.1235547563734" width="13.799999999999999" height="28.011427159081677" fill="#006340"/><line x1="82.5" y1="587.5137300523113" x2="82.5" y2="620.808355958042" stroke="#006340" stroke-width="1"/><rect x="75.6" y="595.9316673840489" width="13.799999999999999" height="23.191887372324572" fill="#006340"/><line x1="105.5" y1="568.7245710893608" x2="105.5" y2="607.5654216016171" stroke="#006340" stroke-width="1"/><rect x="98.6" y="583.0240155923755" width="13.799999999999999" height="12.907651791673402" fill="#006340"/><line x1="128.5" y1="549.9181343557719" x2="128.5" y2="589.0767455339521" stroke="#006340" stroke-width="1"/><rect x="121.6" y="560.6310008713826" width="13.799999999999999" height="22.393014720992824" fill="#006340"/><line x1="151.5" y1="520.0228289172528" x2="151.5" y2="569.6246311633598" stroke="#006340" stroke-width="1"/><rect x="144.6" y="523.8268141364816" width="13.799999999999999" height="36.80418673490101" fill="#006340"/><line x1="174.5" y1="506.8212920188961" x2="174.5" y2="527.6695836109773" stroke="#006340" stroke-width="1"/><rect x="167.6" y="519.4313744428977" width="13.799999999999999" height="4.395439693583967" fill="#006340"/><line x1="197.5" y1="508.8968347511964" x2="197.5" y2="535.8519753451019" stroke="#A02128" stroke-width="1"/><rect x="190.6" y="519.4313744428977" width="13.799999999999999" height="2.3887509095645783" fill="#A02128"/><line x1="220.5" y1="493.4835041328088" x2="220.5" y2="536.8014531369897" stroke="#006340" stroke-width="1"/><rect x="213.6" y="494.0393911466344" width="13.799999999999999" height="27.780734205827855" fill="#006340"/><line x1="243.5" y1="481.0736381857495" x2="243.5" y2="507.8088456726841" stroke="#006340" stroke-width="1"/><rect x="236.6" y="485.8975461124487" width="13.799999999999999" height="8.141845034185678" fill="#006340"/><line x1="266.5" y1="483.8523157565793" x2="266.5" y2="506.06373425047434" stroke="#A02128" stroke-width="1"/><rect x="259.6" y="485.8975461124487" width="13.799999999999999" height="8.125157834563538" fill="#A02128"/><line x1="289.5" y1="492.3567605095192" x2="289.5" y2="505.4937138355334" stroke="#A02128" stroke-width="1"/><rect x="282.6" y="494.02270394701225" width="13.799999999999999" height="9.464725054050177" fill="#A02128"/><line x1="312.5" y1="480.230069198483" x2="312.5" y2="507.62775008232506" stroke="#006340" stroke-width="1"/><rect x="305.6" y="495.25948888664266" width="13.799999999999999" height="8.227940114419766" fill="#006340"/><line x1="335.5" y1="468.4330702479216" x2="335.5" y2="505.72594827622305" stroke="#006340" stroke-width="1"/><rect x="328.6" y="473.7489718053984" width="13.799999999999999" height="21.510517081244245" fill="#006340"/><line x1="358.5" y1="442.08661963551674" x2="358.5" y2="488.14468143608565" stroke="#006340" stroke-width="1"/><rect x="351.6" y="451.07745187032833" width="13.799999999999999" height="22.67151993507008" fill="#006340"/><line x1="381.5" y1="441.07173958278395" x2="381.5" y2="460.01583217827124" stroke="#A02128" stroke-width="1"/><rect x="374.6" y="451.07745187032833" width="13.799999999999999" height="1" fill="#A02128"/><line x1="404.5" y1="437.46833871538354" x2="404.5" y2="463.52160754016086" stroke="#A02128" stroke-width="1"/><rect x="397.6" y="451.2056709079086" width="13.799999999999999" height="8.878509613038545" fill="#A02128"/><line x1="427.5" y1="438.6834435708579" x2="427.5" y2="468.5842455696599" stroke="#006340" stroke-width="1"/><rect x="420.6" y="442.4428094256129" width="13.799999999999999" height="17.64137109533425" fill="#006340"/><line x1="450.5" y1="388.4305116269235" x2="450.5" y2="450.53472443221017" stroke="#006340" stroke-width="1"/><rect x="443.6" y="403.39269081045774" width="13.799999999999999" height="39.05011861515516" fill="#006340"/><line x1="473.5" y1="360.82686137377556" x2="473.5" y2="408.61906580753106" stroke="#006340" stroke-width="1"/><rect x="466.6" y="373.5848152160157" width="13.799999999999999" height="29.80787559444201" fill="#006340"/><line x1="496.5" y1="360.82328929614016" x2="496.5" y2="374.95703689455365" stroke="#006340" stroke-width="1"/><rect x="489.6" y="368.1848041493943" width="13.799999999999999" height="5.400011066621403" fill="#006340"/><line x1="519.5" y1="362.9839349021707" x2="519.5" y2="371.83074828079924" stroke="#006340" stroke-width="1"/><rect x="512.6" y="363.95516668239037" width="13.799999999999999" height="4.229637467003954" fill="#006340"/><line x1="542.5" y1="336.359447882686" x2="542.5" y2="374.1449540435189" stroke="#006340" stroke-width="1"/><rect x="535.6" y="351.13308645208787" width="13.799999999999999" height="12.822080230302504" fill="#006340"/><line x1="565.5" y1="337.8852140587397" x2="565.5" y2="364.8694566200167" stroke="#A02128" stroke-width="1"/><rect x="558.6" y="351.13308645208787" width="13.799999999999999" height="6.112807185269332" fill="#A02128"/><line x1="588.5" y1="354.78393414144114" x2="588.5" y2="365.2428362890782" stroke="#A02128" stroke-width="1"/><rect x="581.6" y="357.2458936373572" width="13.799999999999999" height="1" fill="#A02128"/><line x1="611.5" y1="314.22008847180706" x2="611.5" y2="368.3324258076433" stroke="#006340" stroke-width="1"/><rect x="604.6" y="331.8908458274322" width="13.799999999999999" height="25.911220952109943" fill="#006340"/><line x1="634.5" y1="279.67594005525444" x2="634.5" y2="341.2445308622947" stroke="#006340" stroke-width="1"/><rect x="627.6" y="294.5734910544118" width="13.799999999999999" height="37.317354773020384" fill="#006340"/><line x1="657.5" y1="262.42072739681134" x2="657.5" y2="299.7473594039976" stroke="#006340" stroke-width="1"/><rect x="650.6" y="278.385534326335" width="13.799999999999999" height="16.187956728076813" fill="#006340"/><line x1="680.5" y1="258.4476572052151" x2="680.5" y2="288.35797716935036" stroke="#006340" stroke-width="1"/><rect x="673.6" y="259.15766025318766" width="13.799999999999999" height="19.227874073147348" fill="#006340"/><line x1="703.5" y1="230.35090253964614" x2="703.5" y2="268.2595832791449" stroke="#006340" stroke-width="1"/><rect x="696.6" y="239.2379172328333" width="13.799999999999999" height="19.91974302035436" fill="#006340"/><line x1="726.5" y1="222.13341898920828" x2="726.5" y2="269.82713888097334" stroke="#A02128" stroke-width="1"/><rect x="719.6" y="239.2379172328333" width="13.799999999999999" height="12.857102706441822" fill="#A02128"/><line x1="749.5" y1="234.1960285536033" x2="749.5" y2="272.85333173315024" stroke="#A02128" stroke-width="1"/><rect x="742.6" y="252.09501993927512" width="13.799999999999999" height="12.332454616047983" fill="#A02128"/><line x1="772.5" y1="243.28799388122957" x2="772.5" y2="264.7801828969771" stroke="#006340" stroke-width="1"/><rect x="765.6" y="245.51154276129432" width="13.799999999999999" height="18.91593179402878" fill="#006340"/><line x1="795.5" y1="212.62804091680437" x2="795.5" y2="262.1713857942765" stroke="#006340" stroke-width="1"/><rect x="788.6" y="218.42020927500954" width="13.799999999999999" height="27.091333486284782" fill="#006340"/><line x1="818.5" y1="197.561264579853" x2="818.5" y2="221.14666504218997" stroke="#006340" stroke-width="1"/><rect x="811.6" y="210.9197342535984" width="13.799999999999999" height="7.500475021411148" fill="#006340"/><line x1="841.5" y1="193.64647041398945" x2="841.5" y2="229.14507176791767" stroke="#A02128" stroke-width="1"/><rect x="834.6" y="210.9197342535984" width="13.799999999999999" height="7.421888904493869" fill="#A02128"/><line x1="864.5" y1="213.888547373523" x2="864.5" y2="228.63229146393945" stroke="#006340" stroke-width="1"/><rect x="857.6" y="218.06380429061392" width="13.799999999999999" height="1" fill="#006340"/><line x1="887.5" y1="181.84732854867258" x2="887.5" y2="231.63719928471068" stroke="#006340" stroke-width="1"/><rect x="880.6" y="197.20589332595426" width="13.799999999999999" height="20.857910964659652" fill="#006340"/><line x1="910.5" y1="195.0054461146638" x2="910.5" y2="220.29067061298173" stroke="#A02128" stroke-width="1"/><rect x="903.6" y="197.20589332595426" width="13.799999999999999" height="8.64791268833278" fill="#A02128"/><line x1="933.5" y1="164.56770321684309" x2="933.5" y2="205.92499598857302" stroke="#006340" stroke-width="1"/><rect x="926.6" y="174.44075394466591" width="13.799999999999999" height="31.41305206962113" fill="#006340"/><line x1="956.5" y1="158.99685022408454" x2="956.5" y2="187.2721847932005" stroke="#A02128" stroke-width="1"/><rect x="949.6" y="174.44075394466591" width="13.799999999999999" height="1" fill="#A02128"/><line x1="979.5" y1="146.1761210847381" x2="979.5" y2="177.62504020292732" stroke="#006340" stroke-width="1"/><rect x="972.6" y="159.44297892983445" width="13.799999999999999" height="15.710581130416529" fill="#006340"/><line x1="1002.5" y1="142.50321716627235" x2="1002.5" y2="170.89873352382915" stroke="#006340" stroke-width="1"/><rect x="995.6" y="147.4151108997354" width="13.799999999999999" height="12.027868030099057" fill="#006340"/><line x1="1025.5" y1="99.78740516728783" x2="1025.5" y2="157.80999645824" stroke="#006340" stroke-width="1"/><rect x="1018.6" y="113.44371466707321" width="13.799999999999999" height="33.97139623266219" fill="#006340"/><line x1="1048.5" y1="101.55746893090532" x2="1048.5" y2="124.12113580910864" stroke="#A02128" stroke-width="1"/><rect x="1041.6" y="113.44371466707321" width="13.799999999999999" height="1" fill="#A02128"/><line x1="1071.5" y1="105.47575734669692" x2="1071.5" y2="126.4720804789572" stroke="#006340" stroke-width="1"/><rect x="1064.6" y="106.06879685229876" width="13.799999999999999" height="7.855172305503061" fill="#006340"/><line x1="1094.5" y1="63.34166316805636" x2="1094.5" y2="109.03745879035353" stroke="#006340" stroke-width="1"/><rect x="1087.6" y="78.73386102625284" width="13.799999999999999" height="27.33493582604592" fill="#006340"/><line x1="1117.5" y1="65.49860512908094" x2="1117.5" y2="79.1619374783711" stroke="#006340" stroke-width="1"/><rect x="1110.6" y="78.41712068605466" width="13.799999999999999" height="1" fill="#006340"/><line x1="1140.5" y1="24" x2="1140.5" y2="88.94998283886036" stroke="#006340" stroke-width="1"/><rect x="1133.6" y="40.700432396351516" width="13.799999999999999" height="37.71668828970314" fill="#006340"/>
</svg>