<svg xmlns="http://www.w3.org/2000/svg" width="1200" height="700">
  <rect width="100%" height="100%" fill="#0d1117"/>
  <line x1="48" y1="24" x2="1152" y2="24" stroke="#21262d" stroke-width="1"/><line x1="48" y1="181" x2="1152" y2="181" stroke="#21262d" stroke-width="1"/><line x1="48" y1="338" x2="1152" y2="338" stroke="#21262d" stroke-width="1"/><line x1="48" y1="495" x2="1152" y2="495" stroke="#21262d" stroke-width="1"/><line x1="48" y1="652" x2="1152" y2="652" stroke="#21262d" stroke-width="1"/>
  <line x1="59.5" y1="305.2469469999786" x2="59.5" y2="406.6613159635767" stroke="#006340" stroke-width="1"/><rect x="52.6" y="308.24857737669004" width="13.799999999999999" height="66.61223417386196" fill="#006340"/><line x1="82.5" y1="204.257818924238" x2="82.5" y2="311.62735794831656" stroke="#006340" stroke-width="1"/><rect x="75.6" y="234.73469523655746" width="13.799999999999999" height="73.51388214013258" fill="#006340"/><line x1="105.5" y1="185.7187467894147" x2="105.5" y2="267.4797821033742" stroke="#006340" stroke-width="1"/><rect x="98.6" y="210.6706702319692" width="13.799999999999999" height="24.064025004588245" fill="#006340"/><line x1="128.5" y1="151.8511538125593" x2="128.5" y2="270.14775789794413" stroke="#006340" stroke-width="1"/><rect x="121.6" y="195.05249476465076" width="13.799999999999999" height="15.618175467318451" fill="#006340"/><line x1="151.5" y1="90.19070664915091" x2="151.5" y2="227.1063777618993" stroke="#006340" stroke-width="1"/><rect x="144.6" y="134.5442410005836" width="13.799999999999999" height="60.50825376406715" fill="#006340"/><line x1="174.5" y1="78.17907405068001" x2="174.5" y2="193.206618694898" stroke="#A02128" stroke-width="1"/><rect x="167.6" y="134.5442410005836" width="13.799999999999999" height="55.916508813862094" fill="#A02128"/><line x1="197.5" y1="150.0506316193028" x2="197.5" y2="236.2051934692488" stroke="#006340" stroke-width="1"/><rect x="190.6" y="184.13649938723898" width="13.799999999999999" height="6.324250427206721" fill="#006340"/><line x1="220.5" y1="168.34498933121597" x2="220.5" y2="276.86444870659045" stroke="#A02128" stroke-width="1"/><rect x="213.6" y="184.13649938723898" width="13.799999999999999" height="33.96313270296008" fill="#A02128"/><line x1="243.5" y1="160.02505825698069" x2="243.5" y2="241.84519512797294" stroke="#006340" stroke-width="1"/><rect x="236.6" y="201.43388893432922" width="13.799999999999999" height="16.665743155869848" fill="#006340"/><line x1="266.5" y1="201.06629321275153" x2="266.5" y2="310.60711164983087" stroke="#A02128" stroke-width="1"/><rect x="259.6" y="201.43388893432922" width="13.799999999999999" height="97.74669598923526" fill="#A02128"/><line x1="289.5" y1="247.12144485888086" x2="289.5" y2="347.59084319365724" stroke="#A02128" stroke-width="1"/><rect x="282.6" y="299.1805849235645" width="13.799999999999999" height="38.903949620484354" fill="#A02128"/><line x1="312.5" y1="273.0729044583371" x2="312.5" y2="352.67018183747217" stroke="#006340" stroke-width="1"/><rect x="305.6" y="309.604665446085" width="13.799999999999999" height="28.479869097963842" fill="#006340"/><line x1="335.5" y1="155.66500673833957" x2="335.5" y2="318.0658256129503" stroke="#006340" stroke-width="1"/><rect x="328.6" y="209.82495219245573" width="13.799999999999999" height="99.77971325362927" fill="#006340"/><line x1="358.5" y1="115.64040309082804" x2="358.5" y2="243.68140747715285" stroke="#006340" stroke-width="1"/><rect x="351.6" y="181.13037504130438" width="13.799999999999999" height="28.69457715115135" fill="#006340"/><line x1="381.5" y1="110.93667808215116" x2="381.5" y2="248.43089765046864" stroke="#006340" stroke-width="1"/><rect x="374.6" y="122.65554003429759" width="13.799999999999999" height="58.47483500700679" fill="#006340"/><line x1="404.5" y1="99.021401137824" x2="404.5" y2="186.71147894585062" stroke="#A02128" stroke-width="1"/><rect x="397.6" y="122.65554003429759" width="13.799999999999999" height="20.59440527588265" fill="#A02128"/><line x1="427.5" y1="113.33220567731473" x2="427.5" y2="214.67630943713885" stroke="#A02128" stroke-width="1"/><rect x="420.6" y="143.24994531018024" width="13.799999999999999" height="33.44118019655315" fill="#A02128"/><line x1="450.5" y1="169.9182222367848" x2="450.5" y2="295.54617494403016" stroke="#A02128" stroke-width="1"/><rect x="443.6" y="176.69112550673339" width="13.799999999999999" height="60.360409800922014" fill="#A02128"/><line x1="473.5" y1="204.35571628710034" x2="473.5" y2="362.05957266889754" stroke="#A02128" stroke-width="1"/><rect x="466.6" y="237.0515353076554" width="13.799999999999999" height="61.74623264504197" fill="#A02128"/><line x1="496.5" y1="151.4355669958045" x2="496.5" y2="333.2203457354425" stroke="#006340" stroke-width="1"/><rect x="489.6" y="212.62443456117683" width="13.799999999999999" height="86.17333339152054" fill="#006340"/><line x1="519.5" y1="203.91006900047154" x2="519.5" y2="340.77729652101436" stroke="#A02128" stroke-width="1"/><rect x="512.6" y="212.62443456117683" width="13.799999999999999" height="85.3011141415646" fill="#A02128"/><line x1="542.5" y1="289.025433380104" x2="542.5" y2="408.292590105625" stroke="#A02128" stroke-width="1"/><rect x="535.6" y="297.9255487027414" width="13.799999999999999" height="67.52023988990123" fill="#A02128"/><line x1="565.5" y1="286.02365290915264" x2="565.5" y2="383.5898000445339" stroke="#006340" stroke-width="1"/><rect x="558.6" y="293.29727152896504" width="13.799999999999999" height="72.14851706367762" fill="#006340"/><line x1="588.5" y1="236.3599361919666" x2="588.5" y2="365.3817962390445" stroke="#A02128" stroke-width="1"/><rect x="581.6" y="293.29727152896504" width="13.799999999999999" height="41.65426149945284" fill="#A02128"/><line x1="611.5" y1="240.5937322087351" x2="611.5" y2="371.3705421351655" stroke="#006340" stroke-width="1"/><rect x="604.6" y="296.9167075395302" width="13.799999999999999" height="38.03482548888769" fill="#006340"/><line x1="634.5" y1="296.57945093467185" x2="634.5" y2="380.73360372867256" stroke="#A02128" stroke-width="1"/><rect x="627.6" y="296.9167075395302" width="13.799999999999999" height="27.435899235917987" fill="#A02128"/><line x1="657.5" y1="320.34313257167946" x2="657.5" y2="411.19945474884696" stroke="#A02128" stroke-width="1"/><rect x="650.6" y="324.3526067754482" width="13.799999999999999" height="21.27768766352085" fill="#A02128"/><line x1="680.5" y1="330.066598685321" x2="680.5" y2="361.94412230147026" stroke="#006340" stroke-width="1"/><rect x="673.6" y="345.2214582580609" width="13.799999999999999" height="1" fill="#006340"/><line x1="703.5" y1="289.1408951386683" x2="703.5" y2="356.4559930919668" stroke="#006340" stroke-width="1"/><rect x="696.6" y="321.5594776970651" width="13.799999999999999" height="23.6619805609958" fill="#006340"/><line x1="726.5" y1="218.01109189326434" x2="726.5" y2="343.19838804871347" stroke="#006340" stroke-width="1"/><rect x="719.6" y="227.04711982022445" width="13.799999999999999" height="94.51235787684067" fill="#006340"/><line x1="749.5" y1="136.0734396334293" x2="749.5" y2="265.8520367916568" stroke="#006340" stroke-width="1"/><rect x="742.6" y="160.65456868388884" width="13.799999999999999" height="66.39255113633561" fill="#006340"/><line x1="772.5" y1="24" x2="772.5" y2="228.39458283586225" stroke="#006340" stroke-width="1"/><rect x="765.6" y="81.98391309259046" width="13.799999999999999" height="78.67065559129838" fill="#006340"/><line x1="795.5" y1="33.27075634501716" x2="795.5" y2="130.0890531401069" stroke="#A02128" stroke-width="1"/><rect x="788.6" y="81.98391309259046" width="13.799999999999999" height="32.39249813402125" fill="#A02128"/><line x1="818.5" y1="44.92453344640387" x2="818.5" y2="178.65882458631052" stroke="#006340" stroke-width="1"/><rect x="811.6" y="72.89920444890186" width="13.799999999999999" height="41.47720677770985" fill="#006340"/><line x1="841.5" y1="55.318058400591894" x2="841.5" y2="165.2018662091818" stroke="#A02128" stroke-width="1"/><rect x="834.6" y="72.89920444890186" width="13.799999999999999" height="26.087181787598865" fill="#A02128"/><line x1="864.5" y1="66.80302756284516" x2="864.5" y2="249.4941596405921" stroke="#A02128" stroke-width="1"/><rect x="857.6" y="98.98638623650072" width="13.799999999999999" height="100.99831605283725" fill="#A02128"/><line x1="887.5" y1="178.69505730531347" x2="887.5" y2="247.25531811066588" stroke="#A02128" stroke-width="1"/><rect x="880.6" y="199.98470228933797" width="13.799999999999999" height="17.660856440673683" fill="#A02128"/><line x1="910.5" y1="152.50638597342407" x2="910.5" y2="280.9756478926631" stroke="#006340" stroke-width="1"/><rect x="903.6" y="190.7927046890436" width="13.799999999999999" height="26.852854040968055" fill="#006340"/><line x1="933.5" y1="136.0808624726268" x2="933.5" y2="258.8306953036345" stroke="#A02128" stroke-width="1"/><rect x="926.6" y="190.7927046890436" width="13.799999999999999" height="10.67070017413738" fill="#A02128"/><line x1="956.5" y1="99.65858727944715" x2="956.5" y2="212.26042551430163" stroke="#006340" stroke-width="1"/><rect x="949.6" y="104.42790680575229" width="13.799999999999999" height="97.0354980574287" fill="#006340"/><line x1="979.5" y1="62.12456742545817" x2="979.5" y2="195.720964695544" stroke="#A02128" stroke-width="1"/><rect x="972.6" y="104.42790680575229" width="13.799999999999999" height="62.52452161439959" fill="#A02128"/><line x1="1002.5" y1="144.94820204243092" x2="1002.5" y2="288.01632975781484" stroke="#A02128" stroke-width="1"/><rect x="995.6" y="166.95242842015188" width="13.799999999999999" height="59.495368540491256" fill="#A02128"/><line x1="1025.5" y1="199.7097984158239" x2="1025.5" y2="341.36640512570443" stroke="#A02128" stroke-width="1"/><rect x="1018.6" y="226.44779696064313" width="13.799999999999999" height="80.67226757330616" fill="#A02128"/><line x1="1048.5" y1="203.36956044168977" x2="1048.5" y2="309.1483966093188" stroke="#006340" stroke-width="1"/><rect x="1041.6" y="224.52552298896182" width="13.799999999999999" height="82.59454154498746" fill="#006340"/><line x1="1071.5" y1="164.8893783569269" x2="1071.5" y2="371.22743573332" stroke="#A02128" stroke-width="1"/><rect x="1064.6" y="224.52552298896182" width="13.799999999999999" height="83.57696218767182" fill="#A02128"/><line x1="1094.5" y1="248.86200979341038" x2="1094.5" y2="402.49438131369504" stroke="#A02128" stroke-width="1"/><rect x="1087.6" y="308.10248517663365" width="13.799999999999999" height="75.35759978338797" fill="#A02128"/><line x1="1117.5" y1="376.0458760416944" x2="1117.5" y2="652" stroke="#A02128" stroke-width="1"/><rect x="1110.6" y="383.4600849600216" width="13.799999999999999" height="251.43475350547044" fill="#A02128"/><line x1="1140.5" y1="454.7753504997047" x2="1140.5" y2="645.4963713103751" stroke="#006340" stroke-width="1"/><rect x="1133.6" y="502.80778129061855" width="13.799999999999999" height="132.0870571748735" fill="#006340"/>
</svg>