<svg xmlns="http://www.w3.org/2000/svg" width="1200" height="700">
  <rect width="100%" height="100%" fill="#0d1117"/>
  <line x1="48" y1="24" x2="1152" y2="24" stroke="#21262d" stroke-width="1"/><line x1="48" y1="181" x2="1152" y2="181" stroke="#21262d" stroke-width="1"/><line x1="48" y1="338" x2="1152" y2="338" stroke="#21262d" stroke-width="1"/><line x1="48" y1="495" x2="1152" y2="495" stroke="#21262d" stroke-width="1"/><line x1="48" y1="652" x2="1152" y2="652" stroke="#21262d" stroke-width="1"/>
  <line x1="59.5" y1="24" x2="59.5" y2="99.83751138692412" stroke="#A02128" stroke-width="1"/><rect x="52.6" y="38.846550124587225" width="13.799999999999999" height="27.19969284724425" fill="#A02128"/><line x1="82.5" y1="54.46104338796624" x2="82.5" y2="230.61476515048633" stroke="#A02128" stroke-width="1"/><rect x="75.6" y="66.04624297183148" width="13.799999999999999" height="90.16501836374454" fill="#A02128"/><line x1="105.5" y1="101.70760271116899" x2="105.5" y2="162.2333355445952" stroke="#A02128" stroke-width="1"/><rect x="98.6" y="156.211261335576" width="13.799999999999999" height="5.645728947428495" fill="#A02128"/><line x1="128.5" y1="95.41971582113354" x2="128.5" y2="250.6511175322675" stroke="#A02128" stroke-width="1"/><rect x="121.6" y="161.8569902830045" width="13.799999999999999" height="35.23850922613491" fill="#A02128"/><line x1="151.5" y1="99.76503099198419" x2="151.5" y2="248.78789274797094" stroke="#006340" stroke-width="1"/><rect x="144.6" y="167.06045843700144" width="13.799999999999999" height="30.03504107213797" fill="#006340"/><line x1="174.5" y1="121.48707100939976" x2="174.5" y2="189.71333375960984" stroke="#006340" stroke-width="1"/><rect x="167.6" y="146.29974672605374" width="13.799999999999999" height="20.760711710947703" fill="#006340"/><line x1="197.5" y1="79.8195064421634" x2="197.5" y2="223.44280029812603" stroke="#A02128" stroke-width="1"/><rect x="190.6" y="146.29974672605374" width="13.799999999999999" height="2.820119009464804" fill="#A02128"/><line x1="220.5" y1="118.75969606598119" x2="220.5" y2="259.1870560742062" stroke="#A02128" stroke-width="1"/><rect x="213.6" y="149.11986573551854" width="13.799999999999999" height="45.88115080229949" fill="#A02128"/><line x1="243.5" y1="146.0839838538759" x2="243.5" y2="349.27843778304367" stroke="#A02128" stroke-width="1"/><rect x="236.6" y="195.00101653781803" width="13.799999999999999" height="113.6658108673252" fill="#A02128"/><line x1="266.5" y1="237.98372284030216" x2="266.5" y2="337.8946247905241" stroke="#A02128" stroke-width="1"/><rect x="259.6" y="308.66682740514324" width="13.799999999999999" height="9.826745558204493" fill="#A02128"/><line x1="289.5" y1="267.44041528693026" x2="289.5" y2="429.05432316166116" stroke="#A02128" stroke-width="1"/><rect x="282.6" y="318.49357296334773" width="13.799999999999999" height="74.72775756628818" fill="#A02128"/><line x1="312.5" y1="355.17734092981664" x2="312.5" y2="434.6315591099832" stroke="#A02128" stroke-width="1"/><rect x="305.6" y="393.2213305296359" width="13.799999999999999" height="17.743502437277186" fill="#A02128"/><line x1="335.5" y1="387.5293643153303" x2="335.5" y2="543.4856724404664" stroke="#A02128" stroke-width="1"/><rect x="328.6" y="410.9648329669131" width="13.799999999999999" height="71.57374070975908" fill="#A02128"/><line x1="358.5" y1="434.53716683036794" x2="358.5" y2="570.226681707431" stroke="#A02128" stroke-width="1"/><rect x="351.6" y="482.5385736766722" width="13.799999999999999" height="72.73751973105493" fill="#A02128"/><line x1="381.5" y1="540.8519057712072" x2="381.5" y2="583.480419598083" stroke="#A02128" stroke-width="1"/><rect x="374.6" y="555.2760934077271" width="13.799999999999999" height="22.779511213038063" fill="#A02128"/><line x1="404.5" y1="463.59121536682625" x2="404.5" y2="652" stroke="#006340" stroke-width="1"/><rect x="397.6" y="523.7508150932701" width="13.799999999999999" height="54.30478952749502" fill="#006340"/><line x1="427.5" y1="435.3626555147641" x2="427.5" y2="596.7033979910116" stroke="#006340" stroke-width="1"/><rect x="420.6" y="504.9768981388215" width="13.799999999999999" height="18.773916954448623" fill="#006340"/><line x1="450.5" y1="338.7269295700167" x2="450.5" y2="568.8426471817393" stroke="#006340" stroke-width="1"/><rect x="443.6" y="404.61892582703194" width="13.799999999999999" height="100.35797231178958" fill="#006340"/><line x1="473.5" y1="301.0465090556611" x2="473.5" y2="449.14279542507603" stroke="#006340" stroke-width="1"/><rect x="466.6" y="316.8337657710286" width="13.799999999999999" height="87.78516005600335" fill="#006340"/><line x1="496.5" y1="239.54123514565617" x2="496.5" y2="408.39333620725256" stroke="#A02128" stroke-width="1"/><rect x="489.6" y="316.8337657710286" width="13.799999999999999" height="37.36699906447075" fill="#A02128"/><line x1="519.5" y1="306.0303810431821" x2="519.5" y2="474.06197762891054" stroke="#A02128" stroke-width="1"/><rect x="512.6" y="354.20076483549934" width="13.799999999999999" height="49.627432558552016" fill="#A02128"/><line x1="542.5" y1="368.24834224038835" x2="542.5" y2="571.6999623900709" stroke="#A02128" stroke-width="1"/><rect x="535.6" y="403.82819739405136" width="13.799999999999999" height="96.96841389854865" fill="#A02128"/><line x1="565.5" y1="369.9467056008832" x2="565.5" y2="538.1503617651786" stroke="#006340" stroke-width="1"/><rect x="558.6" y="445.2928089475038" width="13.799999999999999" height="55.50380234509623" fill="#006340"/><line x1="588.5" y1="363.3209492298947" x2="588.5" y2="499.4795902998201" stroke="#006340" stroke-width="1"/><rect x="581.6" y="384.5345623534198" width="13.799999999999999" height="60.75824659408397" fill="#006340"/><line x1="611.5" y1="313.74943876320157" x2="611.5" y2="414.89677421414456" stroke="#006340" stroke-width="1"/><rect x="604.6" y="343.38565444161674" width="13.799999999999999" height="41.148907911803065" fill="#006340"/><line x1="634.5" y1="296.04077871387517" x2="634.5" y2="480.01062974948854" stroke="#A02128" stroke-width="1"/><rect x="627.6" y="343.38565444161674" width="13.799999999999999" height="91.3875408773124" fill="#A02128"/><line x1="657.5" y1="417.64737270126653" x2="657.5" y2="481.8227483816123" stroke="#A02128" stroke-width="1"/><rect x="650.6" y="434.77319531892914" width="13.799999999999999" height="30.41283660283574" fill="#A02128"/><line x1="680.5" y1="386.92843753916424" x2="680.5" y2="497.83013923554904" stroke="#006340" stroke-width="1"/><rect x="673.6" y="459.07511884806763" width="13.799999999999999" height="6.1109130736972475" fill="#006340"/><line x1="703.5" y1="317.9672869274431" x2="703.5" y2="469.3820895493199" stroke="#006340" stroke-width="1"/><rect x="696.6" y="388.85048231614127" width="13.799999999999999" height="70.22463653192636" fill="#006340"/><line x1="726.5" y1="328.43869918356" x2="726.5" y2="441.42191865749317" stroke="#A02128" stroke-width="1"/><rect x="719.6" y="388.85048231614127" width="13.799999999999999" height="15.439453203726202" fill="#A02128"/><line x1="749.5" y1="373.1075723337277" x2="749.5" y2="474.40629301007533" stroke="#A02128" stroke-width="1"/><rect x="742.6" y="404.28993551986747" width="13.799999999999999" height="43.18869811909508" fill="#A02128"/><line x1="772.5" y1="305.14719732103526" x2="772.5" y2="457.22717053168753" stroke="#006340" stroke-width="1"/><rect x="765.6" y="378.5900764329793" width="13.799999999999999" height="68.88855720598326" fill="#006340"/><line x1="795.5" y1="337.5338280153725" x2="795.5" y2="427.70422872699316" stroke="#A02128" stroke-width="1"/><rect x="788.6" y="378.5900764329793" width="13.799999999999999" height="2.43983010495333" fill="#A02128"/><line x1="818.5" y1="360.2271025218919" x2="818.5" y2="522.4575208746099" stroke="#A02128" stroke-width="1"/><rect x="811.6" y="381.0299065379326" width="13.799999999999999" height="78.16433859972227" fill="#A02128"/><line x1="841.5" y1="296.25619222011545" x2="841.5" y2="491.6934620491862" stroke="#006340" stroke-width="1"/><rect x="834.6" y="361.30539920524143" width="13.799999999999999" height="97.88884593241346" fill="#006340"/><line x1="864.5" y1="226.49522057675523" x2="864.5" y2="410.78301909564584" stroke="#006340" stroke-width="1"/><rect x="857.6" y="302.78690205797" width="13.799999999999999" height="58.51849714727143" fill="#006340"/><line x1="887.5" y1="271.30553875209745" x2="887.5" y2="371.6764310722735" stroke="#A02128" stroke-width="1"/><rect x="880.6" y="302.78690205797" width="13.799999999999999" height="36.28444317528687" fill="#A02128"/><line x1="910.5" y1="294.223956299963" x2="910.5" y2="370.619096068445" stroke="#006340" stroke-width="1"/><rect x="903.6" y="325.05303678466674" width="13.799999999999999" height="14.018308448590119" fill="#006340"/><line x1="933.5" y1="250.87234268071768" x2="933.5" y2="348.5141408331394" stroke="#006340" stroke-width="1"/><rect x="926.6" y="259.4875326388458" width="13.799999999999999" height="65.56550414582097" fill="#006340"/><line x1="956.5" y1="255.03785560395318" x2="956.5" y2="396.5861069311826" stroke="#A02128" stroke-width="1"/><rect x="949.6" y="259.4875326388458" width="13.799999999999999" height="67.51458780889965" fill="#A02128"/><line x1="979.5" y1="142.18517419648543" x2="979.5" y2="382.8242676119639" stroke="#006340" stroke-width="1"/><rect x="972.6" y="218.90166455177382" width="13.799999999999999" height="108.1004558959716" fill="#006340"/><line x1="1002.5" y1="193.90694869414665" x2="1002.5" y2="291.50320442748693" stroke="#A02128" stroke-width="1"/><rect x="995.6" y="218.90166455177382" width="13.799999999999999" height="41.49139959219093" fill="#A02128"/><line x1="1025.5" y1="161.48679830657176" x2="1025.5" y2="324.00759526632396" stroke="#006340" stroke-width="1"/><rect x="1018.6" y="192.67407320073784" width="13.799999999999999" height="67.71899094322691" fill="#006340"/><line x1="1048.5" y1="154.82550229200348" x2="1048.5" y2="296.4218937244168" stroke="#A02128" stroke-width="1"/><rect x="1041.6" y="192.67407320073784" width="13.799999999999999" height="79.42354281503447" fill="#A02128"/><line x1="1071.5" y1="121.14839682280194" x2="1071.5" y2="310.6232594169412" stroke="#006340" stroke-width="1"/><rect x="1064.6" y="171.28016310555802" width="13.799999999999999" height="100.81745291021429" fill="#006340"/><line x1="1094.5" y1="97.0475610483254" x2="1094.5" y2="227.9827384254648" stroke="#A02128" stroke-width="1"/><rect x="1087.6" y="171.28016310555802" width="13.799999999999999" height="43.62583350850656" fill="#A02128"/><line x1="1117.5" y1="210.78503794052443" x2="1117.5" y2="390.5627998842686" stroke="#A02128" stroke-width="1"/><rect x="1110.6" y="214.90599661406458" width="13.799999999999999" height="104.46528847818371" fill="#A02128"/><line x1="1140.5" y1="244.3327170216395" x2="1140.5" y2="348.79259120984995" stroke="#A02128" stroke-width="1"/><rect x="1133.6" y="319.3712850922483" width="13.799999999999999" height="13.235737328731318" fill="#A02128"/>
</svg>