<svg xmlns="http://www.w3.org/2000/svg" width="1200" height="700">
  <rect width="100%" height="100%" fill="#0d1117"/>
  <line x1="48" y1="24" x2="1152" y2="24" stroke="#21262d" stroke-width="1"/><line x1="48" y1="181" x2="1152" y2="181" stroke="#21262d" stroke-width="1"/><line x1="48" y1="338" x2="1152" y2="338" stroke="#21262d" stroke-width="1"/><line x1="48" y1="495" x2="1152" y2="495" stroke="#21262d" stroke-width="1"/><line x1="48" y1="652" x2="1152" y2="652" stroke="#21262d" stroke-width="1"/>
  <line x1="59.5" y1="628.9524976744693" x2="59.5" y2="652" stroke="#A02128" stroke-width="1"/><rect x="52.6" y="640.39457032658" width="13.799999999999999" height="1" fill="#A02128"/><line x1="82.5" y1="609.9550401598257" x2="82.5" y2="651.8240480844096" stroke="#006340" stroke-width="1"/><rect x="75.6" y="620.4722274154843" width="13.799999999999999" height="20.108364952772604" fill="#006340"/><line x1="105.5" y1="615.3808810605348" x2="105.5" y2="636.485647861145" stroke="#A02128" stroke-width="1"/><rect x="98.6" y="620.4722274154843" width="13.799999999999999" height="4.385960762411969" fill="#A02128"/><line x1="128.5" y1="600.6215634133997" x2="128.5" y2="630.6604013218852" stroke="#006340" stroke-width="1"/><rect x="121.6" y="608.4569087862136" width="13.799999999999999" height="16.401279391682692" fill="#006340"/><line x1="151.5" y1="593.9859369983501" x2="151.5" y2="617.254234652256" stroke="#006340" stroke-width="1"/><rect x="144.6" y="599.4411764334934" width="13.799999999999999" height="9.015732352720192" fill="#006340"/><line x1="174.5" y1="593.5058674260783" x2="174.5" y2="605.9320642629464" stroke="#006340" stroke-width="1"/><rect x="167.6" y="594.6768296976314" width="13.799999999999999" height="4.764346735861977" fill="#006340"/><line x1="197.5" y1="567.9448255524612" x2="197.5" y2="606.3057187041511" stroke="#006340" stroke-width="1"/><rect x="190.6" y="576.403659201075" width="13.799999999999999" height="18.273170496556418" fill="#006340"/><line x1="220.5" y1="548.4312557552297" x2="220.5" y2="585.1826842263929" stroke="#006340" stroke-width="1"/><rect x="213.6" y="559.3295340509418" width="13.799999999999999" height="17.074125150133227" fill="#006340"/><line x1="243.5" y1="549.4730346293" x2="243.5" y2="564.0042587429837" stroke="#A02128" stroke-width="1"/><rect x="236.6" y="559.3295340509418" width="13.799999999999999" height="4.560268264785805" fill="#A02128"/><line x1="266.5" y1="558.5990600320631" x2="266.5" y2="567.7601201083537" stroke="#006340" stroke-width="1"/><rect x="259.6" y="562.4862968751432" width="13.799999999999999" height="1.403505440584354" fill="#006340"/><line x1="289.5" y1="554.6895306614084" x2="289.5" y2="569.3240806058285" stroke="#006340" stroke-width="1"/><rect x="282.6" y="557.5626464272741" width="13.799999999999999" height="4.923650447869136" fill="#006340"/><line x1="312.5" y1="549.9634463946489" x2="312.5" y2="565.3997520353499" stroke="#006340" stroke-width="1"/><rect x="305.6" y="551.1855923397211" width="13.799999999999999" height="6.377054087553006" fill="#006340"/><line x1="335.5" y1="537.2001365505745" x2="335.5" y2="558.2203808942481" stroke="#006340" stroke-width="1"/><rect x="328.6" y="545.0394006024603" width="13.799999999999999" height="6.146191737260779" fill="#006340"/><line x1="358.5" y1="526.100111494466" x2="358.5" y2="550.8069431354063" stroke="#006340" stroke-width="1"/><rect x="351.6" y="526.629172828364" width="13.799999999999999" height="18.41022777409637" fill="#006340"/><line x1="381.5" y1="524.2332861243814" x2="381.5" y2="545.0295005499904" stroke="#A02128" stroke-width="1"/><rect x="374.6" y="526.629172828364" width="13.799999999999999" height="6.396641296867642" fill="#A02128"/><line x1="404.5" y1="526.7773846498891" x2="404.5" y2="543.0733269319659" stroke="#006340" stroke-width="1"/><rect x="397.6" y="530.6318731079452" width="13.799999999999999" height="2.393941017286352" fill="#006340"/><line x1="427.5" y1="508.16032605095415" x2="427.5" y2="536.7664197686474" stroke="#006340" stroke-width="1"/><rect x="420.6" y="519.4719761732631" width="13.799999999999999" height="11.159896934682138" fill="#006340"/><line x1="450.5" y1="510.2280261493944" x2="450.5" y2="530.0709305892619" stroke="#A02128" stroke-width="1"/><rect x="443.6" y="519.4719761732631" width="13.799999999999999" height="2.3894558374939834" fill="#A02128"/><line x1="473.5" y1="517.2014952640898" x2="473.5" y2="529.2992415927868" stroke="#A02128" stroke-width="1"/><rect x="466.6" y="521.8614320107571" width="13.799999999999999" height="7.1842226393888495" fill="#A02128"/><line x1="496.5" y1="521.4550970191306" x2="496.5" y2="541.9197360940946" stroke="#A02128" stroke-width="1"/><rect x="489.6" y="529.0456546501459" width="13.799999999999999" height="5.624899531726896" fill="#A02128"/><line x1="519.5" y1="521.3720857110304" x2="519.5" y2="543.2944683982493" stroke="#006340" stroke-width="1"/><rect x="512.6" y="531.0316831978943" width="13.799999999999999" height="3.6388709839785633" fill="#006340"/><line x1="542.5" y1="512.9929537269064" x2="542.5" y2="535.6933589966479" stroke="#006340" stroke-width="1"/><rect x="535.6" y="517.4180121786491" width="13.799999999999999" height="13.613671019245203" fill="#006340"/><line x1="565.5" y1="505.46178101002357" x2="565.5" y2="520.708849393033" stroke="#006340" stroke-width="1"/><rect x="558.6" y="505.59292071350103" width="13.799999999999999" height="11.825091465148034" fill="#006340"/><line x1="588.5" y1="479.78743738773574" x2="588.5" y2="505.6902996949593" stroke="#006340" stroke-width="1"/><rect x="581.6" y="484.9240370811142" width="13.799999999999999" height="20.668883632386837" fill="#006340"/><line x1="611.5" y1="476.3074535850508" x2="611.5" y2="490.28957556190977" stroke="#A02128" stroke-width="1"/><rect x="604.6" y="484.9240370811142" width="13.799999999999999" height="1" fill="#A02128"/><line x1="634.5" y1="459.0449943512823" x2="634.5" y2="493.91088267506416" stroke="#006340" stroke-width="1"/><rect x="627.6" y="469.3215151518569" width="13.799999999999999" height="16.149429703357725" fill="#006340"/><line x1="657.5" y1="469.1554605115381" x2="657.5" y2="478.58106219055185" stroke="#A02128" stroke-width="1"/><rect x="650.6" y="469.3215151518569" width="13.799999999999999" height="4.205713294399118" fill="#A02128"/><line x1="680.5" y1="457.73046948141734" x2="680.5" y2="480.4174640552986" stroke="#006340" stroke-width="1"/><rect x="673.6" y="466.9604116928822" width="13.799999999999999" height="6.566816753373814" fill="#006340"/><line x1="703.5" y1="454.8881500004659" x2="703.5" y2="467.8103552521287" stroke="#006340" stroke-width="1"/><rect x="696.6" y="460.18992938836584" width="13.799999999999999" height="6.770482304516349" fill="#006340"/><line x1="726.5" y1="453.91424881537466" x2="726.5" y2="472.37292113424246" stroke="#A02128" stroke-width="1"/><rect x="719.6" y="460.18992938836584" width="13.799999999999999" height="6.650315081363033" fill="#A02128"/><line x1="749.5" y1="465.2763741425852" x2="749.5" y2="477.54742740918607" stroke="#A02128" stroke-width="1"/><rect x="742.6" y="466.8402444697289" width="13.799999999999999" height="10.57655643022963" fill="#A02128"/><line x1="772.5" y1="466.23947249861465" x2="772.5" y2="483.8599759660767" stroke="#A02128" stroke-width="1"/><rect x="765.6" y="477.4168008999585" width="13.799999999999999" height="3.347708266887139" fill="#A02128"/><line x1="795.5" y1="472.854223141896" x2="795.5" y2="503.3978522026353" stroke="#A02128" stroke-width="1"/><rect x="788.6" y="480.76450916684564" width="13.799999999999999" height="12.488751133385108" fill="#A02128"/><line x1="818.5" y1="468.94929479174925" x2="818.5" y2="498.2500576614415" stroke="#006340" stroke-width="1"/><rect x="811.6" y="478.780638749395" width="13.799999999999999" height="14.472621550835754" fill="#006340"/><line x1="841.5" y1="434.5354928027689" x2="841.5" y2="479.1278432794309" stroke="#006340" stroke-width="1"/><rect x="834.6" y="441.3595717951062" width="13.799999999999999" height="37.42106695428879" fill="#006340"/><line x1="864.5" y1="396.8253197860804" x2="864.5" y2="441.4187423135189" stroke="#006340" stroke-width="1"/><rect x="857.6" y="397.00318938439574" width="13.799999999999999" height="44.35638241071047" fill="#006340"/><line x1="887.5" y1="363.1289823327462" x2="887.5" y2="407.71708772993566" stroke="#006340" stroke-width="1"/><rect x="880.6" y="364.39328776656833" width="13.799999999999999" height="32.609901617827404" fill="#006340"/><line x1="910.5" y1="347.0703963874249" x2="910.5" y2="371.0433516938562" stroke="#006340" stroke-width="1"/><rect x="903.6" y="349.1086862063771" width="13.799999999999999" height="15.28460156019122" fill="#006340"/><line x1="933.5" y1="318.85404129745183" x2="933.5" y2="349.9719911648721" stroke="#006340" stroke-width="1"/><rect x="926.6" y="327.2512234804644" width="13.799999999999999" height="21.85746272591274" fill="#006340"/><line x1="956.5" y1="295.97394502309857" x2="956.5" y2="336.87327838573407" stroke="#006340" stroke-width="1"/><rect x="949.6" y="296.8251592631852" width="13.799999999999999" height="30.42606421727919" fill="#006340"/><line x1="979.5" y1="269.55650766617913" x2="979.5" y2="308.6265867511468" stroke="#006340" stroke-width="1"/><rect x="972.6" y="274.3884115080892" width="13.799999999999999" height="22.436747755096007" fill="#006340"/><line x1="1002.5" y1="222.12998673850137" x2="1002.5" y2="278.1113521596482" stroke="#006340" stroke-width="1"/><rect x="995.6" y="234.3329159394719" width="13.799999999999999" height="40.05549556861729" fill="#006340"/><line x1="1025.5" y1="195.45014721595254" x2="1025.5" y2="234.96308698557658" stroke="#006340" stroke-width="1"/><rect x="1018.6" y="208.69331745880788" width="13.799999999999999" height="25.639598480664006" fill="#006340"/><line x1="1048.5" y1="152.99294723999606" x2="1048.5" y2="211.57009408087896" stroke="#006340" stroke-width="1"/><rect x="1041.6" y="162.455186680687" width="13.799999999999999" height="46.238130778120876" fill="#006340"/><line x1="1071.5" y1="106.11756985392344" x2="1071.5" y2="164.99521673541898" stroke="#006340" stroke-width="1"/><rect x="1064.6" y="118.34493545884015" width="13.799999999999999" height="44.11025122184685" fill="#006340"/><line x1="1094.5" y1="103.56482642854712" x2="1094.5" y2="126.48792707416078" stroke="#006340" stroke-width="1"/><rect x="1087.6" y="109.31701258518717" width="13.799999999999999" height="9.027922873652983" fill="#006340"/><line x1="1117.5" y1="59.77901802815245" x2="1117.5" y2="122.11449781195904" stroke="#006340" stroke-width="1"/><rect x="1110.6" y="73.39544727348641" width="13.799999999999999" height="35.92156531170076" fill="#006340"/><line x1="1140.5" y1="24" x2="1140.5" y2="77.88303602089957" stroke="#006340" stroke-width="1"/><rect x="1133.6" y="37.66720920391015" width="13.799999999999999" height="35.728238069576264" fill="#006340"/>
</svg>