<svg xmlns="http://www.w3.org/2000/svg" width="1200" height="700">
  <rect width="100%" height="100%" fill="#0d1117"/>
  <line x1="48" y1="24" x2="1152" y2="24" stroke="#21262d" stroke-width="1"/><line x1="48" y1="181" x2="1152" y2="181" stroke="#21262d" stroke-width="1"/><line x1="48" y1="338" x2="1152" y2="338" stroke="#21262d" stroke-width="1"/><line x1="48" y1="495" x2="1152" y2="495" stroke="#21262d" stroke-width="1"/><line x1="48" y1="652" x2="1152" y2="652" stroke="#21262d" stroke-width="1"/>
  <line x1="59.5" y1="601.6617233094835" x2="59.5" y2="652" stroke="#006340" stroke-width="1"/><rect x="52.6" y="615.8333557704168" width="13.799999999999999" height="35.217977068981554" fill="#006340"/><line x1="82.5" y1="609.8543462023067" x2="82.5" y2="632.7162253135211" stroke="#A02128" stroke-width="1"/><rect x="75.6" y="615.8333557704168" width="13.799999999999999" height="9.642171693165437" fill="#A02128"/><line x1="105.5" y1="616.3025122593369" x2="105.5" y2="638.0917055019938" stroke="#006340" stroke-width="1"/><rect x="98.6" y="621.7528908125752" width="13.799999999999999" height="3.7226366510070648" fill="#006340"/><line x1="128.5" y1="602.6064876504219" x2="128.5" y2="629.2965544201742" stroke="#006340" stroke-width="1"/><rect x="121.6" y="612.4145130174754" width="13.799999999999999" height="9.338377795099746" fill="#006340"/><line x1="151.5" y1="584.3625586398603" x2="151.5" y2="618.0446114356378" stroke="#006340" stroke-width="1"/><rect x="144.6" y="598.2228193789545" width="13.799999999999999" height="14.191693638520974" fill="#006340"/><line x1="174.5" y1="586.6425138865361" x2="174.5" y2="603.7161360254189" stroke="#A02128" stroke-width="1"/><rect x="167.6" y="598.2228193789545" width="13.799999999999999" height="5.321658957010527" fill="#A02128"/><line x1="197.5" y1="592.4307749368257" x2="197.5" y2="613.1651868353321" stroke="#006340" stroke-width="1"/><rect x="190.6" y="597.7932881800278" width="13.799999999999999" height="5.751190155937138" fill="#006340"/><line x1="220.5" y1="563.8725420051271" x2="220.5" y2="611.4674157712878" stroke="#006340" stroke-width="1"/><rect x="213.6" y="576.2924992945029" width="13.799999999999999" height="21.500788885524912" fill="#006340"/><line x1="243.5" y1="558.4405535369908" x2="243.5" y2="588.7601369424216" stroke="#006340" stroke-width="1"/><rect x="236.6" y="568.996950383114" width="13.799999999999999" height="7.295548911388892" fill="#006340"/><line x1="266.5" y1="527.7665386379006" x2="266.5" y2="571.3808270957918" stroke="#006340" stroke-width="1"/><rect x="259.6" y="536.3267180894102" width="13.799999999999999" height="32.67023229370386" fill="#006340"/><line x1="289.5" y1="528.7350168962377" x2="289.5" y2="548.1991409864415" stroke="#A02128" stroke-width="1"/><rect x="282.6" y="536.3267180894102" width="13.799999999999999" height="7.366744796967623" fill="#A02128"/><line x1="312.5" y1="529.0008490460356" x2="312.5" y2="553.4634479792967" stroke="#A02128" stroke-width="1"/><rect x="305.6" y="543.6934628863778" width="13.799999999999999" height="8.359877270826246" fill="#A02128"/><line x1="335.5" y1="520.9817396028965" x2="335.5" y2="566.2835668573955" stroke="#006340" stroke-width="1"/><rect x="328.6" y="536.0814062318742" width="13.799999999999999" height="15.971933925329836" fill="#006340"/><line x1="358.5" y1="515.8489449292169" x2="358.5" y2="542.9869371778506" stroke="#006340" stroke-width="1"/><rect x="351.6" y="531.5592149863877" width="13.799999999999999" height="4.5221912454865105" fill="#006340"/><line x1="381.5" y1="500.47321269411856" x2="381.5" y2="540.1377978607052" stroke="#006340" stroke-width="1"/><rect x="374.6" y="509.82166487974206" width="13.799999999999999" height="21.737550106645642" fill="#006340"/><line x1="404.5" y1="473.01556432779364" x2="404.5" y2="524.8589351394103" stroke="#006340" stroke-width="1"/><rect x="397.6" y="483.27428855096076" width="13.799999999999999" height="26.547376328781297" fill="#006340"/><line x1="427.5" y1="448.8423920066165" x2="427.5" y2="492.7769867431661" stroke="#006340" stroke-width="1"/><rect x="420.6" y="453.2916349619135" width="13.799999999999999" height="29.98265358904729" fill="#006340"/><line x1="450.5" y1="432.56485401481433" x2="450.5" y2="463.11210260215427" stroke="#006340" stroke-width="1"/><rect x="443.6" y="436.72035202466407" width="13.799999999999999" height="16.571282937249407" fill="#006340"/><line x1="473.5" y1="432.8633326847789" x2="473.5" y2="451.7278722163287" stroke="#A02128" stroke-width="1"/><rect x="466.6" y="436.72035202466407" width="13.799999999999999" height="1.5953297127996962" fill="#A02128"/><line x1="496.5" y1="436.62690434324253" x2="496.5" y2="462.34855827842625" stroke="#A02128" stroke-width="1"/><rect x="489.6" y="438.31568173746376" width="13.799999999999999" height="8.658323974605196" fill="#A02128"/><line x1="519.5" y1="446.1432913983746" x2="519.5" y2="454.29348575197173" stroke="#A02128" stroke-width="1"/><rect x="512.6" y="446.97400571206896" width="13.799999999999999" height="3.0534298025168596" fill="#A02128"/><line x1="542.5" y1="435.53810040750705" x2="542.5" y2="460.6933872175391" stroke="#A02128" stroke-width="1"/><rect x="535.6" y="450.0274355145858" width="13.799999999999999" height="1.8112303869540938" fill="#A02128"/><line x1="565.5" y1="427.02168681876606" x2="565.5" y2="464.3292349242279" stroke="#006340" stroke-width="1"/><rect x="558.6" y="432.93204890786046" width="13.799999999999999" height="18.90661699367945" fill="#006340"/><line x1="588.5" y1="397.0424194334224" x2="588.5" y2="442.71088107116765" stroke="#006340" stroke-width="1"/><rect x="581.6" y="401.4443744857587" width="13.799999999999999" height="31.487674422101747" fill="#006340"/><line x1="611.5" y1="373.73846225022714" x2="611.5" y2="408.66727061943243" stroke="#006340" stroke-width="1"/><rect x="604.6" y="386.90058921331945" width="13.799999999999999" height="14.543785272439266" fill="#006340"/><line x1="634.5" y1="383.0131201511047" x2="634.5" y2="404.1406057378076" stroke="#A02128" stroke-width="1"/><rect x="627.6" y="386.90058921331945" width="13.799999999999999" height="8.086131409789232" fill="#A02128"/><line x1="657.5" y1="361.4317685366338" x2="657.5" y2="407.36308411943867" stroke="#006340" stroke-width="1"/><rect x="650.6" y="367.89816392304886" width="13.799999999999999" height="27.088556700059826" fill="#006340"/><line x1="680.5" y1="327.7503028704738" x2="680.5" y2="370.3773619640491" stroke="#006340" stroke-width="1"/><rect x="673.6" y="344.0775992590175" width="13.799999999999999" height="23.820564664031338" fill="#006340"/><line x1="703.5" y1="324.93203538154717" x2="703.5" y2="351.9909897382752" stroke="#006340" stroke-width="1"/><rect x="696.6" y="329.60869888389465" width="13.799999999999999" height="14.468900375122871" fill="#006340"/><line x1="726.5" y1="288.4668243714009" x2="726.5" y2="339.97479296377134" stroke="#006340" stroke-width="1"/><rect x="719.6" y="292.74528911623247" width="13.799999999999999" height="36.863409767662176" fill="#006340"/><line x1="749.5" y1="264.7493043580229" x2="749.5" y2="297.8186200679335" stroke="#006340" stroke-width="1"/><rect x="742.6" y="273.7269626039618" width="13.799999999999999" height="19.018326512270676" fill="#006340"/><line x1="772.5" y1="255.53555119576419" x2="772.5" y2="289.1368837473799" stroke="#006340" stroke-width="1"/><rect x="765.6" y="262.43137500448825" width="13.799999999999999" height="11.29558759947355" fill="#006340"/><line x1="795.5" y1="236.0671500555252" x2="795.5" y2="278.34480599428315" stroke="#006340" stroke-width="1"/><rect x="788.6" y="251.3463922548783" width="13.799999999999999" height="11.084982749609935" fill="#006340"/><line x1="818.5" y1="213.27260366760873" x2="818.5" y2="258.6982164925776" stroke="#006340" stroke-width="1"/><rect x="811.6" y="226.98565239947646" width="13.799999999999999" height="24.360739855401846" fill="#006340"/><line x1="841.5" y1="196.43859874482348" x2="841.5" y2="244.2450519852281" stroke="#006340" stroke-width="1"/><rect x="834.6" y="210.87324159821128" width="13.799999999999999" height="16.112410801265185" fill="#006340"/><line x1="864.5" y1="173.0070976490262" x2="864.5" y2="212.03019645534454" stroke="#006340" stroke-width="1"/><rect x="857.6" y="183.18400694413714" width="13.799999999999999" height="27.68923465407414" fill="#006340"/><line x1="887.5" y1="152.4669352623066" x2="887.5" y2="198.34440983063246" stroke="#006340" stroke-width="1"/><rect x="880.6" y="164.84961572017153" width="13.799999999999999" height="18.33439122396561" fill="#006340"/><line x1="910.5" y1="135.48816896074607" x2="910.5" y2="176.71553558631695" stroke="#006340" stroke-width="1"/><rect x="903.6" y="151.1860041509678" width="13.799999999999999" height="13.663611569203738" fill="#006340"/><line x1="933.5" y1="135.39515378644603" x2="933.5" y2="172.29905025061993" stroke="#A02128" stroke-width="1"/><rect x="926.6" y="151.1860041509678" width="13.799999999999999" height="9.409504251078147" fill="#A02128"/><line x1="956.5" y1="125.96616757850666" x2="956.5" y2="166.07225573491348" stroke="#006340" stroke-width="1"/><rect x="949.6" y="128.42629083535678" width="13.799999999999999" height="32.169217566689156" fill="#006340"/><line x1="979.5" y1="78.72970491295348" x2="979.5" y2="136.01970823923364" stroke="#006340" stroke-width="1"/><rect x="972.6" y="91.56381567472852" width="13.799999999999999" height="36.862475160628264" fill="#006340"/><line x1="1002.5" y1="83.45571756363972" x2="1002.5" y2="112.87812719237115" stroke="#A02128" stroke-width="1"/><rect x="995.6" y="91.56381567472852" width="13.799999999999999" height="6.523085628855824" fill="#A02128"/><line x1="1025.5" y1="73.64830387514348" x2="1025.5" y2="113.61824847077332" stroke="#006340" stroke-width="1"/><rect x="1018.6" y="80.71811149432517" width="13.799999999999999" height="17.36878980925917" fill="#006340"/><line x1="1048.5" y1="69.65857851779936" x2="1048.5" y2="97.5066964298909" stroke="#A02128" stroke-width="1"/><rect x="1041.6" y="80.71811149432517" width="13.799999999999999" height="1" fill="#A02128"/><line x1="1071.5" y1="38.34204263507888" x2="1071.5" y2="88.15004784603809" stroke="#006340" stroke-width="1"/><rect x="1064.6" y="55.37748697640461" width="13.799999999999999" height="26.197590063766256" fill="#006340"/><line x1="1094.5" y1="51.39367078279952" x2="1094.5" y2="57.769817518725404" stroke="#A02128" stroke-width="1"/><rect x="1087.6" y="55.37748697640461" width="13.799999999999999" height="2.0502591010240394" fill="#A02128"/><line x1="1117.5" y1="37.600233303972345" x2="1117.5" y2="74.46414865411805" stroke="#006340" stroke-width="1"/><rect x="1110.6" y="44.176028444773124" width="13.799999999999999" height="13.251717632655527" fill="#006340"/><line x1="1140.5" y1="24" x2="1140.5" y2="57.38565751130295" stroke="#006340" stroke-width="1"/><rect x="1133.6" y="28.756492817417097" width="13.799999999999999" height="15.419535627356026" fill="#006340"/>
</svg>