<svg xmlns="http://www.w3.org/2000/svg" width="1200" height="700">
  <rect width="100%" height="100%" fill="#0d1117"/>
  <line x1="48" y1="24" x2="1152" y2="24" stroke="#21262d" stroke-width="1"/><line x1="48" y1="181" x2="1152" y2="181" stroke="#21262d" stroke-width="1"/><line x1="48" y1="338" x2="1152" y2="338" stroke="#21262d" stroke-width="1"/><line x1="48" y1="495" x2="1152" y2="495" stroke="#21262d" stroke-width="1"/><line x1="48" y1="652" x2="1152" y2="652" stroke="#21262d" stroke-width="1"/>
  <line x1="59.5" y1="570.8551704588059" x2="59.5" y2="635.2044063119635" stroke="#006340" stroke-width="1"/><rect x="52.6" y="608.1022788222479" width="13.799999999999999" height="19.662929855319817" fill="#006340"/><line x1="82.5" y1="537.3300443161322" x2="82.5" y2="652" stroke="#006340" stroke-width="1"/><rect x="75.6" y="559.2353561132394" width="13.799999999999999" height="48.86692270900846" fill="#006340"/><line x1="105.5" y1="492.11446231102246" x2="105.5" y2="577.7754277138276" stroke="#006340" stroke-width="1"/><rect x="98.6" y="524.4499046603444" width="13.799999999999999" height="34.78545145289502" fill="#006340"/><line x1="128.5" y1="519.9497786215711" x2="128.5" y2="551.7197334388841" stroke="#A02128" stroke-width="1"/><rect x="121.6" y="524.4499046603444" width="13.799999999999999" height="7.437659793498256" fill="#A02128"/><line x1="151.5" y1="478.58585632700476" x2="151.5" y2="566.5090740455125" stroke="#A02128" stroke-width="1"/><rect x="144.6" y="531.8875644538426" width="13.799999999999999" height="12.8192250596868" fill="#A02128"/><line x1="174.5" y1="497.7228447473143" x2="174.5" y2="590.4557656634578" stroke="#006340" stroke-width="1"/><rect x="167.6" y="538.4679994811978" width="13.799999999999999" height="6.238790032331622" fill="#006340"/><line x1="197.5" y1="443.88255981578413" x2="197.5" y2="548.0604551744797" stroke="#006340" stroke-width="1"/><rect x="190.6" y="488.7036901752929" width="13.799999999999999" height="49.76430930590493" fill="#006340"/><line x1="220.5" y1="445.32042096854843" x2="220.5" y2="541.3059040640696" stroke="#006340" stroke-width="1"/><rect x="213.6" y="462.17109932120945" width="13.799999999999999" height="26.532590854083423" fill="#006340"/><line x1="243.5" y1="412.381249511177" x2="243.5" y2="514.8282900991192" stroke="#A02128" stroke-width="1"/><rect x="236.6" y="462.17109932120945" width="13.799999999999999" height="48.23985092198069" fill="#A02128"/><line x1="266.5" y1="451.69258249576194" x2="266.5" y2="536.5868226079065" stroke="#006340" stroke-width="1"/><rect x="259.6" y="464.8476755491304" width="13.799999999999999" height="45.56327469405977" fill="#006340"/><line x1="289.5" y1="415.29921727224706" x2="289.5" y2="542.1826534723068" stroke="#A02128" stroke-width="1"/><rect x="282.6" y="464.8476755491304" width="13.799999999999999" height="26.026387736036213" fill="#A02128"/><line x1="312.5" y1="464.527516250975" x2="312.5" y2="503.7906635012129" stroke="#006340" stroke-width="1"/><rect x="305.6" y="485.07460615473195" width="13.799999999999999" height="5.799457130434632" fill="#006340"/><line x1="335.5" y1="420.9370028471312" x2="335.5" y2="500.24101645712614" stroke="#006340" stroke-width="1"/><rect x="328.6" y="468.82172914497926" width="13.799999999999999" height="16.252877009752694" fill="#006340"/><line x1="358.5" y1="371.9270209012548" x2="358.5" y2="504.0190808680498" stroke="#006340" stroke-width="1"/><rect x="351.6" y="396.106849415798" width="13.799999999999999" height="72.71487972918123" fill="#006340"/><line x1="381.5" y1="309.73572301254035" x2="381.5" y2="431.1947979688552" stroke="#006340" stroke-width="1"/><rect x="374.6" y="314.54926842673564" width="13.799999999999999" height="81.55758098906239" fill="#006340"/><line x1="404.5" y1="243.95886378509834" x2="404.5" y2="364.8706327939848" stroke="#006340" stroke-width="1"/><rect x="397.6" y="286.76846204674627" width="13.799999999999999" height="27.78080637998937" fill="#006340"/><line x1="427.5" y1="258.0575855481353" x2="427.5" y2="310.26005391597755" stroke="#006340" stroke-width="1"/><rect x="420.6" y="276.00102635640405" width="13.799999999999999" height="10.76743569034221" fill="#006340"/><line x1="450.5" y1="196.0522898477866" x2="450.5" y2="314.1620589853781" stroke="#006340" stroke-width="1"/><rect x="443.6" y="232.36545703896485" width="13.799999999999999" height="43.635569317439206" fill="#006340"/><line x1="473.5" y1="122.50892178889205" x2="473.5" y2="284.68666621404117" stroke="#006340" stroke-width="1"/><rect x="466.6" y="180.83497940409586" width="13.799999999999999" height="51.53047763486899" fill="#006340"/><line x1="496.5" y1="122.22288379875044" x2="496.5" y2="194.79197612848708" stroke="#006340" stroke-width="1"/><rect x="489.6" y="136.3273992400733" width="13.799999999999999" height="44.507580164022556" fill="#006340"/><line x1="519.5" y1="73.44508699489131" x2="519.5" y2="167.5332414341654" stroke="#006340" stroke-width="1"/><rect x="512.6" y="76.89016217108599" width="13.799999999999999" height="59.437237068987315" fill="#006340"/><line x1="542.5" y1="24" x2="542.5" y2="200.9074454260125" stroke="#A02128" stroke-width="1"/><rect x="535.6" y="76.89016217108599" width="13.799999999999999" height="72.07713452586358" fill="#A02128"/><line x1="565.5" y1="127.08404596827029" x2="565.5" y2="180.66786276679676" stroke="#006340" stroke-width="1"/><rect x="558.6" y="135.08582002344065" width="13.799999999999999" height="13.881476673508928" fill="#006340"/><line x1="588.5" y1="108.19272966695598" x2="588.5" y2="188.54467383466977" stroke="#A02128" stroke-width="1"/><rect x="581.6" y="135.08582002344065" width="13.799999999999999" height="50.80354907332401" fill="#A02128"/><line x1="611.5" y1="92.9384310710443" x2="611.5" y2="238.66660668761432" stroke="#006340" stroke-width="1"/><rect x="604.6" y="101.71964214948366" width="13.799999999999999" height="84.16972694728099" fill="#006340"/><line x1="634.5" y1="87.22367787516737" x2="634.5" y2="136.9206730905213" stroke="#006340" stroke-width="1"/><rect x="627.6" y="98.66526909957508" width="13.799999999999999" height="3.054373049908577" fill="#006340"/><line x1="657.5" y1="68.7524959811434" x2="657.5" y2="152.84776294561397" stroke="#A02128" stroke-width="1"/><rect x="650.6" y="98.66526909957508" width="13.799999999999999" height="13.92672030057895" fill="#A02128"/><line x1="680.5" y1="56.19461057106332" x2="680.5" y2="136.7245397574461" stroke="#006340" stroke-width="1"/><rect x="673.6" y="90.33356191599569" width="13.799999999999999" height="22.258427484158346" fill="#006340"/><line x1="703.5" y1="64.27662173756835" x2="703.5" y2="123.45260963476471" stroke="#006340" stroke-width="1"/><rect x="696.6" y="75.12898255681898" width="13.799999999999999" height="15.204579359176705" fill="#006340"/><line x1="726.5" y1="47.399543094904175" x2="726.5" y2="139.7472563477039" stroke="#A02128" stroke-width="1"/><rect x="719.6" y="75.12898255681898" width="13.799999999999999" height="14.407085632981762" fill="#A02128"/><line x1="749.5" y1="60.268961685236036" x2="749.5" y2="168.66176134899644" stroke="#A02128" stroke-width="1"/><rect x="742.6" y="89.53606818980074" width="13.799999999999999" height="52.57044634281078" fill="#A02128"/><line x1="772.5" y1="111.8930879678046" x2="772.5" y2="219.51349926177193" stroke="#A02128" stroke-width="1"/><rect x="765.6" y="142.10651453261153" width="13.799999999999999" height="40.83117221128373" fill="#A02128"/><line x1="795.5" y1="112.86014256494218" x2="795.5" y2="195.17943658644805" stroke="#006340" stroke-width="1"/><rect x="788.6" y="164.07097562703734" width="13.799999999999999" height="18.866711116857914" fill="#006340"/><line x1="818.5" y1="40.82370843533829" x2="818.5" y2="223.20535655686456" stroke="#006340" stroke-width="1"/><rect x="811.6" y="73.87756812150747" width="13.799999999999999" height="90.19340750552988" fill="#006340"/><line x1="841.5" y1="53.141600688067" x2="841.5" y2="172.07295572947567" stroke="#A02128" stroke-width="1"/><rect x="834.6" y="73.87756812150747" width="13.799999999999999" height="48.29440885374447" fill="#A02128"/><line x1="864.5" y1="81.30001527623165" x2="864.5" y2="202.69345011541895" stroke="#A02128" stroke-width="1"/><rect x="857.6" y="122.17197697525194" width="13.799999999999999" height="69.1136611231309" fill="#A02128"/><line x1="887.5" y1="137.13592633160886" x2="887.5" y2="232.73026026166764" stroke="#006340" stroke-width="1"/><rect x="880.6" y="170.23214758662823" width="13.799999999999999" height="21.053490511754603" fill="#006340"/><line x1="910.5" y1="95.53671174542114" x2="910.5" y2="222.01137768505043" stroke="#006340" stroke-width="1"/><rect x="903.6" y="133.42035535260936" width="13.799999999999999" height="36.81179223401887" fill="#006340"/><line x1="933.5" y1="93.11205705762723" x2="933.5" y2="198.69562157575388" stroke="#A02128" stroke-width="1"/><rect x="926.6" y="133.42035535260936" width="13.799999999999999" height="34.880063428966196" fill="#A02128"/><line x1="956.5" y1="141.69458308273818" x2="956.5" y2="199.25080166142135" stroke="#A02128" stroke-width="1"/><rect x="949.6" y="168.30041878157556" width="13.799999999999999" height="14.878413490700723" fill="#A02128"/><line x1="979.5" y1="172.88563986350414" x2="979.5" y2="252.1923049020233" stroke="#A02128" stroke-width="1"/><rect x="972.6" y="183.17883227227628" width="13.799999999999999" height="49.769735695853115" fill="#A02128"/><line x1="1002.5" y1="173.89825915137885" x2="1002.5" y2="282.7702987561028" stroke="#A02128" stroke-width="1"/><rect x="995.6" y="232.9485679681294" width="13.799999999999999" height="25.419999984244953" fill="#A02128"/><line x1="1025.5" y1="136.75212653477206" x2="1025.5" y2="278.1447089161564" stroke="#006340" stroke-width="1"/><rect x="1018.6" y="190.42691984763422" width="13.799999999999999" height="67.94164810474012" fill="#006340"/><line x1="1048.5" y1="162.7586630366393" x2="1048.5" y2="235.66699586700253" stroke="#006340" stroke-width="1"/><rect x="1041.6" y="181.4003915765532" width="13.799999999999999" height="9.02652827108102" fill="#006340"/><line x1="1071.5" y1="135.49599957407565" x2="1071.5" y2="203.94983638045449" stroke="#A02128" stroke-width="1"/><rect x="1064.6" y="181.4003915765532" width="13.799999999999999" height="11.19832791479206" fill="#A02128"/><line x1="1094.5" y1="162.00404807981022" x2="1094.5" y2="266.8800108526648" stroke="#A02128" stroke-width="1"/><rect x="1087.6" y="192.59871949134526" width="13.799999999999999" height="58.700675895937536" fill="#A02128"/><line x1="1117.5" y1="205.89323239464306" x2="1117.5" y2="519.2282637180072" stroke="#A02128" stroke-width="1"/><rect x="1110.6" y="251.2993953872828" width="13.799999999999999" height="224.58146922226098" fill="#A02128"/><line x1="1140.5" y1="329.2925908368684" x2="1140.5" y2="505.5461775967442" stroke="#006340" stroke-width="1"/><rect x="1133.6" y="357.90073277811575" width="13.799999999999999" height="117.98013183142803" fill="#006340"/>
</svg>