<svg xmlns="http://www.w3.org/2000/svg" width="1200" height="700">
  <rect width="100%" height="100%" fill="#0d1117"/>
  <line x1="48" y1="24" x2="1152" y2="24" stroke="#21262d" stroke-width="1"/><line x1="48" y1="181" x2="1152" y2="181" stroke="#21262d" stroke-width="1"/><line x1="48" y1="338" x2="1152" y2="338" stroke="#21262d" stroke-width="1"/><line x1="48" y1="495" x2="1152" y2="495" stroke="#21262d" stroke-width="1"/><line x1="48" y1="652" x2="1152" y2="652" stroke="#21262d" stroke-width="1"/>
  <line x1="59.5" y1="616.6512203610826" x2="59.5" y2="652" stroke="#A02128" stroke-width="1"/><rect x="52.6" y="619.8955780075951" width="13.799999999999999" height="12.344547742261966" fill="#A02128"/><line x1="82.5" y1="598.8507266493003" x2="82.5" y2="632.9783338027129" stroke="#006340" stroke-width="1"/><rect x="75.6" y="614.5912164130805" width="13.799999999999999" height="17.64890933677657" fill="#006340"/><line x1="105.5" y1="598.4343217225171" x2="105.5" y2="636.3720485115102" stroke="#A02128" stroke-width="1"/><rect x="98.6" y="614.5912164130805" width="13.799999999999999" height="2.1896091693402013" fill="#A02128"/><line x1="128.5" y1="578.0912835474104" x2="128.5" y2="623.200405120682" stroke="#006340" stroke-width="1"/><rect x="121.6" y="578.4494542774843" width="13.799999999999999" height="38.3313713049364" fill="#006340"/><line x1="151.5" y1="533.1103606550798" x2="151.5" y2="579.0789433830843" stroke="#006340" stroke-width="1"/><rect x="144.6" y="552.440927875628" width="13.799999999999999" height="26.00852640185633" fill="#006340"/><line x1="174.5" y1="544.2511379052373" x2="174.5" y2="560.3947640007236" stroke="#006340" stroke-width="1"/><rect x="167.6" y="549.3552260377824" width="13.799999999999999" height="3.0857018378455905" fill="#006340"/><line x1="197.5" y1="546.4253605925167" x2="197.5" y2="579.2466388989557" stroke="#A02128" stroke-width="1"/><rect x="190.6" y="549.3552260377824" width="13.799999999999999" height="13.579564068451873" fill="#A02128"/><line x1="220.5" y1="549.0111520964241" x2="220.5" y2="571.2178225685362" stroke="#A02128" stroke-width="1"/><rect x="213.6" y="562.9347901062342" width="13.799999999999999" height="4.628697488786543" fill="#A02128"/><line x1="243.5" y1="539.4745073141294" x2="243.5" y2="574.403214505182" stroke="#006340" stroke-width="1"/><rect x="236.6" y="557.0998450534155" width="13.799999999999999" height="10.463642541605282" fill="#006340"/><line x1="266.5" y1="545.8097771756713" x2="266.5" y2="573.3207823167638" stroke="#006340" stroke-width="1"/><rect x="259.6" y="547.9591551074042" width="13.799999999999999" height="9.140689946011321" fill="#006340"/><line x1="289.5" y1="517.4429282742165" x2="289.5" y2="566.3684590411654" stroke="#006340" stroke-width="1"/><rect x="282.6" y="520.9513581355409" width="13.799999999999999" height="27.007796971863286" fill="#006340"/><line x1="312.5" y1="467.76575194855377" x2="312.5" y2="536.1716286361612" stroke="#006340" stroke-width="1"/><rect x="305.6" y="477.5029617760549" width="13.799999999999999" height="43.44839635948597" fill="#006340"/><line x1="335.5" y1="462.62949824731027" x2="335.5" y2="486.0622762378376" stroke="#A02128" stroke-width="1"/><rect x="328.6" y="477.5029617760549" width="13.799999999999999" height="7.266860512804328" fill="#A02128"/><line x1="358.5" y1="468.21471807633003" x2="358.5" y2="499.23588144959064" stroke="#006340" stroke-width="1"/><rect x="351.6" y="471.6164296751414" width="13.799999999999999" height="13.15339261371787" fill="#006340"/><line x1="381.5" y1="417.22672703240596" x2="381.5" y2="472.4376487664819" stroke="#006340" stroke-width="1"/><rect x="374.6" y="433.05292450765637" width="13.799999999999999" height="38.563505167485005" fill="#006340"/><line x1="404.5" y1="406.5546505642466" x2="404.5" y2="446.83259285501396" stroke="#006340" stroke-width="1"/><rect x="397.6" y="411.1316748405144" width="13.799999999999999" height="21.92124966714198" fill="#006340"/><line x1="427.5" y1="382.5747476483839" x2="427.5" y2="424.1870559315455" stroke="#006340" stroke-width="1"/><rect x="420.6" y="398.4149100346404" width="13.799999999999999" height="12.716764805873993" fill="#006340"/><line x1="450.5" y1="347.23657748431623" x2="450.5" y2="402.2749411592773" stroke="#006340" stroke-width="1"/><rect x="443.6" y="366.5937090814431" width="13.799999999999999" height="31.82120095319732" fill="#006340"/><line x1="473.5" y1="357.21122750531464" x2="473.5" y2="378.1739923534557" stroke="#006340" stroke-width="1"/><rect x="466.6" y="359.3775184161874" width="13.799999999999999" height="7.216190665255681" fill="#006340"/><line x1="496.5" y1="339.1651973643358" x2="496.5" y2="392.9307142819523" stroke="#A02128" stroke-width="1"/><rect x="489.6" y="359.3775184161874" width="13.799999999999999" height="14.90101039660226" fill="#A02128"/><line x1="519.5" y1="359.59041850870506" x2="519.5" y2="384.14653178700127" stroke="#006340" stroke-width="1"/><rect x="512.6" y="364.2326189156122" width="13.799999999999999" height="10.045909897177467" fill="#006340"/><line x1="542.5" y1="353.78662045706915" x2="542.5" y2="381.6988788201915" stroke="#A02128" stroke-width="1"/><rect x="535.6" y="364.2326189156122" width="13.799999999999999" height="2.825714475884638" fill="#A02128"/><line x1="565.5" y1="332.3138009880369" x2="565.5" y2="368.2801327776114" stroke="#006340" stroke-width="1"/><rect x="558.6" y="346.7313032964452" width="13.799999999999999" height="20.32703009505161" fill="#006340"/><line x1="588.5" y1="339.89345135919405" x2="588.5" y2="362.500909917845" stroke="#A02128" stroke-width="1"/><rect x="581.6" y="346.7313032964452" width="13.799999999999999" height="10.918715776823944" fill="#A02128"/><line x1="611.5" y1="303.2608182548668" x2="611.5" y2="360.0204060336199" stroke="#006340" stroke-width="1"/><rect x="604.6" y="320.21511505573653" width="13.799999999999999" height="37.43490401753263" fill="#006340"/><line x1="634.5" y1="293.91037556352506" x2="634.5" y2="338.32794894287673" stroke="#006340" stroke-width="1"/><rect x="627.6" y="308.68253742500605" width="13.799999999999999" height="11.532577630730486" fill="#006340"/><line x1="657.5" y1="295.9513062677891" x2="657.5" y2="324.4453595480275" stroke="#A02128" stroke-width="1"/><rect x="650.6" y="308.68253742500605" width="13.799999999999999" height="4.336852127600764" fill="#A02128"/><line x1="680.5" y1="289.6193131616786" x2="680.5" y2="334.47602014812503" stroke="#006340" stroke-width="1"/><rect x="673.6" y="301.654411375759" width="13.799999999999999" height="11.364978176847785" fill="#006340"/><line x1="703.5" y1="291.4949524746943" x2="703.5" y2="316.2340213923355" stroke="#A02128" stroke-width="1"/><rect x="696.6" y="301.654411375759" width="13.799999999999999" height="7.266306886127893" fill="#A02128"/><line x1="726.5" y1="302.0363167515536" x2="726.5" y2="331.7296051419271" stroke="#A02128" stroke-width="1"/><rect x="719.6" y="308.9207182618869" width="13.799999999999999" height="11.162390742550258" fill="#A02128"/><line x1="749.5" y1="277.7560891009371" x2="749.5" y2="328.040614047149" stroke="#006340" stroke-width="1"/><rect x="742.6" y="294.3075298121399" width="13.799999999999999" height="25.7755791922973" fill="#006340"/><line x1="772.5" y1="252.38453377331098" x2="772.5" y2="304.0770924228277" stroke="#006340" stroke-width="1"/><rect x="765.6" y="255.80142113653005" width="13.799999999999999" height="38.50610867560982" fill="#006340"/><line x1="795.5" y1="223.47278953757814" x2="795.5" y2="259.86933627991044" stroke="#006340" stroke-width="1"/><rect x="788.6" y="238.30608582616952" width="13.799999999999999" height="17.49533531036053" fill="#006340"/><line x1="818.5" y1="217.55385841791428" x2="818.5" y2="248.45599020423447" stroke="#A02128" stroke-width="1"/><rect x="811.6" y="238.30608582616952" width="13.799999999999999" height="2.685908642562083" fill="#A02128"/><line x1="841.5" y1="202.35159303427156" x2="841.5" y2="260.9342914247145" stroke="#006340" stroke-width="1"/><rect x="834.6" y="207.5937759093414" width="13.799999999999999" height="33.398218559390216" fill="#006340"/><line x1="864.5" y1="202.47307149669638" x2="864.5" y2="231.65123769368336" stroke="#A02128" stroke-width="1"/><rect x="857.6" y="207.5937759093414" width="13.799999999999999" height="3.780026160651687" fill="#A02128"/><line x1="887.5" y1="166.44052823367986" x2="887.5" y2="218.8908595388246" stroke="#006340" stroke-width="1"/><rect x="880.6" y="187.9616035856725" width="13.799999999999999" height="23.412198484320584" fill="#006340"/><line x1="910.5" y1="139.41337981288905" x2="910.5" y2="199.4812789202133" stroke="#006340" stroke-width="1"/><rect x="903.6" y="162.35852263731846" width="13.799999999999999" height="25.603080948354034" fill="#006340"/><line x1="933.5" y1="133.92398118305084" x2="933.5" y2="168.4693036858498" stroke="#006340" stroke-width="1"/><rect x="926.6" y="153.0139260416425" width="13.799999999999999" height="9.344596595675966" fill="#006340"/><line x1="956.5" y1="121.63933799173469" x2="956.5" y2="165.5274079152116" stroke="#006340" stroke-width="1"/><rect x="949.6" y="125.52147613726629" width="13.799999999999999" height="27.4924499043762" fill="#006340"/><line x1="979.5" y1="108.18487115357539" x2="979.5" y2="155.65300274348414" stroke="#A02128" stroke-width="1"/><rect x="972.6" y="125.52147613726629" width="13.799999999999999" height="12.866265720817637" fill="#A02128"/><line x1="1002.5" y1="94.44476371873986" x2="1002.5" y2="159.72963063590083" stroke="#006340" stroke-width="1"/><rect x="995.6" y="105.41700377289578" width="13.799999999999999" height="32.970738085188145" fill="#006340"/><line x1="1025.5" y1="79.31268323735799" x2="1025.5" y2="116.77355287500313" stroke="#006340" stroke-width="1"/><rect x="1018.6" y="102.38831798077422" width="13.799999999999999" height="3.028685792121564" fill="#006340"/><line x1="1048.5" y1="99.84066045136728" x2="1048.5" y2="139.15853825308807" stroke="#A02128" stroke-width="1"/><rect x="1041.6" y="102.38831798077422" width="13.799999999999999" height="14.754584640426174" fill="#A02128"/><line x1="1071.5" y1="94.38443893015949" x2="1071.5" y2="120.00978057877205" stroke="#006340" stroke-width="1"/><rect x="1064.6" y="103.50899102814617" width="13.799999999999999" height="13.633911593054222" fill="#006340"/><line x1="1094.5" y1="75.50330724585399" x2="1094.5" y2="103.81991503265863" stroke="#006340" stroke-width="1"/><rect x="1087.6" y="94.21992704978754" width="13.799999999999999" height="9.289063978358627" fill="#006340"/><line x1="1117.5" y1="42.31796939274352" x2="1117.5" y2="112.17345945141903" stroke="#006340" stroke-width="1"/><rect x="1110.6" y="48.9761210504098" width="13.799999999999999" height="45.24380599937774" fill="#006340"/><line x1="1140.5" y1="24" x2="1140.5" y2="66.0172001693162" stroke="#006340" stroke-width="1"/><rect x="1133.6" y="37.56587807715971" width="13.799999999999999" height="11.410242973250092" fill="#006340"/>
</svg>