<svg xmlns="http://www.w3.org/2000/svg" width="1200" height="700">
  <rect width="100%" height="100%" fill="#0d1117"/>
  <line x1="48" y1="24" x2="1152" y2="24" stroke="#21262d" stroke-width="1"/><line x1="48" y1="181" x2="1152" y2="181" stroke="#21262d" stroke-width="1"/><line x1="48" y1="338" x2="1152" y2="338" stroke="#21262d" stroke-width="1"/><line x1="48" y1="495" x2="1152" y2="495" stroke="#21262d" stroke-width="1"/><line x1="48" y1="652" x2="1152" y2="652" stroke="#21262d" stroke-width="1"/>
  <line x1="59.5" y1="618.7596004331978" x2="59.5" y2="652" stroke="#006340" stroke-width="1"/><rect x="52.6" y="625.6095900088754" width="13.799999999999999" height="21.668025369797988" fill="#006340"/><line x1="82.5" y1="601.910821994207" x2="82.5" y2="630.8124831935206" stroke="#006340" stroke-width="1"/><rect x="75.6" y="612.0839605383093" width="13.799999999999999" height="13.525629470566173" fill="#006340"/><line x1="105.5" y1="597.472166068985" x2="105.5" y2="620.714749699288" stroke="#006340" stroke-width="1"/><rect x="98.6" y="605.2332978671243" width="13.799999999999999" height="6.850662671184978" fill="#006340"/><line x1="128.5" y1="601.525944865355" x2="128.5" y2="620.1851460490712" stroke="#A02128" stroke-width="1"/><rect x="121.6" y="605.2332978671243" width="13.799999999999999" height="8.513202238725626" fill="#A02128"/><line x1="151.5" y1="582.5602203238036" x2="151.5" y2="621.0646400555922" stroke="#006340" stroke-width="1"/><rect x="144.6" y="593.3491864244432" width="13.799999999999999" height="20.397313681406672" fill="#006340"/><line x1="174.5" y1="557.2748614874994" x2="174.5" y2="604.9089301580144" stroke="#006340" stroke-width="1"/><rect x="167.6" y="567.7236156818719" width="13.799999999999999" height="25.625570742571313" fill="#006340"/><line x1="197.5" y1="546.6556348402013" x2="197.5" y2="577.5241278346874" stroke="#006340" stroke-width="1"/><rect x="190.6" y="558.3314194182395" width="13.799999999999999" height="9.3921962636324" fill="#006340"/><line x1="220.5" y1="540.5437518974292" x2="220.5" y2="561.7465415504535" stroke="#006340" stroke-width="1"/><rect x="213.6" y="543.4759654504276" width="13.799999999999999" height="14.855453967811968" fill="#006340"/><line x1="243.5" y1="542.9176486367803" x2="243.5" y2="555.8556057978938" stroke="#A02128" stroke-width="1"/><rect x="236.6" y="543.4759654504276" width="13.799999999999999" height="4.78853522351676" fill="#A02128"/><line x1="266.5" y1="530.7774344270399" x2="266.5" y2="557.5905923221457" stroke="#006340" stroke-width="1"/><rect x="259.6" y="539.507172205978" width="13.799999999999999" height="8.757328467966317" fill="#006340"/><line x1="289.5" y1="520.8908967219556" x2="289.5" y2="546.8922582369873" stroke="#006340" stroke-width="1"/><rect x="282.6" y="532.6871727816471" width="13.799999999999999" height="6.819999424330945" fill="#006340"/><line x1="312.5" y1="531.5838112064124" x2="312.5" y2="539.3580813647297" stroke="#A02128" stroke-width="1"/><rect x="305.6" y="532.6871727816471" width="13.799999999999999" height="5.176000865579908" fill="#A02128"/><line x1="335.5" y1="503.9768556079084" x2="335.5" y2="548.3984477719923" stroke="#006340" stroke-width="1"/><rect x="328.6" y="512.1032400119996" width="13.799999999999999" height="25.759933635227412" fill="#006340"/><line x1="358.5" y1="500.7749057149674" x2="358.5" y2="520.2315108691644" stroke="#006340" stroke-width="1"/><rect x="351.6" y="505.87082163153514" width="13.799999999999999" height="6.2324183804644235" fill="#006340"/><line x1="381.5" y1="468.65443622992956" x2="381.5" y2="508.33499052036257" stroke="#006340" stroke-width="1"/><rect x="374.6" y="479.53109586167585" width="13.799999999999999" height="26.339725769859285" fill="#006340"/><line x1="404.5" y1="456.4238520826292" x2="404.5" y2="483.6687360065239" stroke="#006340" stroke-width="1"/><rect x="397.6" y="459.94583106715083" width="13.799999999999999" height="19.585264794525017" fill="#006340"/><line x1="427.5" y1="425.93777337933545" x2="427.5" y2="465.5702521162913" stroke="#006340" stroke-width="1"/><rect x="420.6" y="434.51246439223485" width="13.799999999999999" height="25.433366674915987" fill="#006340"/><line x1="450.5" y1="416.0529002645982" x2="450.5" y2="437.5880613944609" stroke="#006340" stroke-width="1"/><rect x="443.6" y="425.27768399258173" width="13.799999999999999" height="9.234780399653118" fill="#006340"/><line x1="473.5" y1="414.245434043768" x2="473.5" y2="426.9946434117606" stroke="#006340" stroke-width="1"/><rect x="466.6" y="417.4108568035897" width="13.799999999999999" height="7.866827188992033" fill="#006340"/><line x1="496.5" y1="403.0032157788416" x2="496.5" y2="420.63500949501406" stroke="#006340" stroke-width="1"/><rect x="489.6" y="411.9037292249724" width="13.799999999999999" height="5.507127578617315" fill="#006340"/><line x1="519.5" y1="380.990306529306" x2="519.5" y2="418.88339198702283" stroke="#006340" stroke-width="1"/><rect x="512.6" y="384.4025261171277" width="13.799999999999999" height="27.501203107844674" fill="#006340"/><line x1="542.5" y1="375.1315848337006" x2="542.5" y2="388.0648602874831" stroke="#006340" stroke-width="1"/><rect x="535.6" y="377.3762427694637" width="13.799999999999999" height="7.026283347663991" fill="#006340"/><line x1="565.5" y1="349.184371138386" x2="565.5" y2="385.67805996272926" stroke="#006340" stroke-width="1"/><rect x="558.6" y="354.6519686267824" width="13.799999999999999" height="22.724274142681338" fill="#006340"/><line x1="588.5" y1="315.8842963820278" x2="588.5" y2="364.0217148381883" stroke="#006340" stroke-width="1"/><rect x="581.6" y="327.3007765873566" width="13.799999999999999" height="27.35119203942577" fill="#006340"/><line x1="611.5" y1="300.2067050864069" x2="611.5" y2="331.35576993186123" stroke="#006340" stroke-width="1"/><rect x="604.6" y="300.9973356012031" width="13.799999999999999" height="26.303440986153532" fill="#006340"/><line x1="634.5" y1="281.99721114117733" x2="634.5" y2="307.77090950981426" stroke="#006340" stroke-width="1"/><rect x="627.6" y="294.2888543944498" width="13.799999999999999" height="6.708481206753277" fill="#006340"/><line x1="657.5" y1="268.83026700830067" x2="657.5" y2="298.22859390511866" stroke="#006340" stroke-width="1"/><rect x="650.6" y="276.0188310135659" width="13.799999999999999" height="18.270023380883913" fill="#006340"/><line x1="680.5" y1="251.01142529696" x2="680.5" y2="285.40099855726646" stroke="#006340" stroke-width="1"/><rect x="673.6" y="258.78373086838764" width="13.799999999999999" height="17.23510014517825" fill="#006340"/><line x1="703.5" y1="231.54093010740303" x2="703.5" y2="267.5667384721787" stroke="#006340" stroke-width="1"/><rect x="696.6" y="236.20742024703662" width="13.799999999999999" height="22.576310621351013" fill="#006340"/><line x1="726.5" y1="217.85991656476864" x2="726.5" y2="237.5367443823057" stroke="#006340" stroke-width="1"/><rect x="719.6" y="227.81869376256867" width="13.799999999999999" height="8.388726484467952" fill="#006340"/><line x1="749.5" y1="195.49205412475357" x2="749.5" y2="231.7675905528311" stroke="#006340" stroke-width="1"/><rect x="742.6" y="207.90307199628364" width="13.799999999999999" height="19.915621766285028" fill="#006340"/><line x1="772.5" y1="189.2759349030984" x2="772.5" y2="220.22547187163542" stroke="#006340" stroke-width="1"/><rect x="765.6" y="193.51221878504037" width="13.799999999999999" height="14.390853211243268" fill="#006340"/><line x1="795.5" y1="187.6693469572246" x2="795.5" y2="201.57723466538965" stroke="#006340" stroke-width="1"/><rect x="788.6" y="192.25025363616032" width="13.799999999999999" height="1.2619651488800514" fill="#006340"/><line x1="818.5" y1="182.30752235521408" x2="818.5" y2="200.743218018032" stroke="#006340" stroke-width="1"/><rect x="811.6" y="184.9836806159209" width="13.799999999999999" height="7.266573020239434" fill="#006340"/><line x1="841.5" y1="182.03050985814502" x2="841.5" y2="192.89021795990794" stroke="#A02128" stroke-width="1"/><rect x="834.6" y="184.9836806159209" width="13.799999999999999" height="5.494553596997832" fill="#A02128"/><line x1="864.5" y1="155.67304239749456" x2="864.5" y2="191.32423895925865" stroke="#006340" stroke-width="1"/><rect x="857.6" y="164.12581253307195" width="13.799999999999999" height="26.35242167984677" fill="#006340"/><line x1="887.5" y1="142.20894372055483" x2="887.5" y2="173.3416108488405" stroke="#006340" stroke-width="1"/><rect x="880.6" y="150.52068955551772" width="13.799999999999999" height="13.605122977554231" fill="#006340"/><line x1="910.5" y1="148.85918896730993" x2="910.5" y2="157.70805584461056" stroke="#006340" stroke-width="1"/><rect x="903.6" y="150.23356411976187" width="13.799999999999999" height="1" fill="#006340"/><line x1="933.5" y1="130.92475055174975" x2="933.5" y2="150.85720388228742" stroke="#006340" stroke-width="1"/><rect x="926.6" y="138.76493330800383" width="13.799999999999999" height="11.468630811758032" fill="#006340"/><line x1="956.5" y1="135.96481895755812" x2="956.5" y2="149.6994947385836" stroke="#006340" stroke-width="1"/><rect x="949.6" y="138.74019033467653" width="13.799999999999999" height="1" fill="#006340"/><line x1="979.5" y1="117.67943106593145" x2="979.5" y2="142.80265287366598" stroke="#006340" stroke-width="1"/><rect x="972.6" y="120.41870980765566" width="13.799999999999999" height="18.321480527020867" fill="#006340"/><line x1="1002.5" y1="85.75214324653484" x2="1002.5" y2="125.74955007953417" stroke="#006340" stroke-width="1"/><rect x="995.6" y="95.40451647985822" width="13.799999999999999" height="25.014193327797443" fill="#006340"/><line x1="1025.5" y1="90.7711237080947" x2="1025.5" y2="95.5457923284223" stroke="#006340" stroke-width="1"/><rect x="1018.6" y="91.52760037845042" width="13.799999999999999" height="3.876916101407801" fill="#006340"/><line x1="1048.5" y1="81.57982502571338" x2="1048.5" y2="102.90308990715619" stroke="#A02128" stroke-width="1"/><rect x="1041.6" y="91.52760037845042" width="13.799999999999999" height="5.862893997708511" fill="#A02128"/><line x1="1071.5" y1="67.50133218270935" x2="1071.5" y2="102.32016234842774" stroke="#006340" stroke-width="1"/><rect x="1064.6" y="75.56357052805754" width="13.799999999999999" height="21.826923848101387" fill="#006340"/><line x1="1094.5" y1="39.55296270794713" x2="1094.5" y2="86.08041681814166" stroke="#006340" stroke-width="1"/><rect x="1087.6" y="51.07688606504962" width="13.799999999999999" height="24.48668446300792" fill="#006340"/><line x1="1117.5" y1="35.947939383952416" x2="1117.5" y2="53.859406275100696" stroke="#006340" stroke-width="1"/><rect x="1110.6" y="46.27345853446718" width="13.799999999999999" height="4.803427530582439" fill="#006340"/><line x1="1140.5" y1="24" x2="1140.5" y2="49.412377554277214" stroke="#006340" stroke-width="1"/><rect x="1133.6" y="24.10108518161576" width="13.799999999999999" height="22.172373352851423" fill="#006340"/>
</svg>