<svg xmlns="http://www.w3.org/2000/svg" width="1200" height="700">
  <rect width="100%" height="100%" fill="#0d1117"/>
  <line x1="48" y1="24" x2="1152" y2="24" stroke="#21262d" stroke-width="1"/><line x1="48" y1="181" x2="1152" y2="181" stroke="#21262d" stroke-width="1"/><line x1="48" y1="338" x2="1152" y2="338" stroke="#21262d" stroke-width="1"/><line x1="48" y1="495" x2="1152" y2="495" stroke="#21262d" stroke-width="1"/><line x1="48" y1="652" x2="1152" y2="652" stroke="#21262d" stroke-width="1"/>
  <line x1="59.5" y1="616.1639780725689" x2="59.5" y2="652" stroke="#006340" stroke-width="1"/><rect x="52.6" y="621.4994223732233" width="13.799999999999999" height="19.086775216868432" fill="#006340"/><line x1="82.5" y1="618.811688169124" x2="82.5" y2="640.8973761368687" stroke="#A02128" stroke-width="1"/><rect x="75.6" y="621.4994223732233" width="13.799999999999999" height="4.105555528636501" fill="#A02128"/><line x1="105.5" y1="597.6990562231886" x2="105.5" y2="632.3950762338591" stroke="#006340" stroke-width="1"/><rect x="98.6" y="606.474114313468" width="13.799999999999999" height="19.130863588391776" fill="#006340"/><line x1="128.5" y1="595.6156660397943" x2="128.5" y2="614.0420680708418" stroke="#006340" stroke-width="1"/><rect x="121.6" y="596.0536716347701" width="13.799999999999999" height="10.420442678697896" fill="#006340"/><line x1="151.5" y1="579.7974605134399" x2="151.5" y2="611.5978044340885" stroke="#006340" stroke-width="1"/><rect x="144.6" y="580.5318132419923" width="13.799999999999999" height="15.521858392777858" fill="#006340"/><line x1="174.5" y1="569.3552778992544" x2="174.5" y2="582.7839334237086" stroke="#006340" stroke-width="1"/><rect x="167.6" y="573.8286210871726" width="13.799999999999999" height="6.703192154819703" fill="#006340"/><line x1="197.5" y1="559.6889013414914" x2="197.5" y2="584.6075703401418" stroke="#006340" stroke-width="1"/><rect x="190.6" y="570.2257082727645" width="13.799999999999999" height="3.602912814408114" fill="#006340"/><line x1="220.5" y1="550.4764700233011" x2="220.5" y2="571.8480423956098" stroke="#006340" stroke-width="1"/><rect x="213.6" y="557.937040416727" width="13.799999999999999" height="12.288667856037478" fill="#006340"/><line x1="243.5" y1="549.1838998660447" x2="243.5" y2="572.3447930387798" stroke="#A02128" stroke-width="1"/><rect x="236.6" y="557.937040416727" width="13.799999999999999" height="2.953459439233143" fill="#A02128"/><line x1="266.5" y1="518.0626277535275" x2="266.5" y2="563.8395810159383" stroke="#006340" stroke-width="1"/><rect x="259.6" y="528.3979825524117" width="13.799999999999999" height="32.492517303548425" fill="#006340"/><line x1="289.5" y1="503.964466709096" x2="289.5" y2="532.3765661288021" stroke="#006340" stroke-width="1"/><rect x="282.6" y="514.6142206234861" width="13.799999999999999" height="13.783761928925628" fill="#006340"/><line x1="312.5" y1="485.16378210859904" x2="312.5" y2="524.1828478755264" stroke="#006340" stroke-width="1"/><rect x="305.6" y="488.8897378846706" width="13.799999999999999" height="25.72448273881548" fill="#006340"/><line x1="335.5" y1="472.13775998958374" x2="335.5" y2="494.9757675872372" stroke="#006340" stroke-width="1"/><rect x="328.6" y="483.6734339933182" width="13.799999999999999" height="5.216303891352368" fill="#006340"/><line x1="358.5" y1="478.4279195870531" x2="358.5" y2="505.7834385202877" stroke="#A02128" stroke-width="1"/><rect x="351.6" y="483.6734339933182" width="13.799999999999999" height="7.57385293170347" fill="#A02128"/><line x1="381.5" y1="480.9091148560001" x2="381.5" y2="492.00254377286007" stroke="#006340" stroke-width="1"/><rect x="374.6" y="487.77083635717486" width="13.799999999999999" height="3.4764505678468254" fill="#006340"/><line x1="404.5" y1="458.21509524185365" x2="404.5" y2="492.60428744935643" stroke="#006340" stroke-width="1"/><rect x="397.6" y="471.93071310662043" width="13.799999999999999" height="15.840123250554427" fill="#006340"/><line x1="427.5" y1="463.3213475478053" x2="427.5" y2="477.22632867608263" stroke="#A02128" stroke-width="1"/><rect x="420.6" y="471.93071310662043" width="13.799999999999999" height="1.3305271301904327" fill="#A02128"/><line x1="450.5" y1="449.13989358624775" x2="450.5" y2="489.5937070877251" stroke="#006340" stroke-width="1"/><rect x="443.6" y="464.5494466177745" width="13.799999999999999" height="8.71179361903637" fill="#006340"/><line x1="473.5" y1="439.6004254454207" x2="473.5" y2="480.7573920846158" stroke="#006340" stroke-width="1"/><rect x="466.6" y="441.7121294985527" width="13.799999999999999" height="22.83731711922178" fill="#006340"/><line x1="496.5" y1="432.2400634225231" x2="496.5" y2="445.95903357019915" stroke="#A02128" stroke-width="1"/><rect x="489.6" y="441.7121294985527" width="13.799999999999999" height="1" fill="#A02128"/><line x1="519.5" y1="425.7754530378328" x2="519.5" y2="466.1057096513781" stroke="#A02128" stroke-width="1"/><rect x="512.6" y="441.8291736937841" width="13.799999999999999" height="11.452101121936437" fill="#A02128"/><line x1="542.5" y1="436.1353064934483" x2="542.5" y2="454.0676647558938" stroke="#006340" stroke-width="1"/><rect x="535.6" y="438.89986774046724" width="13.799999999999999" height="14.381407075253321" fill="#006340"/><line x1="565.5" y1="422.0792829129943" x2="565.5" y2="463.4108466189332" stroke="#A02128" stroke-width="1"/><rect x="558.6" y="438.89986774046724" width="13.799999999999999" height="10.85381810224834" fill="#A02128"/><line x1="588.5" y1="417.45240824239346" x2="588.5" y2="458.0958449812447" stroke="#006340" stroke-width="1"/><rect x="581.6" y="428.3657229764233" width="13.799999999999999" height="21.3879628662923" fill="#006340"/><line x1="611.5" y1="380.5660213392043" x2="611.5" y2="437.0355541644035" stroke="#006340" stroke-width="1"/><rect x="604.6" y="397.03608294466073" width="13.799999999999999" height="31.32964003176255" fill="#006340"/><line x1="634.5" y1="363.6115627531275" x2="634.5" y2="402.7433937886304" stroke="#006340" stroke-width="1"/><rect x="627.6" y="370.61772743091893" width="13.799999999999999" height="26.4183555137418" fill="#006340"/><line x1="657.5" y1="321.9063276096154" x2="657.5" y2="386.1627595455799" stroke="#006340" stroke-width="1"/><rect x="650.6" y="336.2831527604148" width="13.799999999999999" height="34.33457467050414" fill="#006340"/><line x1="680.5" y1="308.4990971713503" x2="680.5" y2="340.8292685068774" stroke="#006340" stroke-width="1"/><rect x="673.6" y="323.4839202546685" width="13.799999999999999" height="12.799232505746318" fill="#006340"/><line x1="703.5" y1="305.77545738934964" x2="703.5" y2="330.3932022836156" stroke="#006340" stroke-width="1"/><rect x="696.6" y="309.9610608126764" width="13.799999999999999" height="13.522859441992068" fill="#006340"/><line x1="726.5" y1="304.93335258782747" x2="726.5" y2="321.651750534509" stroke="#006340" stroke-width="1"/><rect x="719.6" y="306.8667080079876" width="13.799999999999999" height="3.0943528046888105" fill="#006340"/><line x1="749.5" y1="268.2776657880622" x2="749.5" y2="312.851322124111" stroke="#006340" stroke-width="1"/><rect x="742.6" y="276.68271345017763" width="13.799999999999999" height="30.183994557809967" fill="#006340"/><line x1="772.5" y1="239.79207411081074" x2="772.5" y2="285.18166373261334" stroke="#006340" stroke-width="1"/><rect x="765.6" y="243.14303051731508" width="13.799999999999999" height="33.53968293286255" fill="#006340"/><line x1="795.5" y1="219.97876982624246" x2="795.5" y2="259.5239298538833" stroke="#006340" stroke-width="1"/><rect x="788.6" y="230.27897581424742" width="13.799999999999999" height="12.864054703067666" fill="#006340"/><line x1="818.5" y1="201.3057732951691" x2="818.5" y2="243.97192474629026" stroke="#006340" stroke-width="1"/><rect x="811.6" y="216.01805778170052" width="13.799999999999999" height="14.260918032546897" fill="#006340"/><line x1="841.5" y1="201.40020234211534" x2="841.5" y2="233.90173030887325" stroke="#A02128" stroke-width="1"/><rect x="834.6" y="216.01805778170052" width="13.799999999999999" height="2.7092704160239123" fill="#A02128"/><line x1="864.5" y1="209.29411286033985" x2="864.5" y2="238.6233534453159" stroke="#A02128" stroke-width="1"/><rect x="857.6" y="218.72732819772443" width="13.799999999999999" height="2.729587837167685" fill="#A02128"/><line x1="887.5" y1="178.93792290682057" x2="887.5" y2="235.50106475583198" stroke="#006340" stroke-width="1"/><rect x="880.6" y="192.46774698811214" width="13.799999999999999" height="28.989169046779978" fill="#006340"/><line x1="910.5" y1="163.9688021017526" x2="910.5" y2="201.10383046569797" stroke="#006340" stroke-width="1"/><rect x="903.6" y="176.53739219378406" width="13.799999999999999" height="15.930354794328082" fill="#006340"/><line x1="933.5" y1="152.20267304667578" x2="933.5" y2="194.07400701238544" stroke="#006340" stroke-width="1"/><rect x="926.6" y="165.41550597823306" width="13.799999999999999" height="11.121886215551001" fill="#006340"/><line x1="956.5" y1="138.81882308736488" x2="956.5" y2="169.48824023528897" stroke="#006340" stroke-width="1"/><rect x="949.6" y="153.15774736905456" width="13.799999999999999" height="12.257758609178495" fill="#006340"/><line x1="979.5" y1="109.01902038469802" x2="979.5" y2="162.31925903141718" stroke="#006340" stroke-width="1"/><rect x="972.6" y="119.73923656665272" width="13.799999999999999" height="33.41851080240184" fill="#006340"/><line x1="1002.5" y1="69.68984864022138" x2="1002.5" y2="123.90539306525181" stroke="#006340" stroke-width="1"/><rect x="995.6" y="80.91068201579083" width="13.799999999999999" height="38.828554550861895" fill="#006340"/><line x1="1025.5" y1="64.76567598263148" x2="1025.5" y2="94.17330396064074" stroke="#A02128" stroke-width="1"/><rect x="1018.6" y="80.91068201579083" width="13.799999999999999" height="7.419437006095336" fill="#A02128"/><line x1="1048.5" y1="72.00581474502383" x2="1048.5" y2="111.17797079173965" stroke="#A02128" stroke-width="1"/><rect x="1041.6" y="88.33011902188616" width="13.799999999999999" height="10.033347274851849" fill="#A02128"/><line x1="1071.5" y1="80.79370108928879" x2="1071.5" y2="98.93715829269422" stroke="#006340" stroke-width="1"/><rect x="1064.6" y="94.60261855497856" width="13.799999999999999" height="3.7608477417594486" fill="#006340"/><line x1="1094.5" y1="39.43477135325736" x2="1094.5" y2="108.05109966678685" stroke="#006340" stroke-width="1"/><rect x="1087.6" y="57.3674846856801" width="13.799999999999999" height="37.235133869298465" fill="#006340"/><line x1="1117.5" y1="25.38024667789614" x2="1117.5" y2="57.791803633652535" stroke="#006340" stroke-width="1"/><rect x="1110.6" y="37.73897233433797" width="13.799999999999999" height="19.628512351342124" fill="#006340"/><line x1="1140.5" y1="24" x2="1140.5" y2="62.09132432611466" stroke="#A02128" stroke-width="1"/><rect x="1133.6" y="37.73897233433797" width="13.799999999999999" height="10.797793007139262" fill="#A02128"/>
</svg>