<svg xmlns="http://www.w3.org/2000/svg" width="1200" height="700">
  <rect width="100%" height="100%" fill="#0d1117"/>
  <line x1="48" y1="24" x2="1152" y2="24" stroke="#21262d" stroke-width="1"/><line x1="48" y1="181" x2="1152" y2="181" stroke="#21262d" stroke-width="1"/><line x1="48" y1="338" x2="1152" y2="338" stroke="#21262d" stroke-width="1"/><line x1="48" y1="495" x2="1152" y2="495" stroke="#21262d" stroke-width="1"/><line x1="48" y1="652" x2="1152" y2="652" stroke="#21262d" stroke-width="1"/>
  <line x1="59.5" y1="609.6844980343071" x2="59.5" y2="652" stroke="#006340" stroke-width="1"/><rect x="52.6" y="620.6348780686309" width="13.799999999999999" height="27.613514197114796" fill="#006340"/><line x1="82.5" y1="609.1864538819941" x2="82.5" y2="632.9476487312913" stroke="#006340" stroke-width="1"/><rect x="75.6" y="617.4121021707563" width="13.799999999999999" height="3.2227758978746124" fill="#006340"/><line x1="105.5" y1="601.7546849940968" x2="105.5" y2="629.8653589339972" stroke="#006340" stroke-width="1"/><rect x="98.6" y="614.1223320581887" width="13.799999999999999" height="3.2897701125675667" fill="#006340"/><line x1="128.5" y1="582.8354690160184" x2="128.5" y2="627.5843629334832" stroke="#006340" stroke-width="1"/><rect x="121.6" y="590.5823478473953" width="13.799999999999999" height="23.539984210793364" fill="#006340"/><line x1="151.5" y1="559.2403791199092" x2="151.5" y2="602.2596188534841" stroke="#006340" stroke-width="1"/><rect x="144.6" y="569.8315114348859" width="13.799999999999999" height="20.750836412509443" fill="#006340"/><line x1="174.5" y1="555.7796470127635" x2="174.5" y2="582.3115352089699" stroke="#A02128" stroke-width="1"/><rect x="167.6" y="569.8315114348859" width="13.799999999999999" height="3.9822028904976605" fill="#A02128"/><line x1="197.5" y1="545.3375433466967" x2="197.5" y2="581.6670424139265" stroke="#006340" stroke-width="1"/><rect x="190.6" y="556.1519288175646" width="13.799999999999999" height="17.66178550781899" fill="#006340"/><line x1="220.5" y1="546.2557177075211" x2="220.5" y2="562.8645585969844" stroke="#006340" stroke-width="1"/><rect x="213.6" y="549.2979495318966" width="13.799999999999999" height="6.853979285667947" fill="#006340"/><line x1="243.5" y1="531.4187571248254" x2="243.5" y2="551.5241537776191" stroke="#006340" stroke-width="1"/><rect x="236.6" y="537.0117171651525" width="13.799999999999999" height="12.286232366744116" fill="#006340"/><line x1="266.5" y1="524.9273729320979" x2="266.5" y2="544.6983635881709" stroke="#006340" stroke-width="1"/><rect x="259.6" y="525.1920459028308" width="13.799999999999999" height="11.819671262321663" fill="#006340"/><line x1="289.5" y1="509.4705263297367" x2="289.5" y2="526.4979166788697" stroke="#006340" stroke-width="1"/><rect x="282.6" y="513.4890366042262" width="13.799999999999999" height="11.703009298604684" fill="#006340"/><line x1="312.5" y1="487.3797890457509" x2="312.5" y2="527.2940870563411" stroke="#006340" stroke-width="1"/><rect x="305.6" y="501.01904170551484" width="13.799999999999999" height="12.46999489871132" fill="#006340"/><line x1="335.5" y1="465.7187290631089" x2="335.5" y2="504.4438463480026" stroke="#006340" stroke-width="1"/><rect x="328.6" y="472.0156604487023" width="13.799999999999999" height="29.00338125681253" fill="#006340"/><line x1="358.5" y1="460.69049103535383" x2="358.5" y2="473.10465283238983" stroke="#006340" stroke-width="1"/><rect x="351.6" y="465.1799436347726" width="13.799999999999999" height="6.835716813929707" fill="#006340"/><line x1="381.5" y1="430.33085295227556" x2="381.5" y2="479.70928543634955" stroke="#006340" stroke-width="1"/><rect x="374.6" y="443.5759501992373" width="13.799999999999999" height="21.6039934355353" fill="#006340"/><line x1="404.5" y1="408.21412354231484" x2="404.5" y2="446.3882008113758" stroke="#006340" stroke-width="1"/><rect x="397.6" y="412.71995481616125" width="13.799999999999999" height="30.85599538307605" fill="#006340"/><line x1="427.5" y1="379.97231923583746" x2="427.5" y2="425.62484987984647" stroke="#006340" stroke-width="1"/><rect x="420.6" y="381.788702381435" width="13.799999999999999" height="30.931252434726275" fill="#006340"/><line x1="450.5" y1="349.4606656598237" x2="450.5" y2="396.58053005175793" stroke="#006340" stroke-width="1"/><rect x="443.6" y="363.3689392370086" width="13.799999999999999" height="18.419763144426383" fill="#006340"/><line x1="473.5" y1="337.9330111091995" x2="473.5" y2="363.8341675122517" stroke="#006340" stroke-width="1"/><rect x="466.6" y="350.4760527155619" width="13.799999999999999" height="12.892886521446712" fill="#006340"/><line x1="496.5" y1="315.45710867632044" x2="496.5" y2="354.03905711277065" stroke="#006340" stroke-width="1"/><rect x="489.6" y="321.71966100567505" width="13.799999999999999" height="28.756391709886827" fill="#006340"/><line x1="519.5" y1="308.5790535501755" x2="519.5" y2="335.32963079224834" stroke="#A02128" stroke-width="1"/><rect x="512.6" y="321.71966100567505" width="13.799999999999999" height="7.485905474660285" fill="#A02128"/><line x1="542.5" y1="317.0652964573624" x2="542.5" y2="341.56518906821225" stroke="#006340" stroke-width="1"/><rect x="535.6" y="326.51922300243154" width="13.799999999999999" height="2.6863434779037902" fill="#006340"/><line x1="565.5" y1="295.60247766934293" x2="565.5" y2="336.7807868286832" stroke="#006340" stroke-width="1"/><rect x="558.6" y="308.3637868998601" width="13.799999999999999" height="18.155436102571457" fill="#006340"/><line x1="588.5" y1="289.0495182669185" x2="588.5" y2="318.8371281197393" stroke="#006340" stroke-width="1"/><rect x="581.6" y="294.86250589613985" width="13.799999999999999" height="13.501281003720237" fill="#006340"/><line x1="611.5" y1="269.0749325751982" x2="611.5" y2="303.39790856494335" stroke="#006340" stroke-width="1"/><rect x="604.6" y="271.2183831124057" width="13.799999999999999" height="23.644122783734133" fill="#006340"/><line x1="634.5" y1="245.5820549729064" x2="634.5" y2="277.19641639179866" stroke="#006340" stroke-width="1"/><rect x="627.6" y="257.72664093123973" width="13.799999999999999" height="13.49174218116599" fill="#006340"/><line x1="657.5" y1="236.45481241606512" x2="657.5" y2="271.7191611197223" stroke="#006340" stroke-width="1"/><rect x="650.6" y="244.29824372974207" width="13.799999999999999" height="13.42839720149766" fill="#006340"/><line x1="680.5" y1="212.67018117445502" x2="680.5" y2="258.7670773936566" stroke="#006340" stroke-width="1"/><rect x="673.6" y="222.5456969199185" width="13.799999999999999" height="21.75254680982357" fill="#006340"/><line x1="703.5" y1="173.21622896309555" x2="703.5" y2="230.1260394365729" stroke="#006340" stroke-width="1"/><rect x="696.6" y="188.08631478462115" width="13.799999999999999" height="34.459382135297346" fill="#006340"/><line x1="726.5" y1="178.613675476806" x2="726.5" y2="199.4381769096621" stroke="#006340" stroke-width="1"/><rect x="719.6" y="181.87012484893472" width="13.799999999999999" height="6.21618993568643" fill="#006340"/><line x1="749.5" y1="173.48380573469183" x2="749.5" y2="189.26676913382778" stroke="#006340" stroke-width="1"/><rect x="742.6" y="175.97095905557774" width="13.799999999999999" height="5.899165793356985" fill="#006340"/><line x1="772.5" y1="158.7067179469724" x2="772.5" y2="181.29493196334215" stroke="#006340" stroke-width="1"/><rect x="765.6" y="171.57475037282683" width="13.799999999999999" height="4.39620868275091" fill="#006340"/><line x1="795.5" y1="139.90254995422208" x2="795.5" y2="173.51938576237842" stroke="#006340" stroke-width="1"/><rect x="788.6" y="146.83853536682403" width="13.799999999999999" height="24.736215006002794" fill="#006340"/><line x1="818.5" y1="106.7871242056226" x2="818.5" y2="159.4418109142772" stroke="#006340" stroke-width="1"/><rect x="811.6" y="121.43762591612779" width="13.799999999999999" height="25.400909450696247" fill="#006340"/><line x1="841.5" y1="108.1141050606268" x2="841.5" y2="142.57769057230627" stroke="#A02128" stroke-width="1"/><rect x="834.6" y="121.43762591612779" width="13.799999999999999" height="5.402864735436879" fill="#A02128"/><line x1="864.5" y1="113.49258426977713" x2="864.5" y2="140.72682330281793" stroke="#A02128" stroke-width="1"/><rect x="857.6" y="126.84049065156466" width="13.799999999999999" height="6.349655321651085" fill="#A02128"/><line x1="887.5" y1="128.28991542932397" x2="887.5" y2="159.10036150539742" stroke="#A02128" stroke-width="1"/><rect x="880.6" y="133.19014597321575" width="13.799999999999999" height="11.093965794257088" fill="#A02128"/><line x1="910.5" y1="108.82705349099285" x2="910.5" y2="149.73825131636903" stroke="#006340" stroke-width="1"/><rect x="903.6" y="113.91899571304248" width="13.799999999999999" height="30.36511605443036" fill="#006340"/><line x1="933.5" y1="100.07699129275761" x2="933.5" y2="115.58663624860026" stroke="#A02128" stroke-width="1"/><rect x="926.6" y="113.91899571304248" width="13.799999999999999" height="1.0553181433168675" fill="#A02128"/><line x1="956.5" y1="69.61672286117175" x2="956.5" y2="123.78891287705471" stroke="#006340" stroke-width="1"/><rect x="949.6" y="83.29997961750848" width="13.799999999999999" height="31.67433423885086" fill="#006340"/><line x1="979.5" y1="64.50985147570339" x2="979.5" y2="91.73162159928086" stroke="#006340" stroke-width="1"/><rect x="972.6" y="72.70069508364111" width="13.799999999999999" height="10.599284533867376" fill="#006340"/><line x1="1002.5" y1="71.15070114657192" x2="1002.5" y2="85.63004900378405" stroke="#A02128" stroke-width="1"/><rect x="995.6" y="72.70069508364111" width="13.799999999999999" height="5.004180764447028" fill="#A02128"/><line x1="1025.5" y1="56.728970141182" x2="1025.5" y2="92.39414851146182" stroke="#006340" stroke-width="1"/><rect x="1018.6" y="65.82438485630826" width="13.799999999999999" height="11.88049099177988" fill="#006340"/><line x1="1048.5" y1="51.45094298816343" x2="1048.5" y2="67.93971777173033" stroke="#006340" stroke-width="1"/><rect x="1041.6" y="55.48291582244542" width="13.799999999999999" height="10.341469033862836" fill="#006340"/><line x1="1071.5" y1="42.164340279412045" x2="1071.5" y2="72.29709747631728" stroke="#A02128" stroke-width="1"/><rect x="1064.6" y="55.48291582244542" width="13.799999999999999" height="1" fill="#A02128"/><line x1="1094.5" y1="45.8693573718657" x2="1094.5" y2="68.94579962617206" stroke="#A02128" stroke-width="1"/><rect x="1087.6" y="56.312046826414075" width="13.799999999999999" height="12.03625724882329" fill="#A02128"/><line x1="1117.5" y1="29.28070208751899" x2="1117.5" y2="81.8181248578885" stroke="#006340" stroke-width="1"/><rect x="1110.6" y="37.359148640576564" width="13.799999999999999" height="30.989155434660802" fill="#006340"/><line x1="1140.5" y1="24" x2="1140.5" y2="50.866119206420876" stroke="#A02128" stroke-width="1"/><rect x="1133.6" y="37.359148640576564" width="13.799999999999999" height="2.7875632597123285" fill="#A02128"/>
</svg>