<svg xmlns="http://www.w3.org/2000/svg" width="1200" height="700">
  <rect width="100%" height="100%" fill="#0d1117"/>
  <line x1="48" y1="24" x2="1152" y2="24" stroke="#21262d" stroke-width="1"/><line x1="48" y1="181" x2="1152" y2="181" stroke="#21262d" stroke-width="1"/><line x1="48" y1="338" x2="1152" y2="338" stroke="#21262d" stroke-width="1"/><line x1="48" y1="495" x2="1152" y2="495" stroke="#21262d" stroke-width="1"/><line x1="48" y1="652" x2="1152" y2="652" stroke="#21262d" stroke-width="1"/>
  <line x1="59.5" y1="614.9435487567632" x2="59.5" y2="652" stroke="#006340" stroke-width="1"/><rect x="52.6" y="627.3190951505367" width="13.799999999999999" height="8.37207283614805" fill="#006340"/><line x1="82.5" y1="586.1507215317114" x2="82.5" y2="645.9497199142071" stroke="#006340" stroke-width="1"/><rect x="75.6" y="598.5299482315012" width="13.799999999999999" height="28.78914691903549" fill="#006340"/><line x1="105.5" y1="592.4403774415836" x2="105.5" y2="606.2192066788095" stroke="#A02128" stroke-width="1"/><rect x="98.6" y="598.5299482315012" width="13.799999999999999" height="4.422698760565481" fill="#A02128"/><line x1="128.5" y1="559.2273311655699" x2="128.5" y2="611.6483862277568" stroke="#006340" stroke-width="1"/><rect x="121.6" y="571.4924933500515" width="13.799999999999999" height="31.460153642015143" fill="#006340"/><line x1="151.5" y1="554.56273711433" x2="151.5" y2="579.1119642358121" stroke="#006340" stroke-width="1"/><rect x="144.6" y="569.2836055198312" width="13.799999999999999" height="2.2088878302203057" fill="#006340"/><line x1="174.5" y1="557.0195594461187" x2="174.5" y2="580.9077935002912" stroke="#006340" stroke-width="1"/><rect x="167.6" y="564.5613596273123" width="13.799999999999999" height="4.722245892518913" fill="#006340"/><line x1="197.5" y1="533.1953461230975" x2="197.5" y2="569.6132848500913" stroke="#006340" stroke-width="1"/><rect x="190.6" y="536.7400707076422" width="13.799999999999999" height="27.82128891967011" fill="#006340"/><line x1="220.5" y1="494.2157532477765" x2="220.5" y2="548.2012262417926" stroke="#006340" stroke-width="1"/><rect x="213.6" y="495.36408669657874" width="13.799999999999999" height="41.37598401106345" fill="#006340"/><line x1="243.5" y1="453.5501989801662" x2="243.5" y2="513.4657612754395" stroke="#006340" stroke-width="1"/><rect x="236.6" y="464.43657609670294" width="13.799999999999999" height="30.927510599875802" fill="#006340"/><line x1="266.5" y1="429.3127614961319" x2="266.5" y2="477.5433881964729" stroke="#006340" stroke-width="1"/><rect x="259.6" y="430.29348329702714" width="13.799999999999999" height="34.1430927996758" fill="#006340"/><line x1="289.5" y1="417.90157365531303" x2="289.5" y2="448.80058118159434" stroke="#006340" stroke-width="1"/><rect x="282.6" y="426.37894187355175" width="13.799999999999999" height="3.9145414234753844" fill="#006340"/><line x1="312.5" y1="410.57998377858803" x2="312.5" y2="431.87909303241605" stroke="#006340" stroke-width="1"/><rect x="305.6" y="420.5754934610273" width="13.799999999999999" height="5.80344841252446" fill="#006340"/><line x1="335.5" y1="400.71215298096206" x2="335.5" y2="444.8333847623306" stroke="#A02128" stroke-width="1"/><rect x="328.6" y="420.5754934610273" width="13.799999999999999" height="14.458263607836159" fill="#A02128"/><line x1="358.5" y1="430.36236667149626" x2="358.5" y2="462.9679364925691" stroke="#A02128" stroke-width="1"/><rect x="351.6" y="435.03375706886345" width="13.799999999999999" height="14.350989561005349" fill="#A02128"/><line x1="381.5" y1="441.716586574243" x2="381.5" y2="467.17739438536034" stroke="#A02128" stroke-width="1"/><rect x="374.6" y="449.3847466298688" width="13.799999999999999" height="1" fill="#A02128"/><line x1="404.5" y1="419.05860015814403" x2="404.5" y2="464.35757177423795" stroke="#006340" stroke-width="1"/><rect x="397.6" y="438.6023591725674" width="13.799999999999999" height="10.80385196033086" fill="#006340"/><line x1="427.5" y1="427.28009782445764" x2="427.5" y2="453.633984862434" stroke="#A02128" stroke-width="1"/><rect x="420.6" y="438.6023591725674" width="13.799999999999999" height="5.558922346003499" fill="#A02128"/><line x1="450.5" y1="394.3906535784159" x2="450.5" y2="458.85556137460605" stroke="#006340" stroke-width="1"/><rect x="443.6" y="400.0045308998301" width="13.799999999999999" height="44.15675061874077" fill="#006340"/><line x1="473.5" y1="391.3520725324376" x2="473.5" y2="417.3261040845423" stroke="#A02128" stroke-width="1"/><rect x="466.6" y="400.0045308998301" width="13.799999999999999" height="9.428096991316579" fill="#A02128"/><line x1="496.5" y1="386.71068588403426" x2="496.5" y2="420.13019708791705" stroke="#006340" stroke-width="1"/><rect x="489.6" y="397.24143337038083" width="13.799999999999999" height="12.191194520765862" fill="#006340"/><line x1="519.5" y1="370.80254892162355" x2="519.5" y2="402.12764745402245" stroke="#006340" stroke-width="1"/><rect x="512.6" y="372.7130282566672" width="13.799999999999999" height="24.52840511371363" fill="#006340"/><line x1="542.5" y1="340.0896526582174" x2="542.5" y2="391.1047503189947" stroke="#006340" stroke-width="1"/><rect x="535.6" y="345.81489260609203" width="13.799999999999999" height="26.89813565057517" fill="#006340"/><line x1="565.5" y1="340.5748584152963" x2="565.5" y2="367.51127277354" stroke="#A02128" stroke-width="1"/><rect x="558.6" y="345.81489260609203" width="13.799999999999999" height="14.42784117566464" fill="#A02128"/><line x1="588.5" y1="347.07421867104307" x2="588.5" y2="385.61382688806145" stroke="#A02128" stroke-width="1"/><rect x="581.6" y="360.24273378175667" width="13.799999999999999" height="5.591737339445501" fill="#A02128"/><line x1="611.5" y1="321.1756827440583" x2="611.5" y2="371.3994131390332" stroke="#006340" stroke-width="1"/><rect x="604.6" y="329.0641437738757" width="13.799999999999999" height="36.770327347326486" fill="#006340"/><line x1="634.5" y1="320.927279788295" x2="634.5" y2="346.40147169118427" stroke="#A02128" stroke-width="1"/><rect x="627.6" y="329.0641437738757" width="13.799999999999999" height="13.731160576503385" fill="#A02128"/><line x1="657.5" y1="321.23752172128" x2="657.5" y2="358.37221559735036" stroke="#006340" stroke-width="1"/><rect x="650.6" y="336.01074678454785" width="13.799999999999999" height="6.784557565831221" fill="#006340"/><line x1="680.5" y1="325.19593259784824" x2="680.5" y2="351.36810239992315" stroke="#A02128" stroke-width="1"/><rect x="673.6" y="336.01074678454785" width="13.799999999999999" height="11.755769151368327" fill="#A02128"/><line x1="703.5" y1="321.51464481550994" x2="703.5" y2="351.71537348569893" stroke="#006340" stroke-width="1"/><rect x="696.6" y="322.3485326945973" width="13.799999999999999" height="25.417983241318893" fill="#006340"/><line x1="726.5" y1="281.63058031626645" x2="726.5" y2="336.26369770223187" stroke="#006340" stroke-width="1"/><rect x="719.6" y="292.56224647677845" width="13.799999999999999" height="29.786286217818827" fill="#006340"/><line x1="749.5" y1="273.4975670735733" x2="749.5" y2="307.06904690131574" stroke="#A02128" stroke-width="1"/><rect x="742.6" y="292.56224647677845" width="13.799999999999999" height="1" fill="#A02128"/><line x1="772.5" y1="270.4670026304701" x2="772.5" y2="299.26328699069626" stroke="#006340" stroke-width="1"/><rect x="765.6" y="283.2106522054288" width="13.799999999999999" height="9.754651459945137" fill="#006340"/><line x1="795.5" y1="267.5522042103922" x2="795.5" y2="296.06232668597556" stroke="#006340" stroke-width="1"/><rect x="788.6" y="269.38117953467844" width="13.799999999999999" height="13.829472670750363" fill="#006340"/><line x1="818.5" y1="256.2941001776589" x2="818.5" y2="286.2006681045566" stroke="#A02128" stroke-width="1"/><rect x="811.6" y="269.38117953467844" width="13.799999999999999" height="14.096199624858514" fill="#A02128"/><line x1="841.5" y1="250.77512447621956" x2="841.5" y2="291.5274049529103" stroke="#006340" stroke-width="1"/><rect x="834.6" y="265.861101318051" width="13.799999999999999" height="17.616277841485953" fill="#006340"/><line x1="864.5" y1="243.10459923713887" x2="864.5" y2="281.07086022143005" stroke="#006340" stroke-width="1"/><rect x="857.6" y="245.70398428098065" width="13.799999999999999" height="20.15711703707035" fill="#006340"/><line x1="887.5" y1="219.56813539020834" x2="887.5" y2="259.5671360601037" stroke="#006340" stroke-width="1"/><rect x="880.6" y="222.74161319433802" width="13.799999999999999" height="22.962371086642634" fill="#006340"/><line x1="910.5" y1="221.00467810368423" x2="910.5" y2="237.91938356289592" stroke="#A02128" stroke-width="1"/><rect x="903.6" y="222.74161319433802" width="13.799999999999999" height="3.870081978328699" fill="#A02128"/><line x1="933.5" y1="175.4928100192966" x2="933.5" y2="238.5989126054671" stroke="#006340" stroke-width="1"/><rect x="926.6" y="193.59824023651083" width="13.799999999999999" height="33.01345493615588" fill="#006340"/><line x1="956.5" y1="150.5363977947507" x2="956.5" y2="204.12876502238373" stroke="#006340" stroke-width="1"/><rect x="949.6" y="159.00650907845073" width="13.799999999999999" height="34.5917311580601" fill="#006340"/><line x1="979.5" y1="158.7298464273327" x2="979.5" y2="167.00239669093156" stroke="#A02128" stroke-width="1"/><rect x="972.6" y="159.00650907845073" width="13.799999999999999" height="1" fill="#A02128"/><line x1="1002.5" y1="137.9536378634865" x2="1002.5" y2="178.80065044732163" stroke="#006340" stroke-width="1"/><rect x="995.6" y="144.6495302059269" width="13.799999999999999" height="14.724554649270374" fill="#006340"/><line x1="1025.5" y1="102.15087914216087" x2="1025.5" y2="154.78956662626257" stroke="#006340" stroke-width="1"/><rect x="1018.6" y="104.97836766789112" width="13.799999999999999" height="39.67116253803579" fill="#006340"/><line x1="1048.5" y1="66.78874969379888" x2="1048.5" y2="124.33310703243899" stroke="#006340" stroke-width="1"/><rect x="1041.6" y="80.0989647069157" width="13.799999999999999" height="24.879402960975426" fill="#006340"/><line x1="1071.5" y1="24" x2="1071.5" y2="88.72155992871728" stroke="#006340" stroke-width="1"/><rect x="1064.6" y="39.82675383318872" width="13.799999999999999" height="40.272210873726976" fill="#006340"/><line x1="1094.5" y1="29.08145352288784" x2="1094.5" y2="71.5058792381883" stroke="#A02128" stroke-width="1"/><rect x="1087.6" y="39.82675383318872" width="13.799999999999999" height="10.456121033366458" fill="#A02128"/><line x1="1117.5" y1="31.7727009810269" x2="1117.5" y2="63.861616699594606" stroke="#A02128" stroke-width="1"/><rect x="1110.6" y="50.282874866555176" width="13.799999999999999" height="10.936939169836364" fill="#A02128"/><line x1="1140.5" y1="48.77909897021539" x2="1140.5" y2="72.22707401892933" stroke="#006340" stroke-width="1"/><rect x="1133.6" y="59.12240283989104" width="13.799999999999999" height="2.0974111965005022" fill="#006340"/>
</svg>