<svg xmlns="http://www.w3.org/2000/svg" width="1200" height="700">
  <rect width="100%" height="100%" fill="#0d1117"/>
  <line x1="48" y1="24" x2="1152" y2="24" stroke="#21262d" stroke-width="1"/><line x1="48" y1="181" x2="1152" y2="181" stroke="#21262d" stroke-width="1"/><line x1="48" y1="338" x2="1152" y2="338" stroke="#21262d" stroke-width="1"/><line x1="48" y1="495" x2="1152" y2="495" stroke="#21262d" stroke-width="1"/><line x1="48" y1="652" x2="1152" y2="652" stroke="#21262d" stroke-width="1"/>
  <line x1="59.5" y1="118.94540121694615" x2="59.5" y2="343.19061037440883" stroke="#006340" stroke-width="1"/><rect x="52.6" y="192.64303969741388" width="13.799999999999999" height="78.17572520248365" fill="#006340"/><line x1="82.5" y1="39.56526653616095" x2="82.5" y2="252.42395057441178" stroke="#006340" stroke-width="1"/><rect x="75.6" y="116.77018560548981" width="13.799999999999999" height="75.87285409192407" fill="#006340"/><line x1="105.5" y1="52.92501974188258" x2="105.5" y2="296.638721808685" stroke="#A02128" stroke-width="1"/><rect x="98.6" y="116.77018560548981" width="13.799999999999999" height="121.69223544975415" fill="#A02128"/><line x1="128.5" y1="236.34247340624944" x2="128.5" y2="408.61209291739476" stroke="#A02128" stroke-width="1"/><rect x="121.6" y="238.46242105524396" width="13.799999999999999" height="91.73070966999734" fill="#A02128"/><line x1="151.5" y1="309.14290981136713" x2="151.5" y2="459.7808896882455" stroke="#A02128" stroke-width="1"/><rect x="144.6" y="330.1931307252413" width="13.799999999999999" height="50.318153630891516" fill="#A02128"/><line x1="174.5" y1="379.1761195196557" x2="174.5" y2="499.79177121686143" stroke="#A02128" stroke-width="1"/><rect x="167.6" y="380.5112843561328" width="13.799999999999999" height="93.15279471235397" fill="#A02128"/><line x1="197.5" y1="416.14609420526864" x2="197.5" y2="549.7927581167279" stroke="#006340" stroke-width="1"/><rect x="190.6" y="443.5789537639806" width="13.799999999999999" height="30.085125304506164" fill="#006340"/><line x1="220.5" y1="387.2026494690966" x2="220.5" y2="510.28064434491233" stroke="#A02128" stroke-width="1"/><rect x="213.6" y="443.5789537639806" width="13.799999999999999" height="33.77360975612112" fill="#A02128"/><line x1="243.5" y1="448.6631637784135" x2="243.5" y2="610.1940365404583" stroke="#A02128" stroke-width="1"/><rect x="236.6" y="477.35256352010174" width="13.799999999999999" height="116.64861467734772" fill="#A02128"/><line x1="266.5" y1="445.18391860299073" x2="266.5" y2="622.1190243144434" stroke="#006340" stroke-width="1"/><rect x="259.6" y="516.3331290408839" width="13.799999999999999" height="77.66804915656553" fill="#006340"/><line x1="289.5" y1="466.1395128699942" x2="289.5" y2="539.3327689891389" stroke="#006340" stroke-width="1"/><rect x="282.6" y="509.09571388715494" width="13.799999999999999" height="7.237415153728989" fill="#006340"/><line x1="312.5" y1="360.3332430455129" x2="312.5" y2="522.7381661154204" stroke="#006340" stroke-width="1"/><rect x="305.6" y="401.1446652188599" width="13.799999999999999" height="107.95104866829502" fill="#006340"/><line x1="335.5" y1="316.64159141292964" x2="335.5" y2="433.43669315942196" stroke="#A02128" stroke-width="1"/><rect x="328.6" y="401.1446652188599" width="13.799999999999999" height="7.1685044561140785" fill="#A02128"/><line x1="358.5" y1="401.98907766752995" x2="358.5" y2="526.7063046128596" stroke="#A02128" stroke-width="1"/><rect x="351.6" y="408.313169674974" width="13.799999999999999" height="88.28474529495406" fill="#A02128"/><line x1="381.5" y1="345.5873620713537" x2="381.5" y2="550.0828485761015" stroke="#006340" stroke-width="1"/><rect x="374.6" y="384.76422293630986" width="13.799999999999999" height="111.8336920336182" fill="#006340"/><line x1="404.5" y1="237.66501554729706" x2="404.5" y2="399.22862635955784" stroke="#006340" stroke-width="1"/><rect x="397.6" y="271.6103345771508" width="13.799999999999999" height="113.15388835915905" fill="#006340"/><line x1="427.5" y1="202.7810221157069" x2="427.5" y2="332.196017869316" stroke="#006340" stroke-width="1"/><rect x="420.6" y="208.14196714305854" width="13.799999999999999" height="63.46836743409227" fill="#006340"/><line x1="450.5" y1="153.56937090535598" x2="450.5" y2="231.4406677603974" stroke="#006340" stroke-width="1"/><rect x="443.6" y="201.51435197888338" width="13.799999999999999" height="6.627615164175154" fill="#006340"/><line x1="473.5" y1="153.33995472560417" x2="473.5" y2="368.31798384595714" stroke="#A02128" stroke-width="1"/><rect x="466.6" y="201.51435197888338" width="13.799999999999999" height="80.30990580080208" fill="#A02128"/><line x1="496.5" y1="231.15106788965096" x2="496.5" y2="411.1960493953933" stroke="#A02128" stroke-width="1"/><rect x="489.6" y="281.82425777968547" width="13.799999999999999" height="112.45305075843527" fill="#A02128"/><line x1="519.5" y1="254.1965144858351" x2="519.5" y2="426.09041749804305" stroke="#006340" stroke-width="1"/><rect x="512.6" y="322.2909255774852" width="13.799999999999999" height="71.98638296063552" fill="#006340"/><line x1="542.5" y1="250.33286712982772" x2="542.5" y2="416.5055904107438" stroke="#A02128" stroke-width="1"/><rect x="535.6" y="322.2909255774852" width="13.799999999999999" height="28.157217799335626" fill="#A02128"/><line x1="565.5" y1="331.51227841978135" x2="565.5" y2="363.95426190208326" stroke="#006340" stroke-width="1"/><rect x="558.6" y="350.3879201790352" width="13.799999999999999" height="1" fill="#006340"/><line x1="588.5" y1="218.89371883737402" x2="588.5" y2="389.31866168294306" stroke="#006340" stroke-width="1"/><rect x="581.6" y="262.66955807955156" width="13.799999999999999" height="87.71836209948361" fill="#006340"/><line x1="611.5" y1="177.38406084241979" x2="611.5" y2="351.3263367836552" stroke="#A02128" stroke-width="1"/><rect x="604.6" y="262.66955807955156" width="13.799999999999999" height="14.12398026330743" fill="#A02128"/><line x1="634.5" y1="243.06175865603296" x2="634.5" y2="329.2283587935138" stroke="#A02128" stroke-width="1"/><rect x="627.6" y="276.793538342859" width="13.799999999999999" height="34.85415721764326" fill="#A02128"/><line x1="657.5" y1="187.19162732803483" x2="657.5" y2="363.53759419706955" stroke="#006340" stroke-width="1"/><rect x="650.6" y="204.8088475985362" width="13.799999999999999" height="106.83884796196605" fill="#006340"/><line x1="680.5" y1="116.34916016311286" x2="680.5" y2="249.42085271625268" stroke="#006340" stroke-width="1"/><rect x="673.6" y="172.36393013910555" width="13.799999999999999" height="32.444917459430656" fill="#006340"/><line x1="703.5" y1="151.54538072056084" x2="703.5" y2="341.928495044048" stroke="#A02128" stroke-width="1"/><rect x="696.6" y="172.36393013910555" width="13.799999999999999" height="110.5528662767473" fill="#A02128"/><line x1="726.5" y1="200.43043919634817" x2="726.5" y2="423.4968762166051" stroke="#A02128" stroke-width="1"/><rect x="719.6" y="282.91679641585284" width="13.799999999999999" height="87.43764795962056" fill="#A02128"/><line x1="749.5" y1="291.4085127508752" x2="749.5" y2="454.54434136305224" stroke="#006340" stroke-width="1"/><rect x="742.6" y="368.0094036718673" width="13.799999999999999" height="2.3450407036061165" fill="#006340"/><line x1="772.5" y1="263.58661769172494" x2="772.5" y2="370.5458622812172" stroke="#006340" stroke-width="1"/><rect x="765.6" y="283.4607098702834" width="13.799999999999999" height="84.54869380158391" fill="#006340"/><line x1="795.5" y1="102.67147250966195" x2="795.5" y2="304.5721583564985" stroke="#006340" stroke-width="1"/><rect x="788.6" y="164.17814574925086" width="13.799999999999999" height="119.28256412103252" fill="#006340"/><line x1="818.5" y1="146.583977168479" x2="818.5" y2="254.94520275070016" stroke="#A02128" stroke-width="1"/><rect x="811.6" y="164.17814574925086" width="13.799999999999999" height="77.44232097532" fill="#A02128"/><line x1="841.5" y1="159.14398290798215" x2="841.5" y2="283.1024362020782" stroke="#006340" stroke-width="1"/><rect x="834.6" y="181.98655634559242" width="13.799999999999999" height="59.63391037897844" fill="#006340"/><line x1="864.5" y1="160.75665680103685" x2="864.5" y2="250.75054681334217" stroke="#A02128" stroke-width="1"/><rect x="857.6" y="181.98655634559242" width="13.799999999999999" height="22.802520109994475" fill="#A02128"/><line x1="887.5" y1="59.54693809175558" x2="887.5" y2="224.83084139853202" stroke="#006340" stroke-width="1"/><rect x="880.6" y="92.08437409783028" width="13.799999999999999" height="112.70470235775662" fill="#006340"/><line x1="910.5" y1="47.74754550554974" x2="910.5" y2="116.32578103966364" stroke="#A02128" stroke-width="1"/><rect x="903.6" y="92.08437409783028" width="13.799999999999999" height="7.746689179503505" fill="#A02128"/><line x1="933.5" y1="24" x2="933.5" y2="202.1938921497109" stroke="#A02128" stroke-width="1"/><rect x="926.6" y="99.83106327733378" width="13.799999999999999" height="41.06738909119133" fill="#A02128"/><line x1="956.5" y1="31.96666440286515" x2="956.5" y2="180.98231437098661" stroke="#006340" stroke-width="1"/><rect x="949.6" y="103.39054336501567" width="13.799999999999999" height="37.50790900350944" fill="#006340"/><line x1="979.5" y1="68.10726004698665" x2="979.5" y2="217.63623124179668" stroke="#A02128" stroke-width="1"/><rect x="972.6" y="103.39054336501567" width="13.799999999999999" height="84.94919191509445" fill="#A02128"/><line x1="1002.5" y1="129.65458616309968" x2="1002.5" y2="322.26688439514305" stroke="#A02128" stroke-width="1"/><rect x="995.6" y="188.33973528011012" width="13.799999999999999" height="87.5183493864738" fill="#A02128"/><line x1="1025.5" y1="223.77196324918634" x2="1025.5" y2="455.37482362298636" stroke="#A02128" stroke-width="1"/><rect x="1018.6" y="275.8580846665839" width="13.799999999999999" height="103.66476403670242" fill="#A02128"/><line x1="1048.5" y1="234.06473205926034" x2="1048.5" y2="437.1073716157804" stroke="#006340" stroke-width="1"/><rect x="1041.6" y="257.3773857521547" width="13.799999999999999" height="122.14546295113166" fill="#006340"/><line x1="1071.5" y1="158.7412994004281" x2="1071.5" y2="307.75980438038994" stroke="#006340" stroke-width="1"/><rect x="1064.6" y="199.33926389939649" width="13.799999999999999" height="58.038121852758195" fill="#006340"/><line x1="1094.5" y1="125.04769957811641" x2="1094.5" y2="318.893924737688" stroke="#A02128" stroke-width="1"/><rect x="1087.6" y="199.33926389939649" width="13.799999999999999" height="45.04777220615762" fill="#A02128"/><line x1="1117.5" y1="175.51970185423562" x2="1117.5" y2="652" stroke="#A02128" stroke-width="1"/><rect x="1110.6" y="244.3870361055541" width="13.799999999999999" height="335.8376034841475" fill="#A02128"/><line x1="1140.5" y1="374.33502780428296" x2="1140.5" y2="604.2203812794296" stroke="#006340" stroke-width="1"/><rect x="1133.6" y="403.79795189269464" width="13.799999999999999" height="176.42668769700697" fill="#006340"/>
</svg>