<svg xmlns="http://www.w3.org/2000/svg" width="1200" height="700">
  <rect width="100%" height="100%" fill="#0d1117"/>
  <line x1="48" y1="24" x2="1152" y2="24" stroke="#21262d" stroke-width="1"/><line x1="48" y1="181" x2="1152" y2="181" stroke="#21262d" stroke-width="1"/><line x1="48" y1="338" x2="1152" y2="338" stroke="#21262d" stroke-width="1"/><line x1="48" y1="495" x2="1152" y2="495" stroke="#21262d" stroke-width="1"/><line x1="48" y1="652" x2="1152" y2="652" stroke="#21262d" stroke-width="1"/>
  <line x1="59.5" y1="619.4193131290045" x2="59.5" y2="652" stroke="#006340" stroke-width="1"/><rect x="52.6" y="621.0191985818441" width="13.799999999999999" height="28.951861789232453" fill="#006340"/><line x1="82.5" y1="596.0363053988583" x2="82.5" y2="629.2979381799765" stroke="#006340" stroke-width="1"/><rect x="75.6" y="602.3920696441554" width="13.799999999999999" height="18.627128937688667" fill="#006340"/><line x1="105.5" y1="576.9477667798805" x2="105.5" y2="603.8404658631862" stroke="#006340" stroke-width="1"/><rect x="98.6" y="585.9074385242124" width="13.799999999999999" height="16.48463111994306" fill="#006340"/><line x1="128.5" y1="575.279851514294" x2="128.5" y2="596.7732078209732" stroke="#006340" stroke-width="1"/><rect x="121.6" y="575.8827925140931" width="13.799999999999999" height="10.024646010119227" fill="#006340"/><line x1="151.5" y1="573.7310461127187" x2="151.5" y2="578.4812815757037" stroke="#A02128" stroke-width="1"/><rect x="144.6" y="575.8827925140931" width="13.799999999999999" height="1" fill="#A02128"/><line x1="174.5" y1="558.1202253726267" x2="174.5" y2="585.3856266370758" stroke="#006340" stroke-width="1"/><rect x="167.6" y="571.3513031172686" width="13.799999999999999" height="4.555992185601326" fill="#006340"/><line x1="197.5" y1="548.599678705122" x2="197.5" y2="576.4843056666729" stroke="#006340" stroke-width="1"/><rect x="190.6" y="556.1080729382512" width="13.799999999999999" height="15.24323017901736" fill="#006340"/><line x1="220.5" y1="545.816868793783" x2="220.5" y2="568.1068444424322" stroke="#A02128" stroke-width="1"/><rect x="213.6" y="556.1080729382512" width="13.799999999999999" height="9.594719040531686" fill="#A02128"/><line x1="243.5" y1="552.4231831759354" x2="243.5" y2="578.7038883948013" stroke="#006340" stroke-width="1"/><rect x="236.6" y="564.7538907659894" width="13.799999999999999" height="1" fill="#006340"/><line x1="266.5" y1="549.9923331502102" x2="266.5" y2="567.0982918704868" stroke="#006340" stroke-width="1"/><rect x="259.6" y="556.7001196378197" width="13.799999999999999" height="8.053771128169615" fill="#006340"/><line x1="289.5" y1="531.8755356174046" x2="289.5" y2="561.7088140896684" stroke="#006340" stroke-width="1"/><rect x="282.6" y="535.8952109987163" width="13.799999999999999" height="20.804908639103473" fill="#006340"/><line x1="312.5" y1="504.64213187801215" x2="312.5" y2="542.1261633670745" stroke="#006340" stroke-width="1"/><rect x="305.6" y="510.793583205867" width="13.799999999999999" height="25.101627792849285" fill="#006340"/><line x1="335.5" y1="500.5062392502167" x2="335.5" y2="514.7503968224094" stroke="#A02128" stroke-width="1"/><rect x="328.6" y="510.793583205867" width="13.799999999999999" height="1" fill="#A02128"/><line x1="358.5" y1="508.00559151817106" x2="358.5" y2="527.9475204631212" stroke="#A02128" stroke-width="1"/><rect x="351.6" y="510.89377755328655" width="13.799999999999999" height="5.337629929217542" fill="#A02128"/><line x1="381.5" y1="506.2578615807007" x2="381.5" y2="529.0713323114062" stroke="#A02128" stroke-width="1"/><rect x="374.6" y="516.2314074825041" width="13.799999999999999" height="8.680139206333934" fill="#A02128"/><line x1="404.5" y1="517.5653828988396" x2="404.5" y2="531.1671732918177" stroke="#A02128" stroke-width="1"/><rect x="397.6" y="524.911546688838" width="13.799999999999999" height="2.968221146202268" fill="#A02128"/><line x1="427.5" y1="508.5500117224124" x2="427.5" y2="531.7647427319222" stroke="#006340" stroke-width="1"/><rect x="420.6" y="512.002540333612" width="13.799999999999999" height="15.877227501428251" fill="#006340"/><line x1="450.5" y1="499.1066201628574" x2="450.5" y2="521.057478895664" stroke="#006340" stroke-width="1"/><rect x="443.6" y="506.97827289634586" width="13.799999999999999" height="5.0242674372661895" fill="#006340"/><line x1="473.5" y1="475.0919641417661" x2="473.5" y2="515.3905249633234" stroke="#006340" stroke-width="1"/><rect x="466.6" y="483.2661177423204" width="13.799999999999999" height="23.71215515402548" fill="#006340"/><line x1="496.5" y1="453.8209753537883" x2="496.5" y2="484.48465536460856" stroke="#006340" stroke-width="1"/><rect x="489.6" y="462.1583079524212" width="13.799999999999999" height="21.107809789899193" fill="#006340"/><line x1="519.5" y1="434.1270444695933" x2="519.5" y2="467.4852974870279" stroke="#006340" stroke-width="1"/><rect x="512.6" y="447.189680413045" width="13.799999999999999" height="14.9686275393762" fill="#006340"/><line x1="542.5" y1="431.73289185638873" x2="542.5" y2="460.54620021705284" stroke="#006340" stroke-width="1"/><rect x="535.6" y="441.3547148453523" width="13.799999999999999" height="5.834965567692677" fill="#006340"/><line x1="565.5" y1="417.66252471330256" x2="565.5" y2="444.9955836965138" stroke="#006340" stroke-width="1"/><rect x="558.6" y="426.66676919212574" width="13.799999999999999" height="14.687945653226564" fill="#006340"/><line x1="588.5" y1="419.90474442589607" x2="588.5" y2="438.019544999843" stroke="#006340" stroke-width="1"/><rect x="581.6" y="424.749099094519" width="13.799999999999999" height="1.917670097606731" fill="#006340"/><line x1="611.5" y1="402.82522868725647" x2="611.5" y2="433.40849463653365" stroke="#006340" stroke-width="1"/><rect x="604.6" y="404.5494437161698" width="13.799999999999999" height="20.199655378349235" fill="#006340"/><line x1="634.5" y1="374.10836413401034" x2="634.5" y2="414.1691668800843" stroke="#006340" stroke-width="1"/><rect x="627.6" y="379.10135906907294" width="13.799999999999999" height="25.448084647096834" fill="#006340"/><line x1="657.5" y1="342.43698116046164" x2="657.5" y2="392.1781274920722" stroke="#006340" stroke-width="1"/><rect x="650.6" y="348.7024339323704" width="13.799999999999999" height="30.39892513670253" fill="#006340"/><line x1="680.5" y1="339.62522385384864" x2="680.5" y2="356.55093009805216" stroke="#006340" stroke-width="1"/><rect x="673.6" y="345.4091364418812" width="13.799999999999999" height="3.2932974904892376" fill="#006340"/><line x1="703.5" y1="310.5613381638668" x2="703.5" y2="354.0838263583264" stroke="#006340" stroke-width="1"/><rect x="696.6" y="321.7665461415016" width="13.799999999999999" height="23.642590300379595" fill="#006340"/><line x1="726.5" y1="305.7821000954764" x2="726.5" y2="332.7707822935219" stroke="#006340" stroke-width="1"/><rect x="719.6" y="310.6625628769584" width="13.799999999999999" height="11.10398326454316" fill="#006340"/><line x1="749.5" y1="301.53426602416573" x2="749.5" y2="316.4676329879124" stroke="#006340" stroke-width="1"/><rect x="742.6" y="307.9228655768395" width="13.799999999999999" height="2.7396973001189053" fill="#006340"/><line x1="772.5" y1="302.8245109924738" x2="772.5" y2="317.6483915661801" stroke="#006340" stroke-width="1"/><rect x="765.6" y="303.3658697752751" width="13.799999999999999" height="4.556995801564426" fill="#006340"/><line x1="795.5" y1="270.8866897709325" x2="795.5" y2="306.12581823648435" stroke="#006340" stroke-width="1"/><rect x="788.6" y="280.5767194564115" width="13.799999999999999" height="22.789150318863562" fill="#006340"/><line x1="818.5" y1="240.75605051277762" x2="818.5" y2="293.72801667109366" stroke="#006340" stroke-width="1"/><rect x="811.6" y="249.52454947421484" width="13.799999999999999" height="31.052169982196688" fill="#006340"/><line x1="841.5" y1="224.36385729119485" x2="841.5" y2="259.69639135553865" stroke="#006340" stroke-width="1"/><rect x="834.6" y="232.0444844235921" width="13.799999999999999" height="17.480065050622727" fill="#006340"/><line x1="864.5" y1="197.78271585681563" x2="864.5" y2="243.96806036656608" stroke="#006340" stroke-width="1"/><rect x="857.6" y="205.24204712284245" width="13.799999999999999" height="26.80243730074966" fill="#006340"/><line x1="887.5" y1="171.75502426851875" x2="887.5" y2="209.6470687538997" stroke="#006340" stroke-width="1"/><rect x="880.6" y="173.75079328706192" width="13.799999999999999" height="31.491253835780526" fill="#006340"/><line x1="910.5" y1="142.34063625933618" x2="910.5" y2="176.08987092238402" stroke="#006340" stroke-width="1"/><rect x="903.6" y="144.32852627754414" width="13.799999999999999" height="29.422267009517782" fill="#006340"/><line x1="933.5" y1="103.68630684385232" x2="933.5" y2="151.63528426577432" stroke="#006340" stroke-width="1"/><rect x="926.6" y="116.1667624612686" width="13.799999999999999" height="28.16176381627554" fill="#006340"/><line x1="956.5" y1="93.05216180103935" x2="956.5" y2="122.18402109948693" stroke="#006340" stroke-width="1"/><rect x="949.6" y="94.58685876687923" width="13.799999999999999" height="21.579903694389373" fill="#006340"/><line x1="979.5" y1="70.0928487266051" x2="979.5" y2="108.50726039523613" stroke="#006340" stroke-width="1"/><rect x="972.6" y="80.91324244958639" width="13.799999999999999" height="13.67361631729284" fill="#006340"/><line x1="1002.5" y1="69.10858939883633" x2="1002.5" y2="83.25568903027897" stroke="#006340" stroke-width="1"/><rect x="995.6" y="73.51443472273559" width="13.799999999999999" height="7.398807726850805" fill="#006340"/><line x1="1025.5" y1="64.39072215334488" x2="1025.5" y2="88.69271361355777" stroke="#A02128" stroke-width="1"/><rect x="1018.6" y="73.51443472273559" width="13.799999999999999" height="11.368570033097058" fill="#A02128"/><line x1="1048.5" y1="70.51612331409763" x2="1048.5" y2="87.02335863675876" stroke="#006340" stroke-width="1"/><rect x="1041.6" y="78.51973562019816" width="13.799999999999999" height="6.363269135634482" fill="#006340"/><line x1="1071.5" y1="68.518182286904" x2="1071.5" y2="90.66678561599952" stroke="#006340" stroke-width="1"/><rect x="1064.6" y="73.73428242691045" width="13.799999999999999" height="4.785453193287708" fill="#006340"/><line x1="1094.5" y1="48.261827779594455" x2="1094.5" y2="81.52133608411134" stroke="#006340" stroke-width="1"/><rect x="1087.6" y="60.23240285062798" width="13.799999999999999" height="13.501879576282477" fill="#006340"/><line x1="1117.5" y1="32.299535875715264" x2="1117.5" y2="66.55211898005848" stroke="#006340" stroke-width="1"/><rect x="1110.6" y="38.240598328663395" width="13.799999999999999" height="21.991804521964582" fill="#006340"/><line x1="1140.5" y1="24" x2="1140.5" y2="40.46838250805854" stroke="#006340" stroke-width="1"/><rect x="1133.6" y="29.345348319958475" width="13.799999999999999" height="8.89525000870492" fill="#006340"/>
</svg>