<svg xmlns="http://www.w3.org/2000/svg" width="1200" height="700">
  <rect width="100%" height="100%" fill="#0d1117"/>
  <line x1="48" y1="24" x2="1152" y2="24" stroke="#21262d" stroke-width="1"/><line x1="48" y1="181" x2="1152" y2="181" stroke="#21262d" stroke-width="1"/><line x1="48" y1="338" x2="1152" y2="338" stroke="#21262d" stroke-width="1"/><line x1="48" y1="495" x2="1152" y2="495" stroke="#21262d" stroke-width="1"/><line x1="48" y1="652" x2="1152" y2="652" stroke="#21262d" stroke-width="1"/>
  <line x1="59.5" y1="611.6121831105465" x2="59.5" y2="652" stroke="#006340" stroke-width="1"/><rect x="52.6" y="627.7665524921908" width="13.799999999999999" height="9.241842645727502" fill="#006340"/><line x1="82.5" y1="621.5648456141441" x2="82.5" y2="644.4344313115766" stroke="#A02128" stroke-width="1"/><rect x="75.6" y="627.7665524921908" width="13.799999999999999" height="10.029652167697236" fill="#A02128"/><line x1="105.5" y1="615.1339204451191" x2="105.5" y2="649.6769748559896" stroke="#006340" stroke-width="1"/><rect x="98.6" y="626.4990601715085" width="13.799999999999999" height="11.297144488379558" fill="#006340"/><line x1="128.5" y1="585.9601045036432" x2="128.5" y2="631.917066605701" stroke="#006340" stroke-width="1"/><rect x="121.6" y="603.1712835731365" width="13.799999999999999" height="23.327776598371997" fill="#006340"/><line x1="151.5" y1="590.5422705249631" x2="151.5" y2="617.784224955208" stroke="#006340" stroke-width="1"/><rect x="144.6" y="594.6392867678417" width="13.799999999999999" height="8.531996805294852" fill="#006340"/><line x1="174.5" y1="584.4248197362031" x2="174.5" y2="597.9295851575106" stroke="#006340" stroke-width="1"/><rect x="167.6" y="592.0827106461008" width="13.799999999999999" height="2.556576121740818" fill="#006340"/><line x1="197.5" y1="582.0466181583503" x2="197.5" y2="603.865969394272" stroke="#A02128" stroke-width="1"/><rect x="190.6" y="592.0827106461008" width="13.799999999999999" height="10.970621132931797" fill="#A02128"/><line x1="220.5" y1="591.2625238551132" x2="220.5" y2="618.2422067293011" stroke="#006340" stroke-width="1"/><rect x="213.6" y="600.9032377189098" width="13.799999999999999" height="2.1500940601227967" fill="#006340"/><line x1="243.5" y1="574.4927826854627" x2="243.5" y2="609.3388539322491" stroke="#006340" stroke-width="1"/><rect x="236.6" y="578.5871824245671" width="13.799999999999999" height="22.316055294342732" fill="#006340"/><line x1="266.5" y1="562.1809706965545" x2="266.5" y2="588.7015950085726" stroke="#A02128" stroke-width="1"/><rect x="259.6" y="578.5871824245671" width="13.799999999999999" height="4.7869908201654425" fill="#A02128"/><line x1="289.5" y1="577.8632514389515" x2="289.5" y2="592.3788320164394" stroke="#006340" stroke-width="1"/><rect x="282.6" y="581.8353363561133" width="13.799999999999999" height="1.5388368886192438" fill="#006340"/><line x1="312.5" y1="550.957500305474" x2="312.5" y2="587.9789542149712" stroke="#006340" stroke-width="1"/><rect x="305.6" y="551.5669189646526" width="13.799999999999999" height="30.26841739146073" fill="#006340"/><line x1="335.5" y1="550.2352525335507" x2="335.5" y2="581.6166689747323" stroke="#A02128" stroke-width="1"/><rect x="328.6" y="551.5669189646526" width="13.799999999999999" height="13.095195647297146" fill="#A02128"/><line x1="358.5" y1="529.4187886653087" x2="358.5" y2="575.131147528903" stroke="#006340" stroke-width="1"/><rect x="351.6" y="538.6228860836934" width="13.799999999999999" height="26.03922852825633" fill="#006340"/><line x1="381.5" y1="495.5871733416774" x2="381.5" y2="552.8964923253213" stroke="#006340" stroke-width="1"/><rect x="374.6" y="504.2600310163317" width="13.799999999999999" height="34.36285506736169" fill="#006340"/><line x1="404.5" y1="492.48127506904723" x2="404.5" y2="518.7856082042845" stroke="#006340" stroke-width="1"/><rect x="397.6" y="497.4867691593381" width="13.799999999999999" height="6.773261856993599" fill="#006340"/><line x1="427.5" y1="465.90724216537456" x2="427.5" y2="512.458125966" stroke="#006340" stroke-width="1"/><rect x="420.6" y="474.34325750135986" width="13.799999999999999" height="23.14351165797825" fill="#006340"/><line x1="450.5" y1="436.14809233791385" x2="450.5" y2="479.9145147011079" stroke="#006340" stroke-width="1"/><rect x="443.6" y="445.97904208432595" width="13.799999999999999" height="28.364215417033904" fill="#006340"/><line x1="473.5" y1="417.8871707909183" x2="473.5" y2="451.2118907874095" stroke="#006340" stroke-width="1"/><rect x="466.6" y="427.6596443500332" width="13.799999999999999" height="18.31939773429275" fill="#006340"/><line x1="496.5" y1="384.15134038949856" x2="496.5" y2="429.562323370541" stroke="#006340" stroke-width="1"/><rect x="489.6" y="395.7299977870712" width="13.799999999999999" height="31.929646562961977" fill="#006340"/><line x1="519.5" y1="377.07634657364724" x2="519.5" y2="412.28141874335677" stroke="#A02128" stroke-width="1"/><rect x="512.6" y="395.7299977870712" width="13.799999999999999" height="11.036356047308118" fill="#A02128"/><line x1="542.5" y1="380.14472423690125" x2="542.5" y2="409.6249610704594" stroke="#006340" stroke-width="1"/><rect x="535.6" y="392.69903690245894" width="13.799999999999999" height="14.067316931920402" fill="#006340"/><line x1="565.5" y1="370.601569943185" x2="565.5" y2="408.74990981497496" stroke="#006340" stroke-width="1"/><rect x="558.6" y="378.2085712017299" width="13.799999999999999" height="14.490465700729033" fill="#006340"/><line x1="588.5" y1="375.0225109332041" x2="588.5" y2="401.67503456513964" stroke="#A02128" stroke-width="1"/><rect x="581.6" y="378.2085712017299" width="13.799999999999999" height="12.446294826704502" fill="#A02128"/><line x1="611.5" y1="360.80019334771964" x2="611.5" y2="394.2371378844233" stroke="#006340" stroke-width="1"/><rect x="604.6" y="378.5255720517106" width="13.799999999999999" height="12.12929397672383" fill="#006340"/><line x1="634.5" y1="339.3032043765619" x2="634.5" y2="386.0251579938536" stroke="#006340" stroke-width="1"/><rect x="627.6" y="343.17037884633675" width="13.799999999999999" height="35.35519320537384" fill="#006340"/><line x1="657.5" y1="324.4522177498668" x2="657.5" y2="370.15789063906215" stroke="#A02128" stroke-width="1"/><rect x="650.6" y="343.17037884633675" width="13.799999999999999" height="8.438561826880346" fill="#A02128"/><line x1="680.5" y1="314.43235187028756" x2="680.5" y2="352.94715905773603" stroke="#006340" stroke-width="1"/><rect x="673.6" y="317.49033256611216" width="13.799999999999999" height="34.11860810710493" fill="#006340"/><line x1="703.5" y1="299.64018069100945" x2="703.5" y2="343.3077662468362" stroke="#A02128" stroke-width="1"/><rect x="696.6" y="317.49033256611216" width="13.799999999999999" height="14.29108653531506" fill="#A02128"/><line x1="726.5" y1="318.74004886139124" x2="726.5" y2="359.90639255926226" stroke="#A02128" stroke-width="1"/><rect x="719.6" y="331.7814191014272" width="13.799999999999999" height="11.11280518180547" fill="#A02128"/><line x1="749.5" y1="294.14363193462697" x2="749.5" y2="345.69399294093597" stroke="#006340" stroke-width="1"/><rect x="742.6" y="300.2270956236038" width="13.799999999999999" height="42.66712865962887" fill="#006340"/><line x1="772.5" y1="287.6938989823558" x2="772.5" y2="303.0774926605064" stroke="#006340" stroke-width="1"/><rect x="765.6" y="296.63567194311844" width="13.799999999999999" height="3.591423680485377" fill="#006340"/><line x1="795.5" y1="284.964760858845" x2="795.5" y2="305.61697121730396" stroke="#A02128" stroke-width="1"/><rect x="788.6" y="296.63567194311844" width="13.799999999999999" height="6.331654412613602" fill="#A02128"/><line x1="818.5" y1="266.029246679219" x2="818.5" y2="316.01948873648485" stroke="#006340" stroke-width="1"/><rect x="811.6" y="266.9879368663619" width="13.799999999999999" height="35.979389489370135" fill="#006340"/><line x1="841.5" y1="240.15137410562392" x2="841.5" y2="274.85030887451825" stroke="#006340" stroke-width="1"/><rect x="834.6" y="245.74237667744666" width="13.799999999999999" height="21.24556018891525" fill="#006340"/><line x1="864.5" y1="231.19181797986909" x2="864.5" y2="262.33204988221246" stroke="#006340" stroke-width="1"/><rect x="857.6" y="238.27952027158238" width="13.799999999999999" height="7.462856405864272" fill="#006340"/><line x1="887.5" y1="192.2147942236192" x2="887.5" y2="255.49856711554804" stroke="#006340" stroke-width="1"/><rect x="880.6" y="201.36300578160825" width="13.799999999999999" height="36.91651448997413" fill="#006340"/><line x1="910.5" y1="142.53203662914797" x2="910.5" y2="215.4829190724799" stroke="#006340" stroke-width="1"/><rect x="903.6" y="159.47364434352437" width="13.799999999999999" height="41.88936143808388" fill="#006340"/><line x1="933.5" y1="149.62366215503693" x2="933.5" y2="175.80950959130155" stroke="#A02128" stroke-width="1"/><rect x="926.6" y="159.47364434352437" width="13.799999999999999" height="11.535356801217915" fill="#A02128"/><line x1="956.5" y1="141.59002377908786" x2="956.5" y2="185.01535398302792" stroke="#006340" stroke-width="1"/><rect x="949.6" y="151.00047788060652" width="13.799999999999999" height="20.00852326413576" fill="#006340"/><line x1="979.5" y1="121.26967916317767" x2="979.5" y2="160.26820745958082" stroke="#006340" stroke-width="1"/><rect x="972.6" y="137.27556776205233" width="13.799999999999999" height="13.724910118554192" fill="#006340"/><line x1="1002.5" y1="117.86242611023192" x2="1002.5" y2="156.69818372088616" stroke="#006340" stroke-width="1"/><rect x="995.6" y="126.29256313408655" width="13.799999999999999" height="10.983004627965784" fill="#006340"/><line x1="1025.5" y1="94.88083234775661" x2="1025.5" y2="132.78819059730165" stroke="#006340" stroke-width="1"/><rect x="1018.6" y="101.78806543896792" width="13.799999999999999" height="24.50449769511863" fill="#006340"/><line x1="1048.5" y1="46.856260094201275" x2="1048.5" y2="119.19668907227458" stroke="#006340" stroke-width="1"/><rect x="1041.6" y="64.50392948266017" width="13.799999999999999" height="37.28413595630775" fill="#006340"/><line x1="1071.5" y1="40.243516537590494" x2="1071.5" y2="76.50642094159343" stroke="#006340" stroke-width="1"/><rect x="1064.6" y="55.44556512193424" width="13.799999999999999" height="9.058364360725932" fill="#006340"/><line x1="1094.5" y1="48.59039243392306" x2="1094.5" y2="74.35746384242907" stroke="#006340" stroke-width="1"/><rect x="1087.6" y="53.55432081394554" width="13.799999999999999" height="1.8912443079886998" fill="#006340"/><line x1="1117.5" y1="36.714723299165826" x2="1117.5" y2="72.5077767646394" stroke="#006340" stroke-width="1"/><rect x="1110.6" y="38.255621715909" width="13.799999999999999" height="15.298699098036536" fill="#006340"/><line x1="1140.5" y1="24" x2="1140.5" y2="49.93596589843287" stroke="#A02128" stroke-width="1"/><rect x="1133.6" y="38.255621715909" width="13.799999999999999" height="8.271128757271526" fill="#A02128"/>
</svg>