<svg xmlns="http://www.w3.org/2000/svg" width="1200" height="700">
  <rect width="100%" height="100%" fill="#0d1117"/>
  <line x1="48" y1="24" x2="1152" y2="24" stroke="#21262d" stroke-width="1"/><line x1="48" y1="181" x2="1152" y2="181" stroke="#21262d" stroke-width="1"/><line x1="48" y1="338" x2="1152" y2="338" stroke="#21262d" stroke-width="1"/><line x1="48" y1="495" x2="1152" y2="495" stroke="#21262d" stroke-width="1"/><line x1="48" y1="652" x2="1152" y2="652" stroke="#21262d" stroke-width="1"/>
  <line x1="59.5" y1="619.3123039969224" x2="59.5" y2="635.9743957159993" stroke="#006340" stroke-width="1"/><rect x="52.6" y="624.8512264137593" width="13.799999999999999" height="9.658457442541021" fill="#006340"/><line x1="82.5" y1="615.5929267516938" x2="82.5" y2="652" stroke="#A02128" stroke-width="1"/><rect x="75.6" y="624.8512264137593" width="13.799999999999999" height="19.89028971529808" fill="#A02128"/><line x1="105.5" y1="613.4779253761793" x2="105.5" y2="647.6256611086341" stroke="#006340" stroke-width="1"/><rect x="98.6" y="625.3315538250966" width="13.799999999999999" height="19.409962303960697" fill="#006340"/><line x1="128.5" y1="583.4661743747606" x2="128.5" y2="627.6187772961745" stroke="#006340" stroke-width="1"/><rect x="121.6" y="597.7273768221556" width="13.799999999999999" height="27.604177002941015" fill="#006340"/><line x1="151.5" y1="588.7148722938188" x2="151.5" y2="599.3796471942632" stroke="#006340" stroke-width="1"/><rect x="144.6" y="593.3333830945114" width="13.799999999999999" height="4.393993727644215" fill="#006340"/><line x1="174.5" y1="580.8908409932808" x2="174.5" y2="620.9024978205726" stroke="#A02128" stroke-width="1"/><rect x="167.6" y="593.3333830945114" width="13.799999999999999" height="16.753609867253317" fill="#A02128"/><line x1="197.5" y1="594.3096241068538" x2="197.5" y2="624.4559087314101" stroke="#006340" stroke-width="1"/><rect x="190.6" y="605.424193416493" width="13.799999999999999" height="4.662799545271696" fill="#006340"/><line x1="220.5" y1="575.927400087817" x2="220.5" y2="611.8001082680692" stroke="#006340" stroke-width="1"/><rect x="213.6" y="593.5775985772577" width="13.799999999999999" height="11.846594839235308" fill="#006340"/><line x1="243.5" y1="580.040559473893" x2="243.5" y2="600.9579060173345" stroke="#006340" stroke-width="1"/><rect x="236.6" y="592.49408490183" width="13.799999999999999" height="1.0835136754277528" fill="#006340"/><line x1="266.5" y1="566.4882198801607" x2="266.5" y2="603.6879451785082" stroke="#006340" stroke-width="1"/><rect x="259.6" y="569.8298447111285" width="13.799999999999999" height="22.664240190701435" fill="#006340"/><line x1="289.5" y1="544.4216634996993" x2="289.5" y2="576.0814210148594" stroke="#006340" stroke-width="1"/><rect x="282.6" y="553.3580019086393" width="13.799999999999999" height="16.471842802489277" fill="#006340"/><line x1="312.5" y1="541.2468682405477" x2="312.5" y2="579.7040062875925" stroke="#A02128" stroke-width="1"/><rect x="305.6" y="553.3580019086393" width="13.799999999999999" height="12.81525894934407" fill="#A02128"/><line x1="335.5" y1="542.34334336067" x2="335.5" y2="569.6991064512442" stroke="#006340" stroke-width="1"/><rect x="328.6" y="543.9364467178555" width="13.799999999999999" height="22.236814140127876" fill="#006340"/><line x1="358.5" y1="537.6669378896559" x2="358.5" y2="555.5922368605675" stroke="#A02128" stroke-width="1"/><rect x="351.6" y="543.9364467178555" width="13.799999999999999" height="1" fill="#A02128"/><line x1="381.5" y1="537.646641921481" x2="381.5" y2="545.4111482010148" stroke="#006340" stroke-width="1"/><rect x="374.6" y="538.2749427787274" width="13.799999999999999" height="6.22038030297233" fill="#006340"/><line x1="404.5" y1="520.8294138035582" x2="404.5" y2="539.8084560043686" stroke="#006340" stroke-width="1"/><rect x="397.6" y="534.1524709116167" width="13.799999999999999" height="4.122471867110789" fill="#006340"/><line x1="427.5" y1="519.3751156720733" x2="427.5" y2="556.4845264160728" stroke="#A02128" stroke-width="1"/><rect x="420.6" y="534.1524709116167" width="13.799999999999999" height="20.5732026019989" fill="#A02128"/><line x1="450.5" y1="542.4030585562141" x2="450.5" y2="564.4549695075349" stroke="#A02128" stroke-width="1"/><rect x="443.6" y="554.7256735136156" width="13.799999999999999" height="3.880592134950575" fill="#A02128"/><line x1="473.5" y1="551.2335694926703" x2="473.5" y2="584.3261859479314" stroke="#A02128" stroke-width="1"/><rect x="466.6" y="558.6062656485661" width="13.799999999999999" height="11.349481183813396" fill="#A02128"/><line x1="496.5" y1="536.8585184069583" x2="496.5" y2="575.1330810110918" stroke="#006340" stroke-width="1"/><rect x="489.6" y="552.5031591439695" width="13.799999999999999" height="17.452587688410063" fill="#006340"/><line x1="519.5" y1="543.4882667986975" x2="519.5" y2="572.6214121518328" stroke="#A02128" stroke-width="1"/><rect x="512.6" y="552.5031591439695" width="13.799999999999999" height="18.445604044186894" fill="#A02128"/><line x1="542.5" y1="568.2664990001119" x2="542.5" y2="597.8957612590544" stroke="#A02128" stroke-width="1"/><rect x="535.6" y="570.9487631881564" width="13.799999999999999" height="19.6016497282543" fill="#A02128"/><line x1="565.5" y1="579.829715028248" x2="565.5" y2="607.6866661172176" stroke="#006340" stroke-width="1"/><rect x="558.6" y="586.2450417424797" width="13.799999999999999" height="4.305371173931007" fill="#006340"/><line x1="588.5" y1="573.5975853221078" x2="588.5" y2="611.3835479001962" stroke="#A02128" stroke-width="1"/><rect x="581.6" y="586.2450417424797" width="13.799999999999999" height="21.419052405778757" fill="#A02128"/><line x1="611.5" y1="589.7907101311869" x2="611.5" y2="609.4721314214153" stroke="#006340" stroke-width="1"/><rect x="604.6" y="594.9580116534344" width="13.799999999999999" height="12.706082494824045" fill="#006340"/><line x1="634.5" y1="589.9572625803078" x2="634.5" y2="607.257205506384" stroke="#A02128" stroke-width="1"/><rect x="627.6" y="594.9580116534344" width="13.799999999999999" height="9.635256449950703" fill="#A02128"/><line x1="657.5" y1="594.8562157423643" x2="657.5" y2="606.9017971093633" stroke="#006340" stroke-width="1"/><rect x="650.6" y="601.0499091745916" width="13.799999999999999" height="3.543358928793509" fill="#006340"/><line x1="680.5" y1="555.1508087955185" x2="680.5" y2="614.4461619681617" stroke="#006340" stroke-width="1"/><rect x="673.6" y="571.8665758623845" width="13.799999999999999" height="29.183333312207083" fill="#006340"/><line x1="703.5" y1="554.9922145376495" x2="703.5" y2="591.1945168794072" stroke="#A02128" stroke-width="1"/><rect x="696.6" y="571.8665758623845" width="13.799999999999999" height="18.12557671571642" fill="#A02128"/><line x1="726.5" y1="579.1433005487062" x2="726.5" y2="609.2821061863581" stroke="#A02128" stroke-width="1"/><rect x="719.6" y="589.9921525781009" width="13.799999999999999" height="16.71824659949641" fill="#A02128"/><line x1="749.5" y1="592.2416900129149" x2="749.5" y2="612.5370841127367" stroke="#A02128" stroke-width="1"/><rect x="742.6" y="606.7103991775973" width="13.799999999999999" height="3.4633940900737343" fill="#A02128"/><line x1="772.5" y1="590.314938919671" x2="772.5" y2="618.4505491894563" stroke="#006340" stroke-width="1"/><rect x="765.6" y="605.1086443893034" width="13.799999999999999" height="5.065148878367609" fill="#006340"/><line x1="795.5" y1="596.2617638041057" x2="795.5" y2="619.7965753905568" stroke="#A02128" stroke-width="1"/><rect x="788.6" y="605.1086443893034" width="13.799999999999999" height="9.326670109885868" fill="#A02128"/><line x1="818.5" y1="595.075636471302" x2="818.5" y2="629.8205310630234" stroke="#006340" stroke-width="1"/><rect x="811.6" y="610.622154816782" width="13.799999999999999" height="3.8131596824073313" fill="#006340"/><line x1="841.5" y1="540.6792752565502" x2="841.5" y2="618.4877734408049" stroke="#006340" stroke-width="1"/><rect x="834.6" y="557.6919734730667" width="13.799999999999999" height="52.930181343715276" fill="#006340"/><line x1="864.5" y1="507.6492259242316" x2="864.5" y2="570.2781284027161" stroke="#006340" stroke-width="1"/><rect x="857.6" y="510.5746495480098" width="13.799999999999999" height="47.117323925056894" fill="#006340"/><line x1="887.5" y1="463.21939748520765" x2="887.5" y2="524.9760888949783" stroke="#006340" stroke-width="1"/><rect x="880.6" y="471.913772624461" width="13.799999999999999" height="38.66087692354881" fill="#006340"/><line x1="910.5" y1="433.12838212372105" x2="910.5" y2="474.0325789660281" stroke="#006340" stroke-width="1"/><rect x="903.6" y="446.50987968444576" width="13.799999999999999" height="25.403892940015226" fill="#006340"/><line x1="933.5" y1="402.09862069809606" x2="933.5" y2="454.90418025659596" stroke="#006340" stroke-width="1"/><rect x="926.6" y="420.1913668815044" width="13.799999999999999" height="26.31851280294137" fill="#006340"/><line x1="956.5" y1="344.3876146037631" x2="956.5" y2="430.065830327496" stroke="#006340" stroke-width="1"/><rect x="949.6" y="354.72920296199754" width="13.799999999999999" height="65.46216391950685" fill="#006340"/><line x1="979.5" y1="320.95972107607383" x2="979.5" y2="355.0891477559802" stroke="#006340" stroke-width="1"/><rect x="972.6" y="327.28447966186775" width="13.799999999999999" height="27.444723300129795" fill="#006340"/><line x1="1002.5" y1="281.0395772323667" x2="1002.5" y2="337.0666733982155" stroke="#006340" stroke-width="1"/><rect x="995.6" y="295.003513292583" width="13.799999999999999" height="32.28096636928473" fill="#006340"/><line x1="1025.5" y1="223.57386523602293" x2="1025.5" y2="298.2929556159206" stroke="#006340" stroke-width="1"/><rect x="1018.6" y="229.43748308461693" width="13.799999999999999" height="65.5660302079661" fill="#006340"/><line x1="1048.5" y1="165.2970462671675" x2="1048.5" y2="245.73584013547946" stroke="#006340" stroke-width="1"/><rect x="1041.6" y="173.63645224353309" width="13.799999999999999" height="55.80103084108384" fill="#006340"/><line x1="1071.5" y1="126.23829281508097" x2="1071.5" y2="176.5974525032018" stroke="#006340" stroke-width="1"/><rect x="1064.6" y="126.38598734215111" width="13.799999999999999" height="47.250464901381974" fill="#006340"/><line x1="1094.5" y1="96.20644306843076" x2="1094.5" y2="145.7355344204114" stroke="#006340" stroke-width="1"/><rect x="1087.6" y="103.85985440488867" width="13.799999999999999" height="22.526132937262446" fill="#006340"/><line x1="1117.5" y1="60.14243004779064" x2="1117.5" y2="112.46036954834699" stroke="#006340" stroke-width="1"/><rect x="1110.6" y="78.96008172558038" width="13.799999999999999" height="24.899772679308285" fill="#006340"/><line x1="1140.5" y1="24" x2="1140.5" y2="83.53443170510138" stroke="#006340" stroke-width="1"/><rect x="1133.6" y="33.87624658156392" width="13.799999999999999" height="45.08383514401646" fill="#006340"/>
</svg>