<svg xmlns="http://www.w3.org/2000/svg" width="1200" height="700">
  <rect width="100%" height="100%" fill="#0d1117"/>
  <line x1="48" y1="24" x2="1152" y2="24" stroke="#21262d" stroke-width="1"/><line x1="48" y1="181" x2="1152" y2="181" stroke="#21262d" stroke-width="1"/><line x1="48" y1="338" x2="1152" y2="338" stroke="#21262d" stroke-width="1"/><line x1="48" y1="495" x2="1152" y2="495" stroke="#21262d" stroke-width="1"/><line x1="48" y1="652" x2="1152" y2="652" stroke="#21262d" stroke-width="1"/>
  <line x1="59.5" y1="225.11196678213656" x2="59.5" y2="386.8348078479507" stroke="#A02128" stroke-width="1"/><rect x="52.6" y="278.8198794170284" width="13.799999999999999" height="69.80080719562159" fill="#A02128"/><line x1="82.5" y1="317.6617521401978" x2="82.5" y2="383.5780277589563" stroke="#006340" stroke-width="1"/><rect x="75.6" y="346.6711444622806" width="13.799999999999999" height="1.949542150369382" fill="#006340"/><line x1="105.5" y1="261.51835962337424" x2="105.5" y2="396.00498396577996" stroke="#006340" stroke-width="1"/><rect x="98.6" y="285.59235333992285" width="13.799999999999999" height="61.07879112235776" fill="#006340"/><line x1="128.5" y1="170.3555859586137" x2="128.5" y2="362.54936409931275" stroke="#006340" stroke-width="1"/><rect x="121.6" y="191.0192197884781" width="13.799999999999999" height="94.57313355144476" fill="#006340"/><line x1="151.5" y1="50.737134919881555" x2="151.5" y2="213.71206378482987" stroke="#006340" stroke-width="1"/><rect x="144.6" y="114.30964273474046" width="13.799999999999999" height="76.70957705373763" fill="#006340"/><line x1="174.5" y1="82.21406517640082" x2="174.5" y2="228.1212270933542" stroke="#A02128" stroke-width="1"/><rect x="167.6" y="114.30964273474046" width="13.799999999999999" height="104.25320105897293" fill="#A02128"/><line x1="197.5" y1="149.83531423052642" x2="197.5" y2="234.5291413062775" stroke="#006340" stroke-width="1"/><rect x="190.6" y="210.47624840754116" width="13.799999999999999" height="8.086595386172235" fill="#006340"/><line x1="220.5" y1="116.11347862963612" x2="220.5" y2="261.01423635824625" stroke="#006340" stroke-width="1"/><rect x="213.6" y="189.28266864037408" width="13.799999999999999" height="21.19357976716708" fill="#006340"/><line x1="243.5" y1="54.39305145299522" x2="243.5" y2="236.01311877641444" stroke="#006340" stroke-width="1"/><rect x="236.6" y="97.738261502167" width="13.799999999999999" height="91.54440713820708" fill="#006340"/><line x1="266.5" y1="56.86178719521274" x2="266.5" y2="122.51976528796024" stroke="#A02128" stroke-width="1"/><rect x="259.6" y="97.738261502167" width="13.799999999999999" height="20.188205514168885" fill="#A02128"/><line x1="289.5" y1="97.58111148999501" x2="289.5" y2="141.80759187601842" stroke="#A02128" stroke-width="1"/><rect x="282.6" y="117.92646701633589" width="13.799999999999999" height="19.649811716866907" fill="#A02128"/><line x1="312.5" y1="52.80015068556361" x2="312.5" y2="171.59297213360873" stroke="#006340" stroke-width="1"/><rect x="305.6" y="66.92109776906159" width="13.799999999999999" height="70.65518096414121" fill="#006340"/><line x1="335.5" y1="24" x2="335.5" y2="225.26040558903594" stroke="#A02128" stroke-width="1"/><rect x="328.6" y="66.92109776906159" width="13.799999999999999" height="94.56271579694913" fill="#A02128"/><line x1="358.5" y1="125.60510396086192" x2="358.5" y2="233.3749426007355" stroke="#A02128" stroke-width="1"/><rect x="351.6" y="161.48381356601072" width="13.799999999999999" height="47.89371880832243" fill="#A02128"/><line x1="381.5" y1="160.4486120770962" x2="381.5" y2="220.8560227127624" stroke="#A02128" stroke-width="1"/><rect x="374.6" y="209.37753237433316" width="13.799999999999999" height="6.854628613175919" fill="#A02128"/><line x1="404.5" y1="191.01572423682762" x2="404.5" y2="313.7608370887755" stroke="#A02128" stroke-width="1"/><rect x="397.6" y="216.23216098750908" width="13.799999999999999" height="57.351497264250895" fill="#A02128"/><line x1="427.5" y1="257.6292918419972" x2="427.5" y2="380.5641638083036" stroke="#A02128" stroke-width="1"/><rect x="420.6" y="273.58365825175997" width="13.799999999999999" height="79.19139355907106" fill="#A02128"/><line x1="450.5" y1="309.74880892267305" x2="450.5" y2="487.6435483492803" stroke="#A02128" stroke-width="1"/><rect x="443.6" y="352.77505181083103" width="13.799999999999999" height="63.321988757984855" fill="#A02128"/><line x1="473.5" y1="329.0998938132111" x2="473.5" y2="448.1545372535332" stroke="#006340" stroke-width="1"/><rect x="466.6" y="331.6773351958492" width="13.799999999999999" height="84.41970537296669" fill="#006340"/><line x1="496.5" y1="274.9660913403839" x2="496.5" y2="440.1326440933418" stroke="#A02128" stroke-width="1"/><rect x="489.6" y="331.6773351958492" width="13.799999999999999" height="43.928166815605834" fill="#A02128"/><line x1="519.5" y1="312.1870644987778" x2="519.5" y2="487.8251552614315" stroke="#A02128" stroke-width="1"/><rect x="512.6" y="375.60550201145503" width="13.799999999999999" height="68.46366377360692" fill="#A02128"/><line x1="542.5" y1="427.7647231308971" x2="542.5" y2="534.4193872050905" stroke="#A02128" stroke-width="1"/><rect x="535.6" y="444.06916578506195" width="13.799999999999999" height="56.551976255942066" fill="#A02128"/><line x1="565.5" y1="425.64693865572974" x2="565.5" y2="556.7929670088589" stroke="#A02128" stroke-width="1"/><rect x="558.6" y="500.621142041004" width="13.799999999999999" height="45.75807378564156" fill="#A02128"/><line x1="588.5" y1="439.8426695015262" x2="588.5" y2="616.3234144141431" stroke="#006340" stroke-width="1"/><rect x="581.6" y="510.69941276743884" width="13.799999999999999" height="35.67980305920673" fill="#006340"/><line x1="611.5" y1="424.771948891172" x2="611.5" y2="536.7432815342426" stroke="#006340" stroke-width="1"/><rect x="604.6" y="452.8254276720914" width="13.799999999999999" height="57.87398509534745" fill="#006340"/><line x1="634.5" y1="308.6564333428404" x2="634.5" y2="453.4166981870191" stroke="#006340" stroke-width="1"/><rect x="627.6" y="369.03903608600973" width="13.799999999999999" height="83.78639158608166" fill="#006340"/><line x1="657.5" y1="294.43980337028296" x2="657.5" y2="476.7992332008995" stroke="#A02128" stroke-width="1"/><rect x="650.6" y="369.03903608600973" width="13.799999999999999" height="102.16716589038339" fill="#A02128"/><line x1="680.5" y1="469.5719863801628" x2="680.5" y2="623.796978590768" stroke="#A02128" stroke-width="1"/><rect x="673.6" y="471.2062019763931" width="13.799999999999999" height="90.18065222853625" fill="#A02128"/><line x1="703.5" y1="420.40493927825" x2="703.5" y2="573.0173592167292" stroke="#006340" stroke-width="1"/><rect x="696.6" y="490.0087588222375" width="13.799999999999999" height="71.37809538269187" fill="#006340"/><line x1="726.5" y1="428.06225004285756" x2="726.5" y2="529.1028000209999" stroke="#006340" stroke-width="1"/><rect x="719.6" y="471.28374824609057" width="13.799999999999999" height="18.72501057614693" fill="#006340"/><line x1="749.5" y1="391.504418850353" x2="749.5" y2="474.91758624976217" stroke="#006340" stroke-width="1"/><rect x="742.6" y="412.4642328969596" width="13.799999999999999" height="58.819515349130995" fill="#006340"/><line x1="772.5" y1="272.9942636157582" x2="772.5" y2="467.6326129689785" stroke="#006340" stroke-width="1"/><rect x="765.6" y="341.726943045453" width="13.799999999999999" height="70.73728985150655" fill="#006340"/><line x1="795.5" y1="336.3800743477785" x2="795.5" y2="460.75381983433715" stroke="#A02128" stroke-width="1"/><rect x="788.6" y="341.726943045453" width="13.799999999999999" height="98.88303054310404" fill="#A02128"/><line x1="818.5" y1="437.6638318624691" x2="818.5" y2="461.51680108499556" stroke="#006340" stroke-width="1"/><rect x="811.6" y="440.38560954264017" width="13.799999999999999" height="1" fill="#006340"/><line x1="841.5" y1="355.4153046697877" x2="841.5" y2="487.5786300515896" stroke="#006340" stroke-width="1"/><rect x="834.6" y="397.3617584062531" width="13.799999999999999" height="43.023851136387066" fill="#006340"/><line x1="864.5" y1="321.60279771073795" x2="864.5" y2="427.5590459649514" stroke="#006340" stroke-width="1"/><rect x="857.6" y="368.6814619540544" width="13.799999999999999" height="28.680296452198718" fill="#006340"/><line x1="887.5" y1="339.2554699202942" x2="887.5" y2="516.5480194336405" stroke="#A02128" stroke-width="1"/><rect x="880.6" y="368.6814619540544" width="13.799999999999999" height="91.65815404431379" fill="#A02128"/><line x1="910.5" y1="382.91921643950974" x2="910.5" y2="479.25126730851525" stroke="#006340" stroke-width="1"/><rect x="903.6" y="382.9477404771377" width="13.799999999999999" height="77.39187552123047" fill="#006340"/><line x1="933.5" y1="275.0266379764735" x2="933.5" y2="446.756809553921" stroke="#006340" stroke-width="1"/><rect x="926.6" y="292.2957111738175" width="13.799999999999999" height="90.6520293033202" fill="#006340"/><line x1="956.5" y1="248.2538763302615" x2="956.5" y2="389.881375919546" stroke="#A02128" stroke-width="1"/><rect x="949.6" y="292.2957111738175" width="13.799999999999999" height="31.838595310926735" fill="#A02128"/><line x1="979.5" y1="282.80162001724926" x2="979.5" y2="463.7337333243212" stroke="#A02128" stroke-width="1"/><rect x="972.6" y="324.13430648474423" width="13.799999999999999" height="100.02462043436083" fill="#A02128"/><line x1="1002.5" y1="402.6472621408892" x2="1002.5" y2="539.2653440412416" stroke="#A02128" stroke-width="1"/><rect x="995.6" y="424.15892691910506" width="13.799999999999999" height="42.20307044284482" fill="#A02128"/><line x1="1025.5" y1="393.830321255171" x2="1025.5" y2="591.5972841966845" stroke="#A02128" stroke-width="1"/><rect x="1018.6" y="466.3619973619499" width="13.799999999999999" height="102.84044064402224" fill="#A02128"/><line x1="1048.5" y1="499.6990359841732" x2="1048.5" y2="571.1733933088117" stroke="#006340" stroke-width="1"/><rect x="1041.6" y="505.5052071114375" width="13.799999999999999" height="63.697230894534584" fill="#006340"/><line x1="1071.5" y1="442.189143289671" x2="1071.5" y2="555.4287883877591" stroke="#006340" stroke-width="1"/><rect x="1064.6" y="486.878202203628" width="13.799999999999999" height="18.62700490780952" fill="#006340"/><line x1="1094.5" y1="473.4740941811587" x2="1094.5" y2="532.1419990523951" stroke="#A02128" stroke-width="1"/><rect x="1087.6" y="486.878202203628" width="13.799999999999999" height="37.14293166892719" fill="#A02128"/><line x1="1117.5" y1="488.394131657627" x2="1117.5" y2="608.9035472061863" stroke="#A02128" stroke-width="1"/><rect x="1110.6" y="524.0211338725552" width="13.799999999999999" height="75.70600113479418" fill="#A02128"/><line x1="1140.5" y1="560.255226304345" x2="1140.5" y2="652" stroke="#A02128" stroke-width="1"/><rect x="1133.6" y="599.7271350073494" width="13.799999999999999" height="47.066822260087406" fill="#A02128"/>
</svg>