<svg xmlns="http://www.w3.org/2000/svg" width="1200" height="700">
  <rect width="100%" height="100%" fill="#0d1117"/>
  <line x1="48" y1="24" x2="1152" y2="24" stroke="#21262d" stroke-width="1"/><line x1="48" y1="181" x2="1152" y2="181" stroke="#21262d" stroke-width="1"/><line x1="48" y1="338" x2="1152" y2="338" stroke="#21262d" stroke-width="1"/><line x1="48" y1="495" x2="1152" y2="495" stroke="#21262d" stroke-width="1"/><line x1="48" y1="652" x2="1152" y2="652" stroke="#21262d" stroke-width="1"/>
  <line x1="59.5" y1="250.641377580155" x2="59.5" y2="322.1052799851004" stroke="#A02128" stroke-width="1"/><rect x="52.6" y="257.25132859493004" width="13.799999999999999" height="11.503201428619661" fill="#A02128"/><line x1="82.5" y1="237.83828507728884" x2="82.5" y2="383.242532345705" stroke="#A02128" stroke-width="1"/><rect x="75.6" y="268.7545300235497" width="13.799999999999999" height="78.86870243104437" fill="#A02128"/><line x1="105.5" y1="249.65051114986306" x2="105.5" y2="369.1881259078143" stroke="#006340" stroke-width="1"/><rect x="98.6" y="273.2170110527386" width="13.799999999999999" height="74.40622140185548" fill="#006340"/><line x1="128.5" y1="216.77690436654171" x2="128.5" y2="328.8239951132059" stroke="#006340" stroke-width="1"/><rect x="121.6" y="248.8630638429559" width="13.799999999999999" height="24.35394720978269" fill="#006340"/><line x1="151.5" y1="232.62868740957464" x2="151.5" y2="330.21529479002214" stroke="#A02128" stroke-width="1"/><rect x="144.6" y="248.8630638429559" width="13.799999999999999" height="74.72599828803777" fill="#A02128"/><line x1="174.5" y1="266.11258002307926" x2="174.5" y2="352.2531096539286" stroke="#006340" stroke-width="1"/><rect x="167.6" y="275.51697888859064" width="13.799999999999999" height="48.07208324240304" fill="#006340"/><line x1="197.5" y1="210.02502459990183" x2="197.5" y2="331.2595234651111" stroke="#006340" stroke-width="1"/><rect x="190.6" y="221.5187131664971" width="13.799999999999999" height="53.99826572209355" fill="#006340"/><line x1="220.5" y1="120.44743225817274" x2="220.5" y2="272.68354653374064" stroke="#006340" stroke-width="1"/><rect x="213.6" y="151.13148656524032" width="13.799999999999999" height="70.38722660125677" fill="#006340"/><line x1="243.5" y1="140.67877546936393" x2="243.5" y2="226.23173919905844" stroke="#A02128" stroke-width="1"/><rect x="236.6" y="151.13148656524032" width="13.799999999999999" height="62.76470545873474" fill="#A02128"/><line x1="266.5" y1="161.115647963311" x2="266.5" y2="258.85754314412344" stroke="#006340" stroke-width="1"/><rect x="259.6" y="177.93411278890608" width="13.799999999999999" height="35.962079235068984" fill="#006340"/><line x1="289.5" y1="141.478747916391" x2="289.5" y2="214.55774032005297" stroke="#006340" stroke-width="1"/><rect x="282.6" y="172.9947605965163" width="13.799999999999999" height="4.9393521923897765" fill="#006340"/><line x1="312.5" y1="172.03835243063332" x2="312.5" y2="247.01457136283165" stroke="#A02128" stroke-width="1"/><rect x="305.6" y="172.9947605965163" width="13.799999999999999" height="33.454340327375576" fill="#A02128"/><line x1="335.5" y1="184.1057668630413" x2="335.5" y2="239.92542249205502" stroke="#A02128" stroke-width="1"/><rect x="328.6" y="206.44910092389188" width="13.799999999999999" height="13.93597383191684" fill="#A02128"/><line x1="358.5" y1="127.99027700227111" x2="358.5" y2="262.91300823388053" stroke="#006340" stroke-width="1"/><rect x="351.6" y="182.640077636802" width="13.799999999999999" height="37.74499711900671" fill="#006340"/><line x1="381.5" y1="120.16207967710989" x2="381.5" y2="221.96443513304337" stroke="#006340" stroke-width="1"/><rect x="374.6" y="163.79266652604196" width="13.799999999999999" height="18.84741111076005" fill="#006340"/><line x1="404.5" y1="96.74909332373056" x2="404.5" y2="203.33701938963048" stroke="#006340" stroke-width="1"/><rect x="397.6" y="104.69426838944457" width="13.799999999999999" height="59.09839813659738" fill="#006340"/><line x1="427.5" y1="75.55836738667085" x2="427.5" y2="191.79497860111405" stroke="#A02128" stroke-width="1"/><rect x="420.6" y="104.69426838944457" width="13.799999999999999" height="53.47347617503863" fill="#A02128"/><line x1="450.5" y1="102.01731786760342" x2="450.5" y2="170.05756856422323" stroke="#006340" stroke-width="1"/><rect x="443.6" y="129.02782485315595" width="13.799999999999999" height="29.139919711327252" fill="#006340"/><line x1="473.5" y1="106.94447081882436" x2="473.5" y2="186.45707664256923" stroke="#A02128" stroke-width="1"/><rect x="466.6" y="129.02782485315595" width="13.799999999999999" height="17.989537228853976" fill="#A02128"/><line x1="496.5" y1="92.19790585903161" x2="496.5" y2="269.9576515198609" stroke="#A02128" stroke-width="1"/><rect x="489.6" y="147.01736208200992" width="13.799999999999999" height="82.48410073249806" fill="#A02128"/><line x1="519.5" y1="212.764804353971" x2="519.5" y2="254.95401629890353" stroke="#006340" stroke-width="1"/><rect x="512.6" y="216.27958448013425" width="13.799999999999999" height="13.221878334373741" fill="#006340"/><line x1="542.5" y1="178.64216611619668" x2="542.5" y2="275.91241023736353" stroke="#A02128" stroke-width="1"/><rect x="535.6" y="216.27958448013425" width="13.799999999999999" height="20.037034099339678" fill="#A02128"/><line x1="565.5" y1="167.0024508858101" x2="565.5" y2="262.8145445802484" stroke="#006340" stroke-width="1"/><rect x="558.6" y="174.2054105095511" width="13.799999999999999" height="62.11120806992284" fill="#006340"/><line x1="588.5" y1="169.35153390272262" x2="588.5" y2="196.35565950984483" stroke="#A02128" stroke-width="1"/><rect x="581.6" y="174.2054105095511" width="13.799999999999999" height="3.6130949357165036" fill="#A02128"/><line x1="611.5" y1="145.1596131366981" x2="611.5" y2="181.87619776569574" stroke="#006340" stroke-width="1"/><rect x="604.6" y="164.11161681137514" width="13.799999999999999" height="13.706888633892447" fill="#006340"/><line x1="634.5" y1="119.09456293360927" x2="634.5" y2="241.61352344691755" stroke="#A02128" stroke-width="1"/><rect x="627.6" y="164.11161681137514" width="13.799999999999999" height="40.63878934939595" fill="#A02128"/><line x1="657.5" y1="117.83237342254677" x2="657.5" y2="212.35399778930713" stroke="#006340" stroke-width="1"/><rect x="650.6" y="136.45548562027682" width="13.799999999999999" height="68.29492054049427" fill="#006340"/><line x1="680.5" y1="71.0112818817937" x2="680.5" y2="179.09814210878648" stroke="#006340" stroke-width="1"/><rect x="673.6" y="103.66301557996246" width="13.799999999999999" height="32.792470040314356" fill="#006340"/><line x1="703.5" y1="62.33557337303023" x2="703.5" y2="157.36269301372363" stroke="#A02128" stroke-width="1"/><rect x="696.6" y="103.66301557996246" width="13.799999999999999" height="39.031993486574436" fill="#A02128"/><line x1="726.5" y1="78.12320284382247" x2="726.5" y2="198.76387738262838" stroke="#006340" stroke-width="1"/><rect x="719.6" y="116.6717062912868" width="13.799999999999999" height="26.0233027752501" fill="#006340"/><line x1="749.5" y1="84.61976524066154" x2="749.5" y2="136.73027904221055" stroke="#A02128" stroke-width="1"/><rect x="742.6" y="116.6717062912868" width="13.799999999999999" height="3.9384927020387295" fill="#A02128"/><line x1="772.5" y1="100.64956992198904" x2="772.5" y2="190.49303317429417" stroke="#A02128" stroke-width="1"/><rect x="765.6" y="120.61019899332553" width="13.799999999999999" height="31.061255848828978" fill="#A02128"/><line x1="795.5" y1="138.35364027281707" x2="795.5" y2="264.08736289370523" stroke="#A02128" stroke-width="1"/><rect x="788.6" y="151.6714548421545" width="13.799999999999999" height="68.35387767267633" fill="#A02128"/><line x1="818.5" y1="130.6910373011043" x2="818.5" y2="246.64255425508196" stroke="#006340" stroke-width="1"/><rect x="811.6" y="139.23782725279148" width="13.799999999999999" height="80.78750526203936" fill="#006340"/><line x1="841.5" y1="24" x2="841.5" y2="174.87908069792866" stroke="#006340" stroke-width="1"/><rect x="834.6" y="65.13916538442402" width="13.799999999999999" height="74.09866186836746" fill="#006340"/><line x1="864.5" y1="58.64210807117615" x2="864.5" y2="150.45325560822369" stroke="#A02128" stroke-width="1"/><rect x="857.6" y="65.13916538442402" width="13.799999999999999" height="80.21731779172899" fill="#A02128"/><line x1="887.5" y1="127.775748414178" x2="887.5" y2="227.77936121745034" stroke="#A02128" stroke-width="1"/><rect x="880.6" y="145.356483176153" width="13.799999999999999" height="43.61065024014533" fill="#A02128"/><line x1="910.5" y1="93.5464305569352" x2="910.5" y2="210.2722696412098" stroke="#006340" stroke-width="1"/><rect x="903.6" y="142.45302789951745" width="13.799999999999999" height="46.51410551678089" fill="#006340"/><line x1="933.5" y1="126.43997011038277" x2="933.5" y2="193.7830495728332" stroke="#A02128" stroke-width="1"/><rect x="926.6" y="142.45302789951745" width="13.799999999999999" height="48.77140380807555" fill="#A02128"/><line x1="956.5" y1="86.9911382450631" x2="956.5" y2="235.66281660392832" stroke="#006340" stroke-width="1"/><rect x="949.6" y="127.47350997877948" width="13.799999999999999" height="63.75092172881352" fill="#006340"/><line x1="979.5" y1="85.25883833639637" x2="979.5" y2="193.1448445385882" stroke="#A02128" stroke-width="1"/><rect x="972.6" y="127.47350997877948" width="13.799999999999999" height="29.807477503654354" fill="#A02128"/><line x1="1002.5" y1="112.04994183797601" x2="1002.5" y2="284.45077655987063" stroke="#A02128" stroke-width="1"/><rect x="995.6" y="157.28098748243383" width="13.799999999999999" height="80.29981029367826" fill="#A02128"/><line x1="1025.5" y1="229.54287605714853" x2="1025.5" y2="289.35228177035475" stroke="#A02128" stroke-width="1"/><rect x="1018.6" y="237.5807977761121" width="13.799999999999999" height="26.617865453914305" fill="#A02128"/><line x1="1048.5" y1="262.17306463855437" x2="1048.5" y2="394.5425370289516" stroke="#A02128" stroke-width="1"/><rect x="1041.6" y="264.1986632300264" width="13.799999999999999" height="81.97949430209917" fill="#A02128"/><line x1="1071.5" y1="336.9111513048987" x2="1071.5" y2="397.3919528556844" stroke="#A02128" stroke-width="1"/><rect x="1064.6" y="346.17815753212557" width="13.799999999999999" height="20.37506496651605" fill="#A02128"/><line x1="1094.5" y1="342.01114600062317" x2="1094.5" y2="445.92965911399784" stroke="#A02128" stroke-width="1"/><rect x="1087.6" y="366.5532224986416" width="13.799999999999999" height="51.84160195477648" fill="#A02128"/><line x1="1117.5" y1="404.8900273712177" x2="1117.5" y2="652" stroke="#A02128" stroke-width="1"/><rect x="1110.6" y="418.3948244534181" width="13.799999999999999" height="208.46219909599586" fill="#A02128"/><line x1="1140.5" y1="503.03264470964984" x2="1140.5" y2="645.0842782582183" stroke="#006340" stroke-width="1"/><rect x="1133.6" y="517.3448816243183" width="13.799999999999999" height="109.51214192509565" fill="#006340"/>
</svg>