<svg xmlns="http://www.w3.org/2000/svg" width="1200" height="700">
  <rect width="100%" height="100%" fill="#0d1117"/>
  <line x1="48" y1="24" x2="1152" y2="24" stroke="#21262d" stroke-width="1"/><line x1="48" y1="181" x2="1152" y2="181" stroke="#21262d" stroke-width="1"/><line x1="48" y1="338" x2="1152" y2="338" stroke="#21262d" stroke-width="1"/><line x1="48" y1="495" x2="1152" y2="495" stroke="#21262d" stroke-width="1"/><line x1="48" y1="652" x2="1152" y2="652" stroke="#21262d" stroke-width="1"/>
  <line x1="59.5" y1="630.4338487693065" x2="59.5" y2="652" stroke="#006340" stroke-width="1"/><rect x="52.6" y="638.4898798689501" width="13.799999999999999" height="4.591329023015305" fill="#006340"/><line x1="82.5" y1="623.0444013768429" x2="82.5" y2="643.7055242920578" stroke="#006340" stroke-width="1"/><rect x="75.6" y="629.751854744524" width="13.799999999999999" height="8.73802512442603" fill="#006340"/><line x1="105.5" y1="618.5593221491022" x2="105.5" y2="632.502542714154" stroke="#006340" stroke-width="1"/><rect x="98.6" y="620.7384425747035" width="13.799999999999999" height="9.013412169820526" fill="#006340"/><line x1="128.5" y1="615.4715598948937" x2="128.5" y2="625.7554240445455" stroke="#A02128" stroke-width="1"/><rect x="121.6" y="620.7384425747035" width="13.799999999999999" height="1.5749822642410436" fill="#A02128"/><line x1="151.5" y1="613.6873448066112" x2="151.5" y2="633.4111538448489" stroke="#A02128" stroke-width="1"/><rect x="144.6" y="622.3134248389446" width="13.799999999999999" height="6.730758544872174" fill="#A02128"/><line x1="174.5" y1="619.1713058302827" x2="174.5" y2="631.0328688588835" stroke="#006340" stroke-width="1"/><rect x="167.6" y="622.2799557790792" width="13.799999999999999" height="6.764227604737584" fill="#006340"/><line x1="197.5" y1="608.9300395954788" x2="197.5" y2="632.5849897237248" stroke="#006340" stroke-width="1"/><rect x="190.6" y="620.0464744390566" width="13.799999999999999" height="2.2334813400225357" fill="#006340"/><line x1="220.5" y1="619.6175201905495" x2="220.5" y2="630.9650113940311" stroke="#A02128" stroke-width="1"/><rect x="213.6" y="620.0464744390566" width="13.799999999999999" height="4.871984387944735" fill="#A02128"/><line x1="243.5" y1="624.1722187789085" x2="243.5" y2="644.2976395223044" stroke="#A02128" stroke-width="1"/><rect x="236.6" y="624.9184588270014" width="13.799999999999999" height="6.755365111936612" fill="#A02128"/><line x1="266.5" y1="629.6055322494208" x2="266.5" y2="633.7251594235275" stroke="#A02128" stroke-width="1"/><rect x="259.6" y="631.673823938938" width="13.799999999999999" height="1.340121721181049" fill="#A02128"/><line x1="289.5" y1="602.6310033884046" x2="289.5" y2="643.9923744693464" stroke="#006340" stroke-width="1"/><rect x="282.6" y="612.1410808729346" width="13.799999999999999" height="20.872864787184426" fill="#006340"/><line x1="312.5" y1="579.3161481722994" x2="312.5" y2="612.3814004285287" stroke="#006340" stroke-width="1"/><rect x="305.6" y="589.626142488725" width="13.799999999999999" height="22.514938384209586" fill="#006340"/><line x1="335.5" y1="587.4645557198746" x2="335.5" y2="607.2430007920245" stroke="#A02128" stroke-width="1"/><rect x="328.6" y="589.626142488725" width="13.799999999999999" height="10.798842980482505" fill="#A02128"/><line x1="358.5" y1="592.1314587126262" x2="358.5" y2="612.5830997810089" stroke="#006340" stroke-width="1"/><rect x="351.6" y="597.5153957092987" width="13.799999999999999" height="2.9095897599088403" fill="#006340"/><line x1="381.5" y1="585.0686899130098" x2="381.5" y2="615.4851781756101" stroke="#A02128" stroke-width="1"/><rect x="374.6" y="597.5153957092987" width="13.799999999999999" height="5.253672538014257" fill="#A02128"/><line x1="404.5" y1="584.7590433397302" x2="404.5" y2="610.1950319788159" stroke="#006340" stroke-width="1"/><rect x="397.6" y="592.1723580552753" width="13.799999999999999" height="10.596710192037676" fill="#006340"/><line x1="427.5" y1="581.0823456546351" x2="427.5" y2="600.038429055703" stroke="#006340" stroke-width="1"/><rect x="420.6" y="581.3638700470032" width="13.799999999999999" height="10.808488008272093" fill="#006340"/><line x1="450.5" y1="565.9702775147164" x2="450.5" y2="586.3941228239183" stroke="#006340" stroke-width="1"/><rect x="443.6" y="576.4704370460959" width="13.799999999999999" height="4.893433000907294" fill="#006340"/><line x1="473.5" y1="563.1863174876719" x2="473.5" y2="580.5190666289685" stroke="#A02128" stroke-width="1"/><rect x="466.6" y="576.4704370460959" width="13.799999999999999" height="2.5192392488563655" fill="#A02128"/><line x1="496.5" y1="545.8260974881249" x2="496.5" y2="579.0795983103851" stroke="#006340" stroke-width="1"/><rect x="489.6" y="556.2085444622307" width="13.799999999999999" height="22.781131832721485" fill="#006340"/><line x1="519.5" y1="522.1594122872197" x2="519.5" y2="568.356050135778" stroke="#006340" stroke-width="1"/><rect x="512.6" y="533.1661392234379" width="13.799999999999999" height="23.042405238792867" fill="#006340"/><line x1="542.5" y1="527.2217175843841" x2="542.5" y2="544.1198684437588" stroke="#A02128" stroke-width="1"/><rect x="535.6" y="533.1661392234379" width="13.799999999999999" height="6.742270224553067" fill="#A02128"/><line x1="565.5" y1="509.4002224476721" x2="565.5" y2="541.6952917274559" stroke="#006340" stroke-width="1"/><rect x="558.6" y="520.7815811879585" width="13.799999999999999" height="19.126828260032426" fill="#006340"/><line x1="588.5" y1="496.261124740514" x2="588.5" y2="525.5901563690372" stroke="#006340" stroke-width="1"/><rect x="581.6" y="506.58745689369607" width="13.799999999999999" height="14.194124294262451" fill="#006340"/><line x1="611.5" y1="478.12189069975113" x2="611.5" y2="513.585246339553" stroke="#006340" stroke-width="1"/><rect x="604.6" y="487.4513443108799" width="13.799999999999999" height="19.136112582816168" fill="#006340"/><line x1="634.5" y1="483.1583067672986" x2="634.5" y2="494.2677746578826" stroke="#006340" stroke-width="1"/><rect x="627.6" y="484.4387116596208" width="13.799999999999999" height="3.012632651259082" fill="#006340"/><line x1="657.5" y1="483.17852954469606" x2="657.5" y2="506.0721308793271" stroke="#A02128" stroke-width="1"/><rect x="650.6" y="484.4387116596208" width="13.799999999999999" height="12.408170141504968" fill="#A02128"/><line x1="680.5" y1="473.96289575776063" x2="680.5" y2="509.308306054965" stroke="#006340" stroke-width="1"/><rect x="673.6" y="482.96520917274364" width="13.799999999999999" height="13.881672628382148" fill="#006340"/><line x1="703.5" y1="455.2251990086428" x2="703.5" y2="495.6519653702995" stroke="#006340" stroke-width="1"/><rect x="696.6" y="461.78448346486897" width="13.799999999999999" height="21.18072570787467" fill="#006340"/><line x1="726.5" y1="436.2822914169543" x2="726.5" y2="462.58438594575694" stroke="#006340" stroke-width="1"/><rect x="719.6" y="443.9307266185447" width="13.799999999999999" height="17.853756846324245" fill="#006340"/><line x1="749.5" y1="427.2726807647839" x2="749.5" y2="452.0725568672652" stroke="#006340" stroke-width="1"/><rect x="742.6" y="435.2383781856589" width="13.799999999999999" height="8.692348432885808" fill="#006340"/><line x1="772.5" y1="428.5086117919833" x2="772.5" y2="452.4098231222159" stroke="#A02128" stroke-width="1"/><rect x="765.6" y="435.2383781856589" width="13.799999999999999" height="9.174564483292329" fill="#A02128"/><line x1="795.5" y1="428.8819680948708" x2="795.5" y2="447.3204761254199" stroke="#006340" stroke-width="1"/><rect x="788.6" y="429.5077059336862" width="13.799999999999999" height="14.90523673526502" fill="#006340"/><line x1="818.5" y1="412.2024618345298" x2="818.5" y2="438.18313379420897" stroke="#006340" stroke-width="1"/><rect x="811.6" y="419.23098860181017" width="13.799999999999999" height="10.276717331876057" fill="#006340"/><line x1="841.5" y1="379.6665501823612" x2="841.5" y2="419.74105066432895" stroke="#006340" stroke-width="1"/><rect x="834.6" y="383.0893515708883" width="13.799999999999999" height="36.141637030921856" fill="#006340"/><line x1="864.5" y1="332.31996727095367" x2="864.5" y2="391.8851344530833" stroke="#006340" stroke-width="1"/><rect x="857.6" y="342.3450482401323" width="13.799999999999999" height="40.744303330756" fill="#006340"/><line x1="887.5" y1="328.09354933967813" x2="887.5" y2="347.7859167494981" stroke="#006340" stroke-width="1"/><rect x="880.6" y="328.8329311949848" width="13.799999999999999" height="13.512117045147534" fill="#006340"/><line x1="910.5" y1="300.33179795857785" x2="910.5" y2="329.5205253662053" stroke="#006340" stroke-width="1"/><rect x="903.6" y="312.6898443692827" width="13.799999999999999" height="16.143086825702085" fill="#006340"/><line x1="933.5" y1="299.17795041651357" x2="933.5" y2="326.9426263121139" stroke="#006340" stroke-width="1"/><rect x="926.6" y="300.03780578397607" width="13.799999999999999" height="12.652038585306627" fill="#006340"/><line x1="956.5" y1="265.4053877669512" x2="956.5" y2="304.60759217255423" stroke="#006340" stroke-width="1"/><rect x="949.6" y="279.2030792370498" width="13.799999999999999" height="20.834726546926277" fill="#006340"/><line x1="979.5" y1="264.53441675238105" x2="979.5" y2="286.13533314310854" stroke="#006340" stroke-width="1"/><rect x="972.6" y="268.95998811280094" width="13.799999999999999" height="10.24309112424885" fill="#006340"/><line x1="1002.5" y1="216.6006336424004" x2="1002.5" y2="271.6516966008956" stroke="#006340" stroke-width="1"/><rect x="995.6" y="219.6707232453582" width="13.799999999999999" height="49.28926486744274" fill="#006340"/><line x1="1025.5" y1="161.66110600932944" x2="1025.5" y2="220.17076601868945" stroke="#006340" stroke-width="1"/><rect x="1018.6" y="168.15236831510117" width="13.799999999999999" height="51.51835493025703" fill="#006340"/><line x1="1048.5" y1="117.20442109267572" x2="1048.5" y2="182.76236925668854" stroke="#006340" stroke-width="1"/><rect x="1041.6" y="122.11517590379685" width="13.799999999999999" height="46.03719241130432" fill="#006340"/><line x1="1071.5" y1="95.70428442395053" x2="1071.5" y2="134.08797047242103" stroke="#006340" stroke-width="1"/><rect x="1064.6" y="98.43623934643131" width="13.799999999999999" height="23.678936557365546" fill="#006340"/><line x1="1094.5" y1="78.7596484132929" x2="1094.5" y2="107.27687843277613" stroke="#006340" stroke-width="1"/><rect x="1087.6" y="78.80608571442531" width="13.799999999999999" height="19.630153632006" fill="#006340"/><line x1="1117.5" y1="24.567255965753475" x2="1117.5" y2="93.3025495064129" stroke="#006340" stroke-width="1"/><rect x="1110.6" y="39.476055040112215" width="13.799999999999999" height="39.33003067431309" fill="#006340"/><line x1="1140.5" y1="24" x2="1140.5" y2="43.98507590445263" stroke="#006340" stroke-width="1"/><rect x="1133.6" y="29.551474134028922" width="13.799999999999999" height="9.924580906083293" fill="#006340"/>
</svg>