<svg xmlns="http://www.w3.org/2000/svg" width="1200" height="700">
  <rect width="100%" height="100%" fill="#0d1117"/>
  <line x1="48" y1="24" x2="1152" y2="24" stroke="#21262d" stroke-width="1"/><line x1="48" y1="181" x2="1152" y2="181" stroke="#21262d" stroke-width="1"/><line x1="48" y1="338" x2="1152" y2="338" stroke="#21262d" stroke-width="1"/><line x1="48" y1="495" x2="1152" y2="495" stroke="#21262d" stroke-width="1"/><line x1="48" y1="652" x2="1152" y2="652" stroke="#21262d" stroke-width="1"/>
  <line x1="59.5" y1="629.8645743970619" x2="59.5" y2="649.6969896883203" stroke="#006340" stroke-width="1"/><rect x="52.6" y="639.7729757630372" width="13.799999999999999" height="8.686784807358777" fill="#006340"/><line x1="82.5" y1="622.0237252059451" x2="82.5" y2="652" stroke="#006340" stroke-width="1"/><rect x="75.6" y="629.9399111774367" width="13.799999999999999" height="9.833064585600482" fill="#006340"/><line x1="105.5" y1="614.2571929023549" x2="105.5" y2="638.600861577139" stroke="#006340" stroke-width="1"/><rect x="98.6" y="624.7407748871144" width="13.799999999999999" height="5.199136290322258" fill="#006340"/><line x1="128.5" y1="589.8647269437761" x2="128.5" y2="632.2878510338406" stroke="#006340" stroke-width="1"/><rect x="121.6" y="596.2786206301213" width="13.799999999999999" height="28.46215425699313" fill="#006340"/><line x1="151.5" y1="567.8428063028707" x2="151.5" y2="602.3852305938075" stroke="#006340" stroke-width="1"/><rect x="144.6" y="569.8266937481036" width="13.799999999999999" height="26.451926882017688" fill="#006340"/><line x1="174.5" y1="540.9236563782111" x2="174.5" y2="581.7516589910574" stroke="#006340" stroke-width="1"/><rect x="167.6" y="547.9790666758786" width="13.799999999999999" height="21.84762707222501" fill="#006340"/><line x1="197.5" y1="545.4604870356089" x2="197.5" y2="552.0578641551505" stroke="#A02128" stroke-width="1"/><rect x="190.6" y="547.9790666758786" width="13.799999999999999" height="1.5129997347880817" fill="#A02128"/><line x1="220.5" y1="535.8779951691233" x2="220.5" y2="560.3575260796275" stroke="#006340" stroke-width="1"/><rect x="213.6" y="542.3338492869783" width="13.799999999999999" height="7.15821712368836" fill="#006340"/><line x1="243.5" y1="523.5934867427904" x2="243.5" y2="553.1781310561098" stroke="#006340" stroke-width="1"/><rect x="236.6" y="533.2830832499113" width="13.799999999999999" height="9.050766037066978" fill="#006340"/><line x1="266.5" y1="516.1825063079972" x2="266.5" y2="542.1605306062398" stroke="#006340" stroke-width="1"/><rect x="259.6" y="517.4040154187578" width="13.799999999999999" height="15.87906783115352" fill="#006340"/><line x1="289.5" y1="507.6562942086813" x2="289.5" y2="536.6963503736407" stroke="#A02128" stroke-width="1"/><rect x="282.6" y="517.4040154187578" width="13.799999999999999" height="6.153112842959558" fill="#A02128"/><line x1="312.5" y1="494.50246567623" x2="312.5" y2="525.0470456578887" stroke="#006340" stroke-width="1"/><rect x="305.6" y="503.5450621658228" width="13.799999999999999" height="20.012066095894568" fill="#006340"/><line x1="335.5" y1="493.5756032802409" x2="335.5" y2="519.8592277918776" stroke="#A02128" stroke-width="1"/><rect x="328.6" y="503.5450621658228" width="13.799999999999999" height="3.85334615577068" fill="#A02128"/><line x1="358.5" y1="494.29595876698096" x2="358.5" y2="520.1563840885665" stroke="#006340" stroke-width="1"/><rect x="351.6" y="500.66615084104285" width="13.799999999999999" height="6.732257480550629" fill="#006340"/><line x1="381.5" y1="492.06754445238425" x2="381.5" y2="508.409860552178" stroke="#006340" stroke-width="1"/><rect x="374.6" y="500.21173523939694" width="13.799999999999999" height="1" fill="#006340"/><line x1="404.5" y1="496.742139908968" x2="404.5" y2="506.2708949928812" stroke="#A02128" stroke-width="1"/><rect x="397.6" y="500.21173523939694" width="13.799999999999999" height="2.5630086911411354" fill="#A02128"/><line x1="427.5" y1="483.97482861389733" x2="427.5" y2="510.4456028856946" stroke="#006340" stroke-width="1"/><rect x="420.6" y="497.1939021194911" width="13.799999999999999" height="5.58084181104698" fill="#006340"/><line x1="450.5" y1="479.6805016138366" x2="450.5" y2="504.1046551921247" stroke="#006340" stroke-width="1"/><rect x="443.6" y="482.78296964103936" width="13.799999999999999" height="14.410932478451741" fill="#006340"/><line x1="473.5" y1="441.4296553699845" x2="473.5" y2="494.8027103878529" stroke="#006340" stroke-width="1"/><rect x="466.6" y="453.4459830838133" width="13.799999999999999" height="29.336986557226055" fill="#006340"/><line x1="496.5" y1="446.160816628269" x2="496.5" y2="467.56527246840454" stroke="#A02128" stroke-width="1"/><rect x="489.6" y="453.4459830838133" width="13.799999999999999" height="6.140045685524399" fill="#A02128"/><line x1="519.5" y1="451.7090076072867" x2="519.5" y2="467.0751210901967" stroke="#A02128" stroke-width="1"/><rect x="512.6" y="459.5860287693377" width="13.799999999999999" height="1.805648927564505" fill="#A02128"/><line x1="542.5" y1="432.6727929137494" x2="542.5" y2="468.667475147307" stroke="#006340" stroke-width="1"/><rect x="535.6" y="435.45652321234417" width="13.799999999999999" height="25.93515448455804" fill="#006340"/><line x1="565.5" y1="407.71115429535996" x2="565.5" y2="444.3886676100932" stroke="#006340" stroke-width="1"/><rect x="558.6" y="410.23918714323645" width="13.799999999999999" height="25.217336069107716" fill="#006340"/><line x1="588.5" y1="376.7139940597921" x2="588.5" y2="413.7014616092054" stroke="#006340" stroke-width="1"/><rect x="581.6" y="379.89382839794854" width="13.799999999999999" height="30.34535874528791" fill="#006340"/><line x1="611.5" y1="364.2006237739532" x2="611.5" y2="381.4943668631393" stroke="#006340" stroke-width="1"/><rect x="604.6" y="371.078604128776" width="13.799999999999999" height="8.815224269172518" fill="#006340"/><line x1="634.5" y1="360.7263256489698" x2="634.5" y2="383.8149896541162" stroke="#006340" stroke-width="1"/><rect x="627.6" y="362.5410271922147" width="13.799999999999999" height="8.537576936561322" fill="#006340"/><line x1="657.5" y1="330.1116298181636" x2="657.5" y2="372.6217475774857" stroke="#006340" stroke-width="1"/><rect x="650.6" y="331.2861098724979" width="13.799999999999999" height="31.25491731971681" fill="#006340"/><line x1="680.5" y1="318.93981579267717" x2="680.5" y2="337.7066997282362" stroke="#006340" stroke-width="1"/><rect x="673.6" y="331.1226487828844" width="13.799999999999999" height="1" fill="#006340"/><line x1="703.5" y1="300.06396058912196" x2="703.5" y2="335.27923120887533" stroke="#006340" stroke-width="1"/><rect x="696.6" y="302.6102462177479" width="13.799999999999999" height="28.51240256513654" fill="#006340"/><line x1="726.5" y1="289.29978493454985" x2="726.5" y2="306.00831839768483" stroke="#006340" stroke-width="1"/><rect x="719.6" y="298.20387137425143" width="13.799999999999999" height="4.406374843496451" fill="#006340"/><line x1="749.5" y1="266.4043877661729" x2="749.5" y2="312.1644324527331" stroke="#006340" stroke-width="1"/><rect x="742.6" y="270.85155614454754" width="13.799999999999999" height="27.35231522970389" fill="#006340"/><line x1="772.5" y1="257.8715580579833" x2="772.5" y2="277.77158256972564" stroke="#006340" stroke-width="1"/><rect x="765.6" y="260.6946024654727" width="13.799999999999999" height="10.156953679074832" fill="#006340"/><line x1="795.5" y1="230.69939215943612" x2="795.5" y2="269.2344643784111" stroke="#006340" stroke-width="1"/><rect x="788.6" y="239.64279379551687" width="13.799999999999999" height="21.051808669955847" fill="#006340"/><line x1="818.5" y1="205.2279874106248" x2="818.5" y2="247.1835331160578" stroke="#006340" stroke-width="1"/><rect x="811.6" y="212.12291860793397" width="13.799999999999999" height="27.519875187582898" fill="#006340"/><line x1="841.5" y1="180.61236249109425" x2="841.5" y2="215.78739322798577" stroke="#006340" stroke-width="1"/><rect x="834.6" y="191.39177851937637" width="13.799999999999999" height="20.731140088557595" fill="#006340"/><line x1="864.5" y1="159.36371543729064" x2="864.5" y2="204.6528911506955" stroke="#006340" stroke-width="1"/><rect x="857.6" y="166.03036835108043" width="13.799999999999999" height="25.361410168295947" fill="#006340"/><line x1="887.5" y1="136.4486143325056" x2="887.5" y2="168.7095161700853" stroke="#006340" stroke-width="1"/><rect x="880.6" y="142.26842192917553" width="13.799999999999999" height="23.761946421904895" fill="#006340"/><line x1="910.5" y1="132.6963797255013" x2="910.5" y2="153.64198400713934" stroke="#006340" stroke-width="1"/><rect x="903.6" y="133.527227972672" width="13.799999999999999" height="8.741193956503537" fill="#006340"/><line x1="933.5" y1="128.22211429432332" x2="933.5" y2="145.77530422653274" stroke="#A02128" stroke-width="1"/><rect x="926.6" y="133.527227972672" width="13.799999999999999" height="2.01354360388666" fill="#A02128"/><line x1="956.5" y1="125.74560573696704" x2="956.5" y2="149.69084695218567" stroke="#006340" stroke-width="1"/><rect x="949.6" y="127.56885156912256" width="13.799999999999999" height="7.971920007436097" fill="#006340"/><line x1="979.5" y1="118.58963959452626" x2="979.5" y2="135.381378690215" stroke="#A02128" stroke-width="1"/><rect x="972.6" y="127.56885156912256" width="13.799999999999999" height="3.6588917160444225" fill="#A02128"/><line x1="1002.5" y1="121.33662924929774" x2="1002.5" y2="140.82781656705498" stroke="#A02128" stroke-width="1"/><rect x="995.6" y="131.22774328516698" width="13.799999999999999" height="3.8334002984852305" fill="#A02128"/><line x1="1025.5" y1="117.17631885954381" x2="1025.5" y2="142.48245881930126" stroke="#006340" stroke-width="1"/><rect x="1018.6" y="124.65616866629364" width="13.799999999999999" height="10.404974917358572" fill="#006340"/><line x1="1048.5" y1="90.78585503040847" x2="1048.5" y2="129.1377362848781" stroke="#006340" stroke-width="1"/><rect x="1041.6" y="93.0602186877079" width="13.799999999999999" height="31.595949978585736" fill="#006340"/><line x1="1071.5" y1="80.59470526745781" x2="1071.5" y2="99.1782834155523" stroke="#006340" stroke-width="1"/><rect x="1064.6" y="86.40906593673867" width="13.799999999999999" height="6.651152750969231" fill="#006340"/><line x1="1094.5" y1="60.66230383582001" x2="1094.5" y2="92.25130284854959" stroke="#006340" stroke-width="1"/><rect x="1087.6" y="68.99140640559722" width="13.799999999999999" height="17.417659531141453" fill="#006340"/><line x1="1117.5" y1="56.34707229785272" x2="1117.5" y2="71.16706299618227" stroke="#006340" stroke-width="1"/><rect x="1110.6" y="57.81526477805619" width="13.799999999999999" height="11.176141627541028" fill="#006340"/><line x1="1140.5" y1="24" x2="1140.5" y2="58.899964663437004" stroke="#006340" stroke-width="1"/><rect x="1133.6" y="33.746483040200815" width="13.799999999999999" height="24.068781737855375" fill="#006340"/>
</svg>