<svg xmlns="http://www.w3.org/2000/svg" width="1200" height="700">
  <rect width="100%" height="100%" fill="#0d1117"/>
  <line x1="48" y1="24" x2="1152" y2="24" stroke="#21262d" stroke-width="1"/><line x1="48" y1="181" x2="1152" y2="181" stroke="#21262d" stroke-width="1"/><line x1="48" y1="338" x2="1152" y2="338" stroke="#21262d" stroke-width="1"/><line x1="48" y1="495" x2="1152" y2="495" stroke="#21262d" stroke-width="1"/><line x1="48" y1="652" x2="1152" y2="652" stroke="#21262d" stroke-width="1"/>
  <line x1="59.5" y1="598.4863758135231" x2="59.5" y2="652" stroke="#006340" stroke-width="1"/><rect x="52.6" y="615.0120151734727" width="13.799999999999999" height="26.720238697907007" fill="#006340"/><line x1="82.5" y1="596.270979559139" x2="82.5" y2="626.4516563234333" stroke="#006340" stroke-width="1"/><rect x="75.6" y="609.4423884024758" width="13.799999999999999" height="5.569626770996933" fill="#006340"/><line x1="105.5" y1="590.4096954992305" x2="105.5" y2="616.8908979371054" stroke="#006340" stroke-width="1"/><rect x="98.6" y="594.9755805581268" width="13.799999999999999" height="14.466807844348978" fill="#006340"/><line x1="128.5" y1="585.0029967266713" x2="128.5" y2="608.6634677578187" stroke="#A02128" stroke-width="1"/><rect x="121.6" y="594.9755805581268" width="13.799999999999999" height="6.912773593823999" fill="#A02128"/><line x1="151.5" y1="588.5284747944395" x2="151.5" y2="606.7673528341462" stroke="#006340" stroke-width="1"/><rect x="144.6" y="594.9644550133988" width="13.799999999999999" height="6.923899138551974" fill="#006340"/><line x1="174.5" y1="586.2784074782157" x2="174.5" y2="623.9793604909304" stroke="#A02128" stroke-width="1"/><rect x="167.6" y="594.9644550133988" width="13.799999999999999" height="12.4767093776112" fill="#A02128"/><line x1="197.5" y1="593.1723403447146" x2="197.5" y2="618.7346326439621" stroke="#006340" stroke-width="1"/><rect x="190.6" y="594.9468234090174" width="13.799999999999999" height="12.49434098199265" fill="#006340"/><line x1="220.5" y1="578.3180464223445" x2="220.5" y2="603.3179198946216" stroke="#A02128" stroke-width="1"/><rect x="213.6" y="594.9468234090174" width="13.799999999999999" height="3.8801299967821024" fill="#A02128"/><line x1="243.5" y1="573.8987439108804" x2="243.5" y2="610.3186231752447" stroke="#006340" stroke-width="1"/><rect x="236.6" y="589.3882866217645" width="13.799999999999999" height="9.438666784035036" fill="#006340"/><line x1="266.5" y1="542.0577145912135" x2="266.5" y2="597.2258952501517" stroke="#006340" stroke-width="1"/><rect x="259.6" y="554.6696305797859" width="13.799999999999999" height="34.718656041978534" fill="#006340"/><line x1="289.5" y1="509.11247392849657" x2="289.5" y2="573.606078364204" stroke="#006340" stroke-width="1"/><rect x="282.6" y="528.0411418936869" width="13.799999999999999" height="26.62848868609899" fill="#006340"/><line x1="312.5" y1="481.16951163441115" x2="312.5" y2="531.8543848217643" stroke="#006340" stroke-width="1"/><rect x="305.6" y="494.3374408631949" width="13.799999999999999" height="33.70370103049203" fill="#006340"/><line x1="335.5" y1="475.6273963463049" x2="335.5" y2="516.8455665152311" stroke="#A02128" stroke-width="1"/><rect x="328.6" y="494.3374408631949" width="13.799999999999999" height="7.873841632668643" fill="#A02128"/><line x1="358.5" y1="477.93453933812646" x2="358.5" y2="514.6120182725489" stroke="#006340" stroke-width="1"/><rect x="351.6" y="483.8989356980089" width="13.799999999999999" height="18.312346797854616" fill="#006340"/><line x1="381.5" y1="471.3475733162456" x2="381.5" y2="504.3517487834433" stroke="#006340" stroke-width="1"/><rect x="374.6" y="479.91038034289113" width="13.799999999999999" height="3.9885553551177964" fill="#006340"/><line x1="404.5" y1="449.7950812819205" x2="404.5" y2="490.76246503781425" stroke="#006340" stroke-width="1"/><rect x="397.6" y="450.0529454299343" width="13.799999999999999" height="29.85743491295682" fill="#006340"/><line x1="427.5" y1="447.84580322997" x2="427.5" y2="452.16887128328256" stroke="#A02128" stroke-width="1"/><rect x="420.6" y="450.0529454299343" width="13.799999999999999" height="1" fill="#A02128"/><line x1="450.5" y1="431.8434759894414" x2="450.5" y2="468.7647876793212" stroke="#006340" stroke-width="1"/><rect x="443.6" y="449.13933601803467" width="13.799999999999999" height="1.9055469232184805" fill="#006340"/><line x1="473.5" y1="429.8047288151305" x2="473.5" y2="468.1355124098552" stroke="#A02128" stroke-width="1"/><rect x="466.6" y="449.13933601803467" width="13.799999999999999" height="12.038356586439079" fill="#A02128"/><line x1="496.5" y1="446.1447430670649" x2="496.5" y2="477.6035537059188" stroke="#006340" stroke-width="1"/><rect x="489.6" y="456.1205727769759" width="13.799999999999999" height="5.057119827497843" fill="#006340"/><line x1="519.5" y1="412.37247043909326" x2="519.5" y2="459.8498817276403" stroke="#006340" stroke-width="1"/><rect x="512.6" y="418.9559443500032" width="13.799999999999999" height="37.16462842697268" fill="#006340"/><line x1="542.5" y1="399.2916690845276" x2="542.5" y2="435.1098284982534" stroke="#006340" stroke-width="1"/><rect x="535.6" y="403.77666445146554" width="13.799999999999999" height="15.179279898537686" fill="#006340"/><line x1="565.5" y1="362.2543687030488" x2="565.5" y2="417.0063478413707" stroke="#006340" stroke-width="1"/><rect x="558.6" y="381.71966525634525" width="13.799999999999999" height="22.056999195120284" fill="#006340"/><line x1="588.5" y1="376.0938732554556" x2="588.5" y2="382.85257458702876" stroke="#006340" stroke-width="1"/><rect x="581.6" y="379.4251638191692" width="13.799999999999999" height="2.294501437176052" fill="#006340"/><line x1="611.5" y1="345.20072334660915" x2="611.5" y2="380.35331853764535" stroke="#006340" stroke-width="1"/><rect x="604.6" y="346.5342612676215" width="13.799999999999999" height="32.8909025515477" fill="#006340"/><line x1="634.5" y1="333.7981243628527" x2="634.5" y2="356.0587579282927" stroke="#006340" stroke-width="1"/><rect x="627.6" y="344.1496885121408" width="13.799999999999999" height="2.38457275548069" fill="#006340"/><line x1="657.5" y1="292.6986237021156" x2="657.5" y2="354.2810088518075" stroke="#006340" stroke-width="1"/><rect x="650.6" y="313.1542629974886" width="13.799999999999999" height="30.995425514652197" fill="#006340"/><line x1="680.5" y1="303.312141739217" x2="680.5" y2="334.1636237751444" stroke="#006340" stroke-width="1"/><rect x="673.6" y="305.1286419509526" width="13.799999999999999" height="8.025621046536003" fill="#006340"/><line x1="703.5" y1="301.7047476818425" x2="703.5" y2="317.40357133139344" stroke="#A02128" stroke-width="1"/><rect x="696.6" y="305.1286419509526" width="13.799999999999999" height="10.585133486686686" fill="#A02128"/><line x1="726.5" y1="300.24724829247975" x2="726.5" y2="334.7195528541966" stroke="#A02128" stroke-width="1"/><rect x="719.6" y="315.7137754376393" width="13.799999999999999" height="3.799286091588101" fill="#A02128"/><line x1="749.5" y1="310.9146757733389" x2="749.5" y2="338.05893321133385" stroke="#A02128" stroke-width="1"/><rect x="742.6" y="319.5130615292274" width="13.799999999999999" height="2.5407475169521945" fill="#A02128"/><line x1="772.5" y1="312.6456399091521" x2="772.5" y2="347.5132347429946" stroke="#A02128" stroke-width="1"/><rect x="765.6" y="322.0538090461796" width="13.799999999999999" height="5.4193470818780725" fill="#A02128"/><line x1="795.5" y1="325.32130621322995" x2="795.5" y2="359.54320794652847" stroke="#A02128" stroke-width="1"/><rect x="788.6" y="327.47315612805767" width="13.799999999999999" height="11.627749321620854" fill="#A02128"/><line x1="818.5" y1="281.7137012682178" x2="818.5" y2="347.9966187326489" stroke="#006340" stroke-width="1"/><rect x="811.6" y="291.57556397978635" width="13.799999999999999" height="47.52534146989217" fill="#006340"/><line x1="841.5" y1="274.57762098798855" x2="841.5" y2="315.2910001757468" stroke="#A02128" stroke-width="1"/><rect x="834.6" y="291.57556397978635" width="13.799999999999999" height="9.447228764228953" fill="#A02128"/><line x1="864.5" y1="238.41483345860934" x2="864.5" y2="313.9616643566056" stroke="#006340" stroke-width="1"/><rect x="857.6" y="258.5618538073007" width="13.799999999999999" height="42.460938936714626" fill="#006340"/><line x1="887.5" y1="241.77706626934952" x2="887.5" y2="263.1309103851462" stroke="#006340" stroke-width="1"/><rect x="880.6" y="256.78847330754206" width="13.799999999999999" height="1.7733804997586162" fill="#006340"/><line x1="910.5" y1="210.13481211959873" x2="910.5" y2="264.94722956839274" stroke="#006340" stroke-width="1"/><rect x="903.6" y="230.13595463037757" width="13.799999999999999" height="26.652518677164494" fill="#006340"/><line x1="933.5" y1="210.59564309982204" x2="933.5" y2="242.56483506444494" stroke="#A02128" stroke-width="1"/><rect x="926.6" y="230.13595463037757" width="13.799999999999999" height="4.641827007189704" fill="#A02128"/><line x1="956.5" y1="217.34815605121662" x2="956.5" y2="245.78009483542962" stroke="#006340" stroke-width="1"/><rect x="949.6" y="225.1830091939832" width="13.799999999999999" height="9.594772443584077" fill="#006340"/><line x1="979.5" y1="182.0406166551656" x2="979.5" y2="226.12639640728543" stroke="#006340" stroke-width="1"/><rect x="972.6" y="191.88251302876506" width="13.799999999999999" height="33.300496165218135" fill="#006340"/><line x1="1002.5" y1="174.49359711833222" x2="1002.5" y2="213.18639850226253" stroke="#A02128" stroke-width="1"/><rect x="995.6" y="191.88251302876506" width="13.799999999999999" height="10.1617958791781" fill="#A02128"/><line x1="1025.5" y1="152.30707634921612" x2="1025.5" y2="218.0723982375735" stroke="#006340" stroke-width="1"/><rect x="1018.6" y="168.60427262165155" width="13.799999999999999" height="33.440036286291615" fill="#006340"/><line x1="1048.5" y1="126.2053120136942" x2="1048.5" y2="187.83152918404136" stroke="#006340" stroke-width="1"/><rect x="1041.6" y="142.2328039694185" width="13.799999999999999" height="26.371468652233034" fill="#006340"/><line x1="1071.5" y1="96.67981893265824" x2="1071.5" y2="153.45610860382135" stroke="#006340" stroke-width="1"/><rect x="1064.6" y="106.18260472786403" width="13.799999999999999" height="36.05019924155448" fill="#006340"/><line x1="1094.5" y1="58.329398099151376" x2="1094.5" y2="110.370496942101" stroke="#006340" stroke-width="1"/><rect x="1087.6" y="70.83512770747097" width="13.799999999999999" height="35.34747702039306" fill="#006340"/><line x1="1117.5" y1="51.20393607549272" x2="1117.5" y2="98.2105230004023" stroke="#A02128" stroke-width="1"/><rect x="1110.6" y="70.83512770747097" width="13.799999999999999" height="6.154357820058067" fill="#A02128"/><line x1="1140.5" y1="24" x2="1140.5" y2="80.85004335296924" stroke="#006340" stroke-width="1"/><rect x="1133.6" y="30.082845995063053" width="13.799999999999999" height="46.90663953246599" fill="#006340"/>
</svg>