<svg xmlns="http://www.w3.org/2000/svg" width="1200" height="700">
  <rect width="100%" height="100%" fill="#0d1117"/>
  <line x1="48" y1="24" x2="1152" y2="24" stroke="#21262d" stroke-width="1"/><line x1="48" y1="181" x2="1152" y2="181" stroke="#21262d" stroke-width="1"/><line x1="48" y1="338" x2="1152" y2="338" stroke="#21262d" stroke-width="1"/><line x1="48" y1="495" x2="1152" y2="495" stroke="#21262d" stroke-width="1"/><line x1="48" y1="652" x2="1152" y2="652" stroke="#21262d" stroke-width="1"/>
  <line x1="59.5" y1="24" x2="59.5" y2="153.33264283051432" stroke="#006340" stroke-width="1"/><rect x="52.6" y="64.98210408871967" width="13.799999999999999" height="47.435944147194164" fill="#006340"/><line x1="82.5" y1="55.418347441112815" x2="82.5" y2="74.36795643295193" stroke="#A02128" stroke-width="1"/><rect x="75.6" y="64.98210408871967" width="13.799999999999999" height="3.138688028119418" fill="#A02128"/><line x1="105.5" y1="39.96358243201678" x2="105.5" y2="121.28944295475014" stroke="#A02128" stroke-width="1"/><rect x="98.6" y="68.12079211683908" width="13.799999999999999" height="21.061270255387967" fill="#A02128"/><line x1="128.5" y1="69.48405640800047" x2="128.5" y2="128.81667301023106" stroke="#A02128" stroke-width="1"/><rect x="121.6" y="89.18206237222705" width="13.799999999999999" height="9.8565257671994" fill="#A02128"/><line x1="151.5" y1="45.95613489608195" x2="151.5" y2="185.92485914011456" stroke="#A02128" stroke-width="1"/><rect x="144.6" y="99.03858813942645" width="13.799999999999999" height="43.145097256419945" fill="#A02128"/><line x1="174.5" y1="116.04368559311808" x2="174.5" y2="230.17582409050607" stroke="#A02128" stroke-width="1"/><rect x="167.6" y="142.1836853958464" width="13.799999999999999" height="77.36772652518539" fill="#A02128"/><line x1="197.5" y1="213.66372005370937" x2="197.5" y2="278.0082722157111" stroke="#A02128" stroke-width="1"/><rect x="190.6" y="219.5514119210318" width="13.799999999999999" height="3.314302582747473" fill="#A02128"/><line x1="220.5" y1="213.09640182915086" x2="220.5" y2="302.41463785459734" stroke="#A02128" stroke-width="1"/><rect x="213.6" y="222.86571450377926" width="13.799999999999999" height="31.1674957337068" fill="#A02128"/><line x1="243.5" y1="224.90521137829234" x2="243.5" y2="314.4904842461714" stroke="#A02128" stroke-width="1"/><rect x="236.6" y="254.03321023748606" width="13.799999999999999" height="57.76686212577414" fill="#A02128"/><line x1="266.5" y1="263.7657747528723" x2="266.5" y2="396.3747038586003" stroke="#A02128" stroke-width="1"/><rect x="259.6" y="311.8000723632602" width="13.799999999999999" height="30.492509580272724" fill="#A02128"/><line x1="289.5" y1="314.7010424357687" x2="289.5" y2="380.35329694351753" stroke="#A02128" stroke-width="1"/><rect x="282.6" y="342.2925819435329" width="13.799999999999999" height="32.437508960764035" fill="#A02128"/><line x1="312.5" y1="364.50886382114464" x2="312.5" y2="429.64775399598545" stroke="#A02128" stroke-width="1"/><rect x="305.6" y="374.73009090429696" width="13.799999999999999" height="42.851724170797695" fill="#A02128"/><line x1="335.5" y1="300.7188707487784" x2="335.5" y2="439.34202019597285" stroke="#006340" stroke-width="1"/><rect x="328.6" y="343.3552910422044" width="13.799999999999999" height="74.22652403289027" fill="#006340"/><line x1="358.5" y1="323.50167675084924" x2="358.5" y2="396.77032631173813" stroke="#A02128" stroke-width="1"/><rect x="351.6" y="343.3552910422044" width="13.799999999999999" height="2.580345004839387" fill="#A02128"/><line x1="381.5" y1="268.80645525025835" x2="381.5" y2="387.52620723371797" stroke="#006340" stroke-width="1"/><rect x="374.6" y="326.9818041540464" width="13.799999999999999" height="18.953831892997357" fill="#006340"/><line x1="404.5" y1="305.5363967848015" x2="404.5" y2="403.2010461556301" stroke="#A02128" stroke-width="1"/><rect x="397.6" y="326.9818041540464" width="13.799999999999999" height="64.69307274608269" fill="#A02128"/><line x1="427.5" y1="335.37735026803654" x2="427.5" y2="403.2764265106637" stroke="#006340" stroke-width="1"/><rect x="420.6" y="343.81789602780736" width="13.799999999999999" height="47.85698087232174" fill="#006340"/><line x1="450.5" y1="301.46155983650976" x2="450.5" y2="364.5240401278967" stroke="#A02128" stroke-width="1"/><rect x="443.6" y="343.81789602780736" width="13.799999999999999" height="17.522693253632724" fill="#A02128"/><line x1="473.5" y1="354.0128697901308" x2="473.5" y2="414.9204477386633" stroke="#A02128" stroke-width="1"/><rect x="466.6" y="361.3405892814401" width="13.799999999999999" height="45.295954261439874" fill="#A02128"/><line x1="496.5" y1="335.13345173219494" x2="496.5" y2="463.17352838391673" stroke="#006340" stroke-width="1"/><rect x="489.6" y="358.56606402283194" width="13.799999999999999" height="48.070479520048025" fill="#006340"/><line x1="519.5" y1="299.12261856611974" x2="519.5" y2="368.97879822687406" stroke="#006340" stroke-width="1"/><rect x="512.6" y="322.9527393487286" width="13.799999999999999" height="35.61332467410335" fill="#006340"/><line x1="542.5" y1="273.9619295936861" x2="542.5" y2="338.1492695651328" stroke="#006340" stroke-width="1"/><rect x="535.6" y="305.41826145139487" width="13.799999999999999" height="17.534477897333716" fill="#006340"/><line x1="565.5" y1="295.21489054809297" x2="565.5" y2="382.76849208757193" stroke="#A02128" stroke-width="1"/><rect x="558.6" y="305.41826145139487" width="13.799999999999999" height="39.41295403458935" fill="#A02128"/><line x1="588.5" y1="309.1770950405654" x2="588.5" y2="385.4755646938677" stroke="#006340" stroke-width="1"/><rect x="581.6" y="313.4620839275685" width="13.799999999999999" height="31.369131558415745" fill="#006340"/><line x1="611.5" y1="254.93333403057608" x2="611.5" y2="322.53915790132214" stroke="#006340" stroke-width="1"/><rect x="604.6" y="304.2612265537993" width="13.799999999999999" height="9.200857373769168" fill="#006340"/><line x1="634.5" y1="217.89053313973426" x2="634.5" y2="340.0370924707423" stroke="#006340" stroke-width="1"/><rect x="627.6" y="249.79299885599113" width="13.799999999999999" height="54.468227697808175" fill="#006340"/><line x1="657.5" y1="158.52336774525372" x2="657.5" y2="291.7461403070695" stroke="#006340" stroke-width="1"/><rect x="650.6" y="195.04635841831322" width="13.799999999999999" height="54.74664043767791" fill="#006340"/><line x1="680.5" y1="137.53174243369085" x2="680.5" y2="230.743877131842" stroke="#006340" stroke-width="1"/><rect x="673.6" y="147.92461742869034" width="13.799999999999999" height="47.12174098962288" fill="#006340"/><line x1="703.5" y1="132.35532340881446" x2="703.5" y2="256.691850252988" stroke="#A02128" stroke-width="1"/><rect x="696.6" y="147.92461742869034" width="13.799999999999999" height="83.24956582451796" fill="#A02128"/><line x1="726.5" y1="222.2754150365805" x2="726.5" y2="358.181769774291" stroke="#A02128" stroke-width="1"/><rect x="719.6" y="231.1741832532083" width="13.799999999999999" height="68.50286267019226" fill="#A02128"/><line x1="749.5" y1="227.67385387380472" x2="749.5" y2="300.84987463511163" stroke="#006340" stroke-width="1"/><rect x="742.6" y="249.4022772763273" width="13.799999999999999" height="50.274768647073245" fill="#006340"/><line x1="772.5" y1="201.96424885767647" x2="772.5" y2="330.21091960474746" stroke="#A02128" stroke-width="1"/><rect x="765.6" y="249.4022772763273" width="13.799999999999999" height="76.13437277249267" fill="#A02128"/><line x1="795.5" y1="273.21006659521447" x2="795.5" y2="383.2125894095998" stroke="#A02128" stroke-width="1"/><rect x="788.6" y="325.53665004882" width="13.799999999999999" height="36.12219625574886" fill="#A02128"/><line x1="818.5" y1="349.7806817053128" x2="818.5" y2="463.8865868309022" stroke="#A02128" stroke-width="1"/><rect x="811.6" y="361.65884630456884" width="13.799999999999999" height="47.659075142573215" fill="#A02128"/><line x1="841.5" y1="354.0800154254992" x2="841.5" y2="437.6586085534643" stroke="#006340" stroke-width="1"/><rect x="834.6" y="380.1252797244652" width="13.799999999999999" height="29.192641722676854" fill="#006340"/><line x1="864.5" y1="378.6498473777586" x2="864.5" y2="469.77901272258714" stroke="#A02128" stroke-width="1"/><rect x="857.6" y="380.1252797244652" width="13.799999999999999" height="48.734109798068516" fill="#A02128"/><line x1="887.5" y1="373.09550446565765" x2="887.5" y2="503.142294458503" stroke="#A02128" stroke-width="1"/><rect x="880.6" y="428.8593895225337" width="13.799999999999999" height="53.14084499916743" fill="#A02128"/><line x1="910.5" y1="420.5968866873451" x2="910.5" y2="534.2763172716317" stroke="#006340" stroke-width="1"/><rect x="903.6" y="430.5826404044459" width="13.799999999999999" height="51.41759411725525" fill="#006340"/><line x1="933.5" y1="372.2611332121423" x2="933.5" y2="528.79136591523" stroke="#A02128" stroke-width="1"/><rect x="926.6" y="430.5826404044459" width="13.799999999999999" height="41.38489067878123" fill="#A02128"/><line x1="956.5" y1="448.9659915383407" x2="956.5" y2="530.5651242769723" stroke="#A02128" stroke-width="1"/><rect x="949.6" y="471.96753108322713" width="13.799999999999999" height="24.01288585549986" fill="#A02128"/><line x1="979.5" y1="409.84804852735" x2="979.5" y2="550.4376389841709" stroke="#006340" stroke-width="1"/><rect x="972.6" y="466.80515229820554" width="13.799999999999999" height="29.175264640521448" fill="#006340"/><line x1="1002.5" y1="369.9124608938546" x2="1002.5" y2="511.482724196332" stroke="#006340" stroke-width="1"/><rect x="995.6" y="424.95345156401737" width="13.799999999999999" height="41.85170073418817" fill="#006340"/><line x1="1025.5" y1="388.6604545575081" x2="1025.5" y2="500.18042643260947" stroke="#A02128" stroke-width="1"/><rect x="1018.6" y="424.95345156401737" width="13.799999999999999" height="38.407295076381445" fill="#A02128"/><line x1="1048.5" y1="442.95048446068375" x2="1048.5" y2="555.0459055453052" stroke="#A02128" stroke-width="1"/><rect x="1041.6" y="463.3607466403988" width="13.799999999999999" height="51.69826108346672" fill="#A02128"/><line x1="1071.5" y1="444.7928265011978" x2="1071.5" y2="520.1713846290597" stroke="#006340" stroke-width="1"/><rect x="1064.6" y="461.9999785066759" width="13.799999999999999" height="53.05902921718962" fill="#006340"/><line x1="1094.5" y1="439.8046252011153" x2="1094.5" y2="593.2203980497242" stroke="#A02128" stroke-width="1"/><rect x="1087.6" y="461.9999785066759" width="13.799999999999999" height="84.43703133931695" fill="#A02128"/><line x1="1117.5" y1="501.0361995706769" x2="1117.5" y2="606.3694699030266" stroke="#A02128" stroke-width="1"/><rect x="1110.6" y="546.4370098459929" width="13.799999999999999" height="59.13263705713712" fill="#A02128"/><line x1="1140.5" y1="604.0754130450243" x2="1140.5" y2="652" stroke="#A02128" stroke-width="1"/><rect x="1133.6" y="605.56964690313" width="13.799999999999999" height="1.550284428310988" fill="#A02128"/>
</svg>