<svg xmlns="http://www.w3.org/2000/svg" width="1200" height="700">
  <rect width="100%" height="100%" fill="#0d1117"/>
  <line x1="48" y1="24" x2="1152" y2="24" stroke="#21262d" stroke-width="1"/><line x1="48" y1="181" x2="1152" y2="181" stroke="#21262d" stroke-width="1"/><line x1="48" y1="338" x2="1152" y2="338" stroke="#21262d" stroke-width="1"/><line x1="48" y1="495" x2="1152" y2="495" stroke="#21262d" stroke-width="1"/><line x1="48" y1="652" x2="1152" y2="652" stroke="#21262d" stroke-width="1"/>
  <line x1="59.5" y1="601.3619250625993" x2="59.5" y2="638.898383563558" stroke="#006340" stroke-width="1"/><rect x="52.6" y="609.5060522901294" width="13.799999999999999" height="24.80685999869536" fill="#006340"/><line x1="82.5" y1="604.0602945411428" x2="82.5" y2="613.7902753769382" stroke="#006340" stroke-width="1"/><rect x="75.6" y="607.886370135563" width="13.799999999999999" height="1.6196821545664761" fill="#006340"/><line x1="105.5" y1="592.7907944297597" x2="105.5" y2="624.136794632136" stroke="#A02128" stroke-width="1"/><rect x="98.6" y="607.886370135563" width="13.799999999999999" height="14.190373833680724" fill="#A02128"/><line x1="128.5" y1="619.5244930823119" x2="128.5" y2="651.8310651340713" stroke="#A02128" stroke-width="1"/><rect x="121.6" y="622.0767439692437" width="13.799999999999999" height="15.722237573304483" fill="#A02128"/><line x1="151.5" y1="622.3098499159549" x2="151.5" y2="652" stroke="#006340" stroke-width="1"/><rect x="144.6" y="632.336595735057" width="13.799999999999999" height="5.4623858074911595" fill="#006340"/><line x1="174.5" y1="609.0907939041995" x2="174.5" y2="639.05765460462" stroke="#006340" stroke-width="1"/><rect x="167.6" y="617.4489323546085" width="13.799999999999999" height="14.887663380448544" fill="#006340"/><line x1="197.5" y1="615.6556209117759" x2="197.5" y2="636.9235375236447" stroke="#A02128" stroke-width="1"/><rect x="190.6" y="617.4489323546085" width="13.799999999999999" height="5.456977374655139" fill="#A02128"/><line x1="220.5" y1="599.3829528531842" x2="220.5" y2="626.9560322471692" stroke="#006340" stroke-width="1"/><rect x="213.6" y="607.1349067396183" width="13.799999999999999" height="15.771002989645353" fill="#006340"/><line x1="243.5" y1="588.5584686960086" x2="243.5" y2="609.9559245173486" stroke="#006340" stroke-width="1"/><rect x="236.6" y="600.0212736122431" width="13.799999999999999" height="7.113633127375124" fill="#006340"/><line x1="266.5" y1="575.5658415268304" x2="266.5" y2="605.2787057046197" stroke="#006340" stroke-width="1"/><rect x="259.6" y="576.2820314565183" width="13.799999999999999" height="23.73924215572481" fill="#006340"/><line x1="289.5" y1="567.0666888428416" x2="289.5" y2="576.7702889392692" stroke="#006340" stroke-width="1"/><rect x="282.6" y="570.5710664838025" width="13.799999999999999" height="5.7109649727158285" fill="#006340"/><line x1="312.5" y1="533.8857144991075" x2="312.5" y2="573.4217408000006" stroke="#006340" stroke-width="1"/><rect x="305.6" y="545.6864769148497" width="13.799999999999999" height="24.884589568952833" fill="#006340"/><line x1="335.5" y1="542.4378568212423" x2="335.5" y2="554.2622466468488" stroke="#A02128" stroke-width="1"/><rect x="328.6" y="545.6864769148497" width="13.799999999999999" height="4.437374624051699" fill="#A02128"/><line x1="358.5" y1="544.443511728298" x2="358.5" y2="567.0555324927898" stroke="#A02128" stroke-width="1"/><rect x="351.6" y="550.1238515389014" width="13.799999999999999" height="14.924460311722896" fill="#A02128"/><line x1="381.5" y1="561.3762822325526" x2="381.5" y2="590.0855153301455" stroke="#A02128" stroke-width="1"/><rect x="374.6" y="565.0483118506243" width="13.799999999999999" height="10.155081387702467" fill="#A02128"/><line x1="404.5" y1="564.0111224464401" x2="404.5" y2="582.8449100560106" stroke="#A02128" stroke-width="1"/><rect x="397.6" y="575.2033932383267" width="13.799999999999999" height="4.430716367615219" fill="#A02128"/><line x1="427.5" y1="563.8397420951808" x2="427.5" y2="581.6591564911173" stroke="#006340" stroke-width="1"/><rect x="420.6" y="574.5702748918147" width="13.799999999999999" height="5.063834714127211" fill="#006340"/><line x1="450.5" y1="568.0039174550326" x2="450.5" y2="586.7743962069982" stroke="#006340" stroke-width="1"/><rect x="443.6" y="570.3653431176427" width="13.799999999999999" height="4.204931774171996" fill="#006340"/><line x1="473.5" y1="569.0507365178763" x2="473.5" y2="587.557238496219" stroke="#A02128" stroke-width="1"/><rect x="466.6" y="570.3653431176427" width="13.799999999999999" height="15.835511236229195" fill="#A02128"/><line x1="496.5" y1="567.7020384847422" x2="496.5" y2="597.6927678212742" stroke="#006340" stroke-width="1"/><rect x="489.6" y="573.4265226939433" width="13.799999999999999" height="12.774331659928635" fill="#006340"/><line x1="519.5" y1="571.6112825474922" x2="519.5" y2="591.0112663601301" stroke="#A02128" stroke-width="1"/><rect x="512.6" y="573.4265226939433" width="13.799999999999999" height="4.751916175381211" fill="#A02128"/><line x1="542.5" y1="567.4663979884415" x2="542.5" y2="590.4188277393501" stroke="#A02128" stroke-width="1"/><rect x="535.6" y="578.1784388693245" width="13.799999999999999" height="5.188492344196902" fill="#A02128"/><line x1="565.5" y1="573.8078384568166" x2="565.5" y2="605.7087619307442" stroke="#A02128" stroke-width="1"/><rect x="558.6" y="583.3669312135214" width="13.799999999999999" height="13.121490629514255" fill="#A02128"/><line x1="588.5" y1="582.5955089821953" x2="588.5" y2="601.399499451856" stroke="#006340" stroke-width="1"/><rect x="581.6" y="582.9325567393082" width="13.799999999999999" height="13.555865103727456" fill="#006340"/><line x1="611.5" y1="568.8031991015587" x2="611.5" y2="596.3795280822505" stroke="#006340" stroke-width="1"/><rect x="604.6" y="570.2246277648917" width="13.799999999999999" height="12.707928974416518" fill="#006340"/><line x1="634.5" y1="544.5730591770593" x2="634.5" y2="578.5352037202653" stroke="#006340" stroke-width="1"/><rect x="627.6" y="553.7894404986666" width="13.799999999999999" height="16.435187266225057" fill="#006340"/><line x1="657.5" y1="553.6859003947409" x2="657.5" y2="575.6561366125208" stroke="#A02128" stroke-width="1"/><rect x="650.6" y="553.7894404986666" width="13.799999999999999" height="10.59882867603585" fill="#A02128"/><line x1="680.5" y1="524.5950828732907" x2="680.5" y2="572.3291515053515" stroke="#006340" stroke-width="1"/><rect x="673.6" y="537.9478970555431" width="13.799999999999999" height="26.440372119159406" fill="#006340"/><line x1="703.5" y1="502.17273000305295" x2="703.5" y2="541.1062509040942" stroke="#006340" stroke-width="1"/><rect x="696.6" y="515.5691599580042" width="13.799999999999999" height="22.378737097538874" fill="#006340"/><line x1="726.5" y1="484.474207092832" x2="726.5" y2="517.984140005639" stroke="#006340" stroke-width="1"/><rect x="719.6" y="490.98751203388076" width="13.799999999999999" height="24.581647924123445" fill="#006340"/><line x1="749.5" y1="485.68203020071365" x2="749.5" y2="495.07239265743783" stroke="#A02128" stroke-width="1"/><rect x="742.6" y="490.98751203388076" width="13.799999999999999" height="1.2134508195553053" fill="#A02128"/><line x1="772.5" y1="468.9951141798387" x2="772.5" y2="506.05406402197434" stroke="#006340" stroke-width="1"/><rect x="765.6" y="469.54253455256503" width="13.799999999999999" height="22.658428300871037" fill="#006340"/><line x1="795.5" y1="457.56745638578576" x2="795.5" y2="489.86084640706537" stroke="#A02128" stroke-width="1"/><rect x="788.6" y="469.54253455256503" width="13.799999999999999" height="5.542394608051552" fill="#A02128"/><line x1="818.5" y1="448.3517850370688" x2="818.5" y2="488.29277477878423" stroke="#006340" stroke-width="1"/><rect x="811.6" y="451.14151392496524" width="13.799999999999999" height="23.943415235651344" fill="#006340"/><line x1="841.5" y1="404.85773869683067" x2="841.5" y2="464.0386600944837" stroke="#006340" stroke-width="1"/><rect x="834.6" y="408.63846945155956" width="13.799999999999999" height="42.50304447340568" fill="#006340"/><line x1="864.5" y1="367.2714504886323" x2="864.5" y2="413.3380283795865" stroke="#006340" stroke-width="1"/><rect x="857.6" y="376.28406241731227" width="13.799999999999999" height="32.35440703424729" fill="#006340"/><line x1="887.5" y1="311.78166120781" x2="887.5" y2="376.76108806168577" stroke="#006340" stroke-width="1"/><rect x="880.6" y="327.5810524233262" width="13.799999999999999" height="48.703009993986086" fill="#006340"/><line x1="910.5" y1="280.6488000995247" x2="910.5" y2="338.69979507290844" stroke="#006340" stroke-width="1"/><rect x="903.6" y="289.16456535078026" width="13.799999999999999" height="38.41648707254592" fill="#006340"/><line x1="933.5" y1="242.09975870263668" x2="933.5" y2="299.71082112365997" stroke="#006340" stroke-width="1"/><rect x="926.6" y="248.1345322121901" width="13.799999999999999" height="41.03003313859017" fill="#006340"/><line x1="956.5" y1="233.09332803769985" x2="956.5" y2="255.72116597081157" stroke="#006340" stroke-width="1"/><rect x="949.6" y="234.51870688984076" width="13.799999999999999" height="13.615825322349338" fill="#006340"/><line x1="979.5" y1="194.91482486570834" x2="979.5" y2="236.48266947916449" stroke="#006340" stroke-width="1"/><rect x="972.6" y="208.57096730045583" width="13.799999999999999" height="25.947739589384923" fill="#006340"/><line x1="1002.5" y1="196.84386407401593" x2="1002.5" y2="224.20593205597646" stroke="#006340" stroke-width="1"/><rect x="995.6" y="198.71740077608706" width="13.799999999999999" height="9.853566524368773" fill="#006340"/><line x1="1025.5" y1="146.34132874034577" x2="1025.5" y2="202.955946064314" stroke="#006340" stroke-width="1"/><rect x="1018.6" y="150.44739638103533" width="13.799999999999999" height="48.27000439505173" fill="#006340"/><line x1="1048.5" y1="104.07395201735972" x2="1048.5" y2="167.32697007318535" stroke="#006340" stroke-width="1"/><rect x="1041.6" y="113.54899870282577" width="13.799999999999999" height="36.89839767820956" fill="#006340"/><line x1="1071.5" y1="62.72539652255875" x2="1071.5" y2="124.24162348874756" stroke="#006340" stroke-width="1"/><rect x="1064.6" y="69.40638117930132" width="13.799999999999999" height="44.14261752352445" fill="#006340"/><line x1="1094.5" y1="45.67112717553937" x2="1094.5" y2="85.93209146797801" stroke="#006340" stroke-width="1"/><rect x="1087.6" y="56.684659113195835" width="13.799999999999999" height="12.721722066105485" fill="#006340"/><line x1="1117.5" y1="29.28119699051615" x2="1117.5" y2="70.76411006689568" stroke="#006340" stroke-width="1"/><rect x="1110.6" y="45.3834731659249" width="13.799999999999999" height="11.301185947270938" fill="#006340"/><line x1="1140.5" y1="24" x2="1140.5" y2="57.09056289053274" stroke="#006340" stroke-width="1"/><rect x="1133.6" y="33.68664316984473" width="13.799999999999999" height="11.696829996080169" fill="#006340"/>
</svg>