<svg xmlns="http://www.w3.org/2000/svg" width="1200" height="700">
  <rect width="100%" height="100%" fill="#0d1117"/>
  <line x1="48" y1="24" x2="1152" y2="24" stroke="#21262d" stroke-width="1"/><line x1="48" y1="181" x2="1152" y2="181" stroke="#21262d" stroke-width="1"/><line x1="48" y1="338" x2="1152" y2="338" stroke="#21262d" stroke-width="1"/><line x1="48" y1="495" x2="1152" y2="495" stroke="#21262d" stroke-width="1"/><line x1="48" y1="652" x2="1152" y2="652" stroke="#21262d" stroke-width="1"/>
  <line x1="59.5" y1="257.94163181954696" x2="59.5" y2="280.8788863910062" stroke="#006340" stroke-width="1"/><rect x="52.6" y="265.79580601256896" width="13.799999999999999" height="2.305903533528692" fill="#006340"/><line x1="82.5" y1="175.7551368153848" x2="82.5" y2="270.8312817630852" stroke="#006340" stroke-width="1"/><rect x="75.6" y="212.05139632888535" width="13.799999999999999" height="53.744409683683614" fill="#006340"/><line x1="105.5" y1="170.38958152007638" x2="105.5" y2="248.15532131104095" stroke="#006340" stroke-width="1"/><rect x="98.6" y="209.2244777846053" width="13.799999999999999" height="2.8269185442800335" fill="#006340"/><line x1="128.5" y1="132.82884406325047" x2="128.5" y2="227.2715931756922" stroke="#006340" stroke-width="1"/><rect x="121.6" y="152.76959151482748" width="13.799999999999999" height="56.45488626977783" fill="#006340"/><line x1="151.5" y1="109.93897877995676" x2="151.5" y2="235.77187109218613" stroke="#A02128" stroke-width="1"/><rect x="144.6" y="152.76959151482748" width="13.799999999999999" height="53.29944218890893" fill="#A02128"/><line x1="174.5" y1="146.44982500327382" x2="174.5" y2="234.90265137069275" stroke="#006340" stroke-width="1"/><rect x="167.6" y="147.56073034268377" width="13.799999999999999" height="58.50830336105264" fill="#006340"/><line x1="197.5" y1="137.09321365371147" x2="197.5" y2="222.6719390858271" stroke="#A02128" stroke-width="1"/><rect x="190.6" y="147.56073034268377" width="13.799999999999999" height="28.53721749268891" fill="#A02128"/><line x1="220.5" y1="133.72760738005445" x2="220.5" y2="240.8400857332448" stroke="#A02128" stroke-width="1"/><rect x="213.6" y="176.09794783537268" width="13.799999999999999" height="60.69000288202653" fill="#A02128"/><line x1="243.5" y1="193.61177856712703" x2="243.5" y2="309.7259039223994" stroke="#A02128" stroke-width="1"/><rect x="236.6" y="236.7879507173992" width="13.799999999999999" height="52.65800353569114" fill="#A02128"/><line x1="266.5" y1="235.9011175858958" x2="266.5" y2="328.8409099444202" stroke="#006340" stroke-width="1"/><rect x="259.6" y="241.34223309864757" width="13.799999999999999" height="48.10372115444278" fill="#006340"/><line x1="289.5" y1="172.08583381332318" x2="289.5" y2="243.88385170061366" stroke="#006340" stroke-width="1"/><rect x="282.6" y="175.91262558609827" width="13.799999999999999" height="65.4296075125493" fill="#006340"/><line x1="312.5" y1="60.752809467997054" x2="312.5" y2="212.23779067627322" stroke="#006340" stroke-width="1"/><rect x="305.6" y="106.84137775390559" width="13.799999999999999" height="69.07124783219268" fill="#006340"/><line x1="335.5" y1="95.4367290699463" x2="335.5" y2="146.62576555044893" stroke="#A02128" stroke-width="1"/><rect x="328.6" y="106.84137775390559" width="13.799999999999999" height="10.559262834892138" fill="#A02128"/><line x1="358.5" y1="90.61209082872597" x2="358.5" y2="128.92253278022156" stroke="#006340" stroke-width="1"/><rect x="351.6" y="93.5175459500532" width="13.799999999999999" height="23.883094638744524" fill="#006340"/><line x1="381.5" y1="27.01193306768255" x2="381.5" y2="103.13692420436632" stroke="#006340" stroke-width="1"/><rect x="374.6" y="72.68850566249637" width="13.799999999999999" height="20.829040287556836" fill="#006340"/><line x1="404.5" y1="24" x2="404.5" y2="85.25566918479683" stroke="#A02128" stroke-width="1"/><rect x="397.6" y="72.68850566249637" width="13.799999999999999" height="2.1641138661016157" fill="#A02128"/><line x1="427.5" y1="28.444572648737562" x2="427.5" y2="80.83753101259936" stroke="#006340" stroke-width="1"/><rect x="420.6" y="68.24793529591602" width="13.799999999999999" height="6.6046842326819615" fill="#006340"/><line x1="450.5" y1="55.001832967171254" x2="450.5" y2="159.4385025550297" stroke="#A02128" stroke-width="1"/><rect x="443.6" y="68.24793529591602" width="13.799999999999999" height="50.371848209088284" fill="#A02128"/><line x1="473.5" y1="103.13948434156043" x2="473.5" y2="149.00339154044497" stroke="#A02128" stroke-width="1"/><rect x="466.6" y="118.6197835050043" width="13.799999999999999" height="13.564847962744466" fill="#A02128"/><line x1="496.5" y1="118.88807432465603" x2="496.5" y2="217.54993739188086" stroke="#A02128" stroke-width="1"/><rect x="489.6" y="132.18463146774877" width="13.799999999999999" height="42.717099653416824" fill="#A02128"/><line x1="519.5" y1="136.15871752468365" x2="519.5" y2="219.3601304282348" stroke="#A02128" stroke-width="1"/><rect x="512.6" y="174.9017311211656" width="13.799999999999999" height="22.796260987926416" fill="#A02128"/><line x1="542.5" y1="163.022215343256" x2="542.5" y2="288.81254874929436" stroke="#A02128" stroke-width="1"/><rect x="535.6" y="197.697992109092" width="13.799999999999999" height="54.05294866816104" fill="#A02128"/><line x1="565.5" y1="201.9313138052538" x2="565.5" y2="256.76652843940286" stroke="#006340" stroke-width="1"/><rect x="558.6" y="249.9792655002011" width="13.799999999999999" height="1.7716752770519406" fill="#006340"/><line x1="588.5" y1="167.23858989533306" x2="588.5" y2="294.4298667439977" stroke="#006340" stroke-width="1"/><rect x="581.6" y="190.82841529110044" width="13.799999999999999" height="59.15085020910067" fill="#006340"/><line x1="611.5" y1="117.73944700660809" x2="611.5" y2="237.28022392449463" stroke="#006340" stroke-width="1"/><rect x="604.6" y="136.82236017145874" width="13.799999999999999" height="54.0060551196417" fill="#006340"/><line x1="634.5" y1="134.06623699490308" x2="634.5" y2="190.86276878378408" stroke="#A02128" stroke-width="1"/><rect x="627.6" y="136.82236017145874" width="13.799999999999999" height="29.44442641435461" fill="#A02128"/><line x1="657.5" y1="94.64099555951236" x2="657.5" y2="181.59670448310413" stroke="#006340" stroke-width="1"/><rect x="650.6" y="130.70107351569607" width="13.799999999999999" height="35.56571307011728" fill="#006340"/><line x1="680.5" y1="120.14043958805826" x2="680.5" y2="179.8088292985339" stroke="#A02128" stroke-width="1"/><rect x="673.6" y="130.70107351569607" width="13.799999999999999" height="47.077402316526616" fill="#A02128"/><line x1="703.5" y1="151.8530145050388" x2="703.5" y2="259.62366095417013" stroke="#A02128" stroke-width="1"/><rect x="696.6" y="177.77847583222268" width="13.799999999999999" height="52.57293538929082" fill="#A02128"/><line x1="726.5" y1="158.82576240613344" x2="726.5" y2="231.43315309804206" stroke="#006340" stroke-width="1"/><rect x="719.6" y="186.67534885161683" width="13.799999999999999" height="43.67606236989667" fill="#006340"/><line x1="749.5" y1="90.44614477554558" x2="749.5" y2="186.96669137621245" stroke="#006340" stroke-width="1"/><rect x="742.6" y="137.1309908079445" width="13.799999999999999" height="49.54435804367233" fill="#006340"/><line x1="772.5" y1="90.13014935485671" x2="772.5" y2="225.2126782479142" stroke="#A02128" stroke-width="1"/><rect x="765.6" y="137.1309908079445" width="13.799999999999999" height="73.54394495279553" fill="#A02128"/><line x1="795.5" y1="164.29611572115016" x2="795.5" y2="254.53487802559096" stroke="#A02128" stroke-width="1"/><rect x="788.6" y="210.67493576074003" width="13.799999999999999" height="29.396348308355755" fill="#A02128"/><line x1="818.5" y1="195.32418536851367" x2="818.5" y2="270.64739869062015" stroke="#006340" stroke-width="1"/><rect x="811.6" y="221.28319307577357" width="13.799999999999999" height="18.788090993322214" fill="#006340"/><line x1="841.5" y1="122.38488755618982" x2="841.5" y2="248.6632773236351" stroke="#006340" stroke-width="1"/><rect x="834.6" y="171.38662973954126" width="13.799999999999999" height="49.896563336232305" fill="#006340"/><line x1="864.5" y1="163.89270626974223" x2="864.5" y2="262.76340044396613" stroke="#A02128" stroke-width="1"/><rect x="857.6" y="171.38662973954126" width="13.799999999999999" height="72.97395912935315" fill="#A02128"/><line x1="887.5" y1="206.92079586585584" x2="887.5" y2="326.3260371135212" stroke="#A02128" stroke-width="1"/><rect x="880.6" y="244.3605888688944" width="13.799999999999999" height="40.07971549102666" fill="#A02128"/><line x1="910.5" y1="208.21046240817964" x2="910.5" y2="318.3834951624739" stroke="#006340" stroke-width="1"/><rect x="903.6" y="237.4888687933821" width="13.799999999999999" height="46.951435566538976" fill="#006340"/><line x1="933.5" y1="210.5367996559807" x2="933.5" y2="322.4388415270718" stroke="#A02128" stroke-width="1"/><rect x="926.6" y="237.4888687933821" width="13.799999999999999" height="49.30820275630839" fill="#A02128"/><line x1="956.5" y1="272.9421724500249" x2="956.5" y2="363.93476078333157" stroke="#A02128" stroke-width="1"/><rect x="949.6" y="286.7970715496905" width="13.799999999999999" height="46.63151788013465" fill="#A02128"/><line x1="979.5" y1="320.5815213348307" x2="979.5" y2="355.82602200407405" stroke="#A02128" stroke-width="1"/><rect x="972.6" y="333.42858942982514" width="13.799999999999999" height="21.284401790270636" fill="#A02128"/><line x1="1002.5" y1="336.79146699386706" x2="1002.5" y2="436.5361123335575" stroke="#A02128" stroke-width="1"/><rect x="995.6" y="354.7129912200958" width="13.799999999999999" height="39.57313790860127" fill="#A02128"/><line x1="1025.5" y1="368.88317640044806" x2="1025.5" y2="438.18295780099965" stroke="#006340" stroke-width="1"/><rect x="1018.6" y="392.94326583523855" width="13.799999999999999" height="1.3428632934584925" fill="#006340"/><line x1="1048.5" y1="359.1668480372873" x2="1048.5" y2="452.5894441160075" stroke="#A02128" stroke-width="1"/><rect x="1041.6" y="392.94326583523855" width="13.799999999999999" height="44.45137308584128" fill="#A02128"/><line x1="1071.5" y1="399.85487928572" x2="1071.5" y2="438.9930547761202" stroke="#006340" stroke-width="1"/><rect x="1064.6" y="402.3282060168534" width="13.799999999999999" height="35.06643290422642" fill="#006340"/><line x1="1094.5" y1="400.13439601803697" x2="1094.5" y2="491.03168854920693" stroke="#A02128" stroke-width="1"/><rect x="1087.6" y="402.3282060168534" width="13.799999999999999" height="53.891569735808616" fill="#A02128"/><line x1="1117.5" y1="430.6750663801557" x2="1117.5" y2="652" stroke="#A02128" stroke-width="1"/><rect x="1110.6" y="456.21977575266203" width="13.799999999999999" height="179.76513327241253" fill="#A02128"/><line x1="1140.5" y1="494.0182379012266" x2="1140.5" y2="640.50834863493" stroke="#006340" stroke-width="1"/><rect x="1133.6" y="541.5482923459684" width="13.799999999999999" height="94.43661667910612" fill="#006340"/>
</svg>