<svg xmlns="http://www.w3.org/2000/svg" width="1200" height="700">
  <rect width="100%" height="100%" fill="#0d1117"/>
  <line x1="48" y1="24" x2="1152" y2="24" stroke="#21262d" stroke-width="1"/><line x1="48" y1="181" x2="1152" y2="181" stroke="#21262d" stroke-width="1"/><line x1="48" y1="338" x2="1152" y2="338" stroke="#21262d" stroke-width="1"/><line x1="48" y1="495" x2="1152" y2="495" stroke="#21262d" stroke-width="1"/><line x1="48" y1="652" x2="1152" y2="652" stroke="#21262d" stroke-width="1"/>
  <line x1="59.5" y1="620.1470071963815" x2="59.5" y2="652" stroke="#006340" stroke-width="1"/><rect x="52.6" y="625.5045955680066" width="13.799999999999999" height="22.284492801009378" fill="#006340"/><line x1="82.5" y1="611.5342176392217" x2="82.5" y2="637.5354515361423" stroke="#A02128" stroke-width="1"/><rect x="75.6" y="625.5045955680066" width="13.799999999999999" height="3.5018050109720207" fill="#A02128"/><line x1="105.5" y1="585.1062537952067" x2="105.5" y2="629.4721985599979" stroke="#006340" stroke-width="1"/><rect x="98.6" y="592.3215458418525" width="13.799999999999999" height="36.6848547371261" fill="#006340"/><line x1="128.5" y1="585.561177039901" x2="128.5" y2="603.1740649809642" stroke="#A02128" stroke-width="1"/><rect x="121.6" y="592.3215458418525" width="13.799999999999999" height="8.291546049271005" fill="#A02128"/><line x1="151.5" y1="578.840061283334" x2="151.5" y2="602.0310378456372" stroke="#006340" stroke-width="1"/><rect x="144.6" y="592.1792310972123" width="13.799999999999999" height="8.433860793911208" fill="#006340"/><line x1="174.5" y1="550.2301313070515" x2="174.5" y2="593.5841030831674" stroke="#006340" stroke-width="1"/><rect x="167.6" y="559.9015158071362" width="13.799999999999999" height="32.27771529007612" fill="#006340"/><line x1="197.5" y1="543.2686210414295" x2="197.5" y2="572.5753627921681" stroke="#006340" stroke-width="1"/><rect x="190.6" y="557.6995442299906" width="13.799999999999999" height="2.2019715771456276" fill="#006340"/><line x1="220.5" y1="543.8815115229588" x2="220.5" y2="569.8571734424063" stroke="#006340" stroke-width="1"/><rect x="213.6" y="554.0196207480183" width="13.799999999999999" height="3.6799234819723097" fill="#006340"/><line x1="243.5" y1="517.7288214675964" x2="243.5" y2="565.8227813173585" stroke="#006340" stroke-width="1"/><rect x="236.6" y="524.0708900563925" width="13.799999999999999" height="29.94873069162577" fill="#006340"/><line x1="266.5" y1="474.5010411098406" x2="266.5" y2="539.5681476725758" stroke="#006340" stroke-width="1"/><rect x="259.6" y="486.1976638017791" width="13.799999999999999" height="37.87322625461343" fill="#006340"/><line x1="289.5" y1="445.9092130755605" x2="289.5" y2="486.7031733196816" stroke="#006340" stroke-width="1"/><rect x="282.6" y="447.52972462727905" width="13.799999999999999" height="38.66793917450002" fill="#006340"/><line x1="312.5" y1="409.2628971830149" x2="312.5" y2="458.04431190870855" stroke="#006340" stroke-width="1"/><rect x="305.6" y="410.22512918570465" width="13.799999999999999" height="37.304595441574406" fill="#006340"/><line x1="335.5" y1="360.369576431293" x2="335.5" y2="417.6385157661507" stroke="#006340" stroke-width="1"/><rect x="328.6" y="372.6408573259469" width="13.799999999999999" height="37.584271859757735" fill="#006340"/><line x1="358.5" y1="334.8116012547163" x2="358.5" y2="381.2142887360193" stroke="#006340" stroke-width="1"/><rect x="351.6" y="350.22477834247985" width="13.799999999999999" height="22.41607898346706" fill="#006340"/><line x1="381.5" y1="343.06388083831786" x2="381.5" y2="361.7657221987072" stroke="#A02128" stroke-width="1"/><rect x="374.6" y="350.22477834247985" width="13.799999999999999" height="6.868082615020796" fill="#A02128"/><line x1="404.5" y1="330.15751174407444" x2="404.5" y2="369.0694917301613" stroke="#006340" stroke-width="1"/><rect x="397.6" y="343.54697639592376" width="13.799999999999999" height="13.545884561576884" fill="#006340"/><line x1="427.5" y1="300.55204527926423" x2="427.5" y2="355.0186999916127" stroke="#006340" stroke-width="1"/><rect x="420.6" y="315.7836900909522" width="13.799999999999999" height="27.763286304971587" fill="#006340"/><line x1="450.5" y1="313.18746557607545" x2="450.5" y2="328.869138603376" stroke="#A02128" stroke-width="1"/><rect x="443.6" y="315.7836900909522" width="13.799999999999999" height="7.095429541379133" fill="#A02128"/><line x1="473.5" y1="314.23278734199647" x2="473.5" y2="328.4163001580541" stroke="#A02128" stroke-width="1"/><rect x="466.6" y="322.8791196323313" width="13.799999999999999" height="4.138554930168937" fill="#A02128"/><line x1="496.5" y1="298.0197726954841" x2="496.5" y2="332.0780910060888" stroke="#006340" stroke-width="1"/><rect x="489.6" y="310.911388347555" width="13.799999999999999" height="16.10628621494527" fill="#006340"/><line x1="519.5" y1="268.0353748767935" x2="519.5" y2="314.7535654774694" stroke="#006340" stroke-width="1"/><rect x="512.6" y="277.7899868671424" width="13.799999999999999" height="33.1214014804126" fill="#006340"/><line x1="542.5" y1="262.2256744425435" x2="542.5" y2="299.4280286644127" stroke="#A02128" stroke-width="1"/><rect x="535.6" y="277.7899868671424" width="13.799999999999999" height="9.644657026862774" fill="#A02128"/><line x1="565.5" y1="272.3884105688691" x2="565.5" y2="294.9654144804519" stroke="#006340" stroke-width="1"/><rect x="558.6" y="277.854471335579" width="13.799999999999999" height="9.58017255842617" fill="#006340"/><line x1="588.5" y1="268.25661452944365" x2="588.5" y2="284.19302416869107" stroke="#A02128" stroke-width="1"/><rect x="581.6" y="277.854471335579" width="13.799999999999999" height="3.852919703093505" fill="#A02128"/><line x1="611.5" y1="276.3746281379621" x2="611.5" y2="285.7625508171552" stroke="#A02128" stroke-width="1"/><rect x="604.6" y="281.7073910386725" width="13.799999999999999" height="1" fill="#A02128"/><line x1="634.5" y1="251.2684990025191" x2="634.5" y2="289.2516549357677" stroke="#006340" stroke-width="1"/><rect x="627.6" y="254.44790941969194" width="13.799999999999999" height="27.96517007411893" fill="#006340"/><line x1="657.5" y1="233.46481612539014" x2="657.5" y2="256.24818536088503" stroke="#006340" stroke-width="1"/><rect x="650.6" y="251.40311174868208" width="13.799999999999999" height="3.04479767100986" fill="#006340"/><line x1="680.5" y1="242.67388900165662" x2="680.5" y2="259.2374642200762" stroke="#A02128" stroke-width="1"/><rect x="673.6" y="251.40311174868208" width="13.799999999999999" height="3.2422883189234994" fill="#A02128"/><line x1="703.5" y1="228.58007281198996" x2="703.5" y2="269.61855294493785" stroke="#006340" stroke-width="1"/><rect x="696.6" y="236.29474918867191" width="13.799999999999999" height="18.350650878933664" fill="#006340"/><line x1="726.5" y1="200.42409500594073" x2="726.5" y2="240.6475106597839" stroke="#006340" stroke-width="1"/><rect x="719.6" y="201.5457691571611" width="13.799999999999999" height="34.748980031510825" fill="#006340"/><line x1="749.5" y1="162.86401516637915" x2="749.5" y2="205.42073162662643" stroke="#006340" stroke-width="1"/><rect x="742.6" y="176.14611413404322" width="13.799999999999999" height="25.399655023117873" fill="#006340"/><line x1="772.5" y1="132.98104656721773" x2="772.5" y2="192.1676234751032" stroke="#006340" stroke-width="1"/><rect x="765.6" y="140.53670076788075" width="13.799999999999999" height="35.60941336616247" fill="#006340"/><line x1="795.5" y1="127.3476732639466" x2="795.5" y2="154.10794268222014" stroke="#A02128" stroke-width="1"/><rect x="788.6" y="140.53670076788075" width="13.799999999999999" height="3.7702378375617513" fill="#A02128"/><line x1="818.5" y1="124.86286116590463" x2="818.5" y2="159.24131118168503" stroke="#006340" stroke-width="1"/><rect x="811.6" y="140.94439591369985" width="13.799999999999999" height="3.3625426917426466" fill="#006340"/><line x1="841.5" y1="103.52380626009631" x2="841.5" y2="147.86691063980197" stroke="#006340" stroke-width="1"/><rect x="834.6" y="121.38170510460839" width="13.799999999999999" height="19.562690809091464" fill="#006340"/><line x1="864.5" y1="96.60352605949174" x2="864.5" y2="137.09118347058427" stroke="#006340" stroke-width="1"/><rect x="857.6" y="107.16580056128339" width="13.799999999999999" height="14.215904543324996" fill="#006340"/><line x1="887.5" y1="74.16898615122727" x2="887.5" y2="108.07128318731225" stroke="#006340" stroke-width="1"/><rect x="880.6" y="75.7775798503028" width="13.799999999999999" height="31.38822071098059" fill="#006340"/><line x1="910.5" y1="28.68601027440559" x2="910.5" y2="87.1640900954593" stroke="#006340" stroke-width="1"/><rect x="903.6" y="47.40548816667683" width="13.799999999999999" height="28.372091683625968" fill="#006340"/><line x1="933.5" y1="32.09098960854135" x2="933.5" y2="55.29248237644731" stroke="#A02128" stroke-width="1"/><rect x="926.6" y="47.40548816667683" width="13.799999999999999" height="1.0733257950018924" fill="#A02128"/><line x1="956.5" y1="41.08505327937553" x2="956.5" y2="65.46059124218891" stroke="#A02128" stroke-width="1"/><rect x="949.6" y="48.478813961678725" width="13.799999999999999" height="7.899034951229623" fill="#A02128"/><line x1="979.5" y1="42.744359613861434" x2="979.5" y2="75.28432294485071" stroke="#A02128" stroke-width="1"/><rect x="972.6" y="56.37784891290835" width="13.799999999999999" height="11.257359291915122" fill="#A02128"/><line x1="1002.5" y1="54.67809550375512" x2="1002.5" y2="85.5301699313261" stroke="#A02128" stroke-width="1"/><rect x="995.6" y="67.63520820482347" width="13.799999999999999" height="11.145135787470167" fill="#A02128"/><line x1="1025.5" y1="69.18059069307856" x2="1025.5" y2="92.46724952469901" stroke="#A02128" stroke-width="1"/><rect x="1018.6" y="78.78034399229364" width="13.799999999999999" height="9.119120472221425" fill="#A02128"/><line x1="1048.5" y1="68.06666053506092" x2="1048.5" y2="101.89860413725444" stroke="#006340" stroke-width="1"/><rect x="1041.6" y="70.3092890038921" width="13.799999999999999" height="17.59017546062296" fill="#006340"/><line x1="1071.5" y1="44.29090242473421" x2="1071.5" y2="71.13942341864492" stroke="#006340" stroke-width="1"/><rect x="1064.6" y="59.777939424745796" width="13.799999999999999" height="10.531349579146308" fill="#006340"/><line x1="1094.5" y1="36.051664801793095" x2="1094.5" y2="76.97945884124022" stroke="#006340" stroke-width="1"/><rect x="1087.6" y="37.10770889575019" width="13.799999999999999" height="22.670230528995603" fill="#006340"/><line x1="1117.5" y1="25.475292286980107" x2="1117.5" y2="55.510671466398776" stroke="#006340" stroke-width="1"/><rect x="1110.6" y="29.84382922076975" width="13.799999999999999" height="7.263879674980444" fill="#006340"/><line x1="1140.5" y1="24" x2="1140.5" y2="32.22534343456357" stroke="#A02128" stroke-width="1"/><rect x="1133.6" y="29.84382922076975" width="13.799999999999999" height="1.1462742689844845" fill="#A02128"/>
</svg>