<svg xmlns="http://www.w3.org/2000/svg" width="1200" height="700">
  <rect width="100%" height="100%" fill="#0d1117"/>
  <line x1="48" y1="24" x2="1152" y2="24" stroke="#21262d" stroke-width="1"/><line x1="48" y1="181" x2="1152" y2="181" stroke="#21262d" stroke-width="1"/><line x1="48" y1="338" x2="1152" y2="338" stroke="#21262d" stroke-width="1"/><line x1="48" y1="495" x2="1152" y2="495" stroke="#21262d" stroke-width="1"/><line x1="48" y1="652" x2="1152" y2="652" stroke="#21262d" stroke-width="1"/>
  <line x1="59.5" y1="627.8168275062657" x2="59.5" y2="643.1865772103521" stroke="#006340" stroke-width="1"/><rect x="52.6" y="636.0786040304664" width="13.799999999999999" height="3.91474688700805" fill="#006340"/><line x1="82.5" y1="634.8185964692132" x2="82.5" y2="650.828241513521" stroke="#A02128" stroke-width="1"/><rect x="75.6" y="636.0786040304664" width="13.799999999999999" height="8.3741380190055" fill="#A02128"/><line x1="105.5" y1="614.4746522696473" x2="105.5" y2="652" stroke="#006340" stroke-width="1"/><rect x="98.6" y="625.9104175089394" width="13.799999999999999" height="18.54232454053249" fill="#006340"/><line x1="128.5" y1="619.8868120883516" x2="128.5" y2="629.3816991593048" stroke="#006340" stroke-width="1"/><rect x="121.6" y="620.792049455616" width="13.799999999999999" height="5.1183680533233655" fill="#006340"/><line x1="151.5" y1="604.9797017434302" x2="151.5" y2="630.7099470160788" stroke="#006340" stroke-width="1"/><rect x="144.6" y="608.134627638268" width="13.799999999999999" height="12.657421817348109" fill="#006340"/><line x1="174.5" y1="573.4463492523396" x2="174.5" y2="614.2752625025437" stroke="#006340" stroke-width="1"/><rect x="167.6" y="577.830158024778" width="13.799999999999999" height="30.304469613489914" fill="#006340"/><line x1="197.5" y1="539.5536982376915" x2="197.5" y2="578.7913892599133" stroke="#006340" stroke-width="1"/><rect x="190.6" y="546.2896533889175" width="13.799999999999999" height="31.540504635860543" fill="#006340"/><line x1="220.5" y1="537.6628048511926" x2="220.5" y2="557.5785740393159" stroke="#006340" stroke-width="1"/><rect x="213.6" y="537.6959360097677" width="13.799999999999999" height="8.59371737914978" fill="#006340"/><line x1="243.5" y1="534.2255755909775" x2="243.5" y2="539.1503687057802" stroke="#006340" stroke-width="1"/><rect x="236.6" y="536.7150798298856" width="13.799999999999999" height="1" fill="#006340"/><line x1="266.5" y1="510.6400415824318" x2="266.5" y2="550.4483879180732" stroke="#006340" stroke-width="1"/><rect x="259.6" y="523.9809235968174" width="13.799999999999999" height="12.73415623306812" fill="#006340"/><line x1="289.5" y1="518.3066045923198" x2="289.5" y2="540.1071825436851" stroke="#A02128" stroke-width="1"/><rect x="282.6" y="523.9809235968174" width="13.799999999999999" height="3.15836222061796" fill="#A02128"/><line x1="312.5" y1="482.9136288445512" x2="312.5" y2="537.4215738812987" stroke="#006340" stroke-width="1"/><rect x="305.6" y="493.19651422688685" width="13.799999999999999" height="33.942771590548546" fill="#006340"/><line x1="335.5" y1="465.1301432018633" x2="335.5" y2="497.1754858167875" stroke="#006340" stroke-width="1"/><rect x="328.6" y="474.4602752501076" width="13.799999999999999" height="18.736238976779248" fill="#006340"/><line x1="358.5" y1="450.1729288588857" x2="358.5" y2="485.85971719418774" stroke="#006340" stroke-width="1"/><rect x="351.6" y="452.4504882175481" width="13.799999999999999" height="22.009787032559473" fill="#006340"/><line x1="381.5" y1="432.28418261072034" x2="381.5" y2="459.89498840008105" stroke="#006340" stroke-width="1"/><rect x="374.6" y="439.4035597178182" width="13.799999999999999" height="13.046928499729916" fill="#006340"/><line x1="404.5" y1="420.936915833527" x2="404.5" y2="442.3450011554848" stroke="#006340" stroke-width="1"/><rect x="397.6" y="432.6262966586346" width="13.799999999999999" height="6.7772630591836105" fill="#006340"/><line x1="427.5" y1="422.0071109772616" x2="427.5" y2="450.65490348911464" stroke="#A02128" stroke-width="1"/><rect x="420.6" y="432.6262966586346" width="13.799999999999999" height="3.0681274587665825" fill="#A02128"/><line x1="450.5" y1="419.5250846018997" x2="450.5" y2="443.09227933694336" stroke="#006340" stroke-width="1"/><rect x="443.6" y="422.9594051441949" width="13.799999999999999" height="12.735018973206309" fill="#006340"/><line x1="473.5" y1="407.68841610501613" x2="473.5" y2="433.8184971637181" stroke="#006340" stroke-width="1"/><rect x="466.6" y="409.56903713918575" width="13.799999999999999" height="13.390368005009122" fill="#006340"/><line x1="496.5" y1="370.1122413246384" x2="496.5" y2="416.0468342528832" stroke="#006340" stroke-width="1"/><rect x="489.6" y="385.7223617116365" width="13.799999999999999" height="23.846675427549258" fill="#006340"/><line x1="519.5" y1="371.57072380119814" x2="519.5" y2="390.58486990550773" stroke="#006340" stroke-width="1"/><rect x="512.6" y="376.44760217522776" width="13.799999999999999" height="9.274759536408737" fill="#006340"/><line x1="542.5" y1="354.55429649808093" x2="542.5" y2="382.9038897527289" stroke="#006340" stroke-width="1"/><rect x="535.6" y="364.2195087341266" width="13.799999999999999" height="12.22809344110118" fill="#006340"/><line x1="565.5" y1="344.41131668255355" x2="565.5" y2="365.0140277731711" stroke="#006340" stroke-width="1"/><rect x="558.6" y="359.54356379800606" width="13.799999999999999" height="4.675944936120516" fill="#006340"/><line x1="588.5" y1="357.5177675985735" x2="588.5" y2="378.4553785245763" stroke="#A02128" stroke-width="1"/><rect x="581.6" y="359.54356379800606" width="13.799999999999999" height="7.511301031956691" fill="#A02128"/><line x1="611.5" y1="361.2342778555294" x2="611.5" y2="387.7489298662178" stroke="#A02128" stroke-width="1"/><rect x="604.6" y="367.05486482996275" width="13.799999999999999" height="10.561535401075275" fill="#A02128"/><line x1="634.5" y1="349.6863259529246" x2="634.5" y2="383.01170173791303" stroke="#006340" stroke-width="1"/><rect x="627.6" y="355.83054994733567" width="13.799999999999999" height="21.78585028370236" fill="#006340"/><line x1="657.5" y1="319.4838955281808" x2="657.5" y2="365.243415458045" stroke="#006340" stroke-width="1"/><rect x="650.6" y="320.7888860399842" width="13.799999999999999" height="35.04166390735145" fill="#006340"/><line x1="680.5" y1="296.64463513130454" x2="680.5" y2="327.1607668061233" stroke="#006340" stroke-width="1"/><rect x="673.6" y="306.4621954069788" width="13.799999999999999" height="14.326690633005398" fill="#006340"/><line x1="703.5" y1="289.47223207838874" x2="703.5" y2="316.57157881089665" stroke="#006340" stroke-width="1"/><rect x="696.6" y="304.4362940789461" width="13.799999999999999" height="2.0259013280327167" fill="#006340"/><line x1="726.5" y1="293.5058952050513" x2="726.5" y2="319.34171976174997" stroke="#006340" stroke-width="1"/><rect x="719.6" y="296.03237685482713" width="13.799999999999999" height="8.40391722411897" fill="#006340"/><line x1="749.5" y1="274.211761394886" x2="749.5" y2="302.9172552052984" stroke="#006340" stroke-width="1"/><rect x="742.6" y="287.04525328014284" width="13.799999999999999" height="8.98712357468429" fill="#006340"/><line x1="772.5" y1="272.03092228828405" x2="772.5" y2="290.39446195090824" stroke="#006340" stroke-width="1"/><rect x="765.6" y="280.5870717570934" width="13.799999999999999" height="6.458181523049461" fill="#006340"/><line x1="795.5" y1="261.313551299888" x2="795.5" y2="281.54781098953663" stroke="#006340" stroke-width="1"/><rect x="788.6" y="277.086518505218" width="13.799999999999999" height="3.500553251875374" fill="#006340"/><line x1="818.5" y1="243.3331973001998" x2="818.5" y2="290.26207621905314" stroke="#006340" stroke-width="1"/><rect x="811.6" y="245.3368613689616" width="13.799999999999999" height="31.749657136256417" fill="#006340"/><line x1="841.5" y1="222.33063484098244" x2="841.5" y2="256.4625568022984" stroke="#006340" stroke-width="1"/><rect x="834.6" y="228.76098043389374" width="13.799999999999999" height="16.575880935067858" fill="#006340"/><line x1="864.5" y1="227.1479787160862" x2="864.5" y2="238.19342786317327" stroke="#A02128" stroke-width="1"/><rect x="857.6" y="228.76098043389374" width="13.799999999999999" height="1" fill="#A02128"/><line x1="887.5" y1="189.3614515582177" x2="887.5" y2="232.79764072463422" stroke="#006340" stroke-width="1"/><rect x="880.6" y="199.17586566059464" width="13.799999999999999" height="29.89171159403554" fill="#006340"/><line x1="910.5" y1="198.77355903645628" x2="910.5" y2="217.5646887125958" stroke="#A02128" stroke-width="1"/><rect x="903.6" y="199.17586566059464" width="13.799999999999999" height="3.119079839680694" fill="#A02128"/><line x1="933.5" y1="191.9118727747258" x2="933.5" y2="217.39039856524096" stroke="#006340" stroke-width="1"/><rect x="926.6" y="199.03294823620558" width="13.799999999999999" height="3.2619972640697483" fill="#006340"/><line x1="956.5" y1="181.68101732617407" x2="956.5" y2="211.3765225714106" stroke="#006340" stroke-width="1"/><rect x="949.6" y="189.26350498691193" width="13.799999999999999" height="9.769443249293658" fill="#006340"/><line x1="979.5" y1="143.30801121824516" x2="979.5" y2="192.25109775842475" stroke="#006340" stroke-width="1"/><rect x="972.6" y="153.27071600746882" width="13.799999999999999" height="35.992788979443105" fill="#006340"/><line x1="1002.5" y1="134.73634892719576" x2="1002.5" y2="167.29717735787352" stroke="#006340" stroke-width="1"/><rect x="995.6" y="136.41354073242383" width="13.799999999999999" height="16.857175275044995" fill="#006340"/><line x1="1025.5" y1="102.24034210374896" x2="1025.5" y2="150.95807023834539" stroke="#006340" stroke-width="1"/><rect x="1018.6" y="104.67827134790434" width="13.799999999999999" height="31.735269384519484" fill="#006340"/><line x1="1048.5" y1="63.21644154311116" x2="1048.5" y2="107.65414746900922" stroke="#006340" stroke-width="1"/><rect x="1041.6" y="78.21494303962947" width="13.799999999999999" height="26.463328308274868" fill="#006340"/><line x1="1071.5" y1="71.08405757162632" x2="1071.5" y2="92.24515097904589" stroke="#A02128" stroke-width="1"/><rect x="1064.6" y="78.21494303962947" width="13.799999999999999" height="1" fill="#A02128"/><line x1="1094.5" y1="37.822292886325954" x2="1094.5" y2="90.64117895858135" stroke="#006340" stroke-width="1"/><rect x="1087.6" y="47.019624227204986" width="13.799999999999999" height="31.762090789933723" fill="#006340"/><line x1="1117.5" y1="32.958640200184846" x2="1117.5" y2="60.063677126333914" stroke="#A02128" stroke-width="1"/><rect x="1110.6" y="47.019624227204986" width="13.799999999999999" height="12.453006142903746" fill="#A02128"/><line x1="1140.5" y1="24" x2="1140.5" y2="69.05595905829443" stroke="#006340" stroke-width="1"/><rect x="1133.6" y="31.166640196957474" width="13.799999999999999" height="28.305990173151258" fill="#006340"/>
</svg>