<svg xmlns="http://www.w3.org/2000/svg" width="1200" height="700">
  <rect width="100%" height="100%" fill="#0d1117"/>
  <line x1="48" y1="24" x2="1152" y2="24" stroke="#21262d" stroke-width="1"/><line x1="48" y1="181" x2="1152" y2="181" stroke="#21262d" stroke-width="1"/><line x1="48" y1="338" x2="1152" y2="338" stroke="#21262d" stroke-width="1"/><line x1="48" y1="495" x2="1152" y2="495" stroke="#21262d" stroke-width="1"/><line x1="48" y1="652" x2="1152" y2="652" stroke="#21262d" stroke-width="1"/>
  <line x1="59.5" y1="614.0943451344639" x2="59.5" y2="646.1104634639831" stroke="#006340" stroke-width="1"/><rect x="52.6" y="622.4698293223586" width="13.799999999999999" height="19.451529479190185" fill="#006340"/><line x1="82.5" y1="620.1058773770116" x2="82.5" y2="633.9740398125574" stroke="#A02128" stroke-width="1"/><rect x="75.6" y="622.4698293223586" width="13.799999999999999" height="9.008064466533938" fill="#A02128"/><line x1="105.5" y1="626.968579268884" x2="105.5" y2="642.0162841208686" stroke="#A02128" stroke-width="1"/><rect x="98.6" y="631.4778937888925" width="13.799999999999999" height="8.185867082898426" fill="#A02128"/><line x1="128.5" y1="615.5437184934107" x2="128.5" y2="652" stroke="#006340" stroke-width="1"/><rect x="121.6" y="615.8849204225628" width="13.799999999999999" height="23.77884044922814" fill="#006340"/><line x1="151.5" y1="600.7498791855328" x2="151.5" y2="626.0969540278038" stroke="#006340" stroke-width="1"/><rect x="144.6" y="612.8010597808441" width="13.799999999999999" height="3.0838606417187293" fill="#006340"/><line x1="174.5" y1="603.1496491008203" x2="174.5" y2="615.4083479750328" stroke="#006340" stroke-width="1"/><rect x="167.6" y="606.7582036997092" width="13.799999999999999" height="6.042856081134914" fill="#006340"/><line x1="197.5" y1="576.9924668352288" x2="197.5" y2="608.8968842088876" stroke="#006340" stroke-width="1"/><rect x="190.6" y="579.5884302569306" width="13.799999999999999" height="27.16977344277859" fill="#006340"/><line x1="220.5" y1="560.9397927365827" x2="220.5" y2="587.1834287270169" stroke="#006340" stroke-width="1"/><rect x="213.6" y="561.5188242925977" width="13.799999999999999" height="18.069605964332823" fill="#006340"/><line x1="243.5" y1="530.4320949947028" x2="243.5" y2="570.9129952374143" stroke="#006340" stroke-width="1"/><rect x="236.6" y="536.6820673840177" width="13.799999999999999" height="24.836756908580014" fill="#006340"/><line x1="266.5" y1="530.3237451923407" x2="266.5" y2="542.6552596929228" stroke="#006340" stroke-width="1"/><rect x="259.6" y="530.6763527648858" width="13.799999999999999" height="6.005714619131936" fill="#006340"/><line x1="289.5" y1="505.57007315987835" x2="289.5" y2="540.3119302551397" stroke="#006340" stroke-width="1"/><rect x="282.6" y="510.54715093309585" width="13.799999999999999" height="20.129201831789942" fill="#006340"/><line x1="312.5" y1="508.4633319529893" x2="312.5" y2="515.8168144045902" stroke="#A02128" stroke-width="1"/><rect x="305.6" y="510.54715093309585" width="13.799999999999999" height="4.3622873534928885" fill="#A02128"/><line x1="335.5" y1="481.22506859089776" x2="335.5" y2="526.2591755778774" stroke="#006340" stroke-width="1"/><rect x="328.6" y="493.48324404809466" width="13.799999999999999" height="21.426194238494077" fill="#006340"/><line x1="358.5" y1="485.87383434306844" x2="358.5" y2="502.27316081789485" stroke="#006340" stroke-width="1"/><rect x="351.6" y="486.0244264463396" width="13.799999999999999" height="7.458817601755072" fill="#006340"/><line x1="381.5" y1="474.5164518359694" x2="381.5" y2="498.5762069466188" stroke="#006340" stroke-width="1"/><rect x="374.6" y="475.99698119060264" width="13.799999999999999" height="10.02744525573695" fill="#006340"/><line x1="404.5" y1="462.30184555406277" x2="404.5" y2="487.53311369481617" stroke="#006340" stroke-width="1"/><rect x="397.6" y="472.24757678161313" width="13.799999999999999" height="3.7494044089895056" fill="#006340"/><line x1="427.5" y1="454.90908788885986" x2="427.5" y2="479.9862048327359" stroke="#006340" stroke-width="1"/><rect x="420.6" y="465.853655981521" width="13.799999999999999" height="6.393920800092133" fill="#006340"/><line x1="450.5" y1="449.8664990261159" x2="450.5" y2="470.20921121462203" stroke="#006340" stroke-width="1"/><rect x="443.6" y="462.8254469408055" width="13.799999999999999" height="3.0282090407155238" fill="#006340"/><line x1="473.5" y1="446.90959892304977" x2="473.5" y2="469.7472508296062" stroke="#006340" stroke-width="1"/><rect x="466.6" y="452.78205165086854" width="13.799999999999999" height="10.043395289936939" fill="#006340"/><line x1="496.5" y1="415.2306214697562" x2="496.5" y2="452.9884246749141" stroke="#006340" stroke-width="1"/><rect x="489.6" y="426.6976774878944" width="13.799999999999999" height="26.084374162974143" fill="#006340"/><line x1="519.5" y1="393.7704746218308" x2="519.5" y2="431.1152918894044" stroke="#006340" stroke-width="1"/><rect x="512.6" y="407.2341471352112" width="13.799999999999999" height="19.46353035268322" fill="#006340"/><line x1="542.5" y1="372.5185905207202" x2="542.5" y2="420.71854427508697" stroke="#006340" stroke-width="1"/><rect x="535.6" y="378.97040077028856" width="13.799999999999999" height="28.26374636492261" fill="#006340"/><line x1="565.5" y1="373.4411337954297" x2="565.5" y2="385.98306604316724" stroke="#006340" stroke-width="1"/><rect x="558.6" y="378.34394007828774" width="13.799999999999999" height="1" fill="#006340"/><line x1="588.5" y1="367.99239579661463" x2="588.5" y2="384.9300517633514" stroke="#006340" stroke-width="1"/><rect x="581.6" y="373.0355073236046" width="13.799999999999999" height="5.308432754683167" fill="#006340"/><line x1="611.5" y1="350.9433910072529" x2="611.5" y2="386.39610221896237" stroke="#006340" stroke-width="1"/><rect x="604.6" y="355.6452471661737" width="13.799999999999999" height="17.390260157430873" fill="#006340"/><line x1="634.5" y1="325.2930138350195" x2="634.5" y2="368.8127496437418" stroke="#006340" stroke-width="1"/><rect x="627.6" y="338.741399491777" width="13.799999999999999" height="16.90384767439673" fill="#006340"/><line x1="657.5" y1="304.382971322035" x2="657.5" y2="348.89085302636664" stroke="#006340" stroke-width="1"/><rect x="650.6" y="312.91186587399085" width="13.799999999999999" height="25.829533617786126" fill="#006340"/><line x1="680.5" y1="305.9592119731543" x2="680.5" y2="324.1204961348358" stroke="#A02128" stroke-width="1"/><rect x="673.6" y="312.91186587399085" width="13.799999999999999" height="3.664003430493665" fill="#A02128"/><line x1="703.5" y1="311.26903194329196" x2="703.5" y2="324.555455665546" stroke="#006340" stroke-width="1"/><rect x="696.6" y="314.1049348712434" width="13.799999999999999" height="2.470934433241098" fill="#006340"/><line x1="726.5" y1="293.39769732762124" x2="726.5" y2="327.8865803276439" stroke="#006340" stroke-width="1"/><rect x="719.6" y="302.8828440173865" width="13.799999999999999" height="11.222090853856912" fill="#006340"/><line x1="749.5" y1="259.8775176343955" x2="749.5" y2="316.51691562444535" stroke="#006340" stroke-width="1"/><rect x="742.6" y="272.7662355884245" width="13.799999999999999" height="30.116608428962024" fill="#006340"/><line x1="772.5" y1="242.13578597961805" x2="772.5" y2="285.44461457308677" stroke="#006340" stroke-width="1"/><rect x="765.6" y="245.3499647770048" width="13.799999999999999" height="27.41627081141968" fill="#006340"/><line x1="795.5" y1="226.39933950669672" x2="795.5" y2="248.03726268954796" stroke="#006340" stroke-width="1"/><rect x="788.6" y="230.524401660656" width="13.799999999999999" height="14.825563116348803" fill="#006340"/><line x1="818.5" y1="228.48441766810186" x2="818.5" y2="247.70004465705222" stroke="#A02128" stroke-width="1"/><rect x="811.6" y="230.524401660656" width="13.799999999999999" height="5.660390748655971" fill="#A02128"/><line x1="841.5" y1="231.2938091985488" x2="841.5" y2="237.24515395378864" stroke="#A02128" stroke-width="1"/><rect x="834.6" y="236.18479240931197" width="13.799999999999999" height="1.0271676257138438" fill="#A02128"/><line x1="864.5" y1="206.61690984581548" x2="864.5" y2="244.2806905358246" stroke="#006340" stroke-width="1"/><rect x="857.6" y="208.7086639282669" width="13.799999999999999" height="28.50329610675891" fill="#006340"/><line x1="887.5" y1="188.26623800044172" x2="887.5" y2="211.58812760457982" stroke="#006340" stroke-width="1"/><rect x="880.6" y="193.5690232391143" width="13.799999999999999" height="15.1396406891526" fill="#006340"/><line x1="910.5" y1="180.57941434250148" x2="910.5" y2="201.62285852699478" stroke="#006340" stroke-width="1"/><rect x="903.6" y="181.19971552409095" width="13.799999999999999" height="12.369307715023353" fill="#006340"/><line x1="933.5" y1="166.9563635819078" x2="933.5" y2="191.94868892164237" stroke="#006340" stroke-width="1"/><rect x="926.6" y="179.8245116922211" width="13.799999999999999" height="1.3752038318698396" fill="#006340"/><line x1="956.5" y1="152.83509387447782" x2="956.5" y2="188.0588023084979" stroke="#006340" stroke-width="1"/><rect x="949.6" y="157.4453232966814" width="13.799999999999999" height="22.3791883955397" fill="#006340"/><line x1="979.5" y1="130.94890811433982" x2="979.5" y2="159.66284211586645" stroke="#006340" stroke-width="1"/><rect x="972.6" y="141.2281890936418" width="13.799999999999999" height="16.21713420303962" fill="#006340"/><line x1="1002.5" y1="122.36355267060935" x2="1002.5" y2="153.20369968651215" stroke="#006340" stroke-width="1"/><rect x="995.6" y="124.64965781612523" width="13.799999999999999" height="16.57853127751656" fill="#006340"/><line x1="1025.5" y1="116.25127941317567" x2="1025.5" y2="134.0878664162842" stroke="#006340" stroke-width="1"/><rect x="1018.6" y="117.56554747744053" width="13.799999999999999" height="7.084110338684695" fill="#006340"/><line x1="1048.5" y1="81.7950836716085" x2="1048.5" y2="127.08237971303527" stroke="#006340" stroke-width="1"/><rect x="1041.6" y="92.51891459362866" width="13.799999999999999" height="25.046632883811867" fill="#006340"/><line x1="1071.5" y1="66.99834185937993" x2="1071.5" y2="98.70739411873262" stroke="#006340" stroke-width="1"/><rect x="1064.6" y="81.49052110004868" width="13.799999999999999" height="11.028393493579983" fill="#006340"/><line x1="1094.5" y1="56.32328282319793" x2="1094.5" y2="95.49003366048464" stroke="#006340" stroke-width="1"/><rect x="1087.6" y="70.94720297851075" width="13.799999999999999" height="10.543318121537936" fill="#006340"/><line x1="1117.5" y1="39.860882159080234" x2="1117.5" y2="73.61228955629224" stroke="#006340" stroke-width="1"/><rect x="1110.6" y="50.35262125206316" width="13.799999999999999" height="20.594581726447586" fill="#006340"/><line x1="1140.5" y1="24" x2="1140.5" y2="64.29268960652814" stroke="#006340" stroke-width="1"/><rect x="1133.6" y="31.47061798912216" width="13.799999999999999" height="18.882003262940998" fill="#006340"/>
</svg>