<svg xmlns="http://www.w3.org/2000/svg" width="1200" height="700">
  <rect width="100%" height="100%" fill="#0d1117"/>
  <line x1="48" y1="24" x2="1152" y2="24" stroke="#21262d" stroke-width="1"/><line x1="48" y1="181" x2="1152" y2="181" stroke="#21262d" stroke-width="1"/><line x1="48" y1="338" x2="1152" y2="338" stroke="#21262d" stroke-width="1"/><line x1="48" y1="495" x2="1152" y2="495" stroke="#21262d" stroke-width="1"/><line x1="48" y1="652" x2="1152" y2="652" stroke="#21262d" stroke-width="1"/>
  <line x1="59.5" y1="625.7596205356439" x2="59.5" y2="652" stroke="#006340" stroke-width="1"/><rect x="52.6" y="634.6605680635687" width="13.799999999999999" height="4.693882675534496" fill="#006340"/><line x1="82.5" y1="610.6012026708293" x2="82.5" y2="644.2222176585208" stroke="#006340" stroke-width="1"/><rect x="75.6" y="617.7897373017321" width="13.799999999999999" height="16.8708307618366" fill="#006340"/><line x1="105.5" y1="588.3143465787688" x2="105.5" y2="618.1242045192976" stroke="#006340" stroke-width="1"/><rect x="98.6" y="595.6489850708158" width="13.799999999999999" height="22.14075223091629" fill="#006340"/><line x1="128.5" y1="551.9075896809636" x2="128.5" y2="608.4881488577232" stroke="#006340" stroke-width="1"/><rect x="121.6" y="561.5723969409447" width="13.799999999999999" height="34.076588129871084" fill="#006340"/><line x1="151.5" y1="540.9554055601867" x2="151.5" y2="573.662223244462" stroke="#006340" stroke-width="1"/><rect x="144.6" y="549.9098505203574" width="13.799999999999999" height="11.662546420587319" fill="#006340"/><line x1="174.5" y1="529.2791190261619" x2="174.5" y2="556.6237430462414" stroke="#006340" stroke-width="1"/><rect x="167.6" y="535.657588214099" width="13.799999999999999" height="14.252262306258444" fill="#006340"/><line x1="197.5" y1="522.2122274473855" x2="197.5" y2="549.640750317616" stroke="#A02128" stroke-width="1"/><rect x="190.6" y="535.657588214099" width="13.799999999999999" height="1" fill="#A02128"/><line x1="220.5" y1="521.1786734558376" x2="220.5" y2="548.4277088400703" stroke="#A02128" stroke-width="1"/><rect x="213.6" y="536.3098176180282" width="13.799999999999999" height="1" fill="#A02128"/><line x1="243.5" y1="513.3567417608099" x2="243.5" y2="543.0400349197511" stroke="#006340" stroke-width="1"/><rect x="236.6" y="514.3480837520536" width="13.799999999999999" height="22.92304869195948" fill="#006340"/><line x1="266.5" y1="498.4444678977579" x2="266.5" y2="516.0261006515096" stroke="#006340" stroke-width="1"/><rect x="259.6" y="499.0508704190924" width="13.799999999999999" height="15.297213332961235" fill="#006340"/><line x1="289.5" y1="477.06470408881563" x2="289.5" y2="502.95666181551303" stroke="#006340" stroke-width="1"/><rect x="282.6" y="478.30734099578433" width="13.799999999999999" height="20.743529423308075" fill="#006340"/><line x1="312.5" y1="450.77076499266843" x2="312.5" y2="488.59424534833954" stroke="#006340" stroke-width="1"/><rect x="305.6" y="461.89163077426736" width="13.799999999999999" height="16.415710221516974" fill="#006340"/><line x1="335.5" y1="423.88631581572236" x2="335.5" y2="471.61203194166217" stroke="#006340" stroke-width="1"/><rect x="328.6" y="425.3149855748492" width="13.799999999999999" height="36.57664519941818" fill="#006340"/><line x1="358.5" y1="418.2388740358466" x2="358.5" y2="443.2358069205758" stroke="#A02128" stroke-width="1"/><rect x="351.6" y="425.3149855748492" width="13.799999999999999" height="3.1349240793205126" fill="#A02128"/><line x1="381.5" y1="392.74382522100757" x2="381.5" y2="440.15805603416675" stroke="#006340" stroke-width="1"/><rect x="374.6" y="397.5904673048731" width="13.799999999999999" height="30.859442349296614" fill="#006340"/><line x1="404.5" y1="388.7859626703909" x2="404.5" y2="400.8974825087399" stroke="#006340" stroke-width="1"/><rect x="397.6" y="391.43529389821595" width="13.799999999999999" height="6.155173406657127" fill="#006340"/><line x1="427.5" y1="370.0169774478652" x2="427.5" y2="395.6642443288126" stroke="#006340" stroke-width="1"/><rect x="420.6" y="375.66221944078524" width="13.799999999999999" height="15.77307445743071" fill="#006340"/><line x1="450.5" y1="363.0645181252591" x2="450.5" y2="383.4936782441528" stroke="#006340" stroke-width="1"/><rect x="443.6" y="366.44966119886055" width="13.799999999999999" height="9.212558241924683" fill="#006340"/><line x1="473.5" y1="351.56540419416035" x2="473.5" y2="370.93876477652293" stroke="#006340" stroke-width="1"/><rect x="466.6" y="360.05813506128595" width="13.799999999999999" height="6.391526137574601" fill="#006340"/><line x1="496.5" y1="341.56335520870346" x2="496.5" y2="369.8769416140145" stroke="#006340" stroke-width="1"/><rect x="489.6" y="347.47065245798706" width="13.799999999999999" height="12.587482603298895" fill="#006340"/><line x1="519.5" y1="332.74113871527925" x2="519.5" y2="347.9457949005789" stroke="#006340" stroke-width="1"/><rect x="512.6" y="333.08935653136587" width="13.799999999999999" height="14.381295926621192" fill="#006340"/><line x1="542.5" y1="297.1251977950768" x2="542.5" y2="341.9748429936238" stroke="#006340" stroke-width="1"/><rect x="535.6" y="311.76800119006793" width="13.799999999999999" height="21.32135534129793" fill="#006340"/><line x1="565.5" y1="311.40369642168145" x2="565.5" y2="327.6278276895087" stroke="#A02128" stroke-width="1"/><rect x="558.6" y="311.76800119006793" width="13.799999999999999" height="11.29244716040597" fill="#A02128"/><line x1="588.5" y1="288.4737283929047" x2="588.5" y2="328.5049933205646" stroke="#006340" stroke-width="1"/><rect x="581.6" y="300.8952950051569" width="13.799999999999999" height="22.16515334531698" fill="#006340"/><line x1="611.5" y1="277.3084494273658" x2="611.5" y2="307.5536134640771" stroke="#006340" stroke-width="1"/><rect x="604.6" y="289.60980638292494" width="13.799999999999999" height="11.28548862223198" fill="#006340"/><line x1="634.5" y1="266.7490606850909" x2="634.5" y2="302.9042485058974" stroke="#006340" stroke-width="1"/><rect x="627.6" y="267.22852137601114" width="13.799999999999999" height="22.3812850069138" fill="#006340"/><line x1="657.5" y1="250.3410853378458" x2="657.5" y2="280.0824279869365" stroke="#006340" stroke-width="1"/><rect x="650.6" y="256.2643846289168" width="13.799999999999999" height="10.964136747094358" fill="#006340"/><line x1="680.5" y1="232.68600862162214" x2="680.5" y2="264.8130480886536" stroke="#006340" stroke-width="1"/><rect x="673.6" y="240.96675984966458" width="13.799999999999999" height="15.297624779252203" fill="#006340"/><line x1="703.5" y1="209.78734790502602" x2="703.5" y2="253.19715190482145" stroke="#006340" stroke-width="1"/><rect x="696.6" y="226.02504218770576" width="13.799999999999999" height="14.941717661958819" fill="#006340"/><line x1="726.5" y1="211.84973685627398" x2="726.5" y2="231.82715536850077" stroke="#006340" stroke-width="1"/><rect x="719.6" y="225.76891025432326" width="13.799999999999999" height="1" fill="#006340"/><line x1="749.5" y1="206.53730189086502" x2="749.5" y2="234.93111140971848" stroke="#006340" stroke-width="1"/><rect x="742.6" y="219.92775540742474" width="13.799999999999999" height="5.841154846898519" fill="#006340"/><line x1="772.5" y1="192.38855253353125" x2="772.5" y2="220.71413278224804" stroke="#006340" stroke-width="1"/><rect x="765.6" y="196.40007136650956" width="13.799999999999999" height="23.527684040915176" fill="#006340"/><line x1="795.5" y1="151.4158877436733" x2="795.5" y2="201.91126697824387" stroke="#006340" stroke-width="1"/><rect x="788.6" y="168.73076780952135" width="13.799999999999999" height="27.66930355698821" fill="#006340"/><line x1="818.5" y1="138.5632662957354" x2="818.5" y2="180.94145592715898" stroke="#006340" stroke-width="1"/><rect x="811.6" y="142.81605398066745" width="13.799999999999999" height="25.914713828853905" fill="#006340"/><line x1="841.5" y1="135.39654566862998" x2="841.5" y2="161.42344294172807" stroke="#A02128" stroke-width="1"/><rect x="834.6" y="142.81605398066745" width="13.799999999999999" height="11.426818779530265" fill="#A02128"/><line x1="864.5" y1="142.7837477373231" x2="864.5" y2="168.4603481742795" stroke="#A02128" stroke-width="1"/><rect x="857.6" y="154.2428727601977" width="13.799999999999999" height="4.75272459564934" fill="#A02128"/><line x1="887.5" y1="138.14635896314326" x2="887.5" y2="171.43261269916286" stroke="#006340" stroke-width="1"/><rect x="880.6" y="149.61244982201958" width="13.799999999999999" height="9.383147533827469" fill="#006340"/><line x1="910.5" y1="120.26977572572082" x2="910.5" y2="157.23361086653773" stroke="#006340" stroke-width="1"/><rect x="903.6" y="135.34587630965223" width="13.799999999999999" height="14.266573512367358" fill="#006340"/><line x1="933.5" y1="112.59406705362005" x2="933.5" y2="148.48167478586646" stroke="#006340" stroke-width="1"/><rect x="926.6" y="125.41214952145083" width="13.799999999999999" height="9.933726788201398" fill="#006340"/><line x1="956.5" y1="111.06025342314751" x2="956.5" y2="149.0604021435878" stroke="#A02128" stroke-width="1"/><rect x="949.6" y="125.41214952145083" width="13.799999999999999" height="8.348929355870041" fill="#A02128"/><line x1="979.5" y1="125.83218052744576" x2="979.5" y2="151.85984839744543" stroke="#A02128" stroke-width="1"/><rect x="972.6" y="133.76107887732087" width="13.799999999999999" height="11.695348584114413" fill="#A02128"/><line x1="1002.5" y1="143.44351051752597" x2="1002.5" y2="170.0762994044701" stroke="#A02128" stroke-width="1"/><rect x="995.6" y="145.45642746143528" width="13.799999999999999" height="8.388887951895015" fill="#A02128"/><line x1="1025.5" y1="114.51390189820472" x2="1025.5" y2="166.63526202435287" stroke="#006340" stroke-width="1"/><rect x="1018.6" y="130.273081925881" width="13.799999999999999" height="23.572233487449296" fill="#006340"/><line x1="1048.5" y1="100.30430599236638" x2="1048.5" y2="135.80364227853363" stroke="#006340" stroke-width="1"/><rect x="1041.6" y="108.67046382662522" width="13.799999999999999" height="21.60261809925578" fill="#006340"/><line x1="1071.5" y1="67.577545410462" x2="1071.5" y2="124.55286552864891" stroke="#006340" stroke-width="1"/><rect x="1064.6" y="75.23621687140701" width="13.799999999999999" height="33.434246955218214" fill="#006340"/><line x1="1094.5" y1="52.9203867464397" x2="1094.5" y2="79.73927576202709" stroke="#006340" stroke-width="1"/><rect x="1087.6" y="62.90605228119546" width="13.799999999999999" height="12.330164590211552" fill="#006340"/><line x1="1117.5" y1="54.6939945813059" x2="1117.5" y2="77.01933051456353" stroke="#A02128" stroke-width="1"/><rect x="1110.6" y="62.90605228119546" width="13.799999999999999" height="1" fill="#A02128"/><line x1="1140.5" y1="24" x2="1140.5" y2="67.37262227037445" stroke="#006340" stroke-width="1"/><rect x="1133.6" y="35.918518817820996" width="13.799999999999999" height="27.45084394232265" fill="#006340"/>
</svg>