<svg xmlns="http://www.w3.org/2000/svg" width="1200" height="700">
  <rect width="100%" height="100%" fill="#0d1117"/>
  <line x1="48" y1="24" x2="1152" y2="24" stroke="#21262d" stroke-width="1"/><line x1="48" y1="181" x2="1152" y2="181" stroke="#21262d" stroke-width="1"/><line x1="48" y1="338" x2="1152" y2="338" stroke="#21262d" stroke-width="1"/><line x1="48" y1="495" x2="1152" y2="495" stroke="#21262d" stroke-width="1"/><line x1="48" y1="652" x2="1152" y2="652" stroke="#21262d" stroke-width="1"/>
  <line x1="59.5" y1="638.8857229449487" x2="59.5" y2="651.7034639908533" stroke="#A02128" stroke-width="1"/><rect x="52.6" y="640.8541429808557" width="13.799999999999999" height="2.4731571852728393" fill="#A02128"/><line x1="82.5" y1="634.2044598985294" x2="82.5" y2="652" stroke="#006340" stroke-width="1"/><rect x="75.6" y="641.1597172395846" width="13.799999999999999" height="2.1675829265440143" fill="#006340"/><line x1="105.5" y1="615.8231278897716" x2="105.5" y2="642.4696285995827" stroke="#006340" stroke-width="1"/><rect x="98.6" y="619.0898786459496" width="13.799999999999999" height="22.069838593634927" fill="#006340"/><line x1="128.5" y1="586.1814594914197" x2="128.5" y2="632.5467404260886" stroke="#006340" stroke-width="1"/><rect x="121.6" y="591.1590629753873" width="13.799999999999999" height="27.93081567056231" fill="#006340"/><line x1="151.5" y1="579.8054515959863" x2="151.5" y2="604.3263411348343" stroke="#A02128" stroke-width="1"/><rect x="144.6" y="591.1590629753873" width="13.799999999999999" height="11.06711552663603" fill="#A02128"/><line x1="174.5" y1="565.3831696055759" x2="174.5" y2="613.022488219835" stroke="#006340" stroke-width="1"/><rect x="167.6" y="576.2077195220965" width="13.799999999999999" height="26.01845897992689" fill="#006340"/><line x1="197.5" y1="575.6939451063753" x2="197.5" y2="586.4006525695977" stroke="#A02128" stroke-width="1"/><rect x="190.6" y="576.2077195220965" width="13.799999999999999" height="6.720846682591059" fill="#A02128"/><line x1="220.5" y1="576.4196806960663" x2="220.5" y2="598.8071234122268" stroke="#A02128" stroke-width="1"/><rect x="213.6" y="582.9285662046875" width="13.799999999999999" height="3.7358407872376347" fill="#A02128"/><line x1="243.5" y1="549.1471717372193" x2="243.5" y2="592.1192396831462" stroke="#006340" stroke-width="1"/><rect x="236.6" y="558.6958892684131" width="13.799999999999999" height="27.968517723512036" fill="#006340"/><line x1="266.5" y1="551.7167146534698" x2="266.5" y2="563.0720813241333" stroke="#006340" stroke-width="1"/><rect x="259.6" y="558.1094565303413" width="13.799999999999999" height="1" fill="#006340"/><line x1="289.5" y1="543.2524455387486" x2="289.5" y2="562.7301353803318" stroke="#006340" stroke-width="1"/><rect x="282.6" y="556.6802782347671" width="13.799999999999999" height="1.429178295574161" fill="#006340"/><line x1="312.5" y1="520.6972809025764" x2="312.5" y2="557.2221588067226" stroke="#006340" stroke-width="1"/><rect x="305.6" y="523.2543896825536" width="13.799999999999999" height="33.425888552213564" fill="#006340"/><line x1="335.5" y1="520.268854515695" x2="335.5" y2="534.6916061466203" stroke="#A02128" stroke-width="1"/><rect x="328.6" y="523.2543896825536" width="13.799999999999999" height="1.991019270491961" fill="#A02128"/><line x1="358.5" y1="490.7578518037906" x2="358.5" y2="536.7721838842843" stroke="#006340" stroke-width="1"/><rect x="351.6" y="498.60148092605857" width="13.799999999999999" height="26.64392802698694" fill="#006340"/><line x1="381.5" y1="458.6238694646248" x2="381.5" y2="502.01513505173784" stroke="#006340" stroke-width="1"/><rect x="374.6" y="474.1172780580929" width="13.799999999999999" height="24.484202867965678" fill="#006340"/><line x1="404.5" y1="470.0621530412783" x2="404.5" y2="490.06419212383634" stroke="#A02128" stroke-width="1"/><rect x="397.6" y="474.1172780580929" width="13.799999999999999" height="4.914026734405809" fill="#A02128"/><line x1="427.5" y1="462.550945825242" x2="427.5" y2="491.09583812260166" stroke="#006340" stroke-width="1"/><rect x="420.6" y="465.32837209981" width="13.799999999999999" height="13.702932692688705" fill="#006340"/><line x1="450.5" y1="457.01539056686545" x2="450.5" y2="472.9338524903685" stroke="#A02128" stroke-width="1"/><rect x="443.6" y="465.32837209981" width="13.799999999999999" height="3.1766903722803477" fill="#A02128"/><line x1="473.5" y1="434.2280853259607" x2="473.5" y2="483.3686499866445" stroke="#006340" stroke-width="1"/><rect x="466.6" y="445.3633737892417" width="13.799999999999999" height="23.141688682848667" fill="#006340"/><line x1="496.5" y1="406.1675363362725" x2="496.5" y2="447.518957722873" stroke="#006340" stroke-width="1"/><rect x="489.6" y="410.47473206339964" width="13.799999999999999" height="34.888641725842035" fill="#006340"/><line x1="519.5" y1="384.3522034293103" x2="519.5" y2="424.2621174442498" stroke="#006340" stroke-width="1"/><rect x="512.6" y="391.99733072434196" width="13.799999999999999" height="18.47740133905768" fill="#006340"/><line x1="542.5" y1="369.11814473283385" x2="542.5" y2="405.21169922559784" stroke="#006340" stroke-width="1"/><rect x="535.6" y="384.03998808935586" width="13.799999999999999" height="7.957342634986105" fill="#006340"/><line x1="565.5" y1="345.24961732021524" x2="565.5" y2="386.96889028467336" stroke="#006340" stroke-width="1"/><rect x="558.6" y="356.9667555698476" width="13.799999999999999" height="27.07323251950828" fill="#006340"/><line x1="588.5" y1="317.9106244318255" x2="588.5" y2="358.5491525977488" stroke="#006340" stroke-width="1"/><rect x="581.6" y="325.7915624639196" width="13.799999999999999" height="31.175193105927974" fill="#006340"/><line x1="611.5" y1="323.158037983134" x2="611.5" y2="347.12894360029793" stroke="#A02128" stroke-width="1"/><rect x="604.6" y="325.7915624639196" width="13.799999999999999" height="10.385407048380785" fill="#A02128"/><line x1="634.5" y1="293.0833329503045" x2="634.5" y2="346.4404946371254" stroke="#006340" stroke-width="1"/><rect x="627.6" y="299.44588415090567" width="13.799999999999999" height="36.73108536139472" fill="#006340"/><line x1="657.5" y1="259.1790760066524" x2="657.5" y2="315.9595915802336" stroke="#006340" stroke-width="1"/><rect x="650.6" y="266.7066197611596" width="13.799999999999999" height="32.7392643897461" fill="#006340"/><line x1="680.5" y1="234.74482517801528" x2="680.5" y2="268.5722764688824" stroke="#006340" stroke-width="1"/><rect x="673.6" y="247.09084876861186" width="13.799999999999999" height="19.61577099254771" fill="#006340"/><line x1="703.5" y1="228.03363543290936" x2="703.5" y2="263.22796062361067" stroke="#006340" stroke-width="1"/><rect x="696.6" y="239.57947606661827" width="13.799999999999999" height="7.511372701993594" fill="#006340"/><line x1="726.5" y1="217.21755879768403" x2="726.5" y2="247.59038823222505" stroke="#006340" stroke-width="1"/><rect x="719.6" y="230.17965626615484" width="13.799999999999999" height="9.399819800463433" fill="#006340"/><line x1="749.5" y1="204.66649591305327" x2="749.5" y2="239.64816951049437" stroke="#006340" stroke-width="1"/><rect x="742.6" y="209.1949572131744" width="13.799999999999999" height="20.98469905298043" fill="#006340"/><line x1="772.5" y1="205.4582805993781" x2="772.5" y2="217.8973904861616" stroke="#A02128" stroke-width="1"/><rect x="765.6" y="209.1949572131744" width="13.799999999999999" height="2.675538977633323" fill="#A02128"/><line x1="795.5" y1="159.27854184438218" x2="795.5" y2="225.15799273801963" stroke="#006340" stroke-width="1"/><rect x="788.6" y="176.27587407412813" width="13.799999999999999" height="35.5946221166796" fill="#006340"/><line x1="818.5" y1="164.56683353091233" x2="818.5" y2="191.12706439431048" stroke="#A02128" stroke-width="1"/><rect x="811.6" y="176.27587407412813" width="13.799999999999999" height="1" fill="#A02128"/><line x1="841.5" y1="174.07039003793386" x2="841.5" y2="188.06769525022418" stroke="#A02128" stroke-width="1"/><rect x="834.6" y="176.55195537102662" width="13.799999999999999" height="10.349970908643456" fill="#A02128"/><line x1="864.5" y1="173.62240269721224" x2="864.5" y2="203.28253843770358" stroke="#A02128" stroke-width="1"/><rect x="857.6" y="186.90192627967008" width="13.799999999999999" height="5.722340417907731" fill="#A02128"/><line x1="887.5" y1="178.5691760796838" x2="887.5" y2="209.62129656133783" stroke="#A02128" stroke-width="1"/><rect x="880.6" y="192.6242666975778" width="13.799999999999999" height="5.72991318943167" fill="#A02128"/><line x1="910.5" y1="187.19723084882395" x2="910.5" y2="212.45472429074084" stroke="#A02128" stroke-width="1"/><rect x="903.6" y="198.35417988700948" width="13.799999999999999" height="7.15180553290827" fill="#A02128"/><line x1="933.5" y1="180.9874298013957" x2="933.5" y2="207.8001185622386" stroke="#006340" stroke-width="1"/><rect x="926.6" y="189.62009875730138" width="13.799999999999999" height="15.885886662616372" fill="#006340"/><line x1="956.5" y1="184.3274495316391" x2="956.5" y2="205.77427396668668" stroke="#A02128" stroke-width="1"/><rect x="949.6" y="189.62009875730138" width="13.799999999999999" height="8.34800504700138" fill="#A02128"/><line x1="979.5" y1="197.75484159770156" x2="979.5" y2="204.78819794163257" stroke="#A02128" stroke-width="1"/><rect x="972.6" y="197.96810380430276" width="13.799999999999999" height="1" fill="#A02128"/><line x1="1002.5" y1="158.14622871805165" x2="1002.5" y2="207.88280959207054" stroke="#006340" stroke-width="1"/><rect x="995.6" y="165.4950618621936" width="13.799999999999999" height="32.906229262944464" fill="#006340"/><line x1="1025.5" y1="150.91020873569232" x2="1025.5" y2="174.51394330700634" stroke="#A02128" stroke-width="1"/><rect x="1018.6" y="165.4950618621936" width="13.799999999999999" height="3.310178226125288" fill="#A02128"/><line x1="1048.5" y1="140.99798655792313" x2="1048.5" y2="176.5530390430045" stroke="#006340" stroke-width="1"/><rect x="1041.6" y="141.66459406071505" width="13.799999999999999" height="27.14064602760385" fill="#006340"/><line x1="1071.5" y1="103.21883503610331" x2="1071.5" y2="152.98763972143905" stroke="#006340" stroke-width="1"/><rect x="1064.6" y="103.33182548425259" width="13.799999999999999" height="38.332768576462456" fill="#006340"/><line x1="1094.5" y1="92.69195935471134" x2="1094.5" y2="114.30814137126038" stroke="#006340" stroke-width="1"/><rect x="1087.6" y="97.99667041072269" width="13.799999999999999" height="5.335155073529904" fill="#006340"/><line x1="1117.5" y1="56.75882656711315" x2="1117.5" y2="110.51475981684314" stroke="#006340" stroke-width="1"/><rect x="1110.6" y="60.54162106930892" width="13.799999999999999" height="37.45504934141377" fill="#006340"/><line x1="1140.5" y1="24" x2="1140.5" y2="75.94858473726254" stroke="#006340" stroke-width="1"/><rect x="1133.6" y="30.91200580437328" width="13.799999999999999" height="29.629615264935637" fill="#006340"/>
</svg>