<svg xmlns="http://www.w3.org/2000/svg" width="1200" height="700">
  <rect width="100%" height="100%" fill="#0d1117"/>
  <line x1="48" y1="24" x2="1152" y2="24" stroke="#21262d" stroke-width="1"/><line x1="48" y1="181" x2="1152" y2="181" stroke="#21262d" stroke-width="1"/><line x1="48" y1="338" x2="1152" y2="338" stroke="#21262d" stroke-width="1"/><line x1="48" y1="495" x2="1152" y2="495" stroke="#21262d" stroke-width="1"/><line x1="48" y1="652" x2="1152" y2="652" stroke="#21262d" stroke-width="1"/>
  <line x1="59.5" y1="611.5252870548736" x2="59.5" y2="652" stroke="#006340" stroke-width="1"/><rect x="52.6" y="619.1888923077018" width="13.799999999999999" height="27.060246443272376" fill="#006340"/><line x1="82.5" y1="606.9679486473747" x2="82.5" y2="626.7638737547836" stroke="#A02128" stroke-width="1"/><rect x="75.6" y="619.1888923077018" width="13.799999999999999" height="5.513895436799089" fill="#A02128"/><line x1="105.5" y1="598.3628338104254" x2="105.5" y2="633.0005766048863" stroke="#006340" stroke-width="1"/><rect x="98.6" y="604.4009632841356" width="13.799999999999999" height="20.30182446036531" fill="#006340"/><line x1="128.5" y1="579.238068513027" x2="128.5" y2="611.2601167450068" stroke="#006340" stroke-width="1"/><rect x="121.6" y="589.6791751584799" width="13.799999999999999" height="14.721788125655735" fill="#006340"/><line x1="151.5" y1="565.5578528023796" x2="151.5" y2="592.0943524199206" stroke="#006340" stroke-width="1"/><rect x="144.6" y="570.9510069533627" width="13.799999999999999" height="18.728168205117186" fill="#006340"/><line x1="174.5" y1="544.5051137351575" x2="174.5" y2="580.7385735208604" stroke="#006340" stroke-width="1"/><rect x="167.6" y="548.7265068811639" width="13.799999999999999" height="22.224500072198794" fill="#006340"/><line x1="197.5" y1="538.1129306479984" x2="197.5" y2="549.4136926226195" stroke="#006340" stroke-width="1"/><rect x="190.6" y="543.3483168192826" width="13.799999999999999" height="5.378190061881355" fill="#006340"/><line x1="220.5" y1="521.5271801996063" x2="220.5" y2="552.3637747014113" stroke="#006340" stroke-width="1"/><rect x="213.6" y="522.8836878604815" width="13.799999999999999" height="20.464628958801086" fill="#006340"/><line x1="243.5" y1="499.39336245390723" x2="243.5" y2="529.2365216525968" stroke="#006340" stroke-width="1"/><rect x="236.6" y="509.23079979874257" width="13.799999999999999" height="13.652888061738906" fill="#006340"/><line x1="266.5" y1="476.7390064548806" x2="266.5" y2="513.6921200059173" stroke="#006340" stroke-width="1"/><rect x="259.6" y="488.7981256917585" width="13.799999999999999" height="20.432674106984052" fill="#006340"/><line x1="289.5" y1="469.01364697434883" x2="289.5" y2="494.5305911687867" stroke="#006340" stroke-width="1"/><rect x="282.6" y="478.78432604114624" width="13.799999999999999" height="10.01379965061227" fill="#006340"/><line x1="312.5" y1="466.0864405050394" x2="312.5" y2="480.63023928600023" stroke="#006340" stroke-width="1"/><rect x="305.6" y="472.4964969814514" width="13.799999999999999" height="6.287829059694843" fill="#006340"/><line x1="335.5" y1="454.7845448673297" x2="335.5" y2="480.0011329986858" stroke="#006340" stroke-width="1"/><rect x="328.6" y="456.5418803283776" width="13.799999999999999" height="15.9546166530738" fill="#006340"/><line x1="358.5" y1="442.8527584780546" x2="358.5" y2="466.0367128543658" stroke="#006340" stroke-width="1"/><rect x="351.6" y="442.88322834943665" width="13.799999999999999" height="13.658651978940952" fill="#006340"/><line x1="381.5" y1="440.0341268761458" x2="381.5" y2="450.47196692169223" stroke="#A02128" stroke-width="1"/><rect x="374.6" y="442.88322834943665" width="13.799999999999999" height="3.9398139796177247" fill="#A02128"/><line x1="404.5" y1="418.1685642433017" x2="404.5" y2="454.93841783226327" stroke="#006340" stroke-width="1"/><rect x="397.6" y="423.32121519347885" width="13.799999999999999" height="23.501827135575525" fill="#006340"/><line x1="427.5" y1="399.73796784353965" x2="427.5" y2="424.44473233868234" stroke="#006340" stroke-width="1"/><rect x="420.6" y="400.925395422974" width="13.799999999999999" height="22.39581977050483" fill="#006340"/><line x1="450.5" y1="365.7575329521143" x2="450.5" y2="411.6919462755224" stroke="#006340" stroke-width="1"/><rect x="443.6" y="371.1667508317249" width="13.799999999999999" height="29.758644591249094" fill="#006340"/><line x1="473.5" y1="361.017810820948" x2="473.5" y2="385.29195674321727" stroke="#A02128" stroke-width="1"/><rect x="466.6" y="371.1667508317249" width="13.799999999999999" height="9.561985446586561" fill="#A02128"/><line x1="496.5" y1="356.4548987527373" x2="496.5" y2="389.0470101914083" stroke="#006340" stroke-width="1"/><rect x="489.6" y="358.24716195191644" width="13.799999999999999" height="22.481574326395048" fill="#006340"/><line x1="519.5" y1="333.9576301039856" x2="519.5" y2="365.8589026976376" stroke="#006340" stroke-width="1"/><rect x="512.6" y="343.0795432441071" width="13.799999999999999" height="15.167618707809368" fill="#006340"/><line x1="542.5" y1="311.4868702257145" x2="542.5" y2="344.02818794187857" stroke="#006340" stroke-width="1"/><rect x="535.6" y="324.8491119777103" width="13.799999999999999" height="18.23043126639675" fill="#006340"/><line x1="565.5" y1="312.5765735943206" x2="565.5" y2="341.610404817488" stroke="#A02128" stroke-width="1"/><rect x="558.6" y="324.8491119777103" width="13.799999999999999" height="5.506759587804311" fill="#A02128"/><line x1="588.5" y1="318.7884739540352" x2="588.5" y2="337.7718233268674" stroke="#006340" stroke-width="1"/><rect x="581.6" y="320.8125819929769" width="13.799999999999999" height="9.54328957253773" fill="#006340"/><line x1="611.5" y1="291.48751254895683" x2="611.5" y2="320.8466683333598" stroke="#006340" stroke-width="1"/><rect x="604.6" y="304.877651072629" width="13.799999999999999" height="15.934930920347881" fill="#006340"/><line x1="634.5" y1="295.41471618446946" x2="634.5" y2="316.1038546930815" stroke="#A02128" stroke-width="1"/><rect x="627.6" y="304.877651072629" width="13.799999999999999" height="7.7781457654947985" fill="#A02128"/><line x1="657.5" y1="278.2794043031135" x2="657.5" y2="320.5033400137714" stroke="#006340" stroke-width="1"/><rect x="650.6" y="285.45503866119896" width="13.799999999999999" height="27.200758176924865" fill="#006340"/><line x1="680.5" y1="267.54931199288046" x2="680.5" y2="288.22643698103275" stroke="#006340" stroke-width="1"/><rect x="673.6" y="276.3663482958702" width="13.799999999999999" height="9.088690365328773" fill="#006340"/><line x1="703.5" y1="242.20325376749457" x2="703.5" y2="283.7258569587717" stroke="#006340" stroke-width="1"/><rect x="696.6" y="247.23091569183674" width="13.799999999999999" height="29.13543260403344" fill="#006340"/><line x1="726.5" y1="224.73567370551513" x2="726.5" y2="251.92670122507155" stroke="#006340" stroke-width="1"/><rect x="719.6" y="228.74412557684758" width="13.799999999999999" height="18.486790114989162" fill="#006340"/><line x1="749.5" y1="194.73922178159165" x2="749.5" y2="232.007723904788" stroke="#006340" stroke-width="1"/><rect x="742.6" y="198.0910833881424" width="13.799999999999999" height="30.65304218870517" fill="#006340"/><line x1="772.5" y1="183.06961888642178" x2="772.5" y2="210.66209273055318" stroke="#006340" stroke-width="1"/><rect x="765.6" y="196.89369781622287" width="13.799999999999999" height="1.1973855719195399" fill="#006340"/><line x1="795.5" y1="183.2843107893035" x2="795.5" y2="213.48254892217318" stroke="#A02128" stroke-width="1"/><rect x="788.6" y="196.89369781622287" width="13.799999999999999" height="9.595679560572705" fill="#A02128"/><line x1="818.5" y1="192.2319987105688" x2="818.5" y2="213.81980869353424" stroke="#006340" stroke-width="1"/><rect x="811.6" y="197.74939562912368" width="13.799999999999999" height="8.73998174767189" fill="#006340"/><line x1="841.5" y1="192.5446799428202" x2="841.5" y2="216.60288762676788" stroke="#A02128" stroke-width="1"/><rect x="834.6" y="197.74939562912368" width="13.799999999999999" height="10.376276463319925" fill="#A02128"/><line x1="864.5" y1="202.75636926073162" x2="864.5" y2="212.00474052176787" stroke="#A02128" stroke-width="1"/><rect x="857.6" y="208.1256720924436" width="13.799999999999999" height="1" fill="#A02128"/><line x1="887.5" y1="202.9223984332766" x2="887.5" y2="217.56022110176076" stroke="#A02128" stroke-width="1"/><rect x="880.6" y="208.67146948757568" width="13.799999999999999" height="3.6156519217020673" fill="#A02128"/><line x1="910.5" y1="173.6784987090868" x2="910.5" y2="217.4351054658227" stroke="#006340" stroke-width="1"/><rect x="903.6" y="182.7259747674301" width="13.799999999999999" height="29.561146641847643" fill="#006340"/><line x1="933.5" y1="169.3571335239065" x2="933.5" y2="201.72457506121714" stroke="#A02128" stroke-width="1"/><rect x="926.6" y="182.7259747674301" width="13.799999999999999" height="7.192919407675504" fill="#A02128"/><line x1="956.5" y1="160.4614459754257" x2="956.5" y2="193.61027891369582" stroke="#006340" stroke-width="1"/><rect x="949.6" y="169.29005889557965" width="13.799999999999999" height="20.62883527952596" fill="#006340"/><line x1="979.5" y1="134.1693694025479" x2="979.5" y2="171.88555793478787" stroke="#006340" stroke-width="1"/><rect x="972.6" y="144.4579669842418" width="13.799999999999999" height="24.83209191133784" fill="#006340"/><line x1="1002.5" y1="103.60633728751827" x2="1002.5" y2="149.53487757561822" stroke="#006340" stroke-width="1"/><rect x="995.6" y="117.76934147506415" width="13.799999999999999" height="26.688625509177655" fill="#006340"/><line x1="1025.5" y1="74.13214576316716" x2="1025.5" y2="125.96547092875244" stroke="#006340" stroke-width="1"/><rect x="1018.6" y="85.93897300847709" width="13.799999999999999" height="31.83036846658706" fill="#006340"/><line x1="1048.5" y1="62.36298313023019" x2="1048.5" y2="91.14891681417566" stroke="#006340" stroke-width="1"/><rect x="1041.6" y="75.46513834732082" width="13.799999999999999" height="10.473834661156275" fill="#006340"/><line x1="1071.5" y1="45.80100321288239" x2="1071.5" y2="79.43505855496858" stroke="#006340" stroke-width="1"/><rect x="1064.6" y="56.19512591889065" width="13.799999999999999" height="19.270012428430164" fill="#006340"/><line x1="1094.5" y1="31.756330773172635" x2="1094.5" y2="59.601462353833085" stroke="#006340" stroke-width="1"/><rect x="1087.6" y="37.57614367831104" width="13.799999999999999" height="18.618982240579612" fill="#006340"/><line x1="1117.5" y1="24" x2="1117.5" y2="51.41272306982671" stroke="#A02128" stroke-width="1"/><rect x="1110.6" y="37.57614367831104" width="13.799999999999999" height="9.769759803200031" fill="#A02128"/><line x1="1140.5" y1="37.61584313025912" x2="1140.5" y2="50.872044607737166" stroke="#A02128" stroke-width="1"/><rect x="1133.6" y="47.34590348151107" width="13.799999999999999" height="1.1666162841390815" fill="#A02128"/>
</svg>