<svg xmlns="http://www.w3.org/2000/svg" width="1200" height="700">
  <rect width="100%" height="100%" fill="#0d1117"/>
  <line x1="48" y1="24" x2="1152" y2="24" stroke="#21262d" stroke-width="1"/><line x1="48" y1="181" x2="1152" y2="181" stroke="#21262d" stroke-width="1"/><line x1="48" y1="338" x2="1152" y2="338" stroke="#21262d" stroke-width="1"/><line x1="48" y1="495" x2="1152" y2="495" stroke="#21262d" stroke-width="1"/><line x1="48" y1="652" x2="1152" y2="652" stroke="#21262d" stroke-width="1"/>
  <line x1="59.5" y1="569.1305092788831" x2="59.5" y2="652" stroke="#006340" stroke-width="1"/><rect x="52.6" y="590.86181939335" width="13.799999999999999" height="28.007462848568707" fill="#006340"/><line x1="82.5" y1="529.9709328314004" x2="82.5" y2="609.8078508692977" stroke="#006340" stroke-width="1"/><rect x="75.6" y="553.1498522732779" width="13.799999999999999" height="37.71196712007202" fill="#006340"/><line x1="105.5" y1="513.1060243329669" x2="105.5" y2="582.3400944787275" stroke="#006340" stroke-width="1"/><rect x="98.6" y="547.8364455127341" width="13.799999999999999" height="5.313406760543785" fill="#006340"/><line x1="128.5" y1="494.982620507722" x2="128.5" y2="565.8773590265935" stroke="#006340" stroke-width="1"/><rect x="121.6" y="525.8772399046567" width="13.799999999999999" height="21.95920560807747" fill="#006340"/><line x1="151.5" y1="448.38832693510636" x2="151.5" y2="543.5458971948108" stroke="#006340" stroke-width="1"/><rect x="144.6" y="482.4706997963792" width="13.799999999999999" height="43.406540108277454" fill="#006340"/><line x1="174.5" y1="444.72544220051617" x2="174.5" y2="516.4199754172616" stroke="#006340" stroke-width="1"/><rect x="167.6" y="460.86699064708836" width="13.799999999999999" height="21.603709149290864" fill="#006340"/><line x1="197.5" y1="418.76209485202514" x2="197.5" y2="478.7271579222049" stroke="#006340" stroke-width="1"/><rect x="190.6" y="447.9937557212545" width="13.799999999999999" height="12.873234925833856" fill="#006340"/><line x1="220.5" y1="445.570011410518" x2="220.5" y2="470.3829302915384" stroke="#A02128" stroke-width="1"/><rect x="213.6" y="447.9937557212545" width="13.799999999999999" height="20.644699826081364" fill="#A02128"/><line x1="243.5" y1="429.2668931235719" x2="243.5" y2="473.1315024663104" stroke="#006340" stroke-width="1"/><rect x="236.6" y="436.31833387743507" width="13.799999999999999" height="32.3201216699008" fill="#006340"/><line x1="266.5" y1="404.57326826440146" x2="266.5" y2="495.06788327969434" stroke="#A02128" stroke-width="1"/><rect x="259.6" y="436.31833387743507" width="13.799999999999999" height="46.70188159575076" fill="#A02128"/><line x1="289.5" y1="456.4223043002098" x2="289.5" y2="531.4428748759651" stroke="#A02128" stroke-width="1"/><rect x="282.6" y="483.02021547318583" width="13.799999999999999" height="33.84010855696596" fill="#A02128"/><line x1="312.5" y1="485.1132708779416" x2="312.5" y2="573.0971393410176" stroke="#A02128" stroke-width="1"/><rect x="305.6" y="516.8603240301518" width="13.799999999999999" height="39.85427001073538" fill="#A02128"/><line x1="335.5" y1="514.9159406593551" x2="335.5" y2="590.4700549357143" stroke="#006340" stroke-width="1"/><rect x="328.6" y="527.3031550148725" width="13.799999999999999" height="29.411439026014705" fill="#006340"/><line x1="358.5" y1="465.49806583793753" x2="358.5" y2="560.9870233197358" stroke="#006340" stroke-width="1"/><rect x="351.6" y="473.54442690860515" width="13.799999999999999" height="53.75872810626731" fill="#006340"/><line x1="381.5" y1="455.8081113738114" x2="381.5" y2="503.9086347446562" stroke="#006340" stroke-width="1"/><rect x="374.6" y="471.1761425853392" width="13.799999999999999" height="2.368284323265925" fill="#006340"/><line x1="404.5" y1="462.6013300606347" x2="404.5" y2="484.21870995091217" stroke="#006340" stroke-width="1"/><rect x="397.6" y="471.0723950905242" width="13.799999999999999" height="1" fill="#006340"/><line x1="427.5" y1="441.37930876240245" x2="427.5" y2="490.9584816527831" stroke="#A02128" stroke-width="1"/><rect x="420.6" y="471.0723950905242" width="13.799999999999999" height="13.663074988450376" fill="#A02128"/><line x1="450.5" y1="427.19901845838524" x2="450.5" y2="501.4175534835317" stroke="#006340" stroke-width="1"/><rect x="443.6" y="448.16275222529" width="13.799999999999999" height="36.572717853684594" fill="#006340"/><line x1="473.5" y1="412.1666762905884" x2="473.5" y2="505.4164429550564" stroke="#A02128" stroke-width="1"/><rect x="466.6" y="448.16275222529" width="13.799999999999999" height="21.45816503734602" fill="#A02128"/><line x1="496.5" y1="438.2561729786552" x2="496.5" y2="495.7458502042788" stroke="#006340" stroke-width="1"/><rect x="489.6" y="467.01239183313857" width="13.799999999999999" height="2.6085254294974334" fill="#006340"/><line x1="519.5" y1="424.9670683618348" x2="519.5" y2="472.2759337479132" stroke="#006340" stroke-width="1"/><rect x="512.6" y="444.4817454036024" width="13.799999999999999" height="22.530646429536148" fill="#006340"/><line x1="542.5" y1="430.23001169212216" x2="542.5" y2="452.0558638281565" stroke="#006340" stroke-width="1"/><rect x="535.6" y="436.4947486352755" width="13.799999999999999" height="7.98699676832689" fill="#006340"/><line x1="565.5" y1="419.62217393215724" x2="565.5" y2="453.2625499217701" stroke="#A02128" stroke-width="1"/><rect x="558.6" y="436.4947486352755" width="13.799999999999999" height="1.0411751487017682" fill="#A02128"/><line x1="588.5" y1="385.85871647993935" x2="588.5" y2="442.6482140037406" stroke="#006340" stroke-width="1"/><rect x="581.6" y="398.86976045748054" width="13.799999999999999" height="38.66616332649676" fill="#006340"/><line x1="611.5" y1="388.28482309495695" x2="611.5" y2="471.54577134782903" stroke="#A02128" stroke-width="1"/><rect x="604.6" y="398.86976045748054" width="13.799999999999999" height="40.68869565131803" fill="#A02128"/><line x1="634.5" y1="420.5359177587326" x2="634.5" y2="457.58348586439786" stroke="#006340" stroke-width="1"/><rect x="627.6" y="432.04843017852806" width="13.799999999999999" height="7.510025930270501" fill="#006340"/><line x1="657.5" y1="373.3807325362384" x2="657.5" y2="446.0857133560088" stroke="#006340" stroke-width="1"/><rect x="650.6" y="381.7296690352338" width="13.799999999999999" height="50.31876114329424" fill="#006340"/><line x1="680.5" y1="327.6914462818213" x2="680.5" y2="404.48262884860173" stroke="#006340" stroke-width="1"/><rect x="673.6" y="343.85667228795984" width="13.799999999999999" height="37.87299674727399" fill="#006340"/><line x1="703.5" y1="283.8026978338907" x2="703.5" y2="350.2078458528267" stroke="#006340" stroke-width="1"/><rect x="696.6" y="294.9079147243264" width="13.799999999999999" height="48.94875756363342" fill="#006340"/><line x1="726.5" y1="233.11021786842377" x2="726.5" y2="304.56225380826106" stroke="#006340" stroke-width="1"/><rect x="719.6" y="240.39989574374368" width="13.799999999999999" height="54.50801898058273" fill="#006340"/><line x1="749.5" y1="224.3771465119035" x2="749.5" y2="264.26771073377193" stroke="#A02128" stroke-width="1"/><rect x="742.6" y="240.39989574374368" width="13.799999999999999" height="16.148599365399605" fill="#A02128"/><line x1="772.5" y1="219.20443834387908" x2="772.5" y2="262.4467184546904" stroke="#006340" stroke-width="1"/><rect x="765.6" y="226.39395886008714" width="13.799999999999999" height="30.15453624905615" fill="#006340"/><line x1="795.5" y1="179.03020506846542" x2="795.5" y2="238.8620209790505" stroke="#006340" stroke-width="1"/><rect x="788.6" y="201.00831970654292" width="13.799999999999999" height="25.38563915354422" fill="#006340"/><line x1="818.5" y1="188.55558209870497" x2="818.5" y2="234.52952723380946" stroke="#A02128" stroke-width="1"/><rect x="811.6" y="201.00831970654292" width="13.799999999999999" height="27.997031370388754" fill="#A02128"/><line x1="841.5" y1="139.66150116105177" x2="841.5" y2="255.46121744566017" stroke="#006340" stroke-width="1"/><rect x="834.6" y="173.76544573446563" width="13.799999999999999" height="55.239905342466045" fill="#006340"/><line x1="864.5" y1="150.03977268706637" x2="864.5" y2="189.4678634874458" stroke="#A02128" stroke-width="1"/><rect x="857.6" y="173.76544573446563" width="13.799999999999999" height="4.259137588176031" fill="#A02128"/><line x1="887.5" y1="98.69626619387896" x2="887.5" y2="200.5386327201437" stroke="#006340" stroke-width="1"/><rect x="880.6" y="129.18422060669104" width="13.799999999999999" height="48.84036271595062" fill="#006340"/><line x1="910.5" y1="71.80021331349974" x2="910.5" y2="163.64741757801278" stroke="#006340" stroke-width="1"/><rect x="903.6" y="108.54524770998944" width="13.799999999999999" height="20.638972896701603" fill="#006340"/><line x1="933.5" y1="80.00627690181955" x2="933.5" y2="133.9960354041972" stroke="#006340" stroke-width="1"/><rect x="926.6" y="89.89228123002829" width="13.799999999999999" height="18.65296647996115" fill="#006340"/><line x1="956.5" y1="31.910047757026064" x2="956.5" y2="117.1372790685682" stroke="#006340" stroke-width="1"/><rect x="949.6" y="60.94208473770914" width="13.799999999999999" height="28.95019649231915" fill="#006340"/><line x1="979.5" y1="49.157743493408475" x2="979.5" y2="82.67522455941935" stroke="#A02128" stroke-width="1"/><rect x="972.6" y="60.94208473770914" width="13.799999999999999" height="12.339423324293762" fill="#A02128"/><line x1="1002.5" y1="49.480415263786426" x2="1002.5" y2="143.7984085785896" stroke="#A02128" stroke-width="1"/><rect x="995.6" y="73.2815080620029" width="13.799999999999999" height="49.0154371678924" fill="#A02128"/><line x1="1025.5" y1="98.89297312199017" x2="1025.5" y2="138.08276783268377" stroke="#A02128" stroke-width="1"/><rect x="1018.6" y="122.2969452298953" width="13.799999999999999" height="1.656800931710336" fill="#A02128"/><line x1="1048.5" y1="92.02206243183582" x2="1048.5" y2="132.99608795165648" stroke="#006340" stroke-width="1"/><rect x="1041.6" y="109.19585686830294" width="13.799999999999999" height="14.757889293302696" fill="#006340"/><line x1="1071.5" y1="42.400189982383154" x2="1071.5" y2="138.77874643165626" stroke="#006340" stroke-width="1"/><rect x="1064.6" y="58.70450172897495" width="13.799999999999999" height="50.49135513932799" fill="#006340"/><line x1="1094.5" y1="38.45080901374047" x2="1094.5" y2="85.62645120436093" stroke="#006340" stroke-width="1"/><rect x="1087.6" y="52.911511200715495" width="13.799999999999999" height="5.792990528259452" fill="#006340"/><line x1="1117.5" y1="24" x2="1117.5" y2="73.04939282780174" stroke="#A02128" stroke-width="1"/><rect x="1110.6" y="52.911511200715495" width="13.799999999999999" height="9.663533375911925" fill="#A02128"/><line x1="1140.5" y1="54.928303790879795" x2="1140.5" y2="77.60364036595342" stroke="#A02128" stroke-width="1"/><rect x="1133.6" y="62.57504457662742" width="13.799999999999999" height="10.264760447713343" fill="#A02128"/>
</svg>