<svg xmlns="http://www.w3.org/2000/svg" width="1200" height="700">
  <rect width="100%" height="100%" fill="#0d1117"/>
  <line x1="48" y1="24" x2="1152" y2="24" stroke="#21262d" stroke-width="1"/><line x1="48" y1="181" x2="1152" y2="181" stroke="#21262d" stroke-width="1"/><line x1="48" y1="338" x2="1152" y2="338" stroke="#21262d" stroke-width="1"/><line x1="48" y1="495" x2="1152" y2="495" stroke="#21262d" stroke-width="1"/><line x1="48" y1="652" x2="1152" y2="652" stroke="#21262d" stroke-width="1"/>
  <line x1="59.5" y1="626.8785115169723" x2="59.5" y2="647.0787191803857" stroke="#006340" stroke-width="1"/><rect x="52.6" y="635.4716328116509" width="13.799999999999999" height="1" fill="#006340"/><line x1="82.5" y1="627.442524264571" x2="82.5" y2="648.1502158773602" stroke="#A02128" stroke-width="1"/><rect x="75.6" y="635.4716328116509" width="13.799999999999999" height="3.3853343290500106" fill="#A02128"/><line x1="105.5" y1="609.0193552762746" x2="105.5" y2="652" stroke="#006340" stroke-width="1"/><rect x="98.6" y="619.3201441277246" width="13.799999999999999" height="19.536823012976356" fill="#006340"/><line x1="128.5" y1="604.8173891619393" x2="128.5" y2="630.8675290448269" stroke="#006340" stroke-width="1"/><rect x="121.6" y="615.0677604262711" width="13.799999999999999" height="4.252383701453482" fill="#006340"/><line x1="151.5" y1="612.0196774706258" x2="151.5" y2="619.8054612844534" stroke="#006340" stroke-width="1"/><rect x="144.6" y="612.9129494694498" width="13.799999999999999" height="2.1548109568212794" fill="#006340"/><line x1="174.5" y1="603.5063016936667" x2="174.5" y2="629.3188501167522" stroke="#A02128" stroke-width="1"/><rect x="167.6" y="612.9129494694498" width="13.799999999999999" height="9.060657626155262" fill="#A02128"/><line x1="197.5" y1="597.2151736949368" x2="197.5" y2="628.3663880652787" stroke="#006340" stroke-width="1"/><rect x="190.6" y="606.5314663747262" width="13.799999999999999" height="15.44214072087891" fill="#006340"/><line x1="220.5" y1="580.0055647401673" x2="220.5" y2="617.9604659932494" stroke="#006340" stroke-width="1"/><rect x="213.6" y="584.6091464971147" width="13.799999999999999" height="21.92231987761147" fill="#006340"/><line x1="243.5" y1="557.5704465053954" x2="243.5" y2="596.5389228556983" stroke="#006340" stroke-width="1"/><rect x="236.6" y="561.1159915731411" width="13.799999999999999" height="23.493154923973634" fill="#006340"/><line x1="266.5" y1="534.2366484018382" x2="266.5" y2="565.4851237123758" stroke="#006340" stroke-width="1"/><rect x="259.6" y="539.672486904183" width="13.799999999999999" height="21.4435046689581" fill="#006340"/><line x1="289.5" y1="529.800338164996" x2="289.5" y2="544.5483631698918" stroke="#006340" stroke-width="1"/><rect x="282.6" y="538.5359802602884" width="13.799999999999999" height="1.1365066438945632" fill="#006340"/><line x1="312.5" y1="520.6089971532247" x2="312.5" y2="540.8081890719911" stroke="#006340" stroke-width="1"/><rect x="305.6" y="527.9577578503053" width="13.799999999999999" height="10.578222409983141" fill="#006340"/><line x1="335.5" y1="505.94444741180007" x2="335.5" y2="529.785920838734" stroke="#006340" stroke-width="1"/><rect x="328.6" y="514.8204383561136" width="13.799999999999999" height="13.137319494191615" fill="#006340"/><line x1="358.5" y1="486.3764282511916" x2="358.5" y2="528.373855366498" stroke="#006340" stroke-width="1"/><rect x="351.6" y="496.64667783765526" width="13.799999999999999" height="18.17376051845838" fill="#006340"/><line x1="381.5" y1="466.0822686088121" x2="381.5" y2="508.04720433989615" stroke="#006340" stroke-width="1"/><rect x="374.6" y="476.3220185245008" width="13.799999999999999" height="20.324659313154484" fill="#006340"/><line x1="404.5" y1="451.749441618368" x2="404.5" y2="481.56011862365506" stroke="#006340" stroke-width="1"/><rect x="397.6" y="458.6687770121221" width="13.799999999999999" height="17.653241512378656" fill="#006340"/><line x1="427.5" y1="437.07190701953607" x2="427.5" y2="465.3752346201532" stroke="#006340" stroke-width="1"/><rect x="420.6" y="445.07028029485537" width="13.799999999999999" height="13.598496717266755" fill="#006340"/><line x1="450.5" y1="411.4019278397951" x2="450.5" y2="454.22333270744775" stroke="#006340" stroke-width="1"/><rect x="443.6" y="413.6979333057177" width="13.799999999999999" height="31.372346989137668" fill="#006340"/><line x1="473.5" y1="392.72182172552203" x2="473.5" y2="423.2293051412035" stroke="#006340" stroke-width="1"/><rect x="466.6" y="406.05079742028386" width="13.799999999999999" height="7.6471358854338405" fill="#006340"/><line x1="496.5" y1="371.6086038669354" x2="496.5" y2="417.04991308018634" stroke="#006340" stroke-width="1"/><rect x="489.6" y="374.1794463729189" width="13.799999999999999" height="31.871351047364954" fill="#006340"/><line x1="519.5" y1="351.55280536950863" x2="519.5" y2="384.01662318251505" stroke="#006340" stroke-width="1"/><rect x="512.6" y="364.6180329184917" width="13.799999999999999" height="9.561413454427225" fill="#006340"/><line x1="542.5" y1="352.363349857171" x2="542.5" y2="387.83621042070706" stroke="#A02128" stroke-width="1"/><rect x="535.6" y="364.6180329184917" width="13.799999999999999" height="10.443763710149312" fill="#A02128"/><line x1="565.5" y1="364.9590190347806" x2="565.5" y2="385.73081439813984" stroke="#A02128" stroke-width="1"/><rect x="558.6" y="375.061796628641" width="13.799999999999999" height="2.774907594016156" fill="#A02128"/><line x1="588.5" y1="363.35258186052175" x2="588.5" y2="381.6454369872609" stroke="#006340" stroke-width="1"/><rect x="581.6" y="371.9101064041944" width="13.799999999999999" height="5.926597818462767" fill="#006340"/><line x1="611.5" y1="344.8864548003962" x2="611.5" y2="384.9196061442202" stroke="#006340" stroke-width="1"/><rect x="604.6" y="350.36540223683073" width="13.799999999999999" height="21.544704167363648" fill="#006340"/><line x1="634.5" y1="322.60054119792096" x2="634.5" y2="352.2628559489512" stroke="#006340" stroke-width="1"/><rect x="627.6" y="333.1175527215207" width="13.799999999999999" height="17.24784951531001" fill="#006340"/><line x1="657.5" y1="300.1036507126653" x2="657.5" y2="339.604156750225" stroke="#006340" stroke-width="1"/><rect x="650.6" y="311.72904388791915" width="13.799999999999999" height="21.388508833601577" fill="#006340"/><line x1="680.5" y1="276.1477608832012" x2="680.5" y2="322.12912121427416" stroke="#006340" stroke-width="1"/><rect x="673.6" y="287.10041344989054" width="13.799999999999999" height="24.62863043802861" fill="#006340"/><line x1="703.5" y1="242.0349035175741" x2="703.5" y2="296.3881600572969" stroke="#006340" stroke-width="1"/><rect x="696.6" y="256.73382607682396" width="13.799999999999999" height="30.36658737306658" fill="#006340"/><line x1="726.5" y1="229.04623359231306" x2="726.5" y2="261.51829829878" stroke="#006340" stroke-width="1"/><rect x="719.6" y="229.57329287367207" width="13.799999999999999" height="27.160533203151886" fill="#006340"/><line x1="749.5" y1="186.00024144973207" x2="749.5" y2="244.3665345169298" stroke="#006340" stroke-width="1"/><rect x="742.6" y="199.66521393072202" width="13.799999999999999" height="29.908078942950056" fill="#006340"/><line x1="772.5" y1="180.21701577719864" x2="772.5" y2="213.29077277794704" stroke="#006340" stroke-width="1"/><rect x="765.6" y="192.49757497232588" width="13.799999999999999" height="7.1676389583961395" fill="#006340"/><line x1="795.5" y1="183.57912845620302" x2="795.5" y2="216.75016271571383" stroke="#A02128" stroke-width="1"/><rect x="788.6" y="192.49757497232588" width="13.799999999999999" height="11.271904099588312" fill="#A02128"/><line x1="818.5" y1="179.42002676720273" x2="818.5" y2="217.50619369883492" stroke="#006340" stroke-width="1"/><rect x="811.6" y="184.0392338316732" width="13.799999999999999" height="19.730245240241004" fill="#006340"/><line x1="841.5" y1="176.32096674037876" x2="841.5" y2="195.71147104741812" stroke="#006340" stroke-width="1"/><rect x="834.6" y="176.97163133812762" width="13.799999999999999" height="7.067602493545564" fill="#006340"/><line x1="864.5" y1="174.99599323829926" x2="864.5" y2="181.21018347401434" stroke="#A02128" stroke-width="1"/><rect x="857.6" y="176.97163133812762" width="13.799999999999999" height="3.9510570020768796" fill="#A02128"/><line x1="887.5" y1="155.60795404038151" x2="887.5" y2="187.83344725774845" stroke="#006340" stroke-width="1"/><rect x="880.6" y="167.52804135107147" width="13.799999999999999" height="13.394646989133037" fill="#006340"/><line x1="910.5" y1="163.2321760937067" x2="910.5" y2="174.95774411866205" stroke="#A02128" stroke-width="1"/><rect x="903.6" y="167.52804135107147" width="13.799999999999999" height="2.1128653745868746" fill="#A02128"/><line x1="933.5" y1="134.64234290108288" x2="933.5" y2="175.32293167120037" stroke="#006340" stroke-width="1"/><rect x="926.6" y="140.2478769680883" width="13.799999999999999" height="29.393029757570048" fill="#006340"/><line x1="956.5" y1="95.5602091674632" x2="956.5" y2="146.300944499073" stroke="#006340" stroke-width="1"/><rect x="949.6" y="110.28557859298576" width="13.799999999999999" height="29.962298375102534" fill="#006340"/><line x1="979.5" y1="105.59488199319003" x2="979.5" y2="133.07086405691632" stroke="#A02128" stroke-width="1"/><rect x="972.6" y="110.28557859298576" width="13.799999999999999" height="8.15803444828532" fill="#A02128"/><line x1="1002.5" y1="112.73184844796106" x2="1002.5" y2="119.76197170185208" stroke="#006340" stroke-width="1"/><rect x="995.6" y="115.68296105788181" width="13.799999999999999" height="2.760651983389266" fill="#006340"/><line x1="1025.5" y1="92.24749330590362" x2="1025.5" y2="125.8290062052032" stroke="#006340" stroke-width="1"/><rect x="1018.6" y="98.65090584861798" width="13.799999999999999" height="17.03205520926383" fill="#006340"/><line x1="1048.5" y1="87.92610285628336" x2="1048.5" y2="106.81056660732565" stroke="#006340" stroke-width="1"/><rect x="1041.6" y="90.1712450775276" width="13.799999999999999" height="8.47966077109038" fill="#006340"/><line x1="1071.5" y1="72.99938376542548" x2="1071.5" y2="96.4141620863694" stroke="#006340" stroke-width="1"/><rect x="1064.6" y="86.63419976348814" width="13.799999999999999" height="3.53704531403946" fill="#006340"/><line x1="1094.5" y1="39.83901103580183" x2="1094.5" y2="94.84328579178327" stroke="#006340" stroke-width="1"/><rect x="1087.6" y="53.76516554632178" width="13.799999999999999" height="32.86903421716636" fill="#006340"/><line x1="1117.5" y1="39.4824106706252" x2="1117.5" y2="57.47465043338559" stroke="#006340" stroke-width="1"/><rect x="1110.6" y="48.091767478249835" width="13.799999999999999" height="5.673398068071947" fill="#006340"/><line x1="1140.5" y1="24" x2="1140.5" y2="55.55312158467257" stroke="#006340" stroke-width="1"/><rect x="1133.6" y="31.35345234109559" width="13.799999999999999" height="16.738315137154245" fill="#006340"/>
</svg>