<svg xmlns="http://www.w3.org/2000/svg" width="1200" height="700">
  <rect width="100%" height="100%" fill="#0d1117"/>
  <line x1="48" y1="24" x2="1152" y2="24" stroke="#21262d" stroke-width="1"/><line x1="48" y1="181" x2="1152" y2="181" stroke="#21262d" stroke-width="1"/><line x1="48" y1="338" x2="1152" y2="338" stroke="#21262d" stroke-width="1"/><line x1="48" y1="495" x2="1152" y2="495" stroke="#21262d" stroke-width="1"/><line x1="48" y1="652" x2="1152" y2="652" stroke="#21262d" stroke-width="1"/>
  <line x1="59.5" y1="602.9448573129755" x2="59.5" y2="632.9119784930632" stroke="#A02128" stroke-width="1"/><rect x="52.6" y="620.031699481337" width="13.799999999999999" height="3.600581650641857" fill="#A02128"/><line x1="82.5" y1="615.1001459726575" x2="82.5" y2="641.2232564339944" stroke="#006340" stroke-width="1"/><rect x="75.6" y="621.8785669462621" width="13.799999999999999" height="1.7537141857167171" fill="#006340"/><line x1="105.5" y1="615.664683641607" x2="105.5" y2="647.9835543489073" stroke="#A02128" stroke-width="1"/><rect x="98.6" y="621.8785669462621" width="13.799999999999999" height="13.473515349975173" fill="#A02128"/><line x1="128.5" y1="601.203322121565" x2="128.5" y2="652" stroke="#006340" stroke-width="1"/><rect x="121.6" y="608.2420977565026" width="13.799999999999999" height="27.109984539734683" fill="#006340"/><line x1="151.5" y1="591.362696833052" x2="151.5" y2="631.7718053588375" stroke="#A02128" stroke-width="1"/><rect x="144.6" y="608.2420977565026" width="13.799999999999999" height="11.521929919543595" fill="#A02128"/><line x1="174.5" y1="612.6408087604499" x2="174.5" y2="637.2244192854356" stroke="#006340" stroke-width="1"/><rect x="167.6" y="617.2672195336457" width="13.799999999999999" height="2.496808142400482" fill="#006340"/><line x1="197.5" y1="574.3825574855077" x2="197.5" y2="619.8862193386256" stroke="#006340" stroke-width="1"/><rect x="190.6" y="579.3492308723296" width="13.799999999999999" height="37.917988661316144" fill="#006340"/><line x1="220.5" y1="536.894767794606" x2="220.5" y2="580.8963339442736" stroke="#006340" stroke-width="1"/><rect x="213.6" y="537.6167188302605" width="13.799999999999999" height="41.73251204206906" fill="#006340"/><line x1="243.5" y1="519.4523563055335" x2="243.5" y2="547.074750868622" stroke="#006340" stroke-width="1"/><rect x="236.6" y="525.594813785744" width="13.799999999999999" height="12.02190504451653" fill="#006340"/><line x1="266.5" y1="510.7266565353211" x2="266.5" y2="536.2691643507974" stroke="#A02128" stroke-width="1"/><rect x="259.6" y="525.594813785744" width="13.799999999999999" height="9.094929170499427" fill="#A02128"/><line x1="289.5" y1="493.13954869152707" x2="289.5" y2="539.3422221767587" stroke="#006340" stroke-width="1"/><rect x="282.6" y="513.3073604243104" width="13.799999999999999" height="21.38238253193299" fill="#006340"/><line x1="312.5" y1="508.59122349572635" x2="312.5" y2="531.3520979756308" stroke="#A02128" stroke-width="1"/><rect x="305.6" y="513.3073604243104" width="13.799999999999999" height="1" fill="#A02128"/><line x1="335.5" y1="488.06504543657337" x2="335.5" y2="523.486279555769" stroke="#006340" stroke-width="1"/><rect x="328.6" y="491.05338288628604" width="13.799999999999999" height="23.234165239097138" fill="#006340"/><line x1="358.5" y1="478.86737804284496" x2="358.5" y2="491.83751739015065" stroke="#006340" stroke-width="1"/><rect x="351.6" y="486.540876754445" width="13.799999999999999" height="4.512506131841064" fill="#006340"/><line x1="381.5" y1="477.09760453236515" x2="381.5" y2="503.23510216701516" stroke="#006340" stroke-width="1"/><rect x="374.6" y="481.36265692098846" width="13.799999999999999" height="5.178219833456524" fill="#006340"/><line x1="404.5" y1="435.9908790708608" x2="404.5" y2="500.5230658143023" stroke="#006340" stroke-width="1"/><rect x="397.6" y="442.576869793226" width="13.799999999999999" height="38.78578712776243" fill="#006340"/><line x1="427.5" y1="432.24718248040125" x2="427.5" y2="455.9021592236925" stroke="#006340" stroke-width="1"/><rect x="420.6" y="436.44783737567684" width="13.799999999999999" height="6.129032417549183" fill="#006340"/><line x1="450.5" y1="414.020282556237" x2="450.5" y2="440.96646410735934" stroke="#006340" stroke-width="1"/><rect x="443.6" y="431.4708979949475" width="13.799999999999999" height="4.976939380729334" fill="#006340"/><line x1="473.5" y1="417.52307535158195" x2="473.5" y2="435.2992472804349" stroke="#006340" stroke-width="1"/><rect x="466.6" y="430.82674696632216" width="13.799999999999999" height="1" fill="#006340"/><line x1="496.5" y1="414.2831295854228" x2="496.5" y2="438.3215651651383" stroke="#006340" stroke-width="1"/><rect x="489.6" y="424.76344330468817" width="13.799999999999999" height="6.063303661633995" fill="#006340"/><line x1="519.5" y1="423.65141886084444" x2="519.5" y2="430.51358079592023" stroke="#A02128" stroke-width="1"/><rect x="512.6" y="424.76344330468817" width="13.799999999999999" height="3.6017685673420488" fill="#A02128"/><line x1="542.5" y1="383.3203530952523" x2="542.5" y2="445.6719566229166" stroke="#006340" stroke-width="1"/><rect x="535.6" y="398.7936533494916" width="13.799999999999999" height="29.571558522538623" fill="#006340"/><line x1="565.5" y1="366.62754947978675" x2="565.5" y2="414.71061867603555" stroke="#006340" stroke-width="1"/><rect x="558.6" y="382.13372787946435" width="13.799999999999999" height="16.659925470027247" fill="#006340"/><line x1="588.5" y1="344.7060295841667" x2="588.5" y2="402.1814879851954" stroke="#006340" stroke-width="1"/><rect x="581.6" y="358.52507947012396" width="13.799999999999999" height="23.60864840934039" fill="#006340"/><line x1="611.5" y1="315.3939933709444" x2="611.5" y2="369.8714633489089" stroke="#006340" stroke-width="1"/><rect x="604.6" y="322.89742475490954" width="13.799999999999999" height="35.62765471521442" fill="#006340"/><line x1="634.5" y1="318.92053547654353" x2="634.5" y2="331.46452392188456" stroke="#A02128" stroke-width="1"/><rect x="627.6" y="322.89742475490954" width="13.799999999999999" height="6.477280241499727" fill="#A02128"/><line x1="657.5" y1="326.550074733605" x2="657.5" y2="340.5490648800836" stroke="#A02128" stroke-width="1"/><rect x="650.6" y="329.37470499640926" width="13.799999999999999" height="1.379288640673451" fill="#A02128"/><line x1="680.5" y1="301.54766875711374" x2="680.5" y2="347.7832997580328" stroke="#006340" stroke-width="1"/><rect x="673.6" y="311.81675213240806" width="13.799999999999999" height="18.93724150467466" fill="#006340"/><line x1="703.5" y1="263.7326516620242" x2="703.5" y2="324.9356017350168" stroke="#006340" stroke-width="1"/><rect x="696.6" y="277.13607590532416" width="13.799999999999999" height="34.68067622708389" fill="#006340"/><line x1="726.5" y1="257.28877225108465" x2="726.5" y2="280.4882096239199" stroke="#006340" stroke-width="1"/><rect x="719.6" y="264.50439266479043" width="13.799999999999999" height="12.631683240533732" fill="#006340"/><line x1="749.5" y1="238.1920319932205" x2="749.5" y2="267.1072753152289" stroke="#006340" stroke-width="1"/><rect x="742.6" y="252.2675808308934" width="13.799999999999999" height="12.236811833897036" fill="#006340"/><line x1="772.5" y1="214.04667450948023" x2="772.5" y2="272.34884347719526" stroke="#006340" stroke-width="1"/><rect x="765.6" y="219.97401019097242" width="13.799999999999999" height="32.29357063992097" fill="#006340"/><line x1="795.5" y1="219.30486810370564" x2="795.5" y2="239.6995510528451" stroke="#A02128" stroke-width="1"/><rect x="788.6" y="219.97401019097242" width="13.799999999999999" height="9.543343232572113" fill="#A02128"/><line x1="818.5" y1="183.10640968068685" x2="818.5" y2="250.8496166056662" stroke="#006340" stroke-width="1"/><rect x="811.6" y="196.41726675419562" width="13.799999999999999" height="33.10008666934891" fill="#006340"/><line x1="841.5" y1="161.37159775872016" x2="841.5" y2="196.69335858140954" stroke="#006340" stroke-width="1"/><rect x="834.6" y="171.97047899258325" width="13.799999999999999" height="24.44678776161237" fill="#006340"/><line x1="864.5" y1="155.10000006305245" x2="864.5" y2="193.15899624225193" stroke="#006340" stroke-width="1"/><rect x="857.6" y="161.2168499535606" width="13.799999999999999" height="10.753629039022655" fill="#006340"/><line x1="887.5" y1="118.40770288261581" x2="887.5" y2="163.29992957436053" stroke="#006340" stroke-width="1"/><rect x="880.6" y="129.053269139853" width="13.799999999999999" height="32.1635808137076" fill="#006340"/><line x1="910.5" y1="127.72338708470932" x2="910.5" y2="152.86701421844083" stroke="#A02128" stroke-width="1"/><rect x="903.6" y="129.053269139853" width="13.799999999999999" height="2.843482555583819" fill="#A02128"/><line x1="933.5" y1="130.6078087894898" x2="933.5" y2="137.86271908212223" stroke="#A02128" stroke-width="1"/><rect x="926.6" y="131.89675169543682" width="13.799999999999999" height="1" fill="#A02128"/><line x1="956.5" y1="102.94208171151467" x2="956.5" y2="148.4391277982275" stroke="#006340" stroke-width="1"/><rect x="949.6" y="111.35646882259778" width="13.799999999999999" height="20.869304999982432" fill="#006340"/><line x1="979.5" y1="95.3713704164661" x2="979.5" y2="135.69901197900197" stroke="#A02128" stroke-width="1"/><rect x="972.6" y="111.35646882259778" width="13.799999999999999" height="9.907702504698705" fill="#A02128"/><line x1="1002.5" y1="99.73617343494868" x2="1002.5" y2="140.52996150472552" stroke="#006340" stroke-width="1"/><rect x="995.6" y="104.77813292152211" width="13.799999999999999" height="16.486038405774366" fill="#006340"/><line x1="1025.5" y1="84.15729071001908" x2="1025.5" y2="121.53511025858313" stroke="#006340" stroke-width="1"/><rect x="1018.6" y="86.8662366752701" width="13.799999999999999" height="17.911896246252013" fill="#006340"/><line x1="1048.5" y1="71.94122078165447" x2="1048.5" y2="108.23246740237596" stroke="#A02128" stroke-width="1"/><rect x="1041.6" y="86.8662366752701" width="13.799999999999999" height="1.659804672868404" fill="#A02128"/><line x1="1071.5" y1="24" x2="1071.5" y2="106.21136328852629" stroke="#006340" stroke-width="1"/><rect x="1064.6" y="46.09414374102175" width="13.799999999999999" height="42.43189760711675" fill="#006340"/><line x1="1094.5" y1="28.12415848067917" x2="1094.5" y2="61.452834022065076" stroke="#A02128" stroke-width="1"/><rect x="1087.6" y="46.09414374102175" width="13.799999999999999" height="13.225545887104317" fill="#A02128"/><line x1="1117.5" y1="54.683188822047896" x2="1117.5" y2="82.5063445115278" stroke="#A02128" stroke-width="1"/><rect x="1110.6" y="59.31968962812607" width="13.799999999999999" height="7.865744930144842" fill="#A02128"/><line x1="1140.5" y1="44.365874955690515" x2="1140.5" y2="82.0751426732237" stroke="#006340" stroke-width="1"/><rect x="1133.6" y="57.36157983782755" width="13.799999999999999" height="9.823854720443364" fill="#006340"/>
</svg>