<svg xmlns="http://www.w3.org/2000/svg" width="1200" height="700">
  <rect width="100%" height="100%" fill="#0d1117"/>
  <line x1="48" y1="24" x2="1152" y2="24" stroke="#21262d" stroke-width="1"/><line x1="48" y1="181" x2="1152" y2="181" stroke="#21262d" stroke-width="1"/><line x1="48" y1="338" x2="1152" y2="338" stroke="#21262d" stroke-width="1"/><line x1="48" y1="495" x2="1152" y2="495" stroke="#21262d" stroke-width="1"/><line x1="48" y1="652" x2="1152" y2="652" stroke="#21262d" stroke-width="1"/>
  <line x1="59.5" y1="274.18289120124905" x2="59.5" y2="453.7026793841079" stroke="#A02128" stroke-width="1"/><rect x="52.6" y="319.1320821299527" width="13.799999999999999" height="58.53324207462106" fill="#A02128"/><line x1="82.5" y1="309.01641923824894" x2="82.5" y2="476.11404987289336" stroke="#A02128" stroke-width="1"/><rect x="75.6" y="377.6653242045738" width="13.799999999999999" height="57.72284130311681" fill="#A02128"/><line x1="105.5" y1="367.19738242662845" x2="105.5" y2="467.28253477605176" stroke="#A02128" stroke-width="1"/><rect x="98.6" y="435.3881655076906" width="13.799999999999999" height="15.614514315268707" fill="#A02128"/><line x1="128.5" y1="409.2128928466998" x2="128.5" y2="532.5527391014031" stroke="#A02128" stroke-width="1"/><rect x="121.6" y="451.0026798229593" width="13.799999999999999" height="54.42848206741837" fill="#A02128"/><line x1="151.5" y1="497.9683102534618" x2="151.5" y2="650.6745827956373" stroke="#A02128" stroke-width="1"/><rect x="144.6" y="505.43116189037767" width="13.799999999999999" height="106.32395152567665" fill="#A02128"/><line x1="174.5" y1="538.8116837977855" x2="174.5" y2="652" stroke="#006340" stroke-width="1"/><rect x="167.6" y="555.0689665558212" width="13.799999999999999" height="56.686146860233066" fill="#006340"/><line x1="197.5" y1="459.92849114503815" x2="197.5" y2="560.4253706545626" stroke="#006340" stroke-width="1"/><rect x="190.6" y="514.5377699842431" width="13.799999999999999" height="40.53119657157811" fill="#006340"/><line x1="220.5" y1="361.72778852046383" x2="220.5" y2="557.8859043880235" stroke="#006340" stroke-width="1"/><rect x="213.6" y="407.482141793442" width="13.799999999999999" height="107.05562819080114" fill="#006340"/><line x1="243.5" y1="349.42560394383537" x2="243.5" y2="426.2656116163861" stroke="#006340" stroke-width="1"/><rect x="236.6" y="362.26512588878444" width="13.799999999999999" height="45.21701590465756" fill="#006340"/><line x1="266.5" y1="260.0637344071552" x2="266.5" y2="406.4624980268804" stroke="#006340" stroke-width="1"/><rect x="259.6" y="282.4141325114922" width="13.799999999999999" height="79.85099337729224" fill="#006340"/><line x1="289.5" y1="235.50644356166765" x2="289.5" y2="344.1331126415933" stroke="#006340" stroke-width="1"/><rect x="282.6" y="262.79262831017894" width="13.799999999999999" height="19.621504201313257" fill="#006340"/><line x1="312.5" y1="233.13471981064777" x2="312.5" y2="399.5817087608959" stroke="#A02128" stroke-width="1"/><rect x="305.6" y="262.79262831017894" width="13.799999999999999" height="57.67728937536151" fill="#A02128"/><line x1="335.5" y1="235.40229187620383" x2="335.5" y2="335.89152214211964" stroke="#006340" stroke-width="1"/><rect x="328.6" y="313.3264695816764" width="13.799999999999999" height="7.143448103864046" fill="#006340"/><line x1="358.5" y1="264.86271596178227" x2="358.5" y2="350.7903536699972" stroke="#006340" stroke-width="1"/><rect x="351.6" y="286.64198354980346" width="13.799999999999999" height="26.68448603187295" fill="#006340"/><line x1="381.5" y1="209.9106394251009" x2="381.5" y2="358.7090654872916" stroke="#006340" stroke-width="1"/><rect x="374.6" y="248.58116575218764" width="13.799999999999999" height="38.06081779761581" fill="#006340"/><line x1="404.5" y1="98.721610534418" x2="404.5" y2="276.9721374502789" stroke="#006340" stroke-width="1"/><rect x="397.6" y="168.11946855811647" width="13.799999999999999" height="80.46169719407118" fill="#006340"/><line x1="427.5" y1="140.03723976129112" x2="427.5" y2="306.594449391324" stroke="#A02128" stroke-width="1"/><rect x="420.6" y="168.11946855811647" width="13.799999999999999" height="93.22895649547718" fill="#A02128"/><line x1="450.5" y1="188.83910719117233" x2="450.5" y2="358.5135018599229" stroke="#A02128" stroke-width="1"/><rect x="443.6" y="261.34842505359364" width="13.799999999999999" height="45.998625799580054" fill="#A02128"/><line x1="473.5" y1="256.9598455377088" x2="473.5" y2="374.2946886423477" stroke="#006340" stroke-width="1"/><rect x="466.6" y="278.9541932374823" width="13.799999999999999" height="28.392857615691412" fill="#006340"/><line x1="496.5" y1="239.37546915909996" x2="496.5" y2="373.49349966990127" stroke="#A02128" stroke-width="1"/><rect x="489.6" y="278.9541932374823" width="13.799999999999999" height="42.81942948825912" fill="#A02128"/><line x1="519.5" y1="317.142561290035" x2="519.5" y2="455.12927294979283" stroke="#A02128" stroke-width="1"/><rect x="512.6" y="321.7736227257414" width="13.799999999999999" height="57.28763782987579" fill="#A02128"/><line x1="542.5" y1="300.5215387092973" x2="542.5" y2="454.8934288788542" stroke="#A02128" stroke-width="1"/><rect x="535.6" y="379.0612605556172" width="13.799999999999999" height="32.19391948150445" fill="#A02128"/><line x1="565.5" y1="405.26117133484195" x2="565.5" y2="545.5876548396953" stroke="#A02128" stroke-width="1"/><rect x="558.6" y="411.25518003712165" width="13.799999999999999" height="114.50039301773694" fill="#A02128"/><line x1="588.5" y1="391.4054586032484" x2="588.5" y2="554.3763335011126" stroke="#006340" stroke-width="1"/><rect x="581.6" y="462.3832965006464" width="13.799999999999999" height="63.37227655421219" fill="#006340"/><line x1="611.5" y1="361.33724643319556" x2="611.5" y2="471.9980201781147" stroke="#006340" stroke-width="1"/><rect x="604.6" y="364.02764360699433" width="13.799999999999999" height="98.35565289365206" fill="#006340"/><line x1="634.5" y1="284.86494068098654" x2="634.5" y2="396.1072541990294" stroke="#006340" stroke-width="1"/><rect x="627.6" y="295.585638780257" width="13.799999999999999" height="68.44200482673733" fill="#006340"/><line x1="657.5" y1="255.7489782416294" x2="657.5" y2="407.6432253401556" stroke="#A02128" stroke-width="1"/><rect x="650.6" y="295.585638780257" width="13.799999999999999" height="105.3094027972461" fill="#A02128"/><line x1="680.5" y1="267.2219810398907" x2="680.5" y2="405.28381351012075" stroke="#006340" stroke-width="1"/><rect x="673.6" y="284.04336516683037" width="13.799999999999999" height="116.85167641067272" fill="#006340"/><line x1="703.5" y1="178.58935208017027" x2="703.5" y2="291.50242720318516" stroke="#006340" stroke-width="1"/><rect x="696.6" y="232.38915147021623" width="13.799999999999999" height="51.654213696614136" fill="#006340"/><line x1="726.5" y1="215.58932414215712" x2="726.5" y2="278.68714425881234" stroke="#A02128" stroke-width="1"/><rect x="719.6" y="232.38915147021623" width="13.799999999999999" height="35.81496404354516" fill="#A02128"/><line x1="749.5" y1="208.04622326899158" x2="749.5" y2="429.8827872831348" stroke="#A02128" stroke-width="1"/><rect x="742.6" y="268.2041155137614" width="13.799999999999999" height="98.00630709860667" fill="#A02128"/><line x1="772.5" y1="323.39215364674084" x2="772.5" y2="491.922443404693" stroke="#A02128" stroke-width="1"/><rect x="765.6" y="366.21042261236806" width="13.799999999999999" height="118.66537435142442" fill="#A02128"/><line x1="795.5" y1="413.4900134498843" x2="795.5" y2="580.1164402986434" stroke="#A02128" stroke-width="1"/><rect x="788.6" y="484.8757969637925" width="13.799999999999999" height="85.51842983740403" fill="#A02128"/><line x1="818.5" y1="525.3974018452616" x2="818.5" y2="577.9518567133032" stroke="#006340" stroke-width="1"/><rect x="811.6" y="556.5758362756146" width="13.799999999999999" height="13.81839052558189" fill="#006340"/><line x1="841.5" y1="490.5867584888848" x2="841.5" y2="585.8463377478506" stroke="#006340" stroke-width="1"/><rect x="834.6" y="507.247996151638" width="13.799999999999999" height="49.327840123976614" fill="#006340"/><line x1="864.5" y1="369.71302153613425" x2="864.5" y2="551.5785478133123" stroke="#006340" stroke-width="1"/><rect x="857.6" y="397.56728859781276" width="13.799999999999999" height="109.68070755382524" fill="#006340"/><line x1="887.5" y1="373.4649854476426" x2="887.5" y2="471.41122077874144" stroke="#006340" stroke-width="1"/><rect x="880.6" y="375.20259463449463" width="13.799999999999999" height="22.364693963318132" fill="#006340"/><line x1="910.5" y1="235.1778648908737" x2="910.5" y2="440.5378938812177" stroke="#006340" stroke-width="1"/><rect x="903.6" y="290.3186016975403" width="13.799999999999999" height="84.88399293695431" fill="#006340"/><line x1="933.5" y1="118.22546623831477" x2="933.5" y2="351.8780963805522" stroke="#006340" stroke-width="1"/><rect x="926.6" y="198.14041118856045" width="13.799999999999999" height="92.17819050897987" fill="#006340"/><line x1="956.5" y1="48.58092216100988" x2="956.5" y2="242.52340089273162" stroke="#006340" stroke-width="1"/><rect x="949.6" y="85.84648325886042" width="13.799999999999999" height="112.29392792970003" fill="#006340"/><line x1="979.5" y1="24" x2="979.5" y2="200.4418300433855" stroke="#A02128" stroke-width="1"/><rect x="972.6" y="85.84648325886042" width="13.799999999999999" height="60.679108839556136" fill="#A02128"/><line x1="1002.5" y1="96.2238134614496" x2="1002.5" y2="329.35638697279484" stroke="#A02128" stroke-width="1"/><rect x="995.6" y="146.52559209841655" width="13.799999999999999" height="111.78741635603632" fill="#A02128"/><line x1="1025.5" y1="140.69541452162196" x2="1025.5" y2="276.0944316808974" stroke="#006340" stroke-width="1"/><rect x="1018.6" y="152.2493451196819" width="13.799999999999999" height="106.06366333477098" fill="#006340"/><line x1="1048.5" y1="141.58820425258915" x2="1048.5" y2="285.2878732822577" stroke="#A02128" stroke-width="1"/><rect x="1041.6" y="152.2493451196819" width="13.799999999999999" height="83.16308285671005" fill="#A02128"/><line x1="1071.5" y1="209.51163143711608" x2="1071.5" y2="241.42797549613533" stroke="#006340" stroke-width="1"/><rect x="1064.6" y="217.76043542625848" width="13.799999999999999" height="17.651992550133457" fill="#006340"/><line x1="1094.5" y1="144.6045441530992" x2="1094.5" y2="283.0848490096236" stroke="#A02128" stroke-width="1"/><rect x="1087.6" y="217.76043542625848" width="13.799999999999999" height="37.22949239171635" fill="#A02128"/><line x1="1117.5" y1="172.06824966970476" x2="1117.5" y2="293.35456340906586" stroke="#006340" stroke-width="1"/><rect x="1110.6" y="242.94955621966562" width="13.799999999999999" height="12.040371598309207" fill="#006340"/><line x1="1140.5" y1="145.16589777944625" x2="1140.5" y2="289.35276933016644" stroke="#006340" stroke-width="1"/><rect x="1133.6" y="212.7075195175509" width="13.799999999999999" height="30.242036702114717" fill="#006340"/>
</svg>