<svg xmlns="http://www.w3.org/2000/svg" width="1200" height="700">
  <rect width="100%" height="100%" fill="#0d1117"/>
  <line x1="48" y1="24" x2="1152" y2="24" stroke="#21262d" stroke-width="1"/><line x1="48" y1="181" x2="1152" y2="181" stroke="#21262d" stroke-width="1"/><line x1="48" y1="338" x2="1152" y2="338" stroke="#21262d" stroke-width="1"/><line x1="48" y1="495" x2="1152" y2="495" stroke="#21262d" stroke-width="1"/><line x1="48" y1="652" x2="1152" y2="652" stroke="#21262d" stroke-width="1"/>
  <line x1="59.5" y1="56.70795149562116" x2="59.5" y2="108.01988740946604" stroke="#A02128" stroke-width="1"/><rect x="52.6" y="85.83981893403268" width="13.799999999999999" height="16.834456224587598" fill="#A02128"/><line x1="82.5" y1="73.20578320576624" x2="82.5" y2="160.97622270066063" stroke="#A02128" stroke-width="1"/><rect x="75.6" y="102.67427515862028" width="13.799999999999999" height="34.556098041187056" fill="#A02128"/><line x1="105.5" y1="74.89402929844573" x2="105.5" y2="157.89655643930342" stroke="#006340" stroke-width="1"/><rect x="98.6" y="111.72288968246767" width="13.799999999999999" height="25.507483517339665" fill="#006340"/><line x1="128.5" y1="78.72433108876851" x2="128.5" y2="112.09845676394423" stroke="#006340" stroke-width="1"/><rect x="121.6" y="80.79732773532544" width="13.799999999999999" height="30.925561947142228" fill="#006340"/><line x1="151.5" y1="43.30870066463524" x2="151.5" y2="118.86933216578052" stroke="#006340" stroke-width="1"/><rect x="144.6" y="57.71374995854194" width="13.799999999999999" height="23.0835777767835" fill="#006340"/><line x1="174.5" y1="24" x2="174.5" y2="125.32556983242011" stroke="#A02128" stroke-width="1"/><rect x="167.6" y="57.71374995854194" width="13.799999999999999" height="51.600727977677934" fill="#A02128"/><line x1="197.5" y1="65.87616692685538" x2="197.5" y2="124.8575459825189" stroke="#006340" stroke-width="1"/><rect x="190.6" y="94.02431333955712" width="13.799999999999999" height="15.290164596662748" fill="#006340"/><line x1="220.5" y1="42.700549244995386" x2="220.5" y2="118.56066335997048" stroke="#006340" stroke-width="1"/><rect x="213.6" y="51.626300006591464" width="13.799999999999999" height="42.39801333296566" fill="#006340"/><line x1="243.5" y1="42.41235810691887" x2="243.5" y2="117.07301605581858" stroke="#A02128" stroke-width="1"/><rect x="236.6" y="51.626300006591464" width="13.799999999999999" height="32.6654141489563" fill="#A02128"/><line x1="266.5" y1="78.55627593730935" x2="266.5" y2="111.88649187121143" stroke="#A02128" stroke-width="1"/><rect x="259.6" y="84.29171415554777" width="13.799999999999999" height="15.373733614305593" fill="#A02128"/><line x1="289.5" y1="96.17358873350088" x2="289.5" y2="131.58905928505112" stroke="#006340" stroke-width="1"/><rect x="282.6" y="98.2184334031922" width="13.799999999999999" height="1.4470143666611648" fill="#006340"/><line x1="312.5" y1="91.65191925808722" x2="312.5" y2="120.66041420383249" stroke="#A02128" stroke-width="1"/><rect x="305.6" y="98.2184334031922" width="13.799999999999999" height="20.350005300416797" fill="#A02128"/><line x1="335.5" y1="109.26588603155187" x2="335.5" y2="193.77455842949047" stroke="#A02128" stroke-width="1"/><rect x="328.6" y="118.56843870360899" width="13.799999999999999" height="51.107165955761616" fill="#A02128"/><line x1="358.5" y1="134.08255406709304" x2="358.5" y2="206.80034167734289" stroke="#A02128" stroke-width="1"/><rect x="351.6" y="169.6756046593706" width="13.799999999999999" height="23.180511346672688" fill="#A02128"/><line x1="381.5" y1="172.7373247146079" x2="381.5" y2="262.65082081788876" stroke="#A02128" stroke-width="1"/><rect x="374.6" y="192.8561160060433" width="13.799999999999999" height="53.46096337050818" fill="#A02128"/><line x1="404.5" y1="212.771926295929" x2="404.5" y2="298.1940764290911" stroke="#A02128" stroke-width="1"/><rect x="397.6" y="246.31707937655148" width="13.799999999999999" height="50.044022844339054" fill="#A02128"/><line x1="427.5" y1="259.4065895591639" x2="427.5" y2="305.27652106365343" stroke="#006340" stroke-width="1"/><rect x="420.6" y="260.2387262345058" width="13.799999999999999" height="36.122375986384725" fill="#006340"/><line x1="450.5" y1="236.45243132176108" x2="450.5" y2="283.9399913598699" stroke="#A02128" stroke-width="1"/><rect x="443.6" y="260.2387262345058" width="13.799999999999999" height="4.195322564481216" fill="#A02128"/><line x1="473.5" y1="249.12440419517964" x2="473.5" y2="309.8070839807644" stroke="#A02128" stroke-width="1"/><rect x="466.6" y="264.434048798987" width="13.799999999999999" height="36.4422170684777" fill="#A02128"/><line x1="496.5" y1="263.1219358304518" x2="496.5" y2="311.32468371783654" stroke="#006340" stroke-width="1"/><rect x="489.6" y="283.2175312468821" width="13.799999999999999" height="17.658734620582607" fill="#006340"/><line x1="519.5" y1="246.28985948158407" x2="519.5" y2="294.4393058990504" stroke="#006340" stroke-width="1"/><rect x="512.6" y="251.04199645219478" width="13.799999999999999" height="32.17553479468734" fill="#006340"/><line x1="542.5" y1="244.53151606756347" x2="542.5" y2="289.27247700621996" stroke="#A02128" stroke-width="1"/><rect x="535.6" y="251.04199645219478" width="13.799999999999999" height="5.537662609935012" fill="#A02128"/><line x1="565.5" y1="252.72144982496332" x2="565.5" y2="297.42024212312185" stroke="#A02128" stroke-width="1"/><rect x="558.6" y="256.5796590621298" width="13.799999999999999" height="26.49138572946049" fill="#A02128"/><line x1="588.5" y1="215.83777288509526" x2="588.5" y2="311.3820743267943" stroke="#006340" stroke-width="1"/><rect x="581.6" y="231.45096602567634" width="13.799999999999999" height="51.620078765913945" fill="#006340"/><line x1="611.5" y1="176.60242199815679" x2="611.5" y2="252.24435739015615" stroke="#006340" stroke-width="1"/><rect x="604.6" y="198.58224698393377" width="13.799999999999999" height="32.868719041742565" fill="#006340"/><line x1="634.5" y1="177.2308316121988" x2="634.5" y2="226.1669767301678" stroke="#006340" stroke-width="1"/><rect x="627.6" y="188.8327541892479" width="13.799999999999999" height="9.749492794685864" fill="#006340"/><line x1="657.5" y1="159.10077686100516" x2="657.5" y2="227.94766302272262" stroke="#A02128" stroke-width="1"/><rect x="650.6" y="188.8327541892479" width="13.799999999999999" height="38.8379404939742" fill="#A02128"/><line x1="680.5" y1="205.00730044340446" x2="680.5" y2="296.60822250386286" stroke="#A02128" stroke-width="1"/><rect x="673.6" y="227.6706946832221" width="13.799999999999999" height="39.38121476600344" fill="#A02128"/><line x1="703.5" y1="250.20253626391275" x2="703.5" y2="275.6974768021798" stroke="#006340" stroke-width="1"/><rect x="696.6" y="266.6935068391475" width="13.799999999999999" height="1" fill="#006340"/><line x1="726.5" y1="237.651824041289" x2="726.5" y2="338.8834082983662" stroke="#A02128" stroke-width="1"/><rect x="719.6" y="266.6935068391475" width="13.799999999999999" height="52.45272710923774" fill="#A02128"/><line x1="749.5" y1="296.0489049998058" x2="749.5" y2="336.87066087333017" stroke="#A02128" stroke-width="1"/><rect x="742.6" y="319.14623394838526" width="13.799999999999999" height="9.476707736180686" fill="#A02128"/><line x1="772.5" y1="292.7135521574795" x2="772.5" y2="358.75295702217016" stroke="#A02128" stroke-width="1"/><rect x="765.6" y="328.62294168456594" width="13.799999999999999" height="25.344201508844037" fill="#A02128"/><line x1="795.5" y1="325.5681729937648" x2="795.5" y2="368.38813180490234" stroke="#A02128" stroke-width="1"/><rect x="788.6" y="353.96714319341" width="13.799999999999999" height="12.233846840803551" fill="#A02128"/><line x1="818.5" y1="349.34780613545536" x2="818.5" y2="396.4850249512475" stroke="#A02128" stroke-width="1"/><rect x="811.6" y="366.20099003421353" width="13.799999999999999" height="15.845267740595602" fill="#A02128"/><line x1="841.5" y1="378.93347593269755" x2="841.5" y2="426.46049571585" stroke="#A02128" stroke-width="1"/><rect x="834.6" y="382.04625777480913" width="13.799999999999999" height="38.265762291528574" fill="#A02128"/><line x1="864.5" y1="391.6682968698673" x2="864.5" y2="478.85303154582346" stroke="#A02128" stroke-width="1"/><rect x="857.6" y="420.3120200663377" width="13.799999999999999" height="36.71680472148927" fill="#A02128"/><line x1="887.5" y1="422.2906527755305" x2="887.5" y2="464.7388744459612" stroke="#006340" stroke-width="1"/><rect x="880.6" y="453.96281938312205" width="13.799999999999999" height="3.0660054047049243" fill="#006340"/><line x1="910.5" y1="425.1164495554576" x2="910.5" y2="488.5510931717981" stroke="#A02128" stroke-width="1"/><rect x="903.6" y="453.96281938312205" width="13.799999999999999" height="4.155343592512452" fill="#A02128"/><line x1="933.5" y1="437.7035854051312" x2="933.5" y2="533.1466597788383" stroke="#A02128" stroke-width="1"/><rect x="926.6" y="458.1181629756345" width="13.799999999999999" height="54.068943583410146" fill="#A02128"/><line x1="956.5" y1="503.502083761347" x2="956.5" y2="561.2291839222576" stroke="#A02128" stroke-width="1"/><rect x="949.6" y="512.1871065590447" width="13.799999999999999" height="22.73838866060578" fill="#A02128"/><line x1="979.5" y1="520.6162523166926" x2="979.5" y2="575.2616113015938" stroke="#A02128" stroke-width="1"/><rect x="972.6" y="534.9254952196504" width="13.799999999999999" height="3.184064586548061" fill="#A02128"/><line x1="1002.5" y1="508.8520989869971" x2="1002.5" y2="607.1361786030541" stroke="#A02128" stroke-width="1"/><rect x="995.6" y="538.1095598061985" width="13.799999999999999" height="36.62655175843099" fill="#A02128"/><line x1="1025.5" y1="550.5288378455496" x2="1025.5" y2="622.5431067077863" stroke="#A02128" stroke-width="1"/><rect x="1018.6" y="574.7361115646295" width="13.799999999999999" height="45.44346478174009" fill="#A02128"/><line x1="1048.5" y1="619.8053362783955" x2="1048.5" y2="645.0103302521895" stroke="#A02128" stroke-width="1"/><rect x="1041.6" y="620.1795763463696" width="13.799999999999999" height="6.42589485059932" fill="#A02128"/><line x1="1071.5" y1="616.7625449268356" x2="1071.5" y2="652" stroke="#006340" stroke-width="1"/><rect x="1064.6" y="625.1364772953062" width="13.799999999999999" height="1.4689939016626568" fill="#006340"/><line x1="1094.5" y1="548.4411564215256" x2="1094.5" y2="641.1105262710672" stroke="#006340" stroke-width="1"/><rect x="1087.6" y="583.3441468750759" width="13.799999999999999" height="41.792330420230314" fill="#006340"/><line x1="1117.5" y1="520.7937787365861" x2="1117.5" y2="593.2667281111839" stroke="#006340" stroke-width="1"/><rect x="1110.6" y="539.5124044309728" width="13.799999999999999" height="43.831742444103156" fill="#006340"/><line x1="1140.5" y1="508.0534804414124" x2="1140.5" y2="615.5543031051969" stroke="#A02128" stroke-width="1"/><rect x="1133.6" y="539.5124044309728" width="13.799999999999999" height="51.172601126842096" fill="#A02128"/>
</svg>