<svg xmlns="http://www.w3.org/2000/svg" width="1200" height="700">
  <rect width="100%" height="100%" fill="#0d1117"/>
  <line x1="48" y1="24" x2="1152" y2="24" stroke="#21262d" stroke-width="1"/><line x1="48" y1="181" x2="1152" y2="181" stroke="#21262d" stroke-width="1"/><line x1="48" y1="338" x2="1152" y2="338" stroke="#21262d" stroke-width="1"/><line x1="48" y1="495" x2="1152" y2="495" stroke="#21262d" stroke-width="1"/><line x1="48" y1="652" x2="1152" y2="652" stroke="#21262d" stroke-width="1"/>
  <line x1="59.5" y1="617.6185672371604" x2="59.5" y2="643.4594823807467" stroke="#006340" stroke-width="1"/><rect x="52.6" y="630.8264483730444" width="13.799999999999999" height="1.8639631893008755" fill="#006340"/><line x1="82.5" y1="625.9807201340569" x2="82.5" y2="634.975583608291" stroke="#A02128" stroke-width="1"/><rect x="75.6" y="630.8264483730444" width="13.799999999999999" height="3.588030222800171" fill="#A02128"/><line x1="105.5" y1="605.5181043510655" x2="105.5" y2="648.3566121413801" stroke="#006340" stroke-width="1"/><rect x="98.6" y="620.3776095279742" width="13.799999999999999" height="14.036869067870384" fill="#006340"/><line x1="128.5" y1="617.1877758450062" x2="128.5" y2="627.8537753742077" stroke="#A02128" stroke-width="1"/><rect x="121.6" y="620.3776095279742" width="13.799999999999999" height="1" fill="#A02128"/><line x1="151.5" y1="617.0975328841287" x2="151.5" y2="634.2307612946692" stroke="#A02128" stroke-width="1"/><rect x="144.6" y="620.6743244769598" width="13.799999999999999" height="6.0978275891835665" fill="#A02128"/><line x1="174.5" y1="612.4752688060141" x2="174.5" y2="630.8748955622921" stroke="#006340" stroke-width="1"/><rect x="167.6" y="624.9495621705114" width="13.799999999999999" height="1.8225898956319497" fill="#006340"/><line x1="197.5" y1="619.3806021012863" x2="197.5" y2="649.0051482638466" stroke="#A02128" stroke-width="1"/><rect x="190.6" y="624.9495621705114" width="13.799999999999999" height="12.727122994233014" fill="#A02128"/><line x1="220.5" y1="607.2219432271033" x2="220.5" y2="652" stroke="#006340" stroke-width="1"/><rect x="213.6" y="617.5164658940795" width="13.799999999999999" height="20.160219270664925" fill="#006340"/><line x1="243.5" y1="606.0409139178354" x2="243.5" y2="620.5696283712603" stroke="#006340" stroke-width="1"/><rect x="236.6" y="608.1955646021133" width="13.799999999999999" height="9.320901291966152" fill="#006340"/><line x1="266.5" y1="595.0257288462251" x2="266.5" y2="621.6289702586638" stroke="#A02128" stroke-width="1"/><rect x="259.6" y="608.1955646021133" width="13.799999999999999" height="6.0286455643687304" fill="#A02128"/><line x1="289.5" y1="601.8831724710316" x2="289.5" y2="625.6756783365073" stroke="#006340" stroke-width="1"/><rect x="282.6" y="605.378611197699" width="13.799999999999999" height="8.845598968783065" fill="#006340"/><line x1="312.5" y1="603.5380146353195" x2="312.5" y2="626.7993768466904" stroke="#A02128" stroke-width="1"/><rect x="305.6" y="605.378611197699" width="13.799999999999999" height="18.834759591623424" fill="#A02128"/><line x1="335.5" y1="586.6081402293238" x2="335.5" y2="632.546922442327" stroke="#006340" stroke-width="1"/><rect x="328.6" y="600.4114019499547" width="13.799999999999999" height="23.80196883936776" fill="#006340"/><line x1="358.5" y1="580.3047223202242" x2="358.5" y2="605.7356776548472" stroke="#006340" stroke-width="1"/><rect x="351.6" y="589.828854018264" width="13.799999999999999" height="10.58254793169067" fill="#006340"/><line x1="381.5" y1="584.7399288438584" x2="381.5" y2="611.9586046231328" stroke="#A02128" stroke-width="1"/><rect x="374.6" y="589.828854018264" width="13.799999999999999" height="13.205110038456723" fill="#A02128"/><line x1="404.5" y1="564.7396731010891" x2="404.5" y2="615.6833395600455" stroke="#006340" stroke-width="1"/><rect x="397.6" y="577.6065399760654" width="13.799999999999999" height="25.427424080655328" fill="#006340"/><line x1="427.5" y1="555.4050930356409" x2="427.5" y2="588.8681043593057" stroke="#006340" stroke-width="1"/><rect x="420.6" y="555.5520914309088" width="13.799999999999999" height="22.05444854515656" fill="#006340"/><line x1="450.5" y1="542.9487256825408" x2="450.5" y2="575.2906015074594" stroke="#A02128" stroke-width="1"/><rect x="443.6" y="555.5520914309088" width="13.799999999999999" height="17.848668944130623" fill="#A02128"/><line x1="473.5" y1="555.0498578326195" x2="473.5" y2="584.3298377931355" stroke="#006340" stroke-width="1"/><rect x="466.6" y="559.2002372169707" width="13.799999999999999" height="14.20052315806879" fill="#006340"/><line x1="496.5" y1="542.1031097028554" x2="496.5" y2="561.8279304363848" stroke="#006340" stroke-width="1"/><rect x="489.6" y="551.1046525955201" width="13.799999999999999" height="8.095584621450598" fill="#006340"/><line x1="519.5" y1="539.7287900404992" x2="519.5" y2="557.8360102767836" stroke="#006340" stroke-width="1"/><rect x="512.6" y="546.0274673874869" width="13.799999999999999" height="5.077185208033143" fill="#006340"/><line x1="542.5" y1="535.9695340216284" x2="542.5" y2="549.1470145970412" stroke="#006340" stroke-width="1"/><rect x="535.6" y="538.715460499759" width="13.799999999999999" height="7.312006887727875" fill="#006340"/><line x1="565.5" y1="533.7130566049337" x2="565.5" y2="566.9246083840329" stroke="#A02128" stroke-width="1"/><rect x="558.6" y="538.715460499759" width="13.799999999999999" height="14.228271665403781" fill="#A02128"/><line x1="588.5" y1="549.0331892674146" x2="588.5" y2="559.5635020152807" stroke="#A02128" stroke-width="1"/><rect x="581.6" y="552.9437321651628" width="13.799999999999999" height="5.367278770605708" fill="#A02128"/><line x1="611.5" y1="556.4950819947155" x2="611.5" y2="570.8837829936163" stroke="#A02128" stroke-width="1"/><rect x="604.6" y="558.3110109357685" width="13.799999999999999" height="8.791322008589077" fill="#A02128"/><line x1="634.5" y1="560.6838414389322" x2="634.5" y2="575.1769992149798" stroke="#006340" stroke-width="1"/><rect x="627.6" y="562.6928604041542" width="13.799999999999999" height="4.40947254020341" fill="#006340"/><line x1="657.5" y1="552.6804929211355" x2="657.5" y2="592.8302669005462" stroke="#A02128" stroke-width="1"/><rect x="650.6" y="562.6928604041542" width="13.799999999999999" height="15.171840131528825" fill="#A02128"/><line x1="680.5" y1="554.0601574814098" x2="680.5" y2="588.7024112911488" stroke="#006340" stroke-width="1"/><rect x="673.6" y="562.9208584308952" width="13.799999999999999" height="14.943842104787791" fill="#006340"/><line x1="703.5" y1="549.2548798520402" x2="703.5" y2="570.8914677689941" stroke="#006340" stroke-width="1"/><rect x="696.6" y="549.8659029563905" width="13.799999999999999" height="13.054955474504709" fill="#006340"/><line x1="726.5" y1="542.6542247723269" x2="726.5" y2="581.4128533136937" stroke="#A02128" stroke-width="1"/><rect x="719.6" y="549.8659029563905" width="13.799999999999999" height="16.855652025367135" fill="#A02128"/><line x1="749.5" y1="554.6316934303788" x2="749.5" y2="580.9014144027259" stroke="#006340" stroke-width="1"/><rect x="742.6" y="558.7317066164155" width="13.799999999999999" height="7.989848365342141" fill="#006340"/><line x1="772.5" y1="524.5443357955679" x2="772.5" y2="569.1398851854876" stroke="#006340" stroke-width="1"/><rect x="765.6" y="536.8245249566862" width="13.799999999999999" height="21.907181659729304" fill="#006340"/><line x1="795.5" y1="532.7376103086241" x2="795.5" y2="562.9390987112358" stroke="#A02128" stroke-width="1"/><rect x="788.6" y="536.8245249566862" width="13.799999999999999" height="18.155120052687607" fill="#A02128"/><line x1="818.5" y1="517.7975088154122" x2="818.5" y2="558.892592365953" stroke="#006340" stroke-width="1"/><rect x="811.6" y="531.8343399362296" width="13.799999999999999" height="23.145305073144186" fill="#006340"/><line x1="841.5" y1="487.1973006082253" x2="841.5" y2="541.6801710825031" stroke="#006340" stroke-width="1"/><rect x="834.6" y="494.32531154570285" width="13.799999999999999" height="37.509028390526794" fill="#006340"/><line x1="864.5" y1="464.69126135293544" x2="864.5" y2="507.43030637771216" stroke="#006340" stroke-width="1"/><rect x="857.6" y="471.8981072009315" width="13.799999999999999" height="22.427204344771326" fill="#006340"/><line x1="887.5" y1="400.16296476153036" x2="887.5" y2="488.29586682134754" stroke="#006340" stroke-width="1"/><rect x="880.6" y="414.5332249364428" width="13.799999999999999" height="57.3648822644887" fill="#006340"/><line x1="910.5" y1="383.6529619570737" x2="910.5" y2="430.52750121684403" stroke="#006340" stroke-width="1"/><rect x="903.6" y="399.53330181582044" width="13.799999999999999" height="14.999923120622384" fill="#006340"/><line x1="933.5" y1="332.5566759263314" x2="933.5" y2="399.66736307612337" stroke="#006340" stroke-width="1"/><rect x="926.6" y="348.5815861744827" width="13.799999999999999" height="50.95171564133773" fill="#006340"/><line x1="956.5" y1="322.506497658553" x2="956.5" y2="364.0256019112094" stroke="#006340" stroke-width="1"/><rect x="949.6" y="323.69344171734286" width="13.799999999999999" height="24.888144457139845" fill="#006340"/><line x1="979.5" y1="310.0856407570433" x2="979.5" y2="324.5538683706007" stroke="#006340" stroke-width="1"/><rect x="972.6" y="310.3283835140848" width="13.799999999999999" height="13.365058203258059" fill="#006340"/><line x1="1002.5" y1="242.5477174936335" x2="1002.5" y2="311.42489917736225" stroke="#006340" stroke-width="1"/><rect x="995.6" y="253.3432005358752" width="13.799999999999999" height="56.98518297820959" fill="#006340"/><line x1="1025.5" y1="216.5949267548409" x2="1025.5" y2="268.2013184951578" stroke="#006340" stroke-width="1"/><rect x="1018.6" y="217.93098831201587" width="13.799999999999999" height="35.41221222385934" fill="#006340"/><line x1="1048.5" y1="172.11833658758644" x2="1048.5" y2="223.09046157237577" stroke="#006340" stroke-width="1"/><rect x="1041.6" y="182.46869846488784" width="13.799999999999999" height="35.462289847128034" fill="#006340"/><line x1="1071.5" y1="151.27142158891894" x2="1071.5" y2="199.83472857388261" stroke="#006340" stroke-width="1"/><rect x="1064.6" y="162.38627329559296" width="13.799999999999999" height="20.08242516929488" fill="#006340"/><line x1="1094.5" y1="142.4629149407404" x2="1094.5" y2="168.75882515852146" stroke="#006340" stroke-width="1"/><rect x="1087.6" y="152.76122990337916" width="13.799999999999999" height="9.625043392213797" fill="#006340"/><line x1="1117.5" y1="90.98210834489203" x2="1117.5" y2="162.0608810481409" stroke="#006340" stroke-width="1"/><rect x="1110.6" y="97.68287368157098" width="13.799999999999999" height="55.07835622180818" fill="#006340"/><line x1="1140.5" y1="24" x2="1140.5" y2="108.7671538433708" stroke="#006340" stroke-width="1"/><rect x="1133.6" y="42.12707833938896" width="13.799999999999999" height="55.55579534218202" fill="#006340"/>
</svg>