<svg xmlns="http://www.w3.org/2000/svg" width="1200" height="700">
  <rect width="100%" height="100%" fill="#0d1117"/>
  <line x1="48" y1="24" x2="1152" y2="24" stroke="#21262d" stroke-width="1"/><line x1="48" y1="181" x2="1152" y2="181" stroke="#21262d" stroke-width="1"/><line x1="48" y1="338" x2="1152" y2="338" stroke="#21262d" stroke-width="1"/><line x1="48" y1="495" x2="1152" y2="495" stroke="#21262d" stroke-width="1"/><line x1="48" y1="652" x2="1152" y2="652" stroke="#21262d" stroke-width="1"/>
  <line x1="59.5" y1="626.5251619688768" x2="59.5" y2="652" stroke="#006340" stroke-width="1"/><rect x="52.6" y="631.9399051714377" width="13.799999999999999" height="18.241655938311055" fill="#006340"/><line x1="82.5" y1="594.0292191724808" x2="82.5" y2="635.9920658725479" stroke="#006340" stroke-width="1"/><rect x="75.6" y="603.7733149533169" width="13.799999999999999" height="28.166590218120746" fill="#006340"/><line x1="105.5" y1="595.9051886240152" x2="105.5" y2="608.5129232964583" stroke="#006340" stroke-width="1"/><rect x="98.6" y="602.2042343927162" width="13.799999999999999" height="1.5690805606006961" fill="#006340"/><line x1="128.5" y1="576.1836959151052" x2="128.5" y2="613.1579751571345" stroke="#006340" stroke-width="1"/><rect x="121.6" y="580.2457987921042" width="13.799999999999999" height="21.958435600612006" fill="#006340"/><line x1="151.5" y1="548.8023303366477" x2="151.5" y2="591.519511234812" stroke="#006340" stroke-width="1"/><rect x="144.6" y="557.3524099740937" width="13.799999999999999" height="22.89338881801052" fill="#006340"/><line x1="174.5" y1="528.4558094508719" x2="174.5" y2="559.1743643536356" stroke="#006340" stroke-width="1"/><rect x="167.6" y="530.1524527269421" width="13.799999999999999" height="27.199957247151588" fill="#006340"/><line x1="197.5" y1="518.8838203933251" x2="197.5" y2="531.4821551907186" stroke="#006340" stroke-width="1"/><rect x="190.6" y="519.060605332821" width="13.799999999999999" height="11.091847394121146" fill="#006340"/><line x1="220.5" y1="502.80499018126875" x2="220.5" y2="525.0311729824716" stroke="#006340" stroke-width="1"/><rect x="213.6" y="507.702982550189" width="13.799999999999999" height="11.35762278263195" fill="#006340"/><line x1="243.5" y1="503.34010205112713" x2="243.5" y2="510.560093535165" stroke="#A02128" stroke-width="1"/><rect x="236.6" y="507.702982550189" width="13.799999999999999" height="2.3966749416924813" fill="#A02128"/><line x1="266.5" y1="509.8926407781541" x2="266.5" y2="523.9952287806491" stroke="#A02128" stroke-width="1"/><rect x="259.6" y="510.0996574918815" width="13.799999999999999" height="7.09995648441344" fill="#A02128"/><line x1="289.5" y1="492.37854428105743" x2="289.5" y2="525.1577208410685" stroke="#006340" stroke-width="1"/><rect x="282.6" y="496.19904289109013" width="13.799999999999999" height="21.000571085204797" fill="#006340"/><line x1="312.5" y1="480.9778750734637" x2="312.5" y2="505.0119750580747" stroke="#006340" stroke-width="1"/><rect x="305.6" y="482.6497938737922" width="13.799999999999999" height="13.549249017297939" fill="#006340"/><line x1="335.5" y1="469.816053010416" x2="335.5" y2="488.5983992054775" stroke="#006340" stroke-width="1"/><rect x="328.6" y="478.49804889526445" width="13.799999999999999" height="4.151744978527745" fill="#006340"/><line x1="358.5" y1="452.82353803264755" x2="358.5" y2="483.1133612467855" stroke="#006340" stroke-width="1"/><rect x="351.6" y="462.8443752558136" width="13.799999999999999" height="15.653673639450858" fill="#006340"/><line x1="381.5" y1="456.54894614889406" x2="381.5" y2="476.0950911922204" stroke="#A02128" stroke-width="1"/><rect x="374.6" y="462.8443752558136" width="13.799999999999999" height="7.645006418390722" fill="#A02128"/><line x1="404.5" y1="451.31699957770326" x2="404.5" y2="477.6140294740387" stroke="#006340" stroke-width="1"/><rect x="397.6" y="455.1703739663492" width="13.799999999999999" height="15.319007707855121" fill="#006340"/><line x1="427.5" y1="423.5136917067141" x2="427.5" y2="464.4592375760262" stroke="#006340" stroke-width="1"/><rect x="420.6" y="425.11197740034083" width="13.799999999999999" height="30.058396566008355" fill="#006340"/><line x1="450.5" y1="393.44651030599397" x2="450.5" y2="435.0834177637793" stroke="#006340" stroke-width="1"/><rect x="443.6" y="398.99932991364017" width="13.799999999999999" height="26.112647486700666" fill="#006340"/><line x1="473.5" y1="384.7821650710116" x2="473.5" y2="412.18407708917607" stroke="#006340" stroke-width="1"/><rect x="466.6" y="390.09202143243147" width="13.799999999999999" height="8.907308481208702" fill="#006340"/><line x1="496.5" y1="382.94164876691303" x2="496.5" y2="397.38345071463937" stroke="#A02128" stroke-width="1"/><rect x="489.6" y="390.09202143243147" width="13.799999999999999" height="3.97181270027221" fill="#A02128"/><line x1="519.5" y1="381.29934481410356" x2="519.5" y2="401.04520494652945" stroke="#006340" stroke-width="1"/><rect x="512.6" y="391.20636261948505" width="13.799999999999999" height="2.857471513218627" fill="#006340"/><line x1="542.5" y1="364.946959394895" x2="542.5" y2="399.9050522211919" stroke="#006340" stroke-width="1"/><rect x="535.6" y="370.85770560351375" width="13.799999999999999" height="20.3486570159713" fill="#006340"/><line x1="565.5" y1="368.5803639706569" x2="565.5" y2="380.26828097703697" stroke="#A02128" stroke-width="1"/><rect x="558.6" y="370.85770560351375" width="13.799999999999999" height="1" fill="#A02128"/><line x1="588.5" y1="339.5291239341043" x2="588.5" y2="372.38596106502837" stroke="#006340" stroke-width="1"/><rect x="581.6" y="341.7617819793293" width="13.799999999999999" height="29.998218020784464" fill="#006340"/><line x1="611.5" y1="336.5667339284666" x2="611.5" y2="353.3095437786305" stroke="#A02128" stroke-width="1"/><rect x="604.6" y="341.7617819793293" width="13.799999999999999" height="7.083696506932654" fill="#A02128"/><line x1="634.5" y1="326.34456192413245" x2="634.5" y2="359.9119986906009" stroke="#006340" stroke-width="1"/><rect x="627.6" y="330.5755775322279" width="13.799999999999999" height="18.269900954034085" fill="#006340"/><line x1="657.5" y1="300.3870697232502" x2="657.5" y2="338.9342959462571" stroke="#006340" stroke-width="1"/><rect x="650.6" y="302.79050077078597" width="13.799999999999999" height="27.78507676144193" fill="#006340"/><line x1="680.5" y1="283.60547728210577" x2="680.5" y2="305.96698764571534" stroke="#006340" stroke-width="1"/><rect x="673.6" y="295.6243555458366" width="13.799999999999999" height="7.166145224949389" fill="#006340"/><line x1="703.5" y1="289.9187763668555" x2="703.5" y2="310.1038723329074" stroke="#A02128" stroke-width="1"/><rect x="696.6" y="295.6243555458366" width="13.799999999999999" height="10.271759411288656" fill="#A02128"/><line x1="726.5" y1="287.6409632904384" x2="726.5" y2="312.79806902554594" stroke="#006340" stroke-width="1"/><rect x="719.6" y="294.33652594174174" width="13.799999999999999" height="11.559589015383494" fill="#006340"/><line x1="749.5" y1="285.95905932147394" x2="749.5" y2="312.18562245562" stroke="#A02128" stroke-width="1"/><rect x="742.6" y="294.33652594174174" width="13.799999999999999" height="8.623514033998674" fill="#A02128"/><line x1="772.5" y1="284.9267158762357" x2="772.5" y2="312.2074952338513" stroke="#006340" stroke-width="1"/><rect x="765.6" y="289.2443910387978" width="13.799999999999999" height="13.715648936942614" fill="#006340"/><line x1="795.5" y1="260.9983963616453" x2="795.5" y2="297.2492123825551" stroke="#006340" stroke-width="1"/><rect x="788.6" y="264.8804911766163" width="13.799999999999999" height="24.363899862181484" fill="#006340"/><line x1="818.5" y1="262.9986257537542" x2="818.5" y2="276.7458733363512" stroke="#A02128" stroke-width="1"/><rect x="811.6" y="264.8804911766163" width="13.799999999999999" height="1.2339712783240202" fill="#A02128"/><line x1="841.5" y1="236.42951506818076" x2="841.5" y2="276.29457597041494" stroke="#006340" stroke-width="1"/><rect x="834.6" y="248.77153443331332" width="13.799999999999999" height="17.342928021627017" fill="#006340"/><line x1="864.5" y1="240.51492870286074" x2="864.5" y2="266.2333449258426" stroke="#A02128" stroke-width="1"/><rect x="857.6" y="248.77153443331332" width="13.799999999999999" height="8.994914855163245" fill="#A02128"/><line x1="887.5" y1="242.1597206004236" x2="887.5" y2="270.1071354551782" stroke="#006340" stroke-width="1"/><rect x="880.6" y="251.38804781239793" width="13.799999999999999" height="6.378401476078636" fill="#006340"/><line x1="910.5" y1="241.84654262208414" x2="910.5" y2="261.8207324782737" stroke="#006340" stroke-width="1"/><rect x="903.6" y="241.9510290923501" width="13.799999999999999" height="9.437018720047831" fill="#006340"/><line x1="933.5" y1="207.0729423658144" x2="933.5" y2="251.12801367565925" stroke="#006340" stroke-width="1"/><rect x="926.6" y="212.6687132793096" width="13.799999999999999" height="29.282315813040498" fill="#006340"/><line x1="956.5" y1="190.32308944756875" x2="956.5" y2="215.11676788332443" stroke="#006340" stroke-width="1"/><rect x="949.6" y="201.61610101529186" width="13.799999999999999" height="11.052612264017739" fill="#006340"/><line x1="979.5" y1="183.2470337874371" x2="979.5" y2="203.79416634012415" stroke="#006340" stroke-width="1"/><rect x="972.6" y="186.97366227673996" width="13.799999999999999" height="14.642438738551903" fill="#006340"/><line x1="1002.5" y1="142.9699231405287" x2="1002.5" y2="187.35552810158617" stroke="#006340" stroke-width="1"/><rect x="995.6" y="153.68380347797654" width="13.799999999999999" height="33.28985879876342" fill="#006340"/><line x1="1025.5" y1="122.18732374856586" x2="1025.5" y2="165.17974553815515" stroke="#006340" stroke-width="1"/><rect x="1018.6" y="124.96124500236044" width="13.799999999999999" height="28.722558475616097" fill="#006340"/><line x1="1048.5" y1="81.91702499200687" x2="1048.5" y2="133.65072892971682" stroke="#006340" stroke-width="1"/><rect x="1041.6" y="96.73340862556245" width="13.799999999999999" height="28.227836376797995" fill="#006340"/><line x1="1071.5" y1="85.67153011507628" x2="1071.5" y2="112.1497840077052" stroke="#006340" stroke-width="1"/><rect x="1064.6" y="93.99093381069486" width="13.799999999999999" height="2.7424748148675917" fill="#006340"/><line x1="1094.5" y1="75.55034292261928" x2="1094.5" y2="107.46724776646772" stroke="#006340" stroke-width="1"/><rect x="1087.6" y="77.57070507528579" width="13.799999999999999" height="16.42022873540907" fill="#006340"/><line x1="1117.5" y1="41.9150259501472" x2="1117.5" y2="78.61807536629703" stroke="#006340" stroke-width="1"/><rect x="1110.6" y="53.98731979110255" width="13.799999999999999" height="23.583385284183237" fill="#006340"/><line x1="1140.5" y1="24" x2="1140.5" y2="55.61302312927853" stroke="#006340" stroke-width="1"/><rect x="1133.6" y="31.24364685417163" width="13.799999999999999" height="22.74367293693092" fill="#006340"/>
</svg>