<svg xmlns="http://www.w3.org/2000/svg" width="1200" height="700">
  <rect width="100%" height="100%" fill="#0d1117"/>
  <line x1="48" y1="24" x2="1152" y2="24" stroke="#21262d" stroke-width="1"/><line x1="48" y1="181" x2="1152" y2="181" stroke="#21262d" stroke-width="1"/><line x1="48" y1="338" x2="1152" y2="338" stroke="#21262d" stroke-width="1"/><line x1="48" y1="495" x2="1152" y2="495" stroke="#21262d" stroke-width="1"/><line x1="48" y1="652" x2="1152" y2="652" stroke="#21262d" stroke-width="1"/>
  <line x1="59.5" y1="24" x2="59.5" y2="158.87950962679804" stroke="#006340" stroke-width="1"/><rect x="52.6" y="56.14836507062478" width="13.799999999999999" height="69.09874944926287" fill="#006340"/><line x1="82.5" y1="54.90706709100755" x2="82.5" y2="80.84325671884164" stroke="#A02128" stroke-width="1"/><rect x="75.6" y="56.14836507062478" width="13.799999999999999" height="11.432273695569506" fill="#A02128"/><line x1="105.5" y1="35.563756469028704" x2="105.5" y2="138.14097004107532" stroke="#A02128" stroke-width="1"/><rect x="98.6" y="67.58063876619428" width="13.799999999999999" height="36.47091700115345" fill="#A02128"/><line x1="128.5" y1="62.115322198905574" x2="128.5" y2="174.7806491323072" stroke="#A02128" stroke-width="1"/><rect x="121.6" y="104.05155576734774" width="13.799999999999999" height="47.18698899696017" fill="#A02128"/><line x1="151.5" y1="103.4286691543706" x2="151.5" y2="191.97031460644882" stroke="#006340" stroke-width="1"/><rect x="144.6" y="114.85065711076186" width="13.799999999999999" height="36.387887653546045" fill="#006340"/><line x1="174.5" y1="105.75386969513443" x2="174.5" y2="210.33231148743386" stroke="#A02128" stroke-width="1"/><rect x="167.6" y="114.85065711076186" width="13.799999999999999" height="65.73523754555288" fill="#A02128"/><line x1="197.5" y1="154.6020718613704" x2="197.5" y2="227.81188833949034" stroke="#A02128" stroke-width="1"/><rect x="190.6" y="180.58589465631474" width="13.799999999999999" height="32.32555772735378" fill="#A02128"/><line x1="220.5" y1="199.97860906166608" x2="220.5" y2="297.64756043729346" stroke="#A02128" stroke-width="1"/><rect x="213.6" y="212.91145238366852" width="13.799999999999999" height="60.02260317179571" fill="#A02128"/><line x1="243.5" y1="264.1411775735565" x2="243.5" y2="363.0524713336471" stroke="#A02128" stroke-width="1"/><rect x="236.6" y="272.9340555554642" width="13.799999999999999" height="51.81031483499447" fill="#A02128"/><line x1="266.5" y1="290.30940999049176" x2="266.5" y2="390.5253162725412" stroke="#A02128" stroke-width="1"/><rect x="259.6" y="324.7443703904587" width="13.799999999999999" height="45.399338874475234" fill="#A02128"/><line x1="289.5" y1="342.51542916042354" x2="289.5" y2="461.4736503979675" stroke="#A02128" stroke-width="1"/><rect x="282.6" y="370.14370926493393" width="13.799999999999999" height="61.04704411498767" fill="#A02128"/><line x1="312.5" y1="403.17395845330583" x2="312.5" y2="517.2463357854031" stroke="#A02128" stroke-width="1"/><rect x="305.6" y="431.1907533799216" width="13.799999999999999" height="49.358278758176766" fill="#A02128"/><line x1="335.5" y1="438.59300483593205" x2="335.5" y2="499.5513299050705" stroke="#006340" stroke-width="1"/><rect x="328.6" y="440.71722399664407" width="13.799999999999999" height="39.8318081414543" fill="#006340"/><line x1="358.5" y1="412.45519604783067" x2="358.5" y2="443.6855634787909" stroke="#006340" stroke-width="1"/><rect x="351.6" y="426.97139026035745" width="13.799999999999999" height="13.745833736286613" fill="#006340"/><line x1="381.5" y1="393.91272016135366" x2="381.5" y2="460.79364066347927" stroke="#A02128" stroke-width="1"/><rect x="374.6" y="426.97139026035745" width="13.799999999999999" height="12.267660752858205" fill="#A02128"/><line x1="404.5" y1="389.04678087066236" x2="404.5" y2="463.92301699866175" stroke="#006340" stroke-width="1"/><rect x="397.6" y="425.2826958030093" width="13.799999999999999" height="13.956355210206368" fill="#006340"/><line x1="427.5" y1="400.8984904687218" x2="427.5" y2="465.5657322773678" stroke="#006340" stroke-width="1"/><rect x="420.6" y="407.78968905205306" width="13.799999999999999" height="17.493006750956226" fill="#006340"/><line x1="450.5" y1="389.53271750644893" x2="450.5" y2="514.3041446248978" stroke="#A02128" stroke-width="1"/><rect x="443.6" y="407.78968905205306" width="13.799999999999999" height="63.510980937238344" fill="#A02128"/><line x1="473.5" y1="444.3326818925635" x2="473.5" y2="483.8507311648011" stroke="#006340" stroke-width="1"/><rect x="466.6" y="464.9707373419696" width="13.799999999999999" height="6.329932647321812" fill="#006340"/><line x1="496.5" y1="424.0402626672975" x2="496.5" y2="499.1522013824863" stroke="#A02128" stroke-width="1"/><rect x="489.6" y="464.9707373419696" width="13.799999999999999" height="21.672287397415744" fill="#A02128"/><line x1="519.5" y1="419.6472377827198" x2="519.5" y2="495.1681234266664" stroke="#006340" stroke-width="1"/><rect x="512.6" y="444.1729558038438" width="13.799999999999999" height="42.47006893554152" fill="#006340"/><line x1="542.5" y1="413.43496453579536" x2="542.5" y2="496.1695483256691" stroke="#A02128" stroke-width="1"/><rect x="535.6" y="444.1729558038438" width="13.799999999999999" height="23.895036735131328" fill="#A02128"/><line x1="565.5" y1="458.54784614464404" x2="565.5" y2="496.10661796199446" stroke="#A02128" stroke-width="1"/><rect x="558.6" y="468.06799253897515" width="13.799999999999999" height="11.434001681746338" fill="#A02128"/><line x1="588.5" y1="409.1683122568078" x2="588.5" y2="501.853011102221" stroke="#006340" stroke-width="1"/><rect x="581.6" y="445.47840501528134" width="13.799999999999999" height="34.023589205440146" fill="#006340"/><line x1="611.5" y1="443.48072695256684" x2="611.5" y2="505.05581610982915" stroke="#A02128" stroke-width="1"/><rect x="604.6" y="445.47840501528134" width="13.799999999999999" height="33.519289235836936" fill="#A02128"/><line x1="634.5" y1="445.1506350070665" x2="634.5" y2="516.2994202152568" stroke="#006340" stroke-width="1"/><rect x="627.6" y="475.34065552681403" width="13.799999999999999" height="3.6570387243042433" fill="#006340"/><line x1="657.5" y1="428.28684790120656" x2="657.5" y2="493.0035004281068" stroke="#006340" stroke-width="1"/><rect x="650.6" y="449.2105453319581" width="13.799999999999999" height="26.130110194855945" fill="#006340"/><line x1="680.5" y1="394.2756465545263" x2="680.5" y2="467.07662860441553" stroke="#006340" stroke-width="1"/><rect x="673.6" y="399.5310808868382" width="13.799999999999999" height="49.67946444511989" fill="#006340"/><line x1="703.5" y1="365.0697861366607" x2="703.5" y2="491.8718381040055" stroke="#A02128" stroke-width="1"/><rect x="696.6" y="399.5310808868382" width="13.799999999999999" height="61.840676770698735" fill="#A02128"/><line x1="726.5" y1="456.1358581913472" x2="726.5" y2="479.98126265115593" stroke="#A02128" stroke-width="1"/><rect x="719.6" y="461.37175765753693" width="13.799999999999999" height="1" fill="#A02128"/><line x1="749.5" y1="356.9958467983215" x2="749.5" y2="473.7795119545701" stroke="#006340" stroke-width="1"/><rect x="742.6" y="402.4320080381807" width="13.799999999999999" height="59.40705264390914" fill="#006340"/><line x1="772.5" y1="361.5657687838184" x2="772.5" y2="498.44223697060596" stroke="#A02128" stroke-width="1"/><rect x="765.6" y="402.4320080381807" width="13.799999999999999" height="62.96870830940384" fill="#A02128"/><line x1="795.5" y1="421.53149834972174" x2="795.5" y2="539.2029505880763" stroke="#A02128" stroke-width="1"/><rect x="788.6" y="465.40071634758453" width="13.799999999999999" height="65.79980721474931" fill="#A02128"/><line x1="818.5" y1="522.0024609550264" x2="818.5" y2="619.4355388770765" stroke="#A02128" stroke-width="1"/><rect x="811.6" y="531.2005235623338" width="13.799999999999999" height="44.699751435301096" fill="#A02128"/><line x1="841.5" y1="573.7307923690964" x2="841.5" y2="610.3979546222399" stroke="#A02128" stroke-width="1"/><rect x="834.6" y="575.9002749976349" width="13.799999999999999" height="33.77191939336683" fill="#A02128"/><line x1="864.5" y1="537.8012601959789" x2="864.5" y2="652" stroke="#006340" stroke-width="1"/><rect x="857.6" y="577.3451849881206" width="13.799999999999999" height="32.32700940288112" fill="#006340"/><line x1="887.5" y1="484.7272519620585" x2="887.5" y2="607.5708400446196" stroke="#006340" stroke-width="1"/><rect x="880.6" y="527.8274062207113" width="13.799999999999999" height="49.51777876740937" fill="#006340"/><line x1="910.5" y1="486.2050950587201" x2="910.5" y2="552.964540643451" stroke="#006340" stroke-width="1"/><rect x="903.6" y="489.31043063506934" width="13.799999999999999" height="38.516975585641944" fill="#006340"/><line x1="933.5" y1="464.4774872422487" x2="933.5" y2="527.6361690766579" stroke="#A02128" stroke-width="1"/><rect x="926.6" y="489.31043063506934" width="13.799999999999999" height="26.441895992727723" fill="#A02128"/><line x1="956.5" y1="482.2003384115327" x2="956.5" y2="597.7919569410664" stroke="#A02128" stroke-width="1"/><rect x="949.6" y="515.7523266277971" width="13.799999999999999" height="44.87907516683288" fill="#A02128"/><line x1="979.5" y1="512.3351611351147" x2="979.5" y2="588.8478475092244" stroke="#006340" stroke-width="1"/><rect x="972.6" y="536.1086455366391" width="13.799999999999999" height="24.522756257990864" fill="#006340"/><line x1="1002.5" y1="524.3270440074681" x2="1002.5" y2="545.4741764586283" stroke="#006340" stroke-width="1"/><rect x="995.6" y="528.6470279669288" width="13.799999999999999" height="7.461617569710256" fill="#006340"/><line x1="1025.5" y1="520.697576848452" x2="1025.5" y2="564.0810261158076" stroke="#A02128" stroke-width="1"/><rect x="1018.6" y="528.6470279669288" width="13.799999999999999" height="24.85560824982599" fill="#A02128"/><line x1="1048.5" y1="481.35257235248184" x2="1048.5" y2="583.5569834370078" stroke="#006340" stroke-width="1"/><rect x="1041.6" y="499.3802265277801" width="13.799999999999999" height="54.1224096889747" fill="#006340"/><line x1="1071.5" y1="460.8568995902761" x2="1071.5" y2="543.0900752099225" stroke="#A02128" stroke-width="1"/><rect x="1064.6" y="499.3802265277801" width="13.799999999999999" height="4.201815697600296" fill="#A02128"/><line x1="1094.5" y1="400.4626248768426" x2="1094.5" y2="541.9659408538307" stroke="#006340" stroke-width="1"/><rect x="1087.6" y="443.59497525970596" width="13.799999999999999" height="59.987066965674444" fill="#006340"/><line x1="1117.5" y1="428.42535672314443" x2="1117.5" y2="467.5694466122404" stroke="#A02128" stroke-width="1"/><rect x="1110.6" y="443.59497525970596" width="13.799999999999999" height="1.5726002038111346" fill="#A02128"/><line x1="1140.5" y1="431.20064094723756" x2="1140.5" y2="475.6322743276314" stroke="#006340" stroke-width="1"/><rect x="1133.6" y="443.8472903876202" width="13.799999999999999" height="1.3202850758968907" fill="#006340"/>
</svg>