<svg xmlns="http://www.w3.org/2000/svg" width="1200" height="700">
  <rect width="100%" height="100%" fill="#0d1117"/>
  <line x1="48" y1="24" x2="1152" y2="24" stroke="#21262d" stroke-width="1"/><line x1="48" y1="181" x2="1152" y2="181" stroke="#21262d" stroke-width="1"/><line x1="48" y1="338" x2="1152" y2="338" stroke="#21262d" stroke-width="1"/><line x1="48" y1="495" x2="1152" y2="495" stroke="#21262d" stroke-width="1"/><line x1="48" y1="652" x2="1152" y2="652" stroke="#21262d" stroke-width="1"/>
  <line x1="59.5" y1="202.8520440793405" x2="59.5" y2="357.91278962342125" stroke="#A02128" stroke-width="1"/><rect x="52.6" y="222.76179539017318" width="13.799999999999999" height="64.71562589778802" fill="#A02128"/><line x1="82.5" y1="190.5484464445176" x2="82.5" y2="293.4522469679514" stroke="#006340" stroke-width="1"/><rect x="75.6" y="222.63294049846763" width="13.799999999999999" height="64.84448078949356" fill="#006340"/><line x1="105.5" y1="219.65502654649634" x2="105.5" y2="342.39769026101175" stroke="#A02128" stroke-width="1"/><rect x="98.6" y="222.63294049846763" width="13.799999999999999" height="82.40672760923945" fill="#A02128"/><line x1="128.5" y1="242.7614300428591" x2="128.5" y2="378.0581369644274" stroke="#A02128" stroke-width="1"/><rect x="121.6" y="305.0396681077071" width="13.799999999999999" height="45.924347724691756" fill="#A02128"/><line x1="151.5" y1="261.53809119429695" x2="151.5" y2="401.1686301050439" stroke="#006340" stroke-width="1"/><rect x="144.6" y="310.2880636818275" width="13.799999999999999" height="40.675952150571334" fill="#006340"/><line x1="174.5" y1="236.56826629271296" x2="174.5" y2="420.4238468168457" stroke="#A02128" stroke-width="1"/><rect x="167.6" y="310.2880636818275" width="13.799999999999999" height="42.583859919014685" fill="#A02128"/><line x1="197.5" y1="304.79289538525325" x2="197.5" y2="416.6789214702143" stroke="#006340" stroke-width="1"/><rect x="190.6" y="309.19664381436377" width="13.799999999999999" height="43.67527978647843" fill="#006340"/><line x1="220.5" y1="205.5116000210619" x2="220.5" y2="366.7279810748861" stroke="#006340" stroke-width="1"/><rect x="213.6" y="234.95440989952925" width="13.799999999999999" height="74.24223391483451" fill="#006340"/><line x1="243.5" y1="165.8579518330729" x2="243.5" y2="267.2832938515773" stroke="#006340" stroke-width="1"/><rect x="236.6" y="193.64826278287262" width="13.799999999999999" height="41.30614711665663" fill="#006340"/><line x1="266.5" y1="56.68420820982635" x2="266.5" y2="233.39107152000724" stroke="#006340" stroke-width="1"/><rect x="259.6" y="108.89998341020942" width="13.799999999999999" height="84.7482793726632" fill="#006340"/><line x1="289.5" y1="32.684516515526866" x2="289.5" y2="125.31521787423537" stroke="#006340" stroke-width="1"/><rect x="282.6" y="87.31139102651275" width="13.799999999999999" height="21.588592383696664" fill="#006340"/><line x1="312.5" y1="31.905210135568268" x2="312.5" y2="189.43256760606852" stroke="#A02128" stroke-width="1"/><rect x="305.6" y="87.31139102651275" width="13.799999999999999" height="27.92304338490976" fill="#A02128"/><line x1="335.5" y1="82.87605117676287" x2="335.5" y2="205.40740334805793" stroke="#A02128" stroke-width="1"/><rect x="328.6" y="115.23443441142251" width="13.799999999999999" height="48.10977944666797" fill="#A02128"/><line x1="358.5" y1="146.04213268386275" x2="358.5" y2="190.84802740248114" stroke="#A02128" stroke-width="1"/><rect x="351.6" y="163.34421385809048" width="13.799999999999999" height="21.69150611400454" fill="#A02128"/><line x1="381.5" y1="70.24646148572378" x2="381.5" y2="207.43378601493868" stroke="#006340" stroke-width="1"/><rect x="374.6" y="92.12002352321906" width="13.799999999999999" height="92.91569644887596" fill="#006340"/><line x1="404.5" y1="49.473164445245175" x2="404.5" y2="157.93014236014022" stroke="#A02128" stroke-width="1"/><rect x="397.6" y="92.12002352321906" width="13.799999999999999" height="55.828738695018785" fill="#A02128"/><line x1="427.5" y1="132.1317454600529" x2="427.5" y2="170.5181490730767" stroke="#A02128" stroke-width="1"/><rect x="420.6" y="147.94876221823785" width="13.799999999999999" height="20.89589832256405" fill="#A02128"/><line x1="450.5" y1="24" x2="450.5" y2="170.6265792480583" stroke="#006340" stroke-width="1"/><rect x="443.6" y="92.16271554425066" width="13.799999999999999" height="76.68194499655124" fill="#006340"/><line x1="473.5" y1="37.46484692942124" x2="473.5" y2="141.14481614472658" stroke="#A02128" stroke-width="1"/><rect x="466.6" y="92.16271554425066" width="13.799999999999999" height="41.989638730319825" fill="#A02128"/><line x1="496.5" y1="65.2668438498032" x2="496.5" y2="313.5081830562028" stroke="#A02128" stroke-width="1"/><rect x="489.6" y="134.15235427457048" width="13.799999999999999" height="107.78464120538888" fill="#A02128"/><line x1="519.5" y1="178.49157010724355" x2="519.5" y2="335.5439129910299" stroke="#A02128" stroke-width="1"/><rect x="512.6" y="241.93699547995936" width="13.799999999999999" height="78.44040510007" fill="#A02128"/><line x1="542.5" y1="186.93357263845218" x2="542.5" y2="388.68489269393706" stroke="#006340" stroke-width="1"/><rect x="535.6" y="216.0531001287016" width="13.799999999999999" height="104.32430045132776" fill="#006340"/><line x1="565.5" y1="176.7710716878808" x2="565.5" y2="269.5739482344454" stroke="#A02128" stroke-width="1"/><rect x="558.6" y="216.0531001287016" width="13.799999999999999" height="52.26826024813647" fill="#A02128"/><line x1="588.5" y1="228.06117518997195" x2="588.5" y2="314.8768237388974" stroke="#A02128" stroke-width="1"/><rect x="581.6" y="268.3213603768381" width="13.799999999999999" height="33.674084245624954" fill="#A02128"/><line x1="611.5" y1="259.96580046968364" x2="611.5" y2="400.4652208182732" stroke="#A02128" stroke-width="1"/><rect x="604.6" y="301.995444622463" width="13.799999999999999" height="29.12595008109713" fill="#A02128"/><line x1="634.5" y1="291.5580920320158" x2="634.5" y2="344.9528052951741" stroke="#006340" stroke-width="1"/><rect x="627.6" y="298.2920526099841" width="13.799999999999999" height="32.82934209357603" fill="#006340"/><line x1="657.5" y1="261.083532209295" x2="657.5" y2="417.87004535525455" stroke="#A02128" stroke-width="1"/><rect x="650.6" y="298.2920526099841" width="13.799999999999999" height="77.37823914353072" fill="#A02128"/><line x1="680.5" y1="306.21585701312625" x2="680.5" y2="530.8108612908541" stroke="#A02128" stroke-width="1"/><rect x="673.6" y="375.67029175351485" width="13.799999999999999" height="114.22551274879567" fill="#A02128"/><line x1="703.5" y1="476.9698483652056" x2="703.5" y2="598.7992509840764" stroke="#A02128" stroke-width="1"/><rect x="696.6" y="489.8958045023105" width="13.799999999999999" height="47.82250013223461" fill="#A02128"/><line x1="726.5" y1="473.41750515431755" x2="726.5" y2="564.3354703199811" stroke="#A02128" stroke-width="1"/><rect x="719.6" y="537.7183046345451" width="13.799999999999999" height="21.866574664091786" fill="#A02128"/><line x1="749.5" y1="536.6823018265517" x2="749.5" y2="633.7787287737684" stroke="#A02128" stroke-width="1"/><rect x="742.6" y="559.5848792986369" width="13.799999999999999" height="16.08461664650474" fill="#A02128"/><line x1="772.5" y1="516.1624529227153" x2="772.5" y2="631.106641038318" stroke="#006340" stroke-width="1"/><rect x="765.6" y="530.7920105929535" width="13.799999999999999" height="44.87748535218816" fill="#006340"/><line x1="795.5" y1="504.5924102237368" x2="795.5" y2="552.4749527911023" stroke="#006340" stroke-width="1"/><rect x="788.6" y="506.6057426169665" width="13.799999999999999" height="24.186267975986993" fill="#006340"/><line x1="818.5" y1="402.52773145030443" x2="818.5" y2="565.7974711738073" stroke="#006340" stroke-width="1"/><rect x="811.6" y="406.74463417963057" width="13.799999999999999" height="99.86110843733593" fill="#006340"/><line x1="841.5" y1="364.12922962874114" x2="841.5" y2="566.3268735544332" stroke="#A02128" stroke-width="1"/><rect x="834.6" y="406.74463417963057" width="13.799999999999999" height="117.03204383987281" fill="#A02128"/><line x1="864.5" y1="439.8241697689107" x2="864.5" y2="596.9633078493073" stroke="#006340" stroke-width="1"/><rect x="857.6" y="446.20738563544705" width="13.799999999999999" height="77.56929238405633" fill="#006340"/><line x1="887.5" y1="324.85036464905465" x2="887.5" y2="484.5273676635486" stroke="#006340" stroke-width="1"/><rect x="880.6" y="341.12342427813974" width="13.799999999999999" height="105.08396135730732" fill="#006340"/><line x1="910.5" y1="317.0439396857631" x2="910.5" y2="512.4727640138017" stroke="#A02128" stroke-width="1"/><rect x="903.6" y="341.12342427813974" width="13.799999999999999" height="109.25210145986819" fill="#A02128"/><line x1="933.5" y1="426.21377078265994" x2="933.5" y2="590.6533538198081" stroke="#A02128" stroke-width="1"/><rect x="926.6" y="450.3755257380079" width="13.799999999999999" height="89.88613635482318" fill="#A02128"/><line x1="956.5" y1="488.17863300671536" x2="956.5" y2="640.1485408286972" stroke="#A02128" stroke-width="1"/><rect x="949.6" y="540.2616620928311" width="13.799999999999999" height="44.79449263614424" fill="#A02128"/><line x1="979.5" y1="581.5095635771322" x2="979.5" y2="652" stroke="#006340" stroke-width="1"/><rect x="972.6" y="581.8809852002648" width="13.799999999999999" height="3.175169528710512" fill="#006340"/><line x1="1002.5" y1="458.2921800672618" x2="1002.5" y2="627.7500649893983" stroke="#006340" stroke-width="1"/><rect x="995.6" y="493.73786159579123" width="13.799999999999999" height="88.1431236044736" fill="#006340"/><line x1="1025.5" y1="446.4855847451348" x2="1025.5" y2="566.9519336868219" stroke="#A02128" stroke-width="1"/><rect x="1018.6" y="493.73786159579123" width="13.799999999999999" height="19.32784845614043" fill="#A02128"/><line x1="1048.5" y1="481.3582281942448" x2="1048.5" y2="579.5074122357457" stroke="#006340" stroke-width="1"/><rect x="1041.6" y="496.82539288234545" width="13.799999999999999" height="16.240317169586206" fill="#006340"/><line x1="1071.5" y1="431.0765965706997" x2="1071.5" y2="516.4987503058028" stroke="#A02128" stroke-width="1"/><rect x="1064.6" y="496.82539288234545" width="13.799999999999999" height="7.585133973376344" fill="#A02128"/><line x1="1094.5" y1="455.4018615061673" x2="1094.5" y2="551.0833323631231" stroke="#006340" stroke-width="1"/><rect x="1087.6" y="472.44685178811426" width="13.799999999999999" height="31.96367506760754" fill="#006340"/><line x1="1117.5" y1="394.9721588203036" x2="1117.5" y2="522.5862356421189" stroke="#006340" stroke-width="1"/><rect x="1110.6" y="456.86257438367176" width="13.799999999999999" height="15.584277404442503" fill="#006340"/><line x1="1140.5" y1="363.65282559849203" x2="1140.5" y2="464.2146731150267" stroke="#006340" stroke-width="1"/><rect x="1133.6" y="434.17504653452477" width="13.799999999999999" height="22.68752784914699" fill="#006340"/>
</svg>