<svg xmlns="http://www.w3.org/2000/svg" width="1200" height="700">
  <rect width="100%" height="100%" fill="#0d1117"/>
  <line x1="48" y1="24" x2="1152" y2="24" stroke="#21262d" stroke-width="1"/><line x1="48" y1="181" x2="1152" y2="181" stroke="#21262d" stroke-width="1"/><line x1="48" y1="338" x2="1152" y2="338" stroke="#21262d" stroke-width="1"/><line x1="48" y1="495" x2="1152" y2="495" stroke="#21262d" stroke-width="1"/><line x1="48" y1="652" x2="1152" y2="652" stroke="#21262d" stroke-width="1"/>
  <line x1="59.5" y1="219.95046699717494" x2="59.5" y2="510.11458790754125" stroke="#A02128" stroke-width="1"/><rect x="52.6" y="319.4340548176329" width="13.799999999999999" height="119.41410545208129" fill="#A02128"/><line x1="82.5" y1="328.071819194328" x2="82.5" y2="533.8589011061968" stroke="#006340" stroke-width="1"/><rect x="75.6" y="405.2214891112463" width="13.799999999999999" height="33.6266711584679" fill="#006340"/><line x1="105.5" y1="323.60762081259884" x2="105.5" y2="548.8842575735101" stroke="#A02128" stroke-width="1"/><rect x="98.6" y="405.2214891112463" width="13.799999999999999" height="79.92362587513782" fill="#A02128"/><line x1="128.5" y1="453.1688670834503" x2="128.5" y2="634.8131730478284" stroke="#A02128" stroke-width="1"/><rect x="121.6" y="485.1451149863841" width="13.799999999999999" height="51.34514154658018" fill="#A02128"/><line x1="151.5" y1="471.0432724529444" x2="151.5" y2="549.4884327198886" stroke="#006340" stroke-width="1"/><rect x="144.6" y="500.88336657161994" width="13.799999999999999" height="35.606889961344336" fill="#006340"/><line x1="174.5" y1="422.9333912411262" x2="174.5" y2="544.7188018562778" stroke="#006340" stroke-width="1"/><rect x="167.6" y="463.79827278742994" width="13.799999999999999" height="37.08509378419001" fill="#006340"/><line x1="197.5" y1="397.0396262320412" x2="197.5" y2="597.7782895633304" stroke="#A02128" stroke-width="1"/><rect x="190.6" y="463.79827278742994" width="13.799999999999999" height="77.97324255028263" fill="#A02128"/><line x1="220.5" y1="350.82028713545884" x2="220.5" y2="568.5444757684566" stroke="#006340" stroke-width="1"/><rect x="213.6" y="405.5217493484897" width="13.799999999999999" height="136.24976598922285" fill="#006340"/><line x1="243.5" y1="388.3422601215588" x2="243.5" y2="517.7546490034961" stroke="#A02128" stroke-width="1"/><rect x="236.6" y="405.5217493484897" width="13.799999999999999" height="12.84672180591781" fill="#A02128"/><line x1="266.5" y1="345.58341165985024" x2="266.5" y2="645.6400281585255" stroke="#A02128" stroke-width="1"/><rect x="259.6" y="418.36847115440753" width="13.799999999999999" height="145.72839836908292" fill="#A02128"/><line x1="289.5" y1="423.06777882209224" x2="289.5" y2="652" stroke="#006340" stroke-width="1"/><rect x="282.6" y="436.42482870239326" width="13.799999999999999" height="127.6720408210972" fill="#006340"/><line x1="312.5" y1="427.04204237053716" x2="312.5" y2="616.911077137503" stroke="#A02128" stroke-width="1"/><rect x="305.6" y="436.42482870239326" width="13.799999999999999" height="128.29258916269407" fill="#A02128"/><line x1="335.5" y1="459.2819681826392" x2="335.5" y2="568.5956110013548" stroke="#006340" stroke-width="1"/><rect x="328.6" y="472.9313518092596" width="13.799999999999999" height="91.78606605582775" fill="#006340"/><line x1="358.5" y1="378.74751063667577" x2="358.5" y2="535.9927352257308" stroke="#006340" stroke-width="1"/><rect x="351.6" y="452.9285197547431" width="13.799999999999999" height="20.00283205451649" fill="#006340"/><line x1="381.5" y1="414.42079098173446" x2="381.5" y2="575.0715501019688" stroke="#A02128" stroke-width="1"/><rect x="374.6" y="452.9285197547431" width="13.799999999999999" height="30.328391638128892" fill="#A02128"/><line x1="404.5" y1="408.2188254109576" x2="404.5" y2="568.9687227729189" stroke="#A02128" stroke-width="1"/><rect x="397.6" y="483.256911392872" width="13.799999999999999" height="77.17111687766328" fill="#A02128"/><line x1="427.5" y1="399.92702378354466" x2="427.5" y2="596.2075439225578" stroke="#006340" stroke-width="1"/><rect x="420.6" y="451.07115802872374" width="13.799999999999999" height="109.35687024181152" fill="#006340"/><line x1="450.5" y1="254.4483625059296" x2="450.5" y2="492.32545147951015" stroke="#006340" stroke-width="1"/><rect x="443.6" y="348.9860699005705" width="13.799999999999999" height="102.08508812815325" fill="#006340"/><line x1="473.5" y1="268.391622922311" x2="473.5" y2="419.28845761850187" stroke="#006340" stroke-width="1"/><rect x="466.6" y="279.5992505151084" width="13.799999999999999" height="69.3868193854621" fill="#006340"/><line x1="496.5" y1="257.5094193065947" x2="496.5" y2="418.9193559620039" stroke="#A02128" stroke-width="1"/><rect x="489.6" y="279.5992505151084" width="13.799999999999999" height="83.35950901238635" fill="#A02128"/><line x1="519.5" y1="232.3351576864152" x2="519.5" y2="394.9387361222153" stroke="#006340" stroke-width="1"/><rect x="512.6" y="303.53724003066213" width="13.799999999999999" height="59.421519496832616" fill="#006340"/><line x1="542.5" y1="213.30661731659052" x2="542.5" y2="448.97035508510135" stroke="#A02128" stroke-width="1"/><rect x="535.6" y="303.53724003066213" width="13.799999999999999" height="78.45512918335157" fill="#A02128"/><line x1="565.5" y1="197.83458111715902" x2="565.5" y2="401.77350948221886" stroke="#006340" stroke-width="1"/><rect x="558.6" y="270.21184673207864" width="13.799999999999999" height="111.78052248193507" fill="#006340"/><line x1="588.5" y1="242.7201069086712" x2="588.5" y2="339.47475077328147" stroke="#A02128" stroke-width="1"/><rect x="581.6" y="270.21184673207864" width="13.799999999999999" height="7.681697941373557" fill="#A02128"/><line x1="611.5" y1="266.06663726352605" x2="611.5" y2="351.6624434129093" stroke="#A02128" stroke-width="1"/><rect x="604.6" y="277.8935446734522" width="13.799999999999999" height="52.356364387339454" fill="#A02128"/><line x1="634.5" y1="286.6156858965008" x2="634.5" y2="434.9506345745589" stroke="#A02128" stroke-width="1"/><rect x="627.6" y="330.24990906079165" width="13.799999999999999" height="96.34687107467073" fill="#A02128"/><line x1="657.5" y1="241.39908844535108" x2="657.5" y2="451.2133179605622" stroke="#006340" stroke-width="1"/><rect x="650.6" y="315.4239499944484" width="13.799999999999999" height="111.172830141014" fill="#006340"/><line x1="680.5" y1="154.72493137909754" x2="680.5" y2="385.6250535845382" stroke="#006340" stroke-width="1"/><rect x="673.6" y="225.35079667321247" width="13.799999999999999" height="90.0731533212359" fill="#006340"/><line x1="703.5" y1="166.28190105472515" x2="703.5" y2="260.30925991619796" stroke="#006340" stroke-width="1"/><rect x="696.6" y="184.74539262524365" width="13.799999999999999" height="40.60540404796882" fill="#006340"/><line x1="726.5" y1="118.72579319085924" x2="726.5" y2="234.68379404522182" stroke="#006340" stroke-width="1"/><rect x="719.6" y="144.55763538832457" width="13.799999999999999" height="40.18775723691908" fill="#006340"/><line x1="749.5" y1="110.64909936852132" x2="749.5" y2="250.88677235945028" stroke="#A02128" stroke-width="1"/><rect x="742.6" y="144.55763538832457" width="13.799999999999999" height="43.119957883854056" fill="#A02128"/><line x1="772.5" y1="113.13754159865266" x2="772.5" y2="224.73195177856508" stroke="#006340" stroke-width="1"/><rect x="765.6" y="138.16191772795685" width="13.799999999999999" height="49.51567554422178" fill="#006340"/><line x1="795.5" y1="94.20952158444629" x2="795.5" y2="292.64749304891205" stroke="#A02128" stroke-width="1"/><rect x="788.6" y="138.16191772795685" width="13.799999999999999" height="68.1998112208887" fill="#A02128"/><line x1="818.5" y1="175.7202966731765" x2="818.5" y2="323.83801022936206" stroke="#A02128" stroke-width="1"/><rect x="811.6" y="206.36172894884555" width="13.799999999999999" height="19.891532340783442" fill="#A02128"/><line x1="841.5" y1="195.67161423052994" x2="841.5" y2="296.84380114049804" stroke="#006340" stroke-width="1"/><rect x="834.6" y="199.05873861595808" width="13.799999999999999" height="27.194522673670917" fill="#006340"/><line x1="864.5" y1="196.38009079089034" x2="864.5" y2="338.36583639725876" stroke="#A02128" stroke-width="1"/><rect x="857.6" y="199.05873861595808" width="13.799999999999999" height="139.13933333154284" fill="#A02128"/><line x1="887.5" y1="163.32626960792754" x2="887.5" y2="434.33856063907564" stroke="#006340" stroke-width="1"/><rect x="880.6" y="198.3094459397177" width="13.799999999999999" height="139.88862600778322" fill="#006340"/><line x1="910.5" y1="116.8006127408886" x2="910.5" y2="229.45232492509348" stroke="#006340" stroke-width="1"/><rect x="903.6" y="176.98616370692338" width="13.799999999999999" height="21.323282232794327" fill="#006340"/><line x1="933.5" y1="96.9107762689664" x2="933.5" y2="270.71538114964" stroke="#A02128" stroke-width="1"/><rect x="926.6" y="176.98616370692338" width="13.799999999999999" height="52.634281194116966" fill="#A02128"/><line x1="956.5" y1="162.0445353072634" x2="956.5" y2="346.57769133878867" stroke="#A02128" stroke-width="1"/><rect x="949.6" y="229.62044490104034" width="13.799999999999999" height="62.880359955396386" fill="#A02128"/><line x1="979.5" y1="147.79161517231142" x2="979.5" y2="306.3135097135109" stroke="#006340" stroke-width="1"/><rect x="972.6" y="154.4261580170437" width="13.799999999999999" height="138.07464683939304" fill="#006340"/><line x1="1002.5" y1="46.82847564933411" x2="1002.5" y2="178.32537963910397" stroke="#006340" stroke-width="1"/><rect x="995.6" y="125.58973517711911" width="13.799999999999999" height="28.83642283992458" fill="#006340"/><line x1="1025.5" y1="24" x2="1025.5" y2="277.5700919800297" stroke="#A02128" stroke-width="1"/><rect x="1018.6" y="125.58973517711911" width="13.799999999999999" height="73.35086085175175" fill="#A02128"/><line x1="1048.5" y1="184.59026833568356" x2="1048.5" y2="327.7517227193834" stroke="#A02128" stroke-width="1"/><rect x="1041.6" y="198.94059602887086" width="13.799999999999999" height="88.63517629530566" fill="#A02128"/><line x1="1071.5" y1="155.2489152306386" x2="1071.5" y2="294.68123877901564" stroke="#006340" stroke-width="1"/><rect x="1064.6" y="156.81094524411475" width="13.799999999999999" height="130.76482708006176" fill="#006340"/><line x1="1094.5" y1="152.89146110192218" x2="1094.5" y2="260.1212635989357" stroke="#A02128" stroke-width="1"/><rect x="1087.6" y="156.81094524411475" width="13.799999999999999" height="34.67979282090806" fill="#A02128"/><line x1="1117.5" y1="106.61319090566792" x2="1117.5" y2="606.0700992401858" stroke="#A02128" stroke-width="1"/><rect x="1110.6" y="191.4907380650228" width="13.799999999999999" height="380.001320698918" fill="#A02128"/><line x1="1140.5" y1="300.96832541849034" x2="1140.5" y2="578.2439711817979" stroke="#006340" stroke-width="1"/><rect x="1133.6" y="371.86469829010923" width="13.799999999999999" height="199.62736047383157" fill="#006340"/>
</svg>