<svg xmlns="http://www.w3.org/2000/svg" width="1200" height="700">
  <rect width="100%" height="100%" fill="#0d1117"/>
  <line x1="48" y1="24" x2="1152" y2="24" stroke="#21262d" stroke-width="1"/><line x1="48" y1="181" x2="1152" y2="181" stroke="#21262d" stroke-width="1"/><line x1="48" y1="338" x2="1152" y2="338" stroke="#21262d" stroke-width="1"/><line x1="48" y1="495" x2="1152" y2="495" stroke="#21262d" stroke-width="1"/><line x1="48" y1="652" x2="1152" y2="652" stroke="#21262d" stroke-width="1"/>
  <line x1="59.5" y1="432.63869513696386" x2="59.5" y2="556.1496728631466" stroke="#A02128" stroke-width="1"/><rect x="52.6" y="477.2343575060305" width="13.799999999999999" height="50.34151098878476" fill="#A02128"/><line x1="82.5" y1="483.86986787336525" x2="82.5" y2="622.7316983846453" stroke="#A02128" stroke-width="1"/><rect x="75.6" y="527.5758684948153" width="13.799999999999999" height="70.85955756216254" fill="#A02128"/><line x1="105.5" y1="521.2268922183833" x2="105.5" y2="652" stroke="#006340" stroke-width="1"/><rect x="98.6" y="549.105012765834" width="13.799999999999999" height="49.33041329114383" fill="#006340"/><line x1="128.5" y1="517.9173558130603" x2="128.5" y2="647.1247469897041" stroke="#A02128" stroke-width="1"/><rect x="121.6" y="549.105012765834" width="13.799999999999999" height="60.0744878334134" fill="#A02128"/><line x1="151.5" y1="549.9754203008986" x2="151.5" y2="616.7727935724996" stroke="#006340" stroke-width="1"/><rect x="144.6" y="563.5916778188771" width="13.799999999999999" height="45.58782278037029" fill="#006340"/><line x1="174.5" y1="514.8096974144188" x2="174.5" y2="575.1783856389491" stroke="#006340" stroke-width="1"/><rect x="167.6" y="546.1909131435057" width="13.799999999999999" height="17.40076467537142" fill="#006340"/><line x1="197.5" y1="500.393623650942" x2="197.5" y2="549.0073333334238" stroke="#006340" stroke-width="1"/><rect x="190.6" y="542.5027792699088" width="13.799999999999999" height="3.6881338735968257" fill="#006340"/><line x1="220.5" y1="512.8156295583827" x2="220.5" y2="545.1626651537125" stroke="#006340" stroke-width="1"/><rect x="213.6" y="528.8778928232084" width="13.799999999999999" height="13.62488644670043" fill="#006340"/><line x1="243.5" y1="449.7508211774291" x2="243.5" y2="543.0785105275013" stroke="#006340" stroke-width="1"/><rect x="236.6" y="492.90876581771136" width="13.799999999999999" height="35.96912700549706" fill="#006340"/><line x1="266.5" y1="482.550474978302" x2="266.5" y2="536.8539440284311" stroke="#A02128" stroke-width="1"/><rect x="259.6" y="492.90876581771136" width="13.799999999999999" height="7.518097405496803" fill="#A02128"/><line x1="289.5" y1="452.10553279969537" x2="289.5" y2="558.355069506089" stroke="#A02128" stroke-width="1"/><rect x="282.6" y="500.42686322320816" width="13.799999999999999" height="52.98933434706288" fill="#A02128"/><line x1="312.5" y1="457.53664466967507" x2="312.5" y2="580.0466752163968" stroke="#006340" stroke-width="1"/><rect x="305.6" y="469.5601950678695" width="13.799999999999999" height="83.85600250240157" fill="#006340"/><line x1="335.5" y1="421.6093747134495" x2="335.5" y2="507.86218935502177" stroke="#006340" stroke-width="1"/><rect x="328.6" y="449.1730924581015" width="13.799999999999999" height="20.387102609767965" fill="#006340"/><line x1="358.5" y1="319.9757291866713" x2="358.5" y2="468.87313795248906" stroke="#006340" stroke-width="1"/><rect x="351.6" y="367.419557152203" width="13.799999999999999" height="81.75353530589848" fill="#006340"/><line x1="381.5" y1="320.6933466017865" x2="381.5" y2="392.9349803807173" stroke="#006340" stroke-width="1"/><rect x="374.6" y="364.3117422641192" width="13.799999999999999" height="3.107814888083851" fill="#006340"/><line x1="404.5" y1="335.73629348499065" x2="404.5" y2="408.84290279265895" stroke="#A02128" stroke-width="1"/><rect x="397.6" y="364.3117422641192" width="13.799999999999999" height="42.54460249780675" fill="#A02128"/><line x1="427.5" y1="382.54856073490475" x2="427.5" y2="444.5320607497572" stroke="#A02128" stroke-width="1"/><rect x="420.6" y="406.8563447619259" width="13.799999999999999" height="23.3472027590509" fill="#A02128"/><line x1="450.5" y1="392.2746627388661" x2="450.5" y2="512.3133663099497" stroke="#A02128" stroke-width="1"/><rect x="443.6" y="430.2035475209768" width="13.799999999999999" height="78.44099722572696" fill="#A02128"/><line x1="473.5" y1="426.528225116465" x2="473.5" y2="554.5345934241898" stroke="#006340" stroke-width="1"/><rect x="466.6" y="463.91647916779937" width="13.799999999999999" height="44.72806557890442" fill="#006340"/><line x1="496.5" y1="417.9131067169162" x2="496.5" y2="491.2875496466149" stroke="#006340" stroke-width="1"/><rect x="489.6" y="449.1400727667024" width="13.799999999999999" height="14.77640640109695" fill="#006340"/><line x1="519.5" y1="423.5100567408487" x2="519.5" y2="486.16549465932474" stroke="#A02128" stroke-width="1"/><rect x="512.6" y="449.1400727667024" width="13.799999999999999" height="4.2006232594190465" fill="#A02128"/><line x1="542.5" y1="417.59402769287" x2="542.5" y2="492.64379929809104" stroke="#006340" stroke-width="1"/><rect x="535.6" y="417.8052910834454" width="13.799999999999999" height="35.53540494267605" fill="#006340"/><line x1="565.5" y1="376.4272312477446" x2="565.5" y2="493.2133160275393" stroke="#A02128" stroke-width="1"/><rect x="558.6" y="417.8052910834454" width="13.799999999999999" height="22.40595530470074" fill="#A02128"/><line x1="588.5" y1="368.5902583558684" x2="588.5" y2="466.5164538777324" stroke="#006340" stroke-width="1"/><rect x="581.6" y="420.042815033016" width="13.799999999999999" height="20.168431355130167" fill="#006340"/><line x1="611.5" y1="380.2750386515188" x2="611.5" y2="445.2393742301117" stroke="#006340" stroke-width="1"/><rect x="604.6" y="408.51006562606267" width="13.799999999999999" height="11.532749406953315" fill="#006340"/><line x1="634.5" y1="358.1282589657623" x2="634.5" y2="449.29192863929717" stroke="#006340" stroke-width="1"/><rect x="627.6" y="365.07127426555115" width="13.799999999999999" height="43.438791360511516" fill="#006340"/><line x1="657.5" y1="240.6492741838601" x2="657.5" y2="392.4978070776002" stroke="#006340" stroke-width="1"/><rect x="650.6" y="288.57826299543706" width="13.799999999999999" height="76.4930112701141" fill="#006340"/><line x1="680.5" y1="214.1334185906025" x2="680.5" y2="318.26800150499423" stroke="#006340" stroke-width="1"/><rect x="673.6" y="217.73152979618874" width="13.799999999999999" height="70.84673319924832" fill="#006340"/><line x1="703.5" y1="154.01940908509187" x2="703.5" y2="253.00391570929008" stroke="#006340" stroke-width="1"/><rect x="696.6" y="186.18464030598437" width="13.799999999999999" height="31.546889490204364" fill="#006340"/><line x1="726.5" y1="100.49130489943593" x2="726.5" y2="242.93405400481987" stroke="#006340" stroke-width="1"/><rect x="719.6" y="157.628297627996" width="13.799999999999999" height="28.55634267798837" fill="#006340"/><line x1="749.5" y1="47.561211850836344" x2="749.5" y2="204.72435116875198" stroke="#006340" stroke-width="1"/><rect x="742.6" y="103.35077325458326" width="13.799999999999999" height="54.277524373412746" fill="#006340"/><line x1="772.5" y1="45.49112002916888" x2="772.5" y2="177.17128787584483" stroke="#A02128" stroke-width="1"/><rect x="765.6" y="103.35077325458326" width="13.799999999999999" height="71.80397060367005" fill="#A02128"/><line x1="795.5" y1="70.48949537433725" x2="795.5" y2="220.1547343097181" stroke="#006340" stroke-width="1"/><rect x="788.6" y="110.04771863146914" width="13.799999999999999" height="65.10702522678417" fill="#006340"/><line x1="818.5" y1="24" x2="818.5" y2="163.81223117435002" stroke="#006340" stroke-width="1"/><rect x="811.6" y="50.53644443773567" width="13.799999999999999" height="59.51127419373347" fill="#006340"/><line x1="841.5" y1="41.40501921619364" x2="841.5" y2="116.13729765810444" stroke="#A02128" stroke-width="1"/><rect x="834.6" y="50.53644443773567" width="13.799999999999999" height="43.76732187628454" fill="#A02128"/><line x1="864.5" y1="86.25610145335304" x2="864.5" y2="186.83107641642601" stroke="#A02128" stroke-width="1"/><rect x="857.6" y="94.30376631402021" width="13.799999999999999" height="78.64526239837556" fill="#A02128"/><line x1="887.5" y1="136.09943719437797" x2="887.5" y2="251.24780962493844" stroke="#A02128" stroke-width="1"/><rect x="880.6" y="172.94902871239577" width="13.799999999999999" height="21.873281852984064" fill="#A02128"/><line x1="910.5" y1="101.03278348108495" x2="910.5" y2="195.75075993582675" stroke="#006340" stroke-width="1"/><rect x="903.6" y="144.00212773316457" width="13.799999999999999" height="50.820182832215266" fill="#006340"/><line x1="933.5" y1="63.73409129758147" x2="933.5" y2="178.42670290688199" stroke="#006340" stroke-width="1"/><rect x="926.6" y="78.58189992139046" width="13.799999999999999" height="65.42022781177411" fill="#006340"/><line x1="956.5" y1="56.32357416057607" x2="956.5" y2="133.50125340765385" stroke="#A02128" stroke-width="1"/><rect x="949.6" y="78.58189992139046" width="13.799999999999999" height="5.794572560203392" fill="#A02128"/><line x1="979.5" y1="57.26823710160511" x2="979.5" y2="147.55661910904985" stroke="#A02128" stroke-width="1"/><rect x="972.6" y="84.37647248159385" width="13.799999999999999" height="32.363184971068904" fill="#A02128"/><line x1="1002.5" y1="82.12679511836313" x2="1002.5" y2="178.23005237211294" stroke="#A02128" stroke-width="1"/><rect x="995.6" y="116.73965745266275" width="13.799999999999999" height="57.16645777278518" fill="#A02128"/><line x1="1025.5" y1="97.26324570489248" x2="1025.5" y2="208.4877467143744" stroke="#006340" stroke-width="1"/><rect x="1018.6" y="122.5061678559315" width="13.799999999999999" height="51.39994736951644" fill="#006340"/><line x1="1048.5" y1="88.23939461297493" x2="1048.5" y2="151.1995225079662" stroke="#A02128" stroke-width="1"/><rect x="1041.6" y="122.5061678559315" width="13.799999999999999" height="18.870072612565536" fill="#A02128"/><line x1="1071.5" y1="101.89001439774643" x2="1071.5" y2="237.9526306773189" stroke="#A02128" stroke-width="1"/><rect x="1064.6" y="141.37624046849703" width="13.799999999999999" height="55.57212706983478" fill="#A02128"/><line x1="1094.5" y1="152.34734841471197" x2="1094.5" y2="248.82775815525252" stroke="#006340" stroke-width="1"/><rect x="1087.6" y="188.8559581967263" width="13.799999999999999" height="8.092409341605503" fill="#006340"/><line x1="1117.5" y1="185.35705908201697" x2="1117.5" y2="281.2258698311586" stroke="#A02128" stroke-width="1"/><rect x="1110.6" y="188.8559581967263" width="13.799999999999999" height="86.8672241730365" fill="#A02128"/><line x1="1140.5" y1="273.7270546376509" x2="1140.5" y2="392.0709975203322" stroke="#A02128" stroke-width="1"/><rect x="1133.6" y="275.7231823697628" width="13.799999999999999" height="86.35979369735247" fill="#A02128"/>
</svg>