<svg xmlns="http://www.w3.org/2000/svg" width="1200" height="700">
  <rect width="100%" height="100%" fill="#0d1117"/>
  <line x1="48" y1="24" x2="1152" y2="24" stroke="#21262d" stroke-width="1"/><line x1="48" y1="181" x2="1152" y2="181" stroke="#21262d" stroke-width="1"/><line x1="48" y1="338" x2="1152" y2="338" stroke="#21262d" stroke-width="1"/><line x1="48" y1="495" x2="1152" y2="495" stroke="#21262d" stroke-width="1"/><line x1="48" y1="652" x2="1152" y2="652" stroke="#21262d" stroke-width="1"/>
  <line x1="59.5" y1="340.6153878646079" x2="59.5" y2="430.0443548180927" stroke="#006340" stroke-width="1"/><rect x="52.6" y="372.4256542987333" width="13.799999999999999" height="34.53992154370337" fill="#006340"/><line x1="82.5" y1="330.6854968567674" x2="82.5" y2="466.654642499763" stroke="#A02128" stroke-width="1"/><rect x="75.6" y="372.4256542987333" width="13.799999999999999" height="63.29534835377814" fill="#A02128"/><line x1="105.5" y1="305.88526569886244" x2="105.5" y2="473.8538090939473" stroke="#006340" stroke-width="1"/><rect x="98.6" y="369.4871849055211" width="13.799999999999999" height="66.23381774699038" fill="#006340"/><line x1="128.5" y1="340.1335913314824" x2="128.5" y2="403.44465765621356" stroke="#006340" stroke-width="1"/><rect x="121.6" y="350.3004180967002" width="13.799999999999999" height="19.18676680882089" fill="#006340"/><line x1="151.5" y1="291.50595463818166" x2="151.5" y2="385.41451079088836" stroke="#006340" stroke-width="1"/><rect x="144.6" y="347.8729110547104" width="13.799999999999999" height="2.42750704198977" fill="#006340"/><line x1="174.5" y1="213.00892689160617" x2="174.5" y2="399.1309596450909" stroke="#006340" stroke-width="1"/><rect x="167.6" y="249.01828019819754" width="13.799999999999999" height="98.85463085651287" fill="#006340"/><line x1="197.5" y1="185.6602374395669" x2="197.5" y2="299.77051350028825" stroke="#A02128" stroke-width="1"/><rect x="190.6" y="249.01828019819754" width="13.799999999999999" height="6.328114901291428" fill="#A02128"/><line x1="220.5" y1="185.84539141545298" x2="220.5" y2="310.78911139062785" stroke="#006340" stroke-width="1"/><rect x="213.6" y="214.20530999555456" width="13.799999999999999" height="41.141085103934415" fill="#006340"/><line x1="243.5" y1="160.46625882517725" x2="243.5" y2="275.6718537418176" stroke="#A02128" stroke-width="1"/><rect x="236.6" y="214.20530999555456" width="13.799999999999999" height="61.25514390904249" fill="#A02128"/><line x1="266.5" y1="262.04915091789263" x2="266.5" y2="350.3305271618269" stroke="#A02128" stroke-width="1"/><rect x="259.6" y="275.46045390459705" width="13.799999999999999" height="73.43765714407596" fill="#A02128"/><line x1="289.5" y1="205.69664328397334" x2="289.5" y2="409.5939127440006" stroke="#006340" stroke-width="1"/><rect x="282.6" y="262.78818740000315" width="13.799999999999999" height="86.10992364866985" fill="#006340"/><line x1="312.5" y1="205.22869909772703" x2="312.5" y2="286.08620851840544" stroke="#006340" stroke-width="1"/><rect x="305.6" y="237.97900725985596" width="13.799999999999999" height="24.80918014014719" fill="#006340"/><line x1="335.5" y1="237.58409991614525" x2="335.5" y2="291.9799170076556" stroke="#A02128" stroke-width="1"/><rect x="328.6" y="237.97900725985596" width="13.799999999999999" height="6.361444561208202" fill="#A02128"/><line x1="358.5" y1="202.61060159159916" x2="358.5" y2="275.0299858713165" stroke="#006340" stroke-width="1"/><rect x="351.6" y="228.0927995998892" width="13.799999999999999" height="16.247652221174974" fill="#006340"/><line x1="381.5" y1="125.82066098107771" x2="381.5" y2="299.48853127279483" stroke="#006340" stroke-width="1"/><rect x="374.6" y="176.31119271735344" width="13.799999999999999" height="51.781606882535755" fill="#006340"/><line x1="404.5" y1="166.0592464453096" x2="404.5" y2="326.9795301322678" stroke="#A02128" stroke-width="1"/><rect x="397.6" y="176.31119271735344" width="13.799999999999999" height="106.99193156808292" fill="#A02128"/><line x1="427.5" y1="173.85577680645304" x2="427.5" y2="311.92059201388645" stroke="#006340" stroke-width="1"/><rect x="420.6" y="240.15697364713208" width="13.799999999999999" height="43.14615063830428" fill="#006340"/><line x1="450.5" y1="115.01335508632371" x2="450.5" y2="309.6188432756664" stroke="#006340" stroke-width="1"/><rect x="443.6" y="135.3257022886977" width="13.799999999999999" height="104.83127135843438" fill="#006340"/><line x1="473.5" y1="94.27374712398148" x2="473.5" y2="251.59202855241415" stroke="#A02128" stroke-width="1"/><rect x="466.6" y="135.3257022886977" width="13.799999999999999" height="84.75649498490185" fill="#A02128"/><line x1="496.5" y1="94.77385048231122" x2="496.5" y2="235.71275390821387" stroke="#006340" stroke-width="1"/><rect x="489.6" y="141.17069462448973" width="13.799999999999999" height="78.91150264910982" fill="#006340"/><line x1="519.5" y1="93.82974874835509" x2="519.5" y2="228.62421894049533" stroke="#A02128" stroke-width="1"/><rect x="512.6" y="141.17069462448973" width="13.799999999999999" height="68.13564404140601" fill="#A02128"/><line x1="542.5" y1="157.46705413830222" x2="542.5" y2="234.01388383662612" stroke="#006340" stroke-width="1"/><rect x="535.6" y="202.14172544711926" width="13.799999999999999" height="7.164613218776481" fill="#006340"/><line x1="565.5" y1="106.43757966468627" x2="565.5" y2="242.03637513255256" stroke="#006340" stroke-width="1"/><rect x="558.6" y="135.6056417959278" width="13.799999999999999" height="66.53608365119146" fill="#006340"/><line x1="588.5" y1="58.59109905678338" x2="588.5" y2="173.70804916217878" stroke="#006340" stroke-width="1"/><rect x="581.6" y="60.09404309923639" width="13.799999999999999" height="75.51159869669141" fill="#006340"/><line x1="611.5" y1="24" x2="611.5" y2="177.7723793508028" stroke="#A02128" stroke-width="1"/><rect x="604.6" y="60.09404309923639" width="13.799999999999999" height="57.673609496945346" fill="#A02128"/><line x1="634.5" y1="110.28803712171464" x2="634.5" y2="159.30729624589685" stroke="#A02128" stroke-width="1"/><rect x="627.6" y="117.76765259618173" width="13.799999999999999" height="9.821209505566912" fill="#A02128"/><line x1="657.5" y1="65.83806431020787" x2="657.5" y2="174.52287375871992" stroke="#006340" stroke-width="1"/><rect x="650.6" y="123.49978300040732" width="13.799999999999999" height="4.089079101341326" fill="#006340"/><line x1="680.5" y1="82.64014843005725" x2="680.5" y2="232.51934308274986" stroke="#A02128" stroke-width="1"/><rect x="673.6" y="123.49978300040732" width="13.799999999999999" height="91.68490394730134" fill="#A02128"/><line x1="703.5" y1="115.12289911815901" x2="703.5" y2="255.20700037804568" stroke="#006340" stroke-width="1"/><rect x="696.6" y="164.62492115501885" width="13.799999999999999" height="50.5597657926898" fill="#006340"/><line x1="726.5" y1="132.48086956004352" x2="726.5" y2="343.5334378337732" stroke="#A02128" stroke-width="1"/><rect x="719.6" y="164.62492115501885" width="13.799999999999999" height="108.49445845345662" fill="#A02128"/><line x1="749.5" y1="222.14999117502725" x2="749.5" y2="369.58522657914057" stroke="#A02128" stroke-width="1"/><rect x="742.6" y="273.11937960847547" width="13.799999999999999" height="52.42071386070404" fill="#A02128"/><line x1="772.5" y1="283.2845952930629" x2="772.5" y2="427.59221334170036" stroke="#A02128" stroke-width="1"/><rect x="765.6" y="325.5400934691795" width="13.799999999999999" height="47.413351728591294" fill="#A02128"/><line x1="795.5" y1="275.66715431574863" x2="795.5" y2="433.3014825809962" stroke="#006340" stroke-width="1"/><rect x="788.6" y="344.863468828716" width="13.799999999999999" height="28.089976369054796" fill="#006340"/><line x1="818.5" y1="211.48407028030948" x2="818.5" y2="402.6009056692525" stroke="#006340" stroke-width="1"/><rect x="811.6" y="252.8057653339484" width="13.799999999999999" height="92.05770349476762" fill="#006340"/><line x1="841.5" y1="133.04079025823705" x2="841.5" y2="282.7835371098328" stroke="#006340" stroke-width="1"/><rect x="834.6" y="201.87172715178286" width="13.799999999999999" height="50.93403818216552" fill="#006340"/><line x1="864.5" y1="67.46752101293987" x2="864.5" y2="226.93653445238772" stroke="#006340" stroke-width="1"/><rect x="857.6" y="111.47867706618479" width="13.799999999999999" height="90.39305008559808" fill="#006340"/><line x1="887.5" y1="110.01016125154206" x2="887.5" y2="215.32802803565932" stroke="#A02128" stroke-width="1"/><rect x="880.6" y="111.47867706618479" width="13.799999999999999" height="81.92081178498256" fill="#A02128"/><line x1="910.5" y1="174.33809137202343" x2="910.5" y2="277.9850598191344" stroke="#A02128" stroke-width="1"/><rect x="903.6" y="193.39948885116735" width="13.799999999999999" height="36.20818514011842" fill="#A02128"/><line x1="933.5" y1="196.03196315926385" x2="933.5" y2="322.863039086444" stroke="#A02128" stroke-width="1"/><rect x="926.6" y="229.60767399128576" width="13.799999999999999" height="34.01777813160908" fill="#A02128"/><line x1="956.5" y1="170.84775681066645" x2="956.5" y2="280.5753231787911" stroke="#006340" stroke-width="1"/><rect x="949.6" y="219.94325289850428" width="13.799999999999999" height="43.68219922439056" fill="#006340"/><line x1="979.5" y1="168.45761572578368" x2="979.5" y2="229.0205815501788" stroke="#006340" stroke-width="1"/><rect x="972.6" y="208.80021403240409" width="13.799999999999999" height="11.143038866100198" fill="#006340"/><line x1="1002.5" y1="162.76803362020286" x2="1002.5" y2="243.55272874295594" stroke="#006340" stroke-width="1"/><rect x="995.6" y="202.09572203421874" width="13.799999999999999" height="6.704491998185347" fill="#006340"/><line x1="1025.5" y1="136.65590112298423" x2="1025.5" y2="220.42250701353208" stroke="#A02128" stroke-width="1"/><rect x="1018.6" y="202.09572203421874" width="13.799999999999999" height="14.606647503279873" fill="#A02128"/><line x1="1048.5" y1="181.63314695810658" x2="1048.5" y2="320.31160266956516" stroke="#A02128" stroke-width="1"/><rect x="1041.6" y="216.7023695374986" width="13.799999999999999" height="101.34628246679608" fill="#A02128"/><line x1="1071.5" y1="285.0343248785351" x2="1071.5" y2="409.96633660137275" stroke="#A02128" stroke-width="1"/><rect x="1064.6" y="318.0486520042947" width="13.799999999999999" height="57.80873428165194" fill="#A02128"/><line x1="1094.5" y1="329.8562949011039" x2="1094.5" y2="476.8221391212802" stroke="#A02128" stroke-width="1"/><rect x="1087.6" y="375.85738628594663" width="13.799999999999999" height="97.80310312747656" fill="#A02128"/><line x1="1117.5" y1="424.3477693218573" x2="1117.5" y2="533.8866302924611" stroke="#A02128" stroke-width="1"/><rect x="1110.6" y="473.6604894134232" width="13.799999999999999" height="41.35182658815995" fill="#A02128"/><line x1="1140.5" y1="507.9029228205681" x2="1140.5" y2="652" stroke="#A02128" stroke-width="1"/><rect x="1133.6" y="515.0123160015831" width="13.799999999999999" height="92.37255586215122" fill="#A02128"/>
</svg>