<svg xmlns="http://www.w3.org/2000/svg" width="1200" height="700">
  <rect width="100%" height="100%" fill="#0d1117"/>
  <line x1="48" y1="24" x2="1152" y2="24" stroke="#21262d" stroke-width="1"/><line x1="48" y1="181" x2="1152" y2="181" stroke="#21262d" stroke-width="1"/><line x1="48" y1="338" x2="1152" y2="338" stroke="#21262d" stroke-width="1"/><line x1="48" y1="495" x2="1152" y2="495" stroke="#21262d" stroke-width="1"/><line x1="48" y1="652" x2="1152" y2="652" stroke="#21262d" stroke-width="1"/>
  <line x1="59.5" y1="261.0637071166731" x2="59.5" y2="343.0962115120568" stroke="#006340" stroke-width="1"/><rect x="52.6" y="308.60710467236436" width="13.799999999999999" height="1" fill="#006340"/><line x1="82.5" y1="215.54337786183197" x2="82.5" y2="375.0265166789613" stroke="#006340" stroke-width="1"/><rect x="75.6" y="261.08533960306085" width="13.799999999999999" height="47.52176506930351" fill="#006340"/><line x1="105.5" y1="199.3191300545809" x2="105.5" y2="376.8516409242703" stroke="#A02128" stroke-width="1"/><rect x="98.6" y="261.08533960306085" width="13.799999999999999" height="96.9171828812585" fill="#A02128"/><line x1="128.5" y1="346.1294308592517" x2="128.5" y2="429.95809377259224" stroke="#A02128" stroke-width="1"/><rect x="121.6" y="358.00252248431934" width="13.799999999999999" height="46.390213289749795" fill="#A02128"/><line x1="151.5" y1="375.0559826732027" x2="151.5" y2="504.8099692896907" stroke="#A02128" stroke-width="1"/><rect x="144.6" y="404.39273577406914" width="13.799999999999999" height="64.16057335118063" fill="#A02128"/><line x1="174.5" y1="429.1249892802337" x2="174.5" y2="518.4724398228558" stroke="#A02128" stroke-width="1"/><rect x="167.6" y="468.55330912524977" width="13.799999999999999" height="17.77644157208971" fill="#A02128"/><line x1="197.5" y1="348.5633694235392" x2="197.5" y2="533.2768743165965" stroke="#006340" stroke-width="1"/><rect x="190.6" y="381.7267021227607" width="13.799999999999999" height="104.60304857457879" fill="#006340"/><line x1="220.5" y1="318.6721540756544" x2="220.5" y2="400.6376427006076" stroke="#006340" stroke-width="1"/><rect x="213.6" y="375.8259571749425" width="13.799999999999999" height="5.900744947818168" fill="#006340"/><line x1="243.5" y1="222.18097524025438" x2="243.5" y2="378.49196720641925" stroke="#006340" stroke-width="1"/><rect x="236.6" y="265.96885906390736" width="13.799999999999999" height="109.85709811103516" fill="#006340"/><line x1="266.5" y1="177.26016090140547" x2="266.5" y2="273.79936133905005" stroke="#006340" stroke-width="1"/><rect x="259.6" y="191.00914939767927" width="13.799999999999999" height="74.9597096662281" fill="#006340"/><line x1="289.5" y1="184.0423888457205" x2="289.5" y2="252.6397064055799" stroke="#A02128" stroke-width="1"/><rect x="282.6" y="191.00914939767927" width="13.799999999999999" height="41.56539984920943" fill="#A02128"/><line x1="312.5" y1="213.21820828435466" x2="312.5" y2="262.15815123036737" stroke="#A02128" stroke-width="1"/><rect x="305.6" y="232.5745492468887" width="13.799999999999999" height="24.521067103501423" fill="#A02128"/><line x1="335.5" y1="229.61615148798745" x2="335.5" y2="314.7670059542376" stroke="#006340" stroke-width="1"/><rect x="328.6" y="233.4243447701724" width="13.799999999999999" height="23.671271580217706" fill="#006340"/><line x1="358.5" y1="164.67335050836135" x2="358.5" y2="291.2596441768837" stroke="#A02128" stroke-width="1"/><rect x="351.6" y="233.4243447701724" width="13.799999999999999" height="55.08688185946505" fill="#A02128"/><line x1="381.5" y1="143.53456528735148" x2="381.5" y2="291.41332485791776" stroke="#006340" stroke-width="1"/><rect x="374.6" y="202.41898230299228" width="13.799999999999999" height="86.09224432664519" fill="#006340"/><line x1="404.5" y1="165.57050037685383" x2="404.5" y2="345.697702971069" stroke="#A02128" stroke-width="1"/><rect x="397.6" y="202.41898230299228" width="13.799999999999999" height="72.62182414673401" fill="#A02128"/><line x1="427.5" y1="216.50625704662707" x2="427.5" y2="323.5376362917247" stroke="#006340" stroke-width="1"/><rect x="420.6" y="228.98576292727603" width="13.799999999999999" height="46.05504352245026" fill="#006340"/><line x1="450.5" y1="163.5091646225684" x2="450.5" y2="277.6348330484887" stroke="#006340" stroke-width="1"/><rect x="443.6" y="210.8554761953959" width="13.799999999999999" height="18.13028673188012" fill="#006340"/><line x1="473.5" y1="108.74104663004812" x2="473.5" y2="262.1142444547886" stroke="#006340" stroke-width="1"/><rect x="466.6" y="119.3496530634701" width="13.799999999999999" height="91.50582313192581" fill="#006340"/><line x1="496.5" y1="46.58339649539607" x2="496.5" y2="128.96890477255067" stroke="#006340" stroke-width="1"/><rect x="489.6" y="113.25246330515563" width="13.799999999999999" height="6.097189758314471" fill="#006340"/><line x1="519.5" y1="68.05805573602788" x2="519.5" y2="204.63188283575727" stroke="#A02128" stroke-width="1"/><rect x="512.6" y="113.25246330515563" width="13.799999999999999" height="90.24505230447278" fill="#A02128"/><line x1="542.5" y1="118.23571322294276" x2="542.5" y2="276.1695313817837" stroke="#006340" stroke-width="1"/><rect x="535.6" y="127.41352276571342" width="13.799999999999999" height="76.08399284391498" fill="#006340"/><line x1="565.5" y1="52.01175633056209" x2="565.5" y2="174.65552590629733" stroke="#A02128" stroke-width="1"/><rect x="558.6" y="127.41352276571342" width="13.799999999999999" height="12.6770374599501" fill="#A02128"/><line x1="588.5" y1="77.59413569980813" x2="588.5" y2="278.7658019198712" stroke="#A02128" stroke-width="1"/><rect x="581.6" y="140.09056022566352" width="13.799999999999999" height="77.7678869502032" fill="#A02128"/><line x1="611.5" y1="134.1965538682383" x2="611.5" y2="287.8296360048269" stroke="#006340" stroke-width="1"/><rect x="604.6" y="140.66898731605949" width="13.799999999999999" height="77.18945985980724" fill="#006340"/><line x1="634.5" y1="90.61569858570488" x2="634.5" y2="200.67186335350772" stroke="#A02128" stroke-width="1"/><rect x="627.6" y="140.66898731605949" width="13.799999999999999" height="14.003893733505379" fill="#A02128"/><line x1="657.5" y1="98.32259987998066" x2="657.5" y2="190.1821244044961" stroke="#006340" stroke-width="1"/><rect x="650.6" y="144.3467179358172" width="13.799999999999999" height="10.326163113747668" fill="#006340"/><line x1="680.5" y1="102.7678272081522" x2="680.5" y2="149.9444374770638" stroke="#006340" stroke-width="1"/><rect x="673.6" y="107.77816636256875" width="13.799999999999999" height="36.56855157324844" fill="#006340"/><line x1="703.5" y1="42.13152009673513" x2="703.5" y2="118.5254808959586" stroke="#006340" stroke-width="1"/><rect x="696.6" y="90.61240856691256" width="13.799999999999999" height="17.16575779565619" fill="#006340"/><line x1="726.5" y1="24" x2="726.5" y2="188.5392855841755" stroke="#A02128" stroke-width="1"/><rect x="719.6" y="90.61240856691256" width="13.799999999999999" height="35.69098643323093" fill="#A02128"/><line x1="749.5" y1="30.80536864103101" x2="749.5" y2="133.36486411912892" stroke="#006340" stroke-width="1"/><rect x="742.6" y="95.65262033866736" width="13.799999999999999" height="30.650774661476134" fill="#006340"/><line x1="772.5" y1="68.90011957347986" x2="772.5" y2="258.78916359974176" stroke="#A02128" stroke-width="1"/><rect x="765.6" y="95.65262033866736" width="13.799999999999999" height="93.97109165329493" fill="#A02128"/><line x1="795.5" y1="147.94966849079032" x2="795.5" y2="283.84257982283003" stroke="#A02128" stroke-width="1"/><rect x="788.6" y="189.6237119919623" width="13.799999999999999" height="59.397123746939144" fill="#A02128"/><line x1="818.5" y1="229.68701832610105" x2="818.5" y2="310.89589634063395" stroke="#A02128" stroke-width="1"/><rect x="811.6" y="249.02083573890144" width="13.799999999999999" height="15.012174546865538" fill="#A02128"/><line x1="841.5" y1="245.24514573808" x2="841.5" y2="347.6683583459827" stroke="#A02128" stroke-width="1"/><rect x="834.6" y="264.033010285767" width="13.799999999999999" height="47.50563453100415" fill="#A02128"/><line x1="864.5" y1="226.78812878906075" x2="864.5" y2="312.0839065450496" stroke="#006340" stroke-width="1"/><rect x="857.6" y="294.20718655118117" width="13.799999999999999" height="17.33145826558996" fill="#006340"/><line x1="887.5" y1="261.8697947674571" x2="887.5" y2="341.08114747253705" stroke="#006340" stroke-width="1"/><rect x="880.6" y="285.9935865271125" width="13.799999999999999" height="8.213600024068683" fill="#006340"/><line x1="910.5" y1="200.75639631303176" x2="910.5" y2="335.37211083465996" stroke="#006340" stroke-width="1"/><rect x="903.6" y="223.57279169824267" width="13.799999999999999" height="62.420794828869816" fill="#006340"/><line x1="933.5" y1="221.0184608642312" x2="933.5" y2="391.5641658528798" stroke="#A02128" stroke-width="1"/><rect x="926.6" y="223.57279169824267" width="13.799999999999999" height="94.4318340952887" fill="#A02128"/><line x1="956.5" y1="146.3393131821349" x2="956.5" y2="343.9244702260006" stroke="#006340" stroke-width="1"/><rect x="949.6" y="218.0178457405451" width="13.799999999999999" height="99.98678005298626" fill="#006340"/><line x1="979.5" y1="131.7709500242296" x2="979.5" y2="234.30493102202973" stroke="#006340" stroke-width="1"/><rect x="972.6" y="169.24308468574066" width="13.799999999999999" height="48.77476105480446" fill="#006340"/><line x1="1002.5" y1="150.38825536618577" x2="1002.5" y2="258.5729433516731" stroke="#A02128" stroke-width="1"/><rect x="995.6" y="169.24308468574066" width="13.799999999999999" height="62.815546666750436" fill="#A02128"/><line x1="1025.5" y1="222.9599610712968" x2="1025.5" y2="327.13480595690044" stroke="#A02128" stroke-width="1"/><rect x="1018.6" y="232.0586313524911" width="13.799999999999999" height="93.9881210545874" fill="#A02128"/><line x1="1048.5" y1="215.66385296374204" x2="1048.5" y2="366.441010502799" stroke="#006340" stroke-width="1"/><rect x="1041.6" y="267.72536117749934" width="13.799999999999999" height="58.32139122957915" fill="#006340"/><line x1="1071.5" y1="242.45417140801652" x2="1071.5" y2="389.88464772762944" stroke="#A02128" stroke-width="1"/><rect x="1064.6" y="267.72536117749934" width="13.799999999999999" height="98.53107353728183" fill="#A02128"/><line x1="1094.5" y1="302.9914082509342" x2="1094.5" y2="370.9137715220444" stroke="#006340" stroke-width="1"/><rect x="1087.6" y="333.59869390589415" width="13.799999999999999" height="32.65774080888701" fill="#006340"/><line x1="1117.5" y1="264.46313229706186" x2="1117.5" y2="652" stroke="#A02128" stroke-width="1"/><rect x="1110.6" y="333.59869390589415" width="13.799999999999999" height="279.995401899199" fill="#A02128"/><line x1="1140.5" y1="463.15042197605203" x2="1140.5" y2="626.0237578717814" stroke="#006340" stroke-width="1"/><rect x="1133.6" y="466.5031780073798" width="13.799999999999999" height="147.09091779771336" fill="#006340"/>
</svg>