<svg xmlns="http://www.w3.org/2000/svg" width="1200" height="700">
  <rect width="100%" height="100%" fill="#0d1117"/>
  <line x1="48" y1="24" x2="1152" y2="24" stroke="#21262d" stroke-width="1"/><line x1="48" y1="181" x2="1152" y2="181" stroke="#21262d" stroke-width="1"/><line x1="48" y1="338" x2="1152" y2="338" stroke="#21262d" stroke-width="1"/><line x1="48" y1="495" x2="1152" y2="495" stroke="#21262d" stroke-width="1"/><line x1="48" y1="652" x2="1152" y2="652" stroke="#21262d" stroke-width="1"/>
  <line x1="59.5" y1="470.0662867728943" x2="59.5" y2="560.2841385043666" stroke="#A02128" stroke-width="1"/><rect x="52.6" y="518.7032340363153" width="13.799999999999999" height="36.10727179790945" fill="#A02128"/><line x1="82.5" y1="482.471142874468" x2="82.5" y2="573.8960150652254" stroke="#006340" stroke-width="1"/><rect x="75.6" y="513.0453504894064" width="13.799999999999999" height="41.76515534481837" fill="#006340"/><line x1="105.5" y1="490.89894729076354" x2="105.5" y2="644.9396998067912" stroke="#A02128" stroke-width="1"/><rect x="98.6" y="513.0453504894064" width="13.799999999999999" height="97.3974810248668" fill="#A02128"/><line x1="128.5" y1="532.5581573623269" x2="128.5" y2="641.2411356860704" stroke="#006340" stroke-width="1"/><rect x="121.6" y="592.2454237060631" width="13.799999999999999" height="18.197407808210073" fill="#006340"/><line x1="151.5" y1="578.8413455335224" x2="151.5" y2="626.5457689002799" stroke="#A02128" stroke-width="1"/><rect x="144.6" y="592.2454237060631" width="13.799999999999999" height="28.028040544712553" fill="#A02128"/><line x1="174.5" y1="512.4013794296008" x2="174.5" y2="652" stroke="#006340" stroke-width="1"/><rect x="167.6" y="566.2569756739339" width="13.799999999999999" height="54.016488576841766" fill="#006340"/><line x1="197.5" y1="502.0216574968396" x2="197.5" y2="625.3021094293389" stroke="#006340" stroke-width="1"/><rect x="190.6" y="543.3440791920784" width="13.799999999999999" height="22.912896481855455" fill="#006340"/><line x1="220.5" y1="492.5910627346043" x2="220.5" y2="599.0250233701225" stroke="#A02128" stroke-width="1"/><rect x="213.6" y="543.3440791920784" width="13.799999999999999" height="27.411809539559954" fill="#A02128"/><line x1="243.5" y1="453.9489836895335" x2="243.5" y2="614.3297002005158" stroke="#006340" stroke-width="1"/><rect x="236.6" y="494.1064593073882" width="13.799999999999999" height="76.64942942425017" fill="#006340"/><line x1="266.5" y1="470.2657419906169" x2="266.5" y2="598.5258947199001" stroke="#A02128" stroke-width="1"/><rect x="259.6" y="494.1064593073882" width="13.799999999999999" height="91.52514765875566" fill="#A02128"/><line x1="289.5" y1="486.26022793135246" x2="289.5" y2="589.0137584727582" stroke="#006340" stroke-width="1"/><rect x="282.6" y="498.3213062632319" width="13.799999999999999" height="87.31030070291195" fill="#006340"/><line x1="312.5" y1="416.9680696869401" x2="312.5" y2="502.4714894030468" stroke="#006340" stroke-width="1"/><rect x="305.6" y="421.26847574828895" width="13.799999999999999" height="77.05283051494297" fill="#006340"/><line x1="335.5" y1="266.598553774573" x2="335.5" y2="434.0140581874218" stroke="#006340" stroke-width="1"/><rect x="328.6" y="324.57887618268325" width="13.799999999999999" height="96.6895995656057" fill="#006340"/><line x1="358.5" y1="225.031452927813" x2="358.5" y2="384.3944433988356" stroke="#006340" stroke-width="1"/><rect x="351.6" y="257.0515808408359" width="13.799999999999999" height="67.52729534184732" fill="#006340"/><line x1="381.5" y1="157.12206305688818" x2="381.5" y2="279.7740340132554" stroke="#006340" stroke-width="1"/><rect x="374.6" y="176.12823075978747" width="13.799999999999999" height="80.92335008104845" fill="#006340"/><line x1="404.5" y1="33.91435200334831" x2="404.5" y2="199.4036732846704" stroke="#006340" stroke-width="1"/><rect x="397.6" y="76.39490218064304" width="13.799999999999999" height="99.73332857914443" fill="#006340"/><line x1="427.5" y1="24" x2="427.5" y2="208.2113678932053" stroke="#A02128" stroke-width="1"/><rect x="420.6" y="76.39490218064304" width="13.799999999999999" height="75.5990386161015" fill="#A02128"/><line x1="450.5" y1="90.63344037624483" x2="450.5" y2="185.19001596421504" stroke="#A02128" stroke-width="1"/><rect x="443.6" y="151.99394079674454" width="13.799999999999999" height="29.22304120350276" fill="#A02128"/><line x1="473.5" y1="134.739501056113" x2="473.5" y2="277.62351894334023" stroke="#A02128" stroke-width="1"/><rect x="466.6" y="181.2169820002473" width="13.799999999999999" height="63.30946342636378" fill="#A02128"/><line x1="496.5" y1="175.2064074619015" x2="496.5" y2="293.0874123139606" stroke="#006340" stroke-width="1"/><rect x="489.6" y="227.1313588908606" width="13.799999999999999" height="17.395086535750465" fill="#006340"/><line x1="519.5" y1="195.3963574737818" x2="519.5" y2="308.5617280803977" stroke="#A02128" stroke-width="1"/><rect x="512.6" y="227.1313588908606" width="13.799999999999999" height="59.16553065299149" fill="#A02128"/><line x1="542.5" y1="257.6493645354413" x2="542.5" y2="350.73802764945304" stroke="#A02128" stroke-width="1"/><rect x="535.6" y="286.2968895438521" width="13.799999999999999" height="34.069728649981414" fill="#A02128"/><line x1="565.5" y1="257.6533800214134" x2="565.5" y2="387.2644039451312" stroke="#A02128" stroke-width="1"/><rect x="558.6" y="320.3666181938335" width="13.799999999999999" height="17.887687209642593" fill="#A02128"/><line x1="588.5" y1="193.78345147194943" x2="588.5" y2="370.84547525488574" stroke="#006340" stroke-width="1"/><rect x="581.6" y="242.8054584292023" width="13.799999999999999" height="95.4488469742738" fill="#006340"/><line x1="611.5" y1="217.05573963484773" x2="611.5" y2="293.65365734648174" stroke="#006340" stroke-width="1"/><rect x="604.6" y="228.32637976824316" width="13.799999999999999" height="14.479078660959146" fill="#006340"/><line x1="634.5" y1="164.86740658924492" x2="634.5" y2="284.2582573536005" stroke="#006340" stroke-width="1"/><rect x="627.6" y="197.91501121304339" width="13.799999999999999" height="30.411368555199772" fill="#006340"/><line x1="657.5" y1="72.17249336585996" x2="657.5" y2="251.3440051631748" stroke="#006340" stroke-width="1"/><rect x="650.6" y="99.22968209308874" width="13.799999999999999" height="98.68532911995464" fill="#006340"/><line x1="680.5" y1="86.13017035401788" x2="680.5" y2="239.19324768808713" stroke="#A02128" stroke-width="1"/><rect x="673.6" y="99.22968209308874" width="13.799999999999999" height="90.53906752329834" fill="#A02128"/><line x1="703.5" y1="126.35164613091342" x2="703.5" y2="249.50999933392717" stroke="#A02128" stroke-width="1"/><rect x="696.6" y="189.76874961638708" width="13.799999999999999" height="43.473519048516266" fill="#A02128"/><line x1="726.5" y1="178.63043343047354" x2="726.5" y2="267.1375998290298" stroke="#006340" stroke-width="1"/><rect x="719.6" y="223.82033917926725" width="13.799999999999999" height="9.421929485636099" fill="#006340"/><line x1="749.5" y1="201.2999033457703" x2="749.5" y2="253.4611701232571" stroke="#A02128" stroke-width="1"/><rect x="742.6" y="223.82033917926725" width="13.799999999999999" height="1.2705091895845158" fill="#A02128"/><line x1="772.5" y1="172.2728372374949" x2="772.5" y2="233.98601457790903" stroke="#006340" stroke-width="1"/><rect x="765.6" y="195.44931072419593" width="13.799999999999999" height="29.64153764465584" fill="#006340"/><line x1="795.5" y1="154.6182990528451" x2="795.5" y2="247.27622722858666" stroke="#006340" stroke-width="1"/><rect x="788.6" y="163.92291382106345" width="13.799999999999999" height="31.52639690313248" fill="#006340"/><line x1="818.5" y1="147.20837270814673" x2="818.5" y2="269.38826732606424" stroke="#A02128" stroke-width="1"/><rect x="811.6" y="163.92291382106345" width="13.799999999999999" height="68.31520419846316" fill="#A02128"/><line x1="841.5" y1="153.94409207717678" x2="841.5" y2="288.2576096911448" stroke="#006340" stroke-width="1"/><rect x="834.6" y="205.6807164260439" width="13.799999999999999" height="26.557401593482723" fill="#006340"/><line x1="864.5" y1="81.68027491130204" x2="864.5" y2="209.6411840883872" stroke="#006340" stroke-width="1"/><rect x="857.6" y="106.45849195810808" width="13.799999999999999" height="99.2222244679358" fill="#006340"/><line x1="887.5" y1="74.99033398344966" x2="887.5" y2="181.1750364671933" stroke="#A02128" stroke-width="1"/><rect x="880.6" y="106.45849195810808" width="13.799999999999999" height="10.49461198028689" fill="#A02128"/><line x1="910.5" y1="82.88853960821609" x2="910.5" y2="212.47891780863444" stroke="#A02128" stroke-width="1"/><rect x="903.6" y="116.95310393839497" width="13.799999999999999" height="74.10562870331353" fill="#A02128"/><line x1="933.5" y1="131.90945031285958" x2="933.5" y2="308.58919486991766" stroke="#A02128" stroke-width="1"/><rect x="926.6" y="191.0587326417085" width="13.799999999999999" height="83.79868116275776" fill="#A02128"/><line x1="956.5" y1="149.74933142302206" x2="956.5" y2="311.3077914143052" stroke="#006340" stroke-width="1"/><rect x="949.6" y="213.46001538639257" width="13.799999999999999" height="61.39739841807369" fill="#006340"/><line x1="979.5" y1="191.114215821573" x2="979.5" y2="303.38955378680544" stroke="#A02128" stroke-width="1"/><rect x="972.6" y="213.46001538639257" width="13.799999999999999" height="76.87782101037078" fill="#A02128"/><line x1="1002.5" y1="218.51788505406176" x2="1002.5" y2="353.4042537521299" stroke="#006340" stroke-width="1"/><rect x="995.6" y="278.3229779180772" width="13.799999999999999" height="12.014858478686165" fill="#006340"/><line x1="1025.5" y1="222.86257185862058" x2="1025.5" y2="376.470879865182" stroke="#A02128" stroke-width="1"/><rect x="1018.6" y="278.3229779180772" width="13.799999999999999" height="37.9872649367141" fill="#A02128"/><line x1="1048.5" y1="205.3382955531021" x2="1048.5" y2="356.388026892349" stroke="#006340" stroke-width="1"/><rect x="1041.6" y="262.6949943300217" width="13.799999999999999" height="53.615248524769584" fill="#006340"/><line x1="1071.5" y1="162.56705354619857" x2="1071.5" y2="323.0987813746962" stroke="#006340" stroke-width="1"/><rect x="1064.6" y="178.26114896833622" width="13.799999999999999" height="84.43384536168548" fill="#006340"/><line x1="1094.5" y1="134.20935900657219" x2="1094.5" y2="244.40963352086698" stroke="#A02128" stroke-width="1"/><rect x="1087.6" y="178.26114896833622" width="13.799999999999999" height="20.548470214733072" fill="#A02128"/><line x1="1117.5" y1="182.20882411596222" x2="1117.5" y2="251.300995967701" stroke="#006340" stroke-width="1"/><rect x="1110.6" y="196.28163187525735" width="13.799999999999999" height="2.527987307811941" fill="#006340"/><line x1="1140.5" y1="186.59752235458166" x2="1140.5" y2="277.6739272862273" stroke="#A02128" stroke-width="1"/><rect x="1133.6" y="196.28163187525735" width="13.799999999999999" height="34.63209353826892" fill="#A02128"/>
</svg>