<svg xmlns="http://www.w3.org/2000/svg" width="1200" height="700">
  <rect width="100%" height="100%" fill="#0d1117"/>
  <line x1="48" y1="24" x2="1152" y2="24" stroke="#21262d" stroke-width="1"/><line x1="48" y1="181" x2="1152" y2="181" stroke="#21262d" stroke-width="1"/><line x1="48" y1="338" x2="1152" y2="338" stroke="#21262d" stroke-width="1"/><line x1="48" y1="495" x2="1152" y2="495" stroke="#21262d" stroke-width="1"/><line x1="48" y1="652" x2="1152" y2="652" stroke="#21262d" stroke-width="1"/>
  <line x1="59.5" y1="618.5426344981614" x2="59.5" y2="652" stroke="#006340" stroke-width="1"/><rect x="52.6" y="622.2246181590242" width="13.799999999999999" height="29.746816644657997" fill="#006340"/><line x1="82.5" y1="571.4401074391758" x2="82.5" y2="626.1730051986141" stroke="#006340" stroke-width="1"/><rect x="75.6" y="587.8125759646593" width="13.799999999999999" height="34.41204219436486" fill="#006340"/><line x1="105.5" y1="571.0533146907337" x2="105.5" y2="612.1859878112002" stroke="#A02128" stroke-width="1"/><rect x="98.6" y="587.8125759646593" width="13.799999999999999" height="12.609135407504255" fill="#A02128"/><line x1="128.5" y1="589.300354483371" x2="128.5" y2="620.8184464074988" stroke="#A02128" stroke-width="1"/><rect x="121.6" y="600.4217113721636" width="13.799999999999999" height="8.366907856791045" fill="#A02128"/><line x1="151.5" y1="593.9723174397453" x2="151.5" y2="625.0750772836775" stroke="#A02128" stroke-width="1"/><rect x="144.6" y="608.7886192289546" width="13.799999999999999" height="12.340161293845654" fill="#A02128"/><line x1="174.5" y1="613.5276659087054" x2="174.5" y2="625.9117212944692" stroke="#006340" stroke-width="1"/><rect x="167.6" y="614.8855859513168" width="13.799999999999999" height="6.243194571483514" fill="#006340"/><line x1="197.5" y1="566.2190095698634" x2="197.5" y2="618.4745226706053" stroke="#006340" stroke-width="1"/><rect x="190.6" y="576.02673863871" width="13.799999999999999" height="38.85884731260683" fill="#006340"/><line x1="220.5" y1="545.7068267908561" x2="220.5" y2="592.3414016619116" stroke="#006340" stroke-width="1"/><rect x="213.6" y="546.4087306807733" width="13.799999999999999" height="29.618007957936697" fill="#006340"/><line x1="243.5" y1="492.0574964412624" x2="243.5" y2="560.0361642709795" stroke="#006340" stroke-width="1"/><rect x="236.6" y="509.0380082583081" width="13.799999999999999" height="37.37072242246518" fill="#006340"/><line x1="266.5" y1="498.0647777037452" x2="266.5" y2="510.27076746557736" stroke="#006340" stroke-width="1"/><rect x="259.6" y="503.1203537134103" width="13.799999999999999" height="5.9176545448978" fill="#006340"/><line x1="289.5" y1="476.54834553522846" x2="289.5" y2="514.9038898615026" stroke="#006340" stroke-width="1"/><rect x="282.6" y="487.3350632098565" width="13.799999999999999" height="15.785290503553767" fill="#006340"/><line x1="312.5" y1="471.4763625204853" x2="312.5" y2="509.6397256303845" stroke="#A02128" stroke-width="1"/><rect x="305.6" y="487.3350632098565" width="13.799999999999999" height="10.029261650517412" fill="#A02128"/><line x1="335.5" y1="473.8367763999828" x2="335.5" y2="501.38721463799163" stroke="#006340" stroke-width="1"/><rect x="328.6" y="488.35612163886617" width="13.799999999999999" height="9.008203221507756" fill="#006340"/><line x1="358.5" y1="471.4913329222336" x2="358.5" y2="499.8691679159457" stroke="#A02128" stroke-width="1"/><rect x="351.6" y="488.35612163886617" width="13.799999999999999" height="7.942258061988696" fill="#A02128"/><line x1="381.5" y1="466.1518236732635" x2="381.5" y2="506.31515574041265" stroke="#006340" stroke-width="1"/><rect x="374.6" y="477.11755195097453" width="13.799999999999999" height="19.180827749880336" fill="#006340"/><line x1="404.5" y1="462.37263237729854" x2="404.5" y2="484.84476992099025" stroke="#006340" stroke-width="1"/><rect x="397.6" y="468.7257474793447" width="13.799999999999999" height="8.391804471629825" fill="#006340"/><line x1="427.5" y1="457.4938588948813" x2="427.5" y2="489.5940987618055" stroke="#A02128" stroke-width="1"/><rect x="420.6" y="468.7257474793447" width="13.799999999999999" height="9.170885864431739" fill="#A02128"/><line x1="450.5" y1="428.46213200602915" x2="450.5" y2="486.640975389452" stroke="#006340" stroke-width="1"/><rect x="443.6" y="443.9682517208654" width="13.799999999999999" height="33.92838162291105" fill="#006340"/><line x1="473.5" y1="435.6411831303044" x2="473.5" y2="461.41805014762554" stroke="#A02128" stroke-width="1"/><rect x="466.6" y="443.9682517208654" width="13.799999999999999" height="5.614090052067695" fill="#A02128"/><line x1="496.5" y1="431.84359716989684" x2="496.5" y2="469.28811832088957" stroke="#A02128" stroke-width="1"/><rect x="489.6" y="449.5823417729331" width="13.799999999999999" height="3.008058505432814" fill="#A02128"/><line x1="519.5" y1="399.4423800848964" x2="519.5" y2="454.34376580070875" stroke="#006340" stroke-width="1"/><rect x="512.6" y="415.9769675339012" width="13.799999999999999" height="36.61343274446472" fill="#006340"/><line x1="542.5" y1="377.28389446743745" x2="542.5" y2="424.97981525744456" stroke="#006340" stroke-width="1"/><rect x="535.6" y="382.26577731545547" width="13.799999999999999" height="33.71119021844572" fill="#006340"/><line x1="565.5" y1="363.76190998304116" x2="565.5" y2="388.8002588605125" stroke="#006340" stroke-width="1"/><rect x="558.6" y="377.08704183151747" width="13.799999999999999" height="5.178735483937999" fill="#006340"/><line x1="588.5" y1="359.61934478946546" x2="588.5" y2="401.08710910030686" stroke="#A02128" stroke-width="1"/><rect x="581.6" y="377.08704183151747" width="13.799999999999999" height="10.391680191127023" fill="#A02128"/><line x1="611.5" y1="379.9799064406694" x2="611.5" y2="394.2412283963515" stroke="#006340" stroke-width="1"/><rect x="604.6" y="384.9022882420027" width="13.799999999999999" height="2.5764337806417643" fill="#006340"/><line x1="634.5" y1="384.35763286265126" x2="634.5" y2="400.2931468257127" stroke="#A02128" stroke-width="1"/><rect x="627.6" y="384.9022882420027" width="13.799999999999999" height="2.3629693401416034" fill="#A02128"/><line x1="657.5" y1="386.1595687289834" x2="657.5" y2="401.9157022353271" stroke="#006340" stroke-width="1"/><rect x="650.6" y="386.8627673765225" width="13.799999999999999" height="1" fill="#006340"/><line x1="680.5" y1="350.06903625900617" x2="680.5" y2="395.1851564007951" stroke="#006340" stroke-width="1"/><rect x="673.6" y="360.22354288989004" width="13.799999999999999" height="26.639224486632486" fill="#006340"/><line x1="703.5" y1="327.4732262741442" x2="703.5" y2="365.78147417609614" stroke="#006340" stroke-width="1"/><rect x="696.6" y="338.45015043946006" width="13.799999999999999" height="21.77339245042998" fill="#006340"/><line x1="726.5" y1="289.9362123072353" x2="726.5" y2="350.81595775590245" stroke="#006340" stroke-width="1"/><rect x="719.6" y="303.77191073205717" width="13.799999999999999" height="34.678239707402895" fill="#006340"/><line x1="749.5" y1="285.9696234253179" x2="749.5" y2="322.1381961046828" stroke="#006340" stroke-width="1"/><rect x="742.6" y="297.1773495342133" width="13.799999999999999" height="6.594561197843859" fill="#006340"/><line x1="772.5" y1="280.4128794882034" x2="772.5" y2="302.64741137694017" stroke="#006340" stroke-width="1"/><rect x="765.6" y="288.12898790692066" width="13.799999999999999" height="9.04836162729265" fill="#006340"/><line x1="795.5" y1="278.68989510750754" x2="795.5" y2="300.2247054071019" stroke="#006340" stroke-width="1"/><rect x="788.6" y="282.2542181844881" width="13.799999999999999" height="5.874769722432575" fill="#006340"/><line x1="818.5" y1="246.10711323097428" x2="818.5" y2="298.60712764225985" stroke="#006340" stroke-width="1"/><rect x="811.6" y="264.7503018055464" width="13.799999999999999" height="17.503916378941653" fill="#006340"/><line x1="841.5" y1="235.61159640529178" x2="841.5" y2="272.0792387214427" stroke="#006340" stroke-width="1"/><rect x="834.6" y="245.23994892833713" width="13.799999999999999" height="19.5103528772093" fill="#006340"/><line x1="864.5" y1="243.97901624432484" x2="864.5" y2="256.7168556363605" stroke="#006340" stroke-width="1"/><rect x="857.6" y="245.12453333978738" width="13.799999999999999" height="1" fill="#006340"/><line x1="887.5" y1="231.3571282376255" x2="887.5" y2="255.14257216088902" stroke="#A02128" stroke-width="1"/><rect x="880.6" y="245.12453333978738" width="13.799999999999999" height="6.834789952970539" fill="#A02128"/><line x1="910.5" y1="244.71460076490172" x2="910.5" y2="274.65111837838225" stroke="#A02128" stroke-width="1"/><rect x="903.6" y="251.95932329275792" width="13.799999999999999" height="4.384076323452518" fill="#A02128"/><line x1="933.5" y1="213.5785648041512" x2="933.5" y2="271.65878466868566" stroke="#006340" stroke-width="1"/><rect x="926.6" y="229.88398897151797" width="13.799999999999999" height="26.45941064469247" fill="#006340"/><line x1="956.5" y1="190.14682519761317" x2="956.5" y2="234.74243184442338" stroke="#006340" stroke-width="1"/><rect x="949.6" y="197.13001145391974" width="13.799999999999999" height="32.75397751759823" fill="#006340"/><line x1="979.5" y1="155.51619020470838" x2="979.5" y2="214.17434585916487" stroke="#006340" stroke-width="1"/><rect x="972.6" y="169.99200213208798" width="13.799999999999999" height="27.13800932183176" fill="#006340"/><line x1="1002.5" y1="157.98876897803257" x2="1002.5" y2="182.22108827625243" stroke="#006340" stroke-width="1"/><rect x="995.6" y="169.84632472216686" width="13.799999999999999" height="1" fill="#006340"/><line x1="1025.5" y1="117.31212402374035" x2="1025.5" y2="181.9150383405596" stroke="#006340" stroke-width="1"/><rect x="1018.6" y="132.75599613845918" width="13.799999999999999" height="37.090328583707674" fill="#006340"/><line x1="1048.5" y1="99.73742556169816" x2="1048.5" y2="140.65406743662504" stroke="#006340" stroke-width="1"/><rect x="1041.6" y="117.49200797157971" width="13.799999999999999" height="15.263988166879471" fill="#006340"/><line x1="1071.5" y1="82.59795104059822" x2="1071.5" y2="134.5267647274212" stroke="#006340" stroke-width="1"/><rect x="1064.6" y="84.2838391452093" width="13.799999999999999" height="33.20816882637041" fill="#006340"/><line x1="1094.5" y1="45.12258208296373" x2="1094.5" y2="86.60767491663478" stroke="#006340" stroke-width="1"/><rect x="1087.6" y="49.91074180584303" width="13.799999999999999" height="34.37309733936627" fill="#006340"/><line x1="1117.5" y1="30.306806019030205" x2="1117.5" y2="66.98678330045072" stroke="#006340" stroke-width="1"/><rect x="1110.6" y="41.50023915281406" width="13.799999999999999" height="8.41050265302897" fill="#006340"/><line x1="1140.5" y1="24" x2="1140.5" y2="42.377375195468744" stroke="#006340" stroke-width="1"/><rect x="1133.6" y="34.577754370762136" width="13.799999999999999" height="6.922484782051924" fill="#006340"/>
</svg>