<svg xmlns="http://www.w3.org/2000/svg" width="1200" height="700">
  <rect width="100%" height="100%" fill="#0d1117"/>
  <line x1="48" y1="24" x2="1152" y2="24" stroke="#21262d" stroke-width="1"/><line x1="48" y1="181" x2="1152" y2="181" stroke="#21262d" stroke-width="1"/><line x1="48" y1="338" x2="1152" y2="338" stroke="#21262d" stroke-width="1"/><line x1="48" y1="495" x2="1152" y2="495" stroke="#21262d" stroke-width="1"/><line x1="48" y1="652" x2="1152" y2="652" stroke="#21262d" stroke-width="1"/>
  <line x1="59.5" y1="606.7959708576284" x2="59.5" y2="633.7492904290995" stroke="#A02128" stroke-width="1"/><rect x="52.6" y="620.4638877742358" width="13.799999999999999" height="5.6497463565632415" fill="#A02128"/><line x1="82.5" y1="610.9141502662272" x2="82.5" y2="652" stroke="#A02128" stroke-width="1"/><rect x="75.6" y="626.113634130799" width="13.799999999999999" height="17.050758073524776" fill="#A02128"/><line x1="105.5" y1="601.8891639230022" x2="105.5" y2="651.4350014672385" stroke="#006340" stroke-width="1"/><rect x="98.6" y="616.935603128458" width="13.799999999999999" height="26.228789075865848" fill="#006340"/><line x1="128.5" y1="606.2401895728897" x2="128.5" y2="625.5635596343836" stroke="#A02128" stroke-width="1"/><rect x="121.6" y="616.935603128458" width="13.799999999999999" height="7.793764850017169" fill="#A02128"/><line x1="151.5" y1="583.8507133468368" x2="151.5" y2="631.6019561714788" stroke="#006340" stroke-width="1"/><rect x="144.6" y="597.6104882177945" width="13.799999999999999" height="27.11887976068067" fill="#006340"/><line x1="174.5" y1="596.4260132170477" x2="174.5" y2="619.0058711469575" stroke="#A02128" stroke-width="1"/><rect x="167.6" y="597.6104882177945" width="13.799999999999999" height="7.013784649646709" fill="#A02128"/><line x1="197.5" y1="572.6053789488417" x2="197.5" y2="612.9505590130109" stroke="#006340" stroke-width="1"/><rect x="190.6" y="587.4570786527821" width="13.799999999999999" height="17.167194214659048" fill="#006340"/><line x1="220.5" y1="585.962440975292" x2="220.5" y2="618.6573894233102" stroke="#A02128" stroke-width="1"/><rect x="213.6" y="587.4570786527821" width="13.799999999999999" height="16.52427104596245" fill="#A02128"/><line x1="243.5" y1="576.8947316181859" x2="243.5" y2="616.4857651068816" stroke="#006340" stroke-width="1"/><rect x="236.6" y="583.3267576846675" width="13.799999999999999" height="20.654592014077025" fill="#006340"/><line x1="266.5" y1="558.661522111767" x2="266.5" y2="596.2691628708712" stroke="#006340" stroke-width="1"/><rect x="259.6" y="560.7151575608098" width="13.799999999999999" height="22.611600123857784" fill="#006340"/><line x1="289.5" y1="541.123789618619" x2="289.5" y2="563.6703136872127" stroke="#006340" stroke-width="1"/><rect x="282.6" y="544.4617649099346" width="13.799999999999999" height="16.253392650875185" fill="#006340"/><line x1="312.5" y1="517.8483675809381" x2="312.5" y2="548.1171887351795" stroke="#006340" stroke-width="1"/><rect x="305.6" y="524.1598722363946" width="13.799999999999999" height="20.30189267354001" fill="#006340"/><line x1="335.5" y1="487.6855842641762" x2="335.5" y2="529.5564717829919" stroke="#006340" stroke-width="1"/><rect x="328.6" y="500.7674511219906" width="13.799999999999999" height="23.392421114403987" fill="#006340"/><line x1="358.5" y1="489.3515994874011" x2="358.5" y2="516.6455607768271" stroke="#006340" stroke-width="1"/><rect x="351.6" y="493.2795495487505" width="13.799999999999999" height="7.487901573240094" fill="#006340"/><line x1="381.5" y1="491.0678394028207" x2="381.5" y2="520.56685815297" stroke="#A02128" stroke-width="1"/><rect x="374.6" y="493.2795495487505" width="13.799999999999999" height="13.299929319819512" fill="#A02128"/><line x1="404.5" y1="499.8864551600168" x2="404.5" y2="523.1959813868914" stroke="#A02128" stroke-width="1"/><rect x="397.6" y="506.57947886857" width="13.799999999999999" height="11.08334479972251" fill="#A02128"/><line x1="427.5" y1="501.8867148967743" x2="427.5" y2="520.224102005372" stroke="#006340" stroke-width="1"/><rect x="420.6" y="503.2331413948842" width="13.799999999999999" height="14.429682273408275" fill="#006340"/><line x1="450.5" y1="484.70553842403757" x2="450.5" y2="506.832892833155" stroke="#006340" stroke-width="1"/><rect x="443.6" y="495.58627712133574" width="13.799999999999999" height="7.646864273548488" fill="#006340"/><line x1="473.5" y1="488.06270462915455" x2="473.5" y2="500.2802181364526" stroke="#006340" stroke-width="1"/><rect x="466.6" y="495.0169184052543" width="13.799999999999999" height="1" fill="#006340"/><line x1="496.5" y1="491.1247509091925" x2="496.5" y2="501.78834116347707" stroke="#A02128" stroke-width="1"/><rect x="489.6" y="495.0169184052543" width="13.799999999999999" height="3.1406108287014263" fill="#A02128"/><line x1="519.5" y1="495.23538067335517" x2="519.5" y2="522.2981500290445" stroke="#A02128" stroke-width="1"/><rect x="512.6" y="498.1575292339557" width="13.799999999999999" height="16.92953249929934" fill="#A02128"/><line x1="542.5" y1="503.58288534230013" x2="542.5" y2="533.9598420691098" stroke="#A02128" stroke-width="1"/><rect x="535.6" y="515.087061733255" width="13.799999999999999" height="18.2972892371223" fill="#A02128"/><line x1="565.5" y1="510.8482870456696" x2="565.5" y2="535.7708072309065" stroke="#006340" stroke-width="1"/><rect x="558.6" y="515.4371388647006" width="13.799999999999999" height="17.947212105676726" fill="#006340"/><line x1="588.5" y1="508.04613682583556" x2="588.5" y2="537.0838794426618" stroke="#A02128" stroke-width="1"/><rect x="581.6" y="515.4371388647006" width="13.799999999999999" height="19.136738397031536" fill="#A02128"/><line x1="611.5" y1="504.20976755399107" x2="611.5" y2="544.6039729460248" stroke="#006340" stroke-width="1"/><rect x="604.6" y="513.0378650322418" width="13.799999999999999" height="21.536012229490325" fill="#006340"/><line x1="634.5" y1="485.3343452871711" x2="634.5" y2="515.4767129780303" stroke="#006340" stroke-width="1"/><rect x="627.6" y="490.3262142033258" width="13.799999999999999" height="22.71165082891605" fill="#006340"/><line x1="657.5" y1="478.984698420903" x2="657.5" y2="501.9989828148152" stroke="#A02128" stroke-width="1"/><rect x="650.6" y="490.3262142033258" width="13.799999999999999" height="3.317810782367019" fill="#A02128"/><line x1="680.5" y1="488.8028891453355" x2="680.5" y2="514.2254933458843" stroke="#A02128" stroke-width="1"/><rect x="673.6" y="493.6440249856928" width="13.799999999999999" height="14.551586371959843" fill="#A02128"/><line x1="703.5" y1="502.4778559397324" x2="703.5" y2="522.3860564185978" stroke="#A02128" stroke-width="1"/><rect x="696.6" y="508.19561135765264" width="13.799999999999999" height="1.5850599019039464" fill="#A02128"/><line x1="726.5" y1="492.98576347015245" x2="726.5" y2="516.8957460717602" stroke="#006340" stroke-width="1"/><rect x="719.6" y="503.1193137132535" width="13.799999999999999" height="6.661357546303066" fill="#006340"/><line x1="749.5" y1="475.0652413338023" x2="749.5" y2="509.28164407452505" stroke="#006340" stroke-width="1"/><rect x="742.6" y="482.62694228382" width="13.799999999999999" height="20.492371429433547" fill="#006340"/><line x1="772.5" y1="476.3154991456235" x2="772.5" y2="511.76614990717417" stroke="#A02128" stroke-width="1"/><rect x="765.6" y="482.62694228382" width="13.799999999999999" height="16.184994353893785" fill="#A02128"/><line x1="795.5" y1="484.2071490385567" x2="795.5" y2="517.1205889699056" stroke="#A02128" stroke-width="1"/><rect x="788.6" y="498.81193663771376" width="13.799999999999999" height="8.252353127739298" fill="#A02128"/><line x1="818.5" y1="473.4134125425504" x2="818.5" y2="518.3013791374658" stroke="#006340" stroke-width="1"/><rect x="811.6" y="485.61821623770004" width="13.799999999999999" height="21.446073527753015" fill="#006340"/><line x1="841.5" y1="434.7117169540127" x2="841.5" y2="486.34297520477446" stroke="#006340" stroke-width="1"/><rect x="834.6" y="437.79252158114207" width="13.799999999999999" height="47.82569465655797" fill="#006340"/><line x1="864.5" y1="396.239288798926" x2="864.5" y2="453.5428461054623" stroke="#006340" stroke-width="1"/><rect x="857.6" y="401.12558638271446" width="13.799999999999999" height="36.66693519842761" fill="#006340"/><line x1="887.5" y1="373.64327328804427" x2="887.5" y2="414.5728076426389" stroke="#006340" stroke-width="1"/><rect x="880.6" y="375.6392896759953" width="13.799999999999999" height="25.486296706719145" fill="#006340"/><line x1="910.5" y1="309.9760200346179" x2="910.5" y2="375.6494226738756" stroke="#006340" stroke-width="1"/><rect x="903.6" y="319.42247276615905" width="13.799999999999999" height="56.21681690983627" fill="#006340"/><line x1="933.5" y1="290.81444714305576" x2="933.5" y2="324.4658435262663" stroke="#006340" stroke-width="1"/><rect x="926.6" y="295.8928197509462" width="13.799999999999999" height="23.52965301521283" fill="#006340"/><line x1="956.5" y1="264.4186399313756" x2="956.5" y2="300.4165664539313" stroke="#006340" stroke-width="1"/><rect x="949.6" y="271.5035838110345" width="13.799999999999999" height="24.389235939911714" fill="#006340"/><line x1="979.5" y1="207.4082145773109" x2="979.5" y2="274.6377260364184" stroke="#006340" stroke-width="1"/><rect x="972.6" y="222.6380248960396" width="13.799999999999999" height="48.86555891499489" fill="#006340"/><line x1="1002.5" y1="190.82451032504855" x2="1002.5" y2="222.95395420126312" stroke="#006340" stroke-width="1"/><rect x="995.6" y="203.9708689496457" width="13.799999999999999" height="18.667155946393905" fill="#006340"/><line x1="1025.5" y1="174.59096986552646" x2="1025.5" y2="213.40632163613742" stroke="#006340" stroke-width="1"/><rect x="1018.6" y="187.05444087920705" width="13.799999999999999" height="16.916428070438656" fill="#006340"/><line x1="1048.5" y1="145.32320627534006" x2="1048.5" y2="190.40040054613803" stroke="#006340" stroke-width="1"/><rect x="1041.6" y="154.87982457844237" width="13.799999999999999" height="32.17461630076468" fill="#006340"/><line x1="1071.5" y1="92.6795588579646" x2="1071.5" y2="165.79108282389342" stroke="#006340" stroke-width="1"/><rect x="1064.6" y="98.09167759694571" width="13.799999999999999" height="56.78814698149665" fill="#006340"/><line x1="1094.5" y1="65.54598574836496" x2="1094.5" y2="101.00453785910815" stroke="#006340" stroke-width="1"/><rect x="1087.6" y="77.75930053026354" width="13.799999999999999" height="20.33237706668217" fill="#006340"/><line x1="1117.5" y1="49.642621913321136" x2="1117.5" y2="89.63172972644554" stroke="#006340" stroke-width="1"/><rect x="1110.6" y="58.311603533746165" width="13.799999999999999" height="19.44769699651738" fill="#006340"/><line x1="1140.5" y1="24" x2="1140.5" y2="66.69016338659935" stroke="#006340" stroke-width="1"/><rect x="1133.6" y="29.73701023524586" width="13.799999999999999" height="28.574593298500304" fill="#006340"/>
</svg>