<svg xmlns="http://www.w3.org/2000/svg" width="1200" height="700">
  <rect width="100%" height="100%" fill="#0d1117"/>
  <line x1="48" y1="24" x2="1152" y2="24" stroke="#21262d" stroke-width="1"/><line x1="48" y1="181" x2="1152" y2="181" stroke="#21262d" stroke-width="1"/><line x1="48" y1="338" x2="1152" y2="338" stroke="#21262d" stroke-width="1"/><line x1="48" y1="495" x2="1152" y2="495" stroke="#21262d" stroke-width="1"/><line x1="48" y1="652" x2="1152" y2="652" stroke="#21262d" stroke-width="1"/>
  <line x1="59.5" y1="610.6310055302363" x2="59.5" y2="652" stroke="#006340" stroke-width="1"/><rect x="52.6" y="617.7912767912208" width="13.799999999999999" height="27.75056067649723" fill="#006340"/><line x1="82.5" y1="609.2192265528012" x2="82.5" y2="631.0052778510925" stroke="#006340" stroke-width="1"/><rect x="75.6" y="614.3963109997624" width="13.799999999999999" height="3.3949657914583895" fill="#006340"/><line x1="105.5" y1="582.9416856100688" x2="105.5" y2="626.4865373858013" stroke="#006340" stroke-width="1"/><rect x="98.6" y="594.5755767696968" width="13.799999999999999" height="19.82073423006557" fill="#006340"/><line x1="128.5" y1="593.5097196198215" x2="128.5" y2="607.1621986458598" stroke="#A02128" stroke-width="1"/><rect x="121.6" y="594.5755767696968" width="13.799999999999999" height="11.393812309000282" fill="#A02128"/><line x1="151.5" y1="594.8613742568942" x2="151.5" y2="629.0055084506392" stroke="#A02128" stroke-width="1"/><rect x="144.6" y="605.9693890786971" width="13.799999999999999" height="11.340676690432701" fill="#A02128"/><line x1="174.5" y1="590.5289299474642" x2="174.5" y2="622.7993601581968" stroke="#006340" stroke-width="1"/><rect x="167.6" y="603.6411294758091" width="13.799999999999999" height="13.668936293320712" fill="#006340"/><line x1="197.5" y1="562.9062921147686" x2="197.5" y2="612.3705341544662" stroke="#006340" stroke-width="1"/><rect x="190.6" y="570.6634500656533" width="13.799999999999999" height="32.977679410155815" fill="#006340"/><line x1="220.5" y1="539.6260364550598" x2="220.5" y2="575.5907997108825" stroke="#006340" stroke-width="1"/><rect x="213.6" y="541.0075895008798" width="13.799999999999999" height="29.655860564773434" fill="#006340"/><line x1="243.5" y1="511.941146777342" x2="243.5" y2="553.3265335117217" stroke="#006340" stroke-width="1"/><rect x="236.6" y="516.0009428286745" width="13.799999999999999" height="25.006646672205306" fill="#006340"/><line x1="266.5" y1="496.8159588065426" x2="266.5" y2="523.8562350064092" stroke="#006340" stroke-width="1"/><rect x="259.6" y="504.3314569066147" width="13.799999999999999" height="11.669485922059835" fill="#006340"/><line x1="289.5" y1="500.02764832207004" x2="289.5" y2="526.687976870652" stroke="#A02128" stroke-width="1"/><rect x="282.6" y="504.3314569066147" width="13.799999999999999" height="8.775931875322385" fill="#A02128"/><line x1="312.5" y1="484.42390623339895" x2="312.5" y2="514.3405708491636" stroke="#006340" stroke-width="1"/><rect x="305.6" y="494.9457977686209" width="13.799999999999999" height="18.161591013316183" fill="#006340"/><line x1="335.5" y1="489.49598328705224" x2="335.5" y2="511.94437895177344" stroke="#A02128" stroke-width="1"/><rect x="328.6" y="494.9457977686209" width="13.799999999999999" height="1.5931862842805913" fill="#A02128"/><line x1="358.5" y1="482.3171596436498" x2="358.5" y2="516.9546008207293" stroke="#A02128" stroke-width="1"/><rect x="351.6" y="496.53898405290147" width="13.799999999999999" height="5.047818090813166" fill="#A02128"/><line x1="381.5" y1="466.6224113102462" x2="381.5" y2="513.0596205520019" stroke="#006340" stroke-width="1"/><rect x="374.6" y="479.04446309835976" width="13.799999999999999" height="22.54233904535488" fill="#006340"/><line x1="404.5" y1="474.16523017028254" x2="404.5" y2="494.1301567332856" stroke="#006340" stroke-width="1"/><rect x="397.6" y="478.7293504574793" width="13.799999999999999" height="1" fill="#006340"/><line x1="427.5" y1="447.00434117359384" x2="427.5" y2="490.2480653688266" stroke="#006340" stroke-width="1"/><rect x="420.6" y="448.8225769627238" width="13.799999999999999" height="29.906773494755498" fill="#006340"/><line x1="450.5" y1="424.04816484114656" x2="450.5" y2="463.8904153715876" stroke="#006340" stroke-width="1"/><rect x="443.6" y="425.0806157914409" width="13.799999999999999" height="23.741961171282924" fill="#006340"/><line x1="473.5" y1="384.5373430830338" x2="473.5" y2="431.3427449148012" stroke="#006340" stroke-width="1"/><rect x="466.6" y="395.3290808863732" width="13.799999999999999" height="29.751534905067672" fill="#006340"/><line x1="496.5" y1="375.6532760563901" x2="496.5" y2="401.40407481326037" stroke="#006340" stroke-width="1"/><rect x="489.6" y="387.07762810686904" width="13.799999999999999" height="8.251452779504177" fill="#006340"/><line x1="519.5" y1="343.05186535305415" x2="519.5" y2="402.26229054816827" stroke="#006340" stroke-width="1"/><rect x="512.6" y="358.4465451461401" width="13.799999999999999" height="28.631082960728918" fill="#006340"/><line x1="542.5" y1="345.56744925051595" x2="542.5" y2="361.7636631441295" stroke="#006340" stroke-width="1"/><rect x="535.6" y="353.3744626557905" width="13.799999999999999" height="5.072082490349601" fill="#006340"/><line x1="565.5" y1="344.3221872327864" x2="565.5" y2="363.915104204952" stroke="#A02128" stroke-width="1"/><rect x="558.6" y="353.3744626557905" width="13.799999999999999" height="5.8749680584245425" fill="#A02128"/><line x1="588.5" y1="342.2909333396743" x2="588.5" y2="369.16842132388774" stroke="#006340" stroke-width="1"/><rect x="581.6" y="350.0041816982432" width="13.799999999999999" height="9.245249015971865" fill="#006340"/><line x1="611.5" y1="299.32536848203694" x2="611.5" y2="364.1698948962242" stroke="#006340" stroke-width="1"/><rect x="604.6" y="315.273100367421" width="13.799999999999999" height="34.73108133082218" fill="#006340"/><line x1="634.5" y1="302.7266414492471" x2="634.5" y2="322.82062864359733" stroke="#A02128" stroke-width="1"/><rect x="627.6" y="315.273100367421" width="13.799999999999999" height="2.3340802337202717" fill="#A02128"/><line x1="657.5" y1="295.34455336021784" x2="657.5" y2="322.50993933130115" stroke="#006340" stroke-width="1"/><rect x="650.6" y="310.4760071812658" width="13.799999999999999" height="7.131173419875495" fill="#006340"/><line x1="680.5" y1="306.1435751125727" x2="680.5" y2="327.30232496839665" stroke="#A02128" stroke-width="1"/><rect x="673.6" y="310.4760071812658" width="13.799999999999999" height="1.9629122009637854" fill="#A02128"/><line x1="703.5" y1="288.55307644760654" x2="703.5" y2="315.95641550800434" stroke="#006340" stroke-width="1"/><rect x="696.6" y="289.4821224807905" width="13.799999999999999" height="22.956796901439077" fill="#006340"/><line x1="726.5" y1="283.76732764195697" x2="726.5" y2="306.41252959483023" stroke="#A02128" stroke-width="1"/><rect x="719.6" y="289.4821224807905" width="13.799999999999999" height="12.226171111405904" fill="#A02128"/><line x1="749.5" y1="281.15090595156744" x2="749.5" y2="316.07242839242235" stroke="#006340" stroke-width="1"/><rect x="742.6" y="290.06283055711896" width="13.799999999999999" height="11.645463035077455" fill="#006340"/><line x1="772.5" y1="272.51624456351004" x2="772.5" y2="292.56214548150007" stroke="#006340" stroke-width="1"/><rect x="765.6" y="277.2185437437884" width="13.799999999999999" height="12.844286813330541" fill="#006340"/><line x1="795.5" y1="235.65252422888665" x2="795.5" y2="279.6881233200839" stroke="#006340" stroke-width="1"/><rect x="788.6" y="250.51443299388467" width="13.799999999999999" height="26.704110749903748" fill="#006340"/><line x1="818.5" y1="236.02629576836028" x2="818.5" y2="263.9408581777022" stroke="#A02128" stroke-width="1"/><rect x="811.6" y="250.51443299388467" width="13.799999999999999" height="4.716914415373424" fill="#A02128"/><line x1="841.5" y1="227.8055176393661" x2="841.5" y2="264.7447954678142" stroke="#006340" stroke-width="1"/><rect x="834.6" y="241.4160929316654" width="13.799999999999999" height="13.815254477592703" fill="#006340"/><line x1="864.5" y1="202.3298039749476" x2="864.5" y2="249.47021080557812" stroke="#006340" stroke-width="1"/><rect x="857.6" y="211.14071594184026" width="13.799999999999999" height="30.275376989825133" fill="#006340"/><line x1="887.5" y1="188.98295179622897" x2="887.5" y2="216.10748492361557" stroke="#006340" stroke-width="1"/><rect x="880.6" y="192.97213643779781" width="13.799999999999999" height="18.16857950404244" fill="#006340"/><line x1="910.5" y1="181.9065619716335" x2="910.5" y2="207.31250482537263" stroke="#006340" stroke-width="1"/><rect x="903.6" y="182.2858696300126" width="13.799999999999999" height="10.686266807785216" fill="#006340"/><line x1="933.5" y1="166.08593064522893" x2="933.5" y2="190.33759632547157" stroke="#006340" stroke-width="1"/><rect x="926.6" y="169.3305228917647" width="13.799999999999999" height="12.955346738247897" fill="#006340"/><line x1="956.5" y1="123.61043843371704" x2="956.5" y2="169.68034609492435" stroke="#006340" stroke-width="1"/><rect x="949.6" y="140.08332826898663" width="13.799999999999999" height="29.247194622778068" fill="#006340"/><line x1="979.5" y1="121.9429068946688" x2="979.5" y2="149.8546707160471" stroke="#006340" stroke-width="1"/><rect x="972.6" y="123.35214082395976" width="13.799999999999999" height="16.731187445026876" fill="#006340"/><line x1="1002.5" y1="104.9068018531982" x2="1002.5" y2="124.09146985713585" stroke="#006340" stroke-width="1"/><rect x="995.6" y="116.8471263546461" width="13.799999999999999" height="6.5050144693136644" fill="#006340"/><line x1="1025.5" y1="113.03179232208493" x2="1025.5" y2="139.1745578167039" stroke="#A02128" stroke-width="1"/><rect x="1018.6" y="116.8471263546461" width="13.799999999999999" height="11.975455583944495" fill="#A02128"/><line x1="1048.5" y1="107.20168750996834" x2="1048.5" y2="141.29729474854656" stroke="#006340" stroke-width="1"/><rect x="1041.6" y="114.50899475017661" width="13.799999999999999" height="14.313587188413976" fill="#006340"/><line x1="1071.5" y1="63.32504218466829" x2="1071.5" y2="123.7475803738173" stroke="#006340" stroke-width="1"/><rect x="1064.6" y="76.63664386309858" width="13.799999999999999" height="37.87235088707803" fill="#006340"/><line x1="1094.5" y1="63.872426365151455" x2="1094.5" y2="95.4764527824749" stroke="#A02128" stroke-width="1"/><rect x="1087.6" y="76.63664386309858" width="13.799999999999999" height="11.052296848902643" fill="#A02128"/><line x1="1117.5" y1="47.25029385058008" x2="1117.5" y2="103.05778048504965" stroke="#006340" stroke-width="1"/><rect x="1110.6" y="58.277035871173894" width="13.799999999999999" height="29.411904840827333" fill="#006340"/><line x1="1140.5" y1="24" x2="1140.5" y2="58.527849355689455" stroke="#006340" stroke-width="1"/><rect x="1133.6" y="36.14281208662021" width="13.799999999999999" height="22.134223784553683" fill="#006340"/>
</svg>