<svg xmlns="http://www.w3.org/2000/svg" width="1200" height="700">
  <rect width="100%" height="100%" fill="#0d1117"/>
  <line x1="48" y1="24" x2="1152" y2="24" stroke="#21262d" stroke-width="1"/><line x1="48" y1="181" x2="1152" y2="181" stroke="#21262d" stroke-width="1"/><line x1="48" y1="338" x2="1152" y2="338" stroke="#21262d" stroke-width="1"/><line x1="48" y1="495" x2="1152" y2="495" stroke="#21262d" stroke-width="1"/><line x1="48" y1="652" x2="1152" y2="652" stroke="#21262d" stroke-width="1"/>
  <line x1="59.5" y1="466.51555535790425" x2="59.5" y2="652" stroke="#006340" stroke-width="1"/><rect x="52.6" y="515.5398296198348" width="13.799999999999999" height="78.49711883527323" fill="#006340"/><line x1="82.5" y1="510.3100412161341" x2="82.5" y2="604.3439811186906" stroke="#A02128" stroke-width="1"/><rect x="75.6" y="515.5398296198348" width="13.799999999999999" height="71.30600861541723" fill="#A02128"/><line x1="105.5" y1="549.1643170631357" x2="105.5" y2="632.4527825527992" stroke="#006340" stroke-width="1"/><rect x="98.6" y="561.684942632911" width="13.799999999999999" height="25.160895602341043" fill="#006340"/><line x1="128.5" y1="514.9744626547516" x2="128.5" y2="587.6093589907259" stroke="#A02128" stroke-width="1"/><rect x="121.6" y="561.684942632911" width="13.799999999999999" height="4.260439523110563" fill="#A02128"/><line x1="151.5" y1="475.20967377103534" x2="151.5" y2="621.0514396772727" stroke="#006340" stroke-width="1"/><rect x="144.6" y="507.6461413795332" width="13.799999999999999" height="58.29924077648832" fill="#006340"/><line x1="174.5" y1="383.3700093257613" x2="174.5" y2="554.2465504486729" stroke="#006340" stroke-width="1"/><rect x="167.6" y="439.46872278858297" width="13.799999999999999" height="68.17741859095025" fill="#006340"/><line x1="197.5" y1="358.4479031930391" x2="197.5" y2="493.3673605336481" stroke="#006340" stroke-width="1"/><rect x="190.6" y="368.69396686898654" width="13.799999999999999" height="70.77475591959643" fill="#006340"/><line x1="220.5" y1="344.9864537810174" x2="220.5" y2="368.75418818793923" stroke="#006340" stroke-width="1"/><rect x="213.6" y="361.7395443965942" width="13.799999999999999" height="6.954422472392309" fill="#006340"/><line x1="243.5" y1="288.4738213007679" x2="243.5" y2="400.0215350872574" stroke="#006340" stroke-width="1"/><rect x="236.6" y="333.01604048604923" width="13.799999999999999" height="28.72350391054499" fill="#006340"/><line x1="266.5" y1="294.82037727397403" x2="266.5" y2="344.8468650011352" stroke="#A02128" stroke-width="1"/><rect x="259.6" y="333.01604048604923" width="13.799999999999999" height="4.317293028510221" fill="#A02128"/><line x1="289.5" y1="330.6225581628102" x2="289.5" y2="388.14798883374453" stroke="#A02128" stroke-width="1"/><rect x="282.6" y="337.33333351455946" width="13.799999999999999" height="4.073708294822097" fill="#A02128"/><line x1="312.5" y1="282.5896545375489" x2="312.5" y2="375.5455997654936" stroke="#A02128" stroke-width="1"/><rect x="305.6" y="341.40704180938155" width="13.799999999999999" height="22.51132156075232" fill="#A02128"/><line x1="335.5" y1="249.16043650551535" x2="335.5" y2="378.2602507801189" stroke="#006340" stroke-width="1"/><rect x="328.6" y="303.326576127005" width="13.799999999999999" height="60.59178724312886" fill="#006340"/><line x1="358.5" y1="266.6061431225346" x2="358.5" y2="313.55945841417804" stroke="#A02128" stroke-width="1"/><rect x="351.6" y="303.326576127005" width="13.799999999999999" height="10.139197254745511" fill="#A02128"/><line x1="381.5" y1="267.1497437933569" x2="381.5" y2="325.79783929826596" stroke="#006340" stroke-width="1"/><rect x="374.6" y="310.1616083172065" width="13.799999999999999" height="3.3041650645440086" fill="#006340"/><line x1="404.5" y1="161.37214206412835" x2="404.5" y2="340.18098067393277" stroke="#006340" stroke-width="1"/><rect x="397.6" y="218.11924128238036" width="13.799999999999999" height="92.04236703482616" fill="#006340"/><line x1="427.5" y1="116.6125493003176" x2="427.5" y2="238.68258187391405" stroke="#006340" stroke-width="1"/><rect x="420.6" y="125.4348328293961" width="13.799999999999999" height="92.68440845298426" fill="#006340"/><line x1="450.5" y1="37.31627809362726" x2="450.5" y2="134.7258708963243" stroke="#006340" stroke-width="1"/><rect x="443.6" y="79.50718392909437" width="13.799999999999999" height="45.92764890030173" fill="#006340"/><line x1="473.5" y1="50.1373496207508" x2="473.5" y2="135.28832748367176" stroke="#A02128" stroke-width="1"/><rect x="466.6" y="79.50718392909437" width="13.799999999999999" height="43.9666069677852" fill="#A02128"/><line x1="496.5" y1="78.48701579881788" x2="496.5" y2="201.06592602182496" stroke="#A02128" stroke-width="1"/><rect x="489.6" y="123.47379089687956" width="13.799999999999999" height="54.93157596616186" fill="#A02128"/><line x1="519.5" y1="143.0116250773973" x2="519.5" y2="213.68986115995875" stroke="#A02128" stroke-width="1"/><rect x="512.6" y="178.40536686304142" width="13.799999999999999" height="10.98320792455894" fill="#A02128"/><line x1="542.5" y1="160.10834244163738" x2="542.5" y2="298.1352317129387" stroke="#A02128" stroke-width="1"/><rect x="535.6" y="189.38857478760036" width="13.799999999999999" height="83.00135672497873" fill="#A02128"/><line x1="565.5" y1="228.57261728648132" x2="565.5" y2="289.2571097958391" stroke="#A02128" stroke-width="1"/><rect x="558.6" y="272.3899315125791" width="13.799999999999999" height="8.759390432258499" fill="#A02128"/><line x1="588.5" y1="275.2085822000041" x2="588.5" y2="391.5069861967158" stroke="#A02128" stroke-width="1"/><rect x="581.6" y="281.1493219448376" width="13.799999999999999" height="53.01617718999279" fill="#A02128"/><line x1="611.5" y1="324.97760848102" x2="611.5" y2="383.31322194705996" stroke="#A02128" stroke-width="1"/><rect x="604.6" y="334.1654991348304" width="13.799999999999999" height="14.596250024147366" fill="#A02128"/><line x1="634.5" y1="236.2876298389687" x2="634.5" y2="385.14291468461346" stroke="#006340" stroke-width="1"/><rect x="627.6" y="274.6719508849795" width="13.799999999999999" height="74.08979827399827" fill="#006340"/><line x1="657.5" y1="148.07790064726595" x2="657.5" y2="320.7411652774139" stroke="#006340" stroke-width="1"/><rect x="650.6" y="185.64273238685917" width="13.799999999999999" height="89.02921849812031" fill="#006340"/><line x1="680.5" y1="87.8818833783755" x2="680.5" y2="238.66716903705498" stroke="#006340" stroke-width="1"/><rect x="673.6" y="112.40324453779226" width="13.799999999999999" height="73.2394878490669" fill="#006340"/><line x1="703.5" y1="105.80572751328009" x2="703.5" y2="143.43184200195196" stroke="#A02128" stroke-width="1"/><rect x="696.6" y="112.40324453779226" width="13.799999999999999" height="28.611149875015656" fill="#A02128"/><line x1="726.5" y1="114.98770826570171" x2="726.5" y2="172.0112399152938" stroke="#006340" stroke-width="1"/><rect x="719.6" y="118.39158739233312" width="13.799999999999999" height="22.622807020474795" fill="#006340"/><line x1="749.5" y1="25.520710810992114" x2="749.5" y2="170.22399107269797" stroke="#006340" stroke-width="1"/><rect x="742.6" y="67.9770250787808" width="13.799999999999999" height="50.414562313552324" fill="#006340"/><line x1="772.5" y1="24" x2="772.5" y2="184.73131208668417" stroke="#A02128" stroke-width="1"/><rect x="765.6" y="67.9770250787808" width="13.799999999999999" height="70.41952577518555" fill="#A02128"/><line x1="795.5" y1="137.34773685225753" x2="795.5" y2="213.13185289229813" stroke="#A02128" stroke-width="1"/><rect x="788.6" y="138.39655085396635" width="13.799999999999999" height="37.05208880793708" fill="#A02128"/><line x1="818.5" y1="149.89627312776605" x2="818.5" y2="203.06135463077152" stroke="#006340" stroke-width="1"/><rect x="811.6" y="163.36995947772505" width="13.799999999999999" height="12.078680184178381" fill="#006340"/><line x1="841.5" y1="131.24873520475" x2="841.5" y2="201.18356222916503" stroke="#A02128" stroke-width="1"/><rect x="834.6" y="163.36995947772505" width="13.799999999999999" height="10.01811701359668" fill="#A02128"/><line x1="864.5" y1="35.26636186649796" x2="864.5" y2="217.8563280177113" stroke="#006340" stroke-width="1"/><rect x="857.6" y="97.04817249767473" width="13.799999999999999" height="76.339903993647" fill="#006340"/><line x1="887.5" y1="90.3900433174332" x2="887.5" y2="155.44642294678516" stroke="#A02128" stroke-width="1"/><rect x="880.6" y="97.04817249767473" width="13.799999999999999" height="55.377902622479496" fill="#A02128"/><line x1="910.5" y1="99.0263099675492" x2="910.5" y2="164.27267647032232" stroke="#A02128" stroke-width="1"/><rect x="903.6" y="152.42607512015422" width="13.799999999999999" height="11.000209191035879" fill="#A02128"/><line x1="933.5" y1="132.51842530557906" x2="933.5" y2="264.4596446098576" stroke="#A02128" stroke-width="1"/><rect x="926.6" y="163.4262843111901" width="13.799999999999999" height="50.96109242537915" fill="#A02128"/><line x1="956.5" y1="183.01246780739115" x2="956.5" y2="278.62302256297363" stroke="#A02128" stroke-width="1"/><rect x="949.6" y="214.38737673656925" width="13.799999999999999" height="13.611923696267468" fill="#A02128"/><line x1="979.5" y1="202.7224964699065" x2="979.5" y2="317.460836946368" stroke="#A02128" stroke-width="1"/><rect x="972.6" y="227.99930043283672" width="13.799999999999999" height="72.97540637279593" fill="#A02128"/><line x1="1002.5" y1="290.7879398470818" x2="1002.5" y2="364.1083717580995" stroke="#A02128" stroke-width="1"/><rect x="995.6" y="300.97470680563265" width="13.799999999999999" height="45.80111262836465" fill="#A02128"/><line x1="1025.5" y1="325.9360483843952" x2="1025.5" y2="429.74984180913464" stroke="#A02128" stroke-width="1"/><rect x="1018.6" y="346.7758194339973" width="13.799999999999999" height="75.19301005523312" fill="#A02128"/><line x1="1048.5" y1="395.1104251464018" x2="1048.5" y2="461.9313254869561" stroke="#A02128" stroke-width="1"/><rect x="1041.6" y="421.9688294892304" width="13.799999999999999" height="13.946375908313257" fill="#A02128"/><line x1="1071.5" y1="378.38051521818164" x2="1071.5" y2="529.7605885569048" stroke="#A02128" stroke-width="1"/><rect x="1064.6" y="435.9152053975437" width="13.799999999999999" height="50.948467730747154" fill="#A02128"/><line x1="1094.5" y1="446.1083248522423" x2="1094.5" y2="528.6594442471683" stroke="#A02128" stroke-width="1"/><rect x="1087.6" y="486.8636731282908" width="13.799999999999999" height="36.5291149596315" fill="#A02128"/><line x1="1117.5" y1="507.5673126063457" x2="1117.5" y2="538.7548264518102" stroke="#006340" stroke-width="1"/><rect x="1110.6" y="518.134705520558" width="13.799999999999999" height="5.25808256736434" fill="#006340"/><line x1="1140.5" y1="484.0070353727722" x2="1140.5" y2="610.6521108534189" stroke="#A02128" stroke-width="1"/><rect x="1133.6" y="518.134705520558" width="13.799999999999999" height="52.13715021064411" fill="#A02128"/>
</svg>