<svg xmlns="http://www.w3.org/2000/svg" width="1200" height="700">
  <rect width="100%" height="100%" fill="#0d1117"/>
  <line x1="48" y1="24" x2="1152" y2="24" stroke="#21262d" stroke-width="1"/><line x1="48" y1="181" x2="1152" y2="181" stroke="#21262d" stroke-width="1"/><line x1="48" y1="338" x2="1152" y2="338" stroke="#21262d" stroke-width="1"/><line x1="48" y1="495" x2="1152" y2="495" stroke="#21262d" stroke-width="1"/><line x1="48" y1="652" x2="1152" y2="652" stroke="#21262d" stroke-width="1"/>
  <line x1="59.5" y1="621.822180364996" x2="59.5" y2="652" stroke="#A02128" stroke-width="1"/><rect x="52.6" y="633.900912025253" width="13.799999999999999" height="5.979828505262276" fill="#A02128"/><line x1="82.5" y1="610.0007597950614" x2="82.5" y2="649.8274865047249" stroke="#006340" stroke-width="1"/><rect x="75.6" y="611.8757980936002" width="13.799999999999999" height="28.00494243691503" fill="#006340"/><line x1="105.5" y1="568.1723487978954" x2="105.5" y2="625.0755753562717" stroke="#006340" stroke-width="1"/><rect x="98.6" y="579.258773989781" width="13.799999999999999" height="32.617024103819176" fill="#006340"/><line x1="128.5" y1="544.2044951894667" x2="128.5" y2="586.5888229178348" stroke="#006340" stroke-width="1"/><rect x="121.6" y="548.6971607047259" width="13.799999999999999" height="30.56161328505516" fill="#006340"/><line x1="151.5" y1="532.216989269067" x2="151.5" y2="558.273650149814" stroke="#006340" stroke-width="1"/><rect x="144.6" y="541.8989678403534" width="13.799999999999999" height="6.798192864372481" fill="#006340"/><line x1="174.5" y1="525.4914476023141" x2="174.5" y2="550.080753685059" stroke="#006340" stroke-width="1"/><rect x="167.6" y="534.7229858181988" width="13.799999999999999" height="7.175982022154585" fill="#006340"/><line x1="197.5" y1="525.8820016638091" x2="197.5" y2="544.4421220526706" stroke="#006340" stroke-width="1"/><rect x="190.6" y="533.8985513067184" width="13.799999999999999" height="1" fill="#006340"/><line x1="220.5" y1="521.2388526563075" x2="220.5" y2="555.5431381511785" stroke="#A02128" stroke-width="1"/><rect x="213.6" y="533.8985513067184" width="13.799999999999999" height="7.872731441853489" fill="#A02128"/><line x1="243.5" y1="516.4468565674904" x2="243.5" y2="547.5282838817128" stroke="#006340" stroke-width="1"/><rect x="236.6" y="524.0973099318624" width="13.799999999999999" height="17.67397281670958" fill="#006340"/><line x1="266.5" y1="496.97069553501007" x2="266.5" y2="533.5664990772331" stroke="#006340" stroke-width="1"/><rect x="259.6" y="499.32149815071364" width="13.799999999999999" height="24.775811781148718" fill="#006340"/><line x1="289.5" y1="479.06620279678907" x2="289.5" y2="509.15962270994584" stroke="#006340" stroke-width="1"/><rect x="282.6" y="492.31290902865413" width="13.799999999999999" height="7.0085891220595045" fill="#006340"/><line x1="312.5" y1="489.63696359429395" x2="312.5" y2="512.9274022410956" stroke="#A02128" stroke-width="1"/><rect x="305.6" y="492.31290902865413" width="13.799999999999999" height="7.200056077384261" fill="#A02128"/><line x1="335.5" y1="483.0868339251947" x2="335.5" y2="502.8069057553047" stroke="#006340" stroke-width="1"/><rect x="328.6" y="489.5866015651977" width="13.799999999999999" height="9.926363540840669" fill="#006340"/><line x1="358.5" y1="467.52333298037456" x2="358.5" y2="492.05624095382416" stroke="#006340" stroke-width="1"/><rect x="351.6" y="474.81260352797625" width="13.799999999999999" height="14.773998037221475" fill="#006340"/><line x1="381.5" y1="451.52688853771406" x2="381.5" y2="480.66134201425564" stroke="#006340" stroke-width="1"/><rect x="374.6" y="462.0743395492276" width="13.799999999999999" height="12.738263978748648" fill="#006340"/><line x1="404.5" y1="428.07900098449585" x2="404.5" y2="464.386208778087" stroke="#006340" stroke-width="1"/><rect x="397.6" y="433.1449387187913" width="13.799999999999999" height="28.929400830436293" fill="#006340"/><line x1="427.5" y1="403.5681025106829" x2="427.5" y2="445.35608730063797" stroke="#006340" stroke-width="1"/><rect x="420.6" y="404.96210639825415" width="13.799999999999999" height="28.18283232053716" fill="#006340"/><line x1="450.5" y1="374.5830902939959" x2="450.5" y2="409.346239637028" stroke="#006340" stroke-width="1"/><rect x="443.6" y="384.84873798662517" width="13.799999999999999" height="20.113368411628983" fill="#006340"/><line x1="473.5" y1="366.5695677722877" x2="473.5" y2="394.766192949699" stroke="#006340" stroke-width="1"/><rect x="466.6" y="375.73944234867434" width="13.799999999999999" height="9.109295637950822" fill="#006340"/><line x1="496.5" y1="346.22502203997846" x2="496.5" y2="378.8653089341592" stroke="#006340" stroke-width="1"/><rect x="489.6" y="354.61030585301165" width="13.799999999999999" height="21.129136495662692" fill="#006340"/><line x1="519.5" y1="339.82520882483817" x2="519.5" y2="357.6976535392855" stroke="#006340" stroke-width="1"/><rect x="512.6" y="348.7491782321432" width="13.799999999999999" height="5.861127620868444" fill="#006340"/><line x1="542.5" y1="348.20531088190376" x2="542.5" y2="364.7538793535532" stroke="#A02128" stroke-width="1"/><rect x="535.6" y="348.7491782321432" width="13.799999999999999" height="10.043727613070985" fill="#A02128"/><line x1="565.5" y1="358.2015148079087" x2="565.5" y2="378.80184527892277" stroke="#A02128" stroke-width="1"/><rect x="558.6" y="358.7929058452142" width="13.799999999999999" height="5.5128153383006975" fill="#A02128"/><line x1="588.5" y1="356.34328163083916" x2="588.5" y2="377.22265701801217" stroke="#A02128" stroke-width="1"/><rect x="581.6" y="364.3057211835149" width="13.799999999999999" height="2.560734461190634" fill="#A02128"/><line x1="611.5" y1="356.518432177266" x2="611.5" y2="382.7941077513398" stroke="#A02128" stroke-width="1"/><rect x="604.6" y="366.8664556447055" width="13.799999999999999" height="9.429228931749321" fill="#A02128"/><line x1="634.5" y1="357.7286820472474" x2="634.5" y2="390.19048672194265" stroke="#006340" stroke-width="1"/><rect x="627.6" y="367.26964450473713" width="13.799999999999999" height="9.026040071717716" fill="#006340"/><line x1="657.5" y1="355.5877650408695" x2="657.5" y2="375.529637675132" stroke="#006340" stroke-width="1"/><rect x="650.6" y="356.74984218546695" width="13.799999999999999" height="10.519802319270184" fill="#006340"/><line x1="680.5" y1="322.8507221787964" x2="680.5" y2="363.8755825637007" stroke="#006340" stroke-width="1"/><rect x="673.6" y="334.03951962929654" width="13.799999999999999" height="22.71032255617041" fill="#006340"/><line x1="703.5" y1="307.1669411327833" x2="703.5" y2="339.79488509754583" stroke="#006340" stroke-width="1"/><rect x="696.6" y="311.43003837083836" width="13.799999999999999" height="22.609481258458175" fill="#006340"/><line x1="726.5" y1="269.21697079381556" x2="726.5" y2="313.85884467356834" stroke="#006340" stroke-width="1"/><rect x="719.6" y="281.28989298973545" width="13.799999999999999" height="30.14014538110291" fill="#006340"/><line x1="749.5" y1="248.91701669737" x2="749.5" y2="293.2558216906447" stroke="#006340" stroke-width="1"/><rect x="742.6" y="253.38655161995797" width="13.799999999999999" height="27.90334136977748" fill="#006340"/><line x1="772.5" y1="205.26716571677667" x2="772.5" y2="268.7581849392645" stroke="#006340" stroke-width="1"/><rect x="765.6" y="219.47321349385476" width="13.799999999999999" height="33.91333812610321" fill="#006340"/><line x1="795.5" y1="209.34035239962503" x2="795.5" y2="225.8117952687665" stroke="#006340" stroke-width="1"/><rect x="788.6" y="215.1017442878491" width="13.799999999999999" height="4.371469206005656" fill="#006340"/><line x1="818.5" y1="202.95102033617906" x2="818.5" y2="216.86205723100727" stroke="#A02128" stroke-width="1"/><rect x="811.6" y="215.1017442878491" width="13.799999999999999" height="1" fill="#A02128"/><line x1="841.5" y1="215.10145467666854" x2="841.5" y2="237.16030002837" stroke="#A02128" stroke-width="1"/><rect x="834.6" y="215.3264442921464" width="13.799999999999999" height="5.446390233750776" fill="#A02128"/><line x1="864.5" y1="198.07451435170276" x2="864.5" y2="232.12229365122482" stroke="#006340" stroke-width="1"/><rect x="857.6" y="211.441437912207" width="13.799999999999999" height="9.331396613690174" fill="#006340"/><line x1="887.5" y1="189.59376696341548" x2="887.5" y2="226.60093630353612" stroke="#006340" stroke-width="1"/><rect x="880.6" y="205.21317979054538" width="13.799999999999999" height="6.228258121661611" fill="#006340"/><line x1="910.5" y1="165.81715867040026" x2="910.5" y2="219.05558966340192" stroke="#006340" stroke-width="1"/><rect x="903.6" y="170.05817908409978" width="13.799999999999999" height="35.155000706445605" fill="#006340"/><line x1="933.5" y1="143.7582600985886" x2="933.5" y2="172.21263086544377" stroke="#006340" stroke-width="1"/><rect x="926.6" y="143.9585379312353" width="13.799999999999999" height="26.09964115286448" fill="#006340"/><line x1="956.5" y1="135.1539585419357" x2="956.5" y2="157.9092552746729" stroke="#006340" stroke-width="1"/><rect x="949.6" y="137.4222123743051" width="13.799999999999999" height="6.536325556930194" fill="#006340"/><line x1="979.5" y1="128.30932285764482" x2="979.5" y2="149.37255186256397" stroke="#006340" stroke-width="1"/><rect x="972.6" y="136.8250359018017" width="13.799999999999999" height="1" fill="#006340"/><line x1="1002.5" y1="102.56264537839638" x2="1002.5" y2="152.19162639616565" stroke="#006340" stroke-width="1"/><rect x="995.6" y="105.25552796926411" width="13.799999999999999" height="31.56950793253759" fill="#006340"/><line x1="1025.5" y1="86.6419251664696" x2="1025.5" y2="110.0964991497375" stroke="#006340" stroke-width="1"/><rect x="1018.6" y="95.5677087893846" width="13.799999999999999" height="9.687819179879511" fill="#006340"/><line x1="1048.5" y1="65.23984407793955" x2="1048.5" y2="107.17092979734434" stroke="#006340" stroke-width="1"/><rect x="1041.6" y="67.35121184297043" width="13.799999999999999" height="28.216496946414168" fill="#006340"/><line x1="1071.5" y1="53.63600129063673" x2="1071.5" y2="70.59168225886947" stroke="#006340" stroke-width="1"/><rect x="1064.6" y="55.57839441958379" width="13.799999999999999" height="11.772817423386641" fill="#006340"/><line x1="1094.5" y1="49.50487321985372" x2="1094.5" y2="56.3004666800324" stroke="#006340" stroke-width="1"/><rect x="1087.6" y="54.44637308698941" width="13.799999999999999" height="1.1320213325943769" fill="#006340"/><line x1="1117.5" y1="24" x2="1117.5" y2="65.89691401598611" stroke="#006340" stroke-width="1"/><rect x="1110.6" y="37.88170727232398" width="13.799999999999999" height="16.56466581466543" fill="#006340"/><line x1="1140.5" y1="25.030506739835346" x2="1140.5" y2="50.15448301119534" stroke="#A02128" stroke-width="1"/><rect x="1133.6" y="37.88170727232398" width="13.799999999999999" height="5.468969234262431" fill="#A02128"/>
</svg>