<svg xmlns="http://www.w3.org/2000/svg" width="1200" height="700">
  <rect width="100%" height="100%" fill="#0d1117"/>
  <line x1="48" y1="24" x2="1152" y2="24" stroke="#21262d" stroke-width="1"/><line x1="48" y1="181" x2="1152" y2="181" stroke="#21262d" stroke-width="1"/><line x1="48" y1="338" x2="1152" y2="338" stroke="#21262d" stroke-width="1"/><line x1="48" y1="495" x2="1152" y2="495" stroke="#21262d" stroke-width="1"/><line x1="48" y1="652" x2="1152" y2="652" stroke="#21262d" stroke-width="1"/>
  <line x1="59.5" y1="614.4177724391343" x2="59.5" y2="652" stroke="#006340" stroke-width="1"/><rect x="52.6" y="622.2412592814495" width="13.799999999999999" height="17.133058835675115" fill="#006340"/><line x1="82.5" y1="598.5795890018957" x2="82.5" y2="628.0399348406289" stroke="#006340" stroke-width="1"/><rect x="75.6" y="605.5312395862159" width="13.799999999999999" height="16.710019695233655" fill="#006340"/><line x1="105.5" y1="584.8594878393724" x2="105.5" y2="613.5078305477737" stroke="#006340" stroke-width="1"/><rect x="98.6" y="595.305167748951" width="13.799999999999999" height="10.22607183726484" fill="#006340"/><line x1="128.5" y1="561.3147581351359" x2="128.5" y2="608.5431958984166" stroke="#006340" stroke-width="1"/><rect x="121.6" y="569.3741044333642" width="13.799999999999999" height="25.93106331558681" fill="#006340"/><line x1="151.5" y1="542.1246457421478" x2="151.5" y2="573.1293213619462" stroke="#006340" stroke-width="1"/><rect x="144.6" y="543.1007591686947" width="13.799999999999999" height="26.2733452646695" fill="#006340"/><line x1="174.5" y1="520.0779367857253" x2="174.5" y2="549.9943735795978" stroke="#006340" stroke-width="1"/><rect x="167.6" y="530.3737326535382" width="13.799999999999999" height="12.727026515156467" fill="#006340"/><line x1="197.5" y1="518.5392848268327" x2="197.5" y2="536.8504067792318" stroke="#006340" stroke-width="1"/><rect x="190.6" y="521.3517817028192" width="13.799999999999999" height="9.021950950719088" fill="#006340"/><line x1="220.5" y1="488.09608323110353" x2="220.5" y2="530.8008087922283" stroke="#006340" stroke-width="1"/><rect x="213.6" y="488.75424630262137" width="13.799999999999999" height="32.597535400197785" fill="#006340"/><line x1="243.5" y1="455.4296872693684" x2="243.5" y2="495.9084964857167" stroke="#006340" stroke-width="1"/><rect x="236.6" y="469.0886351766737" width="13.799999999999999" height="19.66561112594769" fill="#006340"/><line x1="266.5" y1="468.20130922706016" x2="266.5" y2="479.1380697497284" stroke="#A02128" stroke-width="1"/><rect x="259.6" y="469.0886351766737" width="13.799999999999999" height="1.8880056953387339" fill="#A02128"/><line x1="289.5" y1="458.04404236690584" x2="289.5" y2="489.6806638604748" stroke="#A02128" stroke-width="1"/><rect x="282.6" y="470.9766408720124" width="13.799999999999999" height="9.506709342382294" fill="#A02128"/><line x1="312.5" y1="468.0227029248766" x2="312.5" y2="482.07430123454157" stroke="#006340" stroke-width="1"/><rect x="305.6" y="470.30283802028134" width="13.799999999999999" height="10.180512194113362" fill="#006340"/><line x1="335.5" y1="468.00458031733206" x2="335.5" y2="476.7774189895342" stroke="#A02128" stroke-width="1"/><rect x="328.6" y="470.30283802028134" width="13.799999999999999" height="5.9557133491134095" fill="#A02128"/><line x1="358.5" y1="473.9549259812146" x2="358.5" y2="488.1939163725086" stroke="#A02128" stroke-width="1"/><rect x="351.6" y="476.25855136939475" width="13.799999999999999" height="1" fill="#A02128"/><line x1="381.5" y1="443.8371431231" x2="381.5" y2="490.34538998193045" stroke="#006340" stroke-width="1"/><rect x="374.6" y="449.64468717853526" width="13.799999999999999" height="27.597711295058673" fill="#006340"/><line x1="404.5" y1="441.136698939431" x2="404.5" y2="466.30222140545266" stroke="#A02128" stroke-width="1"/><rect x="397.6" y="449.64468717853526" width="13.799999999999999" height="10.269629168890106" fill="#A02128"/><line x1="427.5" y1="446.73294102596077" x2="427.5" y2="474.277224704525" stroke="#A02128" stroke-width="1"/><rect x="420.6" y="459.91431634742537" width="13.799999999999999" height="1" fill="#A02128"/><line x1="450.5" y1="453.51044685124674" x2="450.5" y2="472.2484471286666" stroke="#A02128" stroke-width="1"/><rect x="443.6" y="460.80166869906344" width="13.799999999999999" height="9.384599608288056" fill="#A02128"/><line x1="473.5" y1="465.98816271489466" x2="473.5" y2="487.84251154236046" stroke="#A02128" stroke-width="1"/><rect x="466.6" y="470.1862683073515" width="13.799999999999999" height="8.645961117733918" fill="#A02128"/><line x1="496.5" y1="438.9332029666135" x2="496.5" y2="483.62574848394456" stroke="#006340" stroke-width="1"/><rect x="489.6" y="453.86269194572213" width="13.799999999999999" height="24.969537479363282" fill="#006340"/><line x1="519.5" y1="439.8343092308347" x2="519.5" y2="463.5359412579185" stroke="#A02128" stroke-width="1"/><rect x="512.6" y="453.86269194572213" width="13.799999999999999" height="9.470397905715345" fill="#A02128"/><line x1="542.5" y1="429.52575940079555" x2="542.5" y2="477.6063457447326" stroke="#006340" stroke-width="1"/><rect x="535.6" y="438.6949287014427" width="13.799999999999999" height="24.6381611499948" fill="#006340"/><line x1="565.5" y1="426.26026489236335" x2="565.5" y2="450.8709958474173" stroke="#A02128" stroke-width="1"/><rect x="558.6" y="438.6949287014427" width="13.799999999999999" height="3.427974469186836" fill="#A02128"/><line x1="588.5" y1="436.6557396151178" x2="588.5" y2="449.66617967595516" stroke="#A02128" stroke-width="1"/><rect x="581.6" y="442.1229031706295" width="13.799999999999999" height="4.519012566740798" fill="#A02128"/><line x1="611.5" y1="425.6552937678126" x2="611.5" y2="449.7582715456017" stroke="#006340" stroke-width="1"/><rect x="604.6" y="435.4740207226928" width="13.799999999999999" height="11.167895014677526" fill="#006340"/><line x1="634.5" y1="430.7167470533132" x2="634.5" y2="453.27328172193484" stroke="#A02128" stroke-width="1"/><rect x="627.6" y="435.4740207226928" width="13.799999999999999" height="4.654772973086551" fill="#A02128"/><line x1="657.5" y1="405.44194007428945" x2="657.5" y2="453.68445358941165" stroke="#006340" stroke-width="1"/><rect x="650.6" y="417.34175514604283" width="13.799999999999999" height="22.787038549736508" fill="#006340"/><line x1="680.5" y1="396.7940152657111" x2="680.5" y2="426.27263504540406" stroke="#006340" stroke-width="1"/><rect x="673.6" y="399.8686416426291" width="13.799999999999999" height="17.473113503413742" fill="#006340"/><line x1="703.5" y1="387.1297620441565" x2="703.5" y2="408.1115301941812" stroke="#A02128" stroke-width="1"/><rect x="696.6" y="399.8686416426291" width="13.799999999999999" height="2.7913398733588792" fill="#A02128"/><line x1="726.5" y1="371.57930972293354" x2="726.5" y2="413.18226738193425" stroke="#006340" stroke-width="1"/><rect x="719.6" y="386.5131801702925" width="13.799999999999999" height="16.14680134569545" fill="#006340"/><line x1="749.5" y1="341.4213907120327" x2="749.5" y2="395.26440885620053" stroke="#006340" stroke-width="1"/><rect x="742.6" y="354.91828477530225" width="13.799999999999999" height="31.59489539499026" fill="#006340"/><line x1="772.5" y1="337.0388394072125" x2="772.5" y2="363.35838632410434" stroke="#006340" stroke-width="1"/><rect x="765.6" y="345.80740410281715" width="13.799999999999999" height="9.11088067248511" fill="#006340"/><line x1="795.5" y1="308.59762127745165" x2="795.5" y2="360.8342168163274" stroke="#006340" stroke-width="1"/><rect x="788.6" y="314.78840572823134" width="13.799999999999999" height="31.018998374585806" fill="#006340"/><line x1="818.5" y1="273.96815138216397" x2="818.5" y2="315.89545873915654" stroke="#006340" stroke-width="1"/><rect x="811.6" y="289.27926387200057" width="13.799999999999999" height="25.50914185623077" fill="#006340"/><line x1="841.5" y1="276.5738100389504" x2="841.5" y2="304.4715773375442" stroke="#A02128" stroke-width="1"/><rect x="834.6" y="289.27926387200057" width="13.799999999999999" height="2.656660955286327" fill="#A02128"/><line x1="864.5" y1="259.883110414247" x2="864.5" y2="301.61040441903225" stroke="#006340" stroke-width="1"/><rect x="857.6" y="264.6233339617878" width="13.799999999999999" height="27.31259086549909" fill="#006340"/><line x1="887.5" y1="227.66974318646623" x2="887.5" y2="278.2675253445039" stroke="#006340" stroke-width="1"/><rect x="880.6" y="242.58101667097202" width="13.799999999999999" height="22.042317290815788" fill="#006340"/><line x1="910.5" y1="210.62208078082904" x2="910.5" y2="245.85025651610158" stroke="#006340" stroke-width="1"/><rect x="903.6" y="221.34733425925657" width="13.799999999999999" height="21.23368241171545" fill="#006340"/><line x1="933.5" y1="185.53530027012806" x2="933.5" y2="222.92915305107374" stroke="#006340" stroke-width="1"/><rect x="926.6" y="200.30345395447762" width="13.799999999999999" height="21.043880304778952" fill="#006340"/><line x1="956.5" y1="168.1494002688475" x2="956.5" y2="206.60154792551464" stroke="#006340" stroke-width="1"/><rect x="949.6" y="178.76480178776262" width="13.799999999999999" height="21.538652166714996" fill="#006340"/><line x1="979.5" y1="151.89236022234456" x2="979.5" y2="184.62374602942816" stroke="#006340" stroke-width="1"/><rect x="972.6" y="152.932337768762" width="13.799999999999999" height="25.83246401900061" fill="#006340"/><line x1="1002.5" y1="148.0160511346441" x2="1002.5" y2="154.59195656921884" stroke="#006340" stroke-width="1"/><rect x="995.6" y="149.86516329268972" width="13.799999999999999" height="3.067174476072296" fill="#006340"/><line x1="1025.5" y1="108.48398409033757" x2="1025.5" y2="155.60912475200075" stroke="#006340" stroke-width="1"/><rect x="1018.6" y="117.27022118730599" width="13.799999999999999" height="32.59494210538372" fill="#006340"/><line x1="1048.5" y1="106.1148845191849" x2="1048.5" y2="139.43703332238442" stroke="#A02128" stroke-width="1"/><rect x="1041.6" y="117.27022118730599" width="13.799999999999999" height="10.676866173442022" fill="#A02128"/><line x1="1071.5" y1="77.36622528281828" x2="1071.5" y2="139.0609424140688" stroke="#006340" stroke-width="1"/><rect x="1064.6" y="92.27333986615929" width="13.799999999999999" height="35.673747494588724" fill="#006340"/><line x1="1094.5" y1="63.42710330551654" x2="1094.5" y2="99.14530298381567" stroke="#006340" stroke-width="1"/><rect x="1087.6" y="76.88466604360565" width="13.799999999999999" height="15.388673822553642" fill="#006340"/><line x1="1117.5" y1="41.97333781207658" x2="1117.5" y2="84.9073233105413" stroke="#006340" stroke-width="1"/><rect x="1110.6" y="48.15359193725237" width="13.799999999999999" height="28.731074106353276" fill="#006340"/><line x1="1140.5" y1="24" x2="1140.5" y2="49.40955516718407" stroke="#006340" stroke-width="1"/><rect x="1133.6" y="25.45467402624581" width="13.799999999999999" height="22.69891791100656" fill="#006340"/>
</svg>