<svg xmlns="http://www.w3.org/2000/svg" aria-label="Edge logo" viewBox="0 0 220 48"><path fill="none" stroke="#000000" stroke-linecap="round" stroke-linejoin="round" stroke-width="2.5" d="M4 38 28 12 44 12"/><circle cx="28" cy="12" r="3.5" fill="#000000"/><path fill="#000000" d="M18.47 0L3.10 0L3.10-25.20L18.32-25.20L18.32-23.11L5.40-23.11L5.40-13.68L17.32-13.68L17.32-11.59L5.40-11.59L5.40-2.09L18.47-2.09L18.47 0Z M31.12 0.50L31.12 0.50Q28.78 0.50 26.87-0.59Q24.96-1.69 23.83-3.73Q22.70-5.76 22.70-8.53L22.70-8.53L22.70-8.96Q22.70-11.74 23.81-13.77Q24.93-15.80 26.85-16.90Q28.78-18.00 31.12-18.00L31.12-18.00Q33.06-18.00 34.40-17.48Q35.73-16.96 36.57-16.15Q37.42-15.34 37.89-14.44L37.89-14.44L38.32-14.44L38.32-25.20L40.48-25.20L40.48 0L38.39 0L38.39-3.20L37.96-3.20Q37.20-1.76 35.60-0.63Q34 0.50 31.12 0.50ZM31.62-1.44L31.62-1.44Q34.61-1.44 36.47-3.35Q38.32-5.26 38.32-8.60L38.32-8.60L38.32-8.89Q38.32-12.24 36.47-14.15Q34.61-16.06 31.62-16.06L31.62-16.06Q28.67-16.06 26.80-14.15Q24.93-12.24 24.93-8.89L24.93-8.89L24.93-8.60Q24.93-5.26 26.80-3.35Q28.67-1.44 31.62-1.44Z M45.93-8.68L45.93-8.68L45.93-9.11Q45.93-11.88 47.07-13.86Q48.20-15.84 50.11-16.92Q52.02-18.00 54.36-18.00L54.36-18.00Q57.24-18.00 58.84-16.87Q60.44-15.73 61.20-14.29L61.20-14.29L61.63-14.29L61.63-17.50L63.64-17.50L63.64 4.46Q63.64 5.76 62.96 6.48Q62.28 7.20 60.87 7.20L60.87 7.20L48.92 7.20L48.92 5.26L60.44 5.26Q61.56 5.26 61.56 4.18L61.56 4.18L61.56-3.35L61.12-3.35Q60.66-2.48 59.81-1.66Q58.96-0.83 57.63-0.31Q56.30 0.22 54.36 0.22L54.36 0.22Q52.02 0.22 50.09-0.86Q48.16-1.94 47.05-3.94Q45.93-5.94 45.93-8.68ZM54.86-1.73L54.86-1.73Q57.85-1.73 59.70-3.60Q61.56-5.47 61.56-8.75L61.56-8.75L61.56-9.04Q61.56-12.35 59.70-14.20Q57.85-16.06 54.86-16.06L54.86-16.06Q51.91-16.06 50.04-14.20Q48.16-12.35 48.16-9.04L48.16-9.04L48.16-8.75Q48.16-5.47 50.04-3.60Q51.91-1.73 54.86-1.73Z M78.02 0.50L78.02 0.50Q75.32 0.50 73.33-0.63Q71.33-1.76 70.21-3.82Q69.10-5.87 69.10-8.53L69.10-8.53L69.10-8.96Q69.10-11.66 70.21-13.70Q71.33-15.73 73.29-16.87Q75.25-18.00 77.77-18.00L77.77-18.00Q80.22-18.00 82.11-16.97Q84-15.95 85.08-14.02Q86.16-12.10 86.16-9.43L86.16-9.43L86.16-8.28L71.26-8.28Q71.36-5.00 73.25-3.22Q75.14-1.44 78.02-1.44L78.02-1.44Q80.47-1.44 81.82-2.56Q83.17-3.67 83.89-5.29L83.89-5.29L85.84-4.43Q85.30-3.24 84.34-2.11Q83.39-0.97 81.88-0.23Q80.36 0.50 78.02 0.50ZM71.29-10.15L71.29-10.15L83.96-10.15Q83.82-13.00 82.13-14.53Q80.44-16.06 77.77-16.06L77.77-16.06Q75.14-16.06 73.42-14.53Q71.69-13.00 71.29-10.15Z" transform="matrix(.95 0 0 .95 58 34.5)"/></svg>