<svg xmlns="http://www.w3.org/2000/svg" viewBox="0 0 169.7 168">
<!-- SVG created with Arrow, by QuiverAI (https://quiver.ai) -->
  <style type="text/css">.cls-0 {fill:#F1F1F1;}
.cls-1 {fill:#FFFFFF;}
.cls-2 {fill:#C3EBC4;}
.cls-3 {fill:#2ACC45;}
.cls-4 {fill:#35A83E;}</style>
  <polygon class="cls-0" points="0 0 0 100.2 43.3 168 169.7 168 169.7 0"/>
  <polygon class="cls-1" points="6.6 94 0 100.2 0 125.8 43.3 168 82.3 168"/>
  <path class="cls-2" d="m84.8 57c-14.5 0-24.8 10.3-24.8 24s7.8 27 24.8 27c15 0 25-11.6 25-24.3 0-17.2-10.7-26.7-25-26.7z"/>
  <path class="cls-3" d="m84.7 59.5c-12.8 0-24.7 7.8-24.7 24.5s12.8 24 24.9 24 24-11.2 24-24c0-13.4-9.3-24.5-24.2-24.5z"/>
  <path class="cls-4" d="m73 63-0.5 1.2c3.4-0.4 7.6-1.2 11.1-1.2-3.6-1.1-7-1.2-10.6 0z"/>
  <path class="cls-4" d="m84.8 59.5c-15.2-0.3-24.8 10.1-24.8 25.1v2c2 4.4 1.4 8.2 4.3 11.3-3-8.5-5.3-23.9 7.7-33.6 3-2.5 23-8.2 32.8 7.6 3.9 6.4 2.3 20.1 0.2 24.1 4-3 3.9-7 3.9-11.8 0-12.9-8.9-24.7-24.1-24.7zm10.2 45.8v0.7c3-1.3 5.4-2.9 7.1-5h-1.1l-6 4.3z"/>
  <path class="cls-4" d="m71 103.3 0.8 1.7c5.2 2.3 8.2 2.9 13.2 2.9s7-0.5 10-1.9v-1c-8 2.4-16 1.6-24-1.7zm21-40.9 6 3-1-0.4-2.3-2h-2.7v-0.6z"/>
</svg>