<svg xmlns="http://www.w3.org/2000/svg" viewBox="0 0 150 113">
<!-- SVG created with Arrow, by QuiverAI (https://quiver.ai) -->
  <style type="text/css">.cls-0 {fill:#141414;}
.cls-1 {fill:#EAEAEC;}
.cls-2 {fill:#2ADD77;}</style>
  <path class="cls-1" d="m138.6 71.7-29-28.3c-1.6-0.4-3.2 1.6-2 2.3l29.1 28.1c1.2 0.9 2.9-0.8 1.9-2.1z"/>
  <path class="cls-1" d="m74.9 66.8-14.4-14.4c-0.5-0.5-1.3-0.4-1.7 0l-47.3 47.4c-1.4 1.2 0.5 3.4 2 2l45.9-46.1 14.7 14.3c0.5 0.4 0.9 0.5 1.4 0l57.2-56.5c1-1.4-1-3.5-2.3-2.1l-55.5 55.4z"/>
  <path class="cls-2" d="m96.3 27.1c1.3-3.1-0.6-7-4.5-7.3s-7.4 3.7-5.9 7c1.6 4.1 8.5 4.7 10.4 0.3z"/>
  <path class="cls-0" d="m0 0"/>
</svg>