<svg xmlns="http://www.w3.org/2000/svg" viewBox="0 0 150 109.4">
<!-- SVG created with Arrow, by QuiverAI (https://quiver.ai) -->
  <style type="text/css">.cls-0 {fill:#171A1F;}
.cls-1 {fill:#16C872;}
.cls-2 {fill:none;stroke:#ECEEF1;stroke-width:3.67;stroke-linecap:round;stroke-linejoin:round;}
.cls-3 {fill:#ECEEF1;}</style>
  <path class="cls-1" d="m132.2 22.2c0 2.5-2 4.5-4.6 4.6-2.5 0-5.1-1.9-5.2-4.6s1.3-4.3 4.1-4.3c3.7 0 5.7 1.9 5.7 4.3z"/>
  <polyline class="cls-2" points="116.9 12.7 137.7 12.7 137.6 32.4"/>
  <path class="cls-3" d="m12.1 98.9c-1-0.5-1.4-1.7-1-2.7l44.4-44.1c0.1-0.2 0.2-1.1 1.5-1.1s1.4 0.7 3.8 2.9l16.1 16.6 57.8-56.9 2.6 2.6-59.2 58.2c-0.7 0.6-1.7 0.7-2.4 0.1l-19.1-18.9-42.9 43c-0.4 0.4-1.1 0.5-1.6 0.3z"/>
  <path class="cls-3" d="m140.1 12.6"/>
</svg>