<svg xmlns="http://www.w3.org/2000/svg" viewBox="0 0 148 124.4" width="148" height="124.4" role="img" aria-label="Edge">
  <!-- R2 Mixed Candles · Space Grotesk Bold 700 -->
  <g id="mark-candles" opacity="0.9">
    <line x1="34.73" y1="47.02" x2="34.73" y2="92.68" stroke="#000000" stroke-width="2.4" opacity="0.45"/>
    <rect x="28.95" y="54.63" width="11.57" height="20.93" rx="1.5" fill="none" stroke="#000000" stroke-width="2.4" opacity="0.5"/>
    <line x1="55.95" y1="41.32" x2="55.95" y2="88.88" stroke="#000000" stroke-width="2.4" opacity="0.6"/>
    <rect x="50.16" y="50.83" width="11.57" height="24.73" rx="1.5" fill="#000000" opacity="0.55"/>
    <line x1="77.16" y1="52.73" x2="77.16" y2="94.59" stroke="#000000" stroke-width="2.4" opacity="0.4"/>
    <rect x="71.38" y="64.15" width="11.57" height="17.12" rx="1.5" fill="none" stroke="#000000" stroke-width="2.4" opacity="0.45"/>
    <line x1="98.38" y1="35.61" x2="98.38" y2="83.17" stroke="#000000" stroke-width="2.4" opacity="0.8"/>
    <rect x="92.59" y="41.32" width="11.57" height="30.44" rx="1.5" fill="#000000" opacity="0.75"/>
    <line x1="115.73" y1="45.12" x2="115.73" y2="77.46" stroke="#000000" stroke-width="2.4" opacity="0.6"/>
    <rect x="109.95" y="48.93" width="11.57" height="15.22" rx="1.5" fill="#000000" opacity="0.6"/>
  </g>
  <path d="M19.432 87.168V50.76800000000001H42.831999999999994V57.00800000000001H26.296V65.69200000000001H41.376V71.932H26.296V80.92800000000001H43.144V87.168Z" fill="#000000"/>
  <path d="M56.508 87.896Q53.440000000000005 87.896 50.762 86.362Q48.084 84.828 46.47200000000001 81.864Q44.86000000000001 78.9 44.86000000000001 74.688V73.85600000000001Q44.86000000000001 69.644 46.47200000000001 66.68Q48.084 63.71600000000001 50.736000000000004 62.18200000000001Q53.388000000000005 60.64800000000001 56.508 60.64800000000001Q60.044000000000004 60.64800000000001 61.864000000000004 61.81800000000001Q63.684 62.98800000000001 64.516 64.34H65.452V50.76800000000001H72.004V87.168H65.556V84.048H64.62Q63.736000000000004 85.504 61.89 86.7Q60.044000000000004 87.896 56.508 87.896ZM58.484 82.176Q61.5 82.176 63.528 80.226Q65.556 78.27600000000001 65.556 74.53200000000001V74.012Q65.556 70.268 63.554 68.31800000000001Q61.55200000000001 66.36800000000001 58.484 66.36800000000001Q55.468 66.36800000000001 53.440000000000005 68.31800000000001Q51.412000000000006 70.268 51.412000000000006 74.012V74.53200000000001Q51.412000000000006 78.27600000000001 53.440000000000005 80.226Q55.468 82.176 58.484 82.176Z" fill="#000000"/>
  <path d="M75.696 74.376V73.54400000000001Q75.696 69.488 77.30799999999999 66.602Q78.92 63.71600000000001 81.598 62.18200000000001Q84.276 60.64800000000001 87.44800000000001 60.64800000000001Q90.98400000000001 60.64800000000001 92.804 61.89600000000001Q94.624 63.144000000000005 95.456 64.49600000000001H96.392V61.376000000000005H102.84V91.744Q102.84 94.396 101.28 95.982Q99.72 97.56800000000001 97.12 97.56800000000001H79.856V91.84800000000001H94.832Q96.288 91.84800000000001 96.288 90.28800000000001V83.58000000000001H95.352Q94.572 84.88000000000001 92.778 86.07600000000001Q90.98400000000001 87.272 87.44800000000001 87.272Q84.276 87.272 81.598 85.738Q78.92 84.20400000000001 77.30799999999999 81.31800000000001Q75.696 78.432 75.696 74.376ZM89.32 81.552Q92.336 81.552 94.364 79.62800000000001Q96.392 77.70400000000001 96.392 74.22000000000001V73.7Q96.392 70.16400000000002 94.39 68.26600000000002Q92.388 66.36800000000001 89.32 66.36800000000001Q86.304 66.36800000000001 84.27600000000001 68.26600000000002Q82.248 70.16400000000002 82.248 73.7V74.22000000000001Q82.248 77.70400000000001 84.27600000000001 79.62800000000001Q86.304 81.552 89.32 81.552Z" fill="#000000"/>
  <path d="M119.532 87.896Q115.684 87.896 112.74600000000001 86.25800000000001Q109.808 84.62 108.17 81.63Q106.532 78.64 106.532 74.584V73.96000000000001Q106.532 69.90400000000001 108.144 66.91400000000002Q109.756 63.92400000000001 112.668 62.28600000000001Q115.58 60.64800000000001 119.428 60.64800000000001Q123.224 60.64800000000001 126.03200000000001 62.33800000000001Q128.84 64.028 130.4 67.018Q131.96 70.00800000000001 131.96 73.96000000000001V76.19600000000001H113.188Q113.292 78.84800000000001 115.164 80.512Q117.036 82.176 119.74 82.176Q122.496 82.176 123.79599999999999 80.98Q125.096 79.784 125.77199999999999 78.328L131.128 81.13600000000001Q130.4 82.488 129.022 84.07400000000001Q127.644 85.66000000000001 125.356 86.778Q123.068 87.896 119.532 87.896ZM113.24 71.308H125.304Q125.096 69.072 123.51 67.72Q121.924 66.36800000000001 119.376 66.36800000000001Q116.724 66.36800000000001 115.164 67.72Q113.604 69.072 113.24 71.308Z" fill="#000000"/>
</svg>
