<svg xmlns="http://www.w3.org/2000/svg" viewBox="0 0 800 500" width="800" height="500">
  
  <defs>
    <linearGradient id="screenGrad" x1="0%" y1="0%" x2="100%" y2="100%">
      <stop offset="0%" stop-color="#12131A"/>
      <stop offset="100%" stop-color="#0A0B0E"/>
    </linearGradient>
    <filter id="glow">
      <feGaussianBlur stdDeviation="20" result="blur"/>
      <feComposite in="SourceGraphic" in2="blur" operator="over"/>
    </filter>
  </defs>

  
  <rect x="0" y="0" width="800" height="500" rx="12" fill="#0A0B0E" stroke="#1E2030" stroke-width="2"/>
  
  <rect x="0" y="0" width="800" height="32" rx="12" fill="#12131A"/>
  <rect x="0" y="20" width="800" height="12" fill="#12131A"/>
  
  <circle cx="18" cy="14" r="5" fill="#1E2030"/>
  <circle cx="34" cy="14" r="5" fill="#1E2030"/>
  <circle cx="50" cy="14" r="5" fill="#1E2030"/>
  
  <rect x="180" y="6" width="440" height="20" rx="6" fill="#0A0B0E" stroke="#1E2030" stroke-width="1"/>
  <text x="400" y="20" fill="#5A5E73" font-size="10" text-anchor="middle" font-family="system-ui, sans-serif">edge.app</text>

  
  <rect x="1" y="32" width="798" height="467" fill="url(#screenGrad)"/>

  
  <rect x="16" y="48" width="380" height="436" rx="8" fill="#0A0B0E" stroke="#1E2030" stroke-width="1"/>
  
  <text x="32" y="72" fill="#E8E9ED" font-size="13" font-weight="600" font-family="system-ui, sans-serif">AAPL</text>
  <text x="32" y="86" fill="#00FF88" font-size="11" font-family="system-ui, sans-serif">+2.4%</text>
  
  <line x1="60" y1="120" x2="60" y2="200" stroke="#1E2030" stroke-width="1"/>
  <rect x="56" y="140" width="8" height="30" rx="1" fill="#00FF88" opacity="0.7"/>
  <line x1="90" y1="130" x2="90" y2="210" stroke="#1E2030" stroke-width="1"/>
  <rect x="86" y="150" width="8" height="35" rx="1" fill="#00FF88" opacity="0.7"/>
  <line x1="120" y1="110" x2="120" y2="190" stroke="#1E2030" stroke-width="1"/>
  <rect x="116" y="130" width="8" height="25" rx="1" fill="#00FF88" opacity="0.7"/>
  <line x1="150" y1="140" x2="150" y2="220" stroke="#1E2030" stroke-width="1"/>
  <rect x="146" y="160" width="8" height="28" rx="1" fill="#fb7185" opacity="0.7"/>
  <line x1="180" y1="130" x2="180" y2="210" stroke="#1E2030" stroke-width="1"/>
  <rect x="176" y="145" width="8" height="32" rx="1" fill="#00FF88" opacity="0.7"/>
  <line x1="210" y1="120" x2="210" y2="200" stroke="#1E2030" stroke-width="1"/>
  <rect x="206" y="140" width="8" height="28" rx="1" fill="#00FF88" opacity="0.7"/>
  <line x1="240" y1="110" x2="240" y2="185" stroke="#1E2030" stroke-width="1"/>
  <rect x="236" y="130" width="8" height="25" rx="1" fill="#00FF88" opacity="0.7"/>
  <line x1="270" y1="125" x2="270" y2="195" stroke="#1E2030" stroke-width="1"/>
  <rect x="266" y="145" width="8" height="22" rx="1" fill="#fb7185" opacity="0.7"/>
  <line x1="300" y1="100" x2="300" y2="180" stroke="#1E2030" stroke-width="1"/>
  <rect x="296" y="120" width="8" height="30" rx="1" fill="#00FF88" opacity="0.7"/>
  <line x1="330" y1="90" x2="330" y2="170" stroke="#1E2030" stroke-width="1"/>
  <rect x="326" y="110" width="8" height="28" rx="1" fill="#00FF88" opacity="0.7"/>
  <line x1="360" y1="95" x2="360" y2="165" stroke="#1E2030" stroke-width="1"/>
  <rect x="356" y="115" width="8" height="24" rx="1" fill="#00FF88" opacity="0.7"/>
  
  <rect x="56" y="240" width="8" height="15" rx="1" fill="#1E2030"/>
  <rect x="86" y="238" width="8" height="18" rx="1" fill="#1E2030"/>
  <rect x="116" y="235" width="8" height="20" rx="1" fill="#1E2030"/>
  <rect x="146" y="242" width="8" height="12" rx="1" fill="#1E2030"/>
  <rect x="176" y="240" width="8" height="16" rx="1" fill="#1E2030"/>
  <rect x="206" y="237" width="8" height="18" rx="1" fill="#1E2030"/>
  <rect x="236" y="234" width="8" height="22" rx="1" fill="#1E2030"/>
  <rect x="266" y="240" width="8" height="15" rx="1" fill="#1E2030"/>
  <rect x="296" y="232" width="8" height="24" rx="1" fill="#1E2030"/>
  <rect x="326" y="228" width="8" height="28" rx="1" fill="#1E2030"/>
  <rect x="356" y="230" width="8" height="26" rx="1" fill="#1E2030"/>

  
  <rect x="404" y="48" width="380" height="436" rx="8" fill="#0A0B0E" stroke="#1E2030" stroke-width="1"/>
  
  <text x="420" y="72" fill="#E8E9ED" font-size="13" font-weight="600" font-family="system-ui, sans-serif">Research</text>
  <text x="500" y="72" fill="#8B8FA3" font-size="11" font-family="system-ui, sans-serif">AI Analysis</text>
  
  <rect x="420" y="80" width="60" height="2" rx="1" fill="#00FF88"/>

  
  <rect x="420" y="96" width="350" height="80" rx="6" fill="#12131A" stroke="#1E2030" stroke-width="1"/>
  <text x="436" y="116" fill="#00FF88" font-size="10" font-weight="600" font-family="system-ui, sans-serif">FUNDAMENTALS</text>
  <text x="436" y="134" fill="#E8E9ED" font-size="11" font-family="system-ui, sans-serif">P/E: 28.4 | Revenue Growth: +8.2% YoY</text>
  <text x="436" y="150" fill="#8B8FA3" font-size="10" font-family="system-ui, sans-serif">Earnings beat by 4.2% last quarter</text>
  <text x="436" y="166" fill="#8B8FA3" font-size="10" font-family="system-ui, sans-serif">Strong free cash flow margin: 24.1%</text>

  <rect x="420" y="188" width="350" height="80" rx="6" fill="#12131A" stroke="#1E2030" stroke-width="1"/>
  <text x="436" y="208" fill="#00FF88" font-size="10" font-weight="600" font-family="system-ui, sans-serif">MACRO &amp; SENTIMENT</text>
  <text x="436" y="226" fill="#E8E9ED" font-size="11" font-family="system-ui, sans-serif">Fed rate decision: 2 weeks out</text>
  <text x="436" y="242" fill="#8B8FA3" font-size="10" font-family="system-ui, sans-serif">Sector rotation into tech: +3.1% this week</text>
  <text x="436" y="258" fill="#8B8FA3" font-size="10" font-family="system-ui, sans-serif">Social sentiment: 72% bullish</text>

  <rect x="420" y="280" width="350" height="80" rx="6" fill="#12131A" stroke="#1E2030" stroke-width="1"/>
  <text x="436" y="300" fill="#00FF88" font-size="10" font-weight="600" font-family="system-ui, sans-serif">CATALYSTS</text>
  <text x="436" y="318" fill="#E8E9ED" font-size="11" font-family="system-ui, sans-serif">Product launch event: June 28</text>
  <text x="436" y="334" fill="#8B8FA3" font-size="10" font-family="system-ui, sans-serif">Analyst upgrades: 3 in last 7 days</text>
  <text x="436" y="350" fill="#8B8FA3" font-size="10" font-family="system-ui, sans-serif">Options activity: unusual call volume</text>

  
  <rect x="420" y="380" width="350" height="36" rx="8" fill="#12131A" stroke="#1E2030" stroke-width="1"/>
  <text x="440" y="402" fill="#5A5E73" font-size="11" font-family="system-ui, sans-serif">Ask about this setup...</text>
  
  <rect x="738" y="386" width="24" height="24" rx="6" fill="#00FF88"/>
  <path d="M746 394 L754 398 L746 402" fill="none" stroke="#0A0B0E" stroke-width="1.5" stroke-linecap="round" stroke-linejoin="round"/>

  
  <rect x="389" y="140" width="22" height="80" rx="4" fill="#0A0B0E" stroke="#00FF88" stroke-width="1" stroke-dasharray="3 2" opacity="0.6"/>
  <text x="400" y="180" fill="#00FF88" font-size="7" text-anchor="middle" font-family="system-ui, sans-serif" opacity="0.8" transform="rotate(-90, 400, 180)">LINKED</text>
</svg>
