<svg xmlns="http://www.w3.org/2000/svg" viewBox="0 0 150.9 141.7">
<!-- SVG created with Arrow, by QuiverAI (https://quiver.ai) -->
  <style type="text/css">.cls-0 {fill:#1B1C1E;}
.cls-1 {fill:none;stroke:#ECF0F2;stroke-width:4.1668;stroke-miterlimit:10;}
.cls-2 {fill:#25CF6B;}
.cls-3 {fill:#25D366;}</style>
  <polyline class="cls-1" points="133.8 31.6 133.8 128.7 16 128.7 126.7 28.2"/>
  <path class="cls-2" d="m134.8 11.3c-3.2-0.3-5.8 1.9-5.7 5.4 0.1 2.5 2.1 5.1 5.3 5.5 3 0.1 5.7-2.3 5.7-5.3 0.1-3.3-2.3-5.5-5.3-5.6z"/>
  <path class="cls-3" d="m134.7 11.3c-3.2-0.3-5.7 1.9-5.5 5.5 0.1 2.4 2.1 5.1 5.3 5.4 2.9 0.1 5.5-2.2 5.6-5.3 0-3.3-2.4-5.5-5.4-5.6z"/>
</svg>